  0
SECTION
  2
HEADER
  9
$ACADVER
  1
AC1015
  0
ENDSEC
  0
SECTION
  2
TABLES
  0
TABLE
  2
LTYPE
 70
1
  0
LTYPE
  2
CONTINUOUS
 70
0
  3
Solid line
 72
65
 73
0
 40
0.0
  0
ENDTAB
  0
TABLE
  2
LAYER
 70
3
  0
LAYER
  2
0
 70
0
 62
7
  6
CONTINUOUS
  0
LAYER
  2
1
 70
0
 62
2
  6
DASHED
  0
LAYER
  2
2
 70
0
 62
3
  6
PHANTOM
  0
ENDTAB
  0
ENDSEC
  0
SECTION
  2
BLOCKS
  0
BLOCK
  8
0
  2
HONEYCO
 70
0
 10
55
 20
55
 30
0.0
  3
HONEYCO
  0
POLYLINE
  8
0
 66
1
 70
1
  0
VERTEX
  8
0
 10
25
 20
-8.881784197001252e-16
 30
0.0
  0
VERTEX
  8
0
 10
5.669872981077809
 20
23.48076211353316
 30
0.0
  0
VERTEX
  8
0
 10
-24.33012701892219
 20
18.480762113533164
 30
0.0
  0
VERTEX
  8
0
 10
-35
 20
-9.999999999999998
 30
0.0
  0
VERTEX
  8
0
 10
-15.669872981077818
 20
-33.48076211353316
 30
0.0
  0
VERTEX
  8
0
 10
14.330127018922195
 20
-28.480762113533157
 30
0.0
  0
SEQEND
  0
POLYLINE
  8
0
 66
1
 70
1
  0
VERTEX
  8
0
 10
85
 20
-8.881784197001252e-16
 30
0.0
  0
VERTEX
  8
0
 10
65.66987298107782
 20
23.48076211353316
 30
0.0
  0
VERTEX
  8
0
 10
35.66987298107781
 20
18.480762113533164
 30
0.0
  0
VERTEX
  8
0
 10
25
 20
-9.999999999999998
 30
0.0
  0
VERTEX
  8
0
 10
44.330127018922184
 20
-33.48076211353316
 30
0.0
  0
VERTEX
  8
0
 10
74.3301270189222
 20
-28.480762113533157
 30
0.0
  0
SEQEND
  0
POLYLINE
  8
0
 66
1
 70
1
  0
VERTEX
  8
0
 10
145
 20
-8.881784197001252e-16
 30
0.0
  0
VERTEX
  8
0
 10
125.66987298107782
 20
23.48076211353316
 30
0.0
  0
VERTEX
  8
0
 10
95.66987298107782
 20
18.480762113533164
 30
0.0
  0
VERTEX
  8
0
 10
85
 20
-9.999999999999998
 30
0.0
  0
VERTEX
  8
0
 10
104.33012701892218
 20
-33.48076211353316
 30
0.0
  0
VERTEX
  8
0
 10
134.33012701892218
 20
-28.480762113533157
 30
0.0
  0
SEQEND
  0
POLYLINE
  8
0
 66
1
 70
1
  0
VERTEX
  8
0
 10
25
 20
60
 30
0.0
  0
VERTEX
  8
0
 10
5.669872981077809
 20
83.48076211353316
 30
0.0
  0
VERTEX
  8
0
 10
-24.33012701892219
 20
78.48076211353316
 30
0.0
  0
VERTEX
  8
0
 10
-35
 20
50
 30
0.0
  0
VERTEX
  8
0
 10
-15.669872981077818
 20
26.51923788646684
 30
0.0
  0
VERTEX
  8
0
 10
14.330127018922195
 20
31.519237886466843
 30
0.0
  0
SEQEND
  0
POLYLINE
  8
0
 66
1
 70
1
  0
VERTEX
  8
0
 10
85
 20
60
 30
0.0
  0
VERTEX
  8
0
 10
65.66987298107782
 20
83.48076211353316
 30
0.0
  0
VERTEX
  8
0
 10
35.66987298107781
 20
78.48076211353316
 30
0.0
  0
VERTEX
  8
0
 10
25
 20
50
 30
0.0
  0
VERTEX
  8
0
 10
44.330127018922184
 20
26.51923788646684
 30
0.0
  0
VERTEX
  8
0
 10
74.3301270189222
 20
31.519237886466843
 30
0.0
  0
SEQEND
  0
POLYLINE
  8
0
 66
1
 70
1
  0
VERTEX
  8
0
 10
145
 20
60
 30
0.0
  0
VERTEX
  8
0
 10
125.66987298107782
 20
83.48076211353316
 30
0.0
  0
VERTEX
  8
0
 10
95.66987298107782
 20
78.48076211353316
 30
0.0
  0
VERTEX
  8
0
 10
85
 20
50
 30
0.0
  0
VERTEX
  8
0
 10
104.33012701892218
 20
26.51923788646684
 30
0.0
  0
VERTEX
  8
0
 10
134.33012701892218
 20
31.519237886466843
 30
0.0
  0
SEQEND
  0
POLYLINE
  8
0
 66
1
 70
1
  0
VERTEX
  8
0
 10
25
 20
120
 30
0.0
  0
VERTEX
  8
0
 10
5.669872981077809
 20
143.48076211353316
 30
0.0
  0
VERTEX
  8
0
 10
-24.33012701892219
 20
138.48076211353316
 30
0.0
  0
VERTEX
  8
0
 10
-35
 20
110
 30
0.0
  0
VERTEX
  8
0
 10
-15.669872981077818
 20
86.51923788646684
 30
0.0
  0
VERTEX
  8
0
 10
14.330127018922195
 20
91.51923788646684
 30
0.0
  0
SEQEND
  0
POLYLINE
  8
0
 66
1
 70
1
  0
VERTEX
  8
0
 10
85
 20
120
 30
0.0
  0
VERTEX
  8
0
 10
65.66987298107782
 20
143.48076211353316
 30
0.0
  0
VERTEX
  8
0
 10
35.66987298107781
 20
138.48076211353316
 30
0.0
  0
VERTEX
  8
0
 10
25
 20
110
 30
0.0
  0
VERTEX
  8
0
 10
44.330127018922184
 20
86.51923788646684
 30
0.0
  0
VERTEX
  8
0
 10
74.3301270189222
 20
91.51923788646684
 30
0.0
  0
SEQEND
  0
POLYLINE
  8
0
 66
1
 70
1
  0
VERTEX
  8
0
 10
145
 20
120
 30
0.0
  0
VERTEX
  8
0
 10
125.66987298107782
 20
143.48076211353316
 30
0.0
  0
VERTEX
  8
0
 10
95.66987298107782
 20
138.48076211353316
 30
0.0
  0
VERTEX
  8
0
 10
85
 20
110
 30
0.0
  0
VERTEX
  8
0
 10
104.33012701892218
 20
86.51923788646684
 30
0.0
  0
VERTEX
  8
0
 10
134.33012701892218
 20
91.51923788646684
 30
0.0
  0
SEQEND
  0
ENDBLK
  8
0
  0
BLOCK
  8
0
  2
RINGS
 70
0
 10
515
 20
-50
 30
0.0
  3
RINGS
  0
CIRCLE
  8
0
 10
510
 20
10
 30
0.0
 40
55.226805085936306
  0
CIRCLE
  8
0
 10
458.0384757729337
 20
-19.999999999999993
 30
0.0
 40
55.226805085936306
  0
CIRCLE
  8
0
 10
458.0384757729337
 20
-79.99999999999999
 30
0.0
 40
55.226805085936306
  0
CIRCLE
  8
0
 10
510
 20
-110
 30
0.0
 40
55.226805085936306
  0
CIRCLE
  8
0
 10
561.9615242270663
 20
-80.00000000000003
 30
0.0
 40
55.226805085936306
  0
CIRCLE
  8
0
 10
561.9615242270663
 20
-20.00000000000004
 30
0.0
 40
55.226805085936306
  0
ENDBLK
  8
0
  0
ENDSEC
  0
SECTION
  2
ENTITIES
  0
INSERT
  8
0
  2
HONEYCO
 10
-180
 20
10
 30
0.0
 41
1.5
 42
1.5
 43
1.0
 50
30
  0
INSERT
  8
0
  2
RINGS
 10
455
 20
10
 30
0.0
 41
1
 42
1
 43
1.0
 50
0
  0
INSERT
  8
1
  2
RINGS
 10
140
 20
-170
 30
0.0
 41
1
 42
1
 43
1.0
 50
0
  0
LINE
  8
1
 10
20
 20
-35
 30
0.0
 11
250
 21
-35
 31
0.0
  0
LINE
  8
1
 10
250
 20
-35
 30
0.0
 11
250
 21
-310
 31
0.0
  0
LINE
  8
1
 10
250
 20
-310
 30
0.0
 11
10
 21
-310
 31
0.0
  0
LINE
  8
1
 10
10
 20
-310
 30
0.0
 11
10
 21
-35
 31
0.0
  0
LINE
  8
1
 10
10
 20
-35
 30
0.0
 11
20
 21
-35
 31
0.0
  0
INSERT
  8
1
  2
HONEYCO
 10
115.36426506941196
 20
121.8359275504715
 30
0.0
 41
1
 42
1
 43
1.0
 50
0
  0
INSERT
  8
0
  2
HONEYCO
 10
398.1878011110764
 20
267.304696582331
 30
0.0
 41
1
 42
1
 43
1.0
 50
0
  0
CIRCLE
  8
1
 10
66.96397501184545
 20
323.83777702654953
 30
0.0
 40
65.17215329310079
  0
ARC
  8
1
 10
37.6067499283066
 20
403.3811238331268
 30
0.0
 40
87.4694421138321
 50
355.2152208121211
 51
192.05835507420323
  0
LINE
  8
2
 10
-381.6040678469138
 20
428.60001249186337
 30
0.0
 11
-293.11549335969084
 21
426.2084351509625
 31
0.0
  0
LINE
  8
2
 10
-293.11549335969084
 20
426.2084351509625
 30
0.0
 11
-292.31828063902003
 21
368.0132446064474
 31
0.0
  0
LINE
  8
2
 10
-292.31828063902003
 20
368.0132446064474
 30
0.0
 11
-389.57601259028723
 21
367.2160166804987
 31
0.0
  0
LINE
  8
2
 10
-389.57601259028723
 20
367.2160166804987
 30
0.0
 11
-381.6040678469138
 21
428.60001249186337
 31
0.0
  0
ARC
  8
2
 10
-376.4408310803478
 20
327.95324643553147
 30
0.0
 40
47.993875794743076
 50
338.05524641334927
 51
171.9696302767791
  0
CIRCLE
  8
2
 10
-403.6987146323331
 20
300.4195005658451
 30
0.0
 40
42.05344865982929
  0
POLYLINE
  8
2
 66
1
 70
1
  0
VERTEX
  8
2
 10
-219.8951879367457
 20
315.390301501569
 30
0.0
  0
VERTEX
  8
2
 10
-268.0943810774746
 20
365.44328120413536
 30
0.0
  0
VERTEX
  8
2
 10
-318.14736078004097
 20
317.2440880634064
 30
0.0
  0
VERTEX
  8
2
 10
-269.9481676393121
 20
267.1911083608401
 30
0.0
  0
SEQEND
  0
SOLID
  8
2
10
-291.7322925606007
20
504.42427344259323
30
0.0
11
-201.51431861828868
21
502.81323983976927
31
0.0
12
-201.51431861828868
22
433.53873346222554
32
0.0
13
-293.34333384543885
23
439.1773472311023
33
0.0
  0
LINE
  8
2
 10
-475.6187267509474
 20
441.51591782935736
 30
0.0
 11
-412.7267127387251
 21
494.34521919618385
 31
0.0
  0
LINE
  8
2
 10
-412.6118237656862
 20
494.3995415603641
 30
0.0
 11
-336.30284356533656
 21
508.6550631370412
 31
0.0
  0
LINE
  8
2
 10
-336.286957562579
 20
508.6575052551852
 30
0.0
 11
-232.3054816002918
 21
521.2359080576297
 31
0.0
  0
LINE
  8
2
 10
-232.19299755602603
 20
521.2237262431529
 30
0.0
 11
-162.59250844687324
 21
496.9054680296806
 31
0.0
  0
LINE
  8
2
 10
-162.4251506383036
 20
496.6599422165707
 30
0.0
 11
-165.77940418103506
 21
408.6111305965926
 31
0.0
  0
LINE
  8
2
 10
-165.97945786057645
 20
408.3756507364089
 30
0.0
 11
-219.64729062455334
 21
397.4743427167977
 31
0.0
  0
LINE
  8
2
 10
-219.79208381228756
 20
397.48810443548496
 30
0.0
 11
-281.00700304167657
 21
422.6449100403738
 31
0.0
  0
LINE
  8
2
 10
-280.9759482124474
 20
422.6344688469613
 30
0.0
 11
-337.9980345191558
 21
437.72857780072064
 31
0.0
  0
LINE
  8
2
 10
-337.93726614837817
 20
437.72027462240203
 30
0.0
 11
-403.3449543233829
 21
438.55883800808493
 31
0.0
  0
LINE
  8
2
 10
-403.1383160657285
 20
438.6635079338115
 30
0.0
 11
-415.71671886817285
 21
421.05374081153604
 31
0.0
  0
LINE
  8
2
 10
-415.83820911647786
 20
420.9628611744016
 30
0.0
 11
-456.9276550722765
 21
406.7073475948576
 31
0.0
  0
HATCH
  8
2
  2
ANSI31
 70
0
 71
0
 41
1
 52
0
 91
1
 92
0
 93
5
 10
-318.14736078004097
 20
317.2440880634064
 10
-268.0943810774746
 20
365.44328120413536
 10
-219.8951879367457
 20
315.390301501569
 10
-269.9481676393121
 20
267.1911083608401
 10
-294.04776420967653
 20
292.2175982121232
 73
1
 75
0
 76
0
 98
0
  0
INSERT
  8
0
  2
HONEYCO
 10
645.7452244286726
 20
246.10573187417998
 30
0.0
 41
0.5
 42
0.5
 43
1.0
 50
0
  0
ENDSEC
  0
EOF
