  0
SECTION
  2
HEADER
  9
$ACADVER
  1
AC1015
  0
ENDSEC
  0
SECTION
  2
TABLES
  0
TABLE
  2
LTYPE
 70
1
  0
LTYPE
  2
CONTINUOUS
 70
0
  3
Solid line
 72
65
 73
0
 40
0.0
  0
ENDTAB
  0
TABLE
  2
LAYER
 70
1
  0
LAYER
  2
0
 70
0
 62
7
  6
CONTINUOUS
  0
ENDTAB
  0
ENDSEC
  0
SECTION
  2
BLOCKS
  0
BLOCK
  8
0
  2
HONEYCO
 70
0
 10
55
 20
55
 30
0.0
  3
HONEYCO
  0
POLYLINE
  8
0
 66
1
 70
1
  0
VERTEX
  8
0
 10
25
 20
-8.881784197001252e-16
 30
0.0
  0
VERTEX
  8
0
 10
5.669872981077809
 20
23.48076211353316
 30
0.0
  0
VERTEX
  8
0
 10
-24.33012701892219
 20
18.480762113533164
 30
0.0
  0
VERTEX
  8
0
 10
-35
 20
-9.999999999999998
 30
0.0
  0
VERTEX
  8
0
 10
-15.669872981077818
 20
-33.48076211353316
 30
0.0
  0
VERTEX
  8
0
 10
14.330127018922195
 20
-28.480762113533157
 30
0.0
  0
SEQEND
  0
POLYLINE
  8
0
 66
1
 70
1
  0
VERTEX
  8
0
 10
85
 20
-8.881784197001252e-16
 30
0.0
  0
VERTEX
  8
0
 10
65.66987298107782
 20
23.48076211353316
 30
0.0
  0
VERTEX
  8
0
 10
35.66987298107781
 20
18.480762113533164
 30
0.0
  0
VERTEX
  8
0
 10
25
 20
-9.999999999999998
 30
0.0
  0
VERTEX
  8
0
 10
44.330127018922184
 20
-33.48076211353316
 30
0.0
  0
VERTEX
  8
0
 10
74.3301270189222
 20
-28.480762113533157
 30
0.0
  0
SEQEND
  0
POLYLINE
  8
0
 66
1
 70
1
  0
VERTEX
  8
0
 10
145
 20
-8.881784197001252e-16
 30
0.0
  0
VERTEX
  8
0
 10
125.66987298107782
 20
23.48076211353316
 30
0.0
  0
VERTEX
  8
0
 10
95.66987298107782
 20
18.480762113533164
 30
0.0
  0
VERTEX
  8
0
 10
85
 20
-9.999999999999998
 30
0.0
  0
VERTEX
  8
0
 10
104.33012701892218
 20
-33.48076211353316
 30
0.0
  0
VERTEX
  8
0
 10
134.33012701892218
 20
-28.480762113533157
 30
0.0
  0
SEQEND
  0
POLYLINE
  8
0
 66
1
 70
1
  0
VERTEX
  8
0
 10
25
 20
60
 30
0.0
  0
VERTEX
  8
0
 10
5.669872981077809
 20
83.48076211353316
 30
0.0
  0
VERTEX
  8
0
 10
-24.33012701892219
 20
78.48076211353316
 30
0.0
  0
VERTEX
  8
0
 10
-35
 20
50
 30
0.0
  0
VERTEX
  8
0
 10
-15.669872981077818
 20
26.51923788646684
 30
0.0
  0
VERTEX
  8
0
 10
14.330127018922195
 20
31.519237886466843
 30
0.0
  0
SEQEND
  0
POLYLINE
  8
0
 66
1
 70
1
  0
VERTEX
  8
0
 10
85
 20
60
 30
0.0
  0
VERTEX
  8
0
 10
65.66987298107782
 20
83.48076211353316
 30
0.0
  0
VERTEX
  8
0
 10
35.66987298107781
 20
78.48076211353316
 30
0.0
  0
VERTEX
  8
0
 10
25
 20
50
 30
0.0
  0
VERTEX
  8
0
 10
44.330127018922184
 20
26.51923788646684
 30
0.0
  0
VERTEX
  8
0
 10
74.3301270189222
 20
31.519237886466843
 30
0.0
  0
SEQEND
  0
POLYLINE
  8
0
 66
1
 70
1
  0
VERTEX
  8
0
 10
145
 20
60
 30
0.0
  0
VERTEX
  8
0
 10
125.66987298107782
 20
83.48076211353316
 30
0.0
  0
VERTEX
  8
0
 10
95.66987298107782
 20
78.48076211353316
 30
0.0
  0
VERTEX
  8
0
 10
85
 20
50
 30
0.0
  0
VERTEX
  8
0
 10
104.33012701892218
 20
26.51923788646684
 30
0.0
  0
VERTEX
  8
0
 10
134.33012701892218
 20
31.519237886466843
 30
0.0
  0
SEQEND
  0
POLYLINE
  8
0
 66
1
 70
1
  0
VERTEX
  8
0
 10
25
 20
120
 30
0.0
  0
VERTEX
  8
0
 10
5.669872981077809
 20
143.48076211353316
 30
0.0
  0
VERTEX
  8
0
 10
-24.33012701892219
 20
138.48076211353316
 30
0.0
  0
VERTEX
  8
0
 10
-35
 20
110
 30
0.0
  0
VERTEX
  8
0
 10
-15.669872981077818
 20
86.51923788646684
 30
0.0
  0
VERTEX
  8
0
 10
14.330127018922195
 20
91.51923788646684
 30
0.0
  0
SEQEND
  0
POLYLINE
  8
0
 66
1
 70
1
  0
VERTEX
  8
0
 10
85
 20
120
 30
0.0
  0
VERTEX
  8
0
 10
65.66987298107782
 20
143.48076211353316
 30
0.0
  0
VERTEX
  8
0
 10
35.66987298107781
 20
138.48076211353316
 30
0.0
  0
VERTEX
  8
0
 10
25
 20
110
 30
0.0
  0
VERTEX
  8
0
 10
44.330127018922184
 20
86.51923788646684
 30
0.0
  0
VERTEX
  8
0
 10
74.3301270189222
 20
91.51923788646684
 30
0.0
  0
SEQEND
  0
POLYLINE
  8
0
 66
1
 70
1
  0
VERTEX
  8
0
 10
145
 20
120
 30
0.0
  0
VERTEX
  8
0
 10
125.66987298107782
 20
143.48076211353316
 30
0.0
  0
VERTEX
  8
0
 10
95.66987298107782
 20
138.48076211353316
 30
0.0
  0
VERTEX
  8
0
 10
85
 20
110
 30
0.0
  0
VERTEX
  8
0
 10
104.33012701892218
 20
86.51923788646684
 30
0.0
  0
VERTEX
  8
0
 10
134.33012701892218
 20
91.51923788646684
 30
0.0
  0
SEQEND
  0
ENDBLK
  8
0
  0
BLOCK
  8
0
  2
RINGS
 70
0
 10
515
 20
-50
 30
0.0
  3
RINGS
  0
CIRCLE
  8
0
 10
510
 20
10
 30
0.0
 40
55.226805085936306
  0
CIRCLE
  8
0
 10
458.0384757729337
 20
-19.999999999999993
 30
0.0
 40
55.226805085936306
  0
CIRCLE
  8
0
 10
458.0384757729337
 20
-79.99999999999999
 30
0.0
 40
55.226805085936306
  0
CIRCLE
  8
0
 10
510
 20
-110
 30
0.0
 40
55.226805085936306
  0
CIRCLE
  8
0
 10
561.9615242270663
 20
-80.00000000000003
 30
0.0
 40
55.226805085936306
  0
CIRCLE
  8
0
 10
561.9615242270663
 20
-20.00000000000004
 30
0.0
 40
55.226805085936306
  0
ENDBLK
  8
0
  0
ENDSEC
  0
SECTION
  2
ENTITIES
  0
INSERT
  8
0
  2
HONEYCO
 10
5
 20
10
 30
0.0
 41
1.5
 42
1.5
 43
1.0
 50
30
  0
INSERT
  8
0
  2
RINGS
 10
455
 20
10
 30
0.0
 41
1
 42
1
 43
1.0
 50
0
  0
ENDSEC
  0
EOF
