  0
SECTION
  2
HEADER
  9
$ACADVER
  1
AC1015
  0
ENDSEC
  0
SECTION
  2
TABLES
  0
TABLE
  2
LTYPE
 70
1
  0
LTYPE
  2
CONTINUOUS
 70
0
  3
Solid line
 72
65
 73
0
 40
0.0
  0
ENDTAB
  0
TABLE
  2
LAYER
 70
4
  0
LAYER
  2
0
 70
0
 62
7
  6
CONTINUOUS
  0
LAYER
  2
1
 70
0
 62
7
  6
CONTINUOUS
  0
LAYER
  2
2
 70
0
 62
4
  6
CONTINUOUS
  0
LAYER
  2
01
 70
0
 62
7
  6
CENTER
  0
ENDTAB
  0
ENDSEC
  0
SECTION
  2
BLOCKS
  0
ENDSEC
  0
SECTION
  2
ENTITIES
  0
POLYLINE
  8
0
 66
1
 70
1
  0
VERTEX
  8
0
 10
-45
 20
0
 30
0.0
  0
VERTEX
  8
0
 10
-67.5
 20
38.97114317029974
 30
0.0
  0
VERTEX
  8
0
 10
-112.49999999999999
 20
38.97114317029974
 30
0.0
  0
VERTEX
  8
0
 10
-135
 20
5.5109105961630896e-15
 30
0.0
  0
VERTEX
  8
0
 10
-112.50000000000003
 20
-38.971143170299726
 30
0.0
  0
VERTEX
  8
0
 10
-67.5
 20
-38.97114317029974
 30
0.0
  0
SEQEND
  0
LINE
  8
0
 10
14.000000000000004
 20
40
 30
0.0
 11
25
 21
40
 31
0.0
  0
LINE
  8
0
 10
25
 20
40
 30
0.0
 11
25
 21
-40
 31
0.0
  0
LINE
  8
0
 10
25
 20
-40
 30
0.0
 11
14.000000000000004
 21
-40
 31
0.0
  0
LINE
  8
0
 10
0
 20
0
 30
0.0
 11
25
 21
0
 31
0.0
  0
LINE
  8
0
 10
25
 20
20
 30
0.0
 11
80
 21
20
 31
0.0
  0
LINE
  8
0
 10
80
 20
20
 30
0.0
 11
80
 21
-20
 31
0.0
  0
LINE
  8
0
 10
80
 20
-20
 30
0.0
 11
25
 21
-20
 31
0.0
  0
LINE
  8
0
 10
80
 20
15
 30
0.0
 11
160
 21
15
 31
0.0
  0
LINE
  8
0
 10
160
 20
15
 30
0.0
 11
160
 21
-15
 31
0.0
  0
LINE
  8
0
 10
160
 20
-15
 30
0.0
 11
80
 21
-15
 31
0.0
  0
LINE
  8
0
 10
80
 20
-15
 30
0.0
 11
80
 21
15
 31
0.0
  0
POLYLINE
  8
0
 66
1
 70
1
  0
VERTEX
  8
0
 10
80
 20
15
 30
0.0
  0
VERTEX
  8
0
 10
160
 20
15
 30
0.0
  0
VERTEX
  8
0
 10
160
 20
-15
 30
0.0
  0
VERTEX
  8
0
 10
80
 20
-15
 30
0.0
  0
VERTEX
  8
0
 10
80
 20
0
 30
0.0
  0
SEQEND
  0
CIRCLE
  8
0
 10
-90
 20
0
 30
0.0
 40
38.97114317029974
  0
TEXT
  8
0
 10
172.5469479397556
 20
139.61975218880244
 30
0.0
 40
25.495097567963924
  1
BOLT
 50
0
  0
HATCH
  8
0
  2
ANSI31
 70
0
 71
0
 41
1.5
 52
0
 91
1
 92
0
 93
0
 73
1
 75
0
 76
0
 98
0
  0
HATCH
  8
0
  2
ANSI31
 70
0
 71
0
 41
1
 52
0
 91
1
 92
0
 93
6
 10
80
 20
15
 10
160
 20
15
 10
160
 20
-14.85
 10
80
 20
-15
 10
80
 20
0
 10
80
 20
15
 73
1
 75
0
 76
0
 98
0
  0
LINE
  8
1
 10
-155
 20
180
 30
0.0
 11
310
 21
180
 31
0.0
  0
LINE
  8
1
 10
310
 20
180
 30
0.0
 11
310
 21
-80
 31
0.0
  0
LINE
  8
1
 10
310
 20
-80
 30
0.0
 11
-155
 21
-80
 31
0.0
  0
LINE
  8
1
 10
-155
 20
-80
 30
0.0
 11
-155
 21
180
 31
0.0
  0
CIRCLE
  8
2
 10
75
 20
50
 30
0.0
 40
264.62237244798484
  0
LINE
  8
01
 10
-90
 20
70
 30
0.0
 11
-90
 21
-70
 31
0.0
  0
HATCH
  8
0
  2
ANSI31
 70
0
 71
0
 41
1.5
 52
0
 91
1
 92
0
 93
1
 10
-145
 20
0
 73
1
 75
0
 76
0
 98
0
  0
HATCH
  8
0
  2
ANSI31
 70
0
 71
0
 41
1.5
 52
0
 91
1
 92
0
 93
0
 73
1
 75
0
 76
0
 98
0
  0
HATCH
  8
0
  2
ANSI31
 70
0
 71
0
 41
1.5
 52
0
 91
1
 92
0
 93
0
 73
1
 75
0
 76
0
 98
0
  0
LINE
  8
0
 10
174.2082637818809
 20
197.0224624301115
 30
0.0
 11
149.21003337704133
 21
197.31991263864143
 31
0.0
  0
LINE
  8
0
 10
149.21003337704133
 20
197.31991263864143
 30
0.0
 11
150.16187404433708
 21
277.31424993412804
 31
0.0
  0
LINE
  8
0
 10
150.16187404433708
 20
277.31424993412804
 30
0.0
 11
175.16010444917663
 21
277.0167997255981
 31
0.0
  0
LINE
  8
0
 10
175.16010444917663
 20
277.0167997255981
 30
0.0
 11
174.2082637818809
 21
197.0224624301115
 31
0.0
  0
LINE
  8
0
 10
94.5113766949242
 20
222.9725335022468
 30
0.0
 11
14.517039399437635
 21
223.92437416954255
 31
0.0
  0
LINE
  8
0
 10
14.517039399437635
 20
223.92437416954255
 30
0.0
 11
14.873979649673515
 21
253.92225065535
 31
0.0
  0
LINE
  8
0
 10
14.873979649673515
 20
253.92225065535
 30
0.0
 11
94.8683169451601
 21
252.9704099880543
 31
0.0
  0
LINE
  8
0
 10
94.8683169451601
 20
252.9704099880543
 30
0.0
 11
94.5113766949242
 21
222.9725335022468
 31
0.0
  0
POLYLINE
  8
0
 66
1
 70
1
  0
VERTEX
  8
0
 10
94.5113766949242
 20
222.9725335022468
 30
0.0
  0
VERTEX
  8
0
 10
14.517039399437635
 20
223.92437416954255
 30
0.0
  0
VERTEX
  8
0
 10
14.873979649673515
 20
253.92225065535
 30
0.0
  0
VERTEX
  8
0
 10
94.8683169451601
 20
252.9704099880543
 30
0.0
  0
VERTEX
  8
0
 10
94.68984682004213
 20
237.97147174515055
 30
0.0
  0
SEQEND
  0
HATCH
  8
0
  2
ANSI31
 70
0
 71
0
 41
1.5
 52
90
 91
1
 92
0
 93
1
 10
14.873979649673515
 20
253.92225065535
 73
1
 75
0
 76
0
 98
0
  0
HATCH
  8
0
  2
ANSI31
 70
0
 71
0
 41
1.5
 52
0
 91
1
 92
0
 93
0
 73
1
 75
0
 76
0
 98
0
  0
HATCH
  8
0
  2
ANSI31
 70
0
 71
0
 41
1.5
 52
0
 91
1
 92
0
 93
0
 73
1
 75
0
 76
0
 98
0
  0
HATCH
  8
0
  2
ANSI31
 70
0
 71
0
 41
1.5
 52
0
 91
1
 92
0
 93
0
 73
1
 75
0
 76
0
 98
0
  0
DIMENSION
  8
2
 70
4
 71
1
 10
57.26475960931713
 20
-251.78098612803086
 30
0.0
 13
75
 23
50
 33
0.0
 14
-178.4894936761267
 24
-25.947854451728475
 34
0.0
 40
2.5
  1
529.24
  0
HATCH
  8
0
  2
ANSI31
 70
0
 71
0
 41
1
 52
0
 91
1
 92
0
 93
5
 10
14.873979649673515
 20
253.92225065535
 10
94.8683169451601
 20
252.9704099880543
 10
94.5113766949242
 20
222.9725335022468
 10
14.517039399437635
 20
223.92437416954255
 10
14.695509524555575
 20
238.92331241244628
 73
1
 75
0
 76
0
 98
0
  0
LINE
  8
0
 10
-3
 20
22.999999999999996
 30
0.0
 11
-3
 21
-22.999999999999996
 31
0.0
  0
ARC
  8
0
 10
14.000000000000004
 20
23
 30
0.0
 40
17
 50
90
 51
180
  0
ARC
  8
0
 10
14.000000000000004
 20
-23
 30
0.0
 40
17
 50
180
 51
270
  0
NOTE
  8
0
 10
-2.3865880642916615
 20
29.41310805659469
 30
0.0
 11
-13.850750765568154
 21
38.04845367658496
 31
0.0
  1
Fillet
 40
2.5
  2
A1
  0
DIMENSION
  8
0
 70
1
 10
-43.208508519676585
 20
52.28831517296118
 30
0.0
 13
-135
 23
5.5109105961630896e-15
 33
0.0
 14
-45
 24
0
 34
0.0
 40
2.5
  1
90.00
 50
-3.5083546492674384e-15
  0
LINE
  8
0
 10
95.93666035041758
 20
259.4846400022994
 30
0.0
 11
149.94801293640128
 21
259.34099223417485
 31
0.0
  0
ARC
  8
0
 10
95.93400077510219
 20
258.48464353897606
 30
0.0
 40
1
 50
89.84761737948818
 51
179.31827825240657
  0
LINE
  8
0
 10
94.46378466155939
 20
218.97281663747245
 30
0.0
 11
94.9340715589086
 21
258.4965415473173
 31
0.0
  0
LINE
  8
0
 10
149.44799354386527
 20
217.31849696251305
 30
0.0
 11
95.45181586941177
 21
217.96098941293766
 31
0.0
  0
ARC
  8
0
 10
95.46371387775298
 20
218.96091862913124
 30
0.0
 40
1
 50
179.3182782524082
 51
269.31827825240816
  0
LINE
  8
0
 10
149.6859537106892
 20
237.31708128638473
 30
0.0
 11
174.68418411552875
 21
237.0196310778548
 31
0.0
  0
HATCH
  8
0
  2
ANSI31
 70
0
 71
0
 41
1
 52
0
 91
1
 92
0
 93
5
 10
95.23205966408302
 20
259.196878525944
 10
149.94801293640128
 20
259.34099223417485
 10
149.61238956889272
 20
255.2828064287096
 10
123.42325555362004
 20
254.7510479930979
 10
94.70827467434631
 20
255.2828064287096
 73
1
 75
0
 76
0
 98
0
  0
LINE
  8
0
 10
-128.77021331363744
 20
107.05508524916391
 30
0.0
 11
-48.77021331363741
 21
107.05508524916391
 31
0.0
  0
HATCH
  8
0
  2
ANSI31
 70
0
 71
0
 41
1.5
 52
0
 91
1
 92
0
 93
0
 73
1
 75
0
 76
0
 98
0
  0
HATCH
  8
0
  2
ANSI31
 70
0
 71
0
 41
1.5
 52
0
 91
1
 92
0
 93
0
 73
1
 75
0
 76
0
 98
0
  0
HATCH
  8
0
  2
ANSI31
 70
0
 71
0
 41
1.5
 52
0
 91
1
 92
0
 93
0
 73
1
 75
0
 76
0
 98
0
  0
HATCH
  8
0
  2
ANSI31
 70
0
 71
0
 41
1.5
 52
0
 91
1
 92
0
 93
0
 73
1
 75
0
 76
0
 98
0
  0
HATCH
  8
0
  2
ANSI31
 70
0
 71
0
 41
1.5
 52
0
 91
1
 92
0
 93
0
 73
1
 75
0
 76
0
 98
0
  0
HATCH
  8
0
  2
ANSI31
 70
0
 71
0
 41
1.5
 52
0
 91
1
 92
0
 93
0
 73
1
 75
0
 76
0
 98
0
  0
LINE
  8
0
 10
-111.7702133136374
 20
79.05508524916391
 30
0.0
 11
-65.77021331363741
 21
79.05508524916391
 31
0.0
  0
ARC
  8
0
 10
-111.77021331363743
 20
96.05508524916391
 30
0.0
 40
17
 50
180
 51
270
  0
ARC
  8
0
 10
-65.77021331363741
 20
96.05508524916391
 30
0.0
 40
17
 50
270
 51
0
  0
LINE
  8
0
 10
-128.77021331363744
 20
96.05508524916391
 30
0.0
 11
-128.77021331363744
 21
107.05508524916391
 31
0.0
  0
LINE
  8
0
 10
-48.77021331363741
 20
107.05508524916391
 30
0.0
 11
-48.77021331363741
 21
96.05508524916391
 31
0.0
  0
LINE
  8
0
 10
-68.77021331363741
 20
162.0550852491639
 30
0.0
 11
-68.77021331363741
 21
107.05508524916391
 31
0.0
  0
LINE
  8
0
 10
-108.77021331363743
 20
162.0550852491639
 30
0.0
 11
-108.57366153081007
 21
106.73243990153367
 31
0.0
  0
LINE
  8
0
 10
-112.31600600370183
 20
107.00885707807052
 30
0.0
 11
-111.77021331363743
 21
79.05508524916391
 31
0.0
  0
LINE
  8
0
 10
-67.35369250610258
 20
78.86045065284812
 30
0.0
 11
-67.22194390863949
 21
107.05508524916391
 31
0.0
  0
SPLINE
  8
0
 71
3
 72
12
 73
8
 40
0
 40
0
 40
0
 40
0
 40
1
 40
2
 40
3
 40
4
 40
5
 40
5
 40
5
 40
5
 10
-108.77021331363743
 20
162.0550852491639
 30
0.0
 10
-99.63809975225975
 20
167.53149497875472
 30
0.0
 10
-96.80875355906186
 20
156.21411020596315
 30
0.0
 10
-89.38171811549405
 20
163.99480886441063
 30
0.0
 10
-82.66200910168558
 20
155.15309357855045
 30
0.0
 10
-77.35697993016949
 20
166.4704985884223
 30
0.0
 10
-74.88129695185124
 20
157.9824532631352
 30
0.0
 10
-68.77021331363741
 20
162.0550852491639
 30
0.0
  0
DIMENSION
  8
0
 70
1
 10
171.26440626405972
 20
-15.659643397651239
 30
0.0
 13
160
 23
15
 33
0.0
 14
160
 24
-15
 34
0.0
 40
2.5
  1
30.00
 50
-90
  0
DIMENSION
  8
0
 70
1
 10
183.56336177298866
 20
-19.007803845765938
 30
0.0
 13
80
 23
20
 33
0.0
 14
80
 24
-20
 34
0.0
 40
2.5
  1
40.00
 50
-90
  0
DIMENSION
  8
0
 70
1
 10
0
 20
50
 30
0.0
 13
25
 23
40
 33
0.0
 14
0
 24
40
 34
0.0
 40
2.5
  1
25.00
 50
180
  0
DIMENSION
  8
0
 70
1
 10
75
 20
50
 30
0.0
 13
25
 23
20
 33
0.0
 14
80
 24
20
 34
0.0
 40
2.5
  1
55.00
 50
0
  0
POLYLINE
  8
0
 66
1
 70
1
  0
VERTEX
  8
0
 10
150
 20
130
 30
0.0
  0
VERTEX
  8
0
 10
125.81559480312316
 20
163.28697807033038
 30
0.0
  0
VERTEX
  8
0
 10
86.68440519687684
 20
150.57248383023656
 30
0.0
  0
VERTEX
  8
0
 10
86.68440519687684
 20
109.42751616976344
 30
0.0
  0
VERTEX
  8
0
 10
125.81559480312315
 20
96.71302192966962
 30
0.0
  0
SEQEND
  0
DIMENSION
  8
0
 70
3
 10
-74.11070823031241
 20
11.2790915883212
 30
0.0
 13
-90
 23
0
 33
0.0
 14
-58.22141646062481
 24
22.5581831766424
 34
0.0
 40
2.5
  1
38.97
  0
MTEXT
  8
0
 10
176.73056223501223
 20
107.69725359044867
 30
0.0
 40
5.126386436194806
 41
63.85657055655065
  1
A bolt is a threaded fastener used to join two or more components together, typically secured with a matching nut.
 50
0
 71
1
  0
ENDSEC
  0
EOF
