  0
SECTION
  2
HEADER
  9
$ACADVER
  1
AC1015
  0
ENDSEC
  0
SECTION
  2
TABLES
  0
TABLE
  2
LTYPE
 70
1
  0
LTYPE
  2
CONTINUOUS
 70
0
  3
Solid line
 72
65
 73
0
 40
0.0
  0
ENDTAB
  0
TABLE
  2
LAYER
 70
4
  0
LAYER
  2
0
 70
0
 62
7
  6
CONTINUOUS
  0
LAYER
  2
1
 70
0
 62
7
  6
CONTINUOUS
  0
LAYER
  2
2
 70
0
 62
4
  6
CONTINUOUS
  0
LAYER
  2
01
 70
0
 62
3
  6
DASHDOT
  0
ENDTAB
  0
ENDSEC
  0
SECTION
  2
BLOCKS
  0
ENDSEC
  0
SECTION
  2
ENTITIES
  0
POLYLINE
  8
0
 66
1
 70
1
  0
VERTEX
  8
0
 10
-45
 20
0
 30
0.0
  0
VERTEX
  8
0
 10
-67.5
 20
38.97114317029974
 30
0.0
  0
VERTEX
  8
0
 10
-112.49999999999999
 20
38.97114317029974
 30
0.0
  0
VERTEX
  8
0
 10
-135
 20
5.5109105961630896e-15
 30
0.0
  0
VERTEX
  8
0
 10
-112.50000000000003
 20
-38.971143170299726
 30
0.0
  0
VERTEX
  8
0
 10
-67.5
 20
-38.97114317029974
 30
0.0
  0
SEQEND
  0
LINE
  8
0
 10
0
 20
40
 30
0.0
 11
25
 21
40
 31
0.0
  0
LINE
  8
0
 10
25
 20
40
 30
0.0
 11
25
 21
-40
 31
0.0
  0
LINE
  8
0
 10
25
 20
-40
 30
0.0
 11
0
 21
-40
 31
0.0
  0
LINE
  8
0
 10
0
 20
-40
 30
0.0
 11
0
 21
40
 31
0.0
  0
LINE
  8
0
 10
0
 20
0
 30
0.0
 11
25
 21
0
 31
0.0
  0
LINE
  8
0
 10
25
 20
20
 30
0.0
 11
80
 21
20
 31
0.0
  0
LINE
  8
0
 10
80
 20
20
 30
0.0
 11
80
 21
-20
 31
0.0
  0
LINE
  8
0
 10
80
 20
-20
 30
0.0
 11
25
 21
-20
 31
0.0
  0
LINE
  8
0
 10
80
 20
15
 30
0.0
 11
160
 21
15
 31
0.0
  0
LINE
  8
0
 10
160
 20
15
 30
0.0
 11
160
 21
-15
 31
0.0
  0
LINE
  8
0
 10
160
 20
-15
 30
0.0
 11
80
 21
-15
 31
0.0
  0
LINE
  8
0
 10
80
 20
-15
 30
0.0
 11
80
 21
15
 31
0.0
  0
POLYLINE
  8
0
 66
1
 70
1
  0
VERTEX
  8
0
 10
80
 20
15
 30
0.0
  0
VERTEX
  8
0
 10
160
 20
15
 30
0.0
  0
VERTEX
  8
0
 10
160
 20
-15
 30
0.0
  0
VERTEX
  8
0
 10
80
 20
-15
 30
0.0
  0
VERTEX
  8
0
 10
80
 20
0
 30
0.0
  0
SEQEND
  0
LINE
  8
0
 10
0
 20
40
 30
0.0
 11
0
 21
85
 31
0.0
  0
LINE
  8
0
 10
160
 20
15
 30
0.0
 11
160
 21
85
 31
0.0
  0
LINE
  8
0
 10
0
 20
70
 30
0.0
 11
160
 21
70
 31
0.0
  0
TEXT
  8
0
 10
65
 20
75
 30
0.0
 40
11.180339887498949
  1
Length
 50
0
  0
POINT
  8
0
 10
160
 20
70
 30
0.0
  0
POINT
  8
0
 10
0
 20
70
 30
0.0
  0
LINE
  8
0
 10
160
 20
15.15
 30
0.0
 11
200
 21
15.15
 31
0.0
  0
LINE
  8
0
 10
160
 20
-14.85
 30
0.0
 11
200
 21
-14.85
 31
0.0
  0
LINE
  8
0
 10
190.05
 20
15
 30
0.0
 11
190.05
 21
-15
 31
0.0
  0
LINE
  8
0
 10
190.15
 20
15
 30
0.0
 11
190.15
 21
-15
 31
0.0
  0
TEXT
  8
0
 10
195
 20
0
 30
0.0
 40
5
  1
Diameter
 50
0
  0
LINE
  8
0
 10
80
 20
20.05
 30
0.0
 11
245
 21
20.05
 31
0.0
  0
LINE
  8
0
 10
80
 20
20.15
 30
0.0
 11
240
 21
20.15
 31
0.0
  0
LINE
  8
0
 10
80
 20
-19.85
 30
0.0
 11
240
 21
-19.85
 31
0.0
  0
LINE
  8
0
 10
230.15
 20
20
 30
0.0
 11
230.15
 21
-20
 31
0.0
  0
TEXT
  8
0
 10
235
 20
0
 30
0.0
 40
5
  1
Diameter 2
 50
0
  0
CIRCLE
  8
0
 10
-90
 20
0
 30
0.0
 40
38.97114317029974
  0
TEXT
  8
0
 10
20
 20
115
 30
0.0
 40
25.495097567963924
  1
BOLT
 50
0
  0
HATCH
  8
0
  2
ANSI31
 70
0
 71
0
 41
1.5
 52
0
 91
1
 92
0
 93
0
 73
1
 75
0
 76
0
 98
0
  0
HATCH
  8
0
  2
ANSI31
 70
0
 71
0
 41
1
 52
0
 91
1
 92
0
 93
6
 10
80
 20
15
 10
160
 20
15
 10
160
 20
-14.85
 10
80
 20
-15
 10
80
 20
0
 10
80
 20
15
 73
1
 75
0
 76
0
 98
0
  0
LINE
  8
1
 10
-155
 20
180
 30
0.0
 11
310
 21
180
 31
0.0
  0
LINE
  8
1
 10
310
 20
180
 30
0.0
 11
310
 21
-80
 31
0.0
  0
LINE
  8
1
 10
310
 20
-80
 30
0.0
 11
-155
 21
-80
 31
0.0
  0
LINE
  8
1
 10
-155
 20
-80
 30
0.0
 11
-155
 21
180
 31
0.0
  0
CIRCLE
  8
2
 10
75
 20
50
 30
0.0
 40
264.62237244798484
  0
LINE
  8
01
 10
-145
 20
0
 30
0.0
 11
175
 21
0
 31
0.0
  0
LINE
  8
01
 10
-90
 20
70
 30
0.0
 11
-90
 21
-70
 31
0.0
  0
HATCH
  8
0
  2
ANSI31
 70
0
 71
0
 41
1.5
 52
0
 91
1
 92
0
 93
1
 10
-145
 20
0
 73
1
 75
0
 76
0
 98
0
  0
HATCH
  8
0
  2
ANSI31
 70
0
 71
0
 41
1.5
 52
0
 91
1
 92
0
 93
0
 73
1
 75
0
 76
0
 98
0
  0
HATCH
  8
0
  2
ANSI31
 70
0
 71
0
 41
1.5
 52
0
 91
1
 92
0
 93
0
 73
1
 75
0
 76
0
 98
0
  0
LINE
  8
0
 10
178.74083750500307
 20
33.453054783311785
 30
0.0
 11
179.038287713533
 21
58.45128518815136
 31
0.0
  0
LINE
  8
0
 10
179.038287713533
 20
58.45128518815136
 30
0.0
 11
259.0326250090196
 21
57.49944452085562
 31
0.0
  0
LINE
  8
0
 10
259.0326250090196
 20
57.49944452085562
 30
0.0
 11
258.7351748004897
 21
32.501214116016044
 31
0.0
  0
LINE
  8
0
 10
258.7351748004897
 20
32.501214116016044
 30
0.0
 11
178.74083750500307
 21
33.453054783311785
 31
0.0
  0
LINE
  8
0
 10
199.03687203740463
 20
58.21332502132742
 30
0.0
 11
199.69126249617045
 21
113.20943191197448
 31
0.0
  0
LINE
  8
0
 10
199.69126249617045
 20
113.20943191197448
 30
0.0
 11
239.68843114391382
 21
112.7335115783266
 31
0.0
  0
LINE
  8
0
 10
239.68843114391382
 20
112.7335115783266
 30
0.0
 11
239.03404068514794
 21
57.73740468767955
 31
0.0
  0
LINE
  8
0
 10
204.69090857713837
 20
113.14994187026849
 30
0.0
 11
205.64274924443413
 21
193.14427916575505
 31
0.0
  0
LINE
  8
0
 10
205.64274924443413
 20
193.14427916575505
 30
0.0
 11
235.6406257302416
 21
192.78733891551914
 31
0.0
  0
LINE
  8
0
 10
235.6406257302416
 20
192.78733891551914
 30
0.0
 11
234.6887850629459
 21
112.79300162003258
 31
0.0
  0
LINE
  8
0
 10
234.6887850629459
 20
112.79300162003258
 30
0.0
 11
204.69090857713837
 21
113.14994187026849
 31
0.0
  0
POLYLINE
  8
0
 66
1
 70
1
  0
VERTEX
  8
0
 10
204.69090857713837
 20
113.14994187026849
 30
0.0
  0
VERTEX
  8
0
 10
205.64274924443413
 20
193.14427916575505
 30
0.0
  0
VERTEX
  8
0
 10
235.6406257302416
 20
192.78733891551914
 30
0.0
  0
VERTEX
  8
0
 10
234.6887850629459
 20
112.79300162003258
 30
0.0
  0
VERTEX
  8
0
 10
219.68984682004213
 20
112.97147174515054
 30
0.0
  0
SEQEND
  0
HATCH
  8
0
  2
ANSI31
 70
0
 71
0
 41
1.5
 52
0
 91
1
 92
0
 93
1
 10
235.6406257302416
 20
192.78733891551914
 73
1
 75
0
 76
0
 98
0
  0
HATCH
  8
0
  2
ANSI31
 70
0
 71
0
 41
1.5
 52
0
 91
1
 92
0
 93
0
 73
1
 75
0
 76
0
 98
0
  0
HATCH
  8
0
  2
ANSI31
 70
0
 71
0
 41
1.5
 52
0
 91
1
 92
0
 93
0
 73
1
 75
0
 76
0
 98
0
  0
HATCH
  8
0
  2
ANSI31
 70
0
 71
0
 41
1.5
 52
0
 91
1
 92
0
 93
0
 73
1
 75
0
 76
0
 98
0
  0
POLYLINE
  8
0
 66
1
 70
1
  0
VERTEX
  8
0
 10
10.531194237255875
 20
-105.14457626303951
 30
0.0
  0
VERTEX
  8
0
 10
144.90896692823748
 20
-106.20491308911845
 30
0.0
  0
VERTEX
  8
0
 10
145.28411027428598
 20
-136.96712541073967
 30
0.0
  0
VERTEX
  8
0
 10
9.780893234357528
 20
-136.28194624151055
 30
0.0
  0
SEQEND
  0
SPLINE
  8
0
 71
3
 72
16
 73
12
 40
0
 40
0
 40
0
 40
0
 40
1
 40
2
 40
3
 40
4
 40
5
 40
6
 40
7
 40
8
 40
9
 40
9
 40
9
 40
9
 10
10.156043735806701
 20
-120.71326125227503
 30
0.0
 10
25.79627752660899
 20
-104.98503553666153
 30
0.0
 10
37.30858563421944
 20
-136.58266444717765
 30
0.0
 10
46.861344779309164
 20
-105.96481001792188
 30
0.0
 10
62.04779317591304
 20
-136.58266444717765
 30
0.0
 10
70.37583889133829
 20
-105.47492277729171
 30
0.0
 10
91.68586378008649
 20
-135.84781957049944
 30
0.0
 10
101.72851016580641
 20
-106.45469725855207
 30
0.0
 10
112.7509310327867
 20
-135.6028712782734
 30
0.0
 10
125.48794322623968
 20
-106.94458449918224
 30
0.0
 10
137.7350775228844
 20
-135.84781957049944
 30
0.0
 10
145.09653860126173
 20
-121.58601924992905
 30
0.0
  0
ENDSEC
  0
EOF
