  0
SECTION
  2
HEADER
  9
$ACADVER
  1
AC1015
  0
ENDSEC
  0
SECTION
  2
TABLES
  0
TABLE
  2
LTYPE
 70
1
  0
LTYPE
  2
CONTINUOUS
 70
0
  3
Solid line
 72
65
 73
0
 40
0.0
  0
ENDTAB
  0
TABLE
  2
LAYER
 70
1
  0
LAYER
  2
0
 70
0
 62
7
  6
CONTINUOUS
  0
ENDTAB
  0
ENDSEC
  0
SECTION
  2
ENTITIES
  0
POLYLINE
  8
0
 66
1
 70
1
  0
VERTEX
  8
0
 10
-45
 20
0
 30
0.0
  0
VERTEX
  8
0
 10
-67.5
 20
38.97114317029974
 30
0.0
  0
VERTEX
  8
0
 10
-112.49999999999999
 20
38.97114317029974
 30
0.0
  0
VERTEX
  8
0
 10
-135
 20
5.5109105961630896e-15
 30
0.0
  0
VERTEX
  8
0
 10
-112.50000000000003
 20
-38.971143170299726
 30
0.0
  0
VERTEX
  8
0
 10
-67.5
 20
-38.97114317029974
 30
0.0
  0
SEQEND
  0
LINE
  8
0
 10
0
 20
40
 30
0.0
 11
25
 21
40
 31
0.0
  0
LINE
  8
0
 10
25
 20
40
 30
0.0
 11
25
 21
-40
 31
0.0
  0
LINE
  8
0
 10
25
 20
-40
 30
0.0
 11
0
 21
-40
 31
0.0
  0
LINE
  8
0
 10
0
 20
-40
 30
0.0
 11
0
 21
40
 31
0.0
  0
LINE
  8
0
 10
0
 20
0
 30
0.0
 11
25
 21
0
 31
0.0
  0
LINE
  8
0
 10
25
 20
20
 30
0.0
 11
80
 21
20
 31
0.0
  0
LINE
  8
0
 10
80
 20
20
 30
0.0
 11
80
 21
-20
 31
0.0
  0
LINE
  8
0
 10
80
 20
-20
 30
0.0
 11
25
 21
-20
 31
0.0
  0
LINE
  8
0
 10
80
 20
15
 30
0.0
 11
160
 21
15
 31
0.0
  0
LINE
  8
0
 10
160
 20
15
 30
0.0
 11
160
 21
-15
 31
0.0
  0
LINE
  8
0
 10
160
 20
-15
 30
0.0
 11
80
 21
-15
 31
0.0
  0
LINE
  8
0
 10
80
 20
-15
 30
0.0
 11
80
 21
15
 31
0.0
  0
POLYLINE
  8
0
 66
1
 70
1
  0
VERTEX
  8
0
 10
80
 20
15
 30
0.0
  0
VERTEX
  8
0
 10
160
 20
15
 30
0.0
  0
VERTEX
  8
0
 10
160
 20
-15
 30
0.0
  0
VERTEX
  8
0
 10
80
 20
-15
 30
0.0
  0
VERTEX
  8
0
 10
80
 20
0
 30
0.0
  0
SEQEND
  0
LINE
  8
0
 10
0
 20
40
 30
0.0
 11
0
 21
85
 31
0.0
  0
LINE
  8
0
 10
160
 20
15
 30
0.0
 11
160
 21
85
 31
0.0
  0
LINE
  8
0
 10
0
 20
70
 30
0.0
 11
160
 21
70
 31
0.0
  0
TEXT
  8
0
 10
65
 20
75
 30
0.0
 40
11.180339887498949
  1
Length
 50
0
  0
POINT
  8
0
 10
160
 20
70
 30
0.0
  0
POINT
  8
0
 10
0
 20
70
 30
0.0
  0
LINE
  8
0
 10
160
 20
15.15
 30
0.0
 11
200
 21
15.15
 31
0.0
  0
LINE
  8
0
 10
160
 20
-14.85
 30
0.0
 11
200
 21
-14.85
 31
0.0
  0
LINE
  8
0
 10
190.05
 20
15
 30
0.0
 11
190.05
 21
-15
 31
0.0
  0
LINE
  8
0
 10
190.15
 20
15
 30
0.0
 11
190.15
 21
-15
 31
0.0
  0
TEXT
  8
0
 10
195
 20
0
 30
0.0
 40
5
  1
Diameter
 50
0
  0
LINE
  8
0
 10
80
 20
20.05
 30
0.0
 11
245
 21
20.05
 31
0.0
  0
LINE
  8
0
 10
80
 20
20.15
 30
0.0
 11
240
 21
20.15
 31
0.0
  0
LINE
  8
0
 10
80
 20
-19.85
 30
0.0
 11
240
 21
-19.85
 31
0.0
  0
LINE
  8
0
 10
230.15
 20
20
 30
0.0
 11
230.15
 21
-20
 31
0.0
  0
TEXT
  8
0
 10
235
 20
0
 30
0.0
 40
5
  1
Diameter 2
 50
0
  0
CIRCLE
  8
0
 10
-90
 20
0
 30
0.0
 40
38.97114317029974
  0
TEXT
  8
0
 10
20
 20
115
 30
0.0
 40
25.495097567963924
  1
BOLT
 50
0
  0
HATCH
  8
0
  2
ANSI31
 70
0
 71
0
 41
1.5
 52
0
 91
1
 92
0
 93
0
 73
1
 75
0
 76
0
 98
0
  0
HATCH
  8
0
  2
ANSI31
 70
0
 71
0
 41
1
 52
0
 91
1
 92
0
 93
6
 10
80
 20
15
 10
160
 20
15
 10
160
 20
-14.85
 10
80
 20
-15
 10
80
 20
0
 10
80
 20
15
 73
1
 75
0
 76
0
 98
0
  0
ENDSEC
  0
EOF
