  0
SECTION
  2
HEADER
  9
$ACADVER
  1
AC1015
  0
ENDSEC
  0
SECTION
  2
TABLES
  0
TABLE
  2
LTYPE
 70
1
  0
LTYPE
  2
CONTINUOUS
 70
0
  3
Solid line
 72
65
 73
0
 40
0.0
  0
ENDTAB
  0
TABLE
  2
LAYER
 70
4
  0
LAYER
  2
0
 70
0
 62
7
  6
CONTINUOUS
370
30
  0
LAYER
  2
1
 70
0
 62
7
  6
CONTINUOUS
  0
LAYER
  2
2
 70
0
 62
4
  6
CONTINUOUS
  0
LAYER
  2
01
 70
0
 62
7
  6
CENTER
370
25
  0
ENDTAB
  0
ENDSEC
  0
SECTION
  2
BLOCKS
  0
ENDSEC
  0
SECTION
  2
ENTITIES
  0
POLYLINE
  8
0
 66
1
 70
1
  0
VERTEX
  8
0
 10
143.09226308022193
 20
132.5258363980604
 30
0.0
  0
VERTEX
  8
0
 10
120.59226308022193
 20
171.49697956836013
 30
0.0
  0
VERTEX
  8
0
 10
75.59226308022193
 20
171.49697956836013
 30
0.0
  0
VERTEX
  8
0
 10
53.092263080221926
 20
132.5258363980604
 30
0.0
  0
VERTEX
  8
0
 10
75.5922630802219
 20
93.55469322776065
 30
0.0
  0
VERTEX
  8
0
 10
120.59226308022193
 20
93.55469322776065
 30
0.0
  0
SEQEND
  0
LINE
  8
0
 10
202.09226308022193
 20
172.5258363980604
 30
0
 11
213.09226308022193
 21
172.5258363980604
 31
0
  0
LINE
  8
0
 10
213.09226308022193
 20
172.5258363980604
 30
0
 11
213.09226308022193
 21
92.52583639806039
 31
0
  0
LINE
  8
0
 10
213.09226308022193
 20
92.52583639806039
 30
0
 11
202.09226308022193
 21
92.52583639806039
 31
0
  0
LINE
  8
0
 10
185.0922630801797
 20
132.5258363980604
 30
0
 11
213.09226308022193
 21
132.5258363980604
 31
0
  0
LINE
  8
0
 10
213.09226308022193
 20
152.5258363980604
 30
0
 11
268.0922630802219
 21
152.5258363980604
 31
0
  0
LINE
  8
0
 10
268.0922630802219
 20
152.5258363980604
 30
0
 11
268.0922630802219
 21
112.52583639806039
 31
0
  0
LINE
  8
0
 10
268.0922630802219
 20
112.52583639806039
 30
0
 11
213.09226308022193
 21
112.52583639806039
 31
0
  0
LINE
  8
0
 10
268.0922630802219
 20
147.5258363980604
 30
0
 11
348.092263080222
 21
147.5258363980604
 31
0
  0
LINE
  8
0
 10
348.092263080222
 20
147.5258363980604
 30
0
 11
348.092263080222
 21
117.52583639806039
 31
0
  0
LINE
  8
0
 10
348.092263080222
 20
117.52583639806039
 30
0
 11
268.0922630802219
 21
117.52583639806039
 31
0
  0
LINE
  8
0
 10
268.0922630802219
 20
117.52583639806039
 30
0
 11
268.0922630802219
 21
147.5258363980604
 31
0
  0
POLYLINE
  8
0
 66
1
 70
1
  0
VERTEX
  8
0
 10
268.0922630802219
 20
147.5258363980604
 30
0.0
  0
VERTEX
  8
0
 10
348.092263080222
 20
147.5258363980604
 30
0.0
  0
VERTEX
  8
0
 10
348.092263080222
 20
117.52583639806039
 30
0.0
  0
VERTEX
  8
0
 10
268.0922630802219
 20
117.52583639806039
 30
0.0
  0
VERTEX
  8
0
 10
268.0922630802219
 20
132.5258363980604
 30
0.0
  0
SEQEND
  0
CIRCLE
  8
0
 10
98.09226308022193
 20
132.5258363980604
 30
0
 40
38.97114317029974
  0
TEXT
  8
0
 10
222.8495540091576
 20
244.31085326189458
 30
0.0
 40
25.495097567963924
  1
BOLT
 50
0
  0
LINE
  8
0
 10
362.30052686210286
 20
329.5482988281719
 30
0
 11
337.3022964572633
 21
329.8457490367018
 31
0
  0
LINE
  8
0
 10
337.3022964572633
 20
329.8457490367018
 30
0
 11
338.25413712455907
 21
409.84008633218843
 31
0
  0
LINE
  8
0
 10
338.25413712455907
 20
409.84008633218843
 30
0
 11
363.2523675293985
 21
409.54263612365844
 31
0
  0
LINE
  8
0
 10
363.2523675293985
 20
409.54263612365844
 30
0
 11
362.30052686210286
 21
329.5482988281719
 31
0
  0
LINE
  8
0
 10
282.6036397751461
 20
355.4983699003071
 30
0
 11
202.60930247965956
 21
356.4502105676029
 31
0
  0
LINE
  8
0
 10
202.60930247965956
 20
356.4502105676029
 30
0
 11
202.96624272989544
 21
386.4480870534104
 31
0
  0
LINE
  8
0
 10
202.96624272989544
 20
386.4480870534104
 30
0
 11
282.960580025382
 21
385.49624638611476
 31
0
  0
LINE
  8
0
 10
282.960580025382
 20
385.49624638611476
 30
0
 11
282.6036397751461
 21
355.4983699003071
 31
0
  0
POLYLINE
  8
0
 66
1
 70
1
  0
VERTEX
  8
0
 10
282.6036397751461
 20
355.4983699003071
 30
0.0
  0
VERTEX
  8
0
 10
202.60930247965956
 20
356.4502105676029
 30
0.0
  0
VERTEX
  8
0
 10
202.96624272989544
 20
386.4480870534104
 30
0.0
  0
VERTEX
  8
0
 10
282.960580025382
 20
385.49624638611476
 30
0.0
  0
VERTEX
  8
0
 10
282.78210990026406
 20
370.49730814321094
 30
0.0
  0
SEQEND
  0
HATCH
  8
0
  2
ANSI31
 70
0
 71
0
 41
1.5
 52
90
 91
1
 92
0
 93
1
 10
202.96624272989544
 20
386.4480870534104
 73
1
 75
0
 76
0
 98
0
  0
HATCH
  8
0
  2
ANSI31
 70
0
 71
0
 41
1
 52
0
 91
1
 92
0
 93
5
 10
202.96624272989544
 20
386.4480870534104
 10
282.960580025382
 20
385.49624638611476
 10
282.6036397751461
 20
355.4983699003071
 10
202.60930247965956
 20
356.4502105676029
 10
202.7877726047775
 20
371.4491488105067
 73
1
 75
0
 76
0
 98
0
  0
LINE
  8
0
 10
185.09226308022193
 20
155.5258363980604
 30
0
 11
185.09226308022193
 21
109.52583639806039
 31
0
  0
ARC
  8
0
 10
202.09226308022193
 20
155.5258363980604
 30
0
 40
17
 50
90
 51
180
  0
ARC
  8
0
 10
202.09226308022193
 20
109.52583639806039
 30
0
 40
17
 50
180
 51
270
  0
NOTE
  8
0
 10
185.70567501593024
 20
161.9389444546551
 30
0.0
 11
174.2415123146538
 21
170.57429007464538
 31
0.0
  1
Fillet
 40
2.5
  2
A1
  0
LINE
  8
0
 10
284.0289234306395
 20
392.0104764003597
 30
0
 11
338.04027601662324
 21
391.8668286322352
 31
0
  0
ARC
  8
0
 10
284.02626385532415
 20
391.0104799370365
 30
0
 40
1
 50
89.84761737948818
 51
179.31827825240657
  0
LINE
  8
0
 10
282.5560477417813
 20
351.4986530355328
 30
0
 11
283.02633463913054
 21
391.0223779453777
 31
0
  0
LINE
  8
0
 10
337.5402566240872
 20
349.8443333605735
 30
0
 11
283.5440789496337
 21
350.4868258109981
 31
0
  0
ARC
  8
0
 10
283.5559769579749
 20
351.48675502719163
 30
0
 40
1
 50
179.3182782524082
 51
269.31827825240816
  0
LINE
  8
0
 10
337.7782167909111
 20
369.8429176844452
 30
0
 11
362.77644719575073
 21
369.5454674759152
 31
0
  0
HATCH
  8
0
  2
ANSI31
 70
0
 71
0
 41
1
 52
0
 91
1
 92
0
 93
5
 10
283.32432274430494
 20
391.7227149240043
 10
338.04027601662324
 20
391.8668286322352
 10
337.7046526491147
 20
387.80864282677
 10
311.51551863384196
 20
387.2768843911583
 10
282.80053775456827
 20
387.80864282677
 73
1
 75
0
 76
0
 98
0
  0
DIMENSION
  8
0
 70
3
 10
-74.11070823031241
 20
11.2790915883212
 30
0.0
 13
278.0922630802219
 23
302.5258363980604
 33
0.0
 14
309.8708466195971
 24
325.0840195747028
 34
0.0
 40
2.5
  1
38.97
  0
MTEXT
  8
0
 10
225.3355604988236
 20
229.80420790923228
 30
0.0
 40
5.126386436194806
 41
63.85657055655065
  1
A bolt is a threaded fastener used to join two or more components together, typically secured with a matching nut.
 50
0
 71
1
  0
DIMENSION
  8
0
 70
3
 10
7.762879115513087
 20
-28.774800695461025
 30
0.0
 13
382.0922630802219
 23
279.5258363980604
 33
0.0
 14
369.61802131124807
 24
267.97623500713837
 34
0.0
 40
2.5
  1
17.00
  0
POLYLINE
  8
2
 66
1
 70
1
  0
VERTEX
  8
2
 10
12.739865417091949
 20
422.5680886985275
 30
0.0
  0
VERTEX
  8
2
 10
551.066836994557
 20
422.5680886985275
 30
0.0
  0
VERTEX
  8
2
 10
551.066836994557
 20
66.03215349012791
 30
0.0
  0
VERTEX
  8
2
 10
12.739865417091949
 20
66.03215349012791
 30
0.0
  0
SEQEND
  0
DIMENSION
  8
0
 70
1
 10
351.3013602476956
 20
267.9789244567624
 30
0.0
 13
213.09226308022193
 23
172.5258363980604
 33
0.0
 14
213.09226308022193
 24
92.52583639806039
 34
0.0
 40
2.5
  1
80.00
 50
-90
  0
DIMENSION
  8
0
 70
1
 10
447.55019253764135
 20
249.75587312423045
 30
0.0
 13
213.09226308022193
 23
112.52583639806039
 33
0.0
 14
268.0922630802219
 24
112.52583639806039
 34
0.0
 40
2.5
  1
55.00
 50
0
  0
DIMENSION
  8
0
 70
1
 10
392.2633450099626
 20
249.55166183838443
 30
0.0
 13
185.09226308022193
 23
109.52583639806039
 33
0.0
 14
213.0150996098597
 24
109.2458681646325
 34
0.0
 40
2.5
  1
27.92
 50
-0.5744567050441929
  0
LINE
  8
01
 10
28
 20
132
 30
0
 11
159
 21
132
 31
0
  0
LINE
  8
01
 10
98
 20
179
 30
0
 11
98
 21
85
 31
0
  0
LINE
  8
0
 10
57.78229068452606
 20
215.568013031068
 30
0
 11
57.78229068452606
 21
226.568013031068
 31
0
  0
LINE
  8
0
 10
57.78229068452606
 20
226.568013031068
 30
0
 11
137.78229068452606
 21
226.568013031068
 31
0
  0
LINE
  8
0
 10
137.78229068452606
 20
226.568013031068
 30
0
 11
137.78229068452606
 21
215.568013031068
 31
0
  0
LINE
  8
0
 10
74.78229068452606
 20
198.568013031068
 30
0
 11
120.78229068452606
 21
198.568013031068
 31
0
  0
ARC
  8
0
 10
74.78229068452606
 20
215.568013031068
 30
0
 40
17
 50
180
 51
270
  0
ARC
  8
0
 10
120.78229068452606
 20
215.568013031068
 30
0
 40
17
 50
270
 51
0
  0
LINE
  8
0
 10
120.78229068452606
 20
198.568013031068
 30
0
 11
120.73840227855294
 21
226.3399596597045
 31
0
  0
LINE
  8
0
 10
75.57051086669267
 20
198.568013031068
 30
0
 11
75.52662246071955
 21
226.3399596597045
 31
0
  0
LINE
  8
0
 10
78.89832412366246
 20
226.05331725652786
 30
0
 11
78.89832412366246
 21
281.05331725652786
 31
0
  0
LINE
  8
0
 10
118.89832412366246
 20
281.05331725652786
 30
0
 11
118.89832412366246
 21
226.05331725652786
 31
0
  0
POLYLINE
  8
0
 66
1
 70
0
  0
VERTEX
  8
0
 10
78.89832412366246
 20
281.05331725652786
 30
0.0
  0
VERTEX
  8
0
 10
86.03749986955734
 20
275.78725304180836
 30
0.0
  0
VERTEX
  8
0
 10
93.82211184189885
 20
280.36643501363835
 30
0.0
  0
VERTEX
  8
0
 10
100.23297766565668
 20
275.0240555612755
 30
0.0
  0
VERTEX
  8
0
 10
106.9491178234399
 20
279.45060327746006
 30
0.0
  0
VERTEX
  8
0
 10
113.20733483471565
 20
273.8029407569698
 30
0.0
  0
VERTEX
  8
0
 10
118.89832412366246
 20
281.05331725652786
 30
0.0
  0
SEQEND
  0
LINE
  8
0
 10
348.092263080222
 20
147.5258363980604
 30
0
 11
348.092263080222
 21
117.52583639806039
 31
0
  0
LINE
  8
0
 10
348.092263080222
 20
117.52583639806039
 30
0
 11
346.9779301943687
 21
117.4677928010729
 31
0
  0
LINE
  8
0
 10
348.092263080222
 20
147.5258363980604
 30
0
 11
346.7960882792729
 21
147.57596025334323
 31
0
  0
LINE
  8
0
 10
351.6027980682842
 20
142.60826512969464
 30
0
 11
351.7177601482649
 21
122.489594146544
 31
0
  0
ARC
  8
0
 10
346.6028796964471
 20
142.57969460352814
 30
0
 40
5
 50
0.32739589521206114
 51
87.78544137105719
  0
ARC
  8
0
 10
346.7178417764277
 20
122.46102362037749
 30
0
 40
5
 50
272.9817394466778
 51
0.3273958952120537
  0
DIMENSION
  8
1
 70
1
 10
315.59070772809883
 20
248.8371487229848
 30
0.0
 13
53.092263080221926
 23
132.5258363980604
 33
0.0
 14
143.09226308022193
 24
132.5258363980604
 34
0.0
 40
2.5
  1
90.00
 50
0
  0
HATCH
  8
0
  2
ANSI31
 70
0
 71
0
 41
1
 52
0
 91
1
 92
0
 93
6
 10
268.0922630802219
 20
147.5258363980604
 10
348.092263080222
 20
147.5258363980604
 10
348.092263080222
 20
117.67583639806037
 10
268.0922630802219
 20
117.52583639806039
 10
268.0922630802219
 20
132.5258363980604
 10
268.0922630802219
 20
147.5258363980604
 73
1
 75
0
 76
0
 98
0
  0
POLYLINE
  8
0
 66
1
 70
1
  0
VERTEX
  8
0
 10
455
 20
135
 30
0.0
  0
VERTEX
  8
0
 10
432.5
 20
173.97114317029974
 30
0.0
  0
VERTEX
  8
0
 10
387.5
 20
173.97114317029974
 30
0.0
  0
VERTEX
  8
0
 10
365
 20
135
 30
0.0
  0
VERTEX
  8
0
 10
387.5
 20
96.02885682970026
 30
0.0
  0
VERTEX
  8
0
 10
432.5
 20
96.02885682970026
 30
0.0
  0
SEQEND
  0
3DFACE
  8
0
1001
WEBCAD
1000
S3D1
1000
CREATION_PARAMS:{"type":"extrude","params":{"points":[{"x":455,"y":135,"z":0},{"x":432.5,"y":173.97114317029974,"z":0},{"x":387.5,"y":173.97114317029974,"z":0},{"x":365,"y":135,"z":0},{"x":387.5,"y":96.02885682970026,"z":0},{"x":432.5,"y":96.02885682970026,"z":0}],"height":27,"thickness":0,"isClosed":true}}
 10
432.5
 20
173.9711456298828
 30
0
 11
455
 21
135
 31
27
 12
455
 22
135
 32
0
 13
455
 23
135
 33
0
  0
3DFACE
  8
0
1001
WEBCAD
1000
S3D2
1000
CREATION_PARAMS:{"type":"cylinder","params":{"x":410.9290604185621,"y":134.39848888387073,"z":0,"radius":20.610627226868154,"height":55}}
 10
432.5
 20
173.9711456298828
 30
0
 11
432.5
 21
173.9711456298828
 31
27
 12
455
 22
135
 32
27
 13
455
 23
135
 33
27
  0
3DFACE
  8
0
1001
WEBCAD
1000
S3D2
 10
387.5
 20
173.9711456298828
 30
0
 11
432.5
 21
173.9711456298828
 31
27
 12
432.5
 22
173.9711456298828
 32
0
 13
432.5
 23
173.9711456298828
 33
0
  0
3DFACE
  8
0
1001
WEBCAD
1000
S3D2
 10
387.5
 20
173.9711456298828
 30
0
 11
387.5
 21
173.9711456298828
 31
27
 12
432.5
 22
173.9711456298828
 32
27
 13
432.5
 23
173.9711456298828
 33
27
  0
3DFACE
  8
0
1001
WEBCAD
1000
S3D2
 10
365
 20
135
 30
0
 11
387.5
 21
173.9711456298828
 31
27
 12
387.5
 22
173.9711456298828
 32
0
 13
387.5
 23
173.9711456298828
 33
0
  0
3DFACE
  8
0
1001
WEBCAD
1000
S3D2
 10
365
 20
135
 30
0
 11
365
 21
135
 31
27
 12
387.5
 22
173.9711456298828
 32
27
 13
387.5
 23
173.9711456298828
 33
27
  0
3DFACE
  8
0
1001
WEBCAD
1000
S3D2
 10
387.5
 20
96.02885437011719
 30
0
 11
365
 21
135
 31
27
 12
365
 22
135
 32
0
 13
365
 23
135
 33
0
  0
3DFACE
  8
0
1001
WEBCAD
1000
S3D2
 10
387.5
 20
96.02885437011719
 30
0
 11
387.5
 21
96.02885437011719
 31
27
 12
365
 22
135
 32
27
 13
365
 23
135
 33
27
  0
3DFACE
  8
0
1001
WEBCAD
1000
S3D2
 10
432.5
 20
96.02885437011719
 30
0
 11
387.5
 21
96.02885437011719
 31
27
 12
387.5
 22
96.02885437011719
 32
0
 13
387.5
 23
96.02885437011719
 33
0
  0
3DFACE
  8
0
1001
WEBCAD
1000
S3D2
 10
432.5
 20
96.02885437011719
 30
0
 11
432.5
 21
96.02885437011719
 31
27
 12
387.5
 22
96.02885437011719
 32
27
 13
387.5
 23
96.02885437011719
 33
27
  0
3DFACE
  8
0
1001
WEBCAD
1000
S3D2
 10
455
 20
135
 30
0
 11
432.5
 21
96.02885437011719
 31
27
 12
432.5
 22
96.02885437011719
 32
0
 13
432.5
 23
96.02885437011719
 33
0
  0
3DFACE
  8
0
1001
WEBCAD
1000
S3D2
 10
455
 20
135
 30
0
 11
455
 21
135
 31
27
 12
432.5
 22
96.02885437011719
 32
27
 13
432.5
 23
96.02885437011719
 33
27
  0
3DFACE
  8
0
1001
WEBCAD
1000
S3D2
 10
432.5
 20
96.02885437011719
 30
0
 11
387.5
 21
96.02885437011719
 31
0
 12
365
 22
135
 32
0
 13
365
 23
135
 33
0
  0
3DFACE
  8
0
1001
WEBCAD
1000
S3D2
 10
432.5
 20
173.9711456298828
 30
0
 11
365
 21
135
 31
0
 12
387.5
 22
173.9711456298828
 32
0
 13
387.5
 23
173.9711456298828
 33
0
  0
3DFACE
  8
0
1001
WEBCAD
1000
S3D2
 10
432.5
 20
173.9711456298828
 30
0
 11
455
 21
135
 31
0
 12
432.5
 22
96.02885437011719
 32
0
 13
432.5
 23
96.02885437011719
 33
0
  0
3DFACE
  8
0
1001
WEBCAD
1000
S3D2
 10
432.5
 20
173.9711456298828
 30
0
 11
432.5
 21
96.02885437011719
 31
0
 12
365
 22
135
 32
0
 13
365
 23
135
 33
0
  0
3DFACE
  8
0
1001
WEBCAD
1000
S3D2
 10
432.5
 20
96.02885437011719
 30
27
 11
365
 21
135
 31
27
 12
387.5
 22
96.02885437011719
 32
27
 13
387.5
 23
96.02885437011719
 33
27
  0
3DFACE
  8
0
1001
WEBCAD
1000
S3D2
 10
432.5
 20
173.9711456298828
 30
27
 11
387.5
 21
173.9711456298828
 31
27
 12
365
 22
135
 32
27
 13
365
 23
135
 33
27
  0
3DFACE
  8
0
1001
WEBCAD
1000
S3D2
 10
432.5
 20
173.9711456298828
 30
27
 11
432.5
 21
96.02885437011719
 31
27
 12
455
 22
135
 32
27
 13
455
 23
135
 33
27
  0
3DFACE
  8
0
1001
WEBCAD
1000
S3D2
 10
432.5
 20
173.9711456298828
 30
27
 11
365
 21
135
 31
27
 12
432.5
 22
96.02885437011719
 32
27
 13
432.5
 23
96.02885437011719
 33
27
  0
3DFACE
  8
0
1001
WEBCAD
1000
S3D3
 10
431.05674450487004
 20
135.67984008789062
 30
83.94285808227761
 11
431.0965998911243
 21
134.3984832763672
 31
83.94307138346586
 12
431.39094899796936
 22
134.3984832763672
 32
28.943859038166774
 13
431.39094899796936
 23
134.3984832763672
 33
28.943859038166774
  0
3DFACE
  8
0
1001
WEBCAD
1000
S3D4
 10
431.05674450487004
 20
135.67984008789062
 30
83.94285808227761
 11
431.39094899796936
 21
134.3984832763672
 31
28.943859038166774
 12
431.3510936117151
 22
135.67984008789062
 32
28.943645736978507
 13
431.3510936117151
 23
135.67984008789062
 33
28.943645736978507
  0
3DFACE
  8
0
1001
WEBCAD
1000
S3D4
 10
430.9373004146714
 20
136.95623779296875
 30
83.94221883200893
 11
431.3510936117151
 21
135.67984008789062
 31
28.943645736978507
 12
431.2316495215165
 22
136.95623779296875
 32
28.943006486709848
 13
431.2316495215165
 23
136.95623779296875
 33
28.943006486709848
  0
3DFACE
  8
0
1001
WEBCAD
1000
S3D4
 10
430.9373004146714
 20
136.95623779296875
 30
83.94221883200893
 11
431.05674450487004
 21
135.67984008789062
 31
83.94285808227761
 12
431.3510936117151
 22
135.67984008789062
 32
28.943645736978507
 13
431.3510936117151
 23
135.67984008789062
 33
28.943645736978507
  0
3DFACE
  8
0
1001
WEBCAD
1000
S3D4
 10
430.7387253776448
 20
138.22274780273438
 30
83.9411560825204
 11
431.2316495215165
 21
136.95623779296875
 31
28.943006486709848
 12
431.0330744844899
 22
138.22274780273438
 32
28.9419437372213
 13
431.0330744844899
 23
138.22274780273438
 33
28.9419437372213
  0
3DFACE
  8
0
1001
WEBCAD
1000
S3D4
 10
430.7387253776448
 20
138.22274780273438
 30
83.9411560825204
 11
430.9373004146714
 21
136.95623779296875
 31
83.94221883200893
 12
431.2316495215165
 22
136.95623779296875
 32
28.943006486709848
 13
431.2316495215165
 23
136.95623779296875
 33
28.943006486709848
  0
3DFACE
  8
0
1001
WEBCAD
1000
S3D4
 10
430.4617823223172
 20
139.47445678710938
 30
83.9396739169128
 11
431.0330744844899
 21
138.22274780273438
 31
28.9419437372213
 12
430.7561314291623
 22
139.47445678710938
 32
28.94046157161371
 13
430.7561314291623
 23
139.47445678710938
 33
28.94046157161371
  0
3DFACE
  8
0
1001
WEBCAD
1000
S3D4
 10
430.4617823223172
 20
139.47445678710938
 30
83.9396739169128
 11
430.7387253776448
 21
138.22274780273438
 31
83.9411560825204
 12
431.0330744844899
 22
138.22274780273438
 32
28.9419437372213
 13
431.0330744844899
 23
138.22274780273438
 33
28.9419437372213
  0
3DFACE
  8
0
1001
WEBCAD
1000
S3D4
 10
430.10760038290874
 20
140.70652770996094
 30
83.93777837817544
 11
430.7561314291623
 21
139.47445678710938
 31
28.94046157161371
 12
430.4019494897538
 22
140.70652770996094
 32
28.938566032876338
 13
430.4019494897538
 23
140.70652770996094
 33
28.938566032876338
  0
3DFACE
  8
0
1001
WEBCAD
1000
S3D4
 10
430.10760038290874
 20
140.70652770996094
 30
83.93777837817544
 11
430.4617823223172
 21
139.47445678710938
 31
83.9396739169128
 12
430.7561314291623
 22
139.47445678710938
 32
28.94046157161371
 13
430.7561314291623
 23
139.47445678710938
 33
28.94046157161371
  0
3DFACE
  8
0
1001
WEBCAD
1000
S3D4
 10
429.67746127934487
 20
141.9141845703125
 30
83.9354763259177
 11
430.4019494897538
 21
140.70652770996094
 31
28.938566032876338
 12
429.97181038618993
 22
141.9141845703125
 32
28.9362639806186
 13
429.97181038618993
 23
141.9141845703125
 33
28.9362639806186
  0
3DFACE
  8
0
1001
WEBCAD
1000
S3D4
 10
429.67746127934487
 20
141.9141845703125
 30
83.9354763259177
 11
429.97181038618993
 21
141.9141845703125
 31
28.9362639806186
 12
429.4674535955123
 22
143.0927734375
 32
28.933564724310436
 13
429.4674535955123
 23
143.0927734375
 33
28.933564724310436
  0
3DFACE
  8
0
1001
WEBCAD
1000
S3D4
 10
429.67746127934487
 20
141.9141845703125
 30
83.9354763259177
 11
430.10760038290874
 21
140.70652770996094
 31
83.93777837817544
 12
430.4019494897538
 22
140.70652770996094
 32
28.938566032876338
 13
430.4019494897538
 23
140.70652770996094
 33
28.938566032876338
  0
3DFACE
  8
0
1001
WEBCAD
1000
S3D4
 10
429.17310448866726
 20
143.0927734375
 30
83.93277706960953
 11
429.4674535955123
 21
143.0927734375
 31
28.933564724310436
 12
428.8908016976093
 22
144.23773193359375
 32
28.930478553365976
 13
428.8908016976093
 23
144.23773193359375
 33
28.930478553365976
  0
3DFACE
  8
0
1001
WEBCAD
1000
S3D4
 10
429.17310448866726
 20
143.0927734375
 30
83.93277706960953
 11
429.67746127934487
 21
141.9141845703125
 31
83.9354763259177
 12
429.4674535955123
 22
143.0927734375
 32
28.933564724310436
 13
429.4674535955123
 23
143.0927734375
 33
28.933564724310436
  0
3DFACE
  8
0
1001
WEBCAD
1000
S3D4
 10
428.5964525907642
 20
144.23773193359375
 30
83.92969089866507
 11
429.17310448866726
 21
143.0927734375
 31
83.93277706960953
 12
428.8908016976093
 22
144.23773193359375
 32
28.930478553365976
 13
428.8908016976093
 23
144.23773193359375
 33
28.930478553365976
  0
3DFACE
  8
0
1001
WEBCAD
1000
S3D4
 10
427.9497333369348
 20
145.3446044921875
 30
83.92622973573879
 11
428.8908016976093
 21
144.23773193359375
 31
28.930478553365976
 12
428.24408244377986
 22
145.3446044921875
 32
28.927017390439694
 13
428.24408244377986
 23
145.3446044921875
 33
28.927017390439694
  0
3DFACE
  8
0
1001
WEBCAD
1000
S3D4
 10
427.9497333369348
 20
145.3446044921875
 30
83.92622973573879
 11
428.5964525907642
 21
144.23773193359375
 31
83.92969089866507
 12
428.8908016976093
 22
144.23773193359375
 32
28.930478553365976
 13
428.8908016976093
 23
144.23773193359375
 33
28.930478553365976
  0
3DFACE
  8
0
1001
WEBCAD
1000
S3D4
 10
427.23541861560665
 20
146.40914916992188
 30
83.92240681007743
 11
428.24408244377986
 21
145.3446044921875
 31
28.927017390439694
 12
427.5297677224517
 22
146.40914916992188
 32
28.92319446477834
 13
427.5297677224517
 23
146.40914916992188
 33
28.92319446477834
  0
3DFACE
  8
0
1001
WEBCAD
1000
S3D4
 10
427.23541861560665
 20
146.40914916992188
 30
83.92240681007743
 11
427.5297677224517
 21
146.40914916992188
 31
28.92319446477834
 12
426.7506956277456
 22
147.42721557617188
 32
28.91902496551706
 13
426.7506956277456
 23
147.42721557617188
 33
28.91902496551706
  0
3DFACE
  8
0
1001
WEBCAD
1000
S3D4
 10
427.23541861560665
 20
146.40914916992188
 30
83.92240681007743
 11
427.9497333369348
 21
145.3446044921875
 31
83.92622973573879
 12
428.24408244377986
 22
145.3446044921875
 32
28.927017390439694
 13
428.24408244377986
 23
145.3446044921875
 33
28.927017390439694
  0
3DFACE
  8
0
1001
WEBCAD
1000
S3D4
 10
426.4563465209005
 20
147.42721557617188
 30
83.91823731081615
 11
427.23541861560665
 21
146.40914916992188
 31
83.92240681007743
 12
426.7506956277456
 22
147.42721557617188
 32
28.91902496551706
 13
426.7506956277456
 23
147.42721557617188
 33
28.91902496551706
  0
3DFACE
  8
0
1001
WEBCAD
1000
S3D4
 10
425.61547721550147
 20
148.39488220214844
 30
83.91373708038624
 11
426.7506956277456
 21
147.42721557617188
 31
28.91902496551706
 12
425.90982632234653
 22
148.39488220214844
 32
28.91452473508715
 13
425.90982632234653
 23
148.39488220214844
 33
28.91452473508715
  0
3DFACE
  8
0
1001
WEBCAD
1000
S3D4
 10
425.61547721550147
 20
148.39488220214844
 30
83.91373708038624
 11
426.4563465209005
 21
147.42721557617188
 31
83.91823731081615
 12
426.7506956277456
 22
147.42721557617188
 32
28.91902496551706
 13
426.7506956277456
 23
147.42721557617188
 33
28.91902496551706
  0
3DFACE
  8
0
1001
WEBCAD
1000
S3D4
 10
424.7160760335054
 20
149.3083953857422
 30
83.90892359445931
 11
425.90982632234653
 21
148.39488220214844
 31
28.91452473508715
 12
425.01042514035043
 22
149.3083953857422
 32
28.909711249160225
 13
425.01042514035043
 23
149.3083953857422
 33
28.909711249160225
  0
3DFACE
  8
0
1001
WEBCAD
1000
S3D4
 10
424.7160760335054
 20
149.3083953857422
 30
83.90892359445931
 11
425.01042514035043
 21
149.3083953857422
 31
28.909711249160225
 12
424.05597103584074
 22
150.1642303466797
 32
28.904603126676157
 13
424.05597103584074
 23
150.1642303466797
 33
28.904603126676157
  0
3DFACE
  8
0
1001
WEBCAD
1000
S3D4
 10
424.7160760335054
 20
149.3083953857422
 30
83.90892359445931
 11
425.61547721550147
 21
148.39488220214844
 31
83.91373708038624
 12
425.90982632234653
 22
148.39488220214844
 32
28.91452473508715
 13
425.90982632234653
 23
148.39488220214844
 33
28.91452473508715
  0
3DFACE
  8
0
1001
WEBCAD
1000
S3D4
 10
423.7616219289957
 20
150.1642303466797
 30
83.90381547197525
 11
424.05597103584074
 21
150.1642303466797
 31
28.904603126676157
 12
423.05015658288846
 22
150.9590606689453
 32
28.899220129843044
 13
423.05015658288846
 23
150.9590606689453
 33
28.899220129843044
  0
3DFACE
  8
0
1001
WEBCAD
1000
S3D4
 10
423.7616219289957
 20
150.1642303466797
 30
83.90381547197525
 11
424.7160760335054
 21
149.3083953857422
 31
83.90892359445931
 12
424.05597103584074
 22
150.1642303466797
 32
28.904603126676157
 13
424.05597103584074
 23
150.1642303466797
 33
28.904603126676157
  0
3DFACE
  8
0
1001
WEBCAD
1000
S3D4
 10
422.7558074760434
 20
150.9590606689453
 30
83.89843247514213
 11
423.05015658288846
 21
150.9590606689453
 31
28.899220129843044
 12
421.99685745841117
 22
151.68983459472656
 32
28.893583000813194
 13
421.99685745841117
 23
151.68983459472656
 33
28.893583000813194
  0
3DFACE
  8
0
1001
WEBCAD
1000
S3D4
 10
422.7558074760434
 20
150.9590606689453
 30
83.89843247514213
 11
423.7616219289957
 21
150.1642303466797
 31
83.90381547197525
 12
423.05015658288846
 22
150.9590606689453
 32
28.899220129843044
 13
423.05015658288846
 23
150.9590606689453
 33
28.899220129843044
  0
3DFACE
  8
0
1001
WEBCAD
1000
S3D4
 10
421.7025083515661
 20
151.68983459472656
 30
83.89279534611228
 11
422.7558074760434
 21
150.9590606689453
 31
83.89843247514213
 12
421.99685745841117
 22
151.68983459472656
 32
28.893583000813194
 13
421.99685745841117
 23
151.68983459472656
 33
28.893583000813194
  0
3DFACE
  8
0
1001
WEBCAD
1000
S3D4
 10
420.60584436960994
 20
152.35369873046875
 30
83.88692613363028
 11
421.99685745841117
 21
151.68983459472656
 31
28.893583000813194
 12
420.900193476455
 22
152.35369873046875
 32
28.887713788331183
 13
420.900193476455
 23
152.35369873046875
 33
28.887713788331183
  0
3DFACE
  8
0
1001
WEBCAD
1000
S3D4
 10
420.60584436960994
 20
152.35369873046875
 30
83.88692613363028
 11
421.7025083515661
 21
151.68983459472656
 31
83.89279534611228
 12
421.99685745841117
 22
151.68983459472656
 32
28.893583000813194
 13
421.99685745841117
 23
151.68983459472656
 33
28.893583000813194
  0
3DFACE
  8
0
1001
WEBCAD
1000
S3D4
 10
419.4699963785033
 20
152.94810485839844
 30
83.88084721308874
 11
420.900193476455
 21
152.35369873046875
 31
28.887713788331183
 12
419.7643454853484
 22
152.94810485839844
 32
28.881634867789646
 13
419.7643454853484
 23
152.94810485839844
 33
28.881634867789646
  0
3DFACE
  8
0
1001
WEBCAD
1000
S3D4
 10
419.4699963785033
 20
152.94810485839844
 30
83.88084721308874
 11
420.60584436960994
 21
152.35369873046875
 31
83.88692613363028
 12
420.900193476455
 22
152.35369873046875
 32
28.887713788331183
 13
420.900193476455
 23
152.35369873046875
 33
28.887713788331183
  0
3DFACE
  8
0
1001
WEBCAD
1000
S3D4
 10
418.29941988084425
 20
153.4707489013672
 30
83.87458242979663
 11
419.7643454853484
 21
152.94810485839844
 31
28.881634867789646
 12
418.5937689876893
 22
153.4707489013672
 32
28.875370084497543
 13
418.5937689876893
 23
153.4707489013672
 33
28.875370084497543
  0
3DFACE
  8
0
1001
WEBCAD
1000
S3D4
 10
418.29941988084425
 20
153.4707489013672
 30
83.87458242979663
 11
418.5937689876893
 21
153.4707489013672
 31
28.875370084497543
 12
417.39295000321715
 22
153.9196014404297
 32
28.86894344708785
 13
417.39295000321715
 23
153.9196014404297
 33
28.86894344708785
  0
3DFACE
  8
0
1001
WEBCAD
1000
S3D4
 10
418.29941988084425
 20
153.4707489013672
 30
83.87458242979663
 11
419.4699963785033
 21
152.94810485839844
 31
83.88084721308874
 12
419.7643454853484
 22
152.94810485839844
 32
28.881634867789646
 13
419.7643454853484
 23
152.94810485839844
 33
28.881634867789646
  0
3DFACE
  8
0
1001
WEBCAD
1000
S3D4
 10
417.0986008963721
 20
153.9196014404297
 30
83.86815579238694
 11
417.39295000321715
 21
153.9196014404297
 31
28.86894344708785
 12
416.1665576545175
 22
154.29293823242188
 32
28.862379944137754
 13
416.1665576545175
 23
154.29293823242188
 33
28.862379944137754
  0
3DFACE
  8
0
1001
WEBCAD
1000
S3D4
 10
417.0986008963721
 20
153.9196014404297
 30
83.86815579238694
 11
418.29941988084425
 21
153.4707489013672
 31
83.87458242979663
 12
417.39295000321715
 22
153.9196014404297
 32
28.86894344708785
 13
417.39295000321715
 23
153.9196014404297
 33
28.86894344708785
  0
3DFACE
  8
0
1001
WEBCAD
1000
S3D4
 10
415.8722085476724
 20
154.29293823242188
 30
83.86159228943684
 11
417.0986008963721
 21
153.9196014404297
 31
83.86815579238694
 12
416.1665576545175
 22
154.29293823242188
 32
28.862379944137754
 13
416.1665576545175
 23
154.29293823242188
 33
28.862379944137754
  0
3DFACE
  8
0
1001
WEBCAD
1000
S3D4
 10
414.62497299161305
 20
154.58929443359375
 30
83.8549172361716
 11
416.1665576545175
 21
154.29293823242188
 31
28.862379944137754
 12
414.9193220984581
 22
154.58929443359375
 32
28.855704890872506
 13
414.9193220984581
 23
154.58929443359375
 33
28.855704890872506
  0
3DFACE
  8
0
1001
WEBCAD
1000
S3D4
 10
414.62497299161305
 20
154.58929443359375
 30
83.8549172361716
 11
414.9193220984581
 21
154.58929443359375
 31
28.855704890872506
 12
413.65609556047133
 22
154.8075408935547
 32
28.8489442558135
 13
413.65609556047133
 23
154.8075408935547
 33
28.8489442558135
  0
3DFACE
  8
0
1001
WEBCAD
1000
S3D4
 10
414.62497299161305
 20
154.58929443359375
 30
83.8549172361716
 11
415.8722085476724
 21
154.29293823242188
 31
83.86159228943684
 12
416.1665576545175
 22
154.29293823242188
 32
28.862379944137754
 13
416.1665576545175
 23
154.29293823242188
 33
28.862379944137754
  0
3DFACE
  8
0
1001
WEBCAD
1000
S3D4
 10
413.36174645362627
 20
154.8075408935547
 30
83.84815660111259
 11
413.65609556047133
 21
154.8075408935547
 31
28.8489442558135
 12
412.3817302659893
 22
154.94683837890625
 32
28.84212400748212
 13
412.3817302659893
 23
154.94683837890625
 33
28.84212400748212
  0
3DFACE
  8
0
1001
WEBCAD
1000
S3D4
 10
413.36174645362627
 20
154.8075408935547
 30
83.84815660111259
 11
414.62497299161305
 21
154.58929443359375
 31
83.8549172361716
 12
413.65609556047133
 22
154.8075408935547
 32
28.8489442558135
 13
413.65609556047133
 23
154.8075408935547
 33
28.8489442558135
  0
3DFACE
  8
0
1001
WEBCAD
1000
S3D4
 10
412.08738115914423
 20
154.94683837890625
 30
83.84133635278121
 11
413.36174645362627
 21
154.8075408935547
 31
83.84815660111259
 12
412.3817302659893
 22
154.94683837890625
 32
28.84212400748212
 13
412.3817302659893
 23
154.94683837890625
 33
28.84212400748212
  0
3DFACE
  8
0
1001
WEBCAD
1000
S3D4
 10
410.8068208850223
 20
155.00662231445312
 30
83.83448294967096
 11
412.08738115914423
 21
154.94683837890625
 31
83.84133635278121
 12
412.3817302659893
 22
154.94683837890625
 32
28.84212400748212
 13
412.3817302659893
 23
154.94683837890625
 33
28.84212400748212
  0
3DFACE
  8
0
1001
WEBCAD
1000
S3D4
 10
410.8068208850223
 20
155.00662231445312
 30
83.83448294967096
 11
412.3817302659893
 21
154.94683837890625
 31
28.84212400748212
 12
411.1011699918674
 22
155.00662231445312
 32
28.835270604371864
 13
411.1011699918674
 23
155.00662231445312
 33
28.835270604371864
  0
3DFACE
  8
0
1001
WEBCAD
1000
S3D4
 10
409.52500940811603
 20
154.98667907714844
 30
83.8276228502753
 11
410.8068208850223
 21
155.00662231445312
 31
83.83448294967096
 12
411.1011699918674
 22
155.00662231445312
 32
28.835270604371864
 13
411.1011699918674
 23
155.00662231445312
 33
28.835270604371864
  0
3DFACE
  8
0
1001
WEBCAD
1000
S3D4
 10
409.52500940811603
 20
154.98667907714844
 30
83.8276228502753
 11
411.1011699918674
 21
155.00662231445312
 31
28.835270604371864
 12
409.8193585149611
 22
154.98667907714844
 32
28.828410504976215
 13
409.8193585149611
 23
154.98667907714844
 33
28.828410504976215
  0
3DFACE
  8
0
1001
WEBCAD
1000
S3D4
 10
408.2469210224219
 20
154.88710021972656
 30
83.8207826764118
 11
409.52500940811603
 21
154.98667907714844
 31
83.8276228502753
 12
409.8193585149611
 22
154.98667907714844
 32
28.828410504976215
 13
409.8193585149611
 23
154.98667907714844
 33
28.828410504976215
  0
3DFACE
  8
0
1001
WEBCAD
1000
S3D4
 10
408.2469210224219
 20
154.88710021972656
 30
83.8207826764118
 11
409.8193585149611
 21
154.98667907714844
 31
28.828410504976215
 12
408.54127012926693
 22
154.88710021972656
 32
28.821570331112703
 13
408.54127012926693
 23
154.88710021972656
 33
28.821570331112703
  0
3DFACE
  8
0
1001
WEBCAD
1000
S3D4
 10
406.9774995047952
 20
154.70823669433594
 30
83.81398888657391
 11
408.2469210224219
 21
154.88710021972656
 31
83.8207826764118
 12
408.54127012926693
 22
154.88710021972656
 32
28.821570331112703
 13
408.54127012926693
 23
154.88710021972656
 33
28.821570331112703
  0
3DFACE
  8
0
1001
WEBCAD
1000
S3D4
 10
406.9774995047952
 20
154.70823669433594
 30
83.81398888657391
 11
408.54127012926693
 21
154.88710021972656
 31
28.821570331112703
 12
407.2718486116403
 22
154.70823669433594
 32
28.814776541274814
 13
407.2718486116403
 23
154.70823669433594
 33
28.814776541274814
  0
3DFACE
  8
0
1001
WEBCAD
1000
S3D4
 10
406.9774995047952
 20
154.70823669433594
 30
83.81398888657391
 11
407.2718486116403
 21
154.70823669433594
 31
28.814776541274814
 12
406.0160072217956
 22
154.4508056640625
 32
28.80805543063201
 13
406.0160072217956
 23
154.4508056640625
 33
28.80805543063201
  0
3DFACE
  8
0
1001
WEBCAD
1000
S3D4
 10
405.7216581149505
 20
154.4508056640625
 30
83.80726777593111
 11
406.9774995047952
 21
154.70823669433594
 31
83.81398888657391
 12
406.0160072217956
 22
154.4508056640625
 32
28.80805543063201
 13
406.0160072217956
 23
154.4508056640625
 33
28.80805543063201
  0
3DFACE
  8
0
1001
WEBCAD
1000
S3D4
 10
404.48424907831986
 20
154.1157989501953
 30
83.80064531300476
 11
405.7216581149505
 21
154.4508056640625
 31
83.80726777593111
 12
406.0160072217956
 22
154.4508056640625
 32
28.80805543063201
 13
406.0160072217956
 23
154.4508056640625
 33
28.80805543063201
  0
3DFACE
  8
0
1001
WEBCAD
1000
S3D4
 10
404.48424907831986
 20
154.1157989501953
 30
83.80064531300476
 11
406.0160072217956
 21
154.4508056640625
 31
28.80805543063201
 12
404.7785981851649
 22
154.1157989501953
 32
28.80143296770568
 13
404.7785981851649
 23
154.1157989501953
 33
28.80143296770568
  0
3DFACE
  8
0
1001
WEBCAD
1000
S3D4
 10
403.27006358605337
 20
153.7045135498047
 30
83.79414713966824
 11
404.48424907831986
 21
154.1157989501953
 31
83.80064531300476
 12
404.7785981851649
 22
154.1157989501953
 32
28.80143296770568
 13
404.7785981851649
 23
154.1157989501953
 33
28.80143296770568
  0
3DFACE
  8
0
1001
WEBCAD
1000
S3D4
 10
403.27006358605337
 20
153.7045135498047
 30
83.79414713966824
 11
404.7785981851649
 21
154.1157989501953
 31
28.80143296770568
 12
403.56441269289843
 22
153.7045135498047
 32
28.79493479436914
 13
403.56441269289843
 23
153.7045135498047
 33
28.79493479436914
  0
3DFACE
  8
0
1001
WEBCAD
1000
S3D4
 10
402.0838012778777
 20
153.21853637695312
 30
83.7877984078227
 11
403.56441269289843
 21
153.7045135498047
 31
28.79493479436914
 12
402.37815038472274
 22
153.21853637695312
 32
28.788586062523613
 13
402.37815038472274
 23
153.21853637695312
 33
28.788586062523613
  0
3DFACE
  8
0
1001
WEBCAD
1000
S3D4
 10
402.0838012778777
 20
153.21853637695312
 30
83.7877984078227
 11
403.27006358605337
 21
153.7045135498047
 31
83.79414713966824
 12
403.56441269289843
 22
153.7045135498047
 32
28.79493479436914
 13
403.56441269289843
 23
153.7045135498047
 33
28.79493479436914
  0
3DFACE
  8
0
1001
WEBCAD
1000
S3D4
 10
400.9300092078143
 20
152.6597442626953
 30
83.78162345274924
 11
402.37815038472274
 21
153.21853637695312
 31
28.788586062523613
 12
401.22435831465936
 22
152.6597442626953
 32
28.782411107450148
 13
401.22435831465936
 23
152.6597442626953
 33
28.782411107450148
  0
3DFACE
  8
0
1001
WEBCAD
1000
S3D4
 10
400.9300092078143
 20
152.6597442626953
 30
83.78162345274924
 11
402.0838012778777
 21
153.21853637695312
 31
83.7877984078227
 12
402.37815038472274
 22
153.21853637695312
 32
28.788586062523613
 13
402.37815038472274
 23
153.21853637695312
 33
28.788586062523613
  0
3DFACE
  8
0
1001
WEBCAD
1000
S3D4
 10
400.9300092078143
 20
152.6597442626953
 30
83.78162345274924
 11
401.22435831465936
 21
152.6597442626953
 31
28.782411107450148
 12
400.1075835367296
 22
152.03030395507812
 32
28.7764342644298
 13
400.1075835367296
 23
152.03030395507812
 33
28.7764342644298
  0
3DFACE
  8
0
1001
WEBCAD
1000
S3D4
 10
399.8132344298845
 20
152.03030395507812
 30
83.7756466097289
 11
400.1075835367296
 21
152.03030395507812
 31
28.7764342644298
 12
399.0320679335439
 22
151.3326416015625
 32
28.770678235503276
 13
399.0320679335439
 23
151.3326416015625
 33
28.770678235503276
  0
3DFACE
  8
0
1001
WEBCAD
1000
S3D4
 10
399.8132344298845
 20
152.03030395507812
 30
83.7756466097289
 11
400.9300092078143
 21
152.6597442626953
 31
83.78162345274924
 12
400.1075835367296
 22
152.03030395507812
 32
28.7764342644298
 13
400.1075835367296
 23
152.03030395507812
 33
28.7764342644298
  0
3DFACE
  8
0
1001
WEBCAD
1000
S3D4
 10
398.7377188266988
 20
151.3326416015625
 30
83.76989058080237
 11
399.8132344298845
 21
152.03030395507812
 31
83.7756466097289
 12
399.0320679335439
 22
151.3326416015625
 32
28.770678235503276
 13
399.0320679335439
 23
151.3326416015625
 33
28.770678235503276
  0
3DFACE
  8
0
1001
WEBCAD
1000
S3D4
 10
397.7076737637267
 20
150.56947326660156
 30
83.76437790468634
 11
399.0320679335439
 21
151.3326416015625
 31
28.770678235503276
 12
398.00202287057175
 22
150.56947326660156
 32
28.765165559387253
 13
398.00202287057175
 23
150.56947326660156
 33
28.765165559387253
  0
3DFACE
  8
0
1001
WEBCAD
1000
S3D4
 10
397.7076737637267
 20
150.56947326660156
 30
83.76437790468634
 11
398.7377188266988
 21
151.3326416015625
 31
83.76989058080237
 12
399.0320679335439
 22
151.3326416015625
 32
28.770678235503276
 13
399.0320679335439
 23
151.3326416015625
 33
28.770678235503276
  0
3DFACE
  8
0
1001
WEBCAD
1000
S3D4
 10
396.7270664693089
 20
149.7437286376953
 30
83.75912981350524
 11
398.00202287057175
 21
150.56947326660156
 31
28.765165559387253
 12
397.02141557615397
 22
149.7437286376953
 32
28.759917468206137
 13
397.02141557615397
 23
149.7437286376953
 33
28.759917468206137
  0
3DFACE
  8
0
1001
WEBCAD
1000
S3D4
 10
396.7270664693089
 20
149.7437286376953
 30
83.75912981350524
 11
397.7076737637267
 21
150.56947326660156
 31
83.76437790468634
 12
398.00202287057175
 22
150.56947326660156
 32
28.765165559387253
 13
398.00202287057175
 23
150.56947326660156
 33
28.765165559387253
  0
3DFACE
  8
0
1001
WEBCAD
1000
S3D4
 10
395.7996810689398
 20
148.85862731933594
 30
83.75416655943923
 11
397.02141557615397
 21
149.7437286376953
 31
28.759917468206137
 12
396.09403017578484
 22
148.85862731933594
 32
28.754954214140135
 13
396.09403017578484
 23
148.85862731933594
 33
28.754954214140135
  0
3DFACE
  8
0
1001
WEBCAD
1000
S3D4
 10
395.7996810689398
 20
148.85862731933594
 30
83.75416655943923
 11
396.09403017578484
 21
148.85862731933594
 31
28.754954214140135
 12
395.2234676921121
 22
147.91758728027344
 32
28.750295069425242
 13
395.2234676921121
 23
147.91758728027344
 33
28.750295069425242
  0
3DFACE
  8
0
1001
WEBCAD
1000
S3D4
 10
395.7996810689398
 20
148.85862731933594
 30
83.75416655943923
 11
396.7270664693089
 21
149.7437286376953
 31
83.75912981350524
 12
397.02141557615397
 22
149.7437286376953
 32
28.759917468206137
 13
397.02141557615397
 23
149.7437286376953
 33
28.759917468206137
  0
3DFACE
  8
0
1001
WEBCAD
1000
S3D4
 10
394.929118585267
 20
147.91758728027344
 30
83.74950741472433
 11
395.7996810689398
 21
148.85862731933594
 31
83.75416655943923
 12
395.2234676921121
 22
147.91758728027344
 32
28.750295069425242
 13
395.2234676921121
 23
147.91758728027344
 33
28.750295069425242
  0
3DFACE
  8
0
1001
WEBCAD
1000
S3D4
 10
394.1187664209509
 20
146.9242401123047
 30
83.74517050832831
 11
395.2234676921121
 21
147.91758728027344
 31
28.750295069425242
 12
394.413115527796
 22
146.9242401123047
 32
28.745958163029222
 13
394.413115527796
 23
146.9242401123047
 33
28.745958163029222
  0
3DFACE
  8
0
1001
WEBCAD
1000
S3D4
 10
394.1187664209509
 20
146.9242401123047
 30
83.74517050832831
 11
394.413115527796
 21
146.9242401123047
 31
28.745958163029222
 12
393.66605591408586
 22
145.88243103027344
 32
28.741959990679497
 13
393.66605591408586
 23
145.88243103027344
 33
28.741959990679497
  0
3DFACE
  8
0
1001
WEBCAD
1000
S3D4
 10
394.1187664209509
 20
146.9242401123047
 30
83.74517050832831
 11
394.929118585267
 21
147.91758728027344
 31
83.74950741472433
 12
395.2234676921121
 22
147.91758728027344
 32
28.750295069425242
 13
395.2234676921121
 23
147.91758728027344
 33
28.750295069425242
  0
3DFACE
  8
0
1001
WEBCAD
1000
S3D4
 10
393.3717068072408
 20
145.88243103027344
 30
83.74117233597859
 11
394.1187664209509
 21
146.9242401123047
 31
83.74517050832831
 12
393.66605591408586
 22
145.88243103027344
 32
28.741959990679497
 13
393.66605591408586
 23
145.88243103027344
 33
28.741959990679497
  0
3DFACE
  8
0
1001
WEBCAD
1000
S3D4
 10
392.69086938968064
 20
144.79620361328125
 30
83.73752857678241
 11
393.66605591408586
 21
145.88243103027344
 31
28.741959990679497
 12
392.9852184965257
 22
144.79620361328125
 32
28.73831623148332
 13
392.9852184965257
 23
144.79620361328125
 33
28.73831623148332
  0
3DFACE
  8
0
1001
WEBCAD
1000
S3D4
 10
392.69086938968064
 20
144.79620361328125
 30
83.73752857678241
 11
393.3717068072408
 21
145.88243103027344
 31
83.74117233597859
 12
393.66605591408586
 22
145.88243103027344
 32
28.741959990679497
 13
393.66605591408586
 23
145.88243103027344
 33
28.741959990679497
  0
3DFACE
  8
0
1001
WEBCAD
1000
S3D4
 10
392.07887864240354
 20
143.66973876953125
 30
83.73425327660671
 11
392.9852184965257
 21
144.79620361328125
 31
28.73831623148332
 12
392.3732277492486
 22
143.66973876953125
 32
28.735040931307612
 13
392.3732277492486
 23
143.66973876953125
 33
28.735040931307612
  0
3DFACE
  8
0
1001
WEBCAD
1000
S3D4
 10
392.07887864240354
 20
143.66973876953125
 30
83.73425327660671
 11
392.69086938968064
 21
144.79620361328125
 31
83.73752857678241
 12
392.9852184965257
 22
144.79620361328125
 32
28.73831623148332
 13
392.9852184965257
 23
144.79620361328125
 33
28.73831623148332
  0
3DFACE
  8
0
1001
WEBCAD
1000
S3D4
 10
391.53811490241407
 20
142.5074005126953
 30
83.7313591747261
 11
392.3732277492486
 21
143.66973876953125
 31
28.735040931307612
 12
391.8324640092591
 22
142.5074005126953
 32
28.73214682942701
 13
391.8324640092591
 23
142.5074005126953
 33
28.73214682942701
  0
3DFACE
  8
0
1001
WEBCAD
1000
S3D4
 10
391.53811490241407
 20
142.5074005126953
 30
83.7313591747261
 11
391.8324640092591
 21
142.5074005126953
 31
28.73214682942701
 12
391.3650024421508
 22
141.31370544433594
 32
28.729645031875823
 13
391.3650024421508
 23
141.31370544433594
 33
28.729645031875823
  0
3DFACE
  8
0
1001
WEBCAD
1000
S3D4
 10
391.53811490241407
 20
142.5074005126953
 30
83.7313591747261
 11
392.07887864240354
 21
143.66973876953125
 31
83.73425327660671
 12
392.3732277492486
 22
143.66973876953125
 32
28.735040931307612
 13
392.3732277492486
 23
143.66973876953125
 33
28.735040931307612
  0
3DFACE
  8
0
1001
WEBCAD
1000
S3D4
 10
391.07065333530574
 20
141.31370544433594
 30
83.72885737717492
 11
391.53811490241407
 21
142.5074005126953
 31
83.7313591747261
 12
391.3650024421508
 22
141.31370544433594
 32
28.729645031875823
 13
391.3650024421508
 23
141.31370544433594
 33
28.729645031875823
  0
3DFACE
  8
0
1001
WEBCAD
1000
S3D4
 10
390.6782944524025
 20
140.09324645996094
 30
83.72675752007115
 11
391.3650024421508
 21
141.31370544433594
 31
28.729645031875823
 12
390.97264355924756
 22
140.09324645996094
 32
28.727545174772047
 13
390.97264355924756
 23
140.09324645996094
 33
28.727545174772047
  0
3DFACE
  8
0
1001
WEBCAD
1000
S3D4
 10
390.6782944524025
 20
140.09324645996094
 30
83.72675752007115
 11
390.97264355924756
 21
140.09324645996094
 31
28.727545174772047
 12
390.6569132176036
 22
138.8507537841797
 32
28.72585542431738
 13
390.6569132176036
 23
138.8507537841797
 33
28.72585542431738
  0
3DFACE
  8
0
1001
WEBCAD
1000
S3D4
 10
390.6782944524025
 20
140.09324645996094
 30
83.72675752007115
 11
391.07065333530574
 21
141.31370544433594
 31
83.72885737717492
 12
391.3650024421508
 22
141.31370544433594
 32
28.729645031875823
 13
391.3650024421508
 23
141.31370544433594
 33
28.729645031875823
  0
3DFACE
  8
0
1001
WEBCAD
1000
S3D4
 10
390.3625641107585
 20
138.8507537841797
 30
83.72506776961647
 11
390.6782944524025
 21
140.09324645996094
 31
83.72675752007115
 12
390.6569132176036
 22
138.8507537841797
 32
28.72585542431738
 13
390.6569132176036
 23
138.8507537841797
 33
28.72585542431738
  0
3DFACE
  8
0
1001
WEBCAD
1000
S3D4
 10
390.12471351315816
 20
137.59103393554688
 30
83.7237948220963
 11
390.6569132176036
 21
138.8507537841797
 31
28.72585542431738
 12
390.4190626200032
 22
137.59103393554688
 32
28.724582476797213
 13
390.4190626200032
 23
137.59103393554688
 33
28.724582476797213
  0
3DFACE
  8
0
1001
WEBCAD
1000
S3D4
 10
390.12471351315816
 20
137.59103393554688
 30
83.7237948220963
 11
390.3625641107585
 21
138.8507537841797
 31
83.72506776961647
 12
390.6569132176036
 22
138.8507537841797
 32
28.72585542431738
 13
390.6569132176036
 23
138.8507537841797
 33
28.72585542431738
  0
3DFACE
  8
0
1001
WEBCAD
1000
S3D4
 10
389.96562765669285
 20
136.3189697265625
 30
83.72294341390761
 11
390.4190626200032
 21
137.59103393554688
 31
28.724582476797213
 12
390.2599767635379
 22
136.3189697265625
 32
28.723731068608522
 13
390.2599767635379
 23
136.3189697265625
 33
28.723731068608522
  0
3DFACE
  8
0
1001
WEBCAD
1000
S3D4
 10
389.96562765669285
 20
136.3189697265625
 30
83.72294341390761
 11
390.12471351315816
 21
137.59103393554688
 31
83.7237948220963
 12
390.4190626200032
 22
137.59103393554688
 32
28.724582476797213
 13
390.4190626200032
 23
137.59103393554688
 33
28.724582476797213
  0
3DFACE
  8
0
1001
WEBCAD
1000
S3D4
 10
389.8859168841842
 20
135.0394744873047
 30
83.72251681153108
 11
389.96562765669285
 21
136.3189697265625
 31
83.72294341390761
 12
390.2599767635379
 22
136.3189697265625
 32
28.723731068608522
 13
390.2599767635379
 23
136.3189697265625
 33
28.723731068608522
  0
3DFACE
  8
0
1001
WEBCAD
1000
S3D4
 10
389.8859168841842
 20
135.0394744873047
 30
83.72251681153108
 11
390.2599767635379
 21
136.3189697265625
 31
28.723731068608522
 12
390.1802659910293
 22
135.0394744873047
 32
28.72330446623199
 13
390.1802659910293
 23
135.0394744873047
 33
28.72330446623199
  0
3DFACE
  8
0
1001
WEBCAD
1000
S3D4
 10
389.8859168841842
 20
135.0394744873047
 30
83.72251681153108
 11
390.1802659910293
 21
135.0394744873047
 31
28.72330446623199
 12
390.1802659910293
 22
133.75750732421875
 32
28.72330446623199
 13
390.1802659910293
 23
133.75750732421875
 33
28.72330446623199
  0
3DFACE
  8
0
1001
WEBCAD
1000
S3D4
 10
389.8859168841842
 20
133.75750732421875
 30
83.72251681153108
 11
389.8859168841842
 21
135.0394744873047
 31
83.72251681153108
 12
390.1802659910293
 22
133.75750732421875
 32
28.72330446623199
 13
390.1802659910293
 23
133.75750732421875
 33
28.72330446623199
  0
3DFACE
  8
0
1001
WEBCAD
1000
S3D4
 10
389.96562765669285
 20
132.47801208496094
 30
83.72294341390761
 11
389.8859168841842
 21
133.75750732421875
 31
83.72251681153108
 12
390.1802659910293
 22
133.75750732421875
 32
28.72330446623199
 13
390.1802659910293
 23
133.75750732421875
 33
28.72330446623199
  0
3DFACE
  8
0
1001
WEBCAD
1000
S3D4
 10
389.96562765669285
 20
132.47801208496094
 30
83.72294341390761
 11
390.1802659910293
 21
133.75750732421875
 31
28.72330446623199
 12
390.2599767635379
 22
132.47801208496094
 32
28.723731068608522
 13
390.2599767635379
 23
132.47801208496094
 33
28.723731068608522
  0
3DFACE
  8
0
1001
WEBCAD
1000
S3D4
 10
390.12471351315816
 20
131.2059326171875
 30
83.7237948220963
 11
389.96562765669285
 21
132.47801208496094
 31
83.72294341390761
 12
390.2599767635379
 22
132.47801208496094
 32
28.723731068608522
 13
390.2599767635379
 23
132.47801208496094
 33
28.723731068608522
  0
3DFACE
  8
0
1001
WEBCAD
1000
S3D4
 10
390.12471351315816
 20
131.2059326171875
 30
83.7237948220963
 11
390.2599767635379
 21
132.47801208496094
 31
28.723731068608522
 12
390.4190626200032
 22
131.2059326171875
 32
28.724582476797213
 13
390.4190626200032
 23
131.2059326171875
 33
28.724582476797213
  0
3DFACE
  8
0
1001
WEBCAD
1000
S3D4
 10
390.3625641107585
 20
129.94622802734375
 30
83.72506776961647
 11
390.12471351315816
 21
131.2059326171875
 31
83.7237948220963
 12
390.4190626200032
 22
131.2059326171875
 32
28.724582476797213
 13
390.4190626200032
 23
131.2059326171875
 33
28.724582476797213
  0
3DFACE
  8
0
1001
WEBCAD
1000
S3D4
 10
390.3625641107585
 20
129.94622802734375
 30
83.72506776961647
 11
390.4190626200032
 21
131.2059326171875
 31
28.724582476797213
 12
390.6569132176036
 22
129.94622802734375
 32
28.72585542431738
 13
390.6569132176036
 23
129.94622802734375
 33
28.72585542431738
  0
3DFACE
  8
0
1001
WEBCAD
1000
S3D4
 10
390.6782944524025
 20
128.7037353515625
 30
83.72675752007115
 11
390.3625641107585
 21
129.94622802734375
 31
83.72506776961647
 12
390.6569132176036
 22
129.94622802734375
 32
28.72585542431738
 13
390.6569132176036
 23
129.94622802734375
 33
28.72585542431738
  0
3DFACE
  8
0
1001
WEBCAD
1000
S3D4
 10
390.6782944524025
 20
128.7037353515625
 30
83.72675752007115
 11
390.6569132176036
 21
129.94622802734375
 31
28.72585542431738
 12
390.97264355924756
 22
128.7037353515625
 32
28.727545174772047
 13
390.97264355924756
 23
128.7037353515625
 33
28.727545174772047
  0
3DFACE
  8
0
1001
WEBCAD
1000
S3D4
 10
390.6782944524025
 20
128.7037353515625
 30
83.72675752007115
 11
390.97264355924756
 21
128.7037353515625
 31
28.727545174772047
 12
391.3650024421508
 22
127.4832763671875
 32
28.729645031875823
 13
391.3650024421508
 23
127.4832763671875
 33
28.729645031875823
  0
3DFACE
  8
0
1001
WEBCAD
1000
S3D4
 10
391.07065333530574
 20
127.4832763671875
 30
83.72885737717492
 11
390.6782944524025
 21
128.7037353515625
 31
83.72675752007115
 12
391.3650024421508
 22
127.4832763671875
 32
28.729645031875823
 13
391.3650024421508
 23
127.4832763671875
 33
28.729645031875823
  0
3DFACE
  8
0
1001
WEBCAD
1000
S3D4
 10
391.53811490241407
 20
126.2895736694336
 30
83.7313591747261
 11
391.07065333530574
 21
127.4832763671875
 31
83.72885737717492
 12
391.3650024421508
 22
127.4832763671875
 32
28.729645031875823
 13
391.3650024421508
 23
127.4832763671875
 33
28.729645031875823
  0
3DFACE
  8
0
1001
WEBCAD
1000
S3D4
 10
391.53811490241407
 20
126.2895736694336
 30
83.7313591747261
 11
391.3650024421508
 21
127.4832763671875
 31
28.729645031875823
 12
391.8324640092591
 22
126.2895736694336
 32
28.73214682942701
 13
391.8324640092591
 23
126.2895736694336
 33
28.73214682942701
  0
3DFACE
  8
0
1001
WEBCAD
1000
S3D4
 10
391.53811490241407
 20
126.2895736694336
 30
83.7313591747261
 11
391.8324640092591
 21
126.2895736694336
 31
28.73214682942701
 12
392.3732277492486
 22
125.12724304199219
 32
28.735040931307612
 13
392.3732277492486
 23
125.12724304199219
 33
28.735040931307612
  0
3DFACE
  8
0
1001
WEBCAD
1000
S3D4
 10
392.07887864240354
 20
125.12724304199219
 30
83.73425327660671
 11
391.53811490241407
 21
126.2895736694336
 31
83.7313591747261
 12
392.3732277492486
 22
125.12724304199219
 32
28.735040931307612
 13
392.3732277492486
 23
125.12724304199219
 33
28.735040931307612
  0
3DFACE
  8
0
1001
WEBCAD
1000
S3D4
 10
392.69086938968064
 20
124.00077819824219
 30
83.73752857678241
 11
392.07887864240354
 21
125.12724304199219
 31
83.73425327660671
 12
392.3732277492486
 22
125.12724304199219
 32
28.735040931307612
 13
392.3732277492486
 23
125.12724304199219
 33
28.735040931307612
  0
3DFACE
  8
0
1001
WEBCAD
1000
S3D4
 10
392.69086938968064
 20
124.00077819824219
 30
83.73752857678241
 11
392.3732277492486
 21
125.12724304199219
 31
28.735040931307612
 12
392.9852184965257
 22
124.00077819824219
 32
28.73831623148332
 13
392.9852184965257
 23
124.00077819824219
 33
28.73831623148332
  0
3DFACE
  8
0
1001
WEBCAD
1000
S3D4
 10
393.3717068072408
 20
122.91454315185547
 30
83.74117233597859
 11
392.69086938968064
 21
124.00077819824219
 31
83.73752857678241
 12
392.9852184965257
 22
124.00077819824219
 32
28.73831623148332
 13
392.9852184965257
 23
124.00077819824219
 33
28.73831623148332
  0
3DFACE
  8
0
1001
WEBCAD
1000
S3D4
 10
393.3717068072408
 20
122.91454315185547
 30
83.74117233597859
 11
392.9852184965257
 21
124.00077819824219
 31
28.73831623148332
 12
393.66605591408586
 22
122.91454315185547
 32
28.741959990679497
 13
393.66605591408586
 23
122.91454315185547
 33
28.741959990679497
  0
3DFACE
  8
0
1001
WEBCAD
1000
S3D4
 10
394.1187664209509
 20
121.87273406982422
 30
83.74517050832831
 11
393.3717068072408
 21
122.91454315185547
 31
83.74117233597859
 12
393.66605591408586
 22
122.91454315185547
 32
28.741959990679497
 13
393.66605591408586
 23
122.91454315185547
 33
28.741959990679497
  0
3DFACE
  8
0
1001
WEBCAD
1000
S3D4
 10
394.1187664209509
 20
121.87273406982422
 30
83.74517050832831
 11
393.66605591408586
 21
122.91454315185547
 31
28.741959990679497
 12
394.413115527796
 22
121.87273406982422
 32
28.745958163029222
 13
394.413115527796
 23
121.87273406982422
 33
28.745958163029222
  0
3DFACE
  8
0
1001
WEBCAD
1000
S3D4
 10
394.929118585267
 20
120.87938690185547
 30
83.74950741472433
 11
394.1187664209509
 21
121.87273406982422
 31
83.74517050832831
 12
394.413115527796
 22
121.87273406982422
 32
28.745958163029222
 13
394.413115527796
 23
121.87273406982422
 33
28.745958163029222
  0
3DFACE
  8
0
1001
WEBCAD
1000
S3D4
 10
394.929118585267
 20
120.87938690185547
 30
83.74950741472433
 11
394.413115527796
 21
121.87273406982422
 31
28.745958163029222
 12
395.2234676921121
 22
120.87938690185547
 32
28.750295069425242
 13
395.2234676921121
 23
120.87938690185547
 33
28.750295069425242
  0
3DFACE
  8
0
1001
WEBCAD
1000
S3D4
 10
394.929118585267
 20
120.87938690185547
 30
83.74950741472433
 11
395.2234676921121
 21
120.87938690185547
 31
28.750295069425242
 12
396.09403017578484
 22
119.93834686279297
 32
28.754954214140135
 13
396.09403017578484
 23
119.93834686279297
 33
28.754954214140135
  0
3DFACE
  8
0
1001
WEBCAD
1000
S3D4
 10
395.7996810689398
 20
119.93834686279297
 30
83.75416655943923
 11
394.929118585267
 21
120.87938690185547
 31
83.74950741472433
 12
396.09403017578484
 22
119.93834686279297
 32
28.754954214140135
 13
396.09403017578484
 23
119.93834686279297
 33
28.754954214140135
  0
3DFACE
  8
0
1001
WEBCAD
1000
S3D4
 10
396.7270664693089
 20
119.0532455444336
 30
83.75912981350524
 11
395.7996810689398
 21
119.93834686279297
 31
83.75416655943923
 12
396.09403017578484
 22
119.93834686279297
 32
28.754954214140135
 13
396.09403017578484
 23
119.93834686279297
 33
28.754954214140135
  0
3DFACE
  8
0
1001
WEBCAD
1000
S3D4
 10
396.7270664693089
 20
119.0532455444336
 30
83.75912981350524
 11
396.09403017578484
 21
119.93834686279297
 31
28.754954214140135
 12
397.02141557615397
 22
119.0532455444336
 32
28.759917468206137
 13
397.02141557615397
 23
119.0532455444336
 33
28.759917468206137
  0
3DFACE
  8
0
1001
WEBCAD
1000
S3D4
 10
397.7076737637267
 20
118.22750854492188
 30
83.76437790468634
 11
397.02141557615397
 21
119.0532455444336
 31
28.759917468206137
 12
398.00202287057175
 22
118.22750854492188
 32
28.765165559387253
 13
398.00202287057175
 23
118.22750854492188
 33
28.765165559387253
  0
3DFACE
  8
0
1001
WEBCAD
1000
S3D4
 10
397.7076737637267
 20
118.22750854492188
 30
83.76437790468634
 11
396.7270664693089
 21
119.0532455444336
 31
83.75912981350524
 12
397.02141557615397
 22
119.0532455444336
 32
28.759917468206137
 13
397.02141557615397
 23
119.0532455444336
 33
28.759917468206137
  0
3DFACE
  8
0
1001
WEBCAD
1000
S3D4
 10
398.7377188266988
 20
117.46434020996094
 30
83.76989058080237
 11
398.00202287057175
 21
118.22750854492188
 31
28.765165559387253
 12
399.0320679335439
 22
117.46434020996094
 32
28.770678235503276
 13
399.0320679335439
 23
117.46434020996094
 33
28.770678235503276
  0
3DFACE
  8
0
1001
WEBCAD
1000
S3D4
 10
398.7377188266988
 20
117.46434020996094
 30
83.76989058080237
 11
397.7076737637267
 21
118.22750854492188
 31
83.76437790468634
 12
398.00202287057175
 22
118.22750854492188
 32
28.765165559387253
 13
398.00202287057175
 23
118.22750854492188
 33
28.765165559387253
  0
3DFACE
  8
0
1001
WEBCAD
1000
S3D4
 10
399.8132344298845
 20
116.76667785644531
 30
83.7756466097289
 11
399.0320679335439
 21
117.46434020996094
 31
28.770678235503276
 12
400.1075835367296
 22
116.76667785644531
 32
28.7764342644298
 13
400.1075835367296
 23
116.76667785644531
 33
28.7764342644298
  0
3DFACE
  8
0
1001
WEBCAD
1000
S3D4
 10
399.8132344298845
 20
116.76667785644531
 30
83.7756466097289
 11
398.7377188266988
 21
117.46434020996094
 31
83.76989058080237
 12
399.0320679335439
 22
117.46434020996094
 32
28.770678235503276
 13
399.0320679335439
 23
117.46434020996094
 33
28.770678235503276
  0
3DFACE
  8
0
1001
WEBCAD
1000
S3D4
 10
400.9300092078143
 20
116.13723754882812
 30
83.78162345274924
 11
400.1075835367296
 21
116.76667785644531
 31
28.7764342644298
 12
401.22435831465936
 22
116.13723754882812
 32
28.782411107450148
 13
401.22435831465936
 23
116.13723754882812
 33
28.782411107450148
  0
3DFACE
  8
0
1001
WEBCAD
1000
S3D4
 10
400.9300092078143
 20
116.13723754882812
 30
83.78162345274924
 11
399.8132344298845
 21
116.76667785644531
 31
83.7756466097289
 12
400.1075835367296
 22
116.76667785644531
 32
28.7764342644298
 13
400.1075835367296
 23
116.76667785644531
 33
28.7764342644298
  0
3DFACE
  8
0
1001
WEBCAD
1000
S3D4
 10
402.0838012778777
 20
115.57844543457031
 30
83.7877984078227
 11
401.22435831465936
 21
116.13723754882812
 31
28.782411107450148
 12
402.37815038472274
 22
115.57844543457031
 32
28.788586062523613
 13
402.37815038472274
 23
115.57844543457031
 33
28.788586062523613
  0
3DFACE
  8
0
1001
WEBCAD
1000
S3D4
 10
402.0838012778777
 20
115.57844543457031
 30
83.7877984078227
 11
400.9300092078143
 21
116.13723754882812
 31
83.78162345274924
 12
401.22435831465936
 22
116.13723754882812
 32
28.782411107450148
 13
401.22435831465936
 23
116.13723754882812
 33
28.782411107450148
  0
3DFACE
  8
0
1001
WEBCAD
1000
S3D4
 10
403.27006358605337
 20
115.09246063232422
 30
83.79414713966824
 11
402.37815038472274
 21
115.57844543457031
 31
28.788586062523613
 12
403.56441269289843
 22
115.09246063232422
 32
28.79493479436914
 13
403.56441269289843
 23
115.09246063232422
 33
28.79493479436914
  0
3DFACE
  8
0
1001
WEBCAD
1000
S3D4
 10
403.27006358605337
 20
115.09246063232422
 30
83.79414713966824
 11
402.0838012778777
 21
115.57844543457031
 31
83.7877984078227
 12
402.37815038472274
 22
115.57844543457031
 32
28.788586062523613
 13
402.37815038472274
 23
115.57844543457031
 33
28.788586062523613
  0
3DFACE
  8
0
1001
WEBCAD
1000
S3D4
 10
404.48424907831986
 20
114.6811752319336
 30
83.80064531300476
 11
403.56441269289843
 21
115.09246063232422
 31
28.79493479436914
 12
404.7785981851649
 22
114.6811752319336
 32
28.80143296770568
 13
404.7785981851649
 23
114.6811752319336
 33
28.80143296770568
  0
3DFACE
  8
0
1001
WEBCAD
1000
S3D4
 10
404.48424907831986
 20
114.6811752319336
 30
83.80064531300476
 11
403.27006358605337
 21
115.09246063232422
 31
83.79414713966824
 12
403.56441269289843
 22
115.09246063232422
 32
28.79493479436914
 13
403.56441269289843
 23
115.09246063232422
 33
28.79493479436914
  0
3DFACE
  8
0
1001
WEBCAD
1000
S3D4
 10
405.7216581149505
 20
114.3461685180664
 30
83.80726777593111
 11
404.7785981851649
 21
114.6811752319336
 31
28.80143296770568
 12
406.0160072217956
 22
114.3461685180664
 32
28.80805543063201
 13
406.0160072217956
 23
114.3461685180664
 33
28.80805543063201
  0
3DFACE
  8
0
1001
WEBCAD
1000
S3D4
 10
405.7216581149505
 20
114.3461685180664
 30
83.80726777593111
 11
404.48424907831986
 21
114.6811752319336
 31
83.80064531300476
 12
404.7785981851649
 22
114.6811752319336
 32
28.80143296770568
 13
404.7785981851649
 23
114.6811752319336
 33
28.80143296770568
  0
3DFACE
  8
0
1001
WEBCAD
1000
S3D4
 10
406.9774995047952
 20
114.08873748779297
 30
83.81398888657391
 11
406.0160072217956
 21
114.3461685180664
 31
28.80805543063201
 12
407.2718486116403
 22
114.08873748779297
 32
28.814776541274814
 13
407.2718486116403
 23
114.08873748779297
 33
28.814776541274814
  0
3DFACE
  8
0
1001
WEBCAD
1000
S3D4
 10
406.9774995047952
 20
114.08873748779297
 30
83.81398888657391
 11
407.2718486116403
 21
114.08873748779297
 31
28.814776541274814
 12
408.54127012926693
 22
113.90988159179688
 32
28.821570331112703
 13
408.54127012926693
 23
113.90988159179688
 33
28.821570331112703
  0
3DFACE
  8
0
1001
WEBCAD
1000
S3D4
 10
406.9774995047952
 20
114.08873748779297
 30
83.81398888657391
 11
405.7216581149505
 21
114.3461685180664
 31
83.80726777593111
 12
406.0160072217956
 22
114.3461685180664
 32
28.80805543063201
 13
406.0160072217956
 23
114.3461685180664
 33
28.80805543063201
  0
3DFACE
  8
0
1001
WEBCAD
1000
S3D4
 10
408.2469210224219
 20
113.90988159179688
 30
83.8207826764118
 11
406.9774995047952
 21
114.08873748779297
 31
83.81398888657391
 12
408.54127012926693
 22
113.90988159179688
 32
28.821570331112703
 13
408.54127012926693
 23
113.90988159179688
 33
28.821570331112703
  0
3DFACE
  8
0
1001
WEBCAD
1000
S3D4
 10
409.52500940811603
 20
113.81028747558594
 30
83.8276228502753
 11
408.2469210224219
 21
113.90988159179688
 31
83.8207826764118
 12
408.54127012926693
 22
113.90988159179688
 32
28.821570331112703
 13
408.54127012926693
 23
113.90988159179688
 33
28.821570331112703
  0
3DFACE
  8
0
1001
WEBCAD
1000
S3D4
 10
409.52500940811603
 20
113.81028747558594
 30
83.8276228502753
 11
408.54127012926693
 21
113.90988159179688
 31
28.821570331112703
 12
409.8193585149611
 22
113.81028747558594
 32
28.828410504976215
 13
409.8193585149611
 23
113.81028747558594
 33
28.828410504976215
  0
3DFACE
  8
0
1001
WEBCAD
1000
S3D4
 10
410.8068208850223
 20
113.79035186767578
 30
83.83448294967096
 11
409.52500940811603
 21
113.81028747558594
 31
83.8276228502753
 12
409.8193585149611
 22
113.81028747558594
 32
28.828410504976215
 13
409.8193585149611
 23
113.81028747558594
 33
28.828410504976215
  0
3DFACE
  8
0
1001
WEBCAD
1000
S3D4
 10
410.8068208850223
 20
113.79035186767578
 30
83.83448294967096
 11
409.8193585149611
 21
113.81028747558594
 31
28.828410504976215
 12
411.1011699918674
 22
113.79035186767578
 32
28.835270604371864
 13
411.1011699918674
 23
113.79035186767578
 33
28.835270604371864
  0
3DFACE
  8
0
1001
WEBCAD
1000
S3D4
 10
412.08738115914423
 20
113.85014343261719
 30
83.84133635278121
 11
410.8068208850223
 21
113.79035186767578
 31
83.83448294967096
 12
411.1011699918674
 22
113.79035186767578
 32
28.835270604371864
 13
411.1011699918674
 23
113.79035186767578
 33
28.835270604371864
  0
3DFACE
  8
0
1001
WEBCAD
1000
S3D4
 10
412.08738115914423
 20
113.85014343261719
 30
83.84133635278121
 11
411.1011699918674
 21
113.79035186767578
 31
28.835270604371864
 12
412.3817302659893
 22
113.85014343261719
 32
28.84212400748212
 13
412.3817302659893
 23
113.85014343261719
 33
28.84212400748212
  0
3DFACE
  8
0
1001
WEBCAD
1000
S3D4
 10
413.36174645362627
 20
113.98943328857422
 30
83.84815660111259
 11
412.08738115914423
 21
113.85014343261719
 31
83.84133635278121
 12
412.3817302659893
 22
113.85014343261719
 32
28.84212400748212
 13
412.3817302659893
 23
113.85014343261719
 33
28.84212400748212
  0
3DFACE
  8
0
1001
WEBCAD
1000
S3D4
 10
413.36174645362627
 20
113.98943328857422
 30
83.84815660111259
 11
412.3817302659893
 21
113.85014343261719
 31
28.84212400748212
 12
413.65609556047133
 22
113.98943328857422
 32
28.8489442558135
 13
413.65609556047133
 23
113.98943328857422
 33
28.8489442558135
  0
3DFACE
  8
0
1001
WEBCAD
1000
S3D4
 10
414.62497299161305
 20
114.20767974853516
 30
83.8549172361716
 11
413.36174645362627
 21
113.98943328857422
 31
83.84815660111259
 12
413.65609556047133
 22
113.98943328857422
 32
28.8489442558135
 13
413.65609556047133
 23
113.98943328857422
 33
28.8489442558135
  0
3DFACE
  8
0
1001
WEBCAD
1000
S3D4
 10
414.62497299161305
 20
114.20767974853516
 30
83.8549172361716
 11
413.65609556047133
 21
113.98943328857422
 31
28.8489442558135
 12
414.9193220984581
 22
114.20767974853516
 32
28.855704890872506
 13
414.9193220984581
 23
114.20767974853516
 33
28.855704890872506
  0
3DFACE
  8
0
1001
WEBCAD
1000
S3D4
 10
415.8722085476724
 20
114.50404357910156
 30
83.86159228943684
 11
414.62497299161305
 21
114.20767974853516
 31
83.8549172361716
 12
414.9193220984581
 22
114.20767974853516
 32
28.855704890872506
 13
414.9193220984581
 23
114.20767974853516
 33
28.855704890872506
  0
3DFACE
  8
0
1001
WEBCAD
1000
S3D4
 10
415.8722085476724
 20
114.50404357910156
 30
83.86159228943684
 11
414.9193220984581
 21
114.20767974853516
 31
28.855704890872506
 12
416.1665576545175
 22
114.50404357910156
 32
28.862379944137754
 13
416.1665576545175
 23
114.50404357910156
 33
28.862379944137754
  0
3DFACE
  8
0
1001
WEBCAD
1000
S3D4
 10
417.0986008963721
 20
114.87737274169922
 30
83.86815579238694
 11
415.8722085476724
 21
114.50404357910156
 31
83.86159228943684
 12
416.1665576545175
 22
114.50404357910156
 32
28.862379944137754
 13
416.1665576545175
 23
114.50404357910156
 33
28.862379944137754
  0
3DFACE
  8
0
1001
WEBCAD
1000
S3D4
 10
417.0986008963721
 20
114.87737274169922
 30
83.86815579238694
 11
416.1665576545175
 21
114.50404357910156
 31
28.862379944137754
 12
417.39295000321715
 22
114.87737274169922
 32
28.86894344708785
 13
417.39295000321715
 23
114.87737274169922
 33
28.86894344708785
  0
3DFACE
  8
0
1001
WEBCAD
1000
S3D4
 10
417.0986008963721
 20
114.87737274169922
 30
83.86815579238694
 11
417.39295000321715
 21
114.87737274169922
 31
28.86894344708785
 12
418.5937689876893
 22
115.32623291015625
 32
28.875370084497543
 13
418.5937689876893
 23
115.32623291015625
 33
28.875370084497543
  0
3DFACE
  8
0
1001
WEBCAD
1000
S3D4
 10
418.29941988084425
 20
115.32623291015625
 30
83.87458242979663
 11
417.0986008963721
 21
114.87737274169922
 31
83.86815579238694
 12
418.5937689876893
 22
115.32623291015625
 32
28.875370084497543
 13
418.5937689876893
 23
115.32623291015625
 33
28.875370084497543
  0
3DFACE
  8
0
1001
WEBCAD
1000
S3D4
 10
419.4699963785033
 20
115.84886932373047
 30
83.88084721308874
 11
418.29941988084425
 21
115.32623291015625
 31
83.87458242979663
 12
418.5937689876893
 22
115.32623291015625
 32
28.875370084497543
 13
418.5937689876893
 23
115.32623291015625
 33
28.875370084497543
  0
3DFACE
  8
0
1001
WEBCAD
1000
S3D4
 10
419.4699963785033
 20
115.84886932373047
 30
83.88084721308874
 11
418.5937689876893
 21
115.32623291015625
 31
28.875370084497543
 12
419.7643454853484
 22
115.84886932373047
 32
28.881634867789646
 13
419.7643454853484
 23
115.84886932373047
 33
28.881634867789646
  0
3DFACE
  8
0
1001
WEBCAD
1000
S3D4
 10
420.60584436960994
 20
116.44327545166016
 30
83.88692613363028
 11
419.4699963785033
 21
115.84886932373047
 31
83.88084721308874
 12
419.7643454853484
 22
115.84886932373047
 32
28.881634867789646
 13
419.7643454853484
 23
115.84886932373047
 33
28.881634867789646
  0
3DFACE
  8
0
1001
WEBCAD
1000
S3D4
 10
420.60584436960994
 20
116.44327545166016
 30
83.88692613363028
 11
419.7643454853484
 21
115.84886932373047
 31
28.881634867789646
 12
420.900193476455
 22
116.44327545166016
 32
28.887713788331183
 13
420.900193476455
 23
116.44327545166016
 33
28.887713788331183
  0
3DFACE
  8
0
1001
WEBCAD
1000
S3D4
 10
421.7025083515661
 20
117.10714721679688
 30
83.89279534611228
 11
420.60584436960994
 21
116.44327545166016
 31
83.88692613363028
 12
420.900193476455
 22
116.44327545166016
 32
28.887713788331183
 13
420.900193476455
 23
116.44327545166016
 33
28.887713788331183
  0
3DFACE
  8
0
1001
WEBCAD
1000
S3D4
 10
421.7025083515661
 20
117.10714721679688
 30
83.89279534611228
 11
420.900193476455
 21
116.44327545166016
 31
28.887713788331183
 12
421.99685745841117
 22
117.10714721679688
 32
28.893583000813194
 13
421.99685745841117
 23
117.10714721679688
 33
28.893583000813194
  0
3DFACE
  8
0
1001
WEBCAD
1000
S3D4
 10
422.7558074760434
 20
117.8379135131836
 30
83.89843247514213
 11
421.7025083515661
 21
117.10714721679688
 31
83.89279534611228
 12
421.99685745841117
 22
117.10714721679688
 32
28.893583000813194
 13
421.99685745841117
 23
117.10714721679688
 33
28.893583000813194
  0
3DFACE
  8
0
1001
WEBCAD
1000
S3D4
 10
422.7558074760434
 20
117.8379135131836
 30
83.89843247514213
 11
421.99685745841117
 21
117.10714721679688
 31
28.893583000813194
 12
423.05015658288846
 22
117.8379135131836
 32
28.899220129843044
 13
423.05015658288846
 23
117.8379135131836
 33
28.899220129843044
  0
3DFACE
  8
0
1001
WEBCAD
1000
S3D4
 10
423.7616219289957
 20
118.63275146484375
 30
83.90381547197525
 11
422.7558074760434
 21
117.8379135131836
 31
83.89843247514213
 12
423.05015658288846
 22
117.8379135131836
 32
28.899220129843044
 13
423.05015658288846
 23
117.8379135131836
 33
28.899220129843044
  0
3DFACE
  8
0
1001
WEBCAD
1000
S3D4
 10
423.7616219289957
 20
118.63275146484375
 30
83.90381547197525
 11
423.05015658288846
 21
117.8379135131836
 31
28.899220129843044
 12
424.05597103584074
 22
118.63275146484375
 32
28.904603126676157
 13
424.05597103584074
 23
118.63275146484375
 33
28.904603126676157
  0
3DFACE
  8
0
1001
WEBCAD
1000
S3D4
 10
424.7160760335054
 20
119.48857879638672
 30
83.90892359445931
 11
423.7616219289957
 21
118.63275146484375
 31
83.90381547197525
 12
424.05597103584074
 22
118.63275146484375
 32
28.904603126676157
 13
424.05597103584074
 23
118.63275146484375
 33
28.904603126676157
  0
3DFACE
  8
0
1001
WEBCAD
1000
S3D4
 10
424.7160760335054
 20
119.48857879638672
 30
83.90892359445931
 11
424.05597103584074
 21
118.63275146484375
 31
28.904603126676157
 12
425.01042514035043
 22
119.48857879638672
 32
28.909711249160225
 13
425.01042514035043
 23
119.48857879638672
 33
28.909711249160225
  0
3DFACE
  8
0
1001
WEBCAD
1000
S3D4
 10
425.61547721550147
 20
120.402099609375
 30
83.91373708038624
 11
424.7160760335054
 21
119.48857879638672
 31
83.90892359445931
 12
425.01042514035043
 22
119.48857879638672
 32
28.909711249160225
 13
425.01042514035043
 23
119.48857879638672
 33
28.909711249160225
  0
3DFACE
  8
0
1001
WEBCAD
1000
S3D4
 10
425.61547721550147
 20
120.402099609375
 30
83.91373708038624
 11
425.01042514035043
 21
119.48857879638672
 31
28.909711249160225
 12
425.90982632234653
 22
120.402099609375
 32
28.91452473508715
 13
425.90982632234653
 23
120.402099609375
 33
28.91452473508715
  0
3DFACE
  8
0
1001
WEBCAD
1000
S3D4
 10
426.4563465209005
 20
121.36975860595703
 30
83.91823731081615
 11
425.61547721550147
 21
120.402099609375
 31
83.91373708038624
 12
425.90982632234653
 22
120.402099609375
 32
28.91452473508715
 13
425.90982632234653
 23
120.402099609375
 33
28.91452473508715
  0
3DFACE
  8
0
1001
WEBCAD
1000
S3D4
 10
426.4563465209005
 20
121.36975860595703
 30
83.91823731081615
 11
425.90982632234653
 21
120.402099609375
 31
28.91452473508715
 12
426.7506956277456
 22
121.36975860595703
 32
28.91902496551706
 13
426.7506956277456
 23
121.36975860595703
 33
28.91902496551706
  0
3DFACE
  8
0
1001
WEBCAD
1000
S3D4
 10
427.23541861560665
 20
122.38783264160156
 30
83.92240681007743
 11
426.4563465209005
 21
121.36975860595703
 31
83.91823731081615
 12
426.7506956277456
 22
121.36975860595703
 32
28.91902496551706
 13
426.7506956277456
 23
121.36975860595703
 33
28.91902496551706
  0
3DFACE
  8
0
1001
WEBCAD
1000
S3D4
 10
427.23541861560665
 20
122.38783264160156
 30
83.92240681007743
 11
426.7506956277456
 21
121.36975860595703
 31
28.91902496551706
 12
427.5297677224517
 22
122.38783264160156
 32
28.92319446477834
 13
427.5297677224517
 23
122.38783264160156
 33
28.92319446477834
  0
3DFACE
  8
0
1001
WEBCAD
1000
S3D4
 10
427.9497333369348
 20
123.4523696899414
 30
83.92622973573879
 11
427.23541861560665
 21
122.38783264160156
 31
83.92240681007743
 12
427.5297677224517
 22
122.38783264160156
 32
28.92319446477834
 13
427.5297677224517
 23
122.38783264160156
 33
28.92319446477834
  0
3DFACE
  8
0
1001
WEBCAD
1000
S3D4
 10
427.9497333369348
 20
123.4523696899414
 30
83.92622973573879
 11
427.5297677224517
 21
122.38783264160156
 31
28.92319446477834
 12
428.24408244377986
 22
123.4523696899414
 32
28.927017390439694
 13
428.24408244377986
 23
123.4523696899414
 33
28.927017390439694
  0
3DFACE
  8
0
1001
WEBCAD
1000
S3D4
 10
428.5964525907642
 20
124.55924987792969
 30
83.92969089866507
 11
427.9497333369348
 21
123.4523696899414
 31
83.92622973573879
 12
428.24408244377986
 22
123.4523696899414
 32
28.927017390439694
 13
428.24408244377986
 23
123.4523696899414
 33
28.927017390439694
  0
3DFACE
  8
0
1001
WEBCAD
1000
S3D4
 10
428.5964525907642
 20
124.55924987792969
 30
83.92969089866507
 11
428.24408244377986
 21
123.4523696899414
 31
28.927017390439694
 12
428.8908016976093
 22
124.55924987792969
 32
28.930478553365976
 13
428.8908016976093
 23
124.55924987792969
 33
28.930478553365976
  0
3DFACE
  8
0
1001
WEBCAD
1000
S3D4
 10
429.17310448866726
 20
125.7042007446289
 30
83.93277706960953
 11
428.5964525907642
 21
124.55924987792969
 31
83.92969089866507
 12
428.8908016976093
 22
124.55924987792969
 32
28.930478553365976
 13
428.8908016976093
 23
124.55924987792969
 33
28.930478553365976
  0
3DFACE
  8
0
1001
WEBCAD
1000
S3D4
 10
429.17310448866726
 20
125.7042007446289
 30
83.93277706960953
 11
428.8908016976093
 21
124.55924987792969
 31
28.930478553365976
 12
429.4674535955123
 22
125.7042007446289
 32
28.933564724310436
 13
429.4674535955123
 23
125.7042007446289
 33
28.933564724310436
  0
3DFACE
  8
0
1001
WEBCAD
1000
S3D4
 10
429.17310448866726
 20
125.7042007446289
 30
83.93277706960953
 11
429.4674535955123
 21
125.7042007446289
 31
28.933564724310436
 12
429.97181038618993
 22
126.8827896118164
 32
28.9362639806186
 13
429.97181038618993
 23
126.8827896118164
 33
28.9362639806186
  0
3DFACE
  8
0
1001
WEBCAD
1000
S3D4
 10
429.67746127934487
 20
126.8827896118164
 30
83.9354763259177
 11
429.17310448866726
 21
125.7042007446289
 31
83.93277706960953
 12
429.97181038618993
 22
126.8827896118164
 32
28.9362639806186
 13
429.97181038618993
 23
126.8827896118164
 33
28.9362639806186
  0
3DFACE
  8
0
1001
WEBCAD
1000
S3D4
 10
430.10760038290874
 20
128.0904541015625
 30
83.93777837817544
 11
429.67746127934487
 21
126.8827896118164
 31
83.9354763259177
 12
429.97181038618993
 22
126.8827896118164
 32
28.9362639806186
 13
429.97181038618993
 23
126.8827896118164
 33
28.9362639806186
  0
3DFACE
  8
0
1001
WEBCAD
1000
S3D4
 10
430.10760038290874
 20
128.0904541015625
 30
83.93777837817544
 11
429.97181038618993
 21
126.8827896118164
 31
28.9362639806186
 12
430.4019494897538
 22
128.0904541015625
 32
28.938566032876338
 13
430.4019494897538
 23
128.0904541015625
 33
28.938566032876338
  0
3DFACE
  8
0
1001
WEBCAD
1000
S3D4
 10
430.4617823223172
 20
129.32252502441406
 30
83.9396739169128
 11
430.10760038290874
 21
128.0904541015625
 31
83.93777837817544
 12
430.4019494897538
 22
128.0904541015625
 32
28.938566032876338
 13
430.4019494897538
 23
128.0904541015625
 33
28.938566032876338
  0
3DFACE
  8
0
1001
WEBCAD
1000
S3D4
 10
430.4617823223172
 20
129.32252502441406
 30
83.9396739169128
 11
430.4019494897538
 21
128.0904541015625
 31
28.938566032876338
 12
430.7561314291623
 22
129.32252502441406
 32
28.94046157161371
 13
430.7561314291623
 23
129.32252502441406
 33
28.94046157161371
  0
3DFACE
  8
0
1001
WEBCAD
1000
S3D4
 10
430.7387253776448
 20
130.57423400878906
 30
83.9411560825204
 11
430.4617823223172
 21
129.32252502441406
 31
83.9396739169128
 12
430.7561314291623
 22
129.32252502441406
 32
28.94046157161371
 13
430.7561314291623
 23
129.32252502441406
 33
28.94046157161371
  0
3DFACE
  8
0
1001
WEBCAD
1000
S3D4
 10
430.7387253776448
 20
130.57423400878906
 30
83.9411560825204
 11
430.7561314291623
 21
129.32252502441406
 31
28.94046157161371
 12
431.0330744844899
 22
130.57423400878906
 32
28.9419437372213
 13
431.0330744844899
 23
130.57423400878906
 33
28.9419437372213
  0
3DFACE
  8
0
1001
WEBCAD
1000
S3D4
 10
430.9373004146714
 20
131.84072875976562
 30
83.94221883200893
 11
430.7387253776448
 21
130.57423400878906
 31
83.9411560825204
 12
431.0330744844899
 22
130.57423400878906
 32
28.9419437372213
 13
431.0330744844899
 23
130.57423400878906
 33
28.9419437372213
  0
3DFACE
  8
0
1001
WEBCAD
1000
S3D4
 10
430.9373004146714
 20
131.84072875976562
 30
83.94221883200893
 11
431.0330744844899
 21
130.57423400878906
 31
28.9419437372213
 12
431.2316495215165
 22
131.84072875976562
 32
28.943006486709848
 13
431.2316495215165
 23
131.84072875976562
 33
28.943006486709848
  0
3DFACE
  8
0
1001
WEBCAD
1000
S3D4
 10
431.05674450487004
 20
133.11712646484375
 30
83.94285808227761
 11
431.2316495215165
 21
131.84072875976562
 31
28.943006486709848
 12
431.3510936117151
 22
133.11712646484375
 32
28.943645736978507
 13
431.3510936117151
 23
133.11712646484375
 33
28.943645736978507
  0
3DFACE
  8
0
1001
WEBCAD
1000
S3D4
 10
431.05674450487004
 20
133.11712646484375
 30
83.94285808227761
 11
430.9373004146714
 21
131.84072875976562
 31
83.94221883200893
 12
431.2316495215165
 22
131.84072875976562
 32
28.943006486709848
 13
431.2316495215165
 23
131.84072875976562
 33
28.943006486709848
  0
3DFACE
  8
0
1001
WEBCAD
1000
S3D4
 10
431.0965998911243
 20
134.3984832763672
 30
83.94307138346586
 11
431.3510936117151
 21
133.11712646484375
 31
28.943645736978507
 12
431.39094899796936
 22
134.3984832763672
 32
28.943859038166774
 13
431.39094899796936
 23
134.3984832763672
 33
28.943859038166774
  0
3DFACE
  8
0
1001
WEBCAD
1000
S3D4
 10
431.0965998911243
 20
134.3984832763672
 30
83.94307138346586
 11
431.05674450487004
 21
133.11712646484375
 31
83.94285808227761
 12
431.3510936117151
 22
133.11712646484375
 32
28.943645736978507
 13
431.3510936117151
 23
133.11712646484375
 33
28.943645736978507
  0
3DFACE
  8
0
1001
WEBCAD
1000
S3D4
 10
394.1187664209509
 20
121.87273406982422
 30
83.74517050832831
 11
394.929118585267
 21
120.87938690185547
 31
83.74950741472433
 12
395.7996810689398
 22
119.93834686279297
 32
83.75416655943923
 13
395.7996810689398
 23
119.93834686279297
 33
83.75416655943923
  0
3DFACE
  8
0
1001
WEBCAD
1000
S3D4
 10
393.3717068072408
 20
122.91454315185547
 30
83.74117233597859
 11
394.1187664209509
 21
121.87273406982422
 31
83.74517050832831
 12
395.7996810689398
 22
119.93834686279297
 32
83.75416655943923
 13
395.7996810689398
 23
119.93834686279297
 33
83.75416655943923
  0
3DFACE
  8
0
1001
WEBCAD
1000
S3D4
 10
393.3717068072408
 20
122.91454315185547
 30
83.74117233597859
 11
395.7996810689398
 21
119.93834686279297
 31
83.75416655943923
 12
396.7270664693089
 22
119.0532455444336
 32
83.75912981350524
 13
396.7270664693089
 23
119.0532455444336
 33
83.75912981350524
  0
3DFACE
  8
0
1001
WEBCAD
1000
S3D4
 10
399.8132344298845
 20
116.76667785644531
 30
83.7756466097289
 11
397.7076737637267
 21
118.22750854492188
 31
83.76437790468634
 12
398.7377188266988
 22
117.46434020996094
 32
83.76989058080237
 13
398.7377188266988
 23
117.46434020996094
 33
83.76989058080237
  0
3DFACE
  8
0
1001
WEBCAD
1000
S3D4
 10
400.9300092078143
 20
116.13723754882812
 30
83.78162345274924
 11
397.7076737637267
 21
118.22750854492188
 31
83.76437790468634
 12
399.8132344298845
 22
116.76667785644531
 32
83.7756466097289
 13
399.8132344298845
 23
116.76667785644531
 33
83.7756466097289
  0
3DFACE
  8
0
1001
WEBCAD
1000
S3D4
 10
402.0838012778777
 20
115.57844543457031
 30
83.7877984078227
 11
397.7076737637267
 21
118.22750854492188
 31
83.76437790468634
 12
400.9300092078143
 22
116.13723754882812
 32
83.78162345274924
 13
400.9300092078143
 23
116.13723754882812
 33
83.78162345274924
  0
3DFACE
  8
0
1001
WEBCAD
1000
S3D4
 10
391.53811490241407
 20
126.2895736694336
 30
83.7313591747261
 11
392.07887864240354
 21
125.12724304199219
 31
83.73425327660671
 12
392.69086938968064
 22
124.00077819824219
 32
83.73752857678241
 13
392.69086938968064
 23
124.00077819824219
 33
83.73752857678241
  0
3DFACE
  8
0
1001
WEBCAD
1000
S3D4
 10
391.53811490241407
 20
126.2895736694336
 30
83.7313591747261
 11
392.69086938968064
 21
124.00077819824219
 31
83.73752857678241
 12
393.3717068072408
 22
122.91454315185547
 32
83.74117233597859
 13
393.3717068072408
 23
122.91454315185547
 33
83.74117233597859
  0
3DFACE
  8
0
1001
WEBCAD
1000
S3D4
 10
403.27006358605337
 20
115.09246063232422
 30
83.79414713966824
 11
397.7076737637267
 21
118.22750854492188
 31
83.76437790468634
 12
402.0838012778777
 22
115.57844543457031
 32
83.7877984078227
 13
402.0838012778777
 23
115.57844543457031
 33
83.7877984078227
  0
3DFACE
  8
0
1001
WEBCAD
1000
S3D4
 10
403.27006358605337
 20
115.09246063232422
 30
83.79414713966824
 11
396.7270664693089
 21
119.0532455444336
 31
83.75912981350524
 12
397.7076737637267
 22
118.22750854492188
 32
83.76437790468634
 13
397.7076737637267
 23
118.22750854492188
 33
83.76437790468634
  0
3DFACE
  8
0
1001
WEBCAD
1000
S3D4
 10
391.07065333530574
 20
127.4832763671875
 30
83.72885737717492
 11
391.53811490241407
 21
126.2895736694336
 31
83.7313591747261
 12
393.3717068072408
 22
122.91454315185547
 32
83.74117233597859
 13
393.3717068072408
 23
122.91454315185547
 33
83.74117233597859
  0
3DFACE
  8
0
1001
WEBCAD
1000
S3D4
 10
390.12471351315816
 20
131.2059326171875
 30
83.7237948220963
 11
390.3625641107585
 21
129.94622802734375
 31
83.72506776961647
 12
390.6782944524025
 22
128.7037353515625
 32
83.72675752007115
 13
390.6782944524025
 23
128.7037353515625
 33
83.72675752007115
  0
3DFACE
  8
0
1001
WEBCAD
1000
S3D4
 10
390.12471351315816
 20
131.2059326171875
 30
83.7237948220963
 11
390.6782944524025
 21
128.7037353515625
 31
83.72675752007115
 12
391.07065333530574
 22
127.4832763671875
 32
83.72885737717492
 13
391.07065333530574
 23
127.4832763671875
 33
83.72885737717492
  0
3DFACE
  8
0
1001
WEBCAD
1000
S3D4
 10
408.2469210224219
 20
113.90988159179688
 30
83.8207826764118
 11
396.7270664693089
 21
119.0532455444336
 31
83.75912981350524
 12
403.27006358605337
 22
115.09246063232422
 32
83.79414713966824
 13
403.27006358605337
 23
115.09246063232422
 33
83.79414713966824
  0
3DFACE
  8
0
1001
WEBCAD
1000
S3D4
 10
408.2469210224219
 20
113.90988159179688
 30
83.8207826764118
 11
403.27006358605337
 21
115.09246063232422
 31
83.79414713966824
 12
404.48424907831986
 22
114.6811752319336
 32
83.80064531300476
 13
404.48424907831986
 23
114.6811752319336
 33
83.80064531300476
  0
3DFACE
  8
0
1001
WEBCAD
1000
S3D4
 10
408.2469210224219
 20
113.90988159179688
 30
83.8207826764118
 11
404.48424907831986
 21
114.6811752319336
 31
83.80064531300476
 12
405.7216581149505
 22
114.3461685180664
 32
83.80726777593111
 13
405.7216581149505
 23
114.3461685180664
 33
83.80726777593111
  0
3DFACE
  8
0
1001
WEBCAD
1000
S3D4
 10
408.2469210224219
 20
113.90988159179688
 30
83.8207826764118
 11
405.7216581149505
 21
114.3461685180664
 31
83.80726777593111
 12
406.9774995047952
 22
114.08873748779297
 32
83.81398888657391
 13
406.9774995047952
 23
114.08873748779297
 33
83.81398888657391
  0
3DFACE
  8
0
1001
WEBCAD
1000
S3D4
 10
389.96562765669285
 20
132.47801208496094
 30
83.72294341390761
 11
390.12471351315816
 21
131.2059326171875
 31
83.7237948220963
 12
391.07065333530574
 22
127.4832763671875
 32
83.72885737717492
 13
391.07065333530574
 23
127.4832763671875
 33
83.72885737717492
  0
3DFACE
  8
0
1001
WEBCAD
1000
S3D4
 10
410.8068208850223
 20
113.79035186767578
 30
83.83448294967096
 11
408.2469210224219
 21
113.90988159179688
 31
83.8207826764118
 12
409.52500940811603
 22
113.81028747558594
 32
83.8276228502753
 13
409.52500940811603
 23
113.81028747558594
 33
83.8276228502753
  0
3DFACE
  8
0
1001
WEBCAD
1000
S3D4
 10
389.96562765669285
 20
136.3189697265625
 30
83.72294341390761
 11
389.8859168841842
 21
135.0394744873047
 31
83.72251681153108
 12
389.8859168841842
 22
133.75750732421875
 32
83.72251681153108
 13
389.8859168841842
 23
133.75750732421875
 33
83.72251681153108
  0
3DFACE
  8
0
1001
WEBCAD
1000
S3D4
 10
389.96562765669285
 20
136.3189697265625
 30
83.72294341390761
 11
389.8859168841842
 21
133.75750732421875
 31
83.72251681153108
 12
389.96562765669285
 22
132.47801208496094
 32
83.72294341390761
 13
389.96562765669285
 23
132.47801208496094
 33
83.72294341390761
  0
3DFACE
  8
0
1001
WEBCAD
1000
S3D4
 10
413.36174645362627
 20
113.98943328857422
 30
83.84815660111259
 11
408.2469210224219
 21
113.90988159179688
 31
83.8207826764118
 12
410.8068208850223
 22
113.79035186767578
 32
83.83448294967096
 13
410.8068208850223
 23
113.79035186767578
 33
83.83448294967096
  0
3DFACE
  8
0
1001
WEBCAD
1000
S3D4
 10
413.36174645362627
 20
113.98943328857422
 30
83.84815660111259
 11
410.8068208850223
 21
113.79035186767578
 31
83.83448294967096
 12
412.08738115914423
 22
113.85014343261719
 32
83.84133635278121
 13
412.08738115914423
 23
113.85014343261719
 33
83.84133635278121
  0
3DFACE
  8
0
1001
WEBCAD
1000
S3D4
 10
390.3625641107585
 20
138.8507537841797
 30
83.72506776961647
 11
390.12471351315816
 21
137.59103393554688
 31
83.7237948220963
 12
389.96562765669285
 22
136.3189697265625
 32
83.72294341390761
 13
389.96562765669285
 23
136.3189697265625
 33
83.72294341390761
  0
3DFACE
  8
0
1001
WEBCAD
1000
S3D4
 10
390.3625641107585
 20
138.8507537841797
 30
83.72506776961647
 11
389.96562765669285
 21
136.3189697265625
 31
83.72294341390761
 12
389.96562765669285
 22
132.47801208496094
 32
83.72294341390761
 13
389.96562765669285
 23
132.47801208496094
 33
83.72294341390761
  0
3DFACE
  8
0
1001
WEBCAD
1000
S3D4
 10
391.07065333530574
 20
141.31370544433594
 30
83.72885737717492
 11
390.6782944524025
 21
140.09324645996094
 31
83.72675752007115
 12
390.3625641107585
 22
138.8507537841797
 32
83.72506776961647
 13
390.3625641107585
 23
138.8507537841797
 33
83.72506776961647
  0
3DFACE
  8
0
1001
WEBCAD
1000
S3D4
 10
418.29941988084425
 20
115.32623291015625
 30
83.87458242979663
 11
415.8722085476724
 21
114.50404357910156
 31
83.86159228943684
 12
417.0986008963721
 22
114.87737274169922
 32
83.86815579238694
 13
417.0986008963721
 23
114.87737274169922
 33
83.86815579238694
  0
3DFACE
  8
0
1001
WEBCAD
1000
S3D4
 10
391.53811490241407
 20
142.5074005126953
 30
83.7313591747261
 11
391.07065333530574
 21
127.4832763671875
 31
83.72885737717492
 12
393.3717068072408
 22
122.91454315185547
 32
83.74117233597859
 13
393.3717068072408
 23
122.91454315185547
 33
83.74117233597859
  0
3DFACE
  8
0
1001
WEBCAD
1000
S3D4
 10
391.53811490241407
 20
142.5074005126953
 30
83.7313591747261
 11
389.96562765669285
 21
132.47801208496094
 31
83.72294341390761
 12
391.07065333530574
 22
127.4832763671875
 32
83.72885737717492
 13
391.07065333530574
 23
127.4832763671875
 33
83.72885737717492
  0
3DFACE
  8
0
1001
WEBCAD
1000
S3D4
 10
391.53811490241407
 20
142.5074005126953
 30
83.7313591747261
 11
390.3625641107585
 21
138.8507537841797
 31
83.72506776961647
 12
389.96562765669285
 22
132.47801208496094
 32
83.72294341390761
 13
389.96562765669285
 23
132.47801208496094
 33
83.72294341390761
  0
3DFACE
  8
0
1001
WEBCAD
1000
S3D4
 10
391.53811490241407
 20
142.5074005126953
 30
83.7313591747261
 11
391.07065333530574
 21
141.31370544433594
 31
83.72885737717492
 12
390.3625641107585
 22
138.8507537841797
 32
83.72506776961647
 13
390.3625641107585
 23
138.8507537841797
 33
83.72506776961647
  0
3DFACE
  8
0
1001
WEBCAD
1000
S3D4
 10
419.4699963785033
 20
115.84886932373047
 30
83.88084721308874
 11
414.62497299161305
 21
114.20767974853516
 31
83.8549172361716
 12
415.8722085476724
 22
114.50404357910156
 32
83.86159228943684
 13
415.8722085476724
 23
114.50404357910156
 33
83.86159228943684
  0
3DFACE
  8
0
1001
WEBCAD
1000
S3D4
 10
419.4699963785033
 20
115.84886932373047
 30
83.88084721308874
 11
415.8722085476724
 21
114.50404357910156
 31
83.86159228943684
 12
418.29941988084425
 22
115.32623291015625
 32
83.87458242979663
 13
418.29941988084425
 23
115.32623291015625
 33
83.87458242979663
  0
3DFACE
  8
0
1001
WEBCAD
1000
S3D4
 10
420.60584436960994
 20
116.44327545166016
 30
83.88692613363028
 11
414.62497299161305
 21
114.20767974853516
 31
83.8549172361716
 12
419.4699963785033
 22
115.84886932373047
 32
83.88084721308874
 13
419.4699963785033
 23
115.84886932373047
 33
83.88084721308874
  0
3DFACE
  8
0
1001
WEBCAD
1000
S3D4
 10
421.7025083515661
 20
117.10714721679688
 30
83.89279534611228
 11
413.36174645362627
 21
113.98943328857422
 31
83.84815660111259
 12
414.62497299161305
 22
114.20767974853516
 32
83.8549172361716
 13
414.62497299161305
 23
114.20767974853516
 33
83.8549172361716
  0
3DFACE
  8
0
1001
WEBCAD
1000
S3D4
 10
421.7025083515661
 20
117.10714721679688
 30
83.89279534611228
 11
414.62497299161305
 21
114.20767974853516
 31
83.8549172361716
 12
420.60584436960994
 22
116.44327545166016
 32
83.88692613363028
 13
420.60584436960994
 23
116.44327545166016
 33
83.88692613363028
  0
3DFACE
  8
0
1001
WEBCAD
1000
S3D4
 10
393.3717068072408
 20
145.88243103027344
 30
83.74117233597859
 11
392.69086938968064
 21
144.79620361328125
 31
83.73752857678241
 12
392.07887864240354
 22
143.66973876953125
 32
83.73425327660671
 13
392.07887864240354
 23
143.66973876953125
 33
83.73425327660671
  0
3DFACE
  8
0
1001
WEBCAD
1000
S3D4
 10
393.3717068072408
 20
145.88243103027344
 30
83.74117233597859
 11
392.07887864240354
 21
143.66973876953125
 31
83.73425327660671
 12
391.53811490241407
 22
142.5074005126953
 32
83.7313591747261
 13
391.53811490241407
 23
142.5074005126953
 33
83.7313591747261
  0
3DFACE
  8
0
1001
WEBCAD
1000
S3D4
 10
394.1187664209509
 20
146.9242401123047
 30
83.74517050832831
 11
393.3717068072408
 21
145.88243103027344
 31
83.74117233597859
 12
391.53811490241407
 22
142.5074005126953
 32
83.7313591747261
 13
391.53811490241407
 23
142.5074005126953
 33
83.7313591747261
  0
3DFACE
  8
0
1001
WEBCAD
1000
S3D4
 10
396.7270664693089
 20
149.7437286376953
 30
83.75912981350524
 11
395.7996810689398
 21
148.85862731933594
 31
83.75416655943923
 12
394.929118585267
 22
147.91758728027344
 32
83.74950741472433
 13
394.929118585267
 23
147.91758728027344
 33
83.74950741472433
  0
3DFACE
  8
0
1001
WEBCAD
1000
S3D4
 10
427.23541861560665
 20
122.38783264160156
 30
83.92240681007743
 11
423.7616219289957
 21
118.63275146484375
 31
83.90381547197525
 12
424.7160760335054
 22
119.48857879638672
 32
83.90892359445931
 13
424.7160760335054
 23
119.48857879638672
 33
83.90892359445931
  0
3DFACE
  8
0
1001
WEBCAD
1000
S3D4
 10
427.23541861560665
 20
122.38783264160156
 30
83.92240681007743
 11
424.7160760335054
 21
119.48857879638672
 31
83.90892359445931
 12
425.61547721550147
 22
120.402099609375
 32
83.91373708038624
 13
425.61547721550147
 23
120.402099609375
 33
83.91373708038624
  0
3DFACE
  8
0
1001
WEBCAD
1000
S3D4
 10
427.23541861560665
 20
122.38783264160156
 30
83.92240681007743
 11
425.61547721550147
 21
120.402099609375
 31
83.91373708038624
 12
426.4563465209005
 22
121.36975860595703
 32
83.91823731081615
 13
426.4563465209005
 23
121.36975860595703
 33
83.91823731081615
  0
3DFACE
  8
0
1001
WEBCAD
1000
S3D4
 10
398.7377188266988
 20
151.3326416015625
 30
83.76989058080237
 11
396.7270664693089
 21
149.7437286376953
 31
83.75912981350524
 12
394.929118585267
 22
147.91758728027344
 32
83.74950741472433
 13
394.929118585267
 23
147.91758728027344
 33
83.74950741472433
  0
3DFACE
  8
0
1001
WEBCAD
1000
S3D4
 10
398.7377188266988
 20
151.3326416015625
 30
83.76989058080237
 11
397.7076737637267
 21
150.56947326660156
 31
83.76437790468634
 12
396.7270664693089
 22
149.7437286376953
 32
83.75912981350524
 13
396.7270664693089
 23
149.7437286376953
 33
83.75912981350524
  0
3DFACE
  8
0
1001
WEBCAD
1000
S3D4
 10
428.5964525907642
 20
124.55924987792969
 30
83.92969089866507
 11
427.23541861560665
 21
122.38783264160156
 31
83.92240681007743
 12
427.9497333369348
 22
123.4523696899414
 32
83.92622973573879
 13
427.9497333369348
 23
123.4523696899414
 33
83.92622973573879
  0
3DFACE
  8
0
1001
WEBCAD
1000
S3D4
 10
402.0838012778777
 20
153.21853637695312
 30
83.7877984078227
 11
400.9300092078143
 21
152.6597442626953
 31
83.78162345274924
 12
399.8132344298845
 22
152.03030395507812
 32
83.7756466097289
 13
399.8132344298845
 23
152.03030395507812
 33
83.7756466097289
  0
3DFACE
  8
0
1001
WEBCAD
1000
S3D4
 10
402.0838012778777
 20
153.21853637695312
 30
83.7877984078227
 11
399.8132344298845
 21
152.03030395507812
 31
83.7756466097289
 12
398.7377188266988
 22
151.3326416015625
 32
83.76989058080237
 13
398.7377188266988
 23
151.3326416015625
 33
83.76989058080237
  0
3DFACE
  8
0
1001
WEBCAD
1000
S3D4
 10
429.67746127934487
 20
126.8827896118164
 30
83.9354763259177
 11
427.23541861560665
 21
122.38783264160156
 31
83.92240681007743
 12
428.5964525907642
 22
124.55924987792969
 32
83.92969089866507
 13
428.5964525907642
 23
124.55924987792969
 33
83.92969089866507
  0
3DFACE
  8
0
1001
WEBCAD
1000
S3D4
 10
429.67746127934487
 20
126.8827896118164
 30
83.9354763259177
 11
428.5964525907642
 21
124.55924987792969
 31
83.92969089866507
 12
429.17310448866726
 22
125.7042007446289
 32
83.93277706960953
 13
429.17310448866726
 23
125.7042007446289
 33
83.93277706960953
  0
3DFACE
  8
0
1001
WEBCAD
1000
S3D4
 10
404.48424907831986
 20
154.1157989501953
 30
83.80064531300476
 11
398.7377188266988
 21
151.3326416015625
 31
83.76989058080237
 12
394.929118585267
 22
147.91758728027344
 32
83.74950741472433
 13
394.929118585267
 23
147.91758728027344
 33
83.74950741472433
  0
3DFACE
  8
0
1001
WEBCAD
1000
S3D4
 10
404.48424907831986
 20
154.1157989501953
 30
83.80064531300476
 11
393.3717068072408
 21
122.91454315185547
 31
83.74117233597859
 12
396.7270664693089
 22
119.0532455444336
 32
83.75912981350524
 13
396.7270664693089
 23
119.0532455444336
 33
83.75912981350524
  0
3DFACE
  8
0
1001
WEBCAD
1000
S3D4
 10
404.48424907831986
 20
154.1157989501953
 30
83.80064531300476
 11
402.0838012778777
 21
153.21853637695312
 31
83.7877984078227
 12
398.7377188266988
 22
151.3326416015625
 32
83.76989058080237
 13
398.7377188266988
 23
151.3326416015625
 33
83.76989058080237
  0
3DFACE
  8
0
1001
WEBCAD
1000
S3D4
 10
404.48424907831986
 20
154.1157989501953
 30
83.80064531300476
 11
403.27006358605337
 21
153.7045135498047
 31
83.79414713966824
 12
402.0838012778777
 22
153.21853637695312
 32
83.7877984078227
 13
402.0838012778777
 23
153.21853637695312
 33
83.7877984078227
  0
3DFACE
  8
0
1001
WEBCAD
1000
S3D4
 10
404.48424907831986
 20
154.1157989501953
 30
83.80064531300476
 11
396.7270664693089
 21
119.0532455444336
 31
83.75912981350524
 12
408.2469210224219
 22
113.90988159179688
 32
83.8207826764118
 13
408.2469210224219
 23
113.90988159179688
 33
83.8207826764118
  0
3DFACE
  8
0
1001
WEBCAD
1000
S3D4
 10
404.48424907831986
 20
154.1157989501953
 30
83.80064531300476
 11
394.929118585267
 21
147.91758728027344
 31
83.74950741472433
 12
394.1187664209509
 22
146.9242401123047
 32
83.74517050832831
 13
394.1187664209509
 23
146.9242401123047
 33
83.74517050832831
  0
3DFACE
  8
0
1001
WEBCAD
1000
S3D4
 10
404.48424907831986
 20
154.1157989501953
 30
83.80064531300476
 11
408.2469210224219
 21
113.90988159179688
 31
83.8207826764118
 12
413.36174645362627
 22
113.98943328857422
 32
83.84815660111259
 13
413.36174645362627
 23
113.98943328857422
 33
83.84815660111259
  0
3DFACE
  8
0
1001
WEBCAD
1000
S3D4
 10
404.48424907831986
 20
154.1157989501953
 30
83.80064531300476
 11
391.53811490241407
 21
142.5074005126953
 31
83.7313591747261
 12
393.3717068072408
 22
122.91454315185547
 32
83.74117233597859
 13
393.3717068072408
 23
122.91454315185547
 33
83.74117233597859
  0
3DFACE
  8
0
1001
WEBCAD
1000
S3D4
 10
404.48424907831986
 20
154.1157989501953
 30
83.80064531300476
 11
421.7025083515661
 21
117.10714721679688
 31
83.89279534611228
 12
422.7558074760434
 22
117.8379135131836
 32
83.89843247514213
 13
422.7558074760434
 23
117.8379135131836
 33
83.89843247514213
  0
3DFACE
  8
0
1001
WEBCAD
1000
S3D4
 10
404.48424907831986
 20
154.1157989501953
 30
83.80064531300476
 11
394.1187664209509
 21
146.9242401123047
 31
83.74517050832831
 12
391.53811490241407
 22
142.5074005126953
 32
83.7313591747261
 13
391.53811490241407
 23
142.5074005126953
 33
83.7313591747261
  0
3DFACE
  8
0
1001
WEBCAD
1000
S3D4
 10
404.48424907831986
 20
154.1157989501953
 30
83.80064531300476
 11
413.36174645362627
 21
113.98943328857422
 31
83.84815660111259
 12
421.7025083515661
 22
117.10714721679688
 32
83.89279534611228
 13
421.7025083515661
 23
117.10714721679688
 33
83.89279534611228
  0
3DFACE
  8
0
1001
WEBCAD
1000
S3D4
 10
430.4617823223172
 20
129.32252502441406
 30
83.9396739169128
 11
429.67746127934487
 21
126.8827896118164
 31
83.9354763259177
 12
430.10760038290874
 22
128.0904541015625
 32
83.93777837817544
 13
430.10760038290874
 23
128.0904541015625
 33
83.93777837817544
  0
3DFACE
  8
0
1001
WEBCAD
1000
S3D4
 10
406.9774995047952
 20
154.70823669433594
 30
83.81398888657391
 11
405.7216581149505
 21
154.4508056640625
 31
83.80726777593111
 12
404.48424907831986
 22
154.1157989501953
 32
83.80064531300476
 13
404.48424907831986
 23
154.1157989501953
 33
83.80064531300476
  0
3DFACE
  8
0
1001
WEBCAD
1000
S3D4
 10
431.05674450487004
 20
133.11712646484375
 30
83.94285808227761
 11
423.7616219289957
 21
118.63275146484375
 31
83.90381547197525
 12
427.23541861560665
 22
122.38783264160156
 32
83.92240681007743
 13
427.23541861560665
 23
122.38783264160156
 33
83.92240681007743
  0
3DFACE
  8
0
1001
WEBCAD
1000
S3D4
 10
431.05674450487004
 20
133.11712646484375
 30
83.94285808227761
 11
427.23541861560665
 21
122.38783264160156
 31
83.92240681007743
 12
429.67746127934487
 22
126.8827896118164
 32
83.9354763259177
 13
429.67746127934487
 23
126.8827896118164
 33
83.9354763259177
  0
3DFACE
  8
0
1001
WEBCAD
1000
S3D4
 10
431.05674450487004
 20
133.11712646484375
 30
83.94285808227761
 11
429.67746127934487
 21
126.8827896118164
 31
83.9354763259177
 12
430.4617823223172
 22
129.32252502441406
 32
83.9396739169128
 13
430.4617823223172
 23
129.32252502441406
 33
83.9396739169128
  0
3DFACE
  8
0
1001
WEBCAD
1000
S3D4
 10
431.05674450487004
 20
133.11712646484375
 30
83.94285808227761
 11
430.4617823223172
 21
129.32252502441406
 31
83.9396739169128
 12
430.7387253776448
 22
130.57423400878906
 32
83.9411560825204
 13
430.7387253776448
 23
130.57423400878906
 33
83.9411560825204
  0
3DFACE
  8
0
1001
WEBCAD
1000
S3D4
 10
431.05674450487004
 20
133.11712646484375
 30
83.94285808227761
 11
430.7387253776448
 21
130.57423400878906
 31
83.9411560825204
 12
430.9373004146714
 22
131.84072875976562
 32
83.94221883200893
 13
430.9373004146714
 23
131.84072875976562
 33
83.94221883200893
  0
3DFACE
  8
0
1001
WEBCAD
1000
S3D4
 10
409.52500940811603
 20
154.98667907714844
 30
83.8276228502753
 11
406.9774995047952
 21
154.70823669433594
 31
83.81398888657391
 12
404.48424907831986
 22
154.1157989501953
 32
83.80064531300476
 13
404.48424907831986
 23
154.1157989501953
 33
83.80064531300476
  0
3DFACE
  8
0
1001
WEBCAD
1000
S3D4
 10
409.52500940811603
 20
154.98667907714844
 30
83.8276228502753
 11
408.2469210224219
 21
154.88710021972656
 31
83.8207826764118
 12
406.9774995047952
 22
154.70823669433594
 32
83.81398888657391
 13
406.9774995047952
 23
154.70823669433594
 33
83.81398888657391
  0
3DFACE
  8
0
1001
WEBCAD
1000
S3D4
 10
409.52500940811603
 20
154.98667907714844
 30
83.8276228502753
 11
404.48424907831986
 21
154.1157989501953
 31
83.80064531300476
 12
422.7558074760434
 22
117.8379135131836
 32
83.89843247514213
 13
422.7558074760434
 23
117.8379135131836
 33
83.89843247514213
  0
3DFACE
  8
0
1001
WEBCAD
1000
S3D4
 10
409.52500940811603
 20
154.98667907714844
 30
83.8276228502753
 11
422.7558074760434
 21
117.8379135131836
 31
83.89843247514213
 12
423.7616219289957
 22
118.63275146484375
 32
83.90381547197525
 13
423.7616219289957
 23
118.63275146484375
 33
83.90381547197525
  0
3DFACE
  8
0
1001
WEBCAD
1000
S3D4
 10
412.08738115914423
 20
154.94683837890625
 30
83.84133635278121
 11
410.8068208850223
 21
155.00662231445312
 31
83.83448294967096
 12
409.52500940811603
 22
154.98667907714844
 32
83.8276228502753
 13
409.52500940811603
 23
154.98667907714844
 33
83.8276228502753
  0
3DFACE
  8
0
1001
WEBCAD
1000
S3D4
 10
430.9373004146714
 20
136.95623779296875
 30
83.94221883200893
 11
431.05674450487004
 21
133.11712646484375
 31
83.94285808227761
 12
431.0965998911243
 22
134.3984832763672
 32
83.94307138346586
 13
431.0965998911243
 23
134.3984832763672
 33
83.94307138346586
  0
3DFACE
  8
0
1001
WEBCAD
1000
S3D4
 10
430.9373004146714
 20
136.95623779296875
 30
83.94221883200893
 11
431.0965998911243
 21
134.3984832763672
 31
83.94307138346586
 12
431.05674450487004
 22
135.67984008789062
 32
83.94285808227761
 13
431.05674450487004
 23
135.67984008789062
 33
83.94285808227761
  0
3DFACE
  8
0
1001
WEBCAD
1000
S3D4
 10
430.7387253776448
 20
138.22274780273438
 30
83.9411560825204
 11
431.05674450487004
 21
133.11712646484375
 31
83.94285808227761
 12
430.9373004146714
 22
136.95623779296875
 32
83.94221883200893
 13
430.9373004146714
 23
136.95623779296875
 33
83.94221883200893
  0
3DFACE
  8
0
1001
WEBCAD
1000
S3D4
 10
414.62497299161305
 20
154.58929443359375
 30
83.8549172361716
 11
413.36174645362627
 21
154.8075408935547
 31
83.84815660111259
 12
412.08738115914423
 22
154.94683837890625
 32
83.84133635278121
 13
412.08738115914423
 23
154.94683837890625
 33
83.84133635278121
  0
3DFACE
  8
0
1001
WEBCAD
1000
S3D4
 10
414.62497299161305
 20
154.58929443359375
 30
83.8549172361716
 11
409.52500940811603
 21
154.98667907714844
 31
83.8276228502753
 12
423.7616219289957
 22
118.63275146484375
 32
83.90381547197525
 13
423.7616219289957
 23
118.63275146484375
 33
83.90381547197525
  0
3DFACE
  8
0
1001
WEBCAD
1000
S3D4
 10
414.62497299161305
 20
154.58929443359375
 30
83.8549172361716
 11
412.08738115914423
 21
154.94683837890625
 31
83.84133635278121
 12
409.52500940811603
 22
154.98667907714844
 32
83.8276228502753
 13
409.52500940811603
 23
154.98667907714844
 33
83.8276228502753
  0
3DFACE
  8
0
1001
WEBCAD
1000
S3D4
 10
430.4617823223172
 20
139.47445678710938
 30
83.9396739169128
 11
423.7616219289957
 21
118.63275146484375
 31
83.90381547197525
 12
431.05674450487004
 22
133.11712646484375
 32
83.94285808227761
 13
431.05674450487004
 23
133.11712646484375
 33
83.94285808227761
  0
3DFACE
  8
0
1001
WEBCAD
1000
S3D4
 10
430.4617823223172
 20
139.47445678710938
 30
83.9396739169128
 11
431.05674450487004
 21
133.11712646484375
 31
83.94285808227761
 12
430.7387253776448
 22
138.22274780273438
 32
83.9411560825204
 13
430.7387253776448
 23
138.22274780273438
 33
83.9411560825204
  0
3DFACE
  8
0
1001
WEBCAD
1000
S3D4
 10
418.29941988084425
 20
153.4707489013672
 30
83.87458242979663
 11
417.0986008963721
 21
153.9196014404297
 31
83.86815579238694
 12
415.8722085476724
 22
154.29293823242188
 32
83.86159228943684
 13
415.8722085476724
 23
154.29293823242188
 33
83.86159228943684
  0
3DFACE
  8
0
1001
WEBCAD
1000
S3D4
 10
428.5964525907642
 20
144.23773193359375
 30
83.92969089866507
 11
430.4617823223172
 21
139.47445678710938
 31
83.9396739169128
 12
430.10760038290874
 22
140.70652770996094
 32
83.93777837817544
 13
430.10760038290874
 23
140.70652770996094
 33
83.93777837817544
  0
3DFACE
  8
0
1001
WEBCAD
1000
S3D4
 10
428.5964525907642
 20
144.23773193359375
 30
83.92969089866507
 11
430.10760038290874
 21
140.70652770996094
 31
83.93777837817544
 12
429.67746127934487
 22
141.9141845703125
 32
83.9354763259177
 13
429.67746127934487
 23
141.9141845703125
 33
83.9354763259177
  0
3DFACE
  8
0
1001
WEBCAD
1000
S3D4
 10
428.5964525907642
 20
144.23773193359375
 30
83.92969089866507
 11
429.67746127934487
 21
141.9141845703125
 31
83.9354763259177
 12
429.17310448866726
 22
143.0927734375
 32
83.93277706960953
 13
429.17310448866726
 23
143.0927734375
 33
83.93277706960953
  0
3DFACE
  8
0
1001
WEBCAD
1000
S3D4
 10
420.60584436960994
 20
152.35369873046875
 30
83.88692613363028
 11
419.4699963785033
 21
152.94810485839844
 31
83.88084721308874
 12
418.29941988084425
 22
153.4707489013672
 32
83.87458242979663
 13
418.29941988084425
 23
153.4707489013672
 33
83.87458242979663
  0
3DFACE
  8
0
1001
WEBCAD
1000
S3D4
 10
420.60584436960994
 20
152.35369873046875
 30
83.88692613363028
 11
415.8722085476724
 21
154.29293823242188
 31
83.86159228943684
 12
414.62497299161305
 22
154.58929443359375
 32
83.8549172361716
 13
414.62497299161305
 23
154.58929443359375
 33
83.8549172361716
  0
3DFACE
  8
0
1001
WEBCAD
1000
S3D4
 10
420.60584436960994
 20
152.35369873046875
 30
83.88692613363028
 11
418.29941988084425
 21
153.4707489013672
 31
83.87458242979663
 12
415.8722085476724
 22
154.29293823242188
 32
83.86159228943684
 13
415.8722085476724
 23
154.29293823242188
 33
83.86159228943684
  0
3DFACE
  8
0
1001
WEBCAD
1000
S3D4
 10
427.9497333369348
 20
145.3446044921875
 30
83.92622973573879
 11
430.4617823223172
 21
139.47445678710938
 31
83.9396739169128
 12
428.5964525907642
 22
144.23773193359375
 32
83.92969089866507
 13
428.5964525907642
 23
144.23773193359375
 33
83.92969089866507
  0
3DFACE
  8
0
1001
WEBCAD
1000
S3D4
 10
427.23541861560665
 20
146.40914916992188
 30
83.92240681007743
 11
430.4617823223172
 21
139.47445678710938
 31
83.9396739169128
 12
427.9497333369348
 22
145.3446044921875
 32
83.92622973573879
 13
427.9497333369348
 23
145.3446044921875
 33
83.92622973573879
  0
3DFACE
  8
0
1001
WEBCAD
1000
S3D4
 10
423.7616219289957
 20
150.1642303466797
 30
83.90381547197525
 11
422.7558074760434
 21
150.9590606689453
 31
83.89843247514213
 12
421.7025083515661
 22
151.68983459472656
 32
83.89279534611228
 13
421.7025083515661
 23
151.68983459472656
 33
83.89279534611228
  0
3DFACE
  8
0
1001
WEBCAD
1000
S3D4
 10
425.61547721550147
 20
148.39488220214844
 30
83.91373708038624
 11
427.23541861560665
 21
146.40914916992188
 31
83.92240681007743
 12
426.4563465209005
 22
147.42721557617188
 32
83.91823731081615
 13
426.4563465209005
 23
147.42721557617188
 33
83.91823731081615
  0
3DFACE
  8
0
1001
WEBCAD
1000
S3D4
 10
425.61547721550147
 20
148.39488220214844
 30
83.91373708038624
 11
414.62497299161305
 21
154.58929443359375
 31
83.8549172361716
 12
423.7616219289957
 22
118.63275146484375
 32
83.90381547197525
 13
423.7616219289957
 23
118.63275146484375
 33
83.90381547197525
  0
3DFACE
  8
0
1001
WEBCAD
1000
S3D4
 10
425.61547721550147
 20
148.39488220214844
 30
83.91373708038624
 11
423.7616219289957
 21
118.63275146484375
 31
83.90381547197525
 12
430.4617823223172
 22
139.47445678710938
 32
83.9396739169128
 13
430.4617823223172
 23
139.47445678710938
 33
83.9396739169128
  0
3DFACE
  8
0
1001
WEBCAD
1000
S3D4
 10
425.61547721550147
 20
148.39488220214844
 30
83.91373708038624
 11
420.60584436960994
 21
152.35369873046875
 31
83.88692613363028
 12
414.62497299161305
 22
154.58929443359375
 32
83.8549172361716
 13
414.62497299161305
 23
154.58929443359375
 33
83.8549172361716
  0
3DFACE
  8
0
1001
WEBCAD
1000
S3D4
 10
425.61547721550147
 20
148.39488220214844
 30
83.91373708038624
 11
430.4617823223172
 21
139.47445678710938
 31
83.9396739169128
 12
427.23541861560665
 22
146.40914916992188
 32
83.92240681007743
 13
427.23541861560665
 23
146.40914916992188
 33
83.92240681007743
  0
3DFACE
  8
0
1001
WEBCAD
1000
S3D4
 10
424.7160760335054
 20
149.3083953857422
 30
83.90892359445931
 11
421.7025083515661
 21
151.68983459472656
 31
83.89279534611228
 12
420.60584436960994
 22
152.35369873046875
 32
83.88692613363028
 13
420.60584436960994
 23
152.35369873046875
 33
83.88692613363028
  0
3DFACE
  8
0
1001
WEBCAD
1000
S3D4
 10
424.7160760335054
 20
149.3083953857422
 30
83.90892359445931
 11
420.60584436960994
 21
152.35369873046875
 31
83.88692613363028
 12
425.61547721550147
 22
148.39488220214844
 32
83.91373708038624
 13
425.61547721550147
 23
148.39488220214844
 33
83.91373708038624
  0
3DFACE
  8
0
1001
WEBCAD
1000
S3D4
 10
424.7160760335054
 20
149.3083953857422
 30
83.90892359445931
 11
423.7616219289957
 21
150.1642303466797
 31
83.90381547197525
 12
421.7025083515661
 22
151.68983459472656
 32
83.89279534611228
 13
421.7025083515661
 23
151.68983459472656
 33
83.89279534611228
  0
3DFACE
  8
0
1001
WEBCAD
1000
S3D4
 10
394.413115527796
 20
121.87273406982422
 30
28.745958163029222
 11
396.09403017578484
 21
119.93834686279297
 31
28.754954214140135
 12
395.2234676921121
 22
120.87938690185547
 32
28.750295069425242
 13
395.2234676921121
 23
120.87938690185547
 33
28.750295069425242
  0
3DFACE
  8
0
1001
WEBCAD
1000
S3D4
 10
393.66605591408586
 20
122.91454315185547
 30
28.741959990679497
 11
396.09403017578484
 21
119.93834686279297
 31
28.754954214140135
 12
394.413115527796
 22
121.87273406982422
 32
28.745958163029222
 13
394.413115527796
 23
121.87273406982422
 33
28.745958163029222
  0
3DFACE
  8
0
1001
WEBCAD
1000
S3D4
 10
393.66605591408586
 20
122.91454315185547
 30
28.741959990679497
 11
397.02141557615397
 21
119.0532455444336
 31
28.759917468206137
 12
396.09403017578484
 22
119.93834686279297
 32
28.754954214140135
 13
396.09403017578484
 23
119.93834686279297
 33
28.754954214140135
  0
3DFACE
  8
0
1001
WEBCAD
1000
S3D4
 10
400.1075835367296
 20
116.76667785644531
 30
28.7764342644298
 11
399.0320679335439
 21
117.46434020996094
 31
28.770678235503276
 12
398.00202287057175
 22
118.22750854492188
 32
28.765165559387253
 13
398.00202287057175
 23
118.22750854492188
 33
28.765165559387253
  0
3DFACE
  8
0
1001
WEBCAD
1000
S3D4
 10
401.22435831465936
 20
116.13723754882812
 30
28.782411107450148
 11
400.1075835367296
 21
116.76667785644531
 31
28.7764342644298
 12
398.00202287057175
 22
118.22750854492188
 32
28.765165559387253
 13
398.00202287057175
 23
118.22750854492188
 33
28.765165559387253
  0
3DFACE
  8
0
1001
WEBCAD
1000
S3D4
 10
402.37815038472274
 20
115.57844543457031
 30
28.788586062523613
 11
401.22435831465936
 21
116.13723754882812
 31
28.782411107450148
 12
398.00202287057175
 22
118.22750854492188
 32
28.765165559387253
 13
398.00202287057175
 23
118.22750854492188
 33
28.765165559387253
  0
3DFACE
  8
0
1001
WEBCAD
1000
S3D4
 10
391.8324640092591
 20
126.2895736694336
 30
28.73214682942701
 11
392.9852184965257
 21
124.00077819824219
 31
28.73831623148332
 12
392.3732277492486
 22
125.12724304199219
 32
28.735040931307612
 13
392.3732277492486
 23
125.12724304199219
 33
28.735040931307612
  0
3DFACE
  8
0
1001
WEBCAD
1000
S3D4
 10
391.8324640092591
 20
126.2895736694336
 30
28.73214682942701
 11
393.66605591408586
 21
122.91454315185547
 31
28.741959990679497
 12
392.9852184965257
 22
124.00077819824219
 32
28.73831623148332
 13
392.9852184965257
 23
124.00077819824219
 33
28.73831623148332
  0
3DFACE
  8
0
1001
WEBCAD
1000
S3D4
 10
403.56441269289843
 20
115.09246063232422
 30
28.79493479436914
 11
402.37815038472274
 21
115.57844543457031
 31
28.788586062523613
 12
398.00202287057175
 22
118.22750854492188
 32
28.765165559387253
 13
398.00202287057175
 23
118.22750854492188
 33
28.765165559387253
  0
3DFACE
  8
0
1001
WEBCAD
1000
S3D4
 10
403.56441269289843
 20
115.09246063232422
 30
28.79493479436914
 11
398.00202287057175
 21
118.22750854492188
 31
28.765165559387253
 12
397.02141557615397
 22
119.0532455444336
 32
28.759917468206137
 13
397.02141557615397
 23
119.0532455444336
 33
28.759917468206137
  0
3DFACE
  8
0
1001
WEBCAD
1000
S3D4
 10
391.3650024421508
 20
127.4832763671875
 30
28.729645031875823
 11
393.66605591408586
 21
122.91454315185547
 31
28.741959990679497
 12
391.8324640092591
 22
126.2895736694336
 32
28.73214682942701
 13
391.8324640092591
 23
126.2895736694336
 33
28.73214682942701
  0
3DFACE
  8
0
1001
WEBCAD
1000
S3D4
 10
390.4190626200032
 20
131.2059326171875
 30
28.724582476797213
 11
390.97264355924756
 21
128.7037353515625
 31
28.727545174772047
 12
390.6569132176036
 22
129.94622802734375
 32
28.72585542431738
 13
390.6569132176036
 23
129.94622802734375
 33
28.72585542431738
  0
3DFACE
  8
0
1001
WEBCAD
1000
S3D4
 10
390.4190626200032
 20
131.2059326171875
 30
28.724582476797213
 11
391.3650024421508
 21
127.4832763671875
 31
28.729645031875823
 12
390.97264355924756
 22
128.7037353515625
 32
28.727545174772047
 13
390.97264355924756
 23
128.7037353515625
 33
28.727545174772047
  0
3DFACE
  8
0
1001
WEBCAD
1000
S3D4
 10
408.54127012926693
 20
113.90988159179688
 30
28.821570331112703
 11
403.56441269289843
 21
115.09246063232422
 31
28.79493479436914
 12
397.02141557615397
 22
119.0532455444336
 32
28.759917468206137
 13
397.02141557615397
 23
119.0532455444336
 33
28.759917468206137
  0
3DFACE
  8
0
1001
WEBCAD
1000
S3D4
 10
408.54127012926693
 20
113.90988159179688
 30
28.821570331112703
 11
404.7785981851649
 21
114.6811752319336
 31
28.80143296770568
 12
403.56441269289843
 22
115.09246063232422
 32
28.79493479436914
 13
403.56441269289843
 23
115.09246063232422
 33
28.79493479436914
  0
3DFACE
  8
0
1001
WEBCAD
1000
S3D4
 10
408.54127012926693
 20
113.90988159179688
 30
28.821570331112703
 11
406.0160072217956
 21
114.3461685180664
 31
28.80805543063201
 12
404.7785981851649
 22
114.6811752319336
 32
28.80143296770568
 13
404.7785981851649
 23
114.6811752319336
 33
28.80143296770568
  0
3DFACE
  8
0
1001
WEBCAD
1000
S3D4
 10
408.54127012926693
 20
113.90988159179688
 30
28.821570331112703
 11
407.2718486116403
 21
114.08873748779297
 31
28.814776541274814
 12
406.0160072217956
 22
114.3461685180664
 32
28.80805543063201
 13
406.0160072217956
 23
114.3461685180664
 33
28.80805543063201
  0
3DFACE
  8
0
1001
WEBCAD
1000
S3D4
 10
390.2599767635379
 20
132.47801208496094
 30
28.723731068608522
 11
391.3650024421508
 21
127.4832763671875
 31
28.729645031875823
 12
390.4190626200032
 22
131.2059326171875
 32
28.724582476797213
 13
390.4190626200032
 23
131.2059326171875
 33
28.724582476797213
  0
3DFACE
  8
0
1001
WEBCAD
1000
S3D4
 10
411.1011699918674
 20
113.79035186767578
 30
28.835270604371864
 11
409.8193585149611
 21
113.81028747558594
 31
28.828410504976215
 12
408.54127012926693
 22
113.90988159179688
 32
28.821570331112703
 13
408.54127012926693
 23
113.90988159179688
 33
28.821570331112703
  0
3DFACE
  8
0
1001
WEBCAD
1000
S3D4
 10
390.2599767635379
 20
136.3189697265625
 30
28.723731068608522
 11
390.1802659910293
 21
133.75750732421875
 31
28.72330446623199
 12
390.1802659910293
 22
135.0394744873047
 32
28.72330446623199
 13
390.1802659910293
 23
135.0394744873047
 33
28.72330446623199
  0
3DFACE
  8
0
1001
WEBCAD
1000
S3D4
 10
390.2599767635379
 20
136.3189697265625
 30
28.723731068608522
 11
390.2599767635379
 21
132.47801208496094
 31
28.723731068608522
 12
390.1802659910293
 22
133.75750732421875
 32
28.72330446623199
 13
390.1802659910293
 23
133.75750732421875
 33
28.72330446623199
  0
3DFACE
  8
0
1001
WEBCAD
1000
S3D4
 10
413.65609556047133
 20
113.98943328857422
 30
28.8489442558135
 11
411.1011699918674
 21
113.79035186767578
 31
28.835270604371864
 12
408.54127012926693
 22
113.90988159179688
 32
28.821570331112703
 13
408.54127012926693
 23
113.90988159179688
 33
28.821570331112703
  0
3DFACE
  8
0
1001
WEBCAD
1000
S3D4
 10
413.65609556047133
 20
113.98943328857422
 30
28.8489442558135
 11
412.3817302659893
 21
113.85014343261719
 31
28.84212400748212
 12
411.1011699918674
 22
113.79035186767578
 32
28.835270604371864
 13
411.1011699918674
 23
113.79035186767578
 33
28.835270604371864
  0
3DFACE
  8
0
1001
WEBCAD
1000
S3D4
 10
390.6569132176036
 20
138.8507537841797
 30
28.72585542431738
 11
390.2599767635379
 21
136.3189697265625
 31
28.723731068608522
 12
390.4190626200032
 22
137.59103393554688
 32
28.724582476797213
 13
390.4190626200032
 23
137.59103393554688
 33
28.724582476797213
  0
3DFACE
  8
0
1001
WEBCAD
1000
S3D4
 10
390.6569132176036
 20
138.8507537841797
 30
28.72585542431738
 11
390.2599767635379
 21
132.47801208496094
 31
28.723731068608522
 12
390.2599767635379
 22
136.3189697265625
 32
28.723731068608522
 13
390.2599767635379
 23
136.3189697265625
 33
28.723731068608522
  0
3DFACE
  8
0
1001
WEBCAD
1000
S3D4
 10
391.3650024421508
 20
141.31370544433594
 30
28.729645031875823
 11
390.6569132176036
 21
138.8507537841797
 31
28.72585542431738
 12
390.97264355924756
 22
140.09324645996094
 32
28.727545174772047
 13
390.97264355924756
 23
140.09324645996094
 33
28.727545174772047
  0
3DFACE
  8
0
1001
WEBCAD
1000
S3D4
 10
418.5937689876893
 20
115.32623291015625
 30
28.875370084497543
 11
417.39295000321715
 21
114.87737274169922
 31
28.86894344708785
 12
416.1665576545175
 22
114.50404357910156
 32
28.862379944137754
 13
416.1665576545175
 23
114.50404357910156
 33
28.862379944137754
  0
3DFACE
  8
0
1001
WEBCAD
1000
S3D4
 10
391.8324640092591
 20
142.5074005126953
 30
28.73214682942701
 11
393.66605591408586
 21
122.91454315185547
 31
28.741959990679497
 12
391.3650024421508
 22
127.4832763671875
 32
28.729645031875823
 13
391.3650024421508
 23
127.4832763671875
 33
28.729645031875823
  0
3DFACE
  8
0
1001
WEBCAD
1000
S3D4
 10
391.8324640092591
 20
142.5074005126953
 30
28.73214682942701
 11
391.3650024421508
 21
127.4832763671875
 31
28.729645031875823
 12
390.2599767635379
 22
132.47801208496094
 32
28.723731068608522
 13
390.2599767635379
 23
132.47801208496094
 33
28.723731068608522
  0
3DFACE
  8
0
1001
WEBCAD
1000
S3D4
 10
391.8324640092591
 20
142.5074005126953
 30
28.73214682942701
 11
390.2599767635379
 21
132.47801208496094
 31
28.723731068608522
 12
390.6569132176036
 22
138.8507537841797
 32
28.72585542431738
 13
390.6569132176036
 23
138.8507537841797
 33
28.72585542431738
  0
3DFACE
  8
0
1001
WEBCAD
1000
S3D4
 10
391.8324640092591
 20
142.5074005126953
 30
28.73214682942701
 11
390.6569132176036
 21
138.8507537841797
 31
28.72585542431738
 12
391.3650024421508
 22
141.31370544433594
 32
28.729645031875823
 13
391.3650024421508
 23
141.31370544433594
 33
28.729645031875823
  0
3DFACE
  8
0
1001
WEBCAD
1000
S3D4
 10
419.7643454853484
 20
115.84886932373047
 30
28.881634867789646
 11
416.1665576545175
 21
114.50404357910156
 31
28.862379944137754
 12
414.9193220984581
 22
114.20767974853516
 32
28.855704890872506
 13
414.9193220984581
 23
114.20767974853516
 33
28.855704890872506
  0
3DFACE
  8
0
1001
WEBCAD
1000
S3D4
 10
419.7643454853484
 20
115.84886932373047
 30
28.881634867789646
 11
418.5937689876893
 21
115.32623291015625
 31
28.875370084497543
 12
416.1665576545175
 22
114.50404357910156
 32
28.862379944137754
 13
416.1665576545175
 23
114.50404357910156
 33
28.862379944137754
  0
3DFACE
  8
0
1001
WEBCAD
1000
S3D4
 10
420.900193476455
 20
116.44327545166016
 30
28.887713788331183
 11
419.7643454853484
 21
115.84886932373047
 31
28.881634867789646
 12
414.9193220984581
 22
114.20767974853516
 32
28.855704890872506
 13
414.9193220984581
 23
114.20767974853516
 33
28.855704890872506
  0
3DFACE
  8
0
1001
WEBCAD
1000
S3D4
 10
421.99685745841117
 20
117.10714721679688
 30
28.893583000813194
 11
414.9193220984581
 21
114.20767974853516
 31
28.855704890872506
 12
413.65609556047133
 22
113.98943328857422
 32
28.8489442558135
 13
413.65609556047133
 23
113.98943328857422
 33
28.8489442558135
  0
3DFACE
  8
0
1001
WEBCAD
1000
S3D4
 10
421.99685745841117
 20
117.10714721679688
 30
28.893583000813194
 11
420.900193476455
 21
116.44327545166016
 31
28.887713788331183
 12
414.9193220984581
 22
114.20767974853516
 32
28.855704890872506
 13
414.9193220984581
 23
114.20767974853516
 33
28.855704890872506
  0
3DFACE
  8
0
1001
WEBCAD
1000
S3D4
 10
393.66605591408586
 20
145.88243103027344
 30
28.741959990679497
 11
392.3732277492486
 21
143.66973876953125
 31
28.735040931307612
 12
392.9852184965257
 22
144.79620361328125
 32
28.73831623148332
 13
392.9852184965257
 23
144.79620361328125
 33
28.73831623148332
  0
3DFACE
  8
0
1001
WEBCAD
1000
S3D4
 10
393.66605591408586
 20
145.88243103027344
 30
28.741959990679497
 11
391.8324640092591
 21
142.5074005126953
 31
28.73214682942701
 12
392.3732277492486
 22
143.66973876953125
 32
28.735040931307612
 13
392.3732277492486
 23
143.66973876953125
 33
28.735040931307612
  0
3DFACE
  8
0
1001
WEBCAD
1000
S3D4
 10
394.413115527796
 20
146.9242401123047
 30
28.745958163029222
 11
391.8324640092591
 21
142.5074005126953
 31
28.73214682942701
 12
393.66605591408586
 22
145.88243103027344
 32
28.741959990679497
 13
393.66605591408586
 23
145.88243103027344
 33
28.741959990679497
  0
3DFACE
  8
0
1001
WEBCAD
1000
S3D4
 10
397.02141557615397
 20
149.7437286376953
 30
28.759917468206137
 11
395.2234676921121
 21
147.91758728027344
 31
28.750295069425242
 12
396.09403017578484
 22
148.85862731933594
 32
28.754954214140135
 13
396.09403017578484
 23
148.85862731933594
 33
28.754954214140135
  0
3DFACE
  8
0
1001
WEBCAD
1000
S3D4
 10
427.5297677224517
 20
122.38783264160156
 30
28.92319446477834
 11
425.01042514035043
 21
119.48857879638672
 31
28.909711249160225
 12
424.05597103584074
 22
118.63275146484375
 32
28.904603126676157
 13
424.05597103584074
 23
118.63275146484375
 33
28.904603126676157
  0
3DFACE
  8
0
1001
WEBCAD
1000
S3D4
 10
427.5297677224517
 20
122.38783264160156
 30
28.92319446477834
 11
425.90982632234653
 21
120.402099609375
 31
28.91452473508715
 12
425.01042514035043
 22
119.48857879638672
 32
28.909711249160225
 13
425.01042514035043
 23
119.48857879638672
 33
28.909711249160225
  0
3DFACE
  8
0
1001
WEBCAD
1000
S3D4
 10
427.5297677224517
 20
122.38783264160156
 30
28.92319446477834
 11
426.7506956277456
 21
121.36975860595703
 31
28.91902496551706
 12
425.90982632234653
 22
120.402099609375
 32
28.91452473508715
 13
425.90982632234653
 23
120.402099609375
 33
28.91452473508715
  0
3DFACE
  8
0
1001
WEBCAD
1000
S3D4
 10
399.0320679335439
 20
151.3326416015625
 30
28.770678235503276
 11
395.2234676921121
 21
147.91758728027344
 31
28.750295069425242
 12
397.02141557615397
 22
149.7437286376953
 32
28.759917468206137
 13
397.02141557615397
 23
149.7437286376953
 33
28.759917468206137
  0
3DFACE
  8
0
1001
WEBCAD
1000
S3D4
 10
399.0320679335439
 20
151.3326416015625
 30
28.770678235503276
 11
397.02141557615397
 21
149.7437286376953
 31
28.759917468206137
 12
398.00202287057175
 22
150.56947326660156
 32
28.765165559387253
 13
398.00202287057175
 23
150.56947326660156
 33
28.765165559387253
  0
3DFACE
  8
0
1001
WEBCAD
1000
S3D4
 10
428.8908016976093
 20
124.55924987792969
 30
28.930478553365976
 11
428.24408244377986
 21
123.4523696899414
 31
28.927017390439694
 12
427.5297677224517
 22
122.38783264160156
 32
28.92319446477834
 13
427.5297677224517
 23
122.38783264160156
 33
28.92319446477834
  0
3DFACE
  8
0
1001
WEBCAD
1000
S3D4
 10
402.37815038472274
 20
153.21853637695312
 30
28.788586062523613
 11
400.1075835367296
 21
152.03030395507812
 31
28.7764342644298
 12
401.22435831465936
 22
152.6597442626953
 32
28.782411107450148
 13
401.22435831465936
 23
152.6597442626953
 33
28.782411107450148
  0
3DFACE
  8
0
1001
WEBCAD
1000
S3D4
 10
402.37815038472274
 20
153.21853637695312
 30
28.788586062523613
 11
399.0320679335439
 21
151.3326416015625
 31
28.770678235503276
 12
400.1075835367296
 22
152.03030395507812
 32
28.7764342644298
 13
400.1075835367296
 23
152.03030395507812
 33
28.7764342644298
  0
3DFACE
  8
0
1001
WEBCAD
1000
S3D4
 10
429.97181038618993
 20
126.8827896118164
 30
28.9362639806186
 11
428.8908016976093
 21
124.55924987792969
 31
28.930478553365976
 12
427.5297677224517
 22
122.38783264160156
 32
28.92319446477834
 13
427.5297677224517
 23
122.38783264160156
 33
28.92319446477834
  0
3DFACE
  8
0
1001
WEBCAD
1000
S3D4
 10
429.97181038618993
 20
126.8827896118164
 30
28.9362639806186
 11
429.4674535955123
 21
125.7042007446289
 31
28.933564724310436
 12
428.8908016976093
 22
124.55924987792969
 32
28.930478553365976
 13
428.8908016976093
 23
124.55924987792969
 33
28.930478553365976
  0
3DFACE
  8
0
1001
WEBCAD
1000
S3D4
 10
404.7785981851649
 20
154.1157989501953
 30
28.80143296770568
 11
395.2234676921121
 21
147.91758728027344
 31
28.750295069425242
 12
399.0320679335439
 22
151.3326416015625
 32
28.770678235503276
 13
399.0320679335439
 23
151.3326416015625
 33
28.770678235503276
  0
3DFACE
  8
0
1001
WEBCAD
1000
S3D4
 10
404.7785981851649
 20
154.1157989501953
 30
28.80143296770568
 11
397.02141557615397
 21
119.0532455444336
 31
28.759917468206137
 12
393.66605591408586
 22
122.91454315185547
 32
28.741959990679497
 13
393.66605591408586
 23
122.91454315185547
 33
28.741959990679497
  0
3DFACE
  8
0
1001
WEBCAD
1000
S3D4
 10
404.7785981851649
 20
154.1157989501953
 30
28.80143296770568
 11
399.0320679335439
 21
151.3326416015625
 31
28.770678235503276
 12
402.37815038472274
 22
153.21853637695312
 32
28.788586062523613
 13
402.37815038472274
 23
153.21853637695312
 33
28.788586062523613
  0
3DFACE
  8
0
1001
WEBCAD
1000
S3D4
 10
404.7785981851649
 20
154.1157989501953
 30
28.80143296770568
 11
402.37815038472274
 21
153.21853637695312
 31
28.788586062523613
 12
403.56441269289843
 22
153.7045135498047
 32
28.79493479436914
 13
403.56441269289843
 23
153.7045135498047
 33
28.79493479436914
  0
3DFACE
  8
0
1001
WEBCAD
1000
S3D4
 10
404.7785981851649
 20
154.1157989501953
 30
28.80143296770568
 11
408.54127012926693
 21
113.90988159179688
 31
28.821570331112703
 12
397.02141557615397
 22
119.0532455444336
 32
28.759917468206137
 13
397.02141557615397
 23
119.0532455444336
 33
28.759917468206137
  0
3DFACE
  8
0
1001
WEBCAD
1000
S3D4
 10
404.7785981851649
 20
154.1157989501953
 30
28.80143296770568
 11
394.413115527796
 21
146.9242401123047
 31
28.745958163029222
 12
395.2234676921121
 22
147.91758728027344
 32
28.750295069425242
 13
395.2234676921121
 23
147.91758728027344
 33
28.750295069425242
  0
3DFACE
  8
0
1001
WEBCAD
1000
S3D4
 10
404.7785981851649
 20
154.1157989501953
 30
28.80143296770568
 11
413.65609556047133
 21
113.98943328857422
 31
28.8489442558135
 12
408.54127012926693
 22
113.90988159179688
 32
28.821570331112703
 13
408.54127012926693
 23
113.90988159179688
 33
28.821570331112703
  0
3DFACE
  8
0
1001
WEBCAD
1000
S3D4
 10
404.7785981851649
 20
154.1157989501953
 30
28.80143296770568
 11
393.66605591408586
 21
122.91454315185547
 31
28.741959990679497
 12
391.8324640092591
 22
142.5074005126953
 32
28.73214682942701
 13
391.8324640092591
 23
142.5074005126953
 33
28.73214682942701
  0
3DFACE
  8
0
1001
WEBCAD
1000
S3D4
 10
404.7785981851649
 20
154.1157989501953
 30
28.80143296770568
 11
423.05015658288846
 21
117.8379135131836
 31
28.899220129843044
 12
421.99685745841117
 22
117.10714721679688
 32
28.893583000813194
 13
421.99685745841117
 23
117.10714721679688
 33
28.893583000813194
  0
3DFACE
  8
0
1001
WEBCAD
1000
S3D4
 10
404.7785981851649
 20
154.1157989501953
 30
28.80143296770568
 11
391.8324640092591
 21
142.5074005126953
 31
28.73214682942701
 12
394.413115527796
 22
146.9242401123047
 32
28.745958163029222
 13
394.413115527796
 23
146.9242401123047
 33
28.745958163029222
  0
3DFACE
  8
0
1001
WEBCAD
1000
S3D4
 10
404.7785981851649
 20
154.1157989501953
 30
28.80143296770568
 11
421.99685745841117
 21
117.10714721679688
 31
28.893583000813194
 12
413.65609556047133
 22
113.98943328857422
 32
28.8489442558135
 13
413.65609556047133
 23
113.98943328857422
 33
28.8489442558135
  0
3DFACE
  8
0
1001
WEBCAD
1000
S3D4
 10
430.7561314291623
 20
129.32252502441406
 30
28.94046157161371
 11
430.4019494897538
 21
128.0904541015625
 31
28.938566032876338
 12
429.97181038618993
 22
126.8827896118164
 32
28.9362639806186
 13
429.97181038618993
 23
126.8827896118164
 33
28.9362639806186
  0
3DFACE
  8
0
1001
WEBCAD
1000
S3D4
 10
407.2718486116403
 20
154.70823669433594
 30
28.814776541274814
 11
404.7785981851649
 21
154.1157989501953
 31
28.80143296770568
 12
406.0160072217956
 22
154.4508056640625
 32
28.80805543063201
 13
406.0160072217956
 23
154.4508056640625
 33
28.80805543063201
  0
3DFACE
  8
0
1001
WEBCAD
1000
S3D4
 10
431.3510936117151
 20
133.11712646484375
 30
28.943645736978507
 11
427.5297677224517
 21
122.38783264160156
 31
28.92319446477834
 12
424.05597103584074
 22
118.63275146484375
 32
28.904603126676157
 13
424.05597103584074
 23
118.63275146484375
 33
28.904603126676157
  0
3DFACE
  8
0
1001
WEBCAD
1000
S3D4
 10
431.3510936117151
 20
133.11712646484375
 30
28.943645736978507
 11
429.97181038618993
 21
126.8827896118164
 31
28.9362639806186
 12
427.5297677224517
 22
122.38783264160156
 32
28.92319446477834
 13
427.5297677224517
 23
122.38783264160156
 33
28.92319446477834
  0
3DFACE
  8
0
1001
WEBCAD
1000
S3D4
 10
431.3510936117151
 20
133.11712646484375
 30
28.943645736978507
 11
430.7561314291623
 21
129.32252502441406
 31
28.94046157161371
 12
429.97181038618993
 22
126.8827896118164
 32
28.9362639806186
 13
429.97181038618993
 23
126.8827896118164
 33
28.9362639806186
  0
3DFACE
  8
0
1001
WEBCAD
1000
S3D4
 10
431.3510936117151
 20
133.11712646484375
 30
28.943645736978507
 11
431.0330744844899
 21
130.57423400878906
 31
28.9419437372213
 12
430.7561314291623
 22
129.32252502441406
 32
28.94046157161371
 13
430.7561314291623
 23
129.32252502441406
 33
28.94046157161371
  0
3DFACE
  8
0
1001
WEBCAD
1000
S3D4
 10
431.3510936117151
 20
133.11712646484375
 30
28.943645736978507
 11
431.2316495215165
 21
131.84072875976562
 31
28.943006486709848
 12
431.0330744844899
 22
130.57423400878906
 32
28.9419437372213
 13
431.0330744844899
 23
130.57423400878906
 33
28.9419437372213
  0
3DFACE
  8
0
1001
WEBCAD
1000
S3D4
 10
409.8193585149611
 20
154.98667907714844
 30
28.828410504976215
 11
404.7785981851649
 21
154.1157989501953
 31
28.80143296770568
 12
407.2718486116403
 22
154.70823669433594
 32
28.814776541274814
 13
407.2718486116403
 23
154.70823669433594
 33
28.814776541274814
  0
3DFACE
  8
0
1001
WEBCAD
1000
S3D4
 10
409.8193585149611
 20
154.98667907714844
 30
28.828410504976215
 11
407.2718486116403
 21
154.70823669433594
 31
28.814776541274814
 12
408.54127012926693
 22
154.88710021972656
 32
28.821570331112703
 13
408.54127012926693
 23
154.88710021972656
 33
28.821570331112703
  0
3DFACE
  8
0
1001
WEBCAD
1000
S3D4
 10
409.8193585149611
 20
154.98667907714844
 30
28.828410504976215
 11
423.05015658288846
 21
117.8379135131836
 31
28.899220129843044
 12
404.7785981851649
 22
154.1157989501953
 32
28.80143296770568
 13
404.7785981851649
 23
154.1157989501953
 33
28.80143296770568
  0
3DFACE
  8
0
1001
WEBCAD
1000
S3D4
 10
409.8193585149611
 20
154.98667907714844
 30
28.828410504976215
 11
424.05597103584074
 21
118.63275146484375
 31
28.904603126676157
 12
423.05015658288846
 22
117.8379135131836
 32
28.899220129843044
 13
423.05015658288846
 23
117.8379135131836
 33
28.899220129843044
  0
3DFACE
  8
0
1001
WEBCAD
1000
S3D4
 10
412.3817302659893
 20
154.94683837890625
 30
28.84212400748212
 11
409.8193585149611
 21
154.98667907714844
 31
28.828410504976215
 12
411.1011699918674
 22
155.00662231445312
 32
28.835270604371864
 13
411.1011699918674
 23
155.00662231445312
 33
28.835270604371864
  0
3DFACE
  8
0
1001
WEBCAD
1000
S3D4
 10
431.2316495215165
 20
136.95623779296875
 30
28.943006486709848
 11
431.39094899796936
 21
134.3984832763672
 31
28.943859038166774
 12
431.3510936117151
 22
133.11712646484375
 32
28.943645736978507
 13
431.3510936117151
 23
133.11712646484375
 33
28.943645736978507
  0
3DFACE
  8
0
1001
WEBCAD
1000
S3D4
 10
431.2316495215165
 20
136.95623779296875
 30
28.943006486709848
 11
431.3510936117151
 21
135.67984008789062
 31
28.943645736978507
 12
431.39094899796936
 22
134.3984832763672
 32
28.943859038166774
 13
431.39094899796936
 23
134.3984832763672
 33
28.943859038166774
  0
3DFACE
  8
0
1001
WEBCAD
1000
S3D4
 10
431.0330744844899
 20
138.22274780273438
 30
28.9419437372213
 11
431.2316495215165
 21
136.95623779296875
 31
28.943006486709848
 12
431.3510936117151
 22
133.11712646484375
 32
28.943645736978507
 13
431.3510936117151
 23
133.11712646484375
 33
28.943645736978507
  0
3DFACE
  8
0
1001
WEBCAD
1000
S3D4
 10
414.9193220984581
 20
154.58929443359375
 30
28.855704890872506
 11
412.3817302659893
 21
154.94683837890625
 31
28.84212400748212
 12
413.65609556047133
 22
154.8075408935547
 32
28.8489442558135
 13
413.65609556047133
 23
154.8075408935547
 33
28.8489442558135
  0
3DFACE
  8
0
1001
WEBCAD
1000
S3D4
 10
414.9193220984581
 20
154.58929443359375
 30
28.855704890872506
 11
424.05597103584074
 21
118.63275146484375
 31
28.904603126676157
 12
409.8193585149611
 22
154.98667907714844
 32
28.828410504976215
 13
409.8193585149611
 23
154.98667907714844
 33
28.828410504976215
  0
3DFACE
  8
0
1001
WEBCAD
1000
S3D4
 10
414.9193220984581
 20
154.58929443359375
 30
28.855704890872506
 11
409.8193585149611
 21
154.98667907714844
 31
28.828410504976215
 12
412.3817302659893
 22
154.94683837890625
 32
28.84212400748212
 13
412.3817302659893
 23
154.94683837890625
 33
28.84212400748212
  0
3DFACE
  8
0
1001
WEBCAD
1000
S3D4
 10
430.7561314291623
 20
139.47445678710938
 30
28.94046157161371
 11
431.3510936117151
 21
133.11712646484375
 31
28.943645736978507
 12
424.05597103584074
 22
118.63275146484375
 32
28.904603126676157
 13
424.05597103584074
 23
118.63275146484375
 33
28.904603126676157
  0
3DFACE
  8
0
1001
WEBCAD
1000
S3D4
 10
430.7561314291623
 20
139.47445678710938
 30
28.94046157161371
 11
431.0330744844899
 21
138.22274780273438
 31
28.9419437372213
 12
431.3510936117151
 22
133.11712646484375
 32
28.943645736978507
 13
431.3510936117151
 23
133.11712646484375
 33
28.943645736978507
  0
3DFACE
  8
0
1001
WEBCAD
1000
S3D4
 10
418.5937689876893
 20
153.4707489013672
 30
28.875370084497543
 11
416.1665576545175
 21
154.29293823242188
 31
28.862379944137754
 12
417.39295000321715
 22
153.9196014404297
 32
28.86894344708785
 13
417.39295000321715
 23
153.9196014404297
 33
28.86894344708785
  0
3DFACE
  8
0
1001
WEBCAD
1000
S3D4
 10
428.8908016976093
 20
144.23773193359375
 30
28.930478553365976
 11
430.4019494897538
 21
140.70652770996094
 31
28.938566032876338
 12
430.7561314291623
 22
139.47445678710938
 32
28.94046157161371
 13
430.7561314291623
 23
139.47445678710938
 33
28.94046157161371
  0
3DFACE
  8
0
1001
WEBCAD
1000
S3D4
 10
428.8908016976093
 20
144.23773193359375
 30
28.930478553365976
 11
429.97181038618993
 21
141.9141845703125
 31
28.9362639806186
 12
430.4019494897538
 22
140.70652770996094
 32
28.938566032876338
 13
430.4019494897538
 23
140.70652770996094
 33
28.938566032876338
  0
3DFACE
  8
0
1001
WEBCAD
1000
S3D4
 10
428.8908016976093
 20
144.23773193359375
 30
28.930478553365976
 11
429.4674535955123
 21
143.0927734375
 31
28.933564724310436
 12
429.97181038618993
 22
141.9141845703125
 32
28.9362639806186
 13
429.97181038618993
 23
141.9141845703125
 33
28.9362639806186
  0
3DFACE
  8
0
1001
WEBCAD
1000
S3D4
 10
420.900193476455
 20
152.35369873046875
 30
28.887713788331183
 11
418.5937689876893
 21
153.4707489013672
 31
28.875370084497543
 12
419.7643454853484
 22
152.94810485839844
 32
28.881634867789646
 13
419.7643454853484
 23
152.94810485839844
 33
28.881634867789646
  0
3DFACE
  8
0
1001
WEBCAD
1000
S3D4
 10
420.900193476455
 20
152.35369873046875
 30
28.887713788331183
 11
414.9193220984581
 21
154.58929443359375
 31
28.855704890872506
 12
416.1665576545175
 22
154.29293823242188
 32
28.862379944137754
 13
416.1665576545175
 23
154.29293823242188
 33
28.862379944137754
  0
3DFACE
  8
0
1001
WEBCAD
1000
S3D4
 10
420.900193476455
 20
152.35369873046875
 30
28.887713788331183
 11
416.1665576545175
 21
154.29293823242188
 31
28.862379944137754
 12
418.5937689876893
 22
153.4707489013672
 32
28.875370084497543
 13
418.5937689876893
 23
153.4707489013672
 33
28.875370084497543
  0
3DFACE
  8
0
1001
WEBCAD
1000
S3D4
 10
428.24408244377986
 20
145.3446044921875
 30
28.927017390439694
 11
428.8908016976093
 21
144.23773193359375
 31
28.930478553365976
 12
430.7561314291623
 22
139.47445678710938
 32
28.94046157161371
 13
430.7561314291623
 23
139.47445678710938
 33
28.94046157161371
  0
3DFACE
  8
0
1001
WEBCAD
1000
S3D4
 10
427.5297677224517
 20
146.40914916992188
 30
28.92319446477834
 11
428.24408244377986
 21
145.3446044921875
 31
28.927017390439694
 12
430.7561314291623
 22
139.47445678710938
 32
28.94046157161371
 13
430.7561314291623
 23
139.47445678710938
 33
28.94046157161371
  0
3DFACE
  8
0
1001
WEBCAD
1000
S3D4
 10
424.05597103584074
 20
150.1642303466797
 30
28.904603126676157
 11
421.99685745841117
 21
151.68983459472656
 31
28.893583000813194
 12
423.05015658288846
 22
150.9590606689453
 32
28.899220129843044
 13
423.05015658288846
 23
150.9590606689453
 33
28.899220129843044
  0
3DFACE
  8
0
1001
WEBCAD
1000
S3D4
 10
425.90982632234653
 20
148.39488220214844
 30
28.91452473508715
 11
426.7506956277456
 21
147.42721557617188
 31
28.91902496551706
 12
427.5297677224517
 22
146.40914916992188
 32
28.92319446477834
 13
427.5297677224517
 23
146.40914916992188
 33
28.92319446477834
  0
3DFACE
  8
0
1001
WEBCAD
1000
S3D4
 10
425.90982632234653
 20
148.39488220214844
 30
28.91452473508715
 11
424.05597103584074
 21
118.63275146484375
 31
28.904603126676157
 12
414.9193220984581
 22
154.58929443359375
 32
28.855704890872506
 13
414.9193220984581
 23
154.58929443359375
 33
28.855704890872506
  0
3DFACE
  8
0
1001
WEBCAD
1000
S3D4
 10
425.90982632234653
 20
148.39488220214844
 30
28.91452473508715
 11
430.7561314291623
 21
139.47445678710938
 31
28.94046157161371
 12
424.05597103584074
 22
118.63275146484375
 32
28.904603126676157
 13
424.05597103584074
 23
118.63275146484375
 33
28.904603126676157
  0
3DFACE
  8
0
1001
WEBCAD
1000
S3D4
 10
425.90982632234653
 20
148.39488220214844
 30
28.91452473508715
 11
414.9193220984581
 21
154.58929443359375
 31
28.855704890872506
 12
420.900193476455
 22
152.35369873046875
 32
28.887713788331183
 13
420.900193476455
 23
152.35369873046875
 33
28.887713788331183
  0
3DFACE
  8
0
1001
WEBCAD
1000
S3D4
 10
425.90982632234653
 20
148.39488220214844
 30
28.91452473508715
 11
427.5297677224517
 21
146.40914916992188
 31
28.92319446477834
 12
430.7561314291623
 22
139.47445678710938
 32
28.94046157161371
 13
430.7561314291623
 23
139.47445678710938
 33
28.94046157161371
  0
3DFACE
  8
0
1001
WEBCAD
1000
S3D4
 10
425.01042514035043
 20
149.3083953857422
 30
28.909711249160225
 11
420.900193476455
 21
152.35369873046875
 31
28.887713788331183
 12
421.99685745841117
 22
151.68983459472656
 32
28.893583000813194
 13
421.99685745841117
 23
151.68983459472656
 33
28.893583000813194
  0
3DFACE
  8
0
1001
WEBCAD
1000
S3D4
 10
425.01042514035043
 20
149.3083953857422
 30
28.909711249160225
 11
425.90982632234653
 21
148.39488220214844
 31
28.91452473508715
 12
420.900193476455
 22
152.35369873046875
 32
28.887713788331183
 13
420.900193476455
 23
152.35369873046875
 33
28.887713788331183
  0
3DFACE
  8
0
1001
WEBCAD
1000
S3D4
 10
425.01042514035043
 20
149.3083953857422
 30
28.909711249160225
 11
421.99685745841117
 21
151.68983459472656
 31
28.893583000813194
 12
424.05597103584074
 22
150.1642303466797
 32
28.904603126676157
 13
424.05597103584074
 23
150.1642303466797
 33
28.904603126676157
  0
POLYLINE
  8
0
 66
1
 70
0
  0
VERTEX
  8
0
 10
268
 20
76
 30
0.0
  0
VERTEX
  8
0
 10
268
 20
91
 30
0.0
  0
VERTEX
  8
0
 10
271
 20
91
 30
0.0
  0
VERTEX
  8
0
 10
274
 20
89
 30
0.0
  0
VERTEX
  8
0
 10
274
 20
91
 30
0.0
  0
VERTEX
  8
0
 10
277
 20
89
 30
0.0
  0
VERTEX
  8
0
 10
277
 20
91
 30
0.0
  0
VERTEX
  8
0
 10
280
 20
89
 30
0.0
  0
VERTEX
  8
0
 10
280
 20
91
 30
0.0
  0
VERTEX
  8
0
 10
283
 20
89
 30
0.0
  0
VERTEX
  8
0
 10
283
 20
91
 30
0.0
  0
VERTEX
  8
0
 10
286
 20
89
 30
0.0
  0
VERTEX
  8
0
 10
286
 20
91
 30
0.0
  0
VERTEX
  8
0
 10
289
 20
89
 30
0.0
  0
VERTEX
  8
0
 10
289
 20
91
 30
0.0
  0
VERTEX
  8
0
 10
292
 20
89
 30
0.0
  0
VERTEX
  8
0
 10
292
 20
91
 30
0.0
  0
VERTEX
  8
0
 10
295
 20
89
 30
0.0
  0
VERTEX
  8
0
 10
295
 20
91
 30
0.0
  0
VERTEX
  8
0
 10
297
 20
89
 30
0.0
  0
VERTEX
  8
0
 10
297
 20
91
 30
0.0
  0
VERTEX
  8
0
 10
299
 20
89
 30
0.0
  0
VERTEX
  8
0
 10
299
 20
91
 30
0.0
  0
VERTEX
  8
0
 10
301
 20
89
 30
0.0
  0
VERTEX
  8
0
 10
301
 20
91
 30
0.0
  0
VERTEX
  8
0
 10
303
 20
89
 30
0.0
  0
VERTEX
  8
0
 10
303
 20
91
 30
0.0
  0
VERTEX
  8
0
 10
305
 20
89
 30
0.0
  0
VERTEX
  8
0
 10
305
 20
91
 30
0.0
  0
VERTEX
  8
0
 10
307
 20
89
 30
0.0
  0
VERTEX
  8
0
 10
307
 20
91
 30
0.0
  0
VERTEX
  8
0
 10
309
 20
89
 30
0.0
  0
VERTEX
  8
0
 10
309
 20
91
 30
0.0
  0
VERTEX
  8
0
 10
311
 20
89
 30
0.0
  0
VERTEX
  8
0
 10
311
 20
91
 30
0.0
  0
VERTEX
  8
0
 10
313
 20
89
 30
0.0
  0
VERTEX
  8
0
 10
313
 20
91
 30
0.0
  0
VERTEX
  8
0
 10
315
 20
89
 30
0.0
  0
VERTEX
  8
0
 10
315
 20
91
 30
0.0
  0
VERTEX
  8
0
 10
317
 20
89
 30
0.0
  0
VERTEX
  8
0
 10
317
 20
91
 30
0.0
  0
VERTEX
  8
0
 10
319
 20
89
 30
0.0
  0
VERTEX
  8
0
 10
319
 20
91
 30
0.0
  0
VERTEX
  8
0
 10
321
 20
89
 30
0.0
  0
VERTEX
  8
0
 10
321
 20
91
 30
0.0
  0
VERTEX
  8
0
 10
323
 20
89
 30
0.0
  0
VERTEX
  8
0
 10
323
 20
91
 30
0.0
  0
VERTEX
  8
0
 10
325
 20
89
 30
0.0
  0
VERTEX
  8
0
 10
325
 20
91
 30
0.0
  0
VERTEX
  8
0
 10
327
 20
89
 30
0.0
  0
VERTEX
  8
0
 10
327
 20
91
 30
0.0
  0
VERTEX
  8
0
 10
329
 20
89
 30
0.0
  0
VERTEX
  8
0
 10
329
 20
91
 30
0.0
  0
VERTEX
  8
0
 10
331
 20
89
 30
0.0
  0
VERTEX
  8
0
 10
331
 20
91
 30
0.0
  0
VERTEX
  8
0
 10
333
 20
89
 30
0.0
  0
VERTEX
  8
0
 10
333
 20
91
 30
0.0
  0
VERTEX
  8
0
 10
335
 20
89
 30
0.0
  0
VERTEX
  8
0
 10
335
 20
91
 30
0.0
  0
VERTEX
  8
0
 10
337
 20
89
 30
0.0
  0
VERTEX
  8
0
 10
337
 20
91
 30
0.0
  0
VERTEX
  8
0
 10
339
 20
89
 30
0.0
  0
VERTEX
  8
0
 10
339
 20
91
 30
0.0
  0
VERTEX
  8
0
 10
341
 20
89
 30
0.0
  0
VERTEX
  8
0
 10
341
 20
91
 30
0.0
  0
VERTEX
  8
0
 10
343
 20
89
 30
0.0
  0
VERTEX
  8
0
 10
343
 20
91
 30
0.0
  0
VERTEX
  8
0
 10
345
 20
89
 30
0.0
  0
VERTEX
  8
0
 10
345
 20
91
 30
0.0
  0
VERTEX
  8
0
 10
347
 20
89
 30
0.0
  0
VERTEX
  8
0
 10
347
 20
91
 30
0.0
  0
VERTEX
  8
0
 10
349
 20
89
 30
0.0
  0
VERTEX
  8
0
 10
349
 20
91
 30
0.0
  0
VERTEX
  8
0
 10
351
 20
89
 30
0.0
  0
VERTEX
  8
0
 10
351
 20
76
 30
0.0
  0
SEQEND
  0
ENDSEC
  0
EOF
