  0
SECTION
  2
HEADER
  9
$ACADVER
  1
AC1015
  0
ENDSEC
  0
SECTION
  2
TABLES
  0
TABLE
  2
LTYPE
 70
1
  0
LTYPE
  2
CONTINUOUS
 70
0
  3
Solid line
 72
65
 73
0
 40
0.0
  0
ENDTAB
  0
TABLE
  2
LAYER
 70
4
  0
LAYER
  2
0
 70
0
 62
7
  6
CONTINUOUS
  0
LAYER
  2
1
 70
0
 62
7
  6
CONTINUOUS
  0
LAYER
  2
2
 70
0
 62
4
  6
CONTINUOUS
  0
LAYER
  2
01
 70
0
 62
7
  6
CENTER
  0
ENDTAB
  0
ENDSEC
  0
SECTION
  2
BLOCKS
  0
ENDSEC
  0
SECTION
  2
ENTITIES
  0
POLYLINE
  8
0
 66
1
 70
1
  0
VERTEX
  8
0
 10
323.0922630802219
 20
302.5258363980604
 30
0.0
  0
VERTEX
  8
0
 10
300.5922630802219
 20
341.49697956836013
 30
0.0
  0
VERTEX
  8
0
 10
255.59226308022193
 20
341.49697956836013
 30
0.0
  0
VERTEX
  8
0
 10
233.09226308022193
 20
302.5258363980604
 30
0.0
  0
VERTEX
  8
0
 10
255.5922630802219
 20
263.55469322776065
 30
0.0
  0
VERTEX
  8
0
 10
300.5922630802219
 20
263.55469322776065
 30
0.0
  0
SEQEND
  0
LINE
  8
0
 10
382.0922630802219
 20
342.5258363980604
 30
0.0
 11
393.0922630802219
 21
342.5258363980604
 31
0.0
  0
LINE
  8
0
 10
393.0922630802219
 20
342.5258363980604
 30
0.0
 11
393.0922630802219
 21
262.5258363980604
 31
0.0
  0
LINE
  8
0
 10
393.0922630802219
 20
262.5258363980604
 30
0.0
 11
382.0922630802219
 21
262.5258363980604
 31
0.0
  0
LINE
  8
0
 10
365.0922630801797
 20
302.5258363980604
 30
0.0
 11
393.0922630802219
 21
302.5258363980604
 31
0.0
  0
LINE
  8
0
 10
393.0922630802219
 20
322.5258363980604
 30
0.0
 11
448.0922630802219
 21
322.5258363980604
 31
0.0
  0
LINE
  8
0
 10
448.0922630802219
 20
322.5258363980604
 30
0.0
 11
448.0922630802219
 21
282.5258363980604
 31
0.0
  0
LINE
  8
0
 10
448.0922630802219
 20
282.5258363980604
 30
0.0
 11
393.0922630802219
 21
282.5258363980604
 31
0.0
  0
LINE
  8
0
 10
448.0922630802219
 20
317.5258363980604
 30
0.0
 11
528.092263080222
 21
317.5258363980604
 31
0.0
  0
LINE
  8
0
 10
528.092263080222
 20
317.5258363980604
 30
0.0
 11
528.092263080222
 21
287.5258363980604
 31
0.0
  0
LINE
  8
0
 10
528.092263080222
 20
287.5258363980604
 30
0.0
 11
448.0922630802219
 21
287.5258363980604
 31
0.0
  0
LINE
  8
0
 10
448.0922630802219
 20
287.5258363980604
 30
0.0
 11
448.0922630802219
 21
317.5258363980604
 31
0.0
  0
POLYLINE
  8
0
 66
1
 70
1
  0
VERTEX
  8
0
 10
448.0922630802219
 20
317.5258363980604
 30
0.0
  0
VERTEX
  8
0
 10
528.092263080222
 20
317.5258363980604
 30
0.0
  0
VERTEX
  8
0
 10
528.092263080222
 20
287.5258363980604
 30
0.0
  0
VERTEX
  8
0
 10
448.0922630802219
 20
287.5258363980604
 30
0.0
  0
VERTEX
  8
0
 10
448.0922630802219
 20
302.5258363980604
 30
0.0
  0
SEQEND
  0
CIRCLE
  8
0
 10
278.0922630802219
 20
302.5258363980604
 30
0.0
 40
38.97114317029974
  0
TEXT
  8
0
 10
540.6392110199776
 20
442.1455885868628
 30
0.0
 40
25.495097567963924
  1
BOLT
 50
0
  0
HATCH
  8
0
  2
ANSI31
 70
0
 71
0
 41
1.5
 52
0
 91
1
 92
0
 93
0
 73
1
 75
0
 76
0
 98
0
  0
HATCH
  8
0
  2
ANSI31
 70
0
 71
0
 41
1
 52
0
 91
1
 92
0
 93
6
 10
448.0922630802219
 20
317.5258363980604
 10
528.092263080222
 20
317.5258363980604
 10
528.092263080222
 20
287.67583639806037
 10
448.0922630802219
 20
287.5258363980604
 10
448.0922630802219
 20
302.5258363980604
 10
448.0922630802219
 20
317.5258363980604
 73
1
 75
0
 76
0
 98
0
  0
HATCH
  8
0
  2
ANSI31
 70
0
 71
0
 41
1.5
 52
0
 91
1
 92
0
 93
0
 73
1
 75
0
 76
0
 98
0
  0
HATCH
  8
0
  2
ANSI31
 70
0
 71
0
 41
1.5
 52
0
 91
1
 92
0
 93
0
 73
1
 75
0
 76
0
 98
0
  0
LINE
  8
0
 10
542.3005268621029
 20
499.5482988281719
 30
0.0
 11
517.3022964572633
 21
499.8457490367018
 31
0.0
  0
LINE
  8
0
 10
517.3022964572633
 20
499.8457490367018
 30
0.0
 11
518.2541371245591
 21
579.8400863321884
 31
0.0
  0
LINE
  8
0
 10
518.2541371245591
 20
579.8400863321884
 30
0.0
 11
543.2523675293985
 21
579.5426361236584
 31
0.0
  0
LINE
  8
0
 10
543.2523675293985
 20
579.5426361236584
 30
0.0
 11
542.3005268621029
 21
499.5482988281719
 31
0.0
  0
LINE
  8
0
 10
462.6036397751461
 20
525.4983699003071
 30
0.0
 11
382.60930247965956
 21
526.4502105676029
 31
0.0
  0
LINE
  8
0
 10
382.60930247965956
 20
526.4502105676029
 30
0.0
 11
382.96624272989544
 21
556.4480870534104
 31
0.0
  0
LINE
  8
0
 10
382.96624272989544
 20
556.4480870534104
 30
0.0
 11
462.960580025382
 21
555.4962463861148
 31
0.0
  0
LINE
  8
0
 10
462.960580025382
 20
555.4962463861148
 30
0.0
 11
462.6036397751461
 21
525.4983699003071
 31
0.0
  0
POLYLINE
  8
0
 66
1
 70
1
  0
VERTEX
  8
0
 10
462.6036397751461
 20
525.4983699003071
 30
0.0
  0
VERTEX
  8
0
 10
382.60930247965956
 20
526.4502105676029
 30
0.0
  0
VERTEX
  8
0
 10
382.96624272989544
 20
556.4480870534104
 30
0.0
  0
VERTEX
  8
0
 10
462.960580025382
 20
555.4962463861148
 30
0.0
  0
VERTEX
  8
0
 10
462.78210990026406
 20
540.497308143211
 30
0.0
  0
SEQEND
  0
HATCH
  8
0
  2
ANSI31
 70
0
 71
0
 41
1.5
 52
90
 91
1
 92
0
 93
1
 10
382.96624272989544
 20
556.4480870534104
 73
1
 75
0
 76
0
 98
0
  0
HATCH
  8
0
  2
ANSI31
 70
0
 71
0
 41
1.5
 52
0
 91
1
 92
0
 93
0
 73
1
 75
0
 76
0
 98
0
  0
HATCH
  8
0
  2
ANSI31
 70
0
 71
0
 41
1.5
 52
0
 91
1
 92
0
 93
0
 73
1
 75
0
 76
0
 98
0
  0
HATCH
  8
0
  2
ANSI31
 70
0
 71
0
 41
1.5
 52
0
 91
1
 92
0
 93
0
 73
1
 75
0
 76
0
 98
0
  0
HATCH
  8
0
  2
ANSI31
 70
0
 71
0
 41
1
 52
0
 91
1
 92
0
 93
5
 10
382.96624272989544
 20
556.4480870534104
 10
462.960580025382
 20
555.4962463861148
 10
462.6036397751461
 20
525.4983699003071
 10
382.60930247965956
 20
526.4502105676029
 10
382.7877726047775
 20
541.4491488105067
 73
1
 75
0
 76
0
 98
0
  0
LINE
  8
0
 10
365.0922630802219
 20
325.5258363980604
 30
0.0
 11
365.0922630802219
 21
279.5258363980604
 31
0.0
  0
ARC
  8
0
 10
382.0922630802219
 20
325.5258363980604
 30
0.0
 40
17
 50
90
 51
180
  0
ARC
  8
0
 10
382.0922630802219
 20
279.5258363980604
 30
0.0
 40
17
 50
180
 51
270
  0
NOTE
  8
0
 10
365.70567501593024
 20
331.9389444546551
 30
0.0
 11
354.2415123146538
 21
340.5742900746454
 31
0.0
  1
Fillet
 40
2.5
  2
A1
  0
LINE
  8
0
 10
464.0289234306395
 20
562.0104764003597
 30
0.0
 11
518.0402760166232
 21
561.8668286322352
 31
0.0
  0
ARC
  8
0
 10
464.02626385532415
 20
561.0104799370365
 30
0.0
 40
1
 50
89.84761737948818
 51
179.31827825240657
  0
LINE
  8
0
 10
462.5560477417813
 20
521.4986530355328
 30
0.0
 11
463.02633463913054
 21
561.0223779453777
 31
0.0
  0
LINE
  8
0
 10
517.5402566240872
 20
519.8443333605735
 30
0.0
 11
463.5440789496337
 21
520.4868258109981
 31
0.0
  0
ARC
  8
0
 10
463.5559769579749
 20
521.4867550271916
 30
0.0
 40
1
 50
179.3182782524082
 51
269.31827825240816
  0
LINE
  8
0
 10
517.7782167909111
 20
539.8429176844452
 30
0.0
 11
542.7764471957507
 21
539.5454674759152
 31
0.0
  0
HATCH
  8
0
  2
ANSI31
 70
0
 71
0
 41
1
 52
0
 91
1
 92
0
 93
5
 10
463.32432274430494
 20
561.7227149240043
 10
518.0402760166232
 20
561.8668286322352
 10
517.7046526491147
 20
557.80864282677
 10
491.51551863384196
 20
557.2768843911583
 10
462.80053775456827
 20
557.80864282677
 73
1
 75
0
 76
0
 98
0
  0
LINE
  8
0
 10
239.32204976658448
 20
409.5809216472243
 30
0.0
 11
319.32204976658454
 21
409.5809216472243
 31
0.0
  0
HATCH
  8
0
  2
ANSI31
 70
0
 71
0
 41
1.5
 52
0
 91
1
 92
0
 93
0
 73
1
 75
0
 76
0
 98
0
  0
HATCH
  8
0
  2
ANSI31
 70
0
 71
0
 41
1.5
 52
0
 91
1
 92
0
 93
0
 73
1
 75
0
 76
0
 98
0
  0
HATCH
  8
0
  2
ANSI31
 70
0
 71
0
 41
1.5
 52
0
 91
1
 92
0
 93
0
 73
1
 75
0
 76
0
 98
0
  0
HATCH
  8
0
  2
ANSI31
 70
0
 71
0
 41
1.5
 52
0
 91
1
 92
0
 93
0
 73
1
 75
0
 76
0
 98
0
  0
HATCH
  8
0
  2
ANSI31
 70
0
 71
0
 41
1.5
 52
0
 91
1
 92
0
 93
0
 73
1
 75
0
 76
0
 98
0
  0
HATCH
  8
0
  2
ANSI31
 70
0
 71
0
 41
1.5
 52
0
 91
1
 92
0
 93
0
 73
1
 75
0
 76
0
 98
0
  0
LINE
  8
0
 10
256.32204976658454
 20
381.5809216472243
 30
0.0
 11
302.32204976658454
 21
381.5809216472243
 31
0.0
  0
ARC
  8
0
 10
256.3220497665845
 20
398.5809216472243
 30
0.0
 40
17
 50
180
 51
270
  0
ARC
  8
0
 10
302.32204976658454
 20
398.5809216472243
 30
0.0
 40
17
 50
270
 51
0
  0
LINE
  8
0
 10
239.32204976658448
 20
398.5809216472243
 30
0.0
 11
239.32204976658448
 21
409.5809216472243
 31
0.0
  0
LINE
  8
0
 10
319.32204976658454
 20
409.5809216472243
 30
0.0
 11
319.32204976658454
 21
398.5809216472243
 31
0.0
  0
LINE
  8
0
 10
299.32204976658454
 20
464.5809216472243
 30
0.0
 11
299.32204976658454
 21
409.5809216472243
 31
0.0
  0
LINE
  8
0
 10
259.3220497665845
 20
464.5809216472243
 30
0.0
 11
259.51860154941187
 21
409.25827629959406
 31
0.0
  0
LINE
  8
0
 10
255.7762570765201
 20
409.5346934761309
 30
0.0
 11
256.3220497665845
 21
381.5809216472243
 31
0.0
  0
LINE
  8
0
 10
300.73857057411936
 20
381.3862870509085
 30
0.0
 11
300.8703191715824
 21
409.5809216472243
 31
0.0
  0
SPLINE
  8
0
 71
3
 72
12
 73
8
 40
0
 40
0
 40
0
 40
0
 40
1
 40
2
 40
3
 40
4
 40
5
 40
5
 40
5
 40
5
 10
259.3220497665845
 20
464.5809216472243
 30
0.0
 10
268.4541633279622
 20
470.0573313768151
 30
0.0
 10
271.28350952116006
 20
458.73994660402354
 30
0.0
 10
278.7105449647279
 20
466.520645262471
 30
0.0
 10
285.43025397853637
 20
457.67892997661085
 30
0.0
 10
290.73528315005245
 20
468.9963349864827
 30
0.0
 10
293.21096612837067
 20
460.5082896611956
 30
0.0
 10
299.32204976658454
 20
464.5809216472243
 30
0.0
  0
POLYLINE
  8
0
 66
1
 70
1
  0
VERTEX
  8
0
 10
518.092263080222
 20
432.5258363980604
 30
0.0
  0
VERTEX
  8
0
 10
493.90785788334506
 20
465.8128144683908
 30
0.0
  0
VERTEX
  8
0
 10
454.7766682770988
 20
453.098320228297
 30
0.0
  0
VERTEX
  8
0
 10
454.7766682770988
 20
411.9533525678238
 30
0.0
  0
VERTEX
  8
0
 10
493.90785788334506
 20
399.23885832773
 30
0.0
  0
SEQEND
  0
DIMENSION
  8
0
 70
3
 10
-74.11070823031241
 20
11.2790915883212
 30
0.0
 13
278.0922630802219
 23
302.5258363980604
 33
0.0
 14
309.8708466195971
 24
325.0840195747028
 34
0.0
 40
2.5
  1
38.97
  0
MTEXT
  8
0
 10
582.6824290650297
 20
366.25709553145197
 30
0.0
 40
5.126386436194806
 41
63.85657055655065
  1
A bolt is a threaded fastener used to join two or more components together, typically secured with a matching nut.
 50
0
 71
1
  0
DIMENSION
  8
0
 70
3
 10
7.762879115513087
 20
-28.774800695461025
 30
0.0
 13
382.0922630802219
 23
279.5258363980604
 33
0.0
 14
369.61802131124807
 24
267.97623500713837
 34
0.0
 40
2.5
  1
17.00
  0
POLYLINE
  8
2
 66
1
 70
1
  0
VERTEX
  8
2
 10
192.73986541709195
 20
592.5680886985275
 30
0.0
  0
VERTEX
  8
2
 10
731.066836994557
 20
592.5680886985275
 30
0.0
  0
VERTEX
  8
2
 10
731.066836994557
 20
236.0321534901279
 30
0.0
  0
VERTEX
  8
2
 10
192.73986541709195
 20
236.0321534901279
 30
0.0
  0
SEQEND
  0
DIMENSION
  8
0
 70
1
 10
318.25400348860205
 20
252.11729604741944
 30
0.0
 13
233.09226308022193
 23
302.5258363980604
 33
0.0
 14
323.0922630802219
 24
302.5258363980604
 34
0.0
 40
2.5
  1
90.00
 50
0
  0
DIMENSION
  8
0
 70
1
 10
351.3013602476956
 20
267.9789244567624
 30
0.0
 13
393.0922630802219
 23
342.5258363980604
 33
0.0
 14
393.0922630802219
 24
262.5258363980604
 34
0.0
 40
2.5
  1
80.00
 50
-90
  0
DIMENSION
  8
0
 70
1
 10
447.55019253764135
 20
249.75587312423045
 30
0.0
 13
393.0922630802219
 23
282.5258363980604
 33
0.0
 14
448.0922630802219
 24
282.5258363980604
 34
0.0
 40
2.5
  1
55.00
 50
0
  0
DIMENSION
  8
0
 70
1
 10
392.2633450099626
 20
249.55166183838443
 30
0.0
 13
365.0922630802219
 23
279.5258363980604
 33
0.0
 14
393.0150996098597
 24
279.2458681646325
 34
0.0
 40
2.5
  1
27.92
 50
-0.5744567050441929
  0
LINE
  8
01
 10
208
 20
302
 30
0.0
 11
339
 21
302
 31
0.0
  0
LINE
  8
01
 10
278
 20
349
 30
0.0
 11
278
 21
255
 31
0.0
  0
ENDSEC
  0
EOF
