  0
SECTION
  2
HEADER
  9
$ACADVER
  1
AC1015
  0
ENDSEC
  0
SECTION
  2
TABLES
  0
TABLE
  2
LTYPE
 70
1
  0
LTYPE
  2
CONTINUOUS
 70
0
  3
Solid line
 72
65
 73
0
 40
0.0
  0
ENDTAB
  0
TABLE
  2
LAYER
 70
4
  0
LAYER
  2
0
 70
0
 62
7
  6
CONTINUOUS
  0
LAYER
  2
1
 70
0
 62
7
  6
CONTINUOUS
  0
LAYER
  2
2
 70
0
 62
4
  6
CONTINUOUS
  0
LAYER
  2
01
 70
0
 62
3
  6
DASHDOT
  0
ENDTAB
  0
ENDSEC
  0
SECTION
  2
BLOCKS
  0
ENDSEC
  0
SECTION
  2
ENTITIES
  0
POLYLINE
  8
0
 66
1
 70
1
  0
VERTEX
  8
0
 10
-45
 20
0
 30
0.0
  0
VERTEX
  8
0
 10
-67.5
 20
38.97114317029974
 30
0.0
  0
VERTEX
  8
0
 10
-112.49999999999999
 20
38.97114317029974
 30
0.0
  0
VERTEX
  8
0
 10
-135
 20
5.5109105961630896e-15
 30
0.0
  0
VERTEX
  8
0
 10
-112.50000000000003
 20
-38.971143170299726
 30
0.0
  0
VERTEX
  8
0
 10
-67.5
 20
-38.97114317029974
 30
0.0
  0
SEQEND
  0
LINE
  8
0
 10
14.000000000000004
 20
40
 30
0.0
 11
25
 21
40
 31
0.0
  0
LINE
  8
0
 10
25
 20
40
 30
0.0
 11
25
 21
-40
 31
0.0
  0
LINE
  8
0
 10
25
 20
-40
 30
0.0
 11
14.000000000000004
 21
-40
 31
0.0
  0
LINE
  8
0
 10
0
 20
-40
 30
0.0
 11
0
 21
40
 31
0.0
  0
LINE
  8
0
 10
0
 20
0
 30
0.0
 11
25
 21
0
 31
0.0
  0
LINE
  8
0
 10
25
 20
20
 30
0.0
 11
80
 21
20
 31
0.0
  0
LINE
  8
0
 10
80
 20
20
 30
0.0
 11
80
 21
-20
 31
0.0
  0
LINE
  8
0
 10
80
 20
-20
 30
0.0
 11
25
 21
-20
 31
0.0
  0
LINE
  8
0
 10
80
 20
15
 30
0.0
 11
160
 21
15
 31
0.0
  0
LINE
  8
0
 10
160
 20
15
 30
0.0
 11
160
 21
-15
 31
0.0
  0
LINE
  8
0
 10
160
 20
-15
 30
0.0
 11
80
 21
-15
 31
0.0
  0
LINE
  8
0
 10
80
 20
-15
 30
0.0
 11
80
 21
15
 31
0.0
  0
POLYLINE
  8
0
 66
1
 70
1
  0
VERTEX
  8
0
 10
80
 20
15
 30
0.0
  0
VERTEX
  8
0
 10
160
 20
15
 30
0.0
  0
VERTEX
  8
0
 10
160
 20
-15
 30
0.0
  0
VERTEX
  8
0
 10
80
 20
-15
 30
0.0
  0
VERTEX
  8
0
 10
80
 20
0
 30
0.0
  0
SEQEND
  0
LINE
  8
0
 10
0
 20
40
 30
0.0
 11
0
 21
85
 31
0.0
  0
LINE
  8
0
 10
160
 20
15
 30
0.0
 11
160
 21
85
 31
0.0
  0
LINE
  8
0
 10
0
 20
70
 30
0.0
 11
160
 21
70
 31
0.0
  0
TEXT
  8
0
 10
65
 20
75
 30
0.0
 40
11.180339887498949
  1
Length
 50
0
  0
POINT
  8
0
 10
160
 20
70
 30
0.0
  0
POINT
  8
0
 10
0
 20
70
 30
0.0
  0
LINE
  8
0
 10
160
 20
15.15
 30
0.0
 11
200
 21
15.15
 31
0.0
  0
LINE
  8
0
 10
160
 20
-14.85
 30
0.0
 11
200
 21
-14.85
 31
0.0
  0
LINE
  8
0
 10
190.05
 20
15
 30
0.0
 11
190.05
 21
-15
 31
0.0
  0
LINE
  8
0
 10
190.15
 20
15
 30
0.0
 11
190.15
 21
-15
 31
0.0
  0
TEXT
  8
0
 10
195
 20
0
 30
0.0
 40
5
  1
Diameter
 50
0
  0
LINE
  8
0
 10
80
 20
20.05
 30
0.0
 11
245
 21
20.05
 31
0.0
  0
LINE
  8
0
 10
80
 20
20.15
 30
0.0
 11
240
 21
20.15
 31
0.0
  0
LINE
  8
0
 10
80
 20
-19.85
 30
0.0
 11
240
 21
-19.85
 31
0.0
  0
LINE
  8
0
 10
230.15
 20
20
 30
0.0
 11
230.15
 21
-20
 31
0.0
  0
TEXT
  8
0
 10
235
 20
0
 30
0.0
 40
5
  1
Diameter 2
 50
0
  0
CIRCLE
  8
0
 10
-90
 20
0
 30
0.0
 40
38.97114317029974
  0
TEXT
  8
0
 10
20
 20
115
 30
0.0
 40
25.495097567963924
  1
BOLT
 50
0
  0
HATCH
  8
0
  2
ANSI31
 70
0
 71
0
 41
1.5
 52
0
 91
1
 92
0
 93
0
 73
1
 75
0
 76
0
 98
0
  0
HATCH
  8
0
  2
ANSI31
 70
0
 71
0
 41
1
 52
0
 91
1
 92
0
 93
6
 10
80
 20
15
 10
160
 20
15
 10
160
 20
-14.85
 10
80
 20
-15
 10
80
 20
0
 10
80
 20
15
 73
1
 75
0
 76
0
 98
0
  0
LINE
  8
1
 10
-155
 20
180
 30
0.0
 11
310
 21
180
 31
0.0
  0
LINE
  8
1
 10
310
 20
180
 30
0.0
 11
310
 21
-80
 31
0.0
  0
LINE
  8
1
 10
310
 20
-80
 30
0.0
 11
-155
 21
-80
 31
0.0
  0
LINE
  8
1
 10
-155
 20
-80
 30
0.0
 11
-155
 21
180
 31
0.0
  0
CIRCLE
  8
2
 10
75
 20
50
 30
0.0
 40
264.62237244798484
  0
LINE
  8
01
 10
-145
 20
0
 30
0.0
 11
175
 21
0
 31
0.0
  0
LINE
  8
01
 10
-90
 20
70
 30
0.0
 11
-90
 21
-70
 31
0.0
  0
HATCH
  8
0
  2
ANSI31
 70
0
 71
0
 41
1.5
 52
0
 91
1
 92
0
 93
1
 10
-145
 20
0
 73
1
 75
0
 76
0
 98
0
  0
HATCH
  8
0
  2
ANSI31
 70
0
 71
0
 41
1.5
 52
0
 91
1
 92
0
 93
0
 73
1
 75
0
 76
0
 98
0
  0
HATCH
  8
0
  2
ANSI31
 70
0
 71
0
 41
1.5
 52
0
 91
1
 92
0
 93
0
 73
1
 75
0
 76
0
 98
0
  0
LINE
  8
0
 10
174.2082637818809
 20
197.0224624301115
 30
0.0
 11
149.21003337704133
 21
197.31991263864143
 31
0.0
  0
LINE
  8
0
 10
149.21003337704133
 20
197.31991263864143
 30
0.0
 11
150.16187404433708
 21
277.31424993412804
 31
0.0
  0
LINE
  8
0
 10
150.16187404433708
 20
277.31424993412804
 30
0.0
 11
175.16010444917663
 21
277.0167997255981
 31
0.0
  0
LINE
  8
0
 10
175.16010444917663
 20
277.0167997255981
 30
0.0
 11
174.2082637818809
 21
197.0224624301115
 31
0.0
  0
LINE
  8
0
 10
149.44799354386527
 20
217.31849696251305
 30
0.0
 11
94.4518866532182
 21
217.97288742127887
 31
0.0
  0
LINE
  8
0
 10
94.4518866532182
 20
217.97288742127887
 30
0.0
 11
94.92780698686607
 21
257.97005606902223
 31
0.0
  0
LINE
  8
0
 10
94.92780698686607
 20
257.97005606902223
 30
0.0
 11
149.92391387751314
 21
257.31566561025636
 31
0.0
  0
LINE
  8
0
 10
94.5113766949242
 20
222.9725335022468
 30
0.0
 11
14.517039399437635
 21
223.92437416954255
 31
0.0
  0
LINE
  8
0
 10
14.517039399437635
 20
223.92437416954255
 30
0.0
 11
14.873979649673515
 21
253.92225065535
 31
0.0
  0
LINE
  8
0
 10
14.873979649673515
 20
253.92225065535
 30
0.0
 11
94.8683169451601
 21
252.9704099880543
 31
0.0
  0
LINE
  8
0
 10
94.8683169451601
 20
252.9704099880543
 30
0.0
 11
94.5113766949242
 21
222.9725335022468
 31
0.0
  0
POLYLINE
  8
0
 66
1
 70
1
  0
VERTEX
  8
0
 10
94.5113766949242
 20
222.9725335022468
 30
0.0
  0
VERTEX
  8
0
 10
14.517039399437635
 20
223.92437416954255
 30
0.0
  0
VERTEX
  8
0
 10
14.873979649673515
 20
253.92225065535
 30
0.0
  0
VERTEX
  8
0
 10
94.8683169451601
 20
252.9704099880543
 30
0.0
  0
VERTEX
  8
0
 10
94.68984682004213
 20
237.97147174515055
 30
0.0
  0
SEQEND
  0
HATCH
  8
0
  2
ANSI31
 70
0
 71
0
 41
1.5
 52
90
 91
1
 92
0
 93
1
 10
14.873979649673515
 20
253.92225065535
 73
1
 75
0
 76
0
 98
0
  0
HATCH
  8
0
  2
ANSI31
 70
0
 71
0
 41
1.5
 52
0
 91
1
 92
0
 93
0
 73
1
 75
0
 76
0
 98
0
  0
HATCH
  8
0
  2
ANSI31
 70
0
 71
0
 41
1.5
 52
0
 91
1
 92
0
 93
0
 73
1
 75
0
 76
0
 98
0
  0
HATCH
  8
0
  2
ANSI31
 70
0
 71
0
 41
1.5
 52
0
 91
1
 92
0
 93
0
 73
1
 75
0
 76
0
 98
0
  0
POLYLINE
  8
0
 66
1
 70
1
  0
VERTEX
  8
0
 10
10.531194237255875
 20
-105.14457626303951
 30
0.0
  0
VERTEX
  8
0
 10
144.90896692823748
 20
-106.20491308911845
 30
0.0
  0
VERTEX
  8
0
 10
145.28411027428598
 20
-136.96712541073967
 30
0.0
  0
VERTEX
  8
0
 10
9.780893234357528
 20
-136.28194624151055
 30
0.0
  0
SEQEND
  0
SPLINE
  8
0
 71
3
 72
16
 73
12
 40
0
 40
0
 40
0
 40
0
 40
1
 40
2
 40
3
 40
4
 40
5
 40
6
 40
7
 40
8
 40
9
 40
9
 40
9
 40
9
 10
10.156043735806701
 20
-120.71326125227503
 30
0.0
 10
25.79627752660899
 20
-104.98503553666153
 30
0.0
 10
37.30858563421944
 20
-136.58266444717765
 30
0.0
 10
46.861344779309164
 20
-105.96481001792188
 30
0.0
 10
62.04779317591304
 20
-136.58266444717765
 30
0.0
 10
70.37583889133829
 20
-105.47492277729171
 30
0.0
 10
91.68586378008649
 20
-135.84781957049944
 30
0.0
 10
101.72851016580641
 20
-106.45469725855207
 30
0.0
 10
112.7509310327867
 20
-135.6028712782734
 30
0.0
 10
125.48794322623968
 20
-106.94458449918224
 30
0.0
 10
137.7350775228844
 20
-135.84781957049944
 30
0.0
 10
145.09653860126173
 20
-121.58601924992905
 30
0.0
  0
DIMENSION
  8
2
 70
4
 71
1
 10
57.26475960931713
 20
-251.78098612803086
 30
0.0
 13
75
 23
50
 33
0.0
 14
-178.4894936761267
 24
-25.947854451728475
 34
0.0
 40
2.5
  1
529.24
  0
DIMENSION
  8
2
 70
1
 10
145
 20
-150
 30
0.0
 13
10.156043735806701
 23
-120.71326125227503
 33
0.0
 14
145
 24
-125
 34
0.0
 40
2.5
  1
134.91
 50
-1.8208405797902574
  0
DIMENSION
  8
2
 70
1
 10
155
 20
-110
 30
0.0
 13
145.28411027428598
 23
-136.96712541073967
 33
0.0
 14
144.90896692823748
 24
-106.20491308911845
 34
0.0
 40
2.5
  1
30.76
 50
90.69868398281046
  0
HATCH
  8
0
  2
ANSI31
 70
0
 71
0
 41
0.5
 52
0
 91
1
 92
0
 93
8
 10
149.92391387751314
 20
257.31566561025636
 10
132
 20
258
 10
114
 20
258
 10
94.92780698686607
 20
257.97005606902223
 10
94.8683169451601
 20
252.9704099880543
 10
114
 20
252
 10
132
 20
252
 10
150
 20
252
 73
1
 75
0
 76
0
 98
0
  0
HATCH
  8
0
  2
ANSI31
 70
0
 71
0
 41
1
 52
0
 91
1
 92
0
 93
8
 10
149.92391387751314
 20
257.31566561025636
 10
132
 20
258
 10
111
 20
258
 10
94.92780698686607
 20
257.97005606902223
 10
96
 20
249
 10
114
 20
249
 10
132
 20
249
 10
150
 20
249
 73
1
 75
0
 76
0
 98
0
  0
HATCH
  8
0
  2
ANSI31
 70
0
 71
0
 41
1
 52
0
 91
1
 92
0
 93
5
 10
14.873979649673515
 20
253.92225065535
 10
94.8683169451601
 20
252.9704099880543
 10
94.5113766949242
 20
222.9725335022468
 10
14.517039399437635
 20
223.92437416954255
 10
14.695509524555575
 20
238.92331241244628
 73
1
 75
0
 76
0
 98
0
  0
HATCH
  8
0
  2
ANSI31
 70
0
 71
0
 41
1
 52
0
 91
1
 92
0
 93
6
 10
149.92391387751314
 20
257.31566561025636
 10
150
 20
249
 10
123
 20
249
 10
96
 20
249
 10
94.92780698686607
 20
257.97005606902223
 10
122.42586043218961
 20
257.6428608396393
 73
1
 75
0
 76
0
 98
0
  0
HATCH
  8
0
  2
ANSI32
 70
0
 71
0
 41
1
 52
0
 91
1
 92
0
 93
6
 10
94.92780698686607
 20
257.97005606902223
 10
119.25803706916244
 20
257.7198898982622
 10
149.92391387751314
 20
257.31566561025636
 10
149.7975641555861
 20
253.33622604322244
 10
120.71925835417566
 20
253.4823543032523
 10
94.8683169451601
 20
252.9704099880543
 73
1
 75
0
 76
0
 98
0
  0
LINE
  8
0
 10
-3
 20
22.999999999999996
 30
0.0
 11
-3
 21
-22.999999999999996
 31
0.0
  0
ARC
  8
0
 10
14.000000000000004
 20
23
 30
0.0
 40
17
 50
90
 51
180
  0
ARC
  8
0
 10
14.000000000000004
 20
-23
 30
0.0
 40
17
 50
180
 51
270
  0
DIMENSION
  8
0
 70
1
 10
-9.394498495605776
 20
-38.197767868214164
 30
0.0
 13
0.1304771409926926
 23
-33.63099825009591
 33
0.0
 14
-2.8705418982939697
 24
-33.500521109103225
 34
0.0
 40
2.5
  1
3.00
 50
177.5104841930045
  0
ENDSEC
  0
EOF
