  0
SECTION
  2
HEADER
  9
$ACADVER
  1
AC1015
  0
ENDSEC
  0
SECTION
  2
TABLES
  0
TABLE
  2
LTYPE
 70
1
  0
LTYPE
  2
CONTINUOUS
 70
0
  3
Solid line
 72
65
 73
0
 40
0.0
  0
ENDTAB
  0
TABLE
  2
LAYER
 70
1
  0
LAYER
  2
0
 70
0
 62
7
  6
CONTINUOUS
  0
ENDTAB
  0
ENDSEC
  0
SECTION
  2
BLOCKS
  0
ENDSEC
  0
SECTION
  2
ENTITIES
  0
CIRCLE
  8
0
 10
66.40002441406246
 20
89.20001220703125
 30
0
 40
14.310828232067243
  0
CIRCLE
  8
0
 10
172.6000366210938
 20
141.20001220703128
 30
10
 40
15.283930618746954
  0
CIRCLE
  8
0
 10
292.2753437226854
 20
110.14965333271515
 30
20
 40
15.19767882654284
 39
1
  0
CIRCLE
  8
0
 10
303.93139075335796
 20
22.72930060266989
 30
30
 40
17.209982734687504
 39
1
  0
CIRCLE
  8
0
 10
244.85641496387754
 20
-67.41211497536123
 30
50
 40
14.655705138715527
 39
1
  0
ENDSEC
  0
EOF
