  0
SECTION
  2
HEADER
  9
$ACADVER
  1
AC1015
  0
ENDSEC
  0
SECTION
  2
TABLES
  0
TABLE
  2
LTYPE
 70
1
  0
LTYPE
  2
CONTINUOUS
 70
0
  3
Solid line
 72
65
 73
0
 40
0.0
  0
ENDTAB
  0
TABLE
  2
LAYER
 70
2
  0
LAYER
  2
0
 70
0
 62
7
  6
CONTINUOUS
  0
LAYER
  2
1
 70
0
 62
3
  6
CONTINUOUS
  0
ENDTAB
  0
ENDSEC
  0
SECTION
  2
BLOCKS
  0
ENDSEC
  0
SECTION
  2
ENTITIES
  0
POLYLINE
  8
0
 66
1
 70
1
  0
VERTEX
  8
0
 10
-128.39996337890628
 20
71.39997863769531
 30
0.0
  0
VERTEX
  8
0
 10
-1.9999999999999942
 20
71.39997863769531
 30
0.0
  0
VERTEX
  8
0
 10
-1.9999999999999942
 20
-1.399993896484396
 30
0.0
  0
VERTEX
  8
0
 10
-128.39996337890628
 20
-1.399993896484396
 30
0.0
  0
SEQEND
  0
DIMENSION
  8
0
 70
1
 10
-1.9999999999999942
 20
34.99999237060546
 30
0.0
 13
-1.9999999999999942
 23
71.39997863769531
 33
0.0
 14
-1.9999999999999942
 24
-1.399993896484396
 34
0.0
 40
2.5
  1
72.80
 50
-90
  0
DIMENSION
  8
0
 70
1
 10
-65.19998168945314
 20
71.39997863769531
 30
0.0
 13
-128.39996337890628
 23
71.39997863769531
 33
0.0
 14
-1.9999999999999942
 24
71.39997863769531
 34
0.0
 40
2.5
  1
126.40
 50
0
  0
LINE
  8
0
 10
129.04331729575068
 20
81.91544933757574
 30
0.0
 11
64.63917365835762
 21
2.93814425719808
 31
0.0
  0
LINE
  8
0
 10
64.63917365835762
 20
2.93814425719808
 30
0.0
 11
177.46391313476371
 21
2.93814425719808
 31
0.0
  0
LINE
  8
0
 10
177.46391313476371
 20
2.93814425719808
 30
0.0
 11
129.04331729575068
 21
81.91544933757574
 31
0.0
  0
DIMENSION
  8
0
 70
1
 10
153.25361521525718
 20
42.426796797386906
 30
0.0
 13
129.04331729575068
 23
81.91544933757574
 33
0.0
 14
177.46391313476371
 24
2.93814425719808
 34
0.0
 40
2.5
  1
92.64
 50
-58.487743949962926
  0
LINE
  8
0
 10
64.63917365835762
 20
2.93814425719808
 30
0.0
 11
153.25361521525718
 21
42.426796797386906
 31
0.0
  0
HATCH
  8
0
  2
ANSI31
 70
0
 71
0
 41
1
 52
0
 91
1
 92
0
 93
7
 10
64.63917365835762
 20
2.93814425719808
 10
64.63917365835762
 20
2.9381442571980756
 10
108.9463944368074
 20
22.682470527292494
 10
153.25361521525718
 20
42.426796797386906
 10
177.46391313476371
 20
2.93814425719808
 10
121.05154339656067
 20
2.93814425719808
 10
64.63917365835762
 20
2.9381442571980756
 73
1
 75
0
 76
0
 98
0
  0
LINE
  8
0
 10
-128.39996337890628
 20
34.99999237060546
 30
0.0
 11
-1.9999999999999942
 21
34.99999237060546
 31
0.0
  0
HATCH
  8
0
  2
AR-BRICK
 70
0
 71
0
 41
1
 52
0
 91
1
 92
0
 93
7
 10
-128.39996337890628
 20
34.99999237060546
 10
-128.39996337890628
 20
34.99999237060546
 10
-70.44404344016387
 20
34.88416573109086
 10
-1.9999999999999942
 20
34.99999237060546
 10
-1.9999999999999942
 20
-1.3999938964843892
 10
-65.19998168945314
 20
-1.399993896484396
 10
-128.39996337890628
 20
-1.399993896484396
 73
1
 75
0
 76
0
 98
0
  0
DIMENSION
  8
1
 70
1
 10
-65.19998168945314
 20
-1.399993896484396
 30
0.0
 13
-128.39996337890628
 23
-1.399993896484396
 33
0.0
 14
-1.9999999999999942
 24
-1.399993896484396
 34
0.0
 40
2.5
  1
126.40
 50
0
  0
DIMENSION
  8
1
 70
1
 10
121.05154339656067
 20
2.938144257198078
 30
0.0
 13
64.63917365835762
 23
2.9381442571980756
 33
0.0
 14
177.46391313476371
 24
2.93814425719808
 34
0.0
 40
2.5
  1
112.82
 50
2.2552179220435138e-15
  0
DIMENSION
  8
1
 70
1
 10
108.9463944368074
 20
22.682470527292494
 30
0.0
 13
64.63917365835762
 23
2.93814425719808
 33
0.0
 14
153.25361521525718
 24
42.426796797386906
 34
0.0
 40
2.5
  1
97.01
 50
24.018862594767423
  0
CIRCLE
  8
0
 10
34.90515377551311
 20
-62.08889349458491
 30
0.0
 40
27.582274236035598
  0
DIMENSION
  8
0
 70
3
 10
30.32536383405472
 20
-74.0253360315638
 30
0.0
 13
22.02879945648275
 23
-85.75495645051305
 33
0.0
 14
38.62192821162669
 24
-62.29571561261456
 34
0.0
 40
2.5
  1
28.73
  0
CIRCLE
  8
0
 10
108.65200637401902
 20
-59.343864210985345
 30
0.0
 40
18.635103711055198
  0
DIMENSION
  8
0
 70
3
 10
116.75625499318127
 20
-63.9414643348818
 30
0.0
 13
108.65200637401902
 23
-59.343864210985345
 33
0.0
 14
124.8605036123435
 24
-68.53906445877826
 34
0.0
 40
2.5
  1
18.64
  0
DIMENSION
  8
0
 70
2
 10
103.8553847176874
 20
34.92742116187058
 30
0.0
 13
129.04331729575068
 23
81.91544933757574
 33
0.0
 14
153.25361521525718
 24
42.426796797386906
 34
0.0
 15
64.63917365835762
 25
2.9381442571980756
 35
0.0
 40
2.5
  1
26.78
  0
ARC
  8
0
 10
35.24762275946925
 20
99.37064361548964
 30
0.0
 40
16.682492457830406
 50
296.04076785765153
 51
180.06971548084445
  0
DIMENSION
  8
0
 70
2
 10
18.706353851691773
 20
95.67879447912092
 30
0.0
 13
18.56514265098822
 23
99.35034495289555
 33
0.0
 14
42.57141307720985
 24
84.38172604325189
 34
0.0
 15
35.24762275946925
 25
99.37064361548964
 35
0.0
 40
2.5
  1
115.97
  0
HATCH
  8
0
  2
ANSI31
 70
0
 71
0
 41
1
 52
0
 91
1
 92
0
 93
0
 73
1
 75
0
 76
0
 98
0
  0
HATCH
  8
0
  2
ANSI31
 70
0
 71
0
 41
1
 52
0
 91
1
 92
0
 93
0
 73
1
 75
0
 76
0
 98
0
  0
POLYLINE
  8
0
 66
1
 70
1
  0
VERTEX
  8
0
 10
-109.21204649392571
 20
-35.57742059625673
 30
0.0
  0
VERTEX
  8
0
 10
-38.15842360398502
 20
-35.57742059625673
 30
0.0
  0
VERTEX
  8
0
 10
-38.15842360398502
 20
-66.34708186118598
 30
0.0
  0
VERTEX
  8
0
 10
-109.21204649392571
 20
-66.34708186118598
 30
0.0
  0
SEQEND
  0
HATCH
  8
0
  2
ANSI31
 70
0
 71
0
 41
1
 52
0
 91
1
 92
0
 93
8
 10
-109.21204649392571
 20
-35.57742059625673
 10
-73.68523504895536
 20
-35.57742059625673
 10
-38.15842360398502
 20
-35.57742059625673
 10
-38.15842360398502
 20
-50.96225122872136
 10
-38.15842360398502
 20
-66.34708186118598
 10
-73.68523504895536
 20
-66.34708186118598
 10
-109.21204649392571
 20
-66.34708186118598
 10
-109.21204649392571
 20
-50.96225122872136
 73
1
 75
0
 76
0
 98
0
  0
DONUT
  8
0
 10
32.21220026322327
 20
-1.1121845118976692
 30
0.0
 40
12.5
 41
25
  0
SPLINE
  8
0
 71
3
 72
12
 73
8
 40
0
 40
0
 40
0
 40
0
 40
1
 40
2
 40
3
 40
4
 40
5
 40
5
 40
5
 40
5
 10
-119.85746473421956
 20
-19.613421491107943
 30
0.0
 10
-102.02118063694614
 20
-9.192237341409822
 30
0.0
 10
-93.00283629123501
 20
-25.826055649064187
 30
0.0
 10
-76.16859809954138
 20
-11.99793223927427
 30
0.0
 10
-52.92130586585225
 20
-19.613421491107943
 30
0.0
 10
-45.706633447261424
 20
-6.787328697007357
 30
0.0
 10
-28.271158538285633
 20
-26.627689315549922
 30
0.0
 10
-11.837737179834889
 20
-12.79955826081478
 30
0.0
  0
DIMENSION
  8
0
 70
1
 10
-14.293236982874866
 20
-25.19801042552526
 30
0.0
 13
-119.85746473421956
 23
-19.613421491107943
 33
0.0
 14
-11.837737229135158
 24
-12.799558302299177
 34
0.0
 40
2.5
  1
108.23
 50
3.6094242104745318
  0
POLYLINE
  8
0
 66
1
 70
1
  0
VERTEX
  8
0
 10
-55
 20
-90
 30
0.0
  0
VERTEX
  8
0
 10
-65
 20
-72.67949192431124
 30
0.0
  0
VERTEX
  8
0
 10
-85
 20
-72.67949192431122
 30
0.0
  0
VERTEX
  8
0
 10
-95
 20
-90
 30
0.0
  0
VERTEX
  8
0
 10
-85.00000000000001
 20
-107.32050807568876
 30
0.0
  0
VERTEX
  8
0
 10
-65
 20
-107.32050807568876
 30
0.0
  0
SEQEND
  0
LINE
  8
0
 10
-160
 20
135
 30
0.0
 11
225
 21
135
 31
0.0
  0
LINE
  8
0
 10
225
 20
135
 30
0.0
 11
225
 21
-130
 31
0.0
  0
LINE
  8
0
 10
225
 20
-130
 30
0.0
 11
-160
 21
-130
 31
0.0
  0
LINE
  8
0
 10
-160
 20
-130
 30
0.0
 11
-160
 21
135
 31
0.0
  0
CIRCLE
  8
0
 10
33.572849414480984
 20
51.7807148039193
 30
0.0
 40
19.615751659455917
  0
DIMENSION
  8
0
 70
4
 10
27.826351302120642
 20
49.687674979272494
 30
0.0
 13
33.572849414480984
 23
51.7807148039193
 33
0.0
 14
15.141604175976497
 24
45.0675253887789
 34
0.0
 40
2.5
  1
39.23
  0
CIRCLE
  8
0
 10
163.3348985730931
 20
-70.77126781951607
 30
0.0
 40
6.632703483350207
  0
DIMENSION
  8
0
 70
4
 10
169.01477332863462
 20
-64.61353022151805
 30
0.0
 13
163.3348985730931
 23
-70.77126781951607
 33
0.0
 14
167.83193756080757
 24
-65.89588108193082
 34
0.0
 40
2.5
  1
13.27
  0
CIRCLE
  8
0
 10
194.37599688734713
 20
-71.49141822081394
 30
0.0
 40
6.0107160055173985
  0
DIMENSION
  8
0
 70
4
 71
1
 10
202.42889574589478
 20
-66.00755972881899
 30
0.0
 13
194.37599688734713
 23
-71.49141822081394
 33
0.0
 14
192.75791689448252
 24
-65.70259070259627
 34
0.0
 40
2.5
  1
12.02
  0
ARC
  8
0
 10
179.65720945529836
 20
-92.97728305562514
 30
0.0
 40
8.742103176536077
 50
7.30562449024879
 51
174.28588921779908
  0
DIMENSION
  8
0
 70
4
 10
189.41395807954433
 20
-85.95506676268563
 30
0.0
 13
179.65720945529836
 23
-92.97728305562514
 33
0.0
 14
186.75263760554955
 24
-87.87049665772037
 34
0.0
 40
2.5
  1
17.48
  0
NOTE
  8
0
 10
-60
 20
-81.33974596215562
 30
0.0
 11
-42.63481253438689
 21
-76.93311262295465
 31
0.0
  1
hexagon
 40
2.5
  2
PL3
  0
NOTE
  8
0
 10
-45.982685865548255
 20
-85.4475109320532
 30
0.0
 11
-42.368461126707494
 21
-85.56410126578774
 31
0.0
  1
This is an examples of NOTE command
 40
2.5
  0
POLYLINE
  8
0
 66
1
 70
1
  0
VERTEX
  8
0
 10
-254.18644833107027
 20
49.70064093259749
 30
0.0
  0
VERTEX
  8
0
 10
-237.25643411992792
 20
49.70064093259749
 30
0.0
  0
VERTEX
  8
0
 10
-237.25643411992792
 20
35.68958585769617
 30
0.0
  0
VERTEX
  8
0
 10
-254.18644833107027
 20
35.68958585769617
 30
0.0
  0
SEQEND
  0
HATCH
  8
0
  2
ANSI31
 70
0
 71
0
 41
0.5
 52
0
 91
1
 92
0
 93
4
 10
-254.18644833107027
 20
35.68958585769617
 10
-237.25643411992792
 20
35.68958585769617
 10
-237.25643411992792
 20
49.70064093259749
 10
-254.18644833107027
 20
49.70064093259749
 73
1
 75
0
 76
0
 98
0
  0
POLYLINE
  8
0
 66
1
 70
1
  0
VERTEX
  8
0
 10
-271.4665629693395
 20
27.445068829756444
 30
0.0
  0
VERTEX
  8
0
 10
-212.20013133741145
 20
27.445068829756444
 30
0.0
  0
VERTEX
  8
0
 10
-212.20013133741145
 20
0.9250710268762674
 30
0.0
  0
VERTEX
  8
0
 10
-271.4665629693395
 20
0.9250710268762674
 30
0.0
  0
SEQEND
  0
HATCH
  8
0
  2
ANSI31
 70
0
 71
0
 41
0.5
 52
0
 91
1
 92
0
 93
4
 10
-271.4665629693395
 20
0.9250710268762674
 10
-212.20013133741145
 20
0.9250710268762674
 10
-212.20013133741145
 20
27.445068829756444
 10
-271.4665629693395
 20
27.445068829756444
 73
1
 75
0
 76
0
 98
0
  0
CIRCLE
  8
0
 10
-309.74887707855606
 20
42.9898260945002
 30
0.0
 40
15.72893288184217
  0
POLYLINE
  8
0
 66
1
 70
1
  0
VERTEX
  8
0
 10
-295.56083016575616
 20
4.025622607389849
 30
0.0
  0
VERTEX
  8
0
 10
-303.68527466388133
 20
17.6740882959581
 30
0.0
  0
VERTEX
  8
0
 10
-319.5674149219243
 20
17.46234581322911
 30
0.0
  0
VERTEX
  8
0
 10
-327.3251106818421
 20
3.6021376419318663
 30
0.0
  0
VERTEX
  8
0
 10
-319.2006661837169
 20
-10.046328046636386
 30
0.0
  0
VERTEX
  8
0
 10
-303.31852592567395
 20
-9.834585563907398
 30
0.0
  0
SEQEND
  0
HATCH
  8
0
  2
ANSI31
 70
0
 71
0
 41
0.5
 52
0
 91
1
 92
0
 93
8
 10
-311.4429704237991
 20
59.08372499142072
 10
-299.58430085094915
 20
54.848487589275926
 10
-294.71377945409745
 20
44.47215272279148
 10
-299.79606756790093
 20
31.13115652165023
 10
-309.74887707855606
 20
27.531203114212296
 10
-321.1840132175024
 20
33.03701658384509
 10
-324.9957252638179
 20
46.166254146108805
 10
-319.7016785111369
 20
55.27201294510526
 73
1
 75
0
 76
0
 98
0
  0
HATCH
  8
0
  2
ANSI31
 70
0
 71
0
 41
0.5
 52
0
 91
1
 92
0
 93
7
 10
-319.5674149219243
 20
17.46234581322911
 10
-305.777369576827
 20
16.92665765066082
 10
-295.56083016575616
 20
4.025622607389849
 10
-303.31852592567395
 20
-9.834585563907398
 10
-319.2006661837169
 20
-10.046328046636386
 10
-327.3251106818421
 20
3.6021376419318663
 10
-323.4462628018832
 20
10.532241727580487
 73
1
 75
0
 76
0
 98
0
  0
LINE
  8
0
 10
-325.81080744533415
 20
86.79632266673681
 30
0.0
 11
-297.1816611433473
 21
86.79632266673681
 31
0.0
  0
LINE
  8
0
 10
-297.1816611433473
 20
86.79632266673681
 30
0.0
 11
-297.03409048765593
 21
69.08757517706898
 31
0.0
  0
LINE
  8
0
 10
-297.03409048765593
 20
69.08757517706898
 30
0.0
 11
-325.5156605044916
 21
68.94000170664773
 31
0.0
  0
LINE
  8
0
 10
-325.5156605044916
 20
68.94000170664773
 30
0.0
 11
-325.81080744533415
 21
86.79632266673681
 31
0.0
  0
HATCH
  8
0
  2
ANSI31
 70
0
 71
0
 41
0.5
 52
0
 91
1
 92
0
 93
8
 10
-325.81080744533415
 20
86.79632266673681
 10
-311.49623429434075
 20
86.79632266673681
 10
-297.1816611433473
 20
86.79632266673681
 10
-297.10787581550164
 20
77.9419489219029
 10
-297.03409048765593
 20
69.08757517706898
 10
-311.2748754960738
 20
69.01378844185837
 10
-325.5156605044916
 20
68.94000170664773
 10
-325.6632339749129
 20
77.86816218669227
 73
1
 75
0
 76
0
 98
0
  0
NOTE
  8
0
 10
-316.6253487046088
 20
79.0755441082241
 30
0.0
 11
-316.1308790509019
 21
78.58107445451716
 31
0.0
  1
LINE (closed)
 40
2.5
  0
NOTE
  8
0
 10
-290.5832153049746
 20
55.5057652646473
 30
0.0
 11
-291.57216089991124
 21
53.03341070858982
 31
0.0
  1
CIRCLE
 40
2.5
  0
NOTE
  8
0
 10
-292.8789396222369
 20
14.85422126821679
 30
0.0
 11
-292.8789396222369
 21
13.643396806270573
 31
0.0
  1
POLYGON
 40
2.5
  0
NOTE
  8
0
 10
-232.06723933888952
 20
47.05250052641422
 30
0.0
 11
-232.06723933888952
 21
47.05250052641422
 31
0.0
  1
RECTANG (small)
 40
2.5
  0
NOTE
  8
0
 10
-230.98626005548843
 20
33.15413486204882
 30
0.0
 11
-230.98626005548843
 21
33.15413486204882
 31
0.0
  1
RECTANG (Big)
 40
2.5
  0
ENDSEC
  0
EOF
