  0
SECTION
  2
HEADER
  9
$ACADVER
  1
AC1015
  0
ENDSEC
  0
SECTION
  2
TABLES
  0
TABLE
  2
LTYPE
 70
1
  0
LTYPE
  2
CONTINUOUS
 70
0
  3
Solid line
 72
65
 73
0
 40
0.0
  0
ENDTAB
  0
TABLE
  2
LAYER
 70
2
  0
LAYER
  2
0
 70
0
 62
7
  6
CONTINUOUS
  0
LAYER
  2
1
 70
0
 62
3
  6
CONTINUOUS
  0
ENDTAB
  0
ENDSEC
  0
SECTION
  2
BLOCKS
  0
ENDSEC
  0
SECTION
  2
ENTITIES
  0
POLYLINE
  8
0
 66
1
 70
1
  0
VERTEX
  8
0
 10
-128.39996337890628
 20
71.39997863769531
 30
0.0
  0
VERTEX
  8
0
 10
-1.9999999999999942
 20
71.39997863769531
 30
0.0
  0
VERTEX
  8
0
 10
-1.9999999999999942
 20
-1.399993896484396
 30
0.0
  0
VERTEX
  8
0
 10
-128.39996337890628
 20
-1.399993896484396
 30
0.0
  0
SEQEND
  0
DIMENSION
  8
0
 70
1
 13
-1.9999999999999942
 23
71.39997863769531
 33
0.0
 14
-1.9999999999999942
 24
-1.399993896484396
 34
0.0
 15
15.326840281038667
 25
-1.0518361356005979
 35
0.0
 10
-1.9999999999999942
 20
34.99999237060546
 30
0.0
 40
2.5
  1
72.80
 50
-90
  0
DIMENSION
  8
0
 70
1
 13
-128.39996337890628
 23
71.39997863769531
 33
0.0
 14
-1.9999999999999942
 24
71.39997863769531
 34
0.0
 15
-9.917364543224059
 25
87.90383170548458
 35
0.0
 10
-65.19998168945314
 20
71.39997863769531
 30
0.0
 40
2.5
  1
126.40
 50
0
  0
LINE
  8
0
 10
129.04331729575068
 20
81.91544933757574
 30
0.0
 11
64.63917365835762
 21
2.93814425719808
 31
0.0
  0
LINE
  8
0
 10
64.63917365835762
 20
2.93814425719808
 30
0.0
 11
177.46391313476371
 21
2.93814425719808
 31
0.0
  0
LINE
  8
0
 10
177.46391313476371
 20
2.93814425719808
 30
0.0
 11
129.04331729575068
 21
81.91544933757574
 31
0.0
  0
DIMENSION
  8
0
 70
1
 13
129.04331729575068
 23
81.91544933757574
 33
0.0
 14
177.46391313476371
 24
2.93814425719808
 34
0.0
 15
186.3958788498496
 25
15.630931034895623
 35
0.0
 10
153.25361521525718
 20
42.426796797386906
 30
0.0
 40
2.5
  1
92.64
 50
-58.487743949962926
  0
LINE
  8
0
 10
64.63917365835762
 20
2.93814425719808
 30
0.0
 11
153.25361521525718
 21
42.426796797386906
 31
0.0
  0
HATCH
  8
0
  2
ANSI31
 70
0
 71
0
 41
1
 52
0
 91
1
 92
0
 93
7
 10
64.63917365835762
 20
2.93814425719808
 10
64.63917365835762
 20
2.9381442571980756
 10
108.9463944368074
 20
22.682470527292494
 10
153.25361521525718
 20
42.426796797386906
 10
177.46391313476371
 20
2.93814425719808
 10
121.05154339656067
 20
2.93814425719808
 10
64.63917365835762
 20
2.9381442571980756
 73
1
 75
0
 76
0
 98
0
  0
LINE
  8
0
 10
-128.39996337890628
 20
34.99999237060546
 30
0.0
 11
-1.9999999999999942
 21
34.99999237060546
 31
0.0
  0
HATCH
  8
0
  2
AR-BRICK
 70
0
 71
0
 41
1
 52
0
 91
1
 92
0
 93
7
 10
-128.39996337890628
 20
34.99999237060546
 10
-128.39996337890628
 20
34.99999237060546
 10
-70.44404344016387
 20
34.88416573109086
 10
-1.9999999999999942
 20
34.99999237060546
 10
-1.9999999999999942
 20
-1.3999938964843892
 10
-65.19998168945314
 20
-1.399993896484396
 10
-128.39996337890628
 20
-1.399993896484396
 73
1
 75
0
 76
0
 98
0
  0
DIMENSION
  8
1
 70
1
 13
-128.39996337890628
 23
-1.399993896484396
 33
0.0
 14
-1.9999999999999942
 24
-1.399993896484396
 34
0.0
 15
-1.4418315592434505
 25
-22.791971066689275
 35
0.0
 10
-65.19998168945314
 20
-1.399993896484396
 30
0.0
 40
2.5
  1
126.40
 50
0
  0
DIMENSION
  8
1
 70
1
 13
64.63917365835762
 23
2.9381442571980756
 33
0.0
 14
177.46391313476371
 24
2.93814425719808
 34
0.0
 15
166.82353651565984
 25
-11.28941511069682
 35
0.0
 10
121.05154339656067
 20
2.938144257198078
 30
0.0
 40
2.5
  1
112.82
 50
2.2552179220435138e-15
  0
DIMENSION
  8
1
 70
1
 13
64.63917365835762
 23
2.93814425719808
 33
0.0
 14
153.25361521525718
 24
42.426796797386906
 34
0.0
 15
97.40773362572038
 25
81.40603899455148
 35
0.0
 10
108.9463944368074
 20
22.682470527292494
 30
0.0
 40
2.5
  1
97.01
 50
24.018862594767423
  0
CIRCLE
  8
0
 10
34.90515377551311
 20
-62.08889349458491
 30
0.0
 40
27.582274236035598
  0
DIMENSION
  8
0
 70
3
 13
22.02879945648275
 23
-85.75495645051305
 33
0.0
 14
38.62192821162669
 24
-62.29571561261456
 34
0.0
 10
30.32536383405472
 20
-74.0253360315638
 30
0.0
 40
2.5
  1
28.73
  0
CIRCLE
  8
0
 10
108.65200637401902
 20
-59.343864210985345
 30
0.0
 40
18.635103711055198
  0
DIMENSION
  8
0
 70
3
 13
108.65200637401902
 23
-59.343864210985345
 33
0.0
 14
124.8605036123435
 24
-68.53906445877826
 34
0.0
 15
116.75625499318127
 25
-63.9414643348818
 35
0.0
 10
116.75625499318127
 20
-63.9414643348818
 30
0.0
 40
2.5
  1
18.64
  0
ENDSEC
  0
EOF
