  0
SECTION
  2
HEADER
  9
$ACADVER
  1
AC1015
  0
ENDSEC
  0
SECTION
  2
TABLES
  0
TABLE
  2
LTYPE
 70
1
  0
LTYPE
  2
CONTINUOUS
 70
0
  3
Solid line
 72
65
 73
0
 40
0.0
  0
ENDTAB
  0
TABLE
  2
LAYER
 70
2
  0
LAYER
  2
0
 70
0
 62
7
  6
CONTINUOUS
  0
LAYER
  2
1
 70
0
 62
3
  6
CONTINUOUS
  0
ENDTAB
  0
ENDSEC
  0
SECTION
  2
BLOCKS
  0
ENDSEC
  0
SECTION
  2
ENTITIES
  0
POLYLINE
  8
0
 66
1
 70
1
  0
VERTEX
  8
0
 10
-128.39996337890628
 20
71.39997863769531
 30
0.0
  0
VERTEX
  8
0
 10
-1.9999999999999942
 20
71.39997863769531
 30
0.0
  0
VERTEX
  8
0
 10
-1.9999999999999942
 20
-1.399993896484396
 30
0.0
  0
VERTEX
  8
0
 10
-128.39996337890628
 20
-1.399993896484396
 30
0.0
  0
SEQEND
  0
DIMENSION
  8
0
 70
1
 10
-1.9999999999999942
 20
34.99999237060546
 30
0.0
 13
-1.9999999999999942
 23
71.39997863769531
 33
0.0
 14
-1.9999999999999942
 24
-1.399993896484396
 34
0.0
 40
2.5
  1
72.80
 50
-90
  0
DIMENSION
  8
0
 70
1
 10
-65.19998168945314
 20
71.39997863769531
 30
0.0
 13
-128.39996337890628
 23
71.39997863769531
 33
0.0
 14
-1.9999999999999942
 24
71.39997863769531
 34
0.0
 40
2.5
  1
126.40
 50
0
  0
LINE
  8
0
 10
129.04331729575068
 20
81.91544933757574
 30
0.0
 11
64.63917365835762
 21
2.93814425719808
 31
0.0
  0
LINE
  8
0
 10
64.63917365835762
 20
2.93814425719808
 30
0.0
 11
177.46391313476371
 21
2.93814425719808
 31
0.0
  0
LINE
  8
0
 10
177.46391313476371
 20
2.93814425719808
 30
0.0
 11
129.04331729575068
 21
81.91544933757574
 31
0.0
  0
DIMENSION
  8
0
 70
1
 10
153.25361521525718
 20
42.426796797386906
 30
0.0
 13
129.04331729575068
 23
81.91544933757574
 33
0.0
 14
177.46391313476371
 24
2.93814425719808
 34
0.0
 40
2.5
  1
92.64
 50
-58.487743949962926
  0
LINE
  8
0
 10
64.63917365835762
 20
2.93814425719808
 30
0.0
 11
153.25361521525718
 21
42.426796797386906
 31
0.0
  0
HATCH
  8
0
  2
ANSI31
 70
0
 71
0
 41
1
 52
0
 91
1
 92
0
 93
7
 10
64.63917365835762
 20
2.93814425719808
 10
64.63917365835762
 20
2.9381442571980756
 10
108.9463944368074
 20
22.682470527292494
 10
153.25361521525718
 20
42.426796797386906
 10
177.46391313476371
 20
2.93814425719808
 10
121.05154339656067
 20
2.93814425719808
 10
64.63917365835762
 20
2.9381442571980756
 73
1
 75
0
 76
0
 98
0
  0
LINE
  8
0
 10
-128.39996337890628
 20
34.99999237060546
 30
0.0
 11
-1.9999999999999942
 21
34.99999237060546
 31
0.0
  0
HATCH
  8
0
  2
AR-BRICK
 70
0
 71
0
 41
1
 52
0
 91
1
 92
0
 93
7
 10
-128.39996337890628
 20
34.99999237060546
 10
-128.39996337890628
 20
34.99999237060546
 10
-70.44404344016387
 20
34.88416573109086
 10
-1.9999999999999942
 20
34.99999237060546
 10
-1.9999999999999942
 20
-1.3999938964843892
 10
-65.19998168945314
 20
-1.399993896484396
 10
-128.39996337890628
 20
-1.399993896484396
 73
1
 75
0
 76
0
 98
0
  0
DIMENSION
  8
1
 70
1
 10
-65.19998168945314
 20
-1.399993896484396
 30
0.0
 13
-128.39996337890628
 23
-1.399993896484396
 33
0.0
 14
-1.9999999999999942
 24
-1.399993896484396
 34
0.0
 40
2.5
  1
126.40
 50
0
  0
DIMENSION
  8
1
 70
1
 10
121.05154339656067
 20
2.938144257198078
 30
0.0
 13
64.63917365835762
 23
2.9381442571980756
 33
0.0
 14
177.46391313476371
 24
2.93814425719808
 34
0.0
 40
2.5
  1
112.82
 50
2.2552179220435138e-15
  0
DIMENSION
  8
1
 70
1
 10
108.9463944368074
 20
22.682470527292494
 30
0.0
 13
64.63917365835762
 23
2.93814425719808
 33
0.0
 14
153.25361521525718
 24
42.426796797386906
 34
0.0
 40
2.5
  1
97.01
 50
24.018862594767423
  0
CIRCLE
  8
0
 10
34.90515377551311
 20
-62.08889349458491
 30
0.0
 40
27.582274236035598
  0
DIMENSION
  8
0
 70
3
 10
30.32536383405472
 20
-74.0253360315638
 30
0.0
 13
22.02879945648275
 23
-85.75495645051305
 33
0.0
 14
38.62192821162669
 24
-62.29571561261456
 34
0.0
 40
2.5
  1
28.73
  0
CIRCLE
  8
0
 10
108.65200637401902
 20
-59.343864210985345
 30
0.0
 40
18.635103711055198
  0
DIMENSION
  8
0
 70
3
 10
116.75625499318127
 20
-63.9414643348818
 30
0.0
 13
108.65200637401902
 23
-59.343864210985345
 33
0.0
 14
124.8605036123435
 24
-68.53906445877826
 34
0.0
 40
2.5
  1
18.64
  0
DIMENSION
  8
0
 70
2
 10
103.8553847176874
 20
34.92742116187058
 30
0.0
 13
129.04331729575068
 23
81.91544933757574
 33
0.0
 14
153.25361521525718
 24
42.426796797386906
 34
0.0
 15
64.63917365835762
 25
2.9381442571980756
 35
0.0
 40
2.5
  1
26.78
  0
ARC
  8
0
 10
35.24762275946925
 20
99.37064361548964
 30
0.0
 40
16.682492457830406
 50
296.04076785765153
 51
180.06971548084445
  0
DIMENSION
  8
0
 70
2
 10
18.706353851691773
 20
95.67879447912092
 30
0.0
 13
18.56514265098822
 23
99.35034495289555
 33
0.0
 14
42.57141307720985
 24
84.38172604325189
 34
0.0
 15
35.24762275946925
 25
99.37064361548964
 35
0.0
 40
2.5
  1
115.97
  0
HATCH
  8
0
  2
ANSI31
 70
0
 71
0
 41
1
 52
0
 91
1
 92
0
 93
0
 73
1
 75
0
 76
0
 98
0
  0
HATCH
  8
0
  2
ANSI31
 70
0
 71
0
 41
1
 52
0
 91
1
 92
0
 93
0
 73
1
 75
0
 76
0
 98
0
  0
POLYLINE
  8
0
 66
1
 70
1
  0
VERTEX
  8
0
 10
-109.21204649392571
 20
-35.57742059625673
 30
0.0
  0
VERTEX
  8
0
 10
-38.15842360398502
 20
-35.57742059625673
 30
0.0
  0
VERTEX
  8
0
 10
-38.15842360398502
 20
-66.34708186118598
 30
0.0
  0
VERTEX
  8
0
 10
-109.21204649392571
 20
-66.34708186118598
 30
0.0
  0
SEQEND
  0
HATCH
  8
0
  2
ANSI31
 70
0
 71
0
 41
1
 52
0
 91
1
 92
0
 93
8
 10
-109.21204649392571
 20
-35.57742059625673
 10
-73.68523504895536
 20
-35.57742059625673
 10
-38.15842360398502
 20
-35.57742059625673
 10
-38.15842360398502
 20
-50.96225122872136
 10
-38.15842360398502
 20
-66.34708186118598
 10
-73.68523504895536
 20
-66.34708186118598
 10
-109.21204649392571
 20
-66.34708186118598
 10
-109.21204649392571
 20
-50.96225122872136
 73
1
 75
0
 76
0
 98
0
  0
DONUT
  8
0
 10
32.21220026322327
 20
-1.1121845118976692
 30
0.0
 40
12.5
 41
25
  0
SPLINE
  8
0
 71
3
 72
12
 73
8
 40
0
 40
0
 40
0
 40
0
 40
1
 40
2
 40
3
 40
4
 40
5
 40
5
 40
5
 40
5
 10
-119.85746473421956
 20
-19.613421491107943
 30
0.0
 10
-102.02118063694614
 20
-9.192237341409822
 30
0.0
 10
-93.00283629123501
 20
-25.826055649064187
 30
0.0
 10
-76.16859809954138
 20
-11.99793223927427
 30
0.0
 10
-52.92130586585225
 20
-19.613421491107943
 30
0.0
 10
-45.706633447261424
 20
-6.787328697007357
 30
0.0
 10
-28.271158538285633
 20
-26.627689315549922
 30
0.0
 10
-11.837737179834889
 20
-12.79955826081478
 30
0.0
  0
DIMENSION
  8
0
 70
1
 10
-14.293236982874866
 20
-25.19801042552526
 30
0.0
 13
-119.85746473421956
 23
-19.613421491107943
 33
0.0
 14
-11.837737229135158
 24
-12.799558302299177
 34
0.0
 40
2.5
  1
108.23
 50
3.6094242104745318
  0
ENDSEC
  0
EOF
