  0
SECTION
  2
HEADER
  9
$ACADVER
  1
AC1015
  0
ENDSEC
  0
SECTION
  2
TABLES
  0
TABLE
  2
LTYPE
 70
1
  0
LTYPE
  2
CONTINUOUS
 70
0
  3
Solid line
 72
65
 73
0
 40
0.0
  0
ENDTAB
  0
TABLE
  2
LAYER
 70
4
  0
LAYER
  2
0
 70
0
 62
7
  6
CONTINUOUS
  0
LAYER
  2
1
 70
0
 62
7
  6
CONTINUOUS
  0
LAYER
  2
2
 70
0
 62
4
  6
CONTINUOUS
  0
LAYER
  2
01
 70
0
 62
3
  6
DASHDOT
  0
ENDTAB
  0
ENDSEC
  0
SECTION
  2
BLOCKS
  0
ENDSEC
  0
SECTION
  2
ENTITIES
  0
LINE
  8
0
 10
-41.14821161906991
 20
1.57870276721356
 30
0.0
 11
-36.201820232548144
 21
0.8484889277505641
 31
0.0
  0
LINE
  8
0
 10
-36.201820232548144
 20
0.8484889277505641
 30
0.0
 11
-31.25542884602638
 21
0.11827508828756805
 31
0.0
  0
LINE
  8
0
 10
-31.25542884602638
 20
0.11827508828756805
 30
0.0
 11
0
 21
0
 31
0.0
  0
LINE
  8
0
 10
0
 20
0
 30
0.0
 11
30.501221260908043
 21
0.11827508828756805
 31
0.0
  0
LINE
  8
0
 10
30.501221260908043
 20
0.11827508828756805
 30
0.0
 11
35.44761264742981
 21
0.8484889277505641
 31
0.0
  0
LINE
  8
0
 10
35.44761264742981
 20
0.8484889277505641
 30
0.0
 11
40.394004033951575
 21
1.57870276721356
 31
0.0
  0
LINE
  8
0
 10
30.501221260908043
 20
0.11827508828756805
 30
0.0
 11
30
 21
-40
 31
0.0
  0
LINE
  8
0
 10
-31.25542884602638
 20
0.11827508828756805
 30
0.0
 11
-30
 21
-40
 31
0.0
  0
LINE
  8
0
 10
-30
 20
-40
 30
0.0
 11
30
 21
-40
 31
0.0
  0
LINE
  8
0
 10
35.50083108213736
 20
0.05581201545778958
 30
0.0
 11
34.99960982122932
 21
-40.06246307282978
 31
0.0
  0
LINE
  8
0
 10
-36.252982483094144
 20
-0.03811431234672347
 30
0.0
 11
-34.99755363706777
 21
-40.15638940063429
 31
0.0
  0
LINE
  8
0
 10
40.50044090336668
 20
-0.006651057371988456
 30
0.0
 11
39.99921964245864
 21
-40.12492614565956
 31
0.0
  0
LINE
  8
0
 10
-31.255428846026376
 20
0.11827508828756764
 30
0.0
 11
-30
 21
-40
 31
0.0
  0
LINE
  8
0
 10
-41.25053612016191
 20
-0.19450371298101457
 30
0.0
 11
-39.995107274135535
 21
-40.31277880126858
 31
0.0
  0
LINE
  8
0
 10
-39.995107274135535
 20
-40.31277880126858
 30
0.0
 11
-34.99755363706777
 21
-40.15638940063429
 31
0.0
  0
LINE
  8
0
 10
-34.99755363706777
 20
-40.15638940063429
 30
0.0
 11
-30
 21
-40
 31
0.0
  0
LINE
  8
0
 10
30
 20
-40
 30
0.0
 11
34.99960982122932
 21
-40.06246307282978
 31
0.0
  0
LINE
  8
0
 10
34.99960982122932
 20
-40.06246307282978
 30
0.0
 11
39.99921964245864
 21
-40.12492614565956
 31
0.0
  0
CIRCLE
  8
0
 10
0.13409047427693563
 20
16.971728092778086
 30
0.0
 40
6.082762530298219
  0
CIRCLE
  8
0
 10
0.13409047427693563
 20
16.971728092778086
 30
0.0
 40
9.082762530298218
  0
HATCH
  8
0
  2
ANSI31
 70
0
 71
0
 41
1
 52
0
 91
1
 92
0
 93
5
 10
30
 20
-40
 10
34.99960982122932
 20
-40.06246307282978
 10
35.50083108213736
 20
0.05581201545778958
 10
30.501221260908043
 20
0.11827508828756805
 10
30.25061063045402
 20
-19.940862455856216
 73
1
 75
0
 76
0
 98
0
  0
HATCH
  8
0
  2
ANSI31
 70
0
 71
0
 41
1
 52
0
 91
1
 92
0
 93
5
 10
-31.255428846026376
 20
0.11827508828756764
 10
-30
 20
-40
 10
-34.99755363706777
 20
-40.15638940063429
 10
-36
 20
-17
 10
-36.201820232548144
 20
0.8484889277505641
 73
1
 75
0
 76
0
 98
0
  0
POLYLINE
  8
0
 66
1
 70
1
  0
VERTEX
  8
0
 10
3.1340904742769355
 20
29.971728092778086
 30
0.0
  0
VERTEX
  8
0
 10
0.11008494110662469
 20
32.1339146360385
 30
0.0
  0
VERTEX
  8
0
 10
-2.88074576114038
 20
29.92606685528056
 30
0.0
  0
VERTEX
  8
0
 10
-1.7051752565554341
 20
26.39935534152572
 30
0.0
  0
VERTEX
  8
0
 10
2.0121979736969307
 20
26.427575538267575
 30
0.0
  0
SEQEND
  0
POLYLINE
  8
0
 66
1
 70
1
  0
VERTEX
  8
0
 10
-2.8034915305440626
 20
29.985974592862213
 30
0.0
  0
VERTEX
  8
0
 10
-6.466163954354663
 20
30.621970527093268
 30
0.0
  0
VERTEX
  8
0
 10
-8.202860055728289
 20
27.335095603404397
 30
0.0
  0
VERTEX
  8
0
 10
-5.61352485069602
 20
24.667699249563903
 30
0.0
  0
VERTEX
  8
0
 10
-2.2765315843457765
 20
26.306032565111806
 30
0.0
  0
SEQEND
  0
POLYLINE
  8
0
 66
1
 70
1
  0
VERTEX
  8
0
 10
-8.159249392231251
 20
27.42258996434571
 30
0.0
  0
VERTEX
  8
0
 10
-11.73515151341703
 20
26.406428494794696
 30
0.0
  0
VERTEX
  8
0
 10
-11.873739051860307
 20
22.691532317687013
 30
0.0
  0
VERTEX
  8
0
 10
-8.383488739849652
 20
21.41176168510843
 30
0.0
  0
VERTEX
  8
0
 10
-6.087807879338866
 20
24.335716113478597
 30
0.0
  0
SEQEND
  0
POLYLINE
  8
0
 66
1
 70
1
  0
VERTEX
  8
0
 10
-11.872409582217827
 20
22.789283970755648
 30
0.0
  0
VERTEX
  8
0
 10
-14.653290130116451
 20
20.322228338869714
 30
0.0
  0
VERTEX
  8
0
 10
-13.166320143976069
 20
16.91509165643111
 30
0.0
  0
VERTEX
  8
0
 10
-9.466441604391726
 20
17.27642101425343
 30
0.0
  0
VERTEX
  8
0
 10
-8.666760898822663
 20
20.9068715209594
 30
0.0
  0
SEQEND
  0
POLYLINE
  8
0
 66
1
 70
1
  0
VERTEX
  8
0
 10
-13.207535185955713
 20
17.00373968789147
 30
0.0
  0
VERTEX
  8
0
 10
-14.642606662794096
 20
13.574420518017376
 30
0.0
  0
VERTEX
  8
0
 10
-11.82459179431527
 20
11.149868535994038
 30
0.0
  0
VERTEX
  8
0
 10
-8.647891347954403
 20
13.080732173486785
 30
0.0
  0
VERTEX
  8
0
 10
-9.502597368505253
 20
16.698623511121898
 30
0.0
  0
SEQEND
  0
POLYLINE
  8
0
 66
1
 70
1
  0
VERTEX
  8
0
 10
-11.900188203383653
 20
11.21185511601864
 30
0.0
  0
VERTEX
  8
0
 10
-11.705217103177292
 20
7.49949112758952
 30
0.0
  0
VERTEX
  8
0
 10
-8.114299757746565
 20
6.5377361011998545
 30
0.0
  0
VERTEX
  8
0
 10
-6.089961887685188
 20
9.655702794469113
 30
0.0
  0
VERTEX
  8
0
 10
-8.429769624704416
 20
12.544467213089296
 30
0.0
  0
SEQEND
  0
POLYLINE
  8
0
 66
1
 70
1
  0
VERTEX
  8
0
 10
-8.209304737958577
 20
6.560784027399313
 30
0.0
  0
VERTEX
  8
0
 10
-6.422907478266966
 20
3.300654437480018
 30
0.0
  0
VERTEX
  8
0
 10
-2.7703128758580298
 20
3.9921837448518414
 30
0.0
  0
VERTEX
  8
0
 10
-2.2992825241365105
 20
7.679701950943597
 30
0.0
  0
VERTEX
  8
0
 10
-5.660764359448729
 20
9.267184229070518
 30
0.0
  0
SEQEND
  0
POLYLINE
  8
0
 66
1
 70
1
  0
VERTEX
  8
0
 10
-3.620117110841397
 20
29.971728092778086
 30
0.0
  0
VERTEX
  8
0
 10
-0.5961115776710869
 20
32.1339146360385
 30
0.0
  0
VERTEX
  8
0
 10
2.3947191245759187
 20
29.92606685528056
 30
0.0
  0
VERTEX
  8
0
 10
1.2191486199909722
 20
26.39935534152572
 30
0.0
  0
VERTEX
  8
0
 10
-2.4982246102613925
 20
26.427575538267575
 30
0.0
  0
SEQEND
  0
POLYLINE
  8
0
 66
1
 70
1
  0
VERTEX
  8
0
 10
11.414161566819196
 20
11.21185511601864
 30
0.0
  0
VERTEX
  8
0
 10
11.219190466612835
 20
7.499491127589522
 30
0.0
  0
VERTEX
  8
0
 10
7.628273121182108
 20
6.5377361011998545
 30
0.0
  0
VERTEX
  8
0
 10
5.603935251120729
 20
9.655702794469114
 30
0.0
  0
VERTEX
  8
0
 10
7.9437429881399595
 20
12.544467213089295
 30
0.0
  0
SEQEND
  0
POLYLINE
  8
0
 66
1
 70
1
  0
VERTEX
  8
0
 10
7.72327810139412
 20
6.560784027399315
 30
0.0
  0
VERTEX
  8
0
 10
5.936880841702507
 20
3.30065443748002
 30
0.0
  0
VERTEX
  8
0
 10
2.284286239293571
 20
3.992183744851843
 30
0.0
  0
VERTEX
  8
0
 10
1.8132558875720515
 20
7.6797019509435955
 30
0.0
  0
VERTEX
  8
0
 10
5.174737722884272
 20
9.267184229070516
 30
0.0
  0
SEQEND
  0
POLYLINE
  8
0
 66
1
 70
1
  0
VERTEX
  8
0
 10
2.317464893979601
 20
29.985974592862213
 30
0.0
  0
VERTEX
  8
0
 10
5.9801373177902
 20
30.621970527093268
 30
0.0
  0
VERTEX
  8
0
 10
7.716833419163828
 20
27.335095603404397
 30
0.0
  0
VERTEX
  8
0
 10
5.1274982141315615
 20
24.667699249563903
 30
0.0
  0
VERTEX
  8
0
 10
1.7905049477813149
 20
26.306032565111806
 30
0.0
  0
SEQEND
  0
POLYLINE
  8
0
 66
1
 70
1
  0
VERTEX
  8
0
 10
7.6732227556667905
 20
27.42258996434571
 30
0.0
  0
VERTEX
  8
0
 10
11.24912487685257
 20
26.406428494794696
 30
0.0
  0
VERTEX
  8
0
 10
11.387712415295846
 20
22.691532317687013
 30
0.0
  0
VERTEX
  8
0
 10
7.897462103285191
 20
21.41176168510843
 30
0.0
  0
VERTEX
  8
0
 10
5.601781242774408
 20
24.335716113478597
 30
0.0
  0
SEQEND
  0
POLYLINE
  8
0
 66
1
 70
1
  0
VERTEX
  8
0
 10
11.386382945653367
 20
22.789283970755648
 30
0.0
  0
VERTEX
  8
0
 10
14.16726349355199
 20
20.322228338869714
 30
0.0
  0
VERTEX
  8
0
 10
12.680293507411612
 20
16.91509165643111
 30
0.0
  0
VERTEX
  8
0
 10
8.980414967827269
 20
17.27642101425343
 30
0.0
  0
VERTEX
  8
0
 10
8.180734262258202
 20
20.9068715209594
 30
0.0
  0
SEQEND
  0
POLYLINE
  8
0
 66
1
 70
1
  0
VERTEX
  8
0
 10
12.721508549391256
 20
17.00373968789147
 30
0.0
  0
VERTEX
  8
0
 10
14.156580026229639
 20
13.574420518017376
 30
0.0
  0
VERTEX
  8
0
 10
11.338565157750812
 20
11.149868535994038
 30
0.0
  0
VERTEX
  8
0
 10
8.161864711389946
 20
13.080732173486787
 30
0.0
  0
VERTEX
  8
0
 10
9.016570731940796
 20
16.698623511121898
 30
0.0
  0
SEQEND
  0
ARC
  8
0
 10
-0.3771037925591685
 20
4.676705372417188
 30
0.0
 40
31.212981990877623
 50
351.60233177402523
 51
188.39766822597477
  0
ARC
  8
0
 10
-0.3771037925591685
 20
4.676705372417188
 30
0.0
 40
36.21298199087762
 50
351.60233177402523
 51
188.39766822597477
  0
ARC
  8
0
 10
-0.3771037925591685
 20
4.676705372417188
 30
0.0
 40
41.21298199087762
 50
351.60233177402523
 51
188.39766822597477
  0
ENDSEC
  0
EOF
