  0
SECTION
  2
HEADER
  9
$ACADVER
  1
AC1015
  0
ENDSEC
  0
SECTION
  2
TABLES
  0
TABLE
  2
LTYPE
 70
1
  0
LTYPE
  2
CONTINUOUS
 70
0
  3
Solid line
 72
65
 73
0
 40
0.0
  0
ENDTAB
  0
TABLE
  2
LAYER
 70
1
  0
LAYER
  2
0
 70
0
 62
7
  6
CONTINUOUS
  0
ENDTAB
  0
ENDSEC
  0
SECTION
  2
ENTITIES
  0
ARC
  8
0
 10
-0.37710379255916876
 20
-4.440155195842052
 30
0.0
 40
36.21298199087762
 50
171.60233177402523
 51
8.39766822597478
  0
ARC
  8
0
 10
-0.37710379255916876
 20
-4.440155195842052
 30
0.0
 40
41.21298199087762
 50
171.60233177402523
 51
8.39766822597478
  0
ARC
  8
0
 10
-0.37710379255916876
 20
-4.440155195842052
 30
0.0
 40
31.212981990877623
 50
171.60233177402523
 51
8.39766822597478
  0
ARC
  8
0
 10
-0.37710379255916876
 20
-4.440155195842052
 30
0.0
 40
31.212981990877623
 50
171.60233177402523
 51
8.39766822597478
  0
LINE
  8
0
 10
-41.14821161906991
 20
1.57870276721356
 30
0.0
 11
-36.201820232548144
 21
0.8484889277505641
 31
0.0
  0
LINE
  8
0
 10
-36.201820232548144
 20
0.8484889277505641
 30
0.0
 11
-31.25542884602638
 21
0.11827508828756805
 31
0.0
  0
LINE
  8
0
 10
-31.25542884602638
 20
0.11827508828756805
 30
0.0
 11
0
 21
0
 31
0.0
  0
LINE
  8
0
 10
0
 20
0
 30
0.0
 11
30.501221260908043
 21
0.11827508828756805
 31
0.0
  0
LINE
  8
0
 10
30.501221260908043
 20
0.11827508828756805
 30
0.0
 11
35.44761264742981
 21
0.8484889277505641
 31
0.0
  0
LINE
  8
0
 10
35.44761264742981
 20
0.8484889277505641
 30
0.0
 11
40.394004033951575
 21
1.57870276721356
 31
0.0
  0
LINE
  8
0
 10
30.501221260908043
 20
0.11827508828756805
 30
0.0
 11
30
 21
-40
 31
0.0
  0
LINE
  8
0
 10
-31.25542884602638
 20
0.11827508828756805
 30
0.0
 11
-30
 21
-40
 31
0.0
  0
LINE
  8
0
 10
-30
 20
-40
 30
0.0
 11
30
 21
-40
 31
0.0
  0
LINE
  8
0
 10
35.50083108213736
 20
0.05581201545778958
 30
0.0
 11
34.99960982122932
 21
-40.06246307282978
 31
0.0
  0
LINE
  8
0
 10
-36.252982483094144
 20
-0.03811431234672347
 30
0.0
 11
-34.99755363706777
 21
-40.15638940063429
 31
0.0
  0
LINE
  8
0
 10
40.50044090336668
 20
-0.006651057371988456
 30
0.0
 11
39.99921964245864
 21
-40.12492614565956
 31
0.0
  0
LINE
  8
0
 10
-31.255428846026376
 20
0.11827508828756764
 30
0.0
 11
-30
 21
-40
 31
0.0
  0
LINE
  8
0
 10
-41.25053612016191
 20
-0.19450371298101457
 30
0.0
 11
-39.995107274135535
 21
-40.31277880126858
 31
0.0
  0
LINE
  8
0
 10
-39.995107274135535
 20
-40.31277880126858
 30
0.0
 11
-34.99755363706777
 21
-40.15638940063429
 31
0.0
  0
LINE
  8
0
 10
-34.99755363706777
 20
-40.15638940063429
 30
0.0
 11
-30
 21
-40
 31
0.0
  0
LINE
  8
0
 10
30
 20
-40
 30
0.0
 11
34.99960982122932
 21
-40.06246307282978
 31
0.0
  0
LINE
  8
0
 10
34.99960982122932
 20
-40.06246307282978
 30
0.0
 11
39.99921964245864
 21
-40.12492614565956
 31
0.0
  0
CIRCLE
  8
0
 10
0
 20
10
 30
0.0
 40
6.082762530298219
  0
CIRCLE
  8
0
 10
0
 20
10
 30
0.0
 40
9.082762530298218
  0
HATCH
  8
0
  2
ANSI31
 70
0
 71
0
 41
1
 52
0
 91
1
 92
0
 93
5
 10
30
 20
-40
 10
34.99960982122932
 20
-40.06246307282978
 10
35.50083108213736
 20
0.05581201545778958
 10
30.501221260908043
 20
0.11827508828756805
 10
30.25061063045402
 20
-19.940862455856216
 73
1
 75
0
 76
0
 98
0
  0
HATCH
  8
0
  2
ANSI31
 70
0
 71
0
 41
1
 52
0
 91
1
 92
0
 93
5
 10
-31.255428846026376
 20
0.11827508828756764
 10
-30
 20
-40
 10
-34.99755363706777
 20
-40.15638940063429
 10
-36
 20
-17
 10
-36.201820232548144
 20
0.8484889277505641
 73
1
 75
0
 76
0
 98
0
  0
POLYLINE
  8
0
 66
1
 70
1
  0
VERTEX
  8
0
 10
3
 20
23
 30
0.0
  0
VERTEX
  8
0
 10
-0.024005533170310945
 20
25.162186543260407
 30
0.0
  0
VERTEX
  8
0
 10
-3.0148362354173157
 20
22.954338762502474
 30
0.0
  0
VERTEX
  8
0
 10
-1.8392657308323697
 20
19.427627248747633
 30
0.0
  0
VERTEX
  8
0
 10
1.8781074994199953
 20
19.455847445489486
 30
0.0
  0
SEQEND
  0
POLYLINE
  8
0
 66
1
 70
1
  0
VERTEX
  8
0
 10
-2.937582004820998
 20
23.014246500084123
 30
0.0
  0
VERTEX
  8
0
 10
-6.600254428631598
 20
23.650242434315178
 30
0.0
  0
VERTEX
  8
0
 10
-8.336950530005225
 20
20.36336751062631
 30
0.0
  0
VERTEX
  8
0
 10
-5.747615324972957
 20
17.695971156785816
 30
0.0
  0
VERTEX
  8
0
 10
-2.410622058622712
 20
19.33430447233372
 30
0.0
  0
SEQEND
  0
POLYLINE
  8
0
 66
1
 70
1
  0
VERTEX
  8
0
 10
-8.293339866508187
 20
20.450861871567625
 30
0.0
  0
VERTEX
  8
0
 10
-11.869241987693966
 20
19.43470040201661
 30
0.0
  0
VERTEX
  8
0
 10
-12.007829526137243
 20
15.719804224908925
 30
0.0
  0
VERTEX
  8
0
 10
-8.517579214126588
 20
14.440033592330344
 30
0.0
  0
VERTEX
  8
0
 10
-6.221898353615803
 20
17.36398802070051
 30
0.0
  0
SEQEND
  0
POLYLINE
  8
0
 66
1
 70
1
  0
VERTEX
  8
0
 10
-12.006500056494763
 20
15.817555877977558
 30
0.0
  0
VERTEX
  8
0
 10
-14.787380604393388
 20
13.350500246091627
 30
0.0
  0
VERTEX
  8
0
 10
-13.300410618253006
 20
9.943363563653024
 30
0.0
  0
VERTEX
  8
0
 10
-9.600532078668662
 20
10.304692921475345
 30
0.0
  0
VERTEX
  8
0
 10
-8.800851373099599
 20
13.935143428181313
 30
0.0
  0
SEQEND
  0
POLYLINE
  8
0
 66
1
 70
1
  0
VERTEX
  8
0
 10
-13.34162566023265
 20
10.032011595113385
 30
0.0
  0
VERTEX
  8
0
 10
-14.776697137071032
 20
6.60269242523929
 30
0.0
  0
VERTEX
  8
0
 10
-11.958682268592206
 20
4.178140443215952
 30
0.0
  0
VERTEX
  8
0
 10
-8.781981822231339
 20
6.1090040807087
 30
0.0
  0
VERTEX
  8
0
 10
-9.63668784278219
 20
9.726895418343812
 30
0.0
  0
SEQEND
  0
POLYLINE
  8
0
 66
1
 70
1
  0
VERTEX
  8
0
 10
-12.03427867766059
 20
4.240127023240554
 30
0.0
  0
VERTEX
  8
0
 10
-11.839307577454228
 20
0.5277630348114339
 30
0.0
  0
VERTEX
  8
0
 10
-8.248390232023501
 20
-0.43399199157823176
 30
0.0
  0
VERTEX
  8
0
 10
-6.224052361962124
 20
2.6839747016910263
 30
0.0
  0
VERTEX
  8
0
 10
-8.563860098981353
 20
5.572739120311209
 30
0.0
  0
SEQEND
  0
POLYLINE
  8
0
 66
1
 70
1
  0
VERTEX
  8
0
 10
-8.343395212235514
 20
-0.41094406537877326
 30
0.0
  0
VERTEX
  8
0
 10
-6.5569979525439015
 20
-3.671073655298068
 30
0.0
  0
VERTEX
  8
0
 10
-2.9044033501349653
 20
-2.979544347926245
 30
0.0
  0
VERTEX
  8
0
 10
-2.433372998413446
 20
0.7079738581655111
 30
0.0
  0
VERTEX
  8
0
 10
-5.794854833725665
 20
2.2954561362924313
 30
0.0
  0
SEQEND
  0
POLYLINE
  8
0
 66
1
 70
1
  0
VERTEX
  8
0
 10
-3.7542075851183325
 20
23
 30
0.0
  0
VERTEX
  8
0
 10
-0.7302020519480226
 20
25.162186543260407
 30
0.0
  0
VERTEX
  8
0
 10
2.260628650298983
 20
22.954338762502474
 30
0.0
  0
VERTEX
  8
0
 10
1.0850581457140367
 20
19.427627248747633
 30
0.0
  0
VERTEX
  8
0
 10
-2.632315084538328
 20
19.455847445489486
 30
0.0
  0
SEQEND
  0
POLYLINE
  8
0
 66
1
 70
1
  0
VERTEX
  8
0
 10
11.28007109254226
 20
4.240127023240554
 30
0.0
  0
VERTEX
  8
0
 10
11.085099992335898
 20
0.5277630348114357
 30
0.0
  0
VERTEX
  8
0
 10
7.4941826469051716
 20
-0.43399199157823176
 30
0.0
  0
VERTEX
  8
0
 10
5.469844776843794
 20
2.683974701691028
 30
0.0
  0
VERTEX
  8
0
 10
7.809652513863023
 20
5.572739120311208
 30
0.0
  0
SEQEND
  0
POLYLINE
  8
0
 66
1
 70
1
  0
VERTEX
  8
0
 10
7.589187627117184
 20
-0.4109440653787715
 30
0.0
  0
VERTEX
  8
0
 10
5.802790367425572
 20
-3.6710736552980663
 30
0.0
  0
VERTEX
  8
0
 10
2.1501957650166355
 20
-2.979544347926243
 30
0.0
  0
VERTEX
  8
0
 10
1.679165413295116
 20
0.7079738581655093
 30
0.0
  0
VERTEX
  8
0
 10
5.0406472486073355
 20
2.2954561362924295
 30
0.0
  0
SEQEND
  0
POLYLINE
  8
0
 66
1
 70
1
  0
VERTEX
  8
0
 10
2.1833744197026657
 20
23.014246500084123
 30
0.0
  0
VERTEX
  8
0
 10
5.846046843513265
 20
23.650242434315178
 30
0.0
  0
VERTEX
  8
0
 10
7.582742944886892
 20
20.36336751062631
 30
0.0
  0
VERTEX
  8
0
 10
4.993407739854625
 20
17.695971156785816
 30
0.0
  0
VERTEX
  8
0
 10
1.6564144735043793
 20
19.33430447233372
 30
0.0
  0
SEQEND
  0
POLYLINE
  8
0
 66
1
 70
1
  0
VERTEX
  8
0
 10
7.539132281389854
 20
20.450861871567625
 30
0.0
  0
VERTEX
  8
0
 10
11.115034402575633
 20
19.43470040201661
 30
0.0
  0
VERTEX
  8
0
 10
11.25362194101891
 20
15.719804224908925
 30
0.0
  0
VERTEX
  8
0
 10
7.763371629008255
 20
14.440033592330344
 30
0.0
  0
VERTEX
  8
0
 10
5.467690768497471
 20
17.36398802070051
 30
0.0
  0
SEQEND
  0
POLYLINE
  8
0
 66
1
 70
1
  0
VERTEX
  8
0
 10
11.25229247137643
 20
15.817555877977558
 30
0.0
  0
VERTEX
  8
0
 10
14.033173019275054
 20
13.350500246091627
 30
0.0
  0
VERTEX
  8
0
 10
12.546203033134676
 20
9.943363563653023
 30
0.0
  0
VERTEX
  8
0
 10
8.846324493550332
 20
10.304692921475343
 30
0.0
  0
VERTEX
  8
0
 10
8.046643787981266
 20
13.935143428181313
 30
0.0
  0
SEQEND
  0
POLYLINE
  8
0
 66
1
 70
1
  0
VERTEX
  8
0
 10
12.58741807511432
 20
10.032011595113385
 30
0.0
  0
VERTEX
  8
0
 10
14.022489551952702
 20
6.60269242523929
 30
0.0
  0
VERTEX
  8
0
 10
11.204474683473876
 20
4.178140443215952
 30
0.0
  0
VERTEX
  8
0
 10
8.02777423711301
 20
6.109004080708701
 30
0.0
  0
VERTEX
  8
0
 10
8.88248025766386
 20
9.726895418343812
 30
0.0
  0
SEQEND
  0
ENDSEC
  0
EOF
