  0
SECTION
  2
HEADER
  9
$ACADVER
  1
AC1015
  0
ENDSEC
  0
SECTION
  2
TABLES
  0
TABLE
  2
LTYPE
 70
1
  0
LTYPE
  2
CONTINUOUS
 70
0
  3
Solid line
 72
65
 73
0
 40
0.0
  0
ENDTAB
  0
TABLE
  2
LAYER
 70
1
  0
LAYER
  2
0
 70
0
 62
7
  6
CONTINUOUS
  0
ENDTAB
  0
ENDSEC
  0
SECTION
  2
BLOCKS
  0
BLOCK
  8
0
  2
STAR
 70
0
 10
20
 20
50
 30
0.0
  3
STAR
  0
LINE
  8
0
 10
-125
 20
0
 30
0.0
 11
-45
 21
0
 31
0.0
  0
LINE
  8
0
 10
84.46362299869365
 20
0
 30
0.0
 11
175
 21
0
 31
0.0
  0
ARC
  8
0
 10
84.46362299869365
 20
-30
 30
0.0
 40
30
 50
90
 51
176.63353933657018
  0
ARC
  8
0
 10
85.50898183219223
 20
-29.630203052930256
 30
0.0
 40
30
 50
72
 51
162
  0
LINE
  8
0
 10
3.1149486126255255
 20
146.43178657047088
 30
0.0
 11
-70.13051899056845
 21
199.6477337678302
 31
0.0
  0
ARC
  8
0
 10
20.748506181399726
 20
170.70229640171928
 30
0.0
 40
30
 50
234
 51
320.6335393365702
  0
ARC
  8
0
 10
19.68543192804902
 20
171.01757089275603
 30
0.0
 40
30
 50
216
 51
306
  0
LINE
  8
0
 10
-17.143035952133182
 20
-19.849568379398562
 30
0.0
 11
10.834243150407602
 21
-105.95477968824565
 31
0.0
  0
ARC
  8
0
 10
-45.674731440987784
 20
-29.12007821064698
 30
0.0
 40
30
 50
18
 51
104.63353933657021
  0
LINE
  8
0
 10
186.19483501994875
 20
37.543891416988274
 30
0.0
 11
114.58549025252852
 21
65.55894187521216
 31
0.0
  0
LINE
  8
0
 10
96.98374600328526
 20
102.76752905440487
 30
0.0
 11
124.96102510582607
 21
188.87274036325195
 31
0.0
  0
ARC
  8
0
 10
125.51544149213987
 20
93.49701922315646
 30
0.0
 40
30
 50
162
 51
248.6335393365702
  0
LINE
  8
0
 10
172.57457932191576
 20
23.312158080088217
 30
0.0
 11
107.85321977191998
 21
70.33497826348608
 31
0.0
  0
LINE
  8
0
 10
101.21626750944576
 20
112.23904566350869
 30
0.0
 11
145.30016143138124
 21
172.91532024162976
 31
0.0
  0
ARC
  8
0
 10
125.48677734069418
 20
94.6054880947345
 30
0.0
 40
30
 50
144
 51
234
  0
LINE
  8
0
 10
92.71405679700966
 20
211.12136164064052
 30
0.0
 11
43.94165601519074
 21
151.67395436182207
 31
0.0
  0
LINE
  8
0
 10
102.04034904681902
 20
193.76988124490543
 30
0.0
 11
37.318989496823214
 21
146.7470610615076
 31
0.0
  0
LINE
  8
0
 10
-4.585077903199409
 20
153.38401332398183
 30
0.0
 11
-48.66897182513489
 21
214.0602879021029
 31
0.0
  0
LINE
  8
0
 10
-101.25507645950648
 20
175.85424650309216
 30
0.0
 11
-59.78873308818228
 21
111.09867780350056
 31
0.0
  0
LINE
  8
0
 10
-67.41928166247126
 20
70.65025275452284
 30
0.0
 11
-140.66474926566525
 21
17.434305557163526
 31
0.0
  0
ARC
  8
0
 10
-85.05283923124546
 20
94.92076258577127
 30
0.0
 40
30
 50
306
 51
32.63353933657015
  0
LINE
  8
0
 10
-81.87085516207657
 20
179.36217520030044
 30
0.0
 11
-57.149495612080784
 21
103.27765389668815
 31
0.0
  0
LINE
  8
0
 10
-76.41068126968698
 20
65.47544857658512
 30
0.0
 11
-147.7399199918235
 21
42.299173998464084
 31
0.0
  0
ARC
  8
0
 10
-85.6811911009354
 20
94.00714406543973
 30
0.0
 40
30
 50
288
 51
18
  0
LINE
  8
0
 10
-15
 20
-30.000000000000004
 30
0.0
 11
-15
 21
-105
 31
0.0
  0
ARC
  8
0
 10
-45
 20
-30.000000000000004
 30
0.0
 40
30
 50
0
 51
90
  0
LINE
  8
0
 10
-127.65381535745195
 20
-19.519499560720902
 30
0.0
 11
-53.25380498298075
 21
-0.09323469907889148
 31
0.0
  0
LINE
  8
0
 10
50
 20
-105
 30
0.0
 11
54.51539180344378
 21
-28.238339341455887
 31
0.0
  0
LINE
  8
0
 10
32.25592679334183
 20
-96.44421452529409
 30
0.0
 11
56.977286343337624
 21
-20.359693221681823
 31
0.0
  0
LINE
  8
0
 10
94.77949166344065
 20
-1.0985075640756392
 30
0.0
 11
166.10873038557716
 21
-24.2747821421967
 31
0.0
  0
ENDBLK
  8
0
  0
ENDSEC
  0
SECTION
  2
ENTITIES
  0
INSERT
  8
0
  2
STAR
 10
35
 20
30
 30
0.0
 41
2
 42
2
 43
1.0
 50
0
  0
ENDSEC
  0
EOF
