  0
SECTION
  2
HEADER
  9
$ACADVER
  1
AC1015
  0
ENDSEC
  0
SECTION
  2
TABLES
  0
TABLE
  2
LTYPE
 70
1
  0
LTYPE
  2
CONTINUOUS
 70
0
  3
Solid line
 72
65
 73
0
 40
0.0
  0
ENDTAB
  0
TABLE
  2
LAYER
 70
2
  0
LAYER
  2
0
 70
0
 62
7
  6
CONTINUOUS
  0
LAYER
  2
1
 70
0
 62
3
  6
CONTINUOUS
  0
ENDTAB
  0
ENDSEC
  0
SECTION
  2
BLOCKS
  0
ENDSEC
  0
SECTION
  2
ENTITIES
  0
LINE
  8
0
 10
-350.20125929502166
 20
95.71776744535863
 30
0.0
 11
-217.93219360136794
 21
93.71369092408948
 31
0.0
  0
LINE
  8
0
 10
-217.93219360136794
 20
93.71369092408948
 30
0.0
 11
-215.92811708009873
 21
20.765302491914653
 31
0.0
  0
LINE
  8
0
 10
-215.92811708009873
 20
20.765302491914653
 30
0.0
 11
-349.39962562853594
 21
24.773455534452935
 31
0.0
  0
LINE
  8
0
 10
-349.39962562853594
 20
24.773455534452935
 30
0.0
 11
-350.20125929502166
 21
95.71776744535863
 31
0.0
  0
HATCH
  8
0
  2
ANSI33
 70
0
 71
0
 41
1
 52
0
 91
1
 92
0
 93
4
 10
-350.20125929502166
 20
95.71776744535863
 10
-217.93219360136794
 20
93.71369092408948
 10
-215.92811708009873
 20
20.765302491914653
 10
-349.39962562853594
 20
24.773455534452935
 73
1
 75
0
 76
0
 98
0
  0
POLYLINE
  8
0
 66
1
 70
1
  0
VERTEX
  8
0
 10
-350.1330054133076
 20
-2.2925686693048775
 30
0.0
  0
VERTEX
  8
0
 10
-216.06791852341792
 20
-2.2925686693048775
 30
0.0
  0
VERTEX
  8
0
 10
-216.06791852341792
 20
-51.76896289784614
 30
0.0
  0
VERTEX
  8
0
 10
-350.1330054133076
 20
-51.76896289784614
 30
0.0
  0
SEQEND
  0
POLYLINE
  8
0
 66
1
 70
1
  0
VERTEX
  8
0
 10
-180.7606132323888
 20
88.459973580743
 30
0.0
  0
VERTEX
  8
0
 10
-46.69552634249911
 20
88.459973580743
 30
0.0
  0
VERTEX
  8
0
 10
-46.69552634249911
 20
38.98357935220173
 30
0.0
  0
VERTEX
  8
0
 10
-180.7606132323888
 20
38.98357935220173
 30
0.0
  0
SEQEND
  0
POLYLINE
  8
0
 66
1
 70
1
  0
VERTEX
  8
0
 10
-179.64915678085663
 20
3.9879900842468317
 30
0.0
  0
VERTEX
  8
0
 10
-45.58406989096693
 20
3.9879900842468317
 30
0.0
  0
VERTEX
  8
0
 10
-45.58406989096693
 20
-45.488404144294435
 30
0.0
  0
VERTEX
  8
0
 10
-179.64915678085663
 20
-45.488404144294435
 30
0.0
  0
SEQEND
  0
HATCH
  8
0
  2
ANSI31
 70
0
 71
0
 41
1
 52
0
 91
1
 92
0
 93
4
 10
-350.1330054133076
 20
-2.2925686693048775
 10
-216.06791852341792
 20
-2.2925686693048775
 10
-216.06791852341792
 20
-51.76896289784614
 10
-350.1330054133076
 20
-51.76896289784614
 73
1
 75
0
 76
0
 98
0
  0
HATCH
  8
0
  2
ANSI32
 70
0
 71
0
 41
1
 52
0
 91
1
 92
0
 93
4
 10
-180.7606132323888
 20
88.459973580743
 10
-46.69552634249911
 20
88.459973580743
 10
-46.69552634249911
 20
38.98357935220173
 10
-180.7606132323888
 20
38.98357935220173
 73
1
 75
0
 76
0
 98
0
  0
POLYLINE
  8
0
 66
1
 70
1
  0
VERTEX
  8
0
 10
-181.70815356493233
 20
-81.11635507065259
 30
0.0
  0
VERTEX
  8
0
 10
-47.64306667504263
 20
-81.11635507065259
 30
0.0
  0
VERTEX
  8
0
 10
-47.64306667504263
 20
-130.59274929919385
 30
0.0
  0
VERTEX
  8
0
 10
-181.70815356493233
 20
-130.59274929919385
 30
0.0
  0
SEQEND
  0
POLYLINE
  8
0
 66
1
 70
1
  0
VERTEX
  8
0
 10
13.515964695348174
 20
88.64375714964115
 30
0.0
  0
VERTEX
  8
0
 10
147.58105158523787
 20
88.64375714964115
 30
0.0
  0
VERTEX
  8
0
 10
147.58105158523787
 20
39.16736292109988
 30
0.0
  0
VERTEX
  8
0
 10
13.515964695348174
 20
39.16736292109988
 30
0.0
  0
SEQEND
  0
POLYLINE
  8
0
 66
1
 70
1
  0
VERTEX
  8
0
 10
13.515964695348174
 20
8.11809331977986
 30
0.0
  0
VERTEX
  8
0
 10
147.58105158523787
 20
8.11809331977986
 30
0.0
  0
VERTEX
  8
0
 10
147.58105158523787
 20
-41.35830090876141
 30
0.0
  0
VERTEX
  8
0
 10
13.515964695348174
 20
-41.35830090876141
 30
0.0
  0
SEQEND
  0
POLYLINE
  8
0
 66
1
 70
1
  0
VERTEX
  8
0
 10
12.28658386351347
 20
-83.4722324859568
 30
0.0
  0
VERTEX
  8
0
 10
146.35167075340317
 20
-83.4722324859568
 30
0.0
  0
VERTEX
  8
0
 10
146.35167075340317
 20
-132.94862671449806
 30
0.0
  0
VERTEX
  8
0
 10
12.28658386351347
 20
-132.94862671449806
 30
0.0
  0
SEQEND
  0
HATCH
  8
0
  2
ANSI37
 70
0
 71
0
 41
1
 52
0
 91
1
 92
0
 93
4
 10
-179.64915678085663
 20
3.9879900842468317
 10
-45.58406989096693
 20
3.9879900842468317
 10
-45.58406989096693
 20
-45.488404144294435
 10
-179.64915678085663
 20
-45.488404144294435
 73
1
 75
0
 76
0
 98
0
  0
HATCH
  8
0
  2
ANSI38
 70
0
 71
0
 41
1
 52
0
 91
1
 92
0
 93
4
 10
-181.70815356493233
 20
-81.11635507065259
 10
-47.64306667504263
 20
-81.11635507065259
 10
-47.64306667504263
 20
-130.59274929919385
 10
-181.70815356493233
 20
-130.59274929919385
 73
1
 75
0
 76
0
 98
0
  0
HATCH
  8
0
  2
AR-BRICK
 70
0
 71
0
 41
1
 52
0
 91
1
 92
0
 93
8
 10
13.515964695348174
 20
88.64375714964115
 10
80.54850814029302
 20
88.64375714964115
 10
147.58105158523787
 20
88.64375714964115
 10
147.58105158523787
 20
63.90556003537051
 10
147.58105158523787
 20
39.16736292109988
 10
80.54850814029302
 20
39.16736292109988
 10
13.515964695348174
 20
39.16736292109988
 10
13.515964695348174
 20
63.90556003537051
 73
1
 75
0
 76
0
 98
0
  0
HATCH
  8
0
  2
AR-CONC
 70
0
 71
0
 41
1
 52
0
 91
1
 92
0
 93
8
 10
13.515964695348174
 20
8.11809331977986
 10
80.54850814029302
 20
8.11809331977986
 10
147.58105158523787
 20
8.11809331977986
 10
147.58105158523787
 20
-16.620103794490774
 10
147.58105158523787
 20
-41.35830090876141
 10
80.54850814029302
 20
-41.35830090876141
 10
13.515964695348174
 20
-41.35830090876141
 10
13.515964695348174
 20
-16.620103794490774
 73
1
 75
0
 76
0
 98
0
  0
HATCH
  8
0
  2
DIAGCROSS
 70
0
 71
0
 41
1
 52
0
 91
1
 92
0
 93
8
 10
12.28658386351347
 20
-83.4722324859568
 10
79.31912730845832
 20
-83.4722324859568
 10
146.35167075340317
 20
-83.4722324859568
 10
146.35167075340317
 20
-108.21042960022743
 10
146.35167075340317
 20
-132.94862671449806
 10
79.31912730845832
 20
-132.94862671449806
 10
12.28658386351347
 20
-132.94862671449806
 10
12.28658386351347
 20
-108.21042960022743
 73
1
 75
0
 76
0
 98
0
  0
DIMENSION
  8
0
 70
1
 10
-247.43591964324244
 20
5.21539751290544
 30
0.0
 13
-350.1330054133076
 23
-2.2925686693048775
 33
0.0
 14
-216.06791852341792
 24
-2.2925686693048775
 34
0.0
 40
2.5
  1
134.07
 50
0
  0
TEXT
  8
0
 10
-376.6891266399781
 20
-24.541637038247913
 30
0.0
 40
5
  1
ANSI31
 50
0
  0
POLYLINE
  8
0
 66
1
 70
1
  0
VERTEX
  8
0
 10
-331.3177398496223
 20
-72.09067607136669
 30
0.0
  0
VERTEX
  8
0
 10
-256.7380934810845
 20
-72.09067607136669
 30
0.0
  0
VERTEX
  8
0
 10
-256.7380934810845
 20
-128.59039946048753
 30
0.0
  0
VERTEX
  8
0
 10
-331.3177398496223
 20
-128.59039946048753
 30
0.0
  0
SEQEND
  0
HATCH
  8
0
  2
ANSI31
 70
0
 71
0
 41
1
 52
0
 91
1
 92
0
 93
4
 10
-349.17529751240517
 20
-84.05171080652603
 10
-307.74216064099534
 20
-84.05171080652603
 10
-307.74216064099534
 20
-115.44044602270426
 10
-349.17529751240517
 20
-115.44044602270426
 73
1
 75
0
 76
0
 98
0
  0
HATCH
  8
0
  2
ANSI31
 70
0
 71
0
 41
1
 52
0
 91
1
 92
0
 93
8
 10
-349.17529751240517
 20
-84.05171080652603
 10
-328.45872907670025
 20
-84.05171080652603
 10
-307.74216064099534
 20
-84.05171080652603
 10
-307.74216064099534
 20
-99.74607841461514
 10
-307.74216064099534
 20
-115.44044602270426
 10
-328.45872907670025
 20
-115.44044602270426
 10
-349.17529751240517
 20
-115.44044602270426
 10
-349.17529751240517
 20
-99.74607841461514
 73
1
 75
0
 76
0
 98
0
  0
HATCH
  8
0
  2
ANSI31
 70
0
 71
0
 41
0.5
 52
0
 91
1
 92
0
 93
8
 10
-349.17529751240517
 20
-84.05171080652603
 10
-328.45872907670025
 20
-84.05171080652603
 10
-307.74216064099534
 20
-84.05171080652603
 10
-307.74216064099534
 20
-99.74607841461514
 10
-307.74216064099534
 20
-115.44044602270426
 10
-328.45872907670025
 20
-115.44044602270426
 10
-349.17529751240517
 20
-115.44044602270426
 10
-349.17529751240517
 20
-99.74607841461514
 73
1
 75
0
 76
0
 98
0
  0
HATCH
  8
0
  2
ANSI31
 70
0
 71
0
 41
0.25
 52
0
 91
1
 92
0
 93
8
 10
-349.17529751240517
 20
-84.05171080652603
 10
-328.45872907670025
 20
-84.05171080652603
 10
-307.74216064099534
 20
-84.05171080652603
 10
-307.74216064099534
 20
-99.74607841461514
 10
-307.74216064099534
 20
-115.44044602270426
 10
-328.45872907670025
 20
-115.44044602270426
 10
-349.17529751240517
 20
-115.44044602270426
 10
-349.17529751240517
 20
-99.74607841461514
 73
1
 75
0
 76
0
 98
0
  0
HATCH
  8
0
  2
ANSI31
 70
0
 71
0
 41
0.1
 52
0
 91
1
 92
0
 93
8
 10
-349.17529751240517
 20
-84.05171080652603
 10
-328.45872907670025
 20
-84.05171080652603
 10
-307.74216064099534
 20
-84.05171080652603
 10
-307.74216064099534
 20
-99.74607841461514
 10
-307.74216064099534
 20
-115.44044602270426
 10
-328.45872907670025
 20
-115.44044602270426
 10
-349.17529751240517
 20
-115.44044602270426
 10
-349.17529751240517
 20
-99.74607841461514
 73
1
 75
0
 76
0
 98
0
  0
HATCH
  8
0
  2
ANSI31
 70
0
 71
0
 41
1
 52
0
 91
1
 92
0
 93
8
 10
-336.70184328525403
 20
-69.16992165098338
 10
-295.2687064138442
 20
-69.16992165098338
 10
-253.83556954243437
 20
-69.16992165098338
 10
-253.83556954243437
 20
-100.55865686716163
 10
-253.83556954243437
 20
-131.94739208333988
 10
-295.2687064138442
 20
-131.94739208333988
 10
-336.70184328525403
 20
-131.94739208333988
 10
-336.70184328525403
 20
-100.55865686716163
 73
1
 75
0
 76
0
 98
0
  0
HATCH
  8
0
  2
ANSI31
 70
0
 71
0
 41
1
 52
0
 91
1
 92
0
 93
4
 10
-336.70184328525403
 20
-69.16992165098338
 10
-253.83556954243437
 20
-69.16992165098338
 10
-253.83556954243437
 20
-131.94739208333988
 10
-336.70184328525403
 20
-131.94739208333988
 73
1
 75
0
 76
0
 98
0
  0
HATCH
  8
0
  2
ANSI32
 70
0
 71
0
 41
1
 52
0
 91
1
 92
0
 93
4
 10
-308.00839410524196
 20
-90.24092749504797
 10
-283.14851198239603
 20
-90.24092749504797
 10
-283.14851198239603
 20
-109.07416862475492
 10
-308.00839410524196
 20
-109.07416862475492
 73
1
 75
0
 76
0
 98
0
  0
HATCH
  8
0
  2
ANSI32
 70
0
 71
0
 41
1
 52
0
 91
1
 92
0
 93
4
 10
-308.00839410524196
 20
-90.24092749504797
 10
-283.14851198239603
 20
-90.24092749504797
 10
-283.14851198239603
 20
-109.07416862475492
 10
-308.00839410524196
 20
-109.07416862475492
 73
1
 75
0
 76
0
 98
0
  0
HATCH
  8
0
  2
ANSI32
 70
0
 71
0
 41
0.5
 52
0
 91
1
 92
0
 93
8
 10
-308.00839410524196
 20
-90.24092749504797
 10
-295.57845304381897
 20
-90.24092749504797
 10
-283.14851198239603
 20
-90.24092749504797
 10
-283.14851198239603
 20
-99.65754805990144
 10
-283.14851198239603
 20
-109.07416862475492
 10
-295.57845304381897
 20
-109.07416862475492
 10
-308.00839410524196
 20
-109.07416862475492
 10
-308.00839410524196
 20
-99.65754805990144
 73
1
 75
0
 76
0
 98
0
  0
HATCH
  8
0
  2
ANSI32
 70
0
 71
0
 41
1
 52
0
 91
1
 92
0
 93
8
 10
-319.1137641475746
 20
-80.99766772933674
 10
-294.2538820247287
 20
-80.99766772933674
 10
-269.39399990188275
 20
-80.99766772933674
 10
-269.39399990188275
 20
-99.83090885904369
 10
-269.39399990188275
 20
-118.66414998875064
 10
-294.2538820247287
 20
-118.66414998875064
 10
-319.1137641475746
 20
-118.66414998875064
 10
-319.1137641475746
 20
-99.83090885904369
 73
1
 75
0
 76
0
 98
0
  0
HATCH
  8
0
  2
ANSI33
 70
0
 71
0
 41
1
 52
0
 91
1
 92
0
 93
4
 10
-319.1137641475746
 20
-80.99766772933674
 10
-269.39399990188275
 20
-80.99766772933674
 10
-269.39399990188275
 20
-118.66414998875064
 10
-319.1137641475746
 20
-118.66414998875064
 73
1
 75
0
 76
0
 98
0
  0
HATCH
  8
0
  2
ANSI33
 70
0
 71
0
 41
1
 52
0
 91
1
 92
0
 93
4
 10
-319.1137641475746
 20
-80.99766772933674
 10
-269.39399990188275
 20
-80.99766772933674
 10
-269.39399990188275
 20
-118.66414998875064
 10
-322.31331080567867
 20
-116.21657604210347
 73
1
 75
0
 76
0
 98
0
  0
HATCH
  8
0
  2
ANSI32
 70
0
 71
0
 41
1
 52
0
 91
1
 92
0
 93
4
 10
-331.3177398496223
 20
-72.09067607136669
 10
-256.7380934810845
 20
-72.09067607136669
 10
-256.7380934810845
 20
-128.59039946048753
 10
-331.3177398496223
 20
-128.59039946048753
 73
1
 75
0
 76
0
 98
0
  0
POLYLINE
  8
0
 66
1
 70
1
  0
VERTEX
  8
0
 10
-313.7108405357124
 20
-149.93508328449218
 30
0.0
  0
VERTEX
  8
0
 10
-275.60864117086936
 20
-149.93508328449218
 30
0.0
  0
VERTEX
  8
0
 10
-275.60864117086936
 20
-182.84153248058573
 30
0.0
  0
VERTEX
  8
0
 10
-313.7108405357124
 20
-182.84153248058573
 30
0.0
  0
SEQEND
  0
HATCH
  8
0
  2
ANSI31
 70
0
 71
0
 41
1
 52
0
 91
1
 92
0
 93
8
 10
-313.7108405357124
 20
-149.93508328449218
 10
-294.6597408532909
 20
-149.93508328449218
 10
-275.60864117086936
 20
-149.93508328449218
 10
-275.60864117086936
 20
-166.38830788253895
 10
-275.60864117086936
 20
-182.84153248058573
 10
-294.6597408532909
 20
-182.84153248058573
 10
-313.7108405357124
 20
-182.84153248058573
 10
-313.7108405357124
 20
-166.38830788253895
 73
1
 75
0
 76
0
 98
0
  0
ENDSEC
  0
EOF
