  0
SECTION
  2
HEADER
  9
$ACADVER
  1
AC1015
  0
ENDSEC
  0
SECTION
  2
TABLES
  0
TABLE
  2
LTYPE
 70
1
  0
LTYPE
  2
CONTINUOUS
 70
0
  3
Solid line
 72
65
 73
0
 40
0.0
  0
ENDTAB
  0
TABLE
  2
LAYER
 70
1
  0
LAYER
  2
0
 70
0
 62
7
  6
CONTINUOUS
  0
ENDTAB
  0
ENDSEC
  0
SECTION
  2
BLOCKS
  0
ENDSEC
  0
SECTION
  2
ENTITIES
  0
3DFACE
  8
0
1001
WEBCAD
1000
S3D1
 10
80.24668982013017
 20
48.99202555879949
 30
1.2268092492828844
 11
80.79729347602606
 21
44.44898432955144
 31
1.1932765303343378
 12
80.79701755096926
 22
44.44898432955144
 32
1.1887229404959223
 13
80.79701755096926
 23
44.44898432955144
 33
1.1887229404959223
  0
3DFACE
  8
0
1001
WEBCAD
1000
S3D1
 10
80.24668982013017
 20
48.99202555879949
 30
1.2268092492828844
 11
80.79701755096926
 21
44.44898432955144
 31
1.1887229404959223
 12
80.24641389688587
 22
48.99202555879949
 32
1.22225571902155
 13
80.24641389688587
 23
48.99202555879949
 33
1.22225571902155
  0
3DFACE
  8
0
1001
WEBCAD
1000
S3D1
 10
78.62687403835727
 20
53.271040146201834
 30
1.3254588610236153
 11
80.24641389688587
 21
48.99202555879949
 31
1.22225571902155
 12
78.62659811330046
 22
53.271040146201834
 32
1.3209052711852
 13
78.62659811330046
 23
53.271040146201834
 33
1.3209052711852
  0
3DFACE
  8
0
1001
WEBCAD
1000
S3D1
 10
78.62687403835727
 20
53.271040146201834
 30
1.3254588610236153
 11
80.24668982013017
 21
48.99202555879949
 31
1.2268092492828844
 12
80.24641389688587
 22
48.99202555879949
 32
1.22225571902155
 13
80.24641389688587
 23
48.99202555879949
 33
1.22225571902155
  0
3DFACE
  8
0
1001
WEBCAD
1000
S3D1
 10
76.03198793435794
 20
57.037347977012374
 30
1.4834919361078667
 11
78.62659811330046
 21
53.271040146201834
 31
1.3209052711852
 12
76.03171200930113
 22
57.037347977012374
 32
1.4789383462694512
 13
76.03171200930113
 23
57.037347977012374
 33
1.4789383462694512
  0
3DFACE
  8
0
1001
WEBCAD
1000
S3D1
 10
76.03198793435794
 20
57.037347977012374
 30
1.4834919361078667
 11
78.62687403835727
 21
53.271040146201834
 31
1.3254588610236153
 12
78.62659811330046
 22
53.271040146201834
 32
1.3209052711852
 13
78.62659811330046
 23
53.271040146201834
 33
1.3209052711852
  0
3DFACE
  8
0
1001
WEBCAD
1000
S3D1
 10
72.61283439071704
 20
60.07206935152409
 30
1.6917243437466465
 11
76.03171200930113
 21
57.037347977012374
 31
1.4789383462694512
 12
72.61255846566024
 22
60.07206935152409
 32
1.6871707539082312
 13
72.61255846566024
 23
60.07206935152409
 33
1.6871707539082312
  0
3DFACE
  8
0
1001
WEBCAD
1000
S3D1
 10
72.61283439071704
 20
60.07206935152409
 30
1.6917243437466465
 11
76.03198793435794
 21
57.037347977012374
 31
1.4834919361078667
 12
76.03171200930113
 22
57.037347977012374
 32
1.4789383462694512
 13
76.03171200930113
 23
57.037347977012374
 33
1.4789383462694512
  0
3DFACE
  8
0
1001
WEBCAD
1000
S3D1
 10
68.5681233553795
 20
62.19883174166081
 30
1.9380542924060409
 11
72.61255846566024
 21
60.07206935152409
 31
1.6871707539082312
 12
68.5678398049095
 22
62.19883174166081
 32
1.9335009494612065
 13
68.5678398049095
 23
62.19883174166081
 33
1.9335009494612065
  0
3DFACE
  8
0
1001
WEBCAD
1000
S3D1
 10
68.5681233553795
 20
62.19883174166081
 30
1.9380542924060409
 11
72.61283439071704
 21
60.07206935152409
 31
1.6917243437466465
 12
72.61255846566024
 22
60.07206935152409
 32
1.6871707539082312
 13
72.61255846566024
 23
60.07206935152409
 33
1.6871707539082312
  0
3DFACE
  8
0
1001
WEBCAD
1000
S3D1
 10
64.1329102943193
 20
63.29403132662175
 30
2.208166258446565
 11
68.5678398049095
 21
62.19883174166081
 31
1.9335009494612065
 12
64.1326343697156
 22
63.29403132662175
 32
2.20361268350242
 13
64.1326343697156
 23
63.29403132662175
 33
2.20361268350242
  0
3DFACE
  8
0
1001
WEBCAD
1000
S3D1
 10
64.1329102943193
 20
63.29403132662175
 30
2.208166258446565
 11
68.5681233553795
 21
62.19883174166081
 31
1.9380542924060409
 12
68.5678398049095
 22
62.19883174166081
 32
1.9335009494612065
 13
68.5678398049095
 23
62.19883174166081
 33
1.9335009494612065
  0
3DFACE
  8
0
1001
WEBCAD
1000
S3D1
 10
59.56496998241229
 20
63.29403132662175
 30
2.4863618170431314
 11
64.1326343697156
 21
63.29403132662175
 31
2.20361268350242
 12
59.56469405780861
 22
63.29403132662175
 32
2.481808242098986
 13
59.56469405780861
 23
63.29403132662175
 33
2.481808242098986
  0
3DFACE
  8
0
1001
WEBCAD
1000
S3D1
 10
59.56496998241229
 20
63.29403132662175
 30
2.4863618170431314
 11
64.1329102943193
 21
63.29403132662175
 31
2.208166258446565
 12
64.1326343697156
 22
63.29403132662175
 32
2.20361268350242
 13
64.1326343697156
 23
63.29403132662175
 33
2.20361268350242
  0
3DFACE
  8
0
1001
WEBCAD
1000
S3D1
 10
55.129764547444964
 20
62.19883174166081
 30
2.7564735585314812
 11
59.56469405780861
 21
63.29403132662175
 31
2.481808242098986
 12
55.12948862284128
 22
62.19883174166081
 32
2.751919983587336
 13
55.12948862284128
 23
62.19883174166081
 33
2.751919983587336
  0
3DFACE
  8
0
1001
WEBCAD
1000
S3D1
 10
55.129764547444964
 20
62.19883174166081
 30
2.7564735585314812
 11
59.56496998241229
 21
63.29403132662175
 31
2.4863618170431314
 12
59.56469405780861
 22
63.29403132662175
 32
2.481808242098986
 13
59.56469405780861
 23
63.29403132662175
 33
2.481808242098986
  0
3DFACE
  8
0
1001
WEBCAD
1000
S3D1
 10
51.08505351256056
 20
60.07206935152409
 30
3.002803522085146
 11
55.12948862284128
 21
62.19883174166081
 31
2.751919983587336
 12
51.084769961637434
 22
60.07206935152409
 32
2.9982501642460413
 13
51.084769961637434
 23
60.07206935152409
 33
2.9982501642460413
  0
3DFACE
  8
0
1001
WEBCAD
1000
S3D1
 10
51.08505351256056
 20
60.07206935152409
 30
3.002803522085146
 11
55.129764547444964
 21
62.19883174166081
 31
2.7564735585314812
 12
55.12948862284128
 22
62.19883174166081
 32
2.751919983587336
 13
55.12948862284128
 23
62.19883174166081
 33
2.751919983587336
  0
3DFACE
  8
0
1001
WEBCAD
1000
S3D1
 10
47.665899968013406
 20
57.037347977012374
 30
3.2110358999353865
 11
51.084769961637434
 21
60.07206935152409
 31
2.9982501642460413
 12
47.66561641799652
 22
57.037347977012374
 32
3.206482571884822
 13
47.66561641799652
 23
57.037347977012374
 33
3.206482571884822
  0
3DFACE
  8
0
1001
WEBCAD
1000
S3D1
 10
47.665899968013406
 20
57.037347977012374
 30
3.2110358999353865
 11
51.08505351256056
 21
60.07206935152409
 31
3.002803522085146
 12
51.084769961637434
 22
60.07206935152409
 32
2.9982501642460413
 13
51.084769961637434
 23
60.07206935152409
 33
2.9982501642460413
  0
3DFACE
  8
0
1001
WEBCAD
1000
S3D1
 10
45.07101005198717
 20
53.27104014620183
 30
3.3690691208078345
 11
47.66561641799652
 21
57.037347977012374
 31
3.206482571884822
 12
45.070734127836616
 22
53.27104014620183
 32
3.364515560757959
 13
45.070734127836616
 23
53.27104014620183
 33
3.364515560757959
  0
3DFACE
  8
0
1001
WEBCAD
1000
S3D1
 10
45.07101005198717
 20
53.27104014620183
 30
3.3690691208078345
 11
47.665899968013406
 21
57.037347977012374
 31
3.2110358999353865
 12
47.66561641799652
 22
57.037347977012374
 32
3.206482571884822
 13
47.66561641799652
 23
57.037347977012374
 33
3.206482571884822
  0
3DFACE
  8
0
1001
WEBCAD
1000
S3D1
 10
43.451190455468605
 20
48.99202555879948
 30
3.4677187889711405
 11
45.07101005198717
 21
53.27104014620183
 31
3.3690691208078345
 12
45.070734127836616
 22
53.27104014620183
 32
3.364515560757959
 13
45.070734127836616
 23
53.27104014620183
 33
3.364515560757959
  0
3DFACE
  8
0
1001
WEBCAD
1000
S3D1
 10
43.451190455468605
 20
48.99202555879948
 30
3.4677187889711405
 11
45.070734127836616
 21
53.27104014620183
 31
3.364515560757959
 12
43.450914530411794
 22
48.99202555879948
 32
3.4631651991327255
 13
43.450914530411794
 23
48.99202555879948
 33
3.4631651991327255
  0
3DFACE
  8
0
1001
WEBCAD
1000
S3D1
 10
42.90058680138523
 20
44.448984329551436
 30
3.501251567496769
 11
43.451190455468605
 21
48.99202555879948
 31
3.4677187889711405
 12
43.450914530411794
 22
48.99202555879948
 32
3.4631651991327255
 13
43.450914530411794
 23
48.99202555879948
 33
3.4631651991327255
  0
3DFACE
  8
0
1001
WEBCAD
1000
S3D1
 10
42.90058680138523
 20
44.448984329551436
 30
3.501251567496769
 11
43.450914530411794
 21
48.99202555879948
 31
3.4631651991327255
 12
42.90031087632842
 22
44.448984329551436
 32
3.4966979776583536
 13
42.90031087632842
 23
44.448984329551436
 33
3.4966979776583536
  0
3DFACE
  8
0
1001
WEBCAD
1000
S3D1
 10
43.45119045546862
 20
39.905946915000655
 30
3.467718788971142
 11
42.90058680138523
 21
44.448984329551436
 31
3.501251567496769
 12
42.90031087632842
 22
44.448984329551436
 32
3.4966979776583536
 13
42.90031087632842
 23
44.448984329551436
 33
3.4966979776583536
  0
3DFACE
  8
0
1001
WEBCAD
1000
S3D1
 10
43.45119045546862
 20
39.905946915000655
 30
3.467718788971142
 11
42.90031087632842
 21
44.448984329551436
 31
3.4966979776583536
 12
43.45091453041181
 22
39.905946915000655
 32
3.463165199132727
 13
43.45091453041181
 23
39.905946915000655
 33
3.463165199132727
  0
3DFACE
  8
0
1001
WEBCAD
1000
S3D1
 10
45.07101005198719
 20
35.62693232759831
 30
3.3690691208078367
 11
43.45119045546862
 21
39.905946915000655
 31
3.467718788971142
 12
43.45091453041181
 22
39.905946915000655
 32
3.463165199132727
 13
43.45091453041181
 23
39.905946915000655
 33
3.463165199132727
  0
3DFACE
  8
0
1001
WEBCAD
1000
S3D1
 10
45.07101005198719
 20
35.62693232759831
 30
3.3690691208078367
 11
43.45091453041181
 21
39.905946915000655
 31
3.463165199132727
 12
45.07073412783663
 22
35.62693232759831
 32
3.3645155607579613
 13
45.07073412783663
 23
35.62693232759831
 33
3.3645155607579613
  0
3DFACE
  8
0
1001
WEBCAD
1000
S3D1
 10
47.66589996801342
 20
31.860624496787764
 30
3.21103589993539
 11
45.07101005198719
 21
35.62693232759831
 31
3.3690691208078367
 12
45.07073412783663
 22
35.62693232759831
 32
3.3645155607579613
 13
45.07073412783663
 23
35.62693232759831
 33
3.3645155607579613
  0
3DFACE
  8
0
1001
WEBCAD
1000
S3D1
 10
47.66589996801342
 20
31.860624496787764
 30
3.21103589993539
 11
45.07073412783663
 21
35.62693232759831
 31
3.3645155607579613
 12
47.66561641799653
 22
31.860624496787764
 32
3.206482571884825
 13
47.66561641799653
 23
31.860624496787764
 33
3.206482571884825
  0
3DFACE
  8
0
1001
WEBCAD
1000
S3D1
 10
51.08505351256058
 20
28.825903122276053
 30
3.0028035220851503
 11
47.66589996801342
 21
31.860624496787764
 31
3.21103589993539
 12
47.66561641799653
 22
31.860624496787764
 32
3.206482571884825
 13
47.66561641799653
 23
31.860624496787764
 33
3.206482571884825
  0
3DFACE
  8
0
1001
WEBCAD
1000
S3D1
 10
51.08505351256058
 20
28.825903122276053
 30
3.0028035220851503
 11
47.66561641799653
 21
31.860624496787764
 31
3.206482571884825
 12
51.08476996163745
 22
28.825903122276053
 32
2.9982501642460453
 13
51.08476996163745
 23
28.825903122276053
 33
2.9982501642460453
  0
3DFACE
  8
0
1001
WEBCAD
1000
S3D1
 10
55.12976454744498
 20
26.699140732139334
 30
2.7564735585314852
 11
51.08505351256058
 21
28.825903122276053
 31
3.0028035220851503
 12
51.08476996163745
 22
28.825903122276053
 32
2.9982501642460453
 13
51.08476996163745
 23
28.825903122276053
 33
2.9982501642460453
  0
3DFACE
  8
0
1001
WEBCAD
1000
S3D1
 10
55.12976454744498
 20
26.699140732139334
 30
2.7564735585314852
 11
51.08476996163745
 21
28.825903122276053
 31
2.9982501642460453
 12
55.12948862284129
 22
26.699140732139334
 32
2.75191998358734
 13
55.12948862284129
 23
26.699140732139334
 33
2.75191998358734
  0
3DFACE
  8
0
1001
WEBCAD
1000
S3D1
 10
59.56496998241231
 20
25.60393733248113
 30
2.486361817043136
 11
55.12976454744498
 21
26.699140732139334
 31
2.7564735585314852
 12
55.12948862284129
 22
26.699140732139334
 32
2.75191998358734
 13
55.12948862284129
 23
26.699140732139334
 33
2.75191998358734
  0
3DFACE
  8
0
1001
WEBCAD
1000
S3D1
 10
59.56496998241231
 20
25.60393733248113
 30
2.486361817043136
 11
55.12948862284129
 21
26.699140732139334
 31
2.75191998358734
 12
59.56469405780862
 22
25.60393733248113
 32
2.4818082420989906
 13
59.56469405780862
 23
25.60393733248113
 33
2.4818082420989906
  0
3DFACE
  8
0
1001
WEBCAD
1000
S3D1
 10
64.13291029431932
 20
25.60393733248113
 30
2.2081662584465693
 11
59.56496998241231
 21
25.60393733248113
 31
2.486361817043136
 12
59.56469405780862
 22
25.60393733248113
 32
2.4818082420989906
 13
59.56469405780862
 23
25.60393733248113
 33
2.4818082420989906
  0
3DFACE
  8
0
1001
WEBCAD
1000
S3D1
 10
64.13291029431932
 20
25.60393733248113
 30
2.2081662584465693
 11
59.56469405780862
 21
25.60393733248113
 31
2.4818082420989906
 12
64.13263436971562
 22
25.60393733248113
 32
2.2036126835024246
 13
64.13263436971562
 23
25.60393733248113
 33
2.2036126835024246
  0
3DFACE
  8
0
1001
WEBCAD
1000
S3D1
 10
68.56812335537951
 20
26.699140732139334
 30
1.9380542924060449
 11
64.13291029431932
 21
25.60393733248113
 31
2.2081662584465693
 12
64.13263436971562
 22
25.60393733248113
 32
2.2036126835024246
 13
64.13263436971562
 23
25.60393733248113
 33
2.2036126835024246
  0
3DFACE
  8
0
1001
WEBCAD
1000
S3D1
 10
68.56812335537951
 20
26.699140732139334
 30
1.9380542924060449
 11
64.13263436971562
 21
25.60393733248113
 31
2.2036126835024246
 12
68.56783980490951
 22
26.699140732139334
 32
1.9335009494612105
 13
68.56783980490951
 23
26.699140732139334
 33
1.9335009494612105
  0
3DFACE
  8
0
1001
WEBCAD
1000
S3D1
 10
72.61283439071705
 20
28.825903122276053
 30
1.6917243437466505
 11
68.56812335537951
 21
26.699140732139334
 31
1.9380542924060449
 12
68.56783980490951
 22
26.699140732139334
 32
1.9335009494612105
 13
68.56783980490951
 23
26.699140732139334
 33
1.9335009494612105
  0
3DFACE
  8
0
1001
WEBCAD
1000
S3D1
 10
72.61283439071705
 20
28.825903122276053
 30
1.6917243437466505
 11
68.56783980490951
 21
26.699140732139334
 31
1.9335009494612105
 12
72.61255846566026
 22
28.825903122276053
 32
1.6871707539082352
 13
72.61255846566026
 23
28.825903122276053
 33
1.6871707539082352
  0
3DFACE
  8
0
1001
WEBCAD
1000
S3D1
 10
76.03198793435794
 20
31.86062449678777
 30
1.4834919361078698
 11
72.61283439071705
 21
28.825903122276053
 31
1.6917243437466505
 12
72.61255846566026
 22
28.825903122276053
 32
1.6871707539082352
 13
72.61255846566026
 23
28.825903122276053
 33
1.6871707539082352
  0
3DFACE
  8
0
1001
WEBCAD
1000
S3D1
 10
76.03198793435794
 20
31.86062449678777
 30
1.4834919361078698
 11
72.61255846566026
 21
28.825903122276053
 31
1.6871707539082352
 12
76.03171200930113
 22
31.86062449678777
 32
1.4789383462694543
 13
76.03171200930113
 23
31.86062449678777
 33
1.4789383462694543
  0
3DFACE
  8
0
1001
WEBCAD
1000
S3D1
 10
78.62687403835727
 20
35.62693232759832
 30
1.3254588610236175
 11
76.03171200930113
 21
31.86062449678777
 31
1.4789383462694543
 12
78.62659811330046
 22
35.62693232759832
 32
1.3209052711852023
 13
78.62659811330046
 23
35.62693232759832
 33
1.3209052711852023
  0
3DFACE
  8
0
1001
WEBCAD
1000
S3D1
 10
78.62687403835727
 20
35.62693232759832
 30
1.3254588610236175
 11
76.03198793435794
 21
31.86062449678777
 31
1.4834919361078698
 12
76.03171200930113
 22
31.86062449678777
 32
1.4789383462694543
 13
76.03171200930113
 23
31.86062449678777
 33
1.4789383462694543
  0
3DFACE
  8
0
1001
WEBCAD
1000
S3D1
 10
80.24668982013017
 20
39.90594691500066
 30
1.2268092492828853
 11
78.62659811330046
 21
35.62693232759832
 31
1.3209052711852023
 12
80.24641389688587
 22
39.90594691500066
 32
1.2222557190215508
 13
80.24641389688587
 23
39.90594691500066
 33
1.2222557190215508
  0
3DFACE
  8
0
1001
WEBCAD
1000
S3D1
 10
80.24668982013017
 20
39.90594691500066
 30
1.2268092492828853
 11
78.62687403835727
 21
35.62693232759832
 31
1.3254588610236175
 12
78.62659811330046
 22
35.62693232759832
 32
1.3209052711852023
 13
78.62659811330046
 23
35.62693232759832
 33
1.3209052711852023
  0
3DFACE
  8
0
1001
WEBCAD
1000
S3D1
 10
80.79729347602606
 20
44.44898432955144
 30
1.1932765303343378
 11
80.24668982013017
 21
39.90594691500066
 31
1.2268092492828853
 12
80.24641389688587
 22
39.90594691500066
 32
1.2222557190215508
 13
80.24641389688587
 23
39.90594691500066
 33
1.2222557190215508
  0
3DFACE
  8
0
1001
WEBCAD
1000
S3D1
 10
80.79729347602606
 20
44.44898432955144
 30
1.1932765303343378
 11
80.24641389688587
 21
39.90594691500066
 31
1.2222557190215508
 12
80.79701755096926
 22
44.44898432955144
 32
1.1887229404959223
 13
80.79701755096926
 23
44.44898432955144
 33
1.1887229404959223
  0
3DFACE
  8
0
1001
WEBCAD
1000
S3D1
 10
51.08476996163745
 20
28.825903122276053
 30
2.9982501642460453
 11
47.66561641799653
 21
31.860624496787764
 31
3.206482571884825
 12
34.53104997748285
 22
22.171159927695967
 32
4.006400549290934
 13
34.53104997748285
 23
22.171159927695967
 33
4.006400549290934
  0
3DFACE
  8
0
1001
WEBCAD
1000
S3D1
 10
45.07073412783663
 20
35.62693232759831
 30
3.3645155607579613
 11
34.53104997748285
 21
22.171159927695967
 31
4.006400549290934
 12
47.66561641799653
 22
31.860624496787764
 32
3.206482571884825
 13
47.66561641799653
 23
31.860624496787764
 33
3.206482571884825
  0
3DFACE
  8
0
1001
WEBCAD
1000
S3D1
 10
55.12948862284129
 20
26.699140732139334
 30
2.75191998358734
 11
51.08476996163745
 21
28.825903122276053
 31
2.9982501642460453
 12
34.53104997748285
 22
22.171159927695967
 32
4.006400549290934
 13
34.53104997748285
 23
22.171159927695967
 33
4.006400549290934
  0
3DFACE
  8
0
1001
WEBCAD
1000
S3D1
 10
43.45091453041181
 20
39.905946915000655
 30
3.463165199132727
 11
34.53104997748285
 21
22.171159927695967
 31
4.006400549290934
 12
45.07073412783663
 22
35.62693232759831
 32
3.3645155607579613
 13
45.07073412783663
 23
35.62693232759831
 33
3.3645155607579613
  0
3DFACE
  8
0
1001
WEBCAD
1000
S3D1
 10
59.56469405780862
 20
25.60393733248113
 30
2.4818082420989906
 11
55.12948862284129
 21
26.699140732139334
 31
2.75191998358734
 12
34.53104997748285
 22
22.171159927695967
 32
4.006400549290934
 13
34.53104997748285
 23
22.171159927695967
 33
4.006400549290934
  0
3DFACE
  8
0
1001
WEBCAD
1000
S3D1
 10
42.90031087632842
 20
44.448984329551436
 30
3.4966979776583536
 11
34.53104997748285
 21
22.171159927695967
 31
4.006400549290934
 12
43.45091453041181
 22
39.905946915000655
 32
3.463165199132727
 13
43.45091453041181
 23
39.905946915000655
 33
3.463165199132727
  0
3DFACE
  8
0
1001
WEBCAD
1000
S3D1
 10
34.53104997748284
 20
66.59637660250065
 30
4.006400549290929
 11
43.450914530411794
 21
48.99202555879948
 31
3.4631651991327255
 12
45.070734127836616
 22
53.27104014620183
 32
3.364515560757959
 13
45.070734127836616
 23
53.27104014620183
 33
3.364515560757959
  0
3DFACE
  8
0
1001
WEBCAD
1000
S3D1
 10
34.53104997748284
 20
66.59637660250065
 30
4.006400549290929
 11
42.90031087632842
 21
44.448984329551436
 31
3.4966979776583536
 12
43.450914530411794
 22
48.99202555879948
 32
3.4631651991327255
 13
43.450914530411794
 23
48.99202555879948
 33
3.4631651991327255
  0
3DFACE
  8
0
1001
WEBCAD
1000
S3D1
 10
34.53104997748284
 20
66.59637660250065
 30
4.006400549290929
 11
34.53104997748285
 21
22.171159927695967
 31
4.006400549290934
 12
42.90031087632842
 22
44.448984329551436
 32
3.4966979776583536
 13
42.90031087632842
 23
44.448984329551436
 33
3.4966979776583536
  0
3DFACE
  8
0
1001
WEBCAD
1000
S3D1
 10
47.66561641799652
 20
57.037347977012374
 30
3.206482571884822
 11
34.53104997748284
 21
66.59637660250065
 31
4.006400549290929
 12
45.070734127836616
 22
53.27104014620183
 32
3.364515560757959
 13
45.070734127836616
 23
53.27104014620183
 33
3.364515560757959
  0
3DFACE
  8
0
1001
WEBCAD
1000
S3D1
 10
88.86693166601722
 20
22.171159927695975
 30
0.6972512098488167
 11
64.13263436971562
 21
25.60393733248113
 31
2.2036126835024246
 12
59.56469405780862
 22
25.60393733248113
 32
2.4818082420989906
 13
59.56469405780862
 23
25.60393733248113
 33
2.4818082420989906
  0
3DFACE
  8
0
1001
WEBCAD
1000
S3D1
 10
88.86693166601722
 20
22.171159927695975
 30
0.6972512098488167
 11
68.56783980490951
 21
26.699140732139334
 31
1.9335009494612105
 12
64.13263436971562
 22
25.60393733248113
 32
2.2036126835024246
 13
64.13263436971562
 23
25.60393733248113
 33
2.2036126835024246
  0
3DFACE
  8
0
1001
WEBCAD
1000
S3D1
 10
88.86693166601722
 20
22.171159927695975
 30
0.6972512098488167
 11
72.61255846566026
 21
28.825903122276053
 31
1.6871707539082352
 12
68.56783980490951
 22
26.699140732139334
 32
1.9335009494612105
 13
68.56783980490951
 23
26.699140732139334
 33
1.9335009494612105
  0
3DFACE
  8
0
1001
WEBCAD
1000
S3D1
 10
88.86693166601722
 20
22.171159927695975
 30
0.6972512098488167
 11
76.03171200930113
 21
31.86062449678777
 31
1.4789383462694543
 12
72.61255846566026
 22
28.825903122276053
 32
1.6871707539082352
 13
72.61255846566026
 23
28.825903122276053
 33
1.6871707539082352
  0
3DFACE
  8
0
1001
WEBCAD
1000
S3D1
 10
88.86693166601722
 20
22.171159927695975
 30
0.6972512098488167
 11
59.56469405780862
 21
25.60393733248113
 31
2.4818082420989906
 12
34.53104997748285
 22
22.171159927695967
 32
4.006400549290934
 13
34.53104997748285
 23
22.171159927695967
 33
4.006400549290934
  0
3DFACE
  8
0
1001
WEBCAD
1000
S3D1
 10
51.084769961637434
 20
60.07206935152409
 30
2.9982501642460413
 11
34.53104997748284
 21
66.59637660250065
 31
4.006400549290929
 12
47.66561641799652
 22
57.037347977012374
 32
3.206482571884822
 13
47.66561641799652
 23
57.037347977012374
 33
3.206482571884822
  0
3DFACE
  8
0
1001
WEBCAD
1000
S3D1
 10
78.62659811330046
 20
35.62693232759832
 30
1.3209052711852023
 11
76.03171200930113
 21
31.86062449678777
 31
1.4789383462694543
 12
88.86693166601722
 22
22.171159927695975
 32
0.6972512098488167
 13
88.86693166601722
 23
22.171159927695975
 33
0.6972512098488167
  0
3DFACE
  8
0
1001
WEBCAD
1000
S3D1
 10
55.12948862284128
 20
62.19883174166081
 30
2.751919983587336
 11
34.53104997748284
 21
66.59637660250065
 31
4.006400549290929
 12
51.084769961637434
 22
60.07206935152409
 32
2.9982501642460413
 13
51.084769961637434
 23
60.07206935152409
 33
2.9982501642460413
  0
3DFACE
  8
0
1001
WEBCAD
1000
S3D1
 10
80.24641389688587
 20
39.90594691500066
 30
1.2222557190215508
 11
78.62659811330046
 21
35.62693232759832
 31
1.3209052711852023
 12
88.86693166601722
 22
22.171159927695975
 32
0.6972512098488167
 13
88.86693166601722
 23
22.171159927695975
 33
0.6972512098488167
  0
3DFACE
  8
0
1001
WEBCAD
1000
S3D1
 10
59.56469405780861
 20
63.29403132662175
 30
2.481808242098986
 11
34.53104997748284
 21
66.59637660250065
 31
4.006400549290929
 12
55.12948862284128
 22
62.19883174166081
 32
2.751919983587336
 13
55.12948862284128
 23
62.19883174166081
 33
2.751919983587336
  0
3DFACE
  8
0
1001
WEBCAD
1000
S3D1
 10
80.79701755096926
 20
44.44898432955144
 30
1.1887229404959223
 11
80.24641389688587
 21
39.90594691500066
 31
1.2222557190215508
 12
88.86693166601722
 22
22.171159927695975
 32
0.6972512098488167
 13
88.86693166601722
 23
22.171159927695975
 33
0.6972512098488167
  0
3DFACE
  8
0
1001
WEBCAD
1000
S3D1
 10
88.86693166601722
 20
66.59637660250067
 30
0.6972512098488114
 11
80.24641389688587
 21
48.99202555879949
 31
1.22225571902155
 12
80.79701755096926
 22
44.44898432955144
 32
1.1887229404959223
 13
80.79701755096926
 23
44.44898432955144
 33
1.1887229404959223
  0
3DFACE
  8
0
1001
WEBCAD
1000
S3D1
 10
88.86693166601722
 20
66.59637660250067
 30
0.6972512098488114
 11
78.62659811330046
 21
53.271040146201834
 31
1.3209052711852
 12
80.24641389688587
 22
48.99202555879949
 32
1.22225571902155
 13
80.24641389688587
 23
48.99202555879949
 33
1.22225571902155
  0
3DFACE
  8
0
1001
WEBCAD
1000
S3D1
 10
88.86693166601722
 20
66.59637660250067
 30
0.6972512098488114
 11
76.03171200930113
 21
57.037347977012374
 31
1.4789383462694512
 12
78.62659811330046
 22
53.271040146201834
 32
1.3209052711852
 13
78.62659811330046
 23
53.271040146201834
 33
1.3209052711852
  0
3DFACE
  8
0
1001
WEBCAD
1000
S3D1
 10
88.86693166601722
 20
66.59637660250067
 30
0.6972512098488114
 11
72.61255846566024
 21
60.07206935152409
 31
1.6871707539082312
 12
76.03171200930113
 22
57.037347977012374
 32
1.4789383462694512
 13
76.03171200930113
 23
57.037347977012374
 33
1.4789383462694512
  0
3DFACE
  8
0
1001
WEBCAD
1000
S3D1
 10
88.86693166601722
 20
66.59637660250067
 30
0.6972512098488114
 11
68.5678398049095
 21
62.19883174166081
 31
1.9335009494612065
 12
72.61255846566024
 22
60.07206935152409
 32
1.6871707539082312
 13
72.61255846566024
 23
60.07206935152409
 33
1.6871707539082312
  0
3DFACE
  8
0
1001
WEBCAD
1000
S3D1
 10
88.86693166601722
 20
66.59637660250067
 30
0.6972512098488114
 11
64.1326343697156
 21
63.29403132662175
 31
2.20361268350242
 12
68.5678398049095
 22
62.19883174166081
 32
1.9335009494612065
 13
68.5678398049095
 23
62.19883174166081
 33
1.9335009494612065
  0
3DFACE
  8
0
1001
WEBCAD
1000
S3D1
 10
88.86693166601722
 20
66.59637660250067
 30
0.6972512098488114
 11
80.79701755096926
 21
44.44898432955144
 31
1.1887229404959223
 12
88.86693166601722
 22
22.171159927695975
 32
0.6972512098488167
 13
88.86693166601722
 23
22.171159927695975
 33
0.6972512098488167
  0
3DFACE
  8
0
1001
WEBCAD
1000
S3D1
 10
88.86693166601722
 20
66.59637660250067
 30
0.6972512098488114
 11
34.53104997748284
 21
66.59637660250065
 31
4.006400549290929
 12
59.56469405780861
 22
63.29403132662175
 32
2.481808242098986
 13
59.56469405780861
 23
63.29403132662175
 33
2.481808242098986
  0
3DFACE
  8
0
1001
WEBCAD
1000
S3D1
 10
88.86693166601722
 20
66.59637660250067
 30
0.6972512098488114
 11
59.56469405780861
 21
63.29403132662175
 31
2.481808242098986
 12
64.1326343697156
 22
63.29403132662175
 32
2.20361268350242
 13
64.1326343697156
 23
63.29403132662175
 33
2.20361268350242
  0
3DFACE
  8
0
1001
WEBCAD
1000
S3D1
 10
55.12976454744498
 20
26.699140732139334
 30
2.7564735585314852
 11
47.66589996801342
 21
31.860624496787764
 31
3.21103589993539
 12
51.08505351256058
 22
28.825903122276053
 32
3.0028035220851503
 13
51.08505351256058
 23
28.825903122276053
 33
3.0028035220851503
  0
3DFACE
  8
0
1001
WEBCAD
1000
S3D1
 10
64.13291029431932
 20
25.60393733248113
 30
2.2081662584465693
 11
55.12976454744498
 21
26.699140732139334
 31
2.7564735585314852
 12
59.56496998241231
 22
25.60393733248113
 32
2.486361817043136
 13
59.56496998241231
 23
25.60393733248113
 33
2.486361817043136
  0
3DFACE
  8
0
1001
WEBCAD
1000
S3D1
 10
43.451190455468605
 20
48.99202555879948
 30
3.4677187889711405
 11
42.90058680138523
 21
44.448984329551436
 31
3.501251567496769
 12
43.45119045546862
 22
39.905946915000655
 32
3.467718788971142
 13
43.45119045546862
 23
39.905946915000655
 33
3.467718788971142
  0
3DFACE
  8
0
1001
WEBCAD
1000
S3D1
 10
72.61283439071705
 20
28.825903122276053
 30
1.6917243437466505
 11
64.13291029431932
 21
25.60393733248113
 31
2.2081662584465693
 12
68.56812335537951
 22
26.699140732139334
 32
1.9380542924060449
 13
68.56812335537951
 23
26.699140732139334
 33
1.9380542924060449
  0
3DFACE
  8
0
1001
WEBCAD
1000
S3D1
 10
72.61283439071705
 20
28.825903122276053
 30
1.6917243437466505
 11
47.66589996801342
 21
31.860624496787764
 31
3.21103589993539
 12
55.12976454744498
 22
26.699140732139334
 32
2.7564735585314852
 13
55.12976454744498
 23
26.699140732139334
 33
2.7564735585314852
  0
3DFACE
  8
0
1001
WEBCAD
1000
S3D1
 10
72.61283439071705
 20
28.825903122276053
 30
1.6917243437466505
 11
55.12976454744498
 21
26.699140732139334
 31
2.7564735585314852
 12
64.13291029431932
 22
25.60393733248113
 32
2.2081662584465693
 13
64.13291029431932
 23
25.60393733248113
 33
2.2081662584465693
  0
3DFACE
  8
0
1001
WEBCAD
1000
S3D1
 10
78.62687403835727
 20
35.62693232759832
 30
1.3254588610236175
 11
72.61283439071705
 21
28.825903122276053
 31
1.6917243437466505
 12
76.03198793435794
 22
31.86062449678777
 32
1.4834919361078698
 13
76.03198793435794
 23
31.86062449678777
 33
1.4834919361078698
  0
3DFACE
  8
0
1001
WEBCAD
1000
S3D1
 10
55.129764547444964
 20
62.19883174166081
 30
2.7564735585314812
 11
51.08505351256056
 21
60.07206935152409
 31
3.002803522085146
 12
47.665899968013406
 22
57.037347977012374
 32
3.2110358999353865
 13
47.665899968013406
 23
57.037347977012374
 33
3.2110358999353865
  0
3DFACE
  8
0
1001
WEBCAD
1000
S3D1
 10
55.129764547444964
 20
62.19883174166081
 30
2.7564735585314812
 11
47.665899968013406
 21
57.037347977012374
 31
3.2110358999353865
 12
45.07101005198717
 22
53.27104014620183
 32
3.3690691208078345
 13
45.07101005198717
 23
53.27104014620183
 33
3.3690691208078345
  0
3DFACE
  8
0
1001
WEBCAD
1000
S3D1
 10
55.129764547444964
 20
62.19883174166081
 30
2.7564735585314812
 11
45.07101005198717
 21
53.27104014620183
 31
3.3690691208078345
 12
43.451190455468605
 22
48.99202555879948
 32
3.4677187889711405
 13
43.451190455468605
 23
48.99202555879948
 33
3.4677187889711405
  0
3DFACE
  8
0
1001
WEBCAD
1000
S3D1
 10
80.79729347602606
 20
44.44898432955144
 30
1.1932765303343378
 11
45.07101005198719
 21
35.62693232759831
 31
3.3690691208078367
 12
47.66589996801342
 22
31.860624496787764
 32
3.21103589993539
 13
47.66589996801342
 23
31.860624496787764
 33
3.21103589993539
  0
3DFACE
  8
0
1001
WEBCAD
1000
S3D1
 10
80.79729347602606
 20
44.44898432955144
 30
1.1932765303343378
 11
78.62687403835727
 21
35.62693232759832
 31
1.3254588610236175
 12
80.24668982013017
 22
39.90594691500066
 32
1.2268092492828853
 13
80.24668982013017
 23
39.90594691500066
 33
1.2268092492828853
  0
3DFACE
  8
0
1001
WEBCAD
1000
S3D1
 10
80.79729347602606
 20
44.44898432955144
 30
1.1932765303343378
 11
47.66589996801342
 21
31.860624496787764
 31
3.21103589993539
 12
72.61283439071705
 22
28.825903122276053
 32
1.6917243437466505
 13
72.61283439071705
 23
28.825903122276053
 33
1.6917243437466505
  0
3DFACE
  8
0
1001
WEBCAD
1000
S3D1
 10
80.79729347602606
 20
44.44898432955144
 30
1.1932765303343378
 11
72.61283439071705
 21
28.825903122276053
 31
1.6917243437466505
 12
78.62687403835727
 22
35.62693232759832
 32
1.3254588610236175
 13
78.62687403835727
 23
35.62693232759832
 33
1.3254588610236175
  0
3DFACE
  8
0
1001
WEBCAD
1000
S3D1
 10
64.1329102943193
 20
63.29403132662175
 30
2.208166258446565
 11
59.56496998241229
 21
63.29403132662175
 31
2.4863618170431314
 12
55.129764547444964
 22
62.19883174166081
 32
2.7564735585314812
 13
55.129764547444964
 23
62.19883174166081
 33
2.7564735585314812
  0
3DFACE
  8
0
1001
WEBCAD
1000
S3D1
 10
80.24668982013017
 20
48.99202555879949
 30
1.2268092492828844
 11
43.45119045546862
 21
39.905946915000655
 31
3.467718788971142
 12
45.07101005198719
 22
35.62693232759831
 32
3.3690691208078367
 13
45.07101005198719
 23
35.62693232759831
 33
3.3690691208078367
  0
3DFACE
  8
0
1001
WEBCAD
1000
S3D1
 10
80.24668982013017
 20
48.99202555879949
 30
1.2268092492828844
 11
43.451190455468605
 21
48.99202555879948
 31
3.4677187889711405
 12
43.45119045546862
 22
39.905946915000655
 32
3.467718788971142
 13
43.45119045546862
 23
39.905946915000655
 33
3.467718788971142
  0
3DFACE
  8
0
1001
WEBCAD
1000
S3D1
 10
80.24668982013017
 20
48.99202555879949
 30
1.2268092492828844
 11
45.07101005198719
 21
35.62693232759831
 31
3.3690691208078367
 12
80.79729347602606
 22
44.44898432955144
 32
1.1932765303343378
 13
80.79729347602606
 23
44.44898432955144
 33
1.1932765303343378
  0
3DFACE
  8
0
1001
WEBCAD
1000
S3D1
 10
80.24668982013017
 20
48.99202555879949
 30
1.2268092492828844
 11
55.129764547444964
 21
62.19883174166081
 31
2.7564735585314812
 12
43.451190455468605
 22
48.99202555879948
 32
3.4677187889711405
 13
43.451190455468605
 23
48.99202555879948
 33
3.4677187889711405
  0
3DFACE
  8
0
1001
WEBCAD
1000
S3D1
 10
68.5681233553795
 20
62.19883174166081
 30
1.9380542924060409
 11
64.1329102943193
 21
63.29403132662175
 31
2.208166258446565
 12
55.129764547444964
 22
62.19883174166081
 32
2.7564735585314812
 13
55.129764547444964
 23
62.19883174166081
 33
2.7564735585314812
  0
3DFACE
  8
0
1001
WEBCAD
1000
S3D1
 10
76.03198793435794
 20
57.037347977012374
 30
1.4834919361078667
 11
80.24668982013017
 21
48.99202555879949
 31
1.2268092492828844
 12
78.62687403835727
 22
53.271040146201834
 32
1.3254588610236153
 13
78.62687403835727
 23
53.271040146201834
 33
1.3254588610236153
  0
3DFACE
  8
0
1001
WEBCAD
1000
S3D1
 10
76.03198793435794
 20
57.037347977012374
 30
1.4834919361078667
 11
72.61283439071704
 21
60.07206935152409
 31
1.6917243437466465
 12
68.5681233553795
 22
62.19883174166081
 32
1.9380542924060409
 13
68.5681233553795
 23
62.19883174166081
 33
1.9380542924060409
  0
3DFACE
  8
0
1001
WEBCAD
1000
S3D1
 10
76.03198793435794
 20
57.037347977012374
 30
1.4834919361078667
 11
55.129764547444964
 21
62.19883174166081
 31
2.7564735585314812
 12
80.24668982013017
 22
48.99202555879949
 32
1.2268092492828844
 13
80.24668982013017
 23
48.99202555879949
 33
1.2268092492828844
  0
3DFACE
  8
0
1001
WEBCAD
1000
S3D1
 10
76.03198793435794
 20
57.037347977012374
 30
1.4834919361078667
 11
68.5681233553795
 21
62.19883174166081
 31
1.9380542924060409
 12
55.129764547444964
 22
62.19883174166081
 32
2.7564735585314812
 13
55.129764547444964
 23
62.19883174166081
 33
2.7564735585314812
  0
3DFACE
  8
0
1001
WEBCAD
1000
S3D1
 10
34.53104997748285
 20
22.171159927695967
 30
4.006400549290934
 11
28.45213804662542
 21
66.59637660250064
 31
-95.80866320179848
 12
28.452138046625436
 22
22.171159927695953
 32
-95.80866320179848
 13
28.452138046625436
 23
22.171159927695953
 33
-95.80866320179848
  0
3DFACE
  8
0
1001
WEBCAD
1000
S3D1
 10
34.53104997748285
 20
22.171159927695967
 30
4.006400549290934
 11
34.53104997748284
 21
66.59637660250065
 31
4.006400549290929
 12
28.45213804662542
 22
66.59637660250064
 32
-95.80866320179848
 13
28.45213804662542
 23
66.59637660250064
 33
-95.80866320179848
  0
3DFACE
  8
0
1001
WEBCAD
1000
S3D1
 10
47.061096203044144
 20
66.59637660250064
 30
-94.87071461605049
 11
46.684852934815
 21
66.59637660250064
 31
-96.91906635774319
 12
28.45213804662542
 22
66.59637660250064
 32
-95.80866320179848
 13
28.45213804662542
 23
66.59637660250064
 33
-95.80866320179848
  0
3DFACE
  8
0
1001
WEBCAD
1000
S3D1
 10
47.91660972645356
 20
66.59637660250064
 30
-92.97193182864378
 11
47.061096203044144
 21
66.59637660250064
 31
-94.87071461605049
 12
28.45213804662542
 22
66.59637660250064
 32
-95.80866320179848
 13
28.45213804662542
 23
66.59637660250064
 33
-95.80866320179848
  0
3DFACE
  8
0
1001
WEBCAD
1000
S3D1
 10
49.20167427507799
 20
66.59637660250064
 30
-91.333058276863
 11
47.91660972645356
 21
66.59637660250064
 31
-92.97193182864378
 12
28.45213804662542
 22
66.59637660250064
 32
-95.80866320179848
 13
28.45213804662542
 23
66.59637660250064
 33
-95.80866320179848
  0
3DFACE
  8
0
1001
WEBCAD
1000
S3D1
 10
50.841604552923044
 20
66.59637660250064
 30
-90.04934007538306
 11
49.20167427507799
 21
66.59637660250064
 31
-91.333058276863
 12
28.45213804662542
 22
66.59637660250064
 32
-95.80866320179848
 13
28.45213804662542
 23
66.59637660250064
 33
-95.80866320179848
  0
3DFACE
  8
0
1001
WEBCAD
1000
S3D1
 10
82.78801967715998
 20
66.59637660250065
 30
-99.11781444770718
 11
62.110426854411614
 21
66.59637660250064
 31
-92.11922387836069
 12
60.63840147346619
 22
66.59637660250064
 32
-90.64598491952178
 13
60.63840147346619
 23
66.59637660250064
 33
-90.64598491952178
  0
3DFACE
  8
0
1001
WEBCAD
1000
S3D1
 10
82.78801967715998
 20
66.59637660250065
 30
-99.11781444770718
 11
63.187108997050814
 21
66.59637660250064
 31
-93.90193420974215
 12
62.110426854411614
 22
66.59637660250064
 32
-92.11922387836069
 13
62.110426854411614
 23
66.59637660250064
 33
-92.11922387836069
  0
3DFACE
  8
0
1001
WEBCAD
1000
S3D1
 10
82.78801967715998
 20
66.59637660250065
 30
-99.11781444770718
 11
63.805880583123354
 21
66.59637660250064
 31
-95.89050373079861
 12
63.187108997050814
 22
66.59637660250064
 32
-93.90193420974215
 13
63.187108997050814
 23
66.59637660250064
 33
-93.90193420974215
  0
3DFACE
  8
0
1001
WEBCAD
1000
S3D1
 10
82.78801967715998
 20
66.59637660250065
 30
-99.11781444770718
 11
63.930772067781774
 21
66.59637660250064
 31
-97.96937481766084
 12
63.805880583123354
 22
66.59637660250064
 32
-95.89050373079861
 13
63.805880583123354
 23
66.59637660250064
 33
-95.89050373079861
  0
3DFACE
  8
0
1001
WEBCAD
1000
S3D1
 10
34.53104997748284
 20
66.59637660250065
 30
4.006400549290929
 11
52.741092922333536
 21
66.59637660250064
 31
-89.19539005715596
 12
50.841604552923044
 22
66.59637660250064
 32
-90.04934007538306
 13
50.841604552923044
 23
66.59637660250064
 33
-90.04934007538306
  0
3DFACE
  8
0
1001
WEBCAD
1000
S3D1
 10
34.53104997748284
 20
66.59637660250065
 30
4.006400549290929
 11
54.78975371881039
 21
66.59637660250064
 31
-88.82083012219016
 12
52.741092922333536
 22
66.59637660250064
 32
-89.19539005715596
 13
52.741092922333536
 23
66.59637660250064
 33
-89.19539005715596
  0
3DFACE
  8
0
1001
WEBCAD
1000
S3D1
 10
34.53104997748284
 20
66.59637660250065
 30
4.006400549290929
 11
56.86851501632063
 21
66.59637660250064
 31
-88.94743252245047
 12
54.78975371881039
 22
66.59637660250064
 32
-88.82083012219016
 13
54.78975371881039
 23
66.59637660250064
 33
-88.82083012219016
  0
3DFACE
  8
0
1001
WEBCAD
1000
S3D1
 10
34.53104997748284
 20
66.59637660250065
 30
4.006400549290929
 11
50.841604552923044
 21
66.59637660250064
 31
-90.04934007538306
 12
28.45213804662542
 22
66.59637660250064
 32
-95.80866320179848
 13
28.45213804662542
 23
66.59637660250064
 33
-95.80866320179848
  0
3DFACE
  8
0
1001
WEBCAD
1000
S3D1
 10
88.86693166601722
 20
66.59637660250067
 30
0.6972512098488114
 11
58.85658075992073
 21
66.59637660250064
 31
-89.56783561543251
 12
56.86851501632063
 22
66.59637660250064
 32
-88.94743252245047
 13
56.86851501632063
 23
66.59637660250064
 33
-88.94743252245047
  0
3DFACE
  8
0
1001
WEBCAD
1000
S3D1
 10
88.86693166601722
 20
66.59637660250067
 30
0.6972512098488114
 11
60.63840147346619
 21
66.59637660250064
 31
-90.64598491952178
 12
58.85658075992073
 22
66.59637660250064
 32
-89.56783561543251
 13
58.85658075992073
 23
66.59637660250064
 33
-89.56783561543251
  0
3DFACE
  8
0
1001
WEBCAD
1000
S3D1
 10
88.86693166601722
 20
66.59637660250067
 30
0.6972512098488114
 11
56.86851501632063
 21
66.59637660250064
 31
-88.94743252245047
 12
34.53104997748284
 22
66.59637660250065
 32
4.006400549290929
 13
34.53104997748284
 23
66.59637660250065
 33
4.006400549290929
  0
3DFACE
  8
0
1001
WEBCAD
1000
S3D1
 10
88.86693166601722
 20
66.59637660250067
 30
0.6972512098488114
 11
82.78801967715998
 21
66.59637660250065
 31
-99.11781444770718
 12
60.63840147346619
 22
66.59637660250064
 32
-90.64598491952178
 13
60.63840147346619
 23
66.59637660250064
 33
-90.64598491952178
  0
3DFACE
  8
0
1001
WEBCAD
1000
S3D1
 10
88.86693166601722
 20
22.171159927695975
 30
0.6972512098488167
 11
28.452138046625436
 21
22.171159927695953
 31
-95.80866320179848
 12
82.78801967715998
 22
22.17115992769596
 32
-99.11781444770718
 13
82.78801967715998
 23
22.17115992769596
 33
-99.11781444770718
  0
3DFACE
  8
0
1001
WEBCAD
1000
S3D1
 10
88.86693166601722
 20
22.171159927695975
 30
0.6972512098488167
 11
34.53104997748285
 21
22.171159927695967
 31
4.006400549290934
 12
28.452138046625436
 22
22.171159927695953
 32
-95.80866320179848
 13
28.452138046625436
 23
22.171159927695953
 33
-95.80866320179848
  0
3DFACE
  8
0
1001
WEBCAD
1000
S3D1
 10
88.86693166601722
 20
22.171159927695975
 30
0.6972512098488167
 11
82.78801967715998
 21
22.17115992769596
 31
-99.11781444770718
 12
82.78801967715998
 22
66.59637660250065
 32
-99.11781444770718
 13
82.78801967715998
 23
66.59637660250065
 33
-99.11781444770718
  0
3DFACE
  8
0
1001
WEBCAD
1000
S3D1
 10
88.86693166601722
 20
22.171159927695975
 30
0.6972512098488167
 11
82.78801967715998
 21
66.59637660250065
 31
-99.11781444770718
 12
88.86693166601722
 22
66.59637660250067
 32
0.6972512098488114
 13
88.86693166601722
 23
66.59637660250067
 33
0.6972512098488114
  0
3DFACE
  8
0
1001
WEBCAD
1000
S3D1
 10
42.475362329437075
 20
26.193140213340484
 30
-96.6627005355958
 11
28.452138046625436
 21
22.171159927695953
 31
-95.80866320179848
 12
38.30983976675212
 22
29.803022568076813
 32
-96.40901573394304
 13
38.30983976675212
 23
29.803022568076813
 33
-96.40901573394304
  0
3DFACE
  8
0
1001
WEBCAD
1000
S3D1
 10
35.12205415620264
 20
34.30275172457095
 30
-96.21487524994933
 11
38.30983976675212
 21
29.803022568076813
 31
-96.40901573394304
 12
28.452138046625436
 22
22.171159927695953
 32
-95.80866320179848
 13
28.452138046625436
 23
22.171159927695953
 33
-95.80866320179848
  0
3DFACE
  8
0
1001
WEBCAD
1000
S3D1
 10
47.3790253913549
 20
23.680753891319007
 30
-96.96134341238161
 11
28.452138046625436
 21
22.171159927695953
 31
-95.80866320179848
 12
42.475362329437075
 22
26.193140213340484
 32
-96.6627005355958
 13
42.475362329437075
 23
26.193140213340484
 33
-96.6627005355958
  0
3DFACE
  8
0
1001
WEBCAD
1000
S3D1
 10
33.09539027677809
 20
39.43350047335025
 30
-96.09144544117044
 11
35.12205415620264
 21
34.30275172457095
 31
-96.21487524994933
 12
28.452138046625436
 22
22.171159927695953
 32
-95.80866320179848
 13
28.452138046625436
 23
22.171159927695953
 33
-95.80866320179848
  0
3DFACE
  8
0
1001
WEBCAD
1000
S3D1
 10
52.73876559257985
 20
22.41037577852604
 30
-97.28776093447561
 11
28.452138046625436
 21
22.171159927695953
 31
-95.80866320179848
 12
47.3790253913549
 22
23.680753891319007
 32
-96.96134341238161
 13
47.3790253913549
 23
23.680753891319007
 33
-96.96134341238161
  0
3DFACE
  8
0
1001
WEBCAD
1000
S3D1
 10
32.34640051986628
 20
44.900137131065094
 30
-96.04582908676714
 11
33.09539027677809
 21
39.43350047335025
 31
-96.09144544117044
 12
28.452138046625436
 22
22.171159927695953
 32
-95.80866320179848
 13
28.452138046625436
 23
22.171159927695953
 33
-95.80866320179848
  0
3DFACE
  8
0
1001
WEBCAD
1000
S3D1
 10
28.45213804662542
 20
66.59637660250064
 30
-95.80866320179848
 11
34.77785939221127
 21
55.582063858360016
 31
-96.19390865089805
 12
32.918192133262494
 22
50.38822001680728
 32
-96.08065048784668
 13
32.918192133262494
 23
50.38822001680728
 33
-96.08065048784668
  0
3DFACE
  8
0
1001
WEBCAD
1000
S3D1
 10
28.45213804662542
 20
66.59637660250064
 30
-95.80866320179848
 11
32.918192133262494
 21
50.38822001680728
 31
-96.08065048784668
 12
32.34640051986628
 22
44.900137131065094
 32
-96.04582908676714
 13
32.34640051986628
 23
44.900137131065094
 33
-96.04582908676714
  0
3DFACE
  8
0
1001
WEBCAD
1000
S3D1
 10
28.45213804662542
 20
66.59637660250064
 30
-95.80866320179848
 11
32.34640051986628
 21
44.900137131065094
 31
-96.04582908676714
 12
28.452138046625436
 22
22.171159927695953
 32
-95.80866320179848
 13
28.452138046625436
 23
22.171159927695953
 33
-95.80866320179848
  0
3DFACE
  8
0
1001
WEBCAD
1000
S3D1
 10
37.81843442918996
 20
60.18291682466861
 30
-96.37908243481348
 11
34.77785939221127
 21
55.582063858360016
 31
-96.19390865089805
 12
28.45213804662542
 22
66.59637660250064
 32
-95.80866320179848
 13
28.45213804662542
 23
66.59637660250064
 33
-95.80866320179848
  0
3DFACE
  8
0
1001
WEBCAD
1000
S3D1
 10
82.78801967715998
 20
22.17115992769596
 30
-99.11781444770718
 11
58.24628021748512
 21
22.455084030479163
 31
-97.62317757632951
 12
63.58476397159984
 22
23.81229991182682
 32
-97.94829962170937
 13
63.58476397159984
 23
23.81229991182682
 33
-97.94829962170937
  0
3DFACE
  8
0
1001
WEBCAD
1000
S3D1
 10
82.78801967715998
 20
22.17115992769596
 30
-99.11781444770718
 11
63.58476397159984
 21
23.81229991182682
 31
-97.94829962170937
 12
68.44715599551193
 22
26.403959457725257
 32
-98.24442749028609
 13
68.44715599551193
 23
26.403959457725257
 33
-98.24442749028609
  0
3DFACE
  8
0
1001
WEBCAD
1000
S3D1
 10
82.78801967715998
 20
22.17115992769596
 30
-99.11781444770718
 11
68.44715599551193
 21
26.403959457725257
 31
-98.24442749028609
 12
72.5537470019975
 22
30.080988113731117
 32
-98.49452569868511
 13
72.5537470019975
 23
30.080988113731117
 33
-98.49452569868511
  0
3DFACE
  8
0
1001
WEBCAD
1000
S3D1
 10
41.8650195603213
 20
63.926119034141266
 30
-96.62553083459063
 11
37.81843442918996
 21
60.18291682466861
 31
-96.37908243481348
 12
28.45213804662542
 22
66.59637660250064
 32
-95.80866320179848
 13
28.45213804662542
 23
66.59637660250064
 33
-95.80866320179848
  0
3DFACE
  8
0
1001
WEBCAD
1000
S3D1
 10
75.66833484561143
 20
34.63187236055729
 30
-98.68421049633545
 11
82.78801967715998
 21
22.17115992769596
 31
-99.11781444770718
 12
72.5537470019975
 22
30.080988113731117
 32
-98.49452569868511
 13
72.5537470019975
 23
30.080988113731117
 33
-98.49452569868511
  0
3DFACE
  8
0
1001
WEBCAD
1000
S3D1
 10
46.684852934815
 20
66.59637660250064
 30
-96.91906635774319
 11
41.8650195603213
 21
63.926119034141266
 31
-96.62553083459063
 12
28.45213804662542
 22
66.59637660250064
 32
-95.80866320179848
 13
28.45213804662542
 23
66.59637660250064
 33
-95.80866320179848
  0
3DFACE
  8
0
1001
WEBCAD
1000
S3D1
 10
77.61175957825355
 20
39.794847671836585
 30
-98.8025661831603
 11
82.78801967715998
 21
22.17115992769596
 31
-99.11781444770718
 12
75.66833484561143
 22
34.63187236055729
 32
-98.68421049633545
 13
75.66833484561143
 23
34.63187236055729
 33
-98.68421049633545
  0
3DFACE
  8
0
1001
WEBCAD
1000
S3D1
 10
78.27223010300469
 20
45.27292460665104
 30
-98.84279512276079
 11
82.78801967715998
 21
22.17115992769596
 31
-99.11781444770718
 12
77.61175957825355
 22
39.794847671836585
 32
-98.8025661831603
 13
77.61175957825355
 23
39.794847671836585
 33
-98.8025661831603
  0
3DFACE
  8
0
1001
WEBCAD
1000
S3D1
 10
82.78801967715998
 20
66.59637660250065
 30
-99.11781444770718
 11
78.27223010300469
 21
45.27292460665104
 31
-98.84279512276079
 12
77.62936267045045
 22
50.67856044039127
 32
-98.80364365407648
 13
77.62936267045045
 23
50.67856044039127
 33
-98.80364365407648
  0
3DFACE
  8
0
1001
WEBCAD
1000
S3D1
 10
82.78801967715998
 20
66.59637660250065
 30
-99.11781444770718
 11
77.62936267045045
 21
50.67856044039127
 31
-98.80364365407648
 12
75.73675178941383
 22
55.78154200777408
 32
-98.68837571165123
 13
75.73675178941383
 23
55.78154200777408
 33
-98.68837571165123
  0
3DFACE
  8
0
1001
WEBCAD
1000
S3D1
 10
82.78801967715998
 20
66.59637660250065
 30
-99.11781444770718
 11
75.73675178941383
 21
55.78154200777408
 31
-98.68837571165123
 12
72.70036322199338
 22
60.296167557090484
 32
-98.50345905108449
 13
72.70036322199338
 23
60.296167557090484
 33
-98.50345905108449
  0
3DFACE
  8
0
1001
WEBCAD
1000
S3D1
 10
82.78801967715998
 20
66.59637660250065
 30
-99.11781444770718
 11
72.70036322199338
 21
60.296167557090484
 31
-98.50345905108449
 12
68.69018823413822
 22
63.96966761812564
 32
-98.25923275249609
 13
68.69018823413822
 23
63.96966761812564
 33
-98.25923275249609
  0
3DFACE
  8
0
1001
WEBCAD
1000
S3D1
 10
82.78801967715998
 20
66.59637660250065
 30
-99.11781444770718
 11
68.69018823413822
 21
63.96966761812564
 31
-98.25923275249609
 12
63.930772067781774
 22
66.59637660250064
 32
-97.96937481766084
 13
63.930772067781774
 23
66.59637660250064
 33
-97.96937481766084
  0
3DFACE
  8
0
1001
WEBCAD
1000
S3D1
 10
82.78801967715998
 20
66.59637660250065
 30
-99.11781444770718
 11
82.78801967715998
 21
22.17115992769596
 31
-99.11781444770718
 12
78.27223010300469
 22
45.27292460665104
 32
-98.84279512276079
 13
78.27223010300469
 23
45.27292460665104
 33
-98.84279512276079
  0
3DFACE
  8
0
1001
WEBCAD
1000
S3D1
 10
28.452138046625436
 20
22.171159927695953
 30
-95.80866320179848
 11
52.73876559257985
 21
22.41037577852604
 31
-97.28776093447561
 12
82.78801967715998
 22
22.17115992769596
 32
-99.11781444770718
 13
82.78801967715998
 23
22.17115992769596
 33
-99.11781444770718
  0
3DFACE
  8
0
1001
WEBCAD
1000
S3D1
 10
52.73876559257985
 20
22.41037577852604
 30
-97.28776093447561
 11
58.24628021748512
 21
22.455084030479163
 31
-97.62317757632951
 12
82.78801967715998
 22
22.17115992769596
 32
-99.11781444770718
 13
82.78801967715998
 23
22.17115992769596
 33
-99.11781444770718
  0
3DFACE
  8
0
1001
WEBCAD
1000
S3D1
 10
77.62936267045045
 20
50.67856044039127
 30
-98.80364365407648
 11
78.27223010300469
 21
45.27292460665104
 31
-98.84279512276079
 12
78.12776513746604
 22
45.27292460665104
 32
-94.51673756175748
 13
78.12776513746604
 23
45.27292460665104
 33
-94.51673756175748
  0
3DFACE
  8
0
1001
WEBCAD
1000
S3D1
 10
63.805880583123354
 20
66.59637660250064
 30
-95.89050373079861
 11
63.930772067781774
 21
66.59637660250064
 31
-97.96937481766084
 12
68.69018823413822
 22
63.96966761812564
 32
-98.25923275249609
 13
68.69018823413822
 23
63.96966761812564
 33
-98.25923275249609
  0
3DFACE
  8
0
1001
WEBCAD
1000
S3D1
 10
59.45215553311944
 20
63.2194387362897
 30
-83.65771412748276
 11
56.86851501632063
 21
66.59637660250064
 31
-88.94743252245047
 12
58.85658075992073
 22
66.59637660250064
 32
-89.56783561543251
 13
58.85658075992073
 23
66.59637660250064
 33
-89.56783561543251
  0
3DFACE
  8
0
1001
WEBCAD
1000
S3D1
 10
41.8650195603213
 20
63.926119034141266
 30
-96.62553083459063
 11
46.684852934815
 21
66.59637660250064
 31
-96.91906635774319
 12
47.061096203044144
 22
66.59637660250064
 32
-94.87071461605049
 13
47.061096203044144
 23
66.59637660250064
 33
-94.87071461605049
  0
3DFACE
  8
0
1001
WEBCAD
1000
S3D1
 10
55.11140871568443
 20
63.3713170932233
 30
-83.2410404811266
 11
56.86851501632063
 21
66.59637660250064
 31
-88.94743252245047
 12
59.45215553311944
 22
63.2194387362897
 32
-83.65771412748276
 13
59.45215553311944
 23
63.2194387362897
 33
-83.65771412748276
  0
3DFACE
  8
0
1001
WEBCAD
1000
S3D1
 10
55.11140871568443
 20
63.3713170932233
 30
-83.2410404811266
 11
52.741092922333536
 21
66.59637660250064
 31
-89.19539005715596
 12
54.78975371881039
 22
66.59637660250064
 32
-88.82083012219016
 13
54.78975371881039
 23
66.59637660250064
 33
-88.82083012219016
  0
3DFACE
  8
0
1001
WEBCAD
1000
S3D1
 10
55.11140871568443
 20
63.3713170932233
 30
-83.2410404811266
 11
54.78975371881039
 21
66.59637660250064
 31
-88.82083012219016
 12
56.86851501632063
 22
66.59637660250064
 32
-88.94743252245047
 13
56.86851501632063
 23
66.59637660250064
 33
-88.94743252245047
  0
3DFACE
  8
0
1001
WEBCAD
1000
S3D1
 10
50.843927487620235
 20
62.523706619590484
 30
-82.89069706938224
 11
52.741092922333536
 21
66.59637660250064
 31
-89.19539005715596
 12
55.11140871568443
 22
63.3713170932233
 32
-83.2410404811266
 13
55.11140871568443
 23
63.3713170932233
 33
-83.2410404811266
  0
3DFACE
  8
0
1001
WEBCAD
1000
S3D1
 10
78.12776513746604
 20
45.27292460665104
 30
-94.51673756175748
 11
78.27223010300469
 21
45.27292460665104
 31
-98.84279512276079
 12
77.61175957825355
 22
39.794847671836585
 32
-98.8025661831603
 13
77.61175957825355
 23
39.794847671836585
 33
-98.8025661831603
  0
3DFACE
  8
0
1001
WEBCAD
1000
S3D1
 10
75.46382143603199
 20
44.44898432955143
 30
-86.38180546820976
 11
77.17557665773676
 21
45.27292460665104
 31
-90.29429421652071
 12
75.29236404237433
 22
41.974535171836585
 32
-86.53281233739168
 13
75.29236404237433
 23
41.974535171836585
 33
-86.53281233739168
  0
3DFACE
  8
0
1001
WEBCAD
1000
S3D1
 10
75.44936214445575
 20
45.27292460665104
 30
-86.32493536791851
 11
77.17557665773676
 21
45.27292460665104
 31
-90.29429421652071
 12
75.46382143603199
 22
44.44898432955143
 32
-86.38180546820976
 13
75.46382143603199
 23
44.44898432955143
 33
-86.38180546820976
  0
3DFACE
  8
0
1001
WEBCAD
1000
S3D1
 10
77.1271426086771
 20
49.04620951876041
 30
-91.19925339030874
 11
75.44936214445575
 21
45.27292460665104
 31
-86.32493536791851
 12
74.78500233380953
 22
49.564684097617835
 32
-85.97511118730222
 13
74.78500233380953
 23
49.564684097617835
 33
-85.97511118730222
  0
3DFACE
  8
0
1001
WEBCAD
1000
S3D1
 10
77.1271426086771
 20
49.04620951876041
 30
-91.19925339030874
 11
78.12776513746604
 21
45.27292460665104
 31
-94.51673756175748
 12
77.17557665773676
 22
45.27292460665104
 32
-90.29429421652071
 13
77.17557665773676
 23
45.27292460665104
 33
-90.29429421652071
  0
3DFACE
  8
0
1001
WEBCAD
1000
S3D1
 10
77.1271426086771
 20
49.04620951876041
 30
-91.19925339030874
 11
77.17557665773676
 21
45.27292460665104
 31
-90.29429421652071
 12
75.44936214445575
 22
45.27292460665104
 32
-86.32493536791851
 13
75.44936214445575
 23
45.27292460665104
 33
-86.32493536791851
  0
3DFACE
  8
0
1001
WEBCAD
1000
S3D1
 10
77.1271426086771
 20
49.04620951876041
 30
-91.19925339030874
 11
77.62936267045045
 21
50.67856044039127
 31
-98.80364365407648
 12
78.12776513746604
 22
45.27292460665104
 32
-94.51673756175748
 13
78.12776513746604
 23
45.27292460665104
 33
-94.51673756175748
  0
3DFACE
  8
0
1001
WEBCAD
1000
S3D1
 10
74.55083867426269
 20
56.137666885703766
 30
-91.04235542054876
 11
74.78500233380953
 21
49.564684097617835
 31
-85.97511118730222
 12
73.1656722869436
 22
53.58684748873112
 32
-85.55741319699509
 13
73.1656722869436
 23
53.58684748873112
 33
-85.55741319699509
  0
3DFACE
  8
0
1001
WEBCAD
1000
S3D1
 10
74.55083867426269
 20
56.137666885703766
 30
-91.04235542054876
 11
73.1656722869436
 21
53.58684748873112
 31
-85.55741319699509
 12
70.67537128595372
 22
57.13127345308658
 32
-85.09357841942898
 13
70.67537128595372
 23
57.13127345308658
 33
-85.09357841942898
  0
3DFACE
  8
0
1001
WEBCAD
1000
S3D1
 10
74.55083867426269
 20
56.137666885703766
 30
-91.04235542054876
 11
77.62936267045045
 21
50.67856044039127
 31
-98.80364365407648
 12
77.1271426086771
 22
49.04620951876041
 32
-91.19925339030874
 13
77.1271426086771
 23
49.04620951876041
 33
-91.19925339030874
  0
3DFACE
  8
0
1001
WEBCAD
1000
S3D1
 10
74.55083867426269
 20
56.137666885703766
 30
-91.04235542054876
 11
75.73675178941383
 21
55.78154200777408
 31
-98.68837571165123
 12
77.62936267045045
 22
50.67856044039127
 32
-98.80364365407648
 13
77.62936267045045
 23
50.67856044039127
 33
-98.80364365407648
  0
3DFACE
  8
0
1001
WEBCAD
1000
S3D1
 10
74.55083867426269
 20
56.137666885703766
 30
-91.04235542054876
 11
72.70036322199338
 21
60.296167557090484
 31
-98.50345905108449
 12
75.73675178941383
 22
55.78154200777408
 32
-98.68837571165123
 13
75.73675178941383
 23
55.78154200777408
 33
-98.68837571165123
  0
3DFACE
  8
0
1001
WEBCAD
1000
S3D1
 10
74.55083867426269
 20
56.137666885703766
 30
-91.04235542054876
 11
77.1271426086771
 21
49.04620951876041
 31
-91.19925339030874
 12
74.78500233380953
 22
49.564684097617835
 32
-85.97511118730222
 13
74.78500233380953
 23
49.564684097617835
 33
-85.97511118730222
  0
3DFACE
  8
0
1001
WEBCAD
1000
S3D1
 10
69.7089678973582
 20
61.918672745078766
 30
-90.74747776315374
 11
70.67537128595372
 21
57.13127345308658
 31
-85.09357841942898
 12
67.443204684261
 22
60.01239985689517
 32
-84.6067466564229
 13
67.443204684261
 23
60.01239985689517
 33
-84.6067466564229
  0
3DFACE
  8
0
1001
WEBCAD
1000
S3D1
 10
69.7089678973582
 20
61.918672745078766
 30
-90.74747776315374
 11
67.443204684261
 21
60.01239985689517
 31
-84.6067466564229
 12
63.636074271127185
 22
62.07874507173892
 32
-84.12036795708504
 13
63.636074271127185
 23
62.07874507173892
 33
-84.12036795708504
  0
3DFACE
  8
0
1001
WEBCAD
1000
S3D1
 10
69.7089678973582
 20
61.918672745078766
 30
-90.74747776315374
 11
68.69018823413822
 21
63.96966761812564
 31
-98.25923275249609
 12
72.70036322199338
 22
60.296167557090484
 32
-98.50345905108449
 13
72.70036322199338
 23
60.296167557090484
 33
-98.50345905108449
  0
3DFACE
  8
0
1001
WEBCAD
1000
S3D1
 10
69.7089678973582
 20
61.918672745078766
 30
-90.74747776315374
 11
74.55083867426269
 21
56.137666885703766
 31
-91.04235542054876
 12
70.67537128595372
 22
57.13127345308658
 32
-85.09357841942898
 13
70.67537128595372
 23
57.13127345308658
 33
-85.09357841942898
  0
3DFACE
  8
0
1001
WEBCAD
1000
S3D1
 10
69.7089678973582
 20
61.918672745078766
 30
-90.74747776315374
 11
63.187108997050814
 21
66.59637660250064
 31
-93.90193420974215
 12
63.805880583123354
 22
66.59637660250064
 32
-95.89050373079861
 13
63.805880583123354
 23
66.59637660250064
 33
-95.89050373079861
  0
3DFACE
  8
0
1001
WEBCAD
1000
S3D1
 10
69.7089678973582
 20
61.918672745078766
 30
-90.74747776315374
 11
72.70036322199338
 21
60.296167557090484
 31
-98.50345905108449
 12
74.55083867426269
 22
56.137666885703766
 32
-91.04235542054876
 13
74.55083867426269
 23
56.137666885703766
 33
-91.04235542054876
  0
3DFACE
  8
0
1001
WEBCAD
1000
S3D1
 10
69.7089678973582
 20
61.918672745078766
 30
-90.74747776315374
 11
63.805880583123354
 21
66.59637660250064
 31
-95.89050373079861
 12
68.69018823413822
 22
63.96966761812564
 32
-98.25923275249609
 13
68.69018823413822
 23
63.96966761812564
 33
-98.25923275249609
  0
3DFACE
  8
0
1001
WEBCAD
1000
S3D1
 10
63.185538600048645
 20
65.69195765718814
 30
-90.3501874975477
 11
69.7089678973582
 21
61.918672745078766
 31
-90.74747776315374
 12
63.636074271127185
 22
62.07874507173892
 32
-84.12036795708504
 13
63.636074271127185
 23
62.07874507173892
 33
-84.12036795708504
  0
3DFACE
  8
0
1001
WEBCAD
1000
S3D1
 10
63.185538600048645
 20
65.69195765718814
 30
-90.3501874975477
 11
63.187108997050814
 21
66.59637660250064
 31
-93.90193420974215
 12
69.7089678973582
 22
61.918672745078766
 32
-90.74747776315374
 13
69.7089678973582
 23
61.918672745078766
 33
-90.74747776315374
  0
3DFACE
  8
0
1001
WEBCAD
1000
S3D1
 10
63.185538600048645
 20
65.69195765718814
 30
-90.3501874975477
 11
59.45215553311944
 21
63.2194387362897
 31
-83.65771412748276
 12
58.85658075992073
 22
66.59637660250064
 32
-89.56783561543251
 13
58.85658075992073
 23
66.59637660250064
 33
-89.56783561543251
  0
3DFACE
  8
0
1001
WEBCAD
1000
S3D1
 10
63.185538600048645
 20
65.69195765718814
 30
-90.3501874975477
 11
63.636074271127185
 21
62.07874507173892
 31
-84.12036795708504
 12
59.45215553311944
 22
63.2194387362897
 32
-83.65771412748276
 13
59.45215553311944
 23
63.2194387362897
 33
-83.65771412748276
  0
3DFACE
  8
0
1001
WEBCAD
1000
S3D1
 10
63.185538600048645
 20
65.69195765718814
 30
-90.3501874975477
 11
58.85658075992073
 21
66.59637660250064
 31
-89.56783561543251
 12
60.63840147346619
 22
66.59637660250064
 32
-90.64598491952178
 13
60.63840147346619
 23
66.59637660250064
 33
-90.64598491952178
  0
3DFACE
  8
0
1001
WEBCAD
1000
S3D1
 10
63.185538600048645
 20
65.69195765718814
 30
-90.3501874975477
 11
60.63840147346619
 21
66.59637660250064
 31
-90.64598491952178
 12
62.110426854411614
 22
66.59637660250064
 32
-92.11922387836069
 13
62.110426854411614
 23
66.59637660250064
 33
-92.11922387836069
  0
3DFACE
  8
0
1001
WEBCAD
1000
S3D1
 10
63.185538600048645
 20
65.69195765718814
 30
-90.3501874975477
 11
62.110426854411614
 21
66.59637660250064
 31
-92.11922387836069
 12
63.187108997050814
 22
66.59637660250064
 32
-93.90193420974215
 13
63.187108997050814
 23
66.59637660250064
 33
-93.90193420974215
  0
3DFACE
  8
0
1001
WEBCAD
1000
S3D1
 10
48.34918940941016
 20
65.69195765718814
 30
-89.44662861737136
 11
50.843927487620235
 21
62.523706619590484
 31
-82.89069706938224
 12
46.87713424373828
 22
60.72004145845767
 32
-82.62426588691724
 13
46.87713424373828
 23
60.72004145845767
 33
-82.62426588691724
  0
3DFACE
  8
0
1001
WEBCAD
1000
S3D1
 10
48.34918940941016
 20
65.69195765718814
 30
-89.44662861737136
 11
52.741092922333536
 21
66.59637660250064
 31
-89.19539005715596
 12
50.843927487620235
 22
62.523706619590484
 32
-82.89069706938224
 13
50.843927487620235
 23
62.523706619590484
 33
-82.89069706938224
  0
3DFACE
  8
0
1001
WEBCAD
1000
S3D1
 10
48.34918940941016
 20
65.69195765718814
 30
-89.44662861737136
 11
47.91660972645356
 21
66.59637660250064
 31
-92.97193182864378
 12
49.20167427507799
 22
66.59637660250064
 32
-91.333058276863
 13
49.20167427507799
 23
66.59637660250064
 33
-91.333058276863
  0
3DFACE
  8
0
1001
WEBCAD
1000
S3D1
 10
48.34918940941016
 20
65.69195765718814
 30
-89.44662861737136
 11
49.20167427507799
 21
66.59637660250064
 31
-91.333058276863
 12
50.841604552923044
 22
66.59637660250064
 32
-90.04934007538306
 13
50.841604552923044
 23
66.59637660250064
 33
-90.04934007538306
  0
3DFACE
  8
0
1001
WEBCAD
1000
S3D1
 10
48.34918940941016
 20
65.69195765718814
 30
-89.44662861737136
 11
50.841604552923044
 21
66.59637660250064
 31
-90.04934007538306
 12
52.741092922333536
 22
66.59637660250064
 32
-89.19539005715596
 13
52.741092922333536
 23
66.59637660250064
 33
-89.19539005715596
  0
3DFACE
  8
0
1001
WEBCAD
1000
S3D1
 10
41.82575248623428
 20
61.918672745078766
 30
-89.04933811976599
 11
41.8650195603213
 21
63.926119034141266
 31
-96.62553083459063
 12
47.061096203044144
 22
66.59637660250064
 32
-94.87071461605049
 13
47.061096203044144
 23
66.59637660250064
 33
-94.87071461605049
  0
3DFACE
  8
0
1001
WEBCAD
1000
S3D1
 10
41.82575248623428
 20
61.918672745078766
 30
-89.04933811976599
 11
37.81843442918996
 21
60.18291682466861
 31
-96.37908243481348
 12
41.8650195603213
 22
63.926119034141266
 32
-96.62553083459063
 13
41.8650195603213
 23
63.926119034141266
 33
-96.62553083459063
  0
3DFACE
  8
0
1001
WEBCAD
1000
S3D1
 10
41.82575248623428
 20
61.918672745078766
 30
-89.04933811976599
 11
46.87713424373828
 21
60.72004145845767
 31
-82.62426588691724
 12
43.42268655260216
 22
58.05601710543033
 32
-82.45565875770868
 13
43.42268655260216
 23
58.05601710543033
 33
-82.45565875770868
  0
3DFACE
  8
0
1001
WEBCAD
1000
S3D1
 10
41.82575248623428
 20
61.918672745078766
 30
-89.04933811976599
 11
47.061096203044144
 21
66.59637660250064
 31
-94.87071461605049
 12
47.91660972645356
 22
66.59637660250064
 32
-92.97193182864378
 13
47.91660972645356
 23
66.59637660250064
 33
-92.97193182864378
  0
3DFACE
  8
0
1001
WEBCAD
1000
S3D1
 10
41.82575248623428
 20
61.918672745078766
 30
-89.04933811976599
 11
47.91660972645356
 21
66.59637660250064
 31
-92.97193182864378
 12
48.34918940941016
 22
65.69195765718814
 32
-89.44662861737136
 13
48.34918940941016
 23
65.69195765718814
 33
-89.44662861737136
  0
3DFACE
  8
0
1001
WEBCAD
1000
S3D1
 10
41.82575248623428
 20
61.918672745078766
 30
-89.04933811976599
 11
48.34918940941016
 21
65.69195765718814
 31
-89.44662861737136
 12
46.87713424373828
 22
60.72004145845767
 32
-82.62426588691724
 13
46.87713424373828
 23
60.72004145845767
 33
-82.62426588691724
  0
3DFACE
  8
0
1001
WEBCAD
1000
S3D1
 10
36.98388552226298
 20
56.137666885703766
 30
-88.75446057837064
 11
41.82575248623428
 21
61.918672745078766
 31
-89.04933811976599
 12
43.42268655260216
 22
58.05601710543033
 32
-82.45565875770868
 13
43.42268655260216
 23
58.05601710543033
 33
-82.45565875770868
  0
3DFACE
  8
0
1001
WEBCAD
1000
S3D1
 10
36.98388552226298
 20
56.137666885703766
 30
-88.75446057837064
 11
34.77785939221127
 21
55.582063858360016
 31
-96.19390865089805
 12
37.81843442918996
 22
60.18291682466861
 32
-96.37908243481348
 13
37.81843442918996
 23
60.18291682466861
 33
-96.37908243481348
  0
3DFACE
  8
0
1001
WEBCAD
1000
S3D1
 10
36.98388552226298
 20
56.137666885703766
 30
-88.75446057837064
 11
43.42268655260216
 21
58.05601710543033
 31
-82.45565875770868
 12
40.66415865864002
 22
54.67424220308658
 32
-82.39433039537636
 13
40.66415865864002
 23
54.67424220308658
 33
-82.39433039537636
  0
3DFACE
  8
0
1001
WEBCAD
1000
S3D1
 10
36.98388552226298
 20
56.137666885703766
 30
-88.75446057837064
 11
40.66415865864002
 21
54.67424220308658
 31
-82.39433039537636
 12
38.74657073379038
 22
50.7557279513776
 32
-82.44472323427402
 13
38.74657073379038
 23
50.7557279513776
 33
-82.44472323427402
  0
3DFACE
  8
0
1001
WEBCAD
1000
S3D1
 10
36.98388552226298
 20
56.137666885703766
 30
-88.75446057837064
 11
37.81843442918996
 21
60.18291682466861
 31
-96.37908243481348
 12
41.82575248623428
 22
61.918672745078766
 32
-89.04933811976599
 13
41.82575248623428
 23
61.918672745078766
 33
-89.04933811976599
  0
3DFACE
  8
0
1001
WEBCAD
1000
S3D1
 10
34.40757777491538
 20
49.046209518760406
 30
-88.597562492611
 11
32.918192133262494
 21
50.38822001680728
 31
-96.08065048784668
 12
34.77785939221127
 22
55.582063858360016
 32
-96.19390865089805
 13
34.77785939221127
 23
55.582063858360016
 33
-96.19390865089805
  0
3DFACE
  8
0
1001
WEBCAD
1000
S3D1
 10
34.40757777491538
 20
49.046209518760406
 30
-88.597562492611
 11
36.98388552226298
 21
56.137666885703766
 31
-88.75446057837064
 12
38.74657073379038
 22
50.7557279513776
 32
-82.44472323427402
 13
38.74657073379038
 23
50.7557279513776
 33
-82.44472323427402
  0
3DFACE
  8
0
1001
WEBCAD
1000
S3D1
 10
34.40757777491538
 20
49.046209518760406
 30
-88.597562492611
 11
32.34640051986628
 21
44.900137131065094
 31
-96.04582908676714
 12
32.918192133262494
 22
50.38822001680728
 32
-96.08065048784668
 13
32.918192133262494
 23
50.38822001680728
 33
-96.08065048784668
  0
3DFACE
  8
0
1001
WEBCAD
1000
S3D1
 10
34.40757777491538
 20
49.046209518760406
 30
-88.597562492611
 11
38.74657073379038
 21
50.7557279513776
 31
-82.44472323427402
 12
37.768844837821916
 22
46.509142105430335
 32
-82.60585472938004
 13
37.768844837821916
 23
46.509142105430335
 33
-82.60585472938004
  0
3DFACE
  8
0
1001
WEBCAD
1000
S3D1
 10
34.40757777491538
 20
49.046209518760406
 30
-88.597562492611
 11
34.77785939221127
 21
55.582063858360016
 31
-96.19390865089805
 12
36.98388552226298
 22
56.137666885703766
 32
-88.75446057837064
 13
36.98388552226298
 23
56.137666885703766
 33
-88.75446057837064
  0
3DFACE
  8
0
1001
WEBCAD
1000
S3D1
 10
34.407577774915396
 20
41.49964350923892
 30
-88.597562492611
 11
33.09539027677809
 21
39.43350047335025
 31
-96.09144544117044
 12
32.34640051986628
 22
44.900137131065094
 32
-96.04582908676714
 13
32.34640051986628
 23
44.900137131065094
 33
-96.04582908676714
  0
3DFACE
  8
0
1001
WEBCAD
1000
S3D1
 10
34.407577774915396
 20
41.49964350923892
 30
-88.597562492611
 11
32.34640051986628
 21
44.900137131065094
 31
-96.04582908676714
 12
34.40757777491538
 22
49.046209518760406
 32
-88.597562492611
 13
34.40757777491538
 23
49.046209518760406
 33
-88.597562492611
  0
3DFACE
  8
0
1001
WEBCAD
1000
S3D1
 10
34.407577774915396
 20
41.49964350923892
 30
-88.597562492611
 11
34.40757777491538
 21
49.046209518760406
 31
-88.597562492611
 12
37.768844837821916
 22
46.509142105430335
 32
-82.60585472938004
 13
37.768844837821916
 23
46.509142105430335
 33
-82.60585472938004
  0
3DFACE
  8
0
1001
WEBCAD
1000
S3D1
 10
34.407577774915396
 20
41.49964350923892
 30
-88.597562492611
 11
37.768844837821916
 21
46.509142105430335
 31
-82.60585472938004
 12
37.77926706387056
 22
42.15881175264713
 32
-82.87119456844036
 13
37.77926706387056
 23
42.15881175264713
 33
-82.87119456844036
  0
3DFACE
  8
0
1001
WEBCAD
1000
S3D1
 10
34.407577774915396
 20
41.49964350923892
 30
-88.597562492611
 11
37.77926706387056
 21
42.15881175264713
 31
-82.87119456844036
 12
38.77423295237362
 22
37.932481949180335
 32
-83.22875626380912
 13
38.77423295237362
 23
37.932481949180335
 33
-83.22875626380912
  0
3DFACE
  8
0
1001
WEBCAD
1000
S3D1
 10
36.983885522262995
 20
34.40818995699283
 30
-88.75446057837064
 11
35.12205415620264
 21
34.30275172457095
 31
-96.21487524994933
 12
33.09539027677809
 22
39.43350047335025
 32
-96.09144544117044
 13
33.09539027677809
 23
39.43350047335025
 33
-96.09144544117044
  0
3DFACE
  8
0
1001
WEBCAD
1000
S3D1
 10
36.983885522262995
 20
34.40818995699283
 30
-88.75446057837064
 11
38.30983976675212
 21
29.803022568076813
 31
-96.40901573394304
 12
35.12205415620264
 22
34.30275172457095
 32
-96.21487524994933
 13
35.12205415620264
 23
34.30275172457095
 33
-96.21487524994933
  0
3DFACE
  8
0
1001
WEBCAD
1000
S3D1
 10
36.983885522262995
 20
34.40818995699283
 30
-88.75446057837064
 11
33.09539027677809
 21
39.43350047335025
 31
-96.09144544117044
 12
34.407577774915396
 22
41.49964350923892
 32
-88.597562492611
 13
34.407577774915396
 23
41.49964350923892
 33
-88.597562492611
  0
3DFACE
  8
0
1001
WEBCAD
1000
S3D1
 10
36.983885522262995
 20
34.40818995699283
 30
-88.75446057837064
 11
38.77423295237362
 21
37.932481949180335
 31
-83.22875626380912
 12
40.699749524625844
 22
34.04977244600651
 32
-83.66140236776714
 13
40.699749524625844
 23
34.04977244600651
 33
-83.66140236776714
  0
3DFACE
  8
0
1001
WEBCAD
1000
S3D1
 10
36.983885522262995
 20
34.40818995699283
 30
-88.75446057837064
 11
34.407577774915396
 21
41.49964350923892
 31
-88.597562492611
 12
38.77423295237362
 22
37.932481949180335
 32
-83.22875626380912
 13
38.77423295237362
 23
37.932481949180335
 33
-83.22875626380912
  0
3DFACE
  8
0
1001
WEBCAD
1000
S3D1
 10
41.82575248623429
 20
28.627180282920563
 30
-89.04933811976599
 11
42.475362329437075
 21
26.193140213340484
 31
-96.6627005355958
 12
38.30983976675212
 22
29.803022568076813
 32
-96.40901573394304
 13
38.30983976675212
 23
29.803022568076813
 33
-96.40901573394304
  0
3DFACE
  8
0
1001
WEBCAD
1000
S3D1
 10
41.82575248623429
 20
28.627180282920563
 30
-89.04933811976599
 11
40.699749524625844
 21
34.04977244600651
 31
-83.66140236776714
 12
43.454991196259016
 22
30.711832229942054
 32
-84.14738009671372
 13
43.454991196259016
 23
30.711832229942054
 33
-84.14738009671372
  0
3DFACE
  8
0
1001
WEBCAD
1000
S3D1
 10
41.82575248623429
 20
28.627180282920563
 30
-89.04933811976599
 11
43.454991196259016
 21
30.711832229942054
 31
-84.14738009671372
 12
46.89763457545851
 22
28.092081253379547
 32
-84.66109426398863
 13
46.89763457545851
 23
28.092081253379547
 33
-84.66109426398863
  0
3DFACE
  8
0
1001
WEBCAD
1000
S3D1
 10
41.82575248623429
 20
28.627180282920563
 30
-89.04933811976599
 11
38.30983976675212
 21
29.803022568076813
 31
-96.40901573394304
 12
36.983885522262995
 22
34.40818995699283
 32
-88.75446057837064
 13
36.983885522262995
 23
34.40818995699283
 33
-88.75446057837064
  0
3DFACE
  8
0
1001
WEBCAD
1000
S3D1
 10
41.82575248623429
 20
28.627180282920563
 30
-89.04933811976599
 11
36.983885522262995
 21
34.40818995699283
 31
-88.75446057837064
 12
40.699749524625844
 22
34.04977244600651
 32
-83.66140236776714
 13
40.699749524625844
 23
34.04977244600651
 33
-83.66140236776714
  0
3DFACE
  8
0
1001
WEBCAD
1000
S3D1
 10
48.34918940941017
 20
24.85389918550846
 30
-89.44662861737136
 11
47.3790253913549
 21
23.680753891319007
 31
-96.96134341238161
 12
42.475362329437075
 22
26.193140213340484
 32
-96.6627005355958
 13
42.475362329437075
 23
26.193140213340484
 33
-96.6627005355958
  0
3DFACE
  8
0
1001
WEBCAD
1000
S3D1
 10
48.34918940941017
 20
24.85389918550846
 30
-89.44662861737136
 11
52.73876559257985
 21
22.41037577852604
 31
-97.28776093447561
 12
47.3790253913549
 22
23.680753891319007
 32
-96.96134341238161
 13
47.3790253913549
 23
23.680753891319007
 33
-96.96134341238161
  0
3DFACE
  8
0
1001
WEBCAD
1000
S3D1
 10
48.34918940941017
 20
24.85389918550846
 30
-89.44662861737136
 11
46.89763457545851
 21
28.092081253379547
 31
-84.66109426398863
 12
50.85023565476246
 22
26.328314010947913
 32
-85.17424014085127
 13
50.85023565476246
 23
26.328314010947913
 33
-85.17424014085127
  0
3DFACE
  8
0
1001
WEBCAD
1000
S3D1
 10
48.34918940941017
 20
24.85389918550846
 30
-89.44662861737136
 11
42.475362329437075
 21
26.193140213340484
 31
-96.6627005355958
 12
41.82575248623429
 22
28.627180282920563
 32
-89.04933811976599
 13
41.82575248623429
 23
28.627180282920563
 33
-89.04933811976599
  0
3DFACE
  8
0
1001
WEBCAD
1000
S3D1
 10
48.34918940941017
 20
24.85389918550846
 30
-89.44662861737136
 11
41.82575248623429
 21
28.627180282920563
 31
-89.04933811976599
 12
46.89763457545851
 22
28.092081253379547
 32
-84.66109426398863
 13
46.89763457545851
 23
28.092081253379547
 33
-84.66109426398863
  0
3DFACE
  8
0
1001
WEBCAD
1000
S3D1
 10
55.76736412072907
 20
23.543451492637367
 30
-89.89840424452636
 11
52.73876559257985
 21
22.41037577852604
 31
-97.28776093447561
 12
48.34918940941017
 22
24.85389918550846
 32
-89.44662861737136
 13
48.34918940941017
 23
24.85389918550846
 33
-89.44662861737136
  0
3DFACE
  8
0
1001
WEBCAD
1000
S3D1
 10
55.76736412072907
 20
23.543451492637367
 30
-89.89840424452636
 11
58.24628021748512
 21
22.455084030479163
 31
-97.62317757632951
 12
52.73876559257985
 22
22.41037577852604
 32
-97.28776093447561
 13
52.73876559257985
 23
22.41037577852604
 33
-97.28776093447561
  0
3DFACE
  8
0
1001
WEBCAD
1000
S3D1
 10
55.76736412072907
 20
23.543451492637367
 30
-89.89840424452636
 11
50.85023565476246
 21
26.328314010947913
 31
-85.17424014085127
 12
55.10787054656731
 22
25.51566905245182
 32
-85.6573029735965
 13
55.10787054656731
 23
25.51566905245182
 33
-85.6573029735965
  0
3DFACE
  8
0
1001
WEBCAD
1000
S3D1
 10
55.76736412072907
 20
23.543451492637367
 30
-89.89840424452636
 11
55.10787054656731
 21
25.51566905245182
 31
-85.6573029735965
 12
59.447340621005026
 22
25.700620834678382
 32
-86.08157070237385
 13
59.447340621005026
 23
25.700620834678382
 33
-86.08157070237385
  0
3DFACE
  8
0
1001
WEBCAD
1000
S3D1
 10
55.76736412072907
 20
23.543451492637367
 30
-89.89840424452636
 11
48.34918940941017
 21
24.85389918550846
 31
-89.44662861737136
 12
50.85023565476246
 22
26.328314010947913
 32
-85.17424014085127
 13
50.85023565476246
 23
26.328314010947913
 33
-85.17424014085127
  0
3DFACE
  8
0
1001
WEBCAD
1000
S3D1
 10
63.18553860004866
 20
24.85389918550846
 30
-90.3501874975477
 11
63.58476397159984
 21
23.81229991182682
 31
-97.94829962170937
 12
58.24628021748512
 22
22.455084030479163
 32
-97.62317757632951
 13
58.24628021748512
 23
22.455084030479163
 33
-97.62317757632951
  0
3DFACE
  8
0
1001
WEBCAD
1000
S3D1
 10
63.18553860004866
 20
24.85389918550846
 30
-90.3501874975477
 11
68.44715599551193
 21
26.403959457725257
 31
-98.24442749028609
 12
63.58476397159984
 22
23.81229991182682
 32
-97.94829962170937
 13
63.58476397159984
 23
23.81229991182682
 33
-97.94829962170937
  0
3DFACE
  8
0
1001
WEBCAD
1000
S3D1
 10
63.18553860004866
 20
24.85389918550846
 30
-90.3501874975477
 11
58.24628021748512
 21
22.455084030479163
 31
-97.62317757632951
 12
55.76736412072907
 22
23.543451492637367
 32
-89.89840424452636
 13
55.76736412072907
 23
23.543451492637367
 33
-89.89840424452636
  0
3DFACE
  8
0
1001
WEBCAD
1000
S3D1
 10
63.18553860004866
 20
24.85389918550846
 30
-90.3501874975477
 11
55.76736412072907
 21
23.543451492637367
 31
-89.89840424452636
 12
59.447340621005026
 22
25.700620834678382
 32
-86.08157070237385
 13
59.447340621005026
 23
25.700620834678382
 33
-86.08157070237385
  0
3DFACE
  8
0
1001
WEBCAD
1000
S3D1
 10
63.18553860004866
 20
24.85389918550846
 30
-90.3501874975477
 11
59.447340621005026
 21
25.700620834678382
 31
-86.08157070237385
 12
63.638373734692365
 22
26.87666529878971
 32
-86.4215203563448
 13
63.638373734692365
 23
26.87666529878971
 33
-86.4215203563448
  0
3DFACE
  8
0
1001
WEBCAD
1000
S3D1
 10
63.18553860004866
 20
24.85389918550846
 30
-90.3501874975477
 11
63.638373734692365
 21
26.87666529878971
 31
-86.4215203563448
 12
67.45659167458807
 22
28.982870285361976
 32
-86.65710552335412
 13
67.45659167458807
 23
28.982870285361976
 33
-86.65710552335412
  0
3DFACE
  8
0
1001
WEBCAD
1000
S3D1
 10
69.70896789735822
 20
28.62718028292057
 30
-90.74747776315374
 11
63.18553860004866
 21
24.85389918550846
 31
-90.3501874975477
 12
67.45659167458807
 22
28.982870285361976
 32
-86.65710552335412
 13
67.45659167458807
 23
28.982870285361976
 33
-86.65710552335412
  0
3DFACE
  8
0
1001
WEBCAD
1000
S3D1
 10
69.70896789735822
 20
28.62718028292057
 30
-90.74747776315374
 11
72.5537470019975
 21
30.080988113731117
 31
-98.49452569868511
 12
68.44715599551193
 22
26.403959457725257
 32
-98.24442749028609
 13
68.44715599551193
 23
26.403959457725257
 33
-98.24442749028609
  0
3DFACE
  8
0
1001
WEBCAD
1000
S3D1
 10
69.70896789735822
 20
28.62718028292057
 30
-90.74747776315374
 11
68.44715599551193
 21
26.403959457725257
 31
-98.24442749028609
 12
63.18553860004866
 22
24.85389918550846
 32
-90.3501874975477
 13
63.18553860004866
 23
24.85389918550846
 33
-90.3501874975477
  0
3DFACE
  8
0
1001
WEBCAD
1000
S3D1
 10
69.70896789735822
 20
28.62718028292057
 30
-90.74747776315374
 11
67.45659167458807
 21
28.982870285361976
 31
-86.65710552335412
 12
70.69739807190413
 22
31.906454269736976
 32
-86.77564437900497
 13
70.69739807190413
 23
31.906454269736976
 33
-86.77564437900497
  0
3DFACE
  8
0
1001
WEBCAD
1000
S3D1
 10
74.55083867426269
 20
34.408189956992835
 30
-91.04235542054874
 11
75.66833484561143
 21
34.63187236055729
 31
-98.68421049633545
 12
72.5537470019975
 22
30.080988113731117
 32
-98.49452569868511
 13
72.5537470019975
 23
30.080988113731117
 33
-98.49452569868511
  0
3DFACE
  8
0
1001
WEBCAD
1000
S3D1
 10
74.55083867426269
 20
34.408189956992835
 30
-91.04235542054874
 11
77.61175957825355
 21
39.794847671836585
 31
-98.8025661831603
 12
75.66833484561143
 22
34.63187236055729
 32
-98.68421049633545
 13
75.66833484561143
 23
34.63187236055729
 33
-98.68421049633545
  0
3DFACE
  8
0
1001
WEBCAD
1000
S3D1
 10
74.55083867426269
 20
34.408189956992835
 30
-91.04235542054874
 11
72.5537470019975
 21
30.080988113731117
 31
-98.49452569868511
 12
69.70896789735822
 22
28.62718028292057
 32
-90.74747776315374
 13
69.70896789735822
 23
28.62718028292057
 33
-90.74747776315374
  0
3DFACE
  8
0
1001
WEBCAD
1000
S3D1
 10
74.55083867426269
 20
34.408189956992835
 30
-91.04235542054874
 11
70.69739807190413
 21
31.906454269736976
 31
-86.77564437900497
 12
73.18870962477223
 22
35.489767258018226
 32
-86.7725886508232
 13
73.18870962477223
 23
35.489767258018226
 33
-86.7725886508232
  0
3DFACE
  8
0
1001
WEBCAD
1000
S3D1
 10
74.55083867426269
 20
34.408189956992835
 30
-91.04235542054874
 11
73.18870962477223
 21
35.489767258018226
 31
-86.7725886508232
 12
74.8007167024211
 22
39.54072779878971
 32
-86.65120992807033
 13
74.8007167024211
 23
39.54072779878971
 33
-86.65120992807033
  0
3DFACE
  8
0
1001
WEBCAD
1000
S3D1
 10
74.55083867426269
 20
34.408189956992835
 30
-91.04235542054874
 11
69.70896789735822
 21
28.62718028292057
 31
-90.74747776315374
 12
70.69739807190413
 22
31.906454269736976
 32
-86.77564437900497
 13
70.69739807190413
 23
31.906454269736976
 33
-86.77564437900497
  0
3DFACE
  8
0
1001
WEBCAD
1000
S3D1
 10
77.1271426086771
 20
41.49964350923893
 30
-91.19925339030874
 11
78.12776513746604
 21
45.27292460665104
 31
-94.51673756175748
 12
77.61175957825355
 22
39.794847671836585
 32
-98.8025661831603
 13
77.61175957825355
 23
39.794847671836585
 33
-98.8025661831603
  0
3DFACE
  8
0
1001
WEBCAD
1000
S3D1
 10
77.1271426086771
 20
41.49964350923893
 30
-91.19925339030874
 11
75.29236404237433
 21
41.974535171836585
 31
-86.53281233739168
 12
77.17557665773676
 22
45.27292460665104
 32
-90.29429421652071
 13
77.17557665773676
 23
45.27292460665104
 33
-90.29429421652071
  0
3DFACE
  8
0
1001
WEBCAD
1000
S3D1
 10
77.1271426086771
 20
41.49964350923893
 30
-91.19925339030874
 11
77.17557665773676
 21
45.27292460665104
 31
-90.29429421652071
 12
78.12776513746604
 22
45.27292460665104
 32
-94.51673756175748
 13
78.12776513746604
 23
45.27292460665104
 33
-94.51673756175748
  0
3DFACE
  8
0
1001
WEBCAD
1000
S3D1
 10
77.1271426086771
 20
41.49964350923893
 30
-91.19925339030874
 11
74.8007167024211
 21
39.54072779878971
 31
-86.65120992807033
 12
75.29236404237433
 22
41.974535171836585
 32
-86.53281233739168
 13
75.29236404237433
 23
41.974535171836585
 33
-86.53281233739168
  0
3DFACE
  8
0
1001
WEBCAD
1000
S3D1
 10
77.1271426086771
 20
41.49964350923893
 30
-91.19925339030874
 11
74.55083867426269
 21
34.408189956992835
 31
-91.04235542054874
 12
74.8007167024211
 22
39.54072779878971
 32
-86.65120992807033
 13
74.8007167024211
 23
39.54072779878971
 33
-86.65120992807033
  0
3DFACE
  8
0
1001
WEBCAD
1000
S3D1
 10
77.1271426086771
 20
41.49964350923893
 30
-91.19925339030874
 11
77.61175957825355
 21
39.794847671836585
 31
-98.8025661831603
 12
74.55083867426269
 22
34.408189956992835
 32
-91.04235542054874
 13
74.55083867426269
 23
34.408189956992835
 33
-91.04235542054874
  0
3DFACE
  8
0
1001
WEBCAD
1000
S3D1
 10
75.44936214445575
 20
45.27292460665104
 30
-86.32493536791851
 11
75.46382143603199
 21
44.44898432955143
 31
-86.38180546820976
 12
74.71838537803924
 22
44.44898432955143
 32
-98.62178668140685
 13
74.71838537803924
 23
44.44898432955143
 33
-98.62178668140685
  0
3DFACE
  8
0
1001
WEBCAD
1000
S3D1
 10
75.44936214445575
 20
45.27292460665104
 30
-86.32493536791851
 11
74.71838537803924
 21
44.44898432955143
 31
-98.62178668140685
 12
74.16777799802243
 22
48.992025558799476
 32
-98.58825092718169
 13
74.16777799802243
 23
48.992025558799476
 33
-98.58825092718169
  0
3DFACE
  8
0
1001
WEBCAD
1000
S3D1
 10
74.78500233380953
 20
49.564684097617835
 30
-85.97511118730222
 11
74.16777799802243
 21
48.992025558799476
 31
-98.58825092718169
 12
72.54796600743275
 22
53.27104014620182
 32
-98.48960214636558
 13
72.54796600743275
 23
53.27104014620182
 33
-98.48960214636558
  0
3DFACE
  8
0
1001
WEBCAD
1000
S3D1
 10
74.78500233380953
 20
49.564684097617835
 30
-85.97511118730222
 11
75.44936214445575
 21
45.27292460665104
 31
-86.32493536791851
 12
74.16777799802243
 22
48.992025558799476
 32
-98.58825092718169
 13
74.16777799802243
 23
48.992025558799476
 33
-98.58825092718169
  0
3DFACE
  8
0
1001
WEBCAD
1000
S3D1
 10
73.1656722869436
 20
53.58684748873112
 30
-85.55741319699509
 11
72.54796600743275
 21
53.27104014620182
 31
-98.48960214636558
 12
69.9530759400632
 22
57.03734797701236
 32
-98.33157390017938
 13
69.9530759400632
 23
57.03734797701236
 33
-98.33157390017938
  0
3DFACE
  8
0
1001
WEBCAD
1000
S3D1
 10
73.1656722869436
 20
53.58684748873112
 30
-85.55741319699509
 11
74.78500233380953
 21
49.564684097617835
 31
-85.97511118730222
 12
72.54796600743275
 22
53.27104014620182
 32
-98.48960214636558
 13
72.54796600743275
 23
53.27104014620182
 33
-98.48960214636558
  0
3DFACE
  8
0
1001
WEBCAD
1000
S3D1
 10
70.67537128595372
 20
57.13127345308658
 30
-85.09357841942898
 11
69.9530759400632
 21
57.03734797701236
 31
-98.33157390017938
 12
66.53392238826609
 22
60.07206935152408
 32
-98.12334176063746
 13
66.53392238826609
 23
60.07206935152408
 33
-98.12334176063746
  0
3DFACE
  8
0
1001
WEBCAD
1000
S3D1
 10
70.67537128595372
 20
57.13127345308658
 30
-85.09357841942898
 11
73.1656722869436
 21
53.58684748873112
 31
-85.55741319699509
 12
69.9530759400632
 22
57.03734797701236
 32
-98.33157390017938
 13
69.9530759400632
 23
57.03734797701236
 33
-98.33157390017938
  0
3DFACE
  8
0
1001
WEBCAD
1000
S3D1
 10
67.443204684261
 20
60.01239985689517
 30
-84.6067466564229
 11
70.67537128595372
 21
57.13127345308658
 31
-85.09357841942898
 12
66.53392238826609
 22
60.07206935152408
 32
-98.12334176063746
 13
66.53392238826609
 23
60.07206935152408
 33
-98.12334176063746
  0
3DFACE
  8
0
1001
WEBCAD
1000
S3D1
 10
63.636074271127185
 20
62.07874507173892
 30
-84.12036795708504
 11
66.53392238826609
 21
60.07206935152408
 31
-98.12334176063746
 12
62.48921136425665
 22
62.1988317416608
 32
-97.87701143962131
 13
62.48921136425665
 23
62.1988317416608
 33
-97.87701143962131
  0
3DFACE
  8
0
1001
WEBCAD
1000
S3D1
 10
63.636074271127185
 20
62.07874507173892
 30
-84.12036795708504
 11
67.443204684261
 21
60.01239985689517
 31
-84.6067466564229
 12
66.53392238826609
 22
60.07206935152408
 32
-98.12334176063746
 13
66.53392238826609
 23
60.07206935152408
 33
-98.12334176063746
  0
3DFACE
  8
0
1001
WEBCAD
1000
S3D1
 10
59.45215553311944
 20
63.2194387362897
 30
-83.65771412748276
 11
62.48921136425665
 21
62.1988317416608
 31
-97.87701143962131
 12
58.05400610646066
 22
63.294031326621734
 32
-97.60689387447333
 13
58.05400610646066
 23
63.294031326621734
 33
-97.60689387447333
  0
3DFACE
  8
0
1001
WEBCAD
1000
S3D1
 10
59.45215553311944
 20
63.2194387362897
 30
-83.65771412748276
 11
63.636074271127185
 21
62.07874507173892
 31
-84.12036795708504
 12
62.48921136425665
 22
62.1988317416608
 32
-97.87701143962131
 13
62.48921136425665
 23
62.1988317416608
 33
-97.87701143962131
  0
3DFACE
  8
0
1001
WEBCAD
1000
S3D1
 10
55.11140871568443
 20
63.3713170932233
 30
-83.2410404811266
 11
58.05400610646066
 21
63.294031326621734
 31
-97.60689387447333
 12
53.48605810728908
 22
63.294031326621734
 32
-97.32870010205106
 13
53.48605810728908
 23
63.294031326621734
 33
-97.32870010205106
  0
3DFACE
  8
0
1001
WEBCAD
1000
S3D1
 10
55.11140871568443
 20
63.3713170932233
 30
-83.2410404811266
 11
59.45215553311944
 21
63.2194387362897
 31
-83.65771412748276
 12
58.05400610646066
 22
63.294031326621734
 32
-97.60689387447333
 13
58.05400610646066
 23
63.294031326621734
 33
-97.60689387447333
  0
3DFACE
  8
0
1001
WEBCAD
1000
S3D1
 10
50.843927487620235
 20
62.523706619590484
 30
-82.89069706938224
 11
53.48605810728908
 21
63.294031326621734
 31
-97.32870010205106
 12
49.0508526174938
 22
62.1988317416608
 32
-97.05859016276939
 13
49.0508526174938
 23
62.1988317416608
 33
-97.05859016276939
  0
3DFACE
  8
0
1001
WEBCAD
1000
S3D1
 10
50.843927487620235
 20
62.523706619590484
 30
-82.89069706938224
 11
55.11140871568443
 21
63.3713170932233
 31
-83.2410404811266
 12
53.48605810728908
 22
63.294031326621734
 32
-97.32870010205106
 13
53.48605810728908
 23
63.294031326621734
 33
-97.32870010205106
  0
3DFACE
  8
0
1001
WEBCAD
1000
S3D1
 10
46.87713424373828
 20
60.72004145845767
 30
-82.62426588691724
 11
49.0508526174938
 21
62.1988317416608
 31
-97.05859016276939
 12
45.00614159348436
 22
60.07206935152408
 32
-96.81225984175325
 13
45.00614159348436
 23
60.07206935152408
 33
-96.81225984175325
  0
3DFACE
  8
0
1001
WEBCAD
1000
S3D1
 10
46.87713424373828
 20
60.72004145845767
 30
-82.62426588691724
 11
50.843927487620235
 21
62.523706619590484
 31
-82.89069706938224
 12
49.0508526174938
 22
62.1988317416608
 32
-97.05859016276939
 13
49.0508526174938
 23
62.1988317416608
 33
-97.05859016276939
  0
3DFACE
  8
0
1001
WEBCAD
1000
S3D1
 10
43.42268655260216
 20
58.05601710543033
 30
-82.45565875770868
 11
46.87713424373828
 21
60.72004145845767
 31
-82.62426588691724
 12
45.00614159348436
 22
60.07206935152408
 32
-96.81225984175325
 13
45.00614159348436
 23
60.07206935152408
 33
-96.81225984175325
  0
3DFACE
  8
0
1001
WEBCAD
1000
S3D1
 10
43.42268655260216
 20
58.05601710543033
 30
-82.45565875770868
 11
45.00614159348436
 21
60.07206935152408
 31
-96.81225984175325
 12
41.586988041687235
 22
57.03734797701236
 32
-96.60402770221133
 13
41.586988041687235
 23
57.03734797701236
 33
-96.60402770221133
  0
3DFACE
  8
0
1001
WEBCAD
1000
S3D1
 10
40.66415865864002
 20
54.67424220308658
 30
-82.39433039537636
 11
43.42268655260216
 21
58.05601710543033
 31
-82.45565875770868
 12
41.586988041687235
 22
57.03734797701236
 32
-96.60402770221133
 13
41.586988041687235
 23
57.03734797701236
 33
-96.60402770221133
  0
3DFACE
  8
0
1001
WEBCAD
1000
S3D1
 10
40.66415865864002
 20
54.67424220308658
 30
-82.39433039537636
 11
41.586988041687235
 21
57.03734797701236
 31
-96.60402770221133
 12
38.992098206316996
 22
53.27104014620181
 32
-96.44599183015879
 13
38.992098206316996
 23
53.27104014620181
 33
-96.44599183015879
  0
3DFACE
  8
0
1001
WEBCAD
1000
S3D1
 10
38.74657073379038
 20
50.7557279513776
 30
-82.44472323427402
 11
40.66415865864002
 21
54.67424220308658
 31
-82.39433039537636
 12
38.992098206316996
 22
53.27104014620181
 32
-96.44599183015879
 13
38.992098206316996
 23
53.27104014620181
 33
-96.44599183015879
  0
3DFACE
  8
0
1001
WEBCAD
1000
S3D1
 10
38.74657073379038
 20
50.7557279513776
 30
-82.44472323427402
 11
38.992098206316996
 21
53.27104014620181
 31
-96.44599183015879
 12
37.372286215727314
 22
48.99202555879947
 32
-96.34734304934268
 13
37.372286215727314
 23
48.99202555879947
 33
-96.34734304934268
  0
3DFACE
  8
0
1001
WEBCAD
1000
S3D1
 10
37.768844837821916
 20
46.509142105430335
 30
-82.60585472938004
 11
37.372286215727314
 21
48.99202555879947
 31
-96.34734304934268
 12
36.821682416644364
 22
44.44898432955142
 32
-96.3138150369835
 13
36.821682416644364
 23
44.44898432955142
 33
-96.3138150369835
  0
3DFACE
  8
0
1001
WEBCAD
1000
S3D1
 10
37.768844837821916
 20
46.509142105430335
 30
-82.60585472938004
 11
38.74657073379038
 21
50.7557279513776
 31
-82.44472323427402
 12
37.372286215727314
 22
48.99202555879947
 32
-96.34734304934268
 13
37.372286215727314
 23
48.99202555879947
 33
-96.34734304934268
  0
3DFACE
  8
0
1001
WEBCAD
1000
S3D1
 10
37.77926706387056
 20
42.15881175264713
 30
-82.87119456844036
 11
36.821682416644364
 21
44.44898432955142
 31
-96.3138150369835
 12
37.37228621572733
 22
39.90594691500064
 32
-96.34734304934267
 13
37.37228621572733
 23
39.90594691500064
 33
-96.34734304934267
  0
3DFACE
  8
0
1001
WEBCAD
1000
S3D1
 10
37.77926706387056
 20
42.15881175264713
 30
-82.87119456844036
 11
37.768844837821916
 21
46.509142105430335
 31
-82.60585472938004
 12
36.821682416644364
 22
44.44898432955142
 32
-96.3138150369835
 13
36.821682416644364
 23
44.44898432955142
 33
-96.3138150369835
  0
3DFACE
  8
0
1001
WEBCAD
1000
S3D1
 10
38.77423295237362
 20
37.932481949180335
 30
-83.22875626380912
 11
37.37228621572733
 21
39.90594691500064
 31
-96.34734304934267
 12
38.99209820631701
 22
35.6269323275983
 32
-96.44599183015879
 13
38.99209820631701
 23
35.6269323275983
 33
-96.44599183015879
  0
3DFACE
  8
0
1001
WEBCAD
1000
S3D1
 10
38.77423295237362
 20
37.932481949180335
 30
-83.22875626380912
 11
37.77926706387056
 21
42.15881175264713
 31
-82.87119456844036
 12
37.37228621572733
 22
39.90594691500064
 32
-96.34734304934267
 13
37.37228621572733
 23
39.90594691500064
 33
-96.34734304934267
  0
3DFACE
  8
0
1001
WEBCAD
1000
S3D1
 10
40.699749524625844
 20
34.04977244600651
 30
-83.66140236776714
 11
38.99209820631701
 21
35.6269323275983
 31
-96.44599183015879
 12
41.58698804168725
 22
31.86062449678775
 32
-96.60402770221133
 13
41.58698804168725
 23
31.86062449678775
 33
-96.60402770221133
  0
3DFACE
  8
0
1001
WEBCAD
1000
S3D1
 10
40.699749524625844
 20
34.04977244600651
 30
-83.66140236776714
 11
38.77423295237362
 21
37.932481949180335
 31
-83.22875626380912
 12
38.99209820631701
 22
35.6269323275983
 32
-96.44599183015879
 13
38.99209820631701
 23
35.6269323275983
 33
-96.44599183015879
  0
3DFACE
  8
0
1001
WEBCAD
1000
S3D1
 10
43.454991196259016
 20
30.711832229942054
 30
-84.14738009671372
 11
41.58698804168725
 21
31.86062449678775
 31
-96.60402770221133
 12
45.00614159348437
 22
28.82590312227603
 32
-96.81225984175325
 13
45.00614159348437
 23
28.82590312227603
 33
-96.81225984175325
  0
3DFACE
  8
0
1001
WEBCAD
1000
S3D1
 10
43.454991196259016
 20
30.711832229942054
 30
-84.14738009671372
 11
40.699749524625844
 21
34.04977244600651
 31
-83.66140236776714
 12
41.58698804168725
 22
31.86062449678775
 32
-96.60402770221133
 13
41.58698804168725
 23
31.86062449678775
 33
-96.60402770221133
  0
3DFACE
  8
0
1001
WEBCAD
1000
S3D1
 10
46.89763457545851
 20
28.092081253379547
 30
-84.66109426398863
 11
45.00614159348437
 21
28.82590312227603
 31
-96.81225984175325
 12
49.05085261749382
 22
26.69914073213932
 32
-97.05859016276939
 13
49.05085261749382
 23
26.69914073213932
 33
-97.05859016276939
  0
3DFACE
  8
0
1001
WEBCAD
1000
S3D1
 10
46.89763457545851
 20
28.092081253379547
 30
-84.66109426398863
 11
43.454991196259016
 21
30.711832229942054
 31
-84.14738009671372
 12
45.00614159348437
 22
28.82590312227603
 32
-96.81225984175325
 13
45.00614159348437
 23
28.82590312227603
 33
-96.81225984175325
  0
3DFACE
  8
0
1001
WEBCAD
1000
S3D1
 10
50.85023565476246
 20
26.328314010947913
 30
-85.17424014085127
 11
49.05085261749382
 21
26.69914073213932
 31
-97.05859016276939
 12
53.4860581072891
 22
25.603937332481117
 32
-97.32870010205104
 13
53.4860581072891
 23
25.603937332481117
 33
-97.32870010205104
  0
3DFACE
  8
0
1001
WEBCAD
1000
S3D1
 10
50.85023565476246
 20
26.328314010947913
 30
-85.17424014085127
 11
46.89763457545851
 21
28.092081253379547
 31
-84.66109426398863
 12
49.05085261749382
 22
26.69914073213932
 32
-97.05859016276939
 13
49.05085261749382
 23
26.69914073213932
 33
-97.05859016276939
  0
3DFACE
  8
0
1001
WEBCAD
1000
S3D1
 10
55.10787054656731
 20
25.51566905245182
 30
-85.6573029735965
 11
53.4860581072891
 21
25.603937332481117
 31
-97.32870010205104
 12
58.054006106460676
 22
25.603937332481117
 32
-97.60689387447331
 13
58.054006106460676
 23
25.603937332481117
 33
-97.60689387447331
  0
3DFACE
  8
0
1001
WEBCAD
1000
S3D1
 10
55.10787054656731
 20
25.51566905245182
 30
-85.6573029735965
 11
50.85023565476246
 21
26.328314010947913
 31
-85.17424014085127
 12
53.4860581072891
 22
25.603937332481117
 32
-97.32870010205104
 13
53.4860581072891
 23
25.603937332481117
 33
-97.32870010205104
  0
3DFACE
  8
0
1001
WEBCAD
1000
S3D1
 10
59.447340621005026
 20
25.700620834678382
 30
-86.08157070237385
 11
58.054006106460676
 21
25.603937332481117
 31
-97.60689387447331
 12
62.48921136425666
 22
26.69914073213932
 32
-97.8770114396213
 13
62.48921136425666
 23
26.69914073213932
 33
-97.8770114396213
  0
3DFACE
  8
0
1001
WEBCAD
1000
S3D1
 10
59.447340621005026
 20
25.700620834678382
 30
-86.08157070237385
 11
55.10787054656731
 21
25.51566905245182
 31
-85.6573029735965
 12
58.054006106460676
 22
25.603937332481117
 32
-97.60689387447331
 13
58.054006106460676
 23
25.603937332481117
 33
-97.60689387447331
  0
3DFACE
  8
0
1001
WEBCAD
1000
S3D1
 10
63.638373734692365
 20
26.87666529878971
 30
-86.4215203563448
 11
62.48921136425666
 21
26.69914073213932
 31
-97.8770114396213
 12
66.5339223882661
 22
28.82590312227604
 32
-98.12334176063746
 13
66.5339223882661
 23
28.82590312227604
 33
-98.12334176063746
  0
3DFACE
  8
0
1001
WEBCAD
1000
S3D1
 10
63.638373734692365
 20
26.87666529878971
 30
-86.4215203563448
 11
59.447340621005026
 21
25.700620834678382
 31
-86.08157070237385
 12
62.48921136425666
 22
26.69914073213932
 32
-97.8770114396213
 13
62.48921136425666
 23
26.69914073213932
 33
-97.8770114396213
  0
3DFACE
  8
0
1001
WEBCAD
1000
S3D1
 10
67.45659167458807
 20
28.982870285361976
 30
-86.65710552335412
 11
66.5339223882661
 21
28.82590312227604
 31
-98.12334176063746
 12
69.95307594006321
 22
31.860624496787757
 32
-98.33157390017938
 13
69.95307594006321
 23
31.860624496787757
 33
-98.33157390017938
  0
3DFACE
  8
0
1001
WEBCAD
1000
S3D1
 10
67.45659167458807
 20
28.982870285361976
 30
-86.65710552335412
 11
63.638373734692365
 21
26.87666529878971
 31
-86.4215203563448
 12
66.5339223882661
 22
28.82590312227604
 32
-98.12334176063746
 13
66.5339223882661
 23
28.82590312227604
 33
-98.12334176063746
  0
3DFACE
  8
0
1001
WEBCAD
1000
S3D1
 10
70.69739807190413
 20
31.906454269736976
 30
-86.77564437900497
 11
69.95307594006321
 21
31.860624496787757
 31
-98.33157390017938
 12
72.54796600743276
 22
35.626932327598304
 32
-98.48960214636558
 13
72.54796600743276
 23
35.626932327598304
 33
-98.48960214636558
  0
3DFACE
  8
0
1001
WEBCAD
1000
S3D1
 10
70.69739807190413
 20
31.906454269736976
 30
-86.77564437900497
 11
67.45659167458807
 21
28.982870285361976
 31
-86.65710552335412
 12
69.95307594006321
 22
31.860624496787757
 32
-98.33157390017938
 13
69.95307594006321
 23
31.860624496787757
 33
-98.33157390017938
  0
3DFACE
  8
0
1001
WEBCAD
1000
S3D1
 10
73.18870962477223
 20
35.489767258018226
 30
-86.7725886508232
 11
70.69739807190413
 21
31.906454269736976
 31
-86.77564437900497
 12
72.54796600743276
 22
35.626932327598304
 32
-98.48960214636558
 13
72.54796600743276
 23
35.626932327598304
 33
-98.48960214636558
  0
3DFACE
  8
0
1001
WEBCAD
1000
S3D1
 10
74.8007167024211
 20
39.54072779878971
 30
-86.65120992807033
 11
72.54796600743276
 21
35.626932327598304
 31
-98.48960214636558
 12
74.16777799802243
 22
39.90594691500065
 32
-98.58825092718169
 13
74.16777799802243
 23
39.90594691500065
 33
-98.58825092718169
  0
3DFACE
  8
0
1001
WEBCAD
1000
S3D1
 10
74.8007167024211
 20
39.54072779878971
 30
-86.65120992807033
 11
73.18870962477223
 21
35.489767258018226
 31
-86.7725886508232
 12
72.54796600743276
 22
35.626932327598304
 32
-98.48960214636558
 13
72.54796600743276
 23
35.626932327598304
 33
-98.48960214636558
  0
3DFACE
  8
0
1001
WEBCAD
1000
S3D1
 10
75.29236404237433
 20
41.974535171836585
 30
-86.53281233739168
 11
74.16777799802243
 21
39.90594691500065
 31
-98.58825092718169
 12
74.71838537803924
 22
44.44898432955143
 32
-98.62178668140685
 13
74.71838537803924
 23
44.44898432955143
 33
-98.62178668140685
  0
3DFACE
  8
0
1001
WEBCAD
1000
S3D1
 10
75.29236404237433
 20
41.974535171836585
 30
-86.53281233739168
 11
74.8007167024211
 21
39.54072779878971
 31
-86.65120992807033
 12
74.16777799802243
 22
39.90594691500065
 32
-98.58825092718169
 13
74.16777799802243
 23
39.90594691500065
 33
-98.58825092718169
  0
3DFACE
  8
0
1001
WEBCAD
1000
S3D1
 10
75.46382143603199
 20
44.44898432955143
 30
-86.38180546820976
 11
75.29236404237433
 21
41.974535171836585
 31
-86.53281233739168
 12
74.71838537803924
 22
44.44898432955143
 32
-98.62178668140685
 13
74.71838537803924
 23
44.44898432955143
 33
-98.62178668140685
  0
3DFACE
  8
0
1001
WEBCAD
1000
S3D1
 10
49.05085261749382
 20
26.69914073213932
 30
-97.05859016276939
 11
45.00614159348437
 21
28.82590312227603
 31
-96.81225984175325
 12
41.58698804168725
 22
31.86062449678775
 32
-96.60402770221133
 13
41.58698804168725
 23
31.86062449678775
 33
-96.60402770221133
  0
3DFACE
  8
0
1001
WEBCAD
1000
S3D1
 10
37.37228621572733
 20
39.90594691500064
 30
-96.34734304934267
 11
41.58698804168725
 21
31.86062449678775
 31
-96.60402770221133
 12
38.99209820631701
 22
35.6269323275983
 32
-96.44599183015879
 13
38.99209820631701
 23
35.6269323275983
 33
-96.44599183015879
  0
3DFACE
  8
0
1001
WEBCAD
1000
S3D1
 10
37.37228621572733
 20
39.90594691500064
 30
-96.34734304934267
 11
49.05085261749382
 21
26.69914073213932
 31
-97.05859016276939
 12
41.58698804168725
 22
31.86062449678775
 32
-96.60402770221133
 13
41.58698804168725
 23
31.86062449678775
 33
-96.60402770221133
  0
3DFACE
  8
0
1001
WEBCAD
1000
S3D1
 10
58.054006106460676
 20
25.603937332481117
 30
-97.60689387447331
 11
53.4860581072891
 21
25.603937332481117
 31
-97.32870010205104
 12
49.05085261749382
 22
26.69914073213932
 32
-97.05859016276939
 13
49.05085261749382
 23
26.69914073213932
 33
-97.05859016276939
  0
3DFACE
  8
0
1001
WEBCAD
1000
S3D1
 10
37.372286215727314
 20
48.99202555879947
 30
-96.34734304934268
 11
37.37228621572733
 21
39.90594691500064
 31
-96.34734304934267
 12
36.821682416644364
 22
44.44898432955142
 32
-96.3138150369835
 13
36.821682416644364
 23
44.44898432955142
 33
-96.3138150369835
  0
3DFACE
  8
0
1001
WEBCAD
1000
S3D1
 10
37.372286215727314
 20
48.99202555879947
 30
-96.34734304934268
 11
49.05085261749382
 21
26.69914073213932
 31
-97.05859016276939
 12
37.37228621572733
 22
39.90594691500064
 32
-96.34734304934267
 13
37.37228621572733
 23
39.90594691500064
 33
-96.34734304934267
  0
3DFACE
  8
0
1001
WEBCAD
1000
S3D1
 10
38.992098206316996
 20
53.27104014620181
 30
-96.44599183015879
 11
58.054006106460676
 21
25.603937332481117
 31
-97.60689387447331
 12
49.05085261749382
 22
26.69914073213932
 32
-97.05859016276939
 13
49.05085261749382
 23
26.69914073213932
 33
-97.05859016276939
  0
3DFACE
  8
0
1001
WEBCAD
1000
S3D1
 10
38.992098206316996
 20
53.27104014620181
 30
-96.44599183015879
 11
49.05085261749382
 21
26.69914073213932
 31
-97.05859016276939
 12
37.372286215727314
 22
48.99202555879947
 32
-96.34734304934268
 13
37.372286215727314
 23
48.99202555879947
 33
-96.34734304934268
  0
3DFACE
  8
0
1001
WEBCAD
1000
S3D1
 10
66.5339223882661
 20
28.82590312227604
 30
-98.12334176063746
 11
62.48921136425666
 21
26.69914073213932
 31
-97.8770114396213
 12
58.054006106460676
 22
25.603937332481117
 32
-97.60689387447331
 13
58.054006106460676
 23
25.603937332481117
 33
-97.60689387447331
  0
3DFACE
  8
0
1001
WEBCAD
1000
S3D1
 10
69.95307594006321
 20
31.860624496787757
 30
-98.33157390017938
 11
66.5339223882661
 21
28.82590312227604
 31
-98.12334176063746
 12
58.054006106460676
 22
25.603937332481117
 32
-97.60689387447331
 13
58.054006106460676
 23
25.603937332481117
 33
-97.60689387447331
  0
3DFACE
  8
0
1001
WEBCAD
1000
S3D1
 10
69.95307594006321
 20
31.860624496787757
 30
-98.33157390017938
 11
58.054006106460676
 21
25.603937332481117
 31
-97.60689387447331
 12
38.992098206316996
 22
53.27104014620181
 32
-96.44599183015879
 13
38.992098206316996
 23
53.27104014620181
 33
-96.44599183015879
  0
3DFACE
  8
0
1001
WEBCAD
1000
S3D1
 10
72.54796600743276
 20
35.626932327598304
 30
-98.48960214636558
 11
41.586988041687235
 21
57.03734797701236
 31
-96.60402770221133
 12
45.00614159348436
 22
60.07206935152408
 32
-96.81225984175325
 13
45.00614159348436
 23
60.07206935152408
 33
-96.81225984175325
  0
3DFACE
  8
0
1001
WEBCAD
1000
S3D1
 10
72.54796600743276
 20
35.626932327598304
 30
-98.48960214636558
 11
38.992098206316996
 21
53.27104014620181
 31
-96.44599183015879
 12
41.586988041687235
 22
57.03734797701236
 32
-96.60402770221133
 13
41.586988041687235
 23
57.03734797701236
 33
-96.60402770221133
  0
3DFACE
  8
0
1001
WEBCAD
1000
S3D1
 10
72.54796600743276
 20
35.626932327598304
 30
-98.48960214636558
 11
69.95307594006321
 21
31.860624496787757
 31
-98.33157390017938
 12
38.992098206316996
 22
53.27104014620181
 32
-96.44599183015879
 13
38.992098206316996
 23
53.27104014620181
 33
-96.44599183015879
  0
3DFACE
  8
0
1001
WEBCAD
1000
S3D1
 10
49.0508526174938
 20
62.1988317416608
 30
-97.05859016276939
 11
72.54796600743276
 21
35.626932327598304
 31
-98.48960214636558
 12
45.00614159348436
 22
60.07206935152408
 32
-96.81225984175325
 13
45.00614159348436
 23
60.07206935152408
 33
-96.81225984175325
  0
3DFACE
  8
0
1001
WEBCAD
1000
S3D1
 10
58.05400610646066
 20
63.294031326621734
 30
-97.60689387447333
 11
49.0508526174938
 21
62.1988317416608
 31
-97.05859016276939
 12
53.48605810728908
 22
63.294031326621734
 32
-97.32870010205106
 13
53.48605810728908
 23
63.294031326621734
 33
-97.32870010205106
  0
3DFACE
  8
0
1001
WEBCAD
1000
S3D1
 10
62.48921136425665
 20
62.1988317416608
 30
-97.87701143962131
 11
74.16777799802243
 21
39.90594691500065
 31
-98.58825092718169
 12
72.54796600743276
 22
35.626932327598304
 32
-98.48960214636558
 13
72.54796600743276
 23
35.626932327598304
 33
-98.48960214636558
  0
3DFACE
  8
0
1001
WEBCAD
1000
S3D1
 10
62.48921136425665
 20
62.1988317416608
 30
-97.87701143962131
 11
72.54796600743276
 21
35.626932327598304
 31
-98.48960214636558
 12
49.0508526174938
 22
62.1988317416608
 32
-97.05859016276939
 13
49.0508526174938
 23
62.1988317416608
 33
-97.05859016276939
  0
3DFACE
  8
0
1001
WEBCAD
1000
S3D1
 10
62.48921136425665
 20
62.1988317416608
 30
-97.87701143962131
 11
49.0508526174938
 21
62.1988317416608
 31
-97.05859016276939
 12
58.05400610646066
 22
63.294031326621734
 32
-97.60689387447333
 13
58.05400610646066
 23
63.294031326621734
 33
-97.60689387447333
  0
3DFACE
  8
0
1001
WEBCAD
1000
S3D1
 10
72.54796600743275
 20
53.27104014620182
 30
-98.48960214636558
 11
74.16777799802243
 21
48.992025558799476
 31
-98.58825092718169
 12
74.71838537803924
 22
44.44898432955143
 32
-98.62178668140685
 13
74.71838537803924
 23
44.44898432955143
 33
-98.62178668140685
  0
3DFACE
  8
0
1001
WEBCAD
1000
S3D1
 10
72.54796600743275
 20
53.27104014620182
 30
-98.48960214636558
 11
74.71838537803924
 21
44.44898432955143
 31
-98.62178668140685
 12
74.16777799802243
 22
39.90594691500065
 32
-98.58825092718169
 13
74.16777799802243
 23
39.90594691500065
 33
-98.58825092718169
  0
3DFACE
  8
0
1001
WEBCAD
1000
S3D1
 10
69.9530759400632
 20
57.03734797701236
 30
-98.33157390017938
 11
62.48921136425665
 21
62.1988317416608
 31
-97.87701143962131
 12
66.53392238826609
 22
60.07206935152408
 32
-98.12334176063746
 13
66.53392238826609
 23
60.07206935152408
 33
-98.12334176063746
  0
3DFACE
  8
0
1001
WEBCAD
1000
S3D1
 10
69.9530759400632
 20
57.03734797701236
 30
-98.33157390017938
 11
74.16777799802243
 21
39.90594691500065
 31
-98.58825092718169
 12
62.48921136425665
 22
62.1988317416608
 32
-97.87701143962131
 13
62.48921136425665
 23
62.1988317416608
 33
-97.87701143962131
  0
3DFACE
  8
0
1001
WEBCAD
1000
S3D1
 10
69.9530759400632
 20
57.03734797701236
 30
-98.33157390017938
 11
72.54796600743275
 21
53.27104014620182
 31
-98.48960214636558
 12
74.16777799802243
 22
39.90594691500065
 32
-98.58825092718169
 13
74.16777799802243
 23
39.90594691500065
 33
-98.58825092718169
  0
POLYLINE
  8
0
 66
1
 70
0
  0
VERTEX
  8
0
 10
110
 20
35
 30
0.0
  0
VERTEX
  8
0
 10
110
 20
20
 30
0.0
  0
VERTEX
  8
0
 10
125
 20
15
 30
0.0
 42
0.1622776601683796
  0
VERTEX
  8
0
 10
195
 20
15
 30
0.0
  0
VERTEX
  8
0
 10
210
 20
20
 30
0.0
  0
VERTEX
  8
0
 10
210
 20
35
 30
0.0
  0
VERTEX
  8
0
 10
210
 20
50
 30
0.0
  0
VERTEX
  8
0
 10
195
 20
55
 30
0.0
 42
0.1622776601683796
  0
VERTEX
  8
0
 10
125
 20
55
 30
0.0
  0
VERTEX
  8
0
 10
110
 20
50
 30
0.0
  0
VERTEX
  8
0
 10
110
 20
35
 30
0.0
  0
SEQEND
  0
3DFACE
  8
0
1001
WEBCAD
1000
S3D4
1000
CREATION_PARAMS:{"type":"extrude","params":{"points":[{"x":110,"y":35,"z":0},{"x":110,"y":20,"z":0},{"x":125,"y":15,"z":0},{"x":195,"y":15,"z":0},{"x":210,"y":20,"z":0},{"x":210,"y":35,"z":0},{"x":210,"y":50,"z":0},{"x":195,"y":55,"z":0},{"x":125,"y":55,"z":0},{"x":110,"y":50,"z":0},{"x":110,"y":35,"z":0}],"height":100,"thickness":0,"isClosed":false}}
 10
110
 20
89.29488302258727
 30
66.6463621164321
 11
110
 21
104.29488302258727
 31
66.6463621164321
 12
110
 22
104.29488302258727
 32
-33.3536378835679
 13
110
 23
104.29488302258727
 33
-33.3536378835679
  0
3DFACE
  8
0
1001
WEBCAD
1000
S3D4
 10
110
 20
89.29488302258727
 30
66.6463621164321
 11
110
 21
104.29488302258727
 31
-33.3536378835679
 12
110
 22
89.29488302258727
 32
-33.3536378835679
 13
110
 23
89.29488302258727
 33
-33.3536378835679
  0
3DFACE
  8
0
1001
WEBCAD
1000
S3D4
 10
125
 20
84.29488302258727
 30
66.6463621164321
 11
110
 21
89.29488302258727
 31
66.6463621164321
 12
110
 22
89.29488302258727
 32
-33.3536378835679
 13
110
 23
89.29488302258727
 33
-33.3536378835679
  0
3DFACE
  8
0
1001
WEBCAD
1000
S3D4
 10
125
 20
84.29488302258727
 30
66.6463621164321
 11
110
 21
89.29488302258727
 31
-33.3536378835679
 12
125
 22
84.29488302258727
 32
-33.3536378835679
 13
125
 23
84.29488302258727
 33
-33.3536378835679
  0
3DFACE
  8
0
1001
WEBCAD
1000
S3D4
 10
195
 20
84.29488302258727
 30
66.6463621164321
 11
125
 21
84.29488302258727
 31
66.6463621164321
 12
125
 22
84.29488302258727
 32
-33.3536378835679
 13
125
 23
84.29488302258727
 33
-33.3536378835679
  0
3DFACE
  8
0
1001
WEBCAD
1000
S3D4
 10
195
 20
84.29488302258727
 30
66.6463621164321
 11
125
 21
84.29488302258727
 31
-33.3536378835679
 12
195
 22
84.29488302258727
 32
-33.3536378835679
 13
195
 23
84.29488302258727
 33
-33.3536378835679
  0
3DFACE
  8
0
1001
WEBCAD
1000
S3D4
 10
210
 20
89.29488302258727
 30
66.6463621164321
 11
195
 21
84.29488302258727
 31
66.6463621164321
 12
195
 22
84.29488302258727
 32
-33.3536378835679
 13
195
 23
84.29488302258727
 33
-33.3536378835679
  0
3DFACE
  8
0
1001
WEBCAD
1000
S3D4
 10
210
 20
89.29488302258727
 30
66.6463621164321
 11
195
 21
84.29488302258727
 31
-33.3536378835679
 12
210
 22
89.29488302258727
 32
-33.3536378835679
 13
210
 23
89.29488302258727
 33
-33.3536378835679
  0
3DFACE
  8
0
1001
WEBCAD
1000
S3D4
 10
210
 20
104.29488302258727
 30
66.6463621164321
 11
210
 21
89.29488302258727
 31
66.6463621164321
 12
210
 22
89.29488302258727
 32
-33.3536378835679
 13
210
 23
89.29488302258727
 33
-33.3536378835679
  0
3DFACE
  8
0
1001
WEBCAD
1000
S3D4
 10
210
 20
104.29488302258727
 30
66.6463621164321
 11
210
 21
89.29488302258727
 31
-33.3536378835679
 12
210
 22
104.29488302258727
 32
-33.3536378835679
 13
210
 23
104.29488302258727
 33
-33.3536378835679
  0
3DFACE
  8
0
1001
WEBCAD
1000
S3D4
 10
210
 20
119.29488302258727
 30
66.6463621164321
 11
210
 21
104.29488302258727
 31
66.6463621164321
 12
210
 22
104.29488302258727
 32
-33.3536378835679
 13
210
 23
104.29488302258727
 33
-33.3536378835679
  0
3DFACE
  8
0
1001
WEBCAD
1000
S3D4
 10
210
 20
119.29488302258727
 30
66.6463621164321
 11
210
 21
104.29488302258727
 31
-33.3536378835679
 12
210
 22
119.29488302258727
 32
-33.3536378835679
 13
210
 23
119.29488302258727
 33
-33.3536378835679
  0
3DFACE
  8
0
1001
WEBCAD
1000
S3D4
 10
195
 20
124.29488302258727
 30
66.6463621164321
 11
210
 21
119.29488302258727
 31
66.6463621164321
 12
210
 22
119.29488302258727
 32
-33.3536378835679
 13
210
 23
119.29488302258727
 33
-33.3536378835679
  0
3DFACE
  8
0
1001
WEBCAD
1000
S3D4
 10
195
 20
124.29488302258727
 30
66.6463621164321
 11
210
 21
119.29488302258727
 31
-33.3536378835679
 12
195
 22
124.29488302258727
 32
-33.3536378835679
 13
195
 23
124.29488302258727
 33
-33.3536378835679
  0
3DFACE
  8
0
1001
WEBCAD
1000
S3D4
 10
125
 20
124.29488302258727
 30
66.6463621164321
 11
195
 21
124.29488302258727
 31
66.6463621164321
 12
195
 22
124.29488302258727
 32
-33.3536378835679
 13
195
 23
124.29488302258727
 33
-33.3536378835679
  0
3DFACE
  8
0
1001
WEBCAD
1000
S3D4
 10
125
 20
124.29488302258727
 30
66.6463621164321
 11
195
 21
124.29488302258727
 31
-33.3536378835679
 12
125
 22
124.29488302258727
 32
-33.3536378835679
 13
125
 23
124.29488302258727
 33
-33.3536378835679
  0
3DFACE
  8
0
1001
WEBCAD
1000
S3D4
 10
110
 20
119.29488302258727
 30
66.6463621164321
 11
125
 21
124.29488302258727
 31
66.6463621164321
 12
125
 22
124.29488302258727
 32
-33.3536378835679
 13
125
 23
124.29488302258727
 33
-33.3536378835679
  0
3DFACE
  8
0
1001
WEBCAD
1000
S3D4
 10
110
 20
119.29488302258727
 30
66.6463621164321
 11
125
 21
124.29488302258727
 31
-33.3536378835679
 12
110
 22
119.29488302258727
 32
-33.3536378835679
 13
110
 23
119.29488302258727
 33
-33.3536378835679
  0
3DFACE
  8
0
1001
WEBCAD
1000
S3D4
 10
110
 20
104.29488302258727
 30
66.6463621164321
 11
110
 21
119.29488302258727
 31
66.6463621164321
 12
110
 22
119.29488302258727
 32
-33.3536378835679
 13
110
 23
119.29488302258727
 33
-33.3536378835679
  0
3DFACE
  8
0
1001
WEBCAD
1000
S3D4
 10
110
 20
104.29488302258727
 30
66.6463621164321
 11
110
 21
119.29488302258727
 31
-33.3536378835679
 12
110
 22
104.29488302258727
 32
-33.3536378835679
 13
110
 23
104.29488302258727
 33
-33.3536378835679
  0
ENDSEC
  0
EOF
