  0
SECTION
  2
HEADER
  9
$ACADVER
  1
AC1009
  0
ENDSEC
  0
SECTION
  2
TABLES
  0
TABLE
  2
LTYPE
 70
1
  0
LTYPE
  2
CONTINUOUS
 70
0
  3
Solid line
 72
65
 73
0
 40
0.0
  0
ENDTAB
  0
TABLE
  2
LAYER
 70
1
  0
LAYER
  2
0
 70
0
 62
7
  6
CONTINUOUS
  0
ENDTAB
  0
ENDSEC
  0
SECTION
  2
ENTITIES
  0
CIRCLE
  8
0
 10
-111.59997558593753
 20
-5.399993896484365
 30
0.0
 40
149.77316181479245
  0
LINE
  8
0
 10
-111.59997558593753
 20
-5.399993896484365
 30
0.0
 11
-1.9999999999999942
 21
94.60000610351562
 31
0.0
  0
LINE
  8
0
 10
-1.9999999999999942
 20
94.60000610351562
 30
0.0
 11
-5.999999999999982
 21
184.20001220703125
 31
0.0
  0
LINE
  8
0
 10
-5.999999999999982
 20
184.20001220703125
 30
0.0
 11
140.40002441406244
 21
189.79999542236328
 31
0.0
  0
LINE
  8
0
 10
140.40002441406244
 20
189.79999542236328
 30
0.0
 11
141.2000122070313
 21
-197.40005493164065
 31
0.0
  0
LINE
  8
0
 10
141.2000122070313
 20
-197.40005493164065
 30
0.0
 11
-109.99999999999999
 21
-195.79998779296878
 31
0.0
  0
LINE
  8
0
 10
-109.99999999999999
 20
-195.79998779296878
 30
0.0
 11
-111.59997558593753
 21
-5.399993896484365
 31
0.0
  0
LINE
  8
0
 10
-111.59997558593753
 20
-5.399993896484365
 30
0.0
 11
-111.59997558593753
 21
-5.399993896484365
 31
0.0
  0
ENDSEC
  0
EOF
