  0
SECTION
  2
HEADER
  9
$ACADVER
  1
AC1015
  0
ENDSEC
  0
SECTION
  2
TABLES
  0
TABLE
  2
LTYPE
 70
1
  0
LTYPE
  2
CONTINUOUS
 70
0
  3
Solid line
 72
65
 73
0
 40
0.0
  0
ENDTAB
  0
TABLE
  2
LAYER
 70
4
  0
LAYER
  2
0
 70
0
 62
7
  6
CONTINUOUS
  0
LAYER
  2
1
 70
0
 62
7
  6
CONTINUOUS
  0
LAYER
  2
2
 70
0
 62
4
  6
CONTINUOUS
  0
LAYER
  2
01
 70
0
 62
3
  6
DASHDOT
  0
ENDTAB
  0
ENDSEC
  0
SECTION
  2
BLOCKS
  0
BLOCK
  8
0
  2
HONEYCO
 70
0
 10
55
 20
55
 30
0.0
  3
HONEYCO
  0
POLYLINE
  8
0
 66
1
 70
1
  0
VERTEX
  8
0
 10
25
 20
-8.881784197001252e-16
 30
0.0
  0
VERTEX
  8
0
 10
5.669872981077809
 20
23.48076211353316
 30
0.0
  0
VERTEX
  8
0
 10
-24.33012701892219
 20
18.480762113533164
 30
0.0
  0
VERTEX
  8
0
 10
-35
 20
-9.999999999999998
 30
0.0
  0
VERTEX
  8
0
 10
-15.669872981077818
 20
-33.48076211353316
 30
0.0
  0
VERTEX
  8
0
 10
14.330127018922195
 20
-28.480762113533157
 30
0.0
  0
SEQEND
  0
POLYLINE
  8
0
 66
1
 70
1
  0
VERTEX
  8
0
 10
85
 20
-8.881784197001252e-16
 30
0.0
  0
VERTEX
  8
0
 10
65.66987298107782
 20
23.48076211353316
 30
0.0
  0
VERTEX
  8
0
 10
35.66987298107781
 20
18.480762113533164
 30
0.0
  0
VERTEX
  8
0
 10
25
 20
-9.999999999999998
 30
0.0
  0
VERTEX
  8
0
 10
44.330127018922184
 20
-33.48076211353316
 30
0.0
  0
VERTEX
  8
0
 10
74.3301270189222
 20
-28.480762113533157
 30
0.0
  0
SEQEND
  0
POLYLINE
  8
0
 66
1
 70
1
  0
VERTEX
  8
0
 10
145
 20
-8.881784197001252e-16
 30
0.0
  0
VERTEX
  8
0
 10
125.66987298107782
 20
23.48076211353316
 30
0.0
  0
VERTEX
  8
0
 10
95.66987298107782
 20
18.480762113533164
 30
0.0
  0
VERTEX
  8
0
 10
85
 20
-9.999999999999998
 30
0.0
  0
VERTEX
  8
0
 10
104.33012701892218
 20
-33.48076211353316
 30
0.0
  0
VERTEX
  8
0
 10
134.33012701892218
 20
-28.480762113533157
 30
0.0
  0
SEQEND
  0
POLYLINE
  8
0
 66
1
 70
1
  0
VERTEX
  8
0
 10
25
 20
60
 30
0.0
  0
VERTEX
  8
0
 10
5.669872981077809
 20
83.48076211353316
 30
0.0
  0
VERTEX
  8
0
 10
-24.33012701892219
 20
78.48076211353316
 30
0.0
  0
VERTEX
  8
0
 10
-35
 20
50
 30
0.0
  0
VERTEX
  8
0
 10
-15.669872981077818
 20
26.51923788646684
 30
0.0
  0
VERTEX
  8
0
 10
14.330127018922195
 20
31.519237886466843
 30
0.0
  0
SEQEND
  0
POLYLINE
  8
0
 66
1
 70
1
  0
VERTEX
  8
0
 10
85
 20
60
 30
0.0
  0
VERTEX
  8
0
 10
65.66987298107782
 20
83.48076211353316
 30
0.0
  0
VERTEX
  8
0
 10
35.66987298107781
 20
78.48076211353316
 30
0.0
  0
VERTEX
  8
0
 10
25
 20
50
 30
0.0
  0
VERTEX
  8
0
 10
44.330127018922184
 20
26.51923788646684
 30
0.0
  0
VERTEX
  8
0
 10
74.3301270189222
 20
31.519237886466843
 30
0.0
  0
SEQEND
  0
POLYLINE
  8
0
 66
1
 70
1
  0
VERTEX
  8
0
 10
145
 20
60
 30
0.0
  0
VERTEX
  8
0
 10
125.66987298107782
 20
83.48076211353316
 30
0.0
  0
VERTEX
  8
0
 10
95.66987298107782
 20
78.48076211353316
 30
0.0
  0
VERTEX
  8
0
 10
85
 20
50
 30
0.0
  0
VERTEX
  8
0
 10
104.33012701892218
 20
26.51923788646684
 30
0.0
  0
VERTEX
  8
0
 10
134.33012701892218
 20
31.519237886466843
 30
0.0
  0
SEQEND
  0
POLYLINE
  8
0
 66
1
 70
1
  0
VERTEX
  8
0
 10
25
 20
120
 30
0.0
  0
VERTEX
  8
0
 10
5.669872981077809
 20
143.48076211353316
 30
0.0
  0
VERTEX
  8
0
 10
-24.33012701892219
 20
138.48076211353316
 30
0.0
  0
VERTEX
  8
0
 10
-35
 20
110
 30
0.0
  0
VERTEX
  8
0
 10
-15.669872981077818
 20
86.51923788646684
 30
0.0
  0
VERTEX
  8
0
 10
14.330127018922195
 20
91.51923788646684
 30
0.0
  0
SEQEND
  0
POLYLINE
  8
0
 66
1
 70
1
  0
VERTEX
  8
0
 10
85
 20
120
 30
0.0
  0
VERTEX
  8
0
 10
65.66987298107782
 20
143.48076211353316
 30
0.0
  0
VERTEX
  8
0
 10
35.66987298107781
 20
138.48076211353316
 30
0.0
  0
VERTEX
  8
0
 10
25
 20
110
 30
0.0
  0
VERTEX
  8
0
 10
44.330127018922184
 20
86.51923788646684
 30
0.0
  0
VERTEX
  8
0
 10
74.3301270189222
 20
91.51923788646684
 30
0.0
  0
SEQEND
  0
POLYLINE
  8
0
 66
1
 70
1
  0
VERTEX
  8
0
 10
145
 20
120
 30
0.0
  0
VERTEX
  8
0
 10
125.66987298107782
 20
143.48076211353316
 30
0.0
  0
VERTEX
  8
0
 10
95.66987298107782
 20
138.48076211353316
 30
0.0
  0
VERTEX
  8
0
 10
85
 20
110
 30
0.0
  0
VERTEX
  8
0
 10
104.33012701892218
 20
86.51923788646684
 30
0.0
  0
VERTEX
  8
0
 10
134.33012701892218
 20
91.51923788646684
 30
0.0
  0
SEQEND
  0
ENDBLK
  8
0
  0
BLOCK
  8
0
  2
RINGS
 70
0
 10
515
 20
-50
 30
0.0
  3
RINGS
  0
CIRCLE
  8
0
 10
510
 20
10
 30
0.0
 40
55.226805085936306
  0
CIRCLE
  8
0
 10
458.0384757729337
 20
-19.999999999999993
 30
0.0
 40
55.226805085936306
  0
CIRCLE
  8
0
 10
458.0384757729337
 20
-79.99999999999999
 30
0.0
 40
55.226805085936306
  0
CIRCLE
  8
0
 10
510
 20
-110
 30
0.0
 40
55.226805085936306
  0
CIRCLE
  8
0
 10
561.9615242270663
 20
-80.00000000000003
 30
0.0
 40
55.226805085936306
  0
CIRCLE
  8
0
 10
561.9615242270663
 20
-20.00000000000004
 30
0.0
 40
55.226805085936306
  0
ENDBLK
  8
0
  0
ENDSEC
  0
SECTION
  2
ENTITIES
  0
ARC
  8
0
 10
-2.53924041168531
 20
-9.725337100741783
 30
0.0
 40
27.222009758129776
 50
356.1293803091322
 51
183.12893440818118
  0
ARC
  8
0
 10
-2.53924041168531
 20
-9.725337100741783
 30
0.0
 40
32.22200975812977
 50
356.1293803091322
 51
183.12893440818118
  0
ARC
  8
0
 10
94.03530216436172
 20
-5.810926781164803
 30
0.0
 40
26.80987965735636
 50
357.658733153857
 51
182.34126684614304
  0
ARC
  8
0
 10
94.03530216436172
 20
-5.810926781164803
 30
0.0
 40
31.80987965735636
 50
357.658733153857
 51
182.34126684614304
  0
LINE
  8
0
 10
67.24780255444632
 20
-6.9061490831257535
 30
0.0
 11
67.10978561115756
 21
-42.21230693477705
 31
0.0
  0
LINE
  8
0
 10
62.24784075757431
 20
-6.886603499982313
 30
0.0
 11
62.10982381428555
 21
-42.19276135163361
 31
0.0
  0
LINE
  8
0
 10
120.82280177427712
 20
-6.906149083125763
 30
0.0
 11
120.3812519433454
 21
-42.50459675389001
 31
0.0
  0
LINE
  8
0
 10
125.82241719380772
 20
-6.968162442911402
 30
0.0
 11
125.380867362876
 21
-42.56661011367565
 31
0.0
  0
SHAPE
  8
0
 10
-2.53924041168531
 20
-9.725337100741783
 30
0.0
 40
3
  2
VRECT
 50
0
  0
ENDSEC
  0
EOF
