  0
SECTION
  2
HEADER
  9
$ACADVER
  1
AC1015
  0
ENDSEC
  0
SECTION
  2
TABLES
  0
TABLE
  2
LTYPE
 70
1
  0
LTYPE
  2
CONTINUOUS
 70
0
  3
Solid line
 72
65
 73
0
 40
0.0
  0
ENDTAB
  0
TABLE
  2
LAYER
 70
1
  0
LAYER
  2
0
 70
0
 62
7
  6
CONTINUOUS
  0
ENDTAB
  0
ENDSEC
  0
SECTION
  2
BLOCKS
  0
ENDSEC
  0
SECTION
  2
ENTITIES
  0
POLYLINE
  8
0
 66
1
 70
0
  0
VERTEX
  8
0
 10
52.85150825227353
 20
76.6058697360645
 30
0.0
  0
VERTEX
  8
0
 10
122.85150825227353
 20
76.6058697360645
 30
0.0
  0
VERTEX
  8
0
 10
122.85150825227353
 20
41.6058697360645
 30
0.0
  0
VERTEX
  8
0
 10
52.85150825227353
 20
41.6058697360645
 30
0.0
  0
VERTEX
  8
0
 10
52.85150825227353
 20
76.6058697360645
 30
0.0
  0
SEQEND
  0
SOLID
  8
0
10
52.85150825227353
20
76.6058697360645
30
0.0
11
122.85150825227353
21
76.6058697360645
31
0.0
12
122.85150825227353
22
41.6058697360645
32
0.0
13
52.85150825227353
23
41.6058697360645
33
0.0
  0
3DFACE
  8
0
1001
WEBCAD
1000
S3D3_1778998648061
 10
120.85150909423828
 20
76.60587310791016
 30
5
 11
54.85150909423828
 21
76.60587310791016
 31
0
 12
120.85150909423828
 22
76.60587310791016
 32
0
 13
120.85150909423828
 23
76.60587310791016
 33
0
  0
3DFACE
  8
0
1001
WEBCAD
1000
S3D3_1778998648061
 10
120.85150909423828
 20
76.60587310791016
 30
5
 11
54.85150909423828
 21
76.60587310791016
 31
5
 12
54.85150909423828
 22
76.60587310791016
 32
0
 13
54.85150909423828
 23
76.60587310791016
 33
0
  0
3DFACE
  8
0
1001
WEBCAD
1000
S3D3_1778998648061
 10
121.11256408691406
 20
76.58876037597656
 30
5
 11
120.85150909423828
 21
76.60587310791016
 31
0
 12
121.11256408691406
 22
76.58876037597656
 32
0
 13
121.11256408691406
 23
76.58876037597656
 33
0
  0
3DFACE
  8
0
1001
WEBCAD
1000
S3D3_1778998648061
 10
121.11256408691406
 20
76.58876037597656
 30
5
 11
120.85150909423828
 21
76.60587310791016
 31
5
 12
120.85150909423828
 22
76.60587310791016
 32
0
 13
120.85150909423828
 23
76.60587310791016
 33
0
  0
3DFACE
  8
0
1001
WEBCAD
1000
S3D3_1778998648061
 10
121.36914825439453
 20
76.5377197265625
 30
5
 11
121.11256408691406
 21
76.58876037597656
 31
0
 12
121.36914825439453
 22
76.5377197265625
 32
0
 13
121.36914825439453
 23
76.5377197265625
 33
0
  0
3DFACE
  8
0
1001
WEBCAD
1000
S3D3_1778998648061
 10
121.36914825439453
 20
76.5377197265625
 30
5
 11
121.36914825439453
 21
76.5377197265625
 31
0
 12
121.61687469482422
 22
76.45362854003906
 32
0
 13
121.61687469482422
 23
76.45362854003906
 33
0
  0
3DFACE
  8
0
1001
WEBCAD
1000
S3D3_1778998648061
 10
121.36914825439453
 20
76.5377197265625
 30
5
 11
121.11256408691406
 21
76.58876037597656
 31
5
 12
121.11256408691406
 22
76.58876037597656
 32
0
 13
121.11256408691406
 23
76.58876037597656
 33
0
  0
3DFACE
  8
0
1001
WEBCAD
1000
S3D3_1778998648061
 10
121.61687469482422
 20
76.45362854003906
 30
5
 11
121.36914825439453
 21
76.5377197265625
 31
5
 12
121.61687469482422
 22
76.45362854003906
 32
0
 13
121.61687469482422
 23
76.45362854003906
 33
0
  0
3DFACE
  8
0
1001
WEBCAD
1000
S3D3_1778998648061
 10
121.85150909423828
 20
76.33792114257812
 30
5
 11
121.61687469482422
 21
76.45362854003906
 31
0
 12
121.85150909423828
 22
76.33792114257812
 32
0
 13
121.85150909423828
 23
76.33792114257812
 33
0
  0
3DFACE
  8
0
1001
WEBCAD
1000
S3D3_1778998648061
 10
121.85150909423828
 20
76.33792114257812
 30
5
 11
121.85150909423828
 21
76.33792114257812
 31
0
 12
122.06903076171875
 22
76.19257354736328
 32
0
 13
122.06903076171875
 23
76.19257354736328
 33
0
  0
3DFACE
  8
0
1001
WEBCAD
1000
S3D3_1778998648061
 10
121.85150909423828
 20
76.33792114257812
 30
5
 11
121.61687469482422
 21
76.45362854003906
 31
5
 12
121.61687469482422
 22
76.45362854003906
 32
0
 13
121.61687469482422
 23
76.45362854003906
 33
0
  0
3DFACE
  8
0
1001
WEBCAD
1000
S3D3_1778998648061
 10
122.06903076171875
 20
76.19257354736328
 30
5
 11
121.85150909423828
 21
76.33792114257812
 31
5
 12
122.06903076171875
 22
76.19257354736328
 32
0
 13
122.06903076171875
 23
76.19257354736328
 33
0
  0
3DFACE
  8
0
1001
WEBCAD
1000
S3D3_1778998648061
 10
122.2657241821289
 20
76.02008056640625
 30
5
 11
122.06903076171875
 21
76.19257354736328
 31
0
 12
122.2657241821289
 22
76.02008056640625
 32
0
 13
122.2657241821289
 23
76.02008056640625
 33
0
  0
3DFACE
  8
0
1001
WEBCAD
1000
S3D3_1778998648061
 10
122.2657241821289
 20
76.02008056640625
 30
5
 11
122.2657241821289
 21
76.02008056640625
 31
0
 12
122.43821716308594
 22
75.82339477539062
 32
0
 13
122.43821716308594
 23
75.82339477539062
 33
0
  0
3DFACE
  8
0
1001
WEBCAD
1000
S3D3_1778998648061
 10
122.2657241821289
 20
76.02008056640625
 30
5
 11
122.06903076171875
 21
76.19257354736328
 31
5
 12
122.06903076171875
 22
76.19257354736328
 32
0
 13
122.06903076171875
 23
76.19257354736328
 33
0
  0
3DFACE
  8
0
1001
WEBCAD
1000
S3D3_1778998648061
 10
122.43821716308594
 20
75.82339477539062
 30
5
 11
122.2657241821289
 21
76.02008056640625
 31
5
 12
122.43821716308594
 22
75.82339477539062
 32
0
 13
122.43821716308594
 23
75.82339477539062
 33
0
  0
3DFACE
  8
0
1001
WEBCAD
1000
S3D3_1778998648061
 10
122.58355712890625
 20
75.60587310791016
 30
5
 11
122.43821716308594
 21
75.82339477539062
 31
0
 12
122.58355712890625
 22
75.60587310791016
 32
0
 13
122.58355712890625
 23
75.60587310791016
 33
0
  0
3DFACE
  8
0
1001
WEBCAD
1000
S3D3_1778998648061
 10
122.58355712890625
 20
75.60587310791016
 30
5
 11
122.43821716308594
 21
75.82339477539062
 31
5
 12
122.43821716308594
 22
75.82339477539062
 32
0
 13
122.43821716308594
 23
75.82339477539062
 33
0
  0
3DFACE
  8
0
1001
WEBCAD
1000
S3D3_1778998648061
 10
122.69926452636719
 20
75.3712387084961
 30
5
 11
122.58355712890625
 21
75.60587310791016
 31
0
 12
122.69926452636719
 22
75.3712387084961
 32
0
 13
122.69926452636719
 23
75.3712387084961
 33
0
  0
3DFACE
  8
0
1001
WEBCAD
1000
S3D3_1778998648061
 10
122.69926452636719
 20
75.3712387084961
 30
5
 11
122.58355712890625
 21
75.60587310791016
 31
5
 12
122.58355712890625
 22
75.60587310791016
 32
0
 13
122.58355712890625
 23
75.60587310791016
 33
0
  0
3DFACE
  8
0
1001
WEBCAD
1000
S3D3_1778998648061
 10
122.78336334228516
 20
75.12350463867188
 30
5
 11
122.69926452636719
 21
75.3712387084961
 31
0
 12
122.78336334228516
 22
75.12350463867188
 32
0
 13
122.78336334228516
 23
75.12350463867188
 33
0
  0
3DFACE
  8
0
1001
WEBCAD
1000
S3D3_1778998648061
 10
122.78336334228516
 20
75.12350463867188
 30
5
 11
122.69926452636719
 21
75.3712387084961
 31
5
 12
122.69926452636719
 22
75.3712387084961
 32
0
 13
122.69926452636719
 23
75.3712387084961
 33
0
  0
3DFACE
  8
0
1001
WEBCAD
1000
S3D3_1778998648061
 10
122.83439636230469
 20
74.8669204711914
 30
5
 11
122.78336334228516
 21
75.12350463867188
 31
0
 12
122.83439636230469
 22
74.8669204711914
 32
0
 13
122.83439636230469
 23
74.8669204711914
 33
0
  0
3DFACE
  8
0
1001
WEBCAD
1000
S3D3_1778998648061
 10
122.83439636230469
 20
74.8669204711914
 30
5
 11
122.78336334228516
 21
75.12350463867188
 31
5
 12
122.78336334228516
 22
75.12350463867188
 32
0
 13
122.78336334228516
 23
75.12350463867188
 33
0
  0
3DFACE
  8
0
1001
WEBCAD
1000
S3D3_1778998648061
 10
122.85150909423828
 20
74.60587310791016
 30
5
 11
122.83439636230469
 21
74.8669204711914
 31
0
 12
122.85150909423828
 22
74.60587310791016
 32
0
 13
122.85150909423828
 23
74.60587310791016
 33
0
  0
3DFACE
  8
0
1001
WEBCAD
1000
S3D3_1778998648061
 10
122.85150909423828
 20
74.60587310791016
 30
5
 11
122.83439636230469
 21
74.8669204711914
 31
5
 12
122.83439636230469
 22
74.8669204711914
 32
0
 13
122.83439636230469
 23
74.8669204711914
 33
0
  0
3DFACE
  8
0
1001
WEBCAD
1000
S3D3_1778998648061
 10
52.86861801147461
 20
74.8669204711914
 30
5
 11
52.85150909423828
 21
74.60587310791016
 31
0
 12
52.86861801147461
 22
74.8669204711914
 32
0
 13
52.86861801147461
 23
74.8669204711914
 33
0
  0
3DFACE
  8
0
1001
WEBCAD
1000
S3D3_1778998648061
 10
52.86861801147461
 20
74.8669204711914
 30
5
 11
52.85150909423828
 21
74.60587310791016
 31
5
 12
52.85150909423828
 22
74.60587310791016
 32
0
 13
52.85150909423828
 23
74.60587310791016
 33
0
  0
3DFACE
  8
0
1001
WEBCAD
1000
S3D3_1778998648061
 10
52.919654846191406
 20
75.12350463867188
 30
5
 11
52.86861801147461
 21
74.8669204711914
 31
0
 12
52.919654846191406
 22
75.12350463867188
 32
0
 13
52.919654846191406
 23
75.12350463867188
 33
0
  0
3DFACE
  8
0
1001
WEBCAD
1000
S3D3_1778998648061
 10
52.919654846191406
 20
75.12350463867188
 30
5
 11
52.86861801147461
 21
74.8669204711914
 31
5
 12
52.86861801147461
 22
74.8669204711914
 32
0
 13
52.86861801147461
 23
74.8669204711914
 33
0
  0
3DFACE
  8
0
1001
WEBCAD
1000
S3D3_1778998648061
 10
53.00374984741211
 20
75.3712387084961
 30
5
 11
52.919654846191406
 21
75.12350463867188
 31
0
 12
53.00374984741211
 22
75.3712387084961
 32
0
 13
53.00374984741211
 23
75.3712387084961
 33
0
  0
3DFACE
  8
0
1001
WEBCAD
1000
S3D3_1778998648061
 10
53.00374984741211
 20
75.3712387084961
 30
5
 11
52.919654846191406
 21
75.12350463867188
 31
5
 12
52.919654846191406
 22
75.12350463867188
 32
0
 13
52.919654846191406
 23
75.12350463867188
 33
0
  0
3DFACE
  8
0
1001
WEBCAD
1000
S3D3_1778998648061
 10
53.11945724487305
 20
75.60587310791016
 30
5
 11
53.00374984741211
 21
75.3712387084961
 31
0
 12
53.11945724487305
 22
75.60587310791016
 32
0
 13
53.11945724487305
 23
75.60587310791016
 33
0
  0
3DFACE
  8
0
1001
WEBCAD
1000
S3D3_1778998648061
 10
53.11945724487305
 20
75.60587310791016
 30
5
 11
53.00374984741211
 21
75.3712387084961
 31
5
 12
53.00374984741211
 22
75.3712387084961
 32
0
 13
53.00374984741211
 23
75.3712387084961
 33
0
  0
3DFACE
  8
0
1001
WEBCAD
1000
S3D3_1778998648061
 10
53.264801025390625
 20
75.82339477539062
 30
5
 11
53.11945724487305
 21
75.60587310791016
 31
0
 12
53.264801025390625
 22
75.82339477539062
 32
0
 13
53.264801025390625
 23
75.82339477539062
 33
0
  0
3DFACE
  8
0
1001
WEBCAD
1000
S3D3_1778998648061
 10
53.264801025390625
 20
75.82339477539062
 30
5
 11
53.264801025390625
 21
75.82339477539062
 31
0
 12
53.437294006347656
 22
76.02008056640625
 32
0
 13
53.437294006347656
 23
76.02008056640625
 33
0
  0
3DFACE
  8
0
1001
WEBCAD
1000
S3D3_1778998648061
 10
53.264801025390625
 20
75.82339477539062
 30
5
 11
53.11945724487305
 21
75.60587310791016
 31
5
 12
53.11945724487305
 22
75.60587310791016
 32
0
 13
53.11945724487305
 23
75.60587310791016
 33
0
  0
3DFACE
  8
0
1001
WEBCAD
1000
S3D3_1778998648061
 10
53.437294006347656
 20
76.02008056640625
 30
5
 11
53.264801025390625
 21
75.82339477539062
 31
5
 12
53.437294006347656
 22
76.02008056640625
 32
0
 13
53.437294006347656
 23
76.02008056640625
 33
0
  0
3DFACE
  8
0
1001
WEBCAD
1000
S3D3_1778998648061
 10
53.63398361206055
 20
76.19257354736328
 30
5
 11
53.437294006347656
 21
76.02008056640625
 31
0
 12
53.63398361206055
 22
76.19257354736328
 32
0
 13
53.63398361206055
 23
76.19257354736328
 33
0
  0
3DFACE
  8
0
1001
WEBCAD
1000
S3D3_1778998648061
 10
53.63398361206055
 20
76.19257354736328
 30
5
 11
53.437294006347656
 21
76.02008056640625
 31
5
 12
53.437294006347656
 22
76.02008056640625
 32
0
 13
53.437294006347656
 23
76.02008056640625
 33
0
  0
3DFACE
  8
0
1001
WEBCAD
1000
S3D3_1778998648061
 10
53.85150909423828
 20
76.33792114257812
 30
5
 11
53.63398361206055
 21
76.19257354736328
 31
0
 12
53.85150909423828
 22
76.33792114257812
 32
0
 13
53.85150909423828
 23
76.33792114257812
 33
0
  0
3DFACE
  8
0
1001
WEBCAD
1000
S3D3_1778998648061
 10
53.85150909423828
 20
76.33792114257812
 30
5
 11
53.85150909423828
 21
76.33792114257812
 31
0
 12
54.08613967895508
 22
76.45362854003906
 32
0
 13
54.08613967895508
 23
76.45362854003906
 33
0
  0
3DFACE
  8
0
1001
WEBCAD
1000
S3D3_1778998648061
 10
53.85150909423828
 20
76.33792114257812
 30
5
 11
53.63398361206055
 21
76.19257354736328
 31
5
 12
53.63398361206055
 22
76.19257354736328
 32
0
 13
53.63398361206055
 23
76.19257354736328
 33
0
  0
3DFACE
  8
0
1001
WEBCAD
1000
S3D3_1778998648061
 10
54.08613967895508
 20
76.45362854003906
 30
5
 11
53.85150909423828
 21
76.33792114257812
 31
5
 12
54.08613967895508
 22
76.45362854003906
 32
0
 13
54.08613967895508
 23
76.45362854003906
 33
0
  0
3DFACE
  8
0
1001
WEBCAD
1000
S3D3_1778998648061
 10
54.33386993408203
 20
76.5377197265625
 30
5
 11
54.08613967895508
 21
76.45362854003906
 31
0
 12
54.33386993408203
 22
76.5377197265625
 32
0
 13
54.33386993408203
 23
76.5377197265625
 33
0
  0
3DFACE
  8
0
1001
WEBCAD
1000
S3D3_1778998648061
 10
54.33386993408203
 20
76.5377197265625
 30
5
 11
54.33386993408203
 21
76.5377197265625
 31
0
 12
54.5904541015625
 22
76.58876037597656
 32
0
 13
54.5904541015625
 23
76.58876037597656
 33
0
  0
3DFACE
  8
0
1001
WEBCAD
1000
S3D3_1778998648061
 10
54.33386993408203
 20
76.5377197265625
 30
5
 11
54.08613967895508
 21
76.45362854003906
 31
5
 12
54.08613967895508
 22
76.45362854003906
 32
0
 13
54.08613967895508
 23
76.45362854003906
 33
0
  0
3DFACE
  8
0
1001
WEBCAD
1000
S3D3_1778998648061
 10
54.5904541015625
 20
76.58876037597656
 30
5
 11
54.33386993408203
 21
76.5377197265625
 31
5
 12
54.5904541015625
 22
76.58876037597656
 32
0
 13
54.5904541015625
 23
76.58876037597656
 33
0
  0
3DFACE
  8
0
1001
WEBCAD
1000
S3D3_1778998648061
 10
54.85150909423828
 20
76.60587310791016
 30
5
 11
54.5904541015625
 21
76.58876037597656
 31
0
 12
54.85150909423828
 22
76.60587310791016
 32
0
 13
54.85150909423828
 23
76.60587310791016
 33
0
  0
3DFACE
  8
0
1001
WEBCAD
1000
S3D3_1778998648061
 10
54.85150909423828
 20
76.60587310791016
 30
5
 11
54.5904541015625
 21
76.58876037597656
 31
5
 12
54.5904541015625
 22
76.58876037597656
 32
0
 13
54.5904541015625
 23
76.58876037597656
 33
0
  0
3DFACE
  8
0
1001
WEBCAD
1000
S3D3_1778998648061
 10
122.85150909423828
 20
43.60586929321289
 30
5
 11
122.85150909423828
 21
74.60587310791016
 31
0
 12
122.85150909423828
 22
43.60586929321289
 32
0
 13
122.85150909423828
 23
43.60586929321289
 33
0
  0
3DFACE
  8
0
1001
WEBCAD
1000
S3D3_1778998648061
 10
122.85150909423828
 20
43.60586929321289
 30
5
 11
122.85150909423828
 21
74.60587310791016
 31
5
 12
122.85150909423828
 22
74.60587310791016
 32
0
 13
122.85150909423828
 23
74.60587310791016
 33
0
  0
3DFACE
  8
0
1001
WEBCAD
1000
S3D3_1778998648061
 10
52.85150909423828
 20
74.60587310791016
 30
5
 11
52.85150909423828
 21
43.60586929321289
 31
0
 12
52.85150909423828
 22
74.60587310791016
 32
0
 13
52.85150909423828
 23
74.60587310791016
 33
0
  0
3DFACE
  8
0
1001
WEBCAD
1000
S3D3_1778998648061
 10
52.85150909423828
 20
74.60587310791016
 30
5
 11
52.85150909423828
 21
43.60586929321289
 31
5
 12
52.85150909423828
 22
43.60586929321289
 32
0
 13
52.85150909423828
 23
43.60586929321289
 33
0
  0
3DFACE
  8
0
1001
WEBCAD
1000
S3D3_1778998648061
 10
122.83439636230469
 20
43.344818115234375
 30
5
 11
122.85150909423828
 21
43.60586929321289
 31
0
 12
122.83439636230469
 22
43.344818115234375
 32
0
 13
122.83439636230469
 23
43.344818115234375
 33
0
  0
3DFACE
  8
0
1001
WEBCAD
1000
S3D3_1778998648061
 10
122.83439636230469
 20
43.344818115234375
 30
5
 11
122.85150909423828
 21
43.60586929321289
 31
5
 12
122.85150909423828
 22
43.60586929321289
 32
0
 13
122.85150909423828
 23
43.60586929321289
 33
0
  0
3DFACE
  8
0
1001
WEBCAD
1000
S3D3_1778998648061
 10
122.78336334228516
 20
43.08823013305664
 30
5
 11
122.83439636230469
 21
43.344818115234375
 31
0
 12
122.78336334228516
 22
43.08823013305664
 32
0
 13
122.78336334228516
 23
43.08823013305664
 33
0
  0
3DFACE
  8
0
1001
WEBCAD
1000
S3D3_1778998648061
 10
122.78336334228516
 20
43.08823013305664
 30
5
 11
122.78336334228516
 21
43.08823013305664
 31
0
 12
122.69926452636719
 22
42.84050369262695
 32
0
 13
122.69926452636719
 23
42.84050369262695
 33
0
  0
3DFACE
  8
0
1001
WEBCAD
1000
S3D3_1778998648061
 10
122.78336334228516
 20
43.08823013305664
 30
5
 11
122.83439636230469
 21
43.344818115234375
 31
5
 12
122.83439636230469
 22
43.344818115234375
 32
0
 13
122.83439636230469
 23
43.344818115234375
 33
0
  0
3DFACE
  8
0
1001
WEBCAD
1000
S3D3_1778998648061
 10
122.69926452636719
 20
42.84050369262695
 30
5
 11
122.78336334228516
 21
43.08823013305664
 31
5
 12
122.69926452636719
 22
42.84050369262695
 32
0
 13
122.69926452636719
 23
42.84050369262695
 33
0
  0
3DFACE
  8
0
1001
WEBCAD
1000
S3D3_1778998648061
 10
122.58355712890625
 20
42.60586929321289
 30
5
 11
122.69926452636719
 21
42.84050369262695
 31
0
 12
122.58355712890625
 22
42.60586929321289
 32
0
 13
122.58355712890625
 23
42.60586929321289
 33
0
  0
3DFACE
  8
0
1001
WEBCAD
1000
S3D3_1778998648061
 10
122.58355712890625
 20
42.60586929321289
 30
5
 11
122.58355712890625
 21
42.60586929321289
 31
0
 12
122.43821716308594
 22
42.38834762573242
 32
0
 13
122.43821716308594
 23
42.38834762573242
 33
0
  0
3DFACE
  8
0
1001
WEBCAD
1000
S3D3_1778998648061
 10
122.58355712890625
 20
42.60586929321289
 30
5
 11
122.69926452636719
 21
42.84050369262695
 31
5
 12
122.69926452636719
 22
42.84050369262695
 32
0
 13
122.69926452636719
 23
42.84050369262695
 33
0
  0
3DFACE
  8
0
1001
WEBCAD
1000
S3D3_1778998648061
 10
122.43821716308594
 20
42.38834762573242
 30
5
 11
122.58355712890625
 21
42.60586929321289
 31
5
 12
122.43821716308594
 22
42.38834762573242
 32
0
 13
122.43821716308594
 23
42.38834762573242
 33
0
  0
3DFACE
  8
0
1001
WEBCAD
1000
S3D3_1778998648061
 10
122.2657241821289
 20
42.19165802001953
 30
5
 11
122.43821716308594
 21
42.38834762573242
 31
0
 12
122.2657241821289
 22
42.19165802001953
 32
0
 13
122.2657241821289
 23
42.19165802001953
 33
0
  0
3DFACE
  8
0
1001
WEBCAD
1000
S3D3_1778998648061
 10
122.2657241821289
 20
42.19165802001953
 30
5
 11
122.2657241821289
 21
42.19165802001953
 31
0
 12
122.06903076171875
 22
42.019161224365234
 32
0
 13
122.06903076171875
 23
42.019161224365234
 33
0
  0
3DFACE
  8
0
1001
WEBCAD
1000
S3D3_1778998648061
 10
122.2657241821289
 20
42.19165802001953
 30
5
 11
122.43821716308594
 21
42.38834762573242
 31
5
 12
122.43821716308594
 22
42.38834762573242
 32
0
 13
122.43821716308594
 23
42.38834762573242
 33
0
  0
3DFACE
  8
0
1001
WEBCAD
1000
S3D3_1778998648061
 10
122.06903076171875
 20
42.019161224365234
 30
5
 11
122.2657241821289
 21
42.19165802001953
 31
5
 12
122.06903076171875
 22
42.019161224365234
 32
0
 13
122.06903076171875
 23
42.019161224365234
 33
0
  0
3DFACE
  8
0
1001
WEBCAD
1000
S3D3_1778998648061
 10
121.85150909423828
 20
41.873817443847656
 30
5
 11
122.06903076171875
 21
42.019161224365234
 31
0
 12
121.85150909423828
 22
41.873817443847656
 32
0
 13
121.85150909423828
 23
41.873817443847656
 33
0
  0
3DFACE
  8
0
1001
WEBCAD
1000
S3D3_1778998648061
 10
121.85150909423828
 20
41.873817443847656
 30
5
 11
122.06903076171875
 21
42.019161224365234
 31
5
 12
122.06903076171875
 22
42.019161224365234
 32
0
 13
122.06903076171875
 23
42.019161224365234
 33
0
  0
3DFACE
  8
0
1001
WEBCAD
1000
S3D3_1778998648061
 10
121.61687469482422
 20
41.75811004638672
 30
5
 11
121.85150909423828
 21
41.873817443847656
 31
0
 12
121.61687469482422
 22
41.75811004638672
 32
0
 13
121.61687469482422
 23
41.75811004638672
 33
0
  0
3DFACE
  8
0
1001
WEBCAD
1000
S3D3_1778998648061
 10
121.61687469482422
 20
41.75811004638672
 30
5
 11
121.85150909423828
 21
41.873817443847656
 31
5
 12
121.85150909423828
 22
41.873817443847656
 32
0
 13
121.85150909423828
 23
41.873817443847656
 33
0
  0
3DFACE
  8
0
1001
WEBCAD
1000
S3D3_1778998648061
 10
121.36914825439453
 20
41.67401885986328
 30
5
 11
121.61687469482422
 21
41.75811004638672
 31
0
 12
121.36914825439453
 22
41.67401885986328
 32
0
 13
121.36914825439453
 23
41.67401885986328
 33
0
  0
3DFACE
  8
0
1001
WEBCAD
1000
S3D3_1778998648061
 10
121.36914825439453
 20
41.67401885986328
 30
5
 11
121.61687469482422
 21
41.75811004638672
 31
5
 12
121.61687469482422
 22
41.75811004638672
 32
0
 13
121.61687469482422
 23
41.75811004638672
 33
0
  0
3DFACE
  8
0
1001
WEBCAD
1000
S3D3_1778998648061
 10
121.11256408691406
 20
41.62297821044922
 30
5
 11
121.36914825439453
 21
41.67401885986328
 31
0
 12
121.11256408691406
 22
41.62297821044922
 32
0
 13
121.11256408691406
 23
41.62297821044922
 33
0
  0
3DFACE
  8
0
1001
WEBCAD
1000
S3D3_1778998648061
 10
121.11256408691406
 20
41.62297821044922
 30
5
 11
121.36914825439453
 21
41.67401885986328
 31
5
 12
121.36914825439453
 22
41.67401885986328
 32
0
 13
121.36914825439453
 23
41.67401885986328
 33
0
  0
3DFACE
  8
0
1001
WEBCAD
1000
S3D3_1778998648061
 10
120.85150909423828
 20
41.60586929321289
 30
5
 11
121.11256408691406
 21
41.62297821044922
 31
0
 12
120.85150909423828
 22
41.60586929321289
 32
0
 13
120.85150909423828
 23
41.60586929321289
 33
0
  0
3DFACE
  8
0
1001
WEBCAD
1000
S3D3_1778998648061
 10
120.85150909423828
 20
41.60586929321289
 30
5
 11
121.11256408691406
 21
41.62297821044922
 31
5
 12
121.11256408691406
 22
41.62297821044922
 32
0
 13
121.11256408691406
 23
41.62297821044922
 33
0
  0
3DFACE
  8
0
1001
WEBCAD
1000
S3D3_1778998648061
 10
54.5904541015625
 20
41.62297821044922
 30
5
 11
54.85150909423828
 21
41.60586929321289
 31
0
 12
54.5904541015625
 22
41.62297821044922
 32
0
 13
54.5904541015625
 23
41.62297821044922
 33
0
  0
3DFACE
  8
0
1001
WEBCAD
1000
S3D3_1778998648061
 10
54.5904541015625
 20
41.62297821044922
 30
5
 11
54.85150909423828
 21
41.60586929321289
 31
5
 12
54.85150909423828
 22
41.60586929321289
 32
0
 13
54.85150909423828
 23
41.60586929321289
 33
0
  0
3DFACE
  8
0
1001
WEBCAD
1000
S3D3_1778998648061
 10
54.33386993408203
 20
41.67401885986328
 30
5
 11
54.5904541015625
 21
41.62297821044922
 31
0
 12
54.33386993408203
 22
41.67401885986328
 32
0
 13
54.33386993408203
 23
41.67401885986328
 33
0
  0
3DFACE
  8
0
1001
WEBCAD
1000
S3D3_1778998648061
 10
54.33386993408203
 20
41.67401885986328
 30
5
 11
54.5904541015625
 21
41.62297821044922
 31
5
 12
54.5904541015625
 22
41.62297821044922
 32
0
 13
54.5904541015625
 23
41.62297821044922
 33
0
  0
3DFACE
  8
0
1001
WEBCAD
1000
S3D3_1778998648061
 10
54.08613967895508
 20
41.75811004638672
 30
5
 11
54.33386993408203
 21
41.67401885986328
 31
0
 12
54.08613967895508
 22
41.75811004638672
 32
0
 13
54.08613967895508
 23
41.75811004638672
 33
0
  0
3DFACE
  8
0
1001
WEBCAD
1000
S3D3_1778998648061
 10
54.08613967895508
 20
41.75811004638672
 30
5
 11
54.33386993408203
 21
41.67401885986328
 31
5
 12
54.33386993408203
 22
41.67401885986328
 32
0
 13
54.33386993408203
 23
41.67401885986328
 33
0
  0
3DFACE
  8
0
1001
WEBCAD
1000
S3D3_1778998648061
 10
53.85150909423828
 20
41.873817443847656
 30
5
 11
54.08613967895508
 21
41.75811004638672
 31
0
 12
53.85150909423828
 22
41.873817443847656
 32
0
 13
53.85150909423828
 23
41.873817443847656
 33
0
  0
3DFACE
  8
0
1001
WEBCAD
1000
S3D3_1778998648061
 10
53.85150909423828
 20
41.873817443847656
 30
5
 11
53.85150909423828
 21
41.873817443847656
 31
0
 12
53.63398361206055
 22
42.019161224365234
 32
0
 13
53.63398361206055
 23
42.019161224365234
 33
0
  0
3DFACE
  8
0
1001
WEBCAD
1000
S3D3_1778998648061
 10
53.85150909423828
 20
41.873817443847656
 30
5
 11
54.08613967895508
 21
41.75811004638672
 31
5
 12
54.08613967895508
 22
41.75811004638672
 32
0
 13
54.08613967895508
 23
41.75811004638672
 33
0
  0
3DFACE
  8
0
1001
WEBCAD
1000
S3D3_1778998648061
 10
53.63398361206055
 20
42.019161224365234
 30
5
 11
53.85150909423828
 21
41.873817443847656
 31
5
 12
53.63398361206055
 22
42.019161224365234
 32
0
 13
53.63398361206055
 23
42.019161224365234
 33
0
  0
3DFACE
  8
0
1001
WEBCAD
1000
S3D3_1778998648061
 10
53.437294006347656
 20
42.19165802001953
 30
5
 11
53.63398361206055
 21
42.019161224365234
 31
0
 12
53.437294006347656
 22
42.19165802001953
 32
0
 13
53.437294006347656
 23
42.19165802001953
 33
0
  0
3DFACE
  8
0
1001
WEBCAD
1000
S3D3_1778998648061
 10
53.437294006347656
 20
42.19165802001953
 30
5
 11
53.63398361206055
 21
42.019161224365234
 31
5
 12
53.63398361206055
 22
42.019161224365234
 32
0
 13
53.63398361206055
 23
42.019161224365234
 33
0
  0
3DFACE
  8
0
1001
WEBCAD
1000
S3D3_1778998648061
 10
53.264801025390625
 20
42.38834762573242
 30
5
 11
53.437294006347656
 21
42.19165802001953
 31
0
 12
53.264801025390625
 22
42.38834762573242
 32
0
 13
53.264801025390625
 23
42.38834762573242
 33
0
  0
3DFACE
  8
0
1001
WEBCAD
1000
S3D3_1778998648061
 10
53.264801025390625
 20
42.38834762573242
 30
5
 11
53.437294006347656
 21
42.19165802001953
 31
5
 12
53.437294006347656
 22
42.19165802001953
 32
0
 13
53.437294006347656
 23
42.19165802001953
 33
0
  0
3DFACE
  8
0
1001
WEBCAD
1000
S3D3_1778998648061
 10
53.11945724487305
 20
42.60586929321289
 30
5
 11
53.264801025390625
 21
42.38834762573242
 31
0
 12
53.11945724487305
 22
42.60586929321289
 32
0
 13
53.11945724487305
 23
42.60586929321289
 33
0
  0
3DFACE
  8
0
1001
WEBCAD
1000
S3D3_1778998648061
 10
53.11945724487305
 20
42.60586929321289
 30
5
 11
53.264801025390625
 21
42.38834762573242
 31
5
 12
53.264801025390625
 22
42.38834762573242
 32
0
 13
53.264801025390625
 23
42.38834762573242
 33
0
  0
3DFACE
  8
0
1001
WEBCAD
1000
S3D3_1778998648061
 10
53.00374984741211
 20
42.84050369262695
 30
5
 11
53.11945724487305
 21
42.60586929321289
 31
0
 12
53.00374984741211
 22
42.84050369262695
 32
0
 13
53.00374984741211
 23
42.84050369262695
 33
0
  0
3DFACE
  8
0
1001
WEBCAD
1000
S3D3_1778998648061
 10
53.00374984741211
 20
42.84050369262695
 30
5
 11
53.11945724487305
 21
42.60586929321289
 31
5
 12
53.11945724487305
 22
42.60586929321289
 32
0
 13
53.11945724487305
 23
42.60586929321289
 33
0
  0
3DFACE
  8
0
1001
WEBCAD
1000
S3D3_1778998648061
 10
52.919654846191406
 20
43.08823013305664
 30
5
 11
53.00374984741211
 21
42.84050369262695
 31
0
 12
52.919654846191406
 22
43.08823013305664
 32
0
 13
52.919654846191406
 23
43.08823013305664
 33
0
  0
3DFACE
  8
0
1001
WEBCAD
1000
S3D3_1778998648061
 10
52.919654846191406
 20
43.08823013305664
 30
5
 11
53.00374984741211
 21
42.84050369262695
 31
5
 12
53.00374984741211
 22
42.84050369262695
 32
0
 13
53.00374984741211
 23
42.84050369262695
 33
0
  0
3DFACE
  8
0
1001
WEBCAD
1000
S3D3_1778998648061
 10
52.86861801147461
 20
43.344818115234375
 30
5
 11
52.919654846191406
 21
43.08823013305664
 31
0
 12
52.86861801147461
 22
43.344818115234375
 32
0
 13
52.86861801147461
 23
43.344818115234375
 33
0
  0
3DFACE
  8
0
1001
WEBCAD
1000
S3D3_1778998648061
 10
52.86861801147461
 20
43.344818115234375
 30
5
 11
52.86861801147461
 21
43.344818115234375
 31
0
 12
52.85150909423828
 22
43.60586929321289
 32
0
 13
52.85150909423828
 23
43.60586929321289
 33
0
  0
3DFACE
  8
0
1001
WEBCAD
1000
S3D3_1778998648061
 10
52.86861801147461
 20
43.344818115234375
 30
5
 11
52.919654846191406
 21
43.08823013305664
 31
5
 12
52.919654846191406
 22
43.08823013305664
 32
0
 13
52.919654846191406
 23
43.08823013305664
 33
0
  0
3DFACE
  8
0
1001
WEBCAD
1000
S3D3_1778998648061
 10
52.85150909423828
 20
43.60586929321289
 30
5
 11
52.86861801147461
 21
43.344818115234375
 31
5
 12
52.85150909423828
 22
43.60586929321289
 32
0
 13
52.85150909423828
 23
43.60586929321289
 33
0
  0
3DFACE
  8
0
1001
WEBCAD
1000
S3D3_1778998648061
 10
54.85150909423828
 20
41.60586929321289
 30
5
 11
120.85150909423828
 21
41.60586929321289
 31
0
 12
54.85150909423828
 22
41.60586929321289
 32
0
 13
54.85150909423828
 23
41.60586929321289
 33
0
  0
3DFACE
  8
0
1001
WEBCAD
1000
S3D3_1778998648061
 10
54.85150909423828
 20
41.60586929321289
 30
5
 11
120.85150909423828
 21
41.60586929321289
 31
5
 12
120.85150909423828
 22
41.60586929321289
 32
0
 13
120.85150909423828
 23
41.60586929321289
 33
0
  0
ENDSEC
  0
EOF
