  0
SECTION
  2
HEADER
  9
$ACADVER
  1
AC1015
  0
ENDSEC
  0
SECTION
  2
TABLES
  0
TABLE
  2
LTYPE
 70
1
  0
LTYPE
  2
CONTINUOUS
 70
0
  3
Solid line
 72
65
 73
0
 40
0.0
  0
ENDTAB
  0
TABLE
  2
LAYER
 70
1
  0
LAYER
  2
0
 70
0
 62
7
  6
CONTINUOUS
  0
ENDTAB
  0
ENDSEC
  0
SECTION
  2
BLOCKS
  0
ENDSEC
  0
SECTION
  2
ENTITIES
  0
SPLINE
  8
0
 71
3
 72
11
 73
7
 40
0
 40
0
 40
0
 40
0
 40
1
 40
2
 40
3
 40
4
 40
4
 40
4
 40
4
 10
-104.54931899033217
 20
-320.0117698291016
 30
0.0
 10
-121.47729169200962
 20
-206.19436041593752
 30
0.0
 10
19.43640644208152
 20
-175.34543955297616
 30
0.0
 10
-27.152440788042497
 20
-4.2546860766492856
 30
0.0
 10
89.29513660145152
 20
46.217880743049896
 30
0.0
 10
194.33724901144495
 20
-6.4342538452179525
 30
0.0
 10
130.59916220389664
 20
169.0728630117908
 30
0.0
  0
ENDSEC
  0
EOF
