  0
SECTION
  2
HEADER
  9
$ACADVER
  1
AC1015
  0
ENDSEC
  0
SECTION
  2
TABLES
  0
TABLE
  2
LTYPE
 70
1
  0
LTYPE
  2
CONTINUOUS
 70
0
  3
Solid line
 72
65
 73
0
 40
0.0
  0
ENDTAB
  0
TABLE
  2
LAYER
 70
4
  0
LAYER
  2
0
 70
0
 62
7
  6
CONTINUOUS
  0
LAYER
  2
1
 70
0
 62
7
  6
CONTINUOUS
  0
LAYER
  2
2
 70
0
 62
4
  6
CONTINUOUS
  0
LAYER
  2
01
 70
0
 62
3
  6
DASHDOT
  0
ENDTAB
  0
ENDSEC
  0
SECTION
  2
BLOCKS
  0
ENDSEC
  0
SECTION
  2
ENTITIES
  0
3DFACE
  8
0
1001
WEBCAD
1000
E10
 10
-80.64398329967062
 20
100.73744381257853
 30
43.88563346198115
 11
19.35597727853669
 21
100.73744381257853
 31
43.97442736370351
 12
19.35597727853669
 22
16.109351046770428
 32
43.97442736370351
 13
19.35597727853669
 23
16.109351046770428
 33
43.97442736370351
  0
3DFACE
  8
0
1001
WEBCAD
1000
E10
 10
-80.64398329967062
 20
16.109351046770428
 30
43.88563346198115
 11
-80.64398329967062
 21
100.73744381257853
 31
43.88563346198115
 12
19.35597727853669
 22
16.109351046770428
 32
43.97442736370351
 13
19.35597727853669
 23
16.109351046770428
 33
43.97442736370351
  0
3DFACE
  8
0
1001
WEBCAD
1000
E10
 10
-80.7185408031582
 20
16.109351046770428
 30
127.85251930602894
 11
19.35597727853669
 21
16.109351046770428
 31
43.97442736370351
 12
19.281419775049095
 22
16.109351046770428
 32
127.9413132077513
 13
19.281419775049095
 23
16.109351046770428
 33
127.9413132077513
  0
3DFACE
  8
0
1001
WEBCAD
1000
E10
 10
-80.7185408031582
 20
16.109351046770428
 30
127.85251930602894
 11
-80.64398329967062
 21
16.109351046770428
 31
43.88563346198115
 12
19.35597727853669
 22
16.109351046770428
 32
43.97442736370351
 13
19.35597727853669
 23
16.109351046770428
 33
43.97442736370351
  0
3DFACE
  8
0
1001
WEBCAD
1000
E10
 10
-80.64398329967062
 20
100.73744381257853
 30
43.88563346198115
 11
-80.64398329967062
 21
16.109351046770428
 31
43.88563346198115
 12
-80.7185408031582
 22
16.109351046770428
 32
127.85251930602894
 13
-80.7185408031582
 23
16.109351046770428
 33
127.85251930602894
  0
3DFACE
  8
0
1001
WEBCAD
1000
E10
 10
-80.7185408031582
 20
100.73744381257853
 30
127.85251930602894
 11
-80.64398329967062
 21
100.73744381257853
 31
43.88563346198115
 12
-80.7185408031582
 22
16.109351046770428
 32
127.85251930602894
 13
-80.7185408031582
 23
16.109351046770428
 33
127.85251930602894
  0
3DFACE
  8
0
1001
WEBCAD
1000
E10
 10
-80.7185408031582
 20
100.73744381257853
 30
127.85251930602894
 11
19.281419775049095
 21
100.73744381257853
 31
127.9413132077513
 12
19.35597727853669
 22
100.73744381257853
 32
43.97442736370351
 13
19.35597727853669
 23
100.73744381257853
 33
43.97442736370351
  0
3DFACE
  8
0
1001
WEBCAD
1000
E10
 10
-80.7185408031582
 20
100.73744381257853
 30
127.85251930602894
 11
19.35597727853669
 21
100.73744381257853
 31
43.97442736370351
 12
-80.64398329967062
 22
100.73744381257853
 32
43.88563346198115
 13
-80.64398329967062
 23
100.73744381257853
 33
43.88563346198115
  0
3DFACE
  8
0
1001
WEBCAD
1000
E10
 10
19.331295179306377
 20
42.31675136873088
 30
71.77148214046517
 11
19.35597727853669
 21
16.109351046770428
 31
43.97442736370351
 12
19.335203257216914
 22
46.21595943757853
 32
67.37019298197825
 13
19.335203257216914
 23
46.21595943757853
 33
67.37019298197825
  0
3DFACE
  8
0
1001
WEBCAD
1000
E10
 10
19.33816920738801
 20
51.055166133135174
 30
64.02993093207073
 11
19.335203257216914
 21
46.21595943757853
 31
67.37019298197825
 12
19.35597727853669
 22
16.109351046770428
 32
43.97442736370351
 13
19.35597727853669
 23
16.109351046770428
 33
43.97442736370351
  0
3DFACE
  8
0
1001
WEBCAD
1000
E10
 10
19.326672079885135
 20
39.58414257356486
 30
76.97803068609412
 11
19.35597727853669
 21
16.109351046770428
 31
43.97442736370351
 12
19.331295179306377
 22
42.31675136873088
 32
71.77148214046517
 13
19.331295179306377
 23
42.31675136873088
 33
71.77148214046517
  0
3DFACE
  8
0
1001
WEBCAD
1000
E10
 10
19.340020654268105
 20
56.55312908479533
 30
61.94482585806075
 11
19.33816920738801
 21
51.055166133135174
 31
64.02993093207073
 12
19.35597727853669
 22
16.109351046770428
 32
43.97442736370351
 13
19.35597727853669
 23
16.109351046770428
 33
43.97442736370351
  0
3DFACE
  8
0
1001
WEBCAD
1000
E10
 10
19.321602653451176
 20
38.17695034334025
 30
82.6872340628643
 11
19.35597727853669
 21
16.109351046770428
 31
43.97442736370351
 12
19.326672079885135
 22
39.58414257356486
 32
76.97803068609412
 13
19.326672079885135
 23
39.58414257356486
 33
76.97803068609412
  0
3DFACE
  8
0
1001
WEBCAD
1000
E10
 10
19.340649992698594
 20
62.39032924959025
 30
61.23606301490929
 11
19.340020654268105
 21
56.55312908479533
 31
61.94482585806075
 12
19.35597727853669
 22
16.109351046770428
 32
43.97442736370351
 13
19.35597727853669
 23
16.109351046770428
 33
43.97442736370351
  0
3DFACE
  8
0
1001
WEBCAD
1000
E10
 10
19.31638150672433
 20
38.17695034334025
 30
88.56730529219719
 11
19.35597727853669
 21
16.109351046770428
 31
43.97442736370351
 12
19.321602653451176
 22
38.17695034334025
 32
82.6872340628643
 13
19.321602653451176
 23
38.17695034334025
 33
82.6872340628643
  0
3DFACE
  8
0
1001
WEBCAD
1000
E10
 10
19.281419775049095
 20
16.109351046770428
 30
127.9413132077513
 11
19.31638150672433
 21
38.17695034334025
 31
88.56730529219719
 12
19.311312073515932
 22
39.58414257356486
 32
94.27651629835891
 13
19.311312073515932
 23
39.58414257356486
 33
94.27651629835891
  0
3DFACE
  8
0
1001
WEBCAD
1000
E10
 10
19.281419775049095
 20
16.109351046770428
 30
127.9413132077513
 11
19.311312073515932
 21
39.58414257356486
 31
94.27651629835891
 12
19.30668898086913
 22
42.31675136873088
 32
99.48305721459634
 13
19.30668898086913
 23
42.31675136873088
 33
99.48305721459634
  0
3DFACE
  8
0
1001
WEBCAD
1000
E10
 10
19.281419775049095
 20
16.109351046770428
 30
127.9413132077513
 11
19.35597727853669
 21
16.109351046770428
 31
43.97442736370351
 12
19.31638150672433
 22
38.17695034334025
 32
88.56730529219719
 13
19.31638150672433
 23
38.17695034334025
 33
88.56730529219719
  0
3DFACE
  8
0
1001
WEBCAD
1000
E10
 10
19.35597727853669
 20
100.73744381257853
 30
43.97442736370351
 11
19.33816920738801
 21
73.7254961807426
 31
64.02993093207073
 12
19.340020654268105
 22
68.22753322908244
 32
61.94482585806075
 13
19.340020654268105
 23
68.22753322908244
 33
61.94482585806075
  0
3DFACE
  8
0
1001
WEBCAD
1000
E10
 10
19.35597727853669
 20
100.73744381257853
 30
43.97442736370351
 11
19.340020654268105
 21
68.22753322908244
 31
61.94482585806075
 12
19.340649992698594
 22
62.39032924959025
 32
61.23606301490929
 13
19.340649992698594
 23
62.39032924959025
 33
61.23606301490929
  0
3DFACE
  8
0
1001
WEBCAD
1000
E10
 10
19.35597727853669
 20
100.73744381257853
 30
43.97442736370351
 11
19.340649992698594
 21
62.39032924959025
 31
61.23606301490929
 12
19.35597727853669
 22
16.109351046770428
 32
43.97442736370351
 13
19.35597727853669
 23
16.109351046770428
 33
43.97442736370351
  0
3DFACE
  8
0
1001
WEBCAD
1000
E10
 10
19.335203257216914
 20
78.56469906160197
 30
67.37019298197825
 11
19.33816920738801
 21
73.7254961807426
 31
64.02993093207073
 12
19.35597727853669
 22
100.73744381257853
 32
43.97442736370351
 13
19.35597727853669
 23
100.73744381257853
 33
43.97442736370351
  0
3DFACE
  8
0
1001
WEBCAD
1000
E10
 10
19.302780896184153
 20
46.21595943757853
 30
103.88435400247478
 11
19.281419775049095
 21
16.109351046770428
 31
127.9413132077513
 12
19.30668898086913
 22
42.31675136873088
 32
99.48305721459634
 13
19.30668898086913
 23
42.31675136873088
 33
99.48305721459634
  0
3DFACE
  8
0
1001
WEBCAD
1000
E10
 10
19.331295179306377
 20
82.46391475984416
 30
71.77148214046517
 11
19.335203257216914
 21
78.56469906160197
 31
67.37019298197825
 12
19.35597727853669
 22
100.73744381257853
 32
43.97442736370351
 13
19.35597727853669
 23
100.73744381257853
 33
43.97442736370351
  0
3DFACE
  8
0
1001
WEBCAD
1000
E10
 10
19.299814946013058
 20
51.055166133135174
 30
107.2246160523823
 11
19.281419775049095
 21
16.109351046770428
 31
127.9413132077513
 12
19.302780896184153
 22
46.21595943757853
 32
103.88435400247478
 13
19.302780896184153
 23
46.21595943757853
 33
103.88435400247478
  0
3DFACE
  8
0
1001
WEBCAD
1000
E10
 10
19.326672079885135
 20
85.19651974031291
 30
76.97803068609412
 11
19.331295179306377
 21
82.46391475984416
 31
71.77148214046517
 12
19.35597727853669
 22
100.73744381257853
 32
43.97442736370351
 13
19.35597727853669
 23
100.73744381257853
 33
43.97442736370351
  0
3DFACE
  8
0
1001
WEBCAD
1000
E10
 10
19.297963499132962
 20
56.55312908479533
 30
109.30972112639226
 11
19.281419775049095
 21
16.109351046770428
 31
127.9413132077513
 12
19.299814946013058
 22
51.055166133135174
 32
107.2246160523823
 13
19.299814946013058
 23
51.055166133135174
 33
107.2246160523823
  0
3DFACE
  8
0
1001
WEBCAD
1000
E10
 10
19.321602653451176
 20
86.60370815584025
 30
82.6872340628643
 11
19.326672079885135
 21
85.19651974031291
 31
76.97803068609412
 12
19.35597727853669
 22
100.73744381257853
 32
43.97442736370351
 13
19.35597727853669
 23
100.73744381257853
 33
43.97442736370351
  0
3DFACE
  8
0
1001
WEBCAD
1000
E10
 10
19.297334160702473
 20
62.39032924959025
 30
110.01848396954374
 11
19.281419775049095
 21
16.109351046770428
 31
127.9413132077513
 12
19.297963499132962
 22
56.55312908479533
 32
109.30972112639226
 13
19.297963499132962
 23
56.55312908479533
 33
109.30972112639226
  0
3DFACE
  8
0
1001
WEBCAD
1000
E10
 10
19.281419775049095
 20
100.73744381257853
 30
127.9413132077513
 11
19.297334160702473
 21
62.39032924959025
 31
110.01848396954374
 12
19.297963499132962
 22
68.22753322908244
 32
109.30972112639226
 13
19.297963499132962
 23
68.22753322908244
 33
109.30972112639226
  0
3DFACE
  8
0
1001
WEBCAD
1000
E10
 10
19.281419775049095
 20
100.73744381257853
 30
127.9413132077513
 11
19.297963499132962
 21
68.22753322908244
 31
109.30972112639226
 12
19.299814946013058
 22
73.7254961807426
 32
107.2246160523823
 13
19.299814946013058
 23
73.7254961807426
 33
107.2246160523823
  0
3DFACE
  8
0
1001
WEBCAD
1000
E10
 10
19.281419775049095
 20
100.73744381257853
 30
127.9413132077513
 11
19.299814946013058
 21
73.7254961807426
 31
107.2246160523823
 12
19.302780896184153
 22
78.56469906160197
 32
103.88435400247478
 13
19.302780896184153
 23
78.56469906160197
 33
103.88435400247478
  0
3DFACE
  8
0
1001
WEBCAD
1000
E10
 10
19.281419775049095
 20
100.73744381257853
 30
127.9413132077513
 11
19.302780896184153
 21
78.56469906160197
 31
103.88435400247478
 12
19.30668898086913
 22
82.46391475984416
 32
99.48305721459634
 13
19.30668898086913
 23
82.46391475984416
 33
99.48305721459634
  0
3DFACE
  8
0
1001
WEBCAD
1000
E10
 10
19.281419775049095
 20
100.73744381257853
 30
127.9413132077513
 11
19.30668898086913
 21
82.46391475984416
 31
99.48305721459634
 12
19.311312073515932
 22
85.19651974031291
 32
94.27651629835891
 13
19.311312073515932
 23
85.19651974031291
 33
94.27651629835891
  0
3DFACE
  8
0
1001
WEBCAD
1000
E10
 10
19.281419775049095
 20
100.73744381257853
 30
127.9413132077513
 11
19.311312073515932
 21
85.19651974031291
 31
94.27651629835891
 12
19.31638150672433
 22
86.60370815584025
 32
88.56730529219719
 13
19.31638150672433
 23
86.60370815584025
 33
88.56730529219719
  0
3DFACE
  8
0
1001
WEBCAD
1000
E10
 10
19.281419775049095
 20
100.73744381257853
 30
127.9413132077513
 11
19.281419775049095
 21
16.109351046770428
 31
127.9413132077513
 12
19.297334160702473
 22
62.39032924959025
 32
110.01848396954374
 13
19.297334160702473
 23
62.39032924959025
 33
110.01848396954374
  0
3DFACE
  8
0
1001
WEBCAD
1000
E10
 10
19.281419775049095
 20
100.73744381257853
 30
127.9413132077513
 11
19.321602653451176
 21
86.60370815584025
 31
82.6872340628643
 12
19.35597727853669
 22
100.73744381257853
 32
43.97442736370351
 13
19.35597727853669
 23
100.73744381257853
 33
43.97442736370351
  0
3DFACE
  8
0
1001
WEBCAD
1000
E10
 10
19.281419775049095
 20
100.73744381257853
 30
127.9413132077513
 11
19.31638150672433
 21
86.60370815584025
 31
88.56730529219719
 12
19.321602653451176
 22
86.60370815584025
 32
82.6872340628643
 13
19.321602653451176
 23
86.60370815584025
 33
82.6872340628643
  0
3DFACE
  8
0
1001
WEBCAD
1000
E10
 10
-80.7185408031582
 20
100.73744381257853
 30
127.85251930602894
 11
19.281419775049095
 21
16.109351046770428
 31
127.9413132077513
 12
19.281419775049095
 22
100.73744381257853
 32
127.9413132077513
 13
19.281419775049095
 23
100.73744381257853
 33
127.9413132077513
  0
3DFACE
  8
0
1001
WEBCAD
1000
E10
 10
-80.7185408031582
 20
16.109351046770428
 30
127.85251930602894
 11
19.281419775049095
 21
16.109351046770428
 31
127.9413132077513
 12
-80.7185408031582
 22
100.73744381257853
 32
127.85251930602894
 13
-80.7185408031582
 23
100.73744381257853
 33
127.85251930602894
  0
3DFACE
  8
0
1001
WEBCAD
1000
E10
 10
-80.04084926842171
 20
68.22753322908244
 30
109.22151428383856
 11
19.297334160702473
 21
62.39032924959025
 31
110.01848396954374
 12
-80.0414786068522
 22
62.39032924959025
 32
109.93027712699003
 13
-80.0414786068522
 23
62.39032924959025
 33
109.93027712699003
  0
3DFACE
  8
0
1001
WEBCAD
1000
E10
 10
-80.04084926842171
 20
68.22753322908244
 30
109.22151428383856
 11
19.297963499132962
 21
68.22753322908244
 31
109.30972112639226
 12
19.297334160702473
 22
62.39032924959025
 32
110.01848396954374
 13
19.297334160702473
 23
62.39032924959025
 33
110.01848396954374
  0
3DFACE
  8
0
1001
WEBCAD
1000
E10
 10
-80.03899782154161
 20
73.7254961807426
 30
107.1364092098286
 11
19.299814946013058
 21
73.7254961807426
 31
107.2246160523823
 12
19.297963499132962
 22
68.22753322908244
 32
109.30972112639226
 13
19.297963499132962
 23
68.22753322908244
 33
109.30972112639226
  0
3DFACE
  8
0
1001
WEBCAD
1000
E10
 10
-80.03899782154161
 20
73.7254961807426
 30
107.1364092098286
 11
19.297963499132962
 21
68.22753322908244
 31
109.30972112639226
 12
-80.04084926842171
 22
68.22753322908244
 32
109.22151428383856
 13
-80.04084926842171
 23
68.22753322908244
 33
109.22151428383856
  0
3DFACE
  8
0
1001
WEBCAD
1000
E10
 10
-80.03603187137051
 20
78.56469906160197
 30
103.79614715992108
 11
19.302780896184153
 21
78.56469906160197
 31
103.88435400247478
 12
19.299814946013058
 22
73.7254961807426
 32
107.2246160523823
 13
19.299814946013058
 23
73.7254961807426
 33
107.2246160523823
  0
3DFACE
  8
0
1001
WEBCAD
1000
E10
 10
-80.03603187137051
 20
78.56469906160197
 30
103.79614715992108
 11
19.30668898086913
 21
82.46391475984416
 31
99.48305721459634
 12
19.302780896184153
 22
78.56469906160197
 32
103.88435400247478
 13
19.302780896184153
 23
78.56469906160197
 33
103.88435400247478
  0
3DFACE
  8
0
1001
WEBCAD
1000
E10
 10
-80.03603187137051
 20
78.56469906160197
 30
103.79614715992108
 11
19.299814946013058
 21
73.7254961807426
 31
107.2246160523823
 12
-80.03899782154161
 22
73.7254961807426
 32
107.1364092098286
 13
-80.03899782154161
 23
73.7254961807426
 33
107.1364092098286
  0
3DFACE
  8
0
1001
WEBCAD
1000
E10
 10
-80.03212378668555
 20
82.46391475984416
 30
99.39485037204264
 11
19.30668898086913
 21
82.46391475984416
 31
99.48305721459634
 12
-80.03603187137051
 22
78.56469906160197
 32
103.79614715992108
 13
-80.03603187137051
 23
78.56469906160197
 33
103.79614715992108
  0
3DFACE
  8
0
1001
WEBCAD
1000
E10
 10
-80.02750069403874
 20
85.19651974031291
 30
94.18830945580521
 11
19.311312073515932
 21
85.19651974031291
 31
94.27651629835891
 12
19.30668898086913
 22
82.46391475984416
 32
99.48305721459634
 13
19.30668898086913
 23
82.46391475984416
 33
99.48305721459634
  0
3DFACE
  8
0
1001
WEBCAD
1000
E10
 10
-80.02750069403874
 20
85.19651974031291
 30
94.18830945580521
 11
19.30668898086913
 21
82.46391475984416
 31
99.48305721459634
 12
-80.03212378668555
 22
82.46391475984416
 32
99.39485037204264
 13
-80.03212378668555
 23
82.46391475984416
 33
99.39485037204264
  0
3DFACE
  8
0
1001
WEBCAD
1000
E10
 10
-80.02243126083034
 20
86.60370815584025
 30
88.47909844964349
 11
19.31638150672433
 21
86.60370815584025
 31
88.56730529219719
 12
19.311312073515932
 22
85.19651974031291
 32
94.27651629835891
 13
19.311312073515932
 23
85.19651974031291
 33
94.27651629835891
  0
3DFACE
  8
0
1001
WEBCAD
1000
E10
 10
-80.02243126083034
 20
86.60370815584025
 30
88.47909844964349
 11
19.311312073515932
 21
85.19651974031291
 31
94.27651629835891
 12
-80.02750069403874
 22
85.19651974031291
 32
94.18830945580521
 13
-80.02750069403874
 23
85.19651974031291
 33
94.18830945580521
  0
3DFACE
  8
0
1001
WEBCAD
1000
E10
 10
-80.01721011410349
 20
86.60370815584025
 30
82.5990272203106
 11
19.321602653451176
 21
86.60370815584025
 31
82.6872340628643
 12
19.31638150672433
 22
86.60370815584025
 32
88.56730529219719
 13
19.31638150672433
 23
86.60370815584025
 33
88.56730529219719
  0
3DFACE
  8
0
1001
WEBCAD
1000
E10
 10
-80.01721011410349
 20
86.60370815584025
 30
82.5990272203106
 11
19.326672079885135
 21
85.19651974031291
 31
76.97803068609412
 12
19.321602653451176
 22
86.60370815584025
 32
82.6872340628643
 13
19.321602653451176
 23
86.60370815584025
 33
82.6872340628643
  0
3DFACE
  8
0
1001
WEBCAD
1000
E10
 10
-80.01721011410349
 20
86.60370815584025
 30
82.5990272203106
 11
19.31638150672433
 21
86.60370815584025
 31
88.56730529219719
 12
-80.02243126083034
 22
86.60370815584025
 32
88.47909844964349
 13
-80.02243126083034
 23
86.60370815584025
 33
88.47909844964349
  0
3DFACE
  8
0
1001
WEBCAD
1000
E10
 10
-80.01214068766954
 20
85.19651974031291
 30
76.88982384354041
 11
19.331295179306377
 21
82.46391475984416
 31
71.77148214046517
 12
19.326672079885135
 22
85.19651974031291
 32
76.97803068609412
 13
19.326672079885135
 23
85.19651974031291
 33
76.97803068609412
  0
3DFACE
  8
0
1001
WEBCAD
1000
E10
 10
-80.01214068766954
 20
85.19651974031291
 30
76.88982384354041
 11
19.326672079885135
 21
85.19651974031291
 31
76.97803068609412
 12
-80.01721011410349
 22
86.60370815584025
 32
82.5990272203106
 13
-80.01721011410349
 23
86.60370815584025
 33
82.5990272203106
  0
3DFACE
  8
0
1001
WEBCAD
1000
E10
 10
-80.00751758824829
 20
82.46391475984416
 30
71.68327529791146
 11
19.331295179306377
 21
82.46391475984416
 31
71.77148214046517
 12
-80.01214068766954
 22
85.19651974031291
 32
76.88982384354041
 13
-80.01214068766954
 23
85.19651974031291
 33
76.88982384354041
  0
3DFACE
  8
0
1001
WEBCAD
1000
E10
 10
-80.00360951033775
 20
78.56469906160197
 30
67.28198613942455
 11
19.335203257216914
 21
78.56469906160197
 31
67.37019298197825
 12
19.331295179306377
 22
82.46391475984416
 32
71.77148214046517
 13
19.331295179306377
 23
82.46391475984416
 33
71.77148214046517
  0
3DFACE
  8
0
1001
WEBCAD
1000
E10
 10
-80.00360951033775
 20
78.56469906160197
 30
67.28198613942455
 11
19.33816920738801
 21
73.7254961807426
 31
64.02993093207073
 12
19.335203257216914
 22
78.56469906160197
 32
67.37019298197825
 13
19.335203257216914
 23
78.56469906160197
 33
67.37019298197825
  0
3DFACE
  8
0
1001
WEBCAD
1000
E10
 10
-80.00360951033775
 20
78.56469906160197
 30
67.28198613942455
 11
19.331295179306377
 21
82.46391475984416
 31
71.77148214046517
 12
-80.00751758824829
 22
82.46391475984416
 32
71.68327529791146
 13
-80.00751758824829
 23
82.46391475984416
 33
71.68327529791146
  0
3DFACE
  8
0
1001
WEBCAD
1000
E10
 10
-80.00064356016667
 20
73.7254961807426
 30
63.941724089517024
 11
19.33816920738801
 21
73.7254961807426
 31
64.02993093207073
 12
-80.00360951033775
 22
78.56469906160197
 32
67.28198613942455
 13
-80.00360951033775
 23
78.56469906160197
 33
67.28198613942455
  0
3DFACE
  8
0
1001
WEBCAD
1000
E10
 10
-79.99879211328657
 20
68.22753322908244
 30
61.85661901550705
 11
19.33816920738801
 21
73.7254961807426
 31
64.02993093207073
 12
-80.00064356016667
 22
73.7254961807426
 32
63.941724089517024
 13
-80.00064356016667
 23
73.7254961807426
 33
63.941724089517024
  0
3DFACE
  8
0
1001
WEBCAD
1000
E10
 10
-79.99879211328657
 20
68.22753322908244
 30
61.85661901550705
 11
19.340020654268105
 21
68.22753322908244
 31
61.94482585806075
 12
19.33816920738801
 22
73.7254961807426
 32
64.02993093207073
 13
19.33816920738801
 23
73.7254961807426
 33
64.02993093207073
  0
3DFACE
  8
0
1001
WEBCAD
1000
E10
 10
-79.99816277485607
 20
62.39032924959025
 30
61.14785617235559
 11
19.340020654268105
 21
68.22753322908244
 31
61.94482585806075
 12
-79.99879211328657
 22
68.22753322908244
 32
61.85661901550705
 13
-79.99879211328657
 23
68.22753322908244
 33
61.85661901550705
  0
3DFACE
  8
0
1001
WEBCAD
1000
E10
 10
-79.99816277485607
 20
62.39032924959025
 30
61.14785617235559
 11
19.340649992698594
 21
62.39032924959025
 31
61.23606301490929
 12
19.340020654268105
 22
68.22753322908244
 32
61.94482585806075
 13
19.340020654268105
 23
68.22753322908244
 33
61.94482585806075
  0
3DFACE
  8
0
1001
WEBCAD
1000
E10
 10
-79.99816277485607
 20
62.39032924959025
 30
61.14785617235559
 11
19.340020654268105
 21
56.55312908479533
 31
61.94482585806075
 12
19.340649992698594
 22
62.39032924959025
 32
61.23606301490929
 13
19.340649992698594
 23
62.39032924959025
 33
61.23606301490929
  0
3DFACE
  8
0
1001
WEBCAD
1000
E10
 10
-79.99879211328657
 20
56.55312908479533
 30
61.85661901550705
 11
19.340020654268105
 21
56.55312908479533
 31
61.94482585806075
 12
-79.99816277485607
 22
62.39032924959025
 32
61.14785617235559
 13
-79.99816277485607
 23
62.39032924959025
 33
61.14785617235559
  0
3DFACE
  8
0
1001
WEBCAD
1000
E10
 10
-80.00064356016667
 20
51.055166133135174
 30
63.941724089517024
 11
19.340020654268105
 21
56.55312908479533
 31
61.94482585806075
 12
-79.99879211328657
 22
56.55312908479533
 32
61.85661901550705
 13
-79.99879211328657
 23
56.55312908479533
 33
61.85661901550705
  0
3DFACE
  8
0
1001
WEBCAD
1000
E10
 10
-80.00064356016667
 20
51.055166133135174
 30
63.941724089517024
 11
19.33816920738801
 21
51.055166133135174
 31
64.02993093207073
 12
19.340020654268105
 22
56.55312908479533
 32
61.94482585806075
 13
19.340020654268105
 23
56.55312908479533
 33
61.94482585806075
  0
3DFACE
  8
0
1001
WEBCAD
1000
E10
 10
-80.00064356016667
 20
51.055166133135174
 30
63.941724089517024
 11
19.335203257216914
 21
46.21595943757853
 31
67.37019298197825
 12
19.33816920738801
 22
51.055166133135174
 32
64.02993093207073
 13
19.33816920738801
 23
51.055166133135174
 33
64.02993093207073
  0
3DFACE
  8
0
1001
WEBCAD
1000
E10
 10
-80.00360951033775
 20
46.21595943757853
 30
67.28198613942455
 11
19.335203257216914
 21
46.21595943757853
 31
67.37019298197825
 12
-80.00064356016667
 22
51.055166133135174
 32
63.941724089517024
 13
-80.00064356016667
 23
51.055166133135174
 33
63.941724089517024
  0
3DFACE
  8
0
1001
WEBCAD
1000
E10
 10
-80.00751758824829
 20
42.31675136873088
 30
71.68327529791146
 11
19.335203257216914
 21
46.21595943757853
 31
67.37019298197825
 12
-80.00360951033775
 22
46.21595943757853
 32
67.28198613942455
 13
-80.00360951033775
 23
46.21595943757853
 33
67.28198613942455
  0
3DFACE
  8
0
1001
WEBCAD
1000
E10
 10
-80.00751758824829
 20
42.31675136873088
 30
71.68327529791146
 11
19.331295179306377
 21
42.31675136873088
 31
71.77148214046517
 12
19.335203257216914
 22
46.21595943757853
 32
67.37019298197825
 13
19.335203257216914
 23
46.21595943757853
 33
67.37019298197825
  0
3DFACE
  8
0
1001
WEBCAD
1000
E10
 10
-80.00751758824829
 20
42.31675136873088
 30
71.68327529791146
 11
19.326672079885135
 21
39.58414257356486
 31
76.97803068609412
 12
19.331295179306377
 22
42.31675136873088
 32
71.77148214046517
 13
19.331295179306377
 23
42.31675136873088
 33
71.77148214046517
  0
3DFACE
  8
0
1001
WEBCAD
1000
E10
 10
-80.01214068766954
 20
39.58414257356486
 30
76.88982384354041
 11
19.326672079885135
 21
39.58414257356486
 31
76.97803068609412
 12
-80.00751758824829
 22
42.31675136873088
 32
71.68327529791146
 13
-80.00751758824829
 23
42.31675136873088
 33
71.68327529791146
  0
3DFACE
  8
0
1001
WEBCAD
1000
E10
 10
-80.01214068766954
 20
39.58414257356486
 30
76.88982384354041
 11
19.321602653451176
 21
38.17695034334025
 31
82.6872340628643
 12
19.326672079885135
 22
39.58414257356486
 32
76.97803068609412
 13
19.326672079885135
 23
39.58414257356486
 33
76.97803068609412
  0
3DFACE
  8
0
1001
WEBCAD
1000
E10
 10
-80.01721011410349
 20
38.17695034334025
 30
82.5990272203106
 11
19.321602653451176
 21
38.17695034334025
 31
82.6872340628643
 12
-80.01214068766954
 22
39.58414257356486
 32
76.88982384354041
 13
-80.01214068766954
 23
39.58414257356486
 33
76.88982384354041
  0
3DFACE
  8
0
1001
WEBCAD
1000
E10
 10
-80.02243126083034
 20
38.17695034334025
 30
88.47909844964349
 11
19.321602653451176
 21
38.17695034334025
 31
82.6872340628643
 12
-80.01721011410349
 22
38.17695034334025
 32
82.5990272203106
 13
-80.01721011410349
 23
38.17695034334025
 33
82.5990272203106
  0
3DFACE
  8
0
1001
WEBCAD
1000
E10
 10
-80.02243126083034
 20
38.17695034334025
 30
88.47909844964349
 11
19.31638150672433
 21
38.17695034334025
 31
88.56730529219719
 12
19.321602653451176
 22
38.17695034334025
 32
82.6872340628643
 13
19.321602653451176
 23
38.17695034334025
 33
82.6872340628643
  0
3DFACE
  8
0
1001
WEBCAD
1000
E10
 10
-80.02750069403874
 20
39.58414257356486
 30
94.18830945580521
 11
19.31638150672433
 21
38.17695034334025
 31
88.56730529219719
 12
-80.02243126083034
 22
38.17695034334025
 32
88.47909844964349
 13
-80.02243126083034
 23
38.17695034334025
 33
88.47909844964349
  0
3DFACE
  8
0
1001
WEBCAD
1000
E10
 10
-80.02750069403874
 20
39.58414257356486
 30
94.18830945580521
 11
19.311312073515932
 21
39.58414257356486
 31
94.27651629835891
 12
19.31638150672433
 22
38.17695034334025
 32
88.56730529219719
 13
19.31638150672433
 23
38.17695034334025
 33
88.56730529219719
  0
3DFACE
  8
0
1001
WEBCAD
1000
E10
 10
-80.02750069403874
 20
39.58414257356486
 30
94.18830945580521
 11
19.30668898086913
 21
42.31675136873088
 31
99.48305721459634
 12
19.311312073515932
 22
39.58414257356486
 32
94.27651629835891
 13
19.311312073515932
 23
39.58414257356486
 33
94.27651629835891
  0
3DFACE
  8
0
1001
WEBCAD
1000
E10
 10
-80.03212378668555
 20
42.31675136873088
 30
99.39485037204264
 11
19.30668898086913
 21
42.31675136873088
 31
99.48305721459634
 12
-80.02750069403874
 22
39.58414257356486
 32
94.18830945580521
 13
-80.02750069403874
 23
39.58414257356486
 33
94.18830945580521
  0
3DFACE
  8
0
1001
WEBCAD
1000
E10
 10
-80.03603187137051
 20
46.21595943757853
 30
103.79614715992108
 11
19.30668898086913
 21
42.31675136873088
 31
99.48305721459634
 12
-80.03212378668555
 22
42.31675136873088
 32
99.39485037204264
 13
-80.03212378668555
 23
42.31675136873088
 33
99.39485037204264
  0
3DFACE
  8
0
1001
WEBCAD
1000
E10
 10
-80.03603187137051
 20
46.21595943757853
 30
103.79614715992108
 11
19.302780896184153
 21
46.21595943757853
 31
103.88435400247478
 12
19.30668898086913
 22
42.31675136873088
 32
99.48305721459634
 13
19.30668898086913
 23
42.31675136873088
 33
99.48305721459634
  0
3DFACE
  8
0
1001
WEBCAD
1000
E10
 10
-80.03603187137051
 20
46.21595943757853
 30
103.79614715992108
 11
19.299814946013058
 21
51.055166133135174
 31
107.2246160523823
 12
19.302780896184153
 22
46.21595943757853
 32
103.88435400247478
 13
19.302780896184153
 23
46.21595943757853
 33
103.88435400247478
  0
3DFACE
  8
0
1001
WEBCAD
1000
E10
 10
-80.03899782154161
 20
51.055166133135174
 30
107.1364092098286
 11
19.299814946013058
 21
51.055166133135174
 31
107.2246160523823
 12
-80.03603187137051
 22
46.21595943757853
 32
103.79614715992108
 13
-80.03603187137051
 23
46.21595943757853
 33
103.79614715992108
  0
3DFACE
  8
0
1001
WEBCAD
1000
E10
 10
-80.03899782154161
 20
51.055166133135174
 30
107.1364092098286
 11
19.297963499132962
 21
56.55312908479533
 31
109.30972112639226
 12
19.299814946013058
 22
51.055166133135174
 32
107.2246160523823
 13
19.299814946013058
 23
51.055166133135174
 33
107.2246160523823
  0
3DFACE
  8
0
1001
WEBCAD
1000
E10
 10
-80.04084926842171
 20
56.55312908479533
 30
109.22151428383856
 11
19.297963499132962
 21
56.55312908479533
 31
109.30972112639226
 12
-80.03899782154161
 22
51.055166133135174
 32
107.1364092098286
 13
-80.03899782154161
 23
51.055166133135174
 33
107.1364092098286
  0
3DFACE
  8
0
1001
WEBCAD
1000
E10
 10
-80.0414786068522
 20
62.39032924959025
 30
109.93027712699003
 11
19.297334160702473
 21
62.39032924959025
 31
110.01848396954374
 12
19.297963499132962
 22
56.55312908479533
 32
109.30972112639226
 13
19.297963499132962
 23
56.55312908479533
 33
109.30972112639226
  0
3DFACE
  8
0
1001
WEBCAD
1000
E10
 10
-80.0414786068522
 20
62.39032924959025
 30
109.93027712699003
 11
19.297963499132962
 21
56.55312908479533
 31
109.30972112639226
 12
-80.04084926842171
 22
56.55312908479533
 32
109.22151428383856
 13
-80.04084926842171
 23
56.55312908479533
 33
109.22151428383856
  0
3DFACE
  8
0
1001
WEBCAD
1000
E10
 10
-79.99816277485607
 20
62.39032924959025
 30
61.14785617235559
 11
-80.00064356016667
 21
51.055166133135174
 31
63.941724089517024
 12
-79.99879211328657
 22
56.55312908479533
 32
61.85661901550705
 13
-79.99879211328657
 23
56.55312908479533
 33
61.85661901550705
  0
3DFACE
  8
0
1001
WEBCAD
1000
E10
 10
-79.99816277485607
 20
62.39032924959025
 30
61.14785617235559
 11
-80.00360951033775
 21
46.21595943757853
 31
67.28198613942455
 12
-80.00064356016667
 22
51.055166133135174
 32
63.941724089517024
 13
-80.00064356016667
 23
51.055166133135174
 33
63.941724089517024
  0
3DFACE
  8
0
1001
WEBCAD
1000
E10
 10
-80.02243126083034
 20
38.17695034334025
 30
88.47909844964349
 11
-80.00751758824829
 21
42.31675136873088
 31
71.68327529791146
 12
-80.00360951033775
 22
46.21595943757853
 32
67.28198613942455
 13
-80.00360951033775
 23
46.21595943757853
 33
67.28198613942455
  0
3DFACE
  8
0
1001
WEBCAD
1000
E10
 10
-80.02243126083034
 20
38.17695034334025
 30
88.47909844964349
 11
-80.01214068766954
 21
39.58414257356486
 31
76.88982384354041
 12
-80.00751758824829
 22
42.31675136873088
 32
71.68327529791146
 13
-80.00751758824829
 23
42.31675136873088
 33
71.68327529791146
  0
3DFACE
  8
0
1001
WEBCAD
1000
E10
 10
-80.02243126083034
 20
38.17695034334025
 30
88.47909844964349
 11
-80.01721011410349
 21
38.17695034334025
 31
82.5990272203106
 12
-80.01214068766954
 22
39.58414257356486
 32
76.88982384354041
 13
-80.01214068766954
 23
39.58414257356486
 33
76.88982384354041
  0
3DFACE
  8
0
1001
WEBCAD
1000
E10
 10
-80.00064356016667
 20
73.7254961807426
 30
63.941724089517024
 11
-79.99816277485607
 21
62.39032924959025
 31
61.14785617235559
 12
-79.99879211328657
 22
68.22753322908244
 32
61.85661901550705
 13
-79.99879211328657
 23
68.22753322908244
 33
61.85661901550705
  0
3DFACE
  8
0
1001
WEBCAD
1000
E10
 10
-80.03212378668555
 20
42.31675136873088
 30
99.39485037204264
 11
-80.02750069403874
 21
39.58414257356486
 31
94.18830945580521
 12
-80.02243126083034
 22
38.17695034334025
 32
88.47909844964349
 13
-80.02243126083034
 23
38.17695034334025
 33
88.47909844964349
  0
3DFACE
  8
0
1001
WEBCAD
1000
E10
 10
-80.00751758824829
 20
82.46391475984416
 30
71.68327529791146
 11
-80.00064356016667
 21
73.7254961807426
 31
63.941724089517024
 12
-80.00360951033775
 22
78.56469906160197
 32
67.28198613942455
 13
-80.00360951033775
 23
78.56469906160197
 33
67.28198613942455
  0
3DFACE
  8
0
1001
WEBCAD
1000
E10
 10
-80.01214068766954
 20
85.19651974031291
 30
76.88982384354041
 11
-79.99816277485607
 21
62.39032924959025
 31
61.14785617235559
 12
-80.00064356016667
 22
73.7254961807426
 32
63.941724089517024
 13
-80.00064356016667
 23
73.7254961807426
 33
63.941724089517024
  0
3DFACE
  8
0
1001
WEBCAD
1000
E10
 10
-80.01214068766954
 20
85.19651974031291
 30
76.88982384354041
 11
-80.00064356016667
 21
73.7254961807426
 31
63.941724089517024
 12
-80.00751758824829
 22
82.46391475984416
 32
71.68327529791146
 13
-80.00751758824829
 23
82.46391475984416
 33
71.68327529791146
  0
3DFACE
  8
0
1001
WEBCAD
1000
E10
 10
-80.04084926842171
 20
56.55312908479533
 30
109.22151428383856
 11
-80.03603187137051
 21
46.21595943757853
 31
103.79614715992108
 12
-80.03212378668555
 22
42.31675136873088
 32
99.39485037204264
 13
-80.03212378668555
 23
42.31675136873088
 33
99.39485037204264
  0
3DFACE
  8
0
1001
WEBCAD
1000
E10
 10
-80.04084926842171
 20
56.55312908479533
 30
109.22151428383856
 11
-80.03899782154161
 21
51.055166133135174
 31
107.1364092098286
 12
-80.03603187137051
 22
46.21595943757853
 32
103.79614715992108
 13
-80.03603187137051
 23
46.21595943757853
 33
103.79614715992108
  0
3DFACE
  8
0
1001
WEBCAD
1000
E10
 10
-80.04084926842171
 20
56.55312908479533
 30
109.22151428383856
 11
-80.03212378668555
 21
42.31675136873088
 31
99.39485037204264
 12
-80.02243126083034
 22
38.17695034334025
 32
88.47909844964349
 13
-80.02243126083034
 23
38.17695034334025
 33
88.47909844964349
  0
3DFACE
  8
0
1001
WEBCAD
1000
E10
 10
-80.02243126083034
 20
86.60370815584025
 30
88.47909844964349
 11
-80.01214068766954
 21
85.19651974031291
 31
76.88982384354041
 12
-80.01721011410349
 22
86.60370815584025
 32
82.5990272203106
 13
-80.01721011410349
 23
86.60370815584025
 33
82.5990272203106
  0
3DFACE
  8
0
1001
WEBCAD
1000
E10
 10
-80.04084926842171
 20
68.22753322908244
 30
109.22151428383856
 11
-80.0414786068522
 21
62.39032924959025
 31
109.93027712699003
 12
-80.04084926842171
 22
56.55312908479533
 32
109.22151428383856
 13
-80.04084926842171
 23
56.55312908479533
 33
109.22151428383856
  0
3DFACE
  8
0
1001
WEBCAD
1000
E10
 10
-80.04084926842171
 20
68.22753322908244
 30
109.22151428383856
 11
-80.02243126083034
 21
38.17695034334025
 31
88.47909844964349
 12
-80.00360951033775
 22
46.21595943757853
 32
67.28198613942455
 13
-80.00360951033775
 23
46.21595943757853
 33
67.28198613942455
  0
3DFACE
  8
0
1001
WEBCAD
1000
E10
 10
-80.04084926842171
 20
68.22753322908244
 30
109.22151428383856
 11
-80.00360951033775
 21
46.21595943757853
 31
67.28198613942455
 12
-79.99816277485607
 22
62.39032924959025
 32
61.14785617235559
 13
-79.99816277485607
 23
62.39032924959025
 33
61.14785617235559
  0
3DFACE
  8
0
1001
WEBCAD
1000
E10
 10
-80.04084926842171
 20
68.22753322908244
 30
109.22151428383856
 11
-80.04084926842171
 21
56.55312908479533
 31
109.22151428383856
 12
-80.02243126083034
 22
38.17695034334025
 32
88.47909844964349
 13
-80.02243126083034
 23
38.17695034334025
 33
88.47909844964349
  0
3DFACE
  8
0
1001
WEBCAD
1000
E10
 10
-80.02750069403874
 20
85.19651974031291
 30
94.18830945580521
 11
-80.01214068766954
 21
85.19651974031291
 31
76.88982384354041
 12
-80.02243126083034
 22
86.60370815584025
 32
88.47909844964349
 13
-80.02243126083034
 23
86.60370815584025
 33
88.47909844964349
  0
3DFACE
  8
0
1001
WEBCAD
1000
E10
 10
-80.03603187137051
 20
78.56469906160197
 30
103.79614715992108
 11
-80.03899782154161
 21
73.7254961807426
 31
107.1364092098286
 12
-80.04084926842171
 22
68.22753322908244
 32
109.22151428383856
 13
-80.04084926842171
 23
68.22753322908244
 33
109.22151428383856
  0
3DFACE
  8
0
1001
WEBCAD
1000
E10
 10
-80.03603187137051
 20
78.56469906160197
 30
103.79614715992108
 11
-80.02750069403874
 21
85.19651974031291
 31
94.18830945580521
 12
-80.03212378668555
 22
82.46391475984416
 32
99.39485037204264
 13
-80.03212378668555
 23
82.46391475984416
 33
99.39485037204264
  0
3DFACE
  8
0
1001
WEBCAD
1000
E10
 10
-80.03603187137051
 20
78.56469906160197
 30
103.79614715992108
 11
-79.99816277485607
 21
62.39032924959025
 31
61.14785617235559
 12
-80.01214068766954
 22
85.19651974031291
 32
76.88982384354041
 13
-80.01214068766954
 23
85.19651974031291
 33
76.88982384354041
  0
3DFACE
  8
0
1001
WEBCAD
1000
E10
 10
-80.03603187137051
 20
78.56469906160197
 30
103.79614715992108
 11
-80.04084926842171
 21
68.22753322908244
 31
109.22151428383856
 12
-79.99816277485607
 22
62.39032924959025
 32
61.14785617235559
 13
-79.99816277485607
 23
62.39032924959025
 33
61.14785617235559
  0
3DFACE
  8
0
1001
WEBCAD
1000
E10
 10
-80.03603187137051
 20
78.56469906160197
 30
103.79614715992108
 11
-80.01214068766954
 21
85.19651974031291
 31
76.88982384354041
 12
-80.02750069403874
 22
85.19651974031291
 32
94.18830945580521
 13
-80.02750069403874
 23
85.19651974031291
 33
94.18830945580521
  0
ENDSEC
  0
EOF
