  0
SECTION
  2
HEADER
  9
$ACADVER
  1
AC1015
  0
ENDSEC
  0
SECTION
  2
TABLES
  0
TABLE
  2
LTYPE
 70
1
  0
LTYPE
  2
CONTINUOUS
 70
0
  3
Solid line
 72
65
 73
0
 40
0.0
  0
ENDTAB
  0
TABLE
  2
LAYER
 70
4
  0
LAYER
  2
0
 70
0
 62
7
  6
CONTINUOUS
  0
LAYER
  2
1
 70
0
 62
7
  6
CONTINUOUS
  0
LAYER
  2
2
 70
0
 62
4
  6
CONTINUOUS
  0
LAYER
  2
01
 70
0
 62
3
  6
DASHDOT
  0
ENDTAB
  0
ENDSEC
  0
SECTION
  2
BLOCKS
  0
ENDSEC
  0
SECTION
  2
ENTITIES
  0
3DFACE
  8
0
1001
WEBCAD
1000
E2
 10
75.23127746582031
 20
-19.600006103515625
 30
100
 11
75.23127746582031
 21
104.39997863769531
 31
0
 12
75.23127746582031
 22
-19.600006103515625
 32
0
 13
75.23127746582031
 23
-19.600006103515625
 33
0
  0
3DFACE
  8
0
1001
WEBCAD
1000
E2
 10
75.23127746582031
 20
-19.600006103515625
 30
100
 11
75.23127746582031
 21
104.39997863769531
 31
100
 12
75.23127746582031
 22
104.39997863769531
 32
0
 13
75.23127746582031
 23
104.39997863769531
 33
0
  0
3DFACE
  8
0
1001
WEBCAD
1000
E2
 10
200.4312286376953
 20
-19.600006103515625
 30
100
 11
75.23127746582031
 21
-19.600006103515625
 31
0
 12
200.4312286376953
 22
-19.600006103515625
 32
0
 13
200.4312286376953
 23
-19.600006103515625
 33
0
  0
3DFACE
  8
0
1001
WEBCAD
1000
E2
 10
200.4312286376953
 20
-19.600006103515625
 30
100
 11
75.23127746582031
 21
-19.600006103515625
 31
100
 12
75.23127746582031
 22
-19.600006103515625
 32
0
 13
75.23127746582031
 23
-19.600006103515625
 33
0
  0
3DFACE
  8
0
1001
WEBCAD
1000
E2
 10
127.0285415649414
 20
21.561786651611328
 30
100
 11
122.44307708740234
 21
25.62415313720703
 31
100
 12
75.23127746582031
 22
-19.600006103515625
 32
100
 13
75.23127746582031
 23
-19.600006103515625
 33
100
  0
3DFACE
  8
0
1001
WEBCAD
1000
E2
 10
118.96304321289062
 20
30.665847778320312
 30
100
 11
75.23127746582031
 21
-19.600006103515625
 31
100
 12
122.44307708740234
 22
25.62415313720703
 32
100
 13
122.44307708740234
 23
25.62415313720703
 33
100
  0
3DFACE
  8
0
1001
WEBCAD
1000
E2
 10
132.45294189453125
 20
18.714839935302734
 30
100
 11
127.0285415649414
 21
21.561786651611328
 31
100
 12
75.23127746582031
 22
-19.600006103515625
 32
100
 13
75.23127746582031
 23
-19.600006103515625
 33
100
  0
3DFACE
  8
0
1001
WEBCAD
1000
E2
 10
116.79069519042969
 20
36.393863677978516
 30
100
 11
75.23127746582031
 21
-19.600006103515625
 31
100
 12
118.96304321289062
 22
30.665847778320312
 32
100
 13
118.96304321289062
 23
30.665847778320312
 33
100
  0
3DFACE
  8
0
1001
WEBCAD
1000
E2
 10
138.4010467529297
 20
17.248764038085938
 30
100
 11
132.45294189453125
 21
18.714839935302734
 31
100
 12
75.23127746582031
 22
-19.600006103515625
 32
100
 13
75.23127746582031
 23
-19.600006103515625
 33
100
  0
3DFACE
  8
0
1001
WEBCAD
1000
E2
 10
116.05227661132812
 20
42.47531509399414
 30
100
 11
75.23127746582031
 21
-19.600006103515625
 31
100
 12
116.79069519042969
 22
36.393863677978516
 32
100
 13
116.79069519042969
 23
36.393863677978516
 33
100
  0
3DFACE
  8
0
1001
WEBCAD
1000
E2
 10
75.23127746582031
 20
104.39997863769531
 30
100
 11
116.79069519042969
 21
48.5567626953125
 31
100
 12
118.96304321289062
 22
54.2847785949707
 32
100
 13
118.96304321289062
 23
54.2847785949707
 33
100
  0
3DFACE
  8
0
1001
WEBCAD
1000
E2
 10
75.23127746582031
 20
104.39997863769531
 30
100
 11
116.05227661132812
 21
42.47531509399414
 31
100
 12
116.79069519042969
 22
48.5567626953125
 32
100
 13
116.79069519042969
 23
48.5567626953125
 33
100
  0
3DFACE
  8
0
1001
WEBCAD
1000
E2
 10
75.23127746582031
 20
104.39997863769531
 30
100
 11
75.23127746582031
 21
-19.600006103515625
 31
100
 12
116.05227661132812
 22
42.47531509399414
 32
100
 13
116.05227661132812
 23
42.47531509399414
 33
100
  0
3DFACE
  8
0
1001
WEBCAD
1000
E2
 10
200.4312286376953
 20
-19.600006103515625
 30
100
 11
144.52716064453125
 21
17.248764038085938
 31
100
 12
138.4010467529297
 22
17.248764038085938
 32
100
 13
138.4010467529297
 23
17.248764038085938
 33
100
  0
3DFACE
  8
0
1001
WEBCAD
1000
E2
 10
200.4312286376953
 20
-19.600006103515625
 30
100
 11
150.4752655029297
 21
18.714839935302734
 31
100
 12
144.52716064453125
 22
17.248764038085938
 32
100
 13
144.52716064453125
 23
17.248764038085938
 33
100
  0
3DFACE
  8
0
1001
WEBCAD
1000
E2
 10
200.4312286376953
 20
-19.600006103515625
 30
100
 11
155.89967346191406
 21
21.561786651611328
 31
100
 12
150.4752655029297
 22
18.714839935302734
 32
100
 13
150.4752655029297
 23
18.714839935302734
 33
100
  0
3DFACE
  8
0
1001
WEBCAD
1000
E2
 10
200.4312286376953
 20
-19.600006103515625
 30
100
 11
138.4010467529297
 21
17.248764038085938
 31
100
 12
75.23127746582031
 22
-19.600006103515625
 32
100
 13
75.23127746582031
 23
-19.600006103515625
 33
100
  0
3DFACE
  8
0
1001
WEBCAD
1000
E2
 10
122.44307708740234
 20
59.326473236083984
 30
100
 11
75.23127746582031
 21
104.39997863769531
 31
100
 12
118.96304321289062
 22
54.2847785949707
 32
100
 13
118.96304321289062
 23
54.2847785949707
 33
100
  0
3DFACE
  8
0
1001
WEBCAD
1000
E2
 10
160.48513793945312
 20
25.62415313720703
 30
100
 11
155.89967346191406
 21
21.561786651611328
 31
100
 12
200.4312286376953
 22
-19.600006103515625
 32
100
 13
200.4312286376953
 23
-19.600006103515625
 33
100
  0
3DFACE
  8
0
1001
WEBCAD
1000
E2
 10
127.0285415649414
 20
63.38883972167969
 30
100
 11
75.23127746582031
 21
104.39997863769531
 31
100
 12
122.44307708740234
 22
59.326473236083984
 32
100
 13
122.44307708740234
 23
59.326473236083984
 33
100
  0
3DFACE
  8
0
1001
WEBCAD
1000
E2
 10
163.9651641845703
 20
30.665847778320312
 30
100
 11
160.48513793945312
 21
25.62415313720703
 31
100
 12
200.4312286376953
 22
-19.600006103515625
 32
100
 13
200.4312286376953
 23
-19.600006103515625
 33
100
  0
3DFACE
  8
0
1001
WEBCAD
1000
E2
 10
132.45294189453125
 20
66.23578643798828
 30
100
 11
75.23127746582031
 21
104.39997863769531
 31
100
 12
127.0285415649414
 22
63.38883972167969
 32
100
 13
127.0285415649414
 23
63.38883972167969
 33
100
  0
3DFACE
  8
0
1001
WEBCAD
1000
E2
 10
166.13751220703125
 20
36.393863677978516
 30
100
 11
163.9651641845703
 21
30.665847778320312
 31
100
 12
200.4312286376953
 22
-19.600006103515625
 32
100
 13
200.4312286376953
 23
-19.600006103515625
 33
100
  0
3DFACE
  8
0
1001
WEBCAD
1000
E2
 10
138.4010467529297
 20
67.70186614990234
 30
100
 11
75.23127746582031
 21
104.39997863769531
 31
100
 12
132.45294189453125
 22
66.23578643798828
 32
100
 13
132.45294189453125
 23
66.23578643798828
 33
100
  0
3DFACE
  8
0
1001
WEBCAD
1000
E2
 10
166.8759307861328
 20
42.47531509399414
 30
100
 11
166.13751220703125
 21
36.393863677978516
 31
100
 12
200.4312286376953
 22
-19.600006103515625
 32
100
 13
200.4312286376953
 23
-19.600006103515625
 33
100
  0
3DFACE
  8
0
1001
WEBCAD
1000
E2
 10
200.4312286376953
 20
104.39997863769531
 30
100
 11
166.13751220703125
 21
48.5567626953125
 31
100
 12
166.8759307861328
 22
42.47531509399414
 32
100
 13
166.8759307861328
 23
42.47531509399414
 33
100
  0
3DFACE
  8
0
1001
WEBCAD
1000
E2
 10
200.4312286376953
 20
104.39997863769531
 30
100
 11
163.9651641845703
 21
54.2847785949707
 31
100
 12
166.13751220703125
 22
48.5567626953125
 32
100
 13
166.13751220703125
 23
48.5567626953125
 33
100
  0
3DFACE
  8
0
1001
WEBCAD
1000
E2
 10
200.4312286376953
 20
104.39997863769531
 30
100
 11
160.48513793945312
 21
59.326473236083984
 31
100
 12
163.9651641845703
 22
54.2847785949707
 32
100
 13
163.9651641845703
 23
54.2847785949707
 33
100
  0
3DFACE
  8
0
1001
WEBCAD
1000
E2
 10
200.4312286376953
 20
104.39997863769531
 30
100
 11
155.89967346191406
 21
63.38883972167969
 31
100
 12
160.48513793945312
 22
59.326473236083984
 32
100
 13
160.48513793945312
 23
59.326473236083984
 33
100
  0
3DFACE
  8
0
1001
WEBCAD
1000
E2
 10
200.4312286376953
 20
104.39997863769531
 30
100
 11
150.4752655029297
 21
66.23578643798828
 31
100
 12
155.89967346191406
 22
63.38883972167969
 32
100
 13
155.89967346191406
 23
63.38883972167969
 33
100
  0
3DFACE
  8
0
1001
WEBCAD
1000
E2
 10
200.4312286376953
 20
104.39997863769531
 30
100
 11
144.52716064453125
 21
67.70186614990234
 31
100
 12
150.4752655029297
 22
66.23578643798828
 32
100
 13
150.4752655029297
 23
66.23578643798828
 33
100
  0
3DFACE
  8
0
1001
WEBCAD
1000
E2
 10
200.4312286376953
 20
104.39997863769531
 30
100
 11
138.4010467529297
 21
67.70186614990234
 31
100
 12
144.52716064453125
 22
67.70186614990234
 32
100
 13
144.52716064453125
 23
67.70186614990234
 33
100
  0
3DFACE
  8
0
1001
WEBCAD
1000
E2
 10
200.4312286376953
 20
104.39997863769531
 30
100
 11
75.23127746582031
 21
104.39997863769531
 31
100
 12
138.4010467529297
 22
67.70186614990234
 32
100
 13
138.4010467529297
 23
67.70186614990234
 33
100
  0
3DFACE
  8
0
1001
WEBCAD
1000
E2
 10
200.4312286376953
 20
104.39997863769531
 30
100
 11
166.8759307861328
 21
42.47531509399414
 31
100
 12
200.4312286376953
 22
-19.600006103515625
 32
100
 13
200.4312286376953
 23
-19.600006103515625
 33
100
  0
3DFACE
  8
0
1001
WEBCAD
1000
E2
 10
200.4312286376953
 20
104.39997863769531
 30
100
 11
200.4312286376953
 21
104.39997863769531
 31
0
 12
75.23127746582031
 22
104.39997863769531
 32
0
 13
75.23127746582031
 23
104.39997863769531
 33
0
  0
3DFACE
  8
0
1001
WEBCAD
1000
E2
 10
200.4312286376953
 20
104.39997863769531
 30
100
 11
75.23127746582031
 21
104.39997863769531
 31
0
 12
75.23127746582031
 22
104.39997863769531
 32
100
 13
75.23127746582031
 23
104.39997863769531
 33
100
  0
3DFACE
  8
0
1001
WEBCAD
1000
E2
 10
127.0285415649414
 20
21.561786651611328
 30
0
 11
75.23127746582031
 21
-19.600006103515625
 31
0
 12
122.44307708740234
 22
25.62415313720703
 32
0
 13
122.44307708740234
 23
25.62415313720703
 33
0
  0
3DFACE
  8
0
1001
WEBCAD
1000
E2
 10
118.96304321289062
 20
30.665847778320312
 30
0
 11
122.44307708740234
 21
25.62415313720703
 31
0
 12
75.23127746582031
 22
-19.600006103515625
 32
0
 13
75.23127746582031
 23
-19.600006103515625
 33
0
  0
3DFACE
  8
0
1001
WEBCAD
1000
E2
 10
132.45294189453125
 20
18.714839935302734
 30
0
 11
75.23127746582031
 21
-19.600006103515625
 31
0
 12
127.0285415649414
 22
21.561786651611328
 32
0
 13
127.0285415649414
 23
21.561786651611328
 33
0
  0
3DFACE
  8
0
1001
WEBCAD
1000
E2
 10
116.79069519042969
 20
36.393863677978516
 30
0
 11
118.96304321289062
 21
30.665847778320312
 31
0
 12
75.23127746582031
 22
-19.600006103515625
 32
0
 13
75.23127746582031
 23
-19.600006103515625
 33
0
  0
3DFACE
  8
0
1001
WEBCAD
1000
E2
 10
138.4010467529297
 20
17.248764038085938
 30
0
 11
75.23127746582031
 21
-19.600006103515625
 31
0
 12
132.45294189453125
 22
18.714839935302734
 32
0
 13
132.45294189453125
 23
18.714839935302734
 33
0
  0
3DFACE
  8
0
1001
WEBCAD
1000
E2
 10
116.05227661132812
 20
42.47531509399414
 30
0
 11
116.79069519042969
 21
36.393863677978516
 31
0
 12
75.23127746582031
 22
-19.600006103515625
 32
0
 13
75.23127746582031
 23
-19.600006103515625
 33
0
  0
3DFACE
  8
0
1001
WEBCAD
1000
E2
 10
75.23127746582031
 20
104.39997863769531
 30
0
 11
118.96304321289062
 21
54.2847785949707
 31
0
 12
116.79069519042969
 22
48.5567626953125
 32
0
 13
116.79069519042969
 23
48.5567626953125
 33
0
  0
3DFACE
  8
0
1001
WEBCAD
1000
E2
 10
75.23127746582031
 20
104.39997863769531
 30
0
 11
116.79069519042969
 21
48.5567626953125
 31
0
 12
116.05227661132812
 22
42.47531509399414
 32
0
 13
116.05227661132812
 23
42.47531509399414
 33
0
  0
3DFACE
  8
0
1001
WEBCAD
1000
E2
 10
75.23127746582031
 20
104.39997863769531
 30
0
 11
116.05227661132812
 21
42.47531509399414
 31
0
 12
75.23127746582031
 22
-19.600006103515625
 32
0
 13
75.23127746582031
 23
-19.600006103515625
 33
0
  0
3DFACE
  8
0
1001
WEBCAD
1000
E2
 10
200.4312286376953
 20
-19.600006103515625
 30
0
 11
138.4010467529297
 21
17.248764038085938
 31
0
 12
144.52716064453125
 22
17.248764038085938
 32
0
 13
144.52716064453125
 23
17.248764038085938
 33
0
  0
3DFACE
  8
0
1001
WEBCAD
1000
E2
 10
200.4312286376953
 20
-19.600006103515625
 30
0
 11
144.52716064453125
 21
17.248764038085938
 31
0
 12
150.4752655029297
 22
18.714839935302734
 32
0
 13
150.4752655029297
 23
18.714839935302734
 33
0
  0
3DFACE
  8
0
1001
WEBCAD
1000
E2
 10
200.4312286376953
 20
-19.600006103515625
 30
0
 11
150.4752655029297
 21
18.714839935302734
 31
0
 12
155.89967346191406
 22
21.561786651611328
 32
0
 13
155.89967346191406
 23
21.561786651611328
 33
0
  0
3DFACE
  8
0
1001
WEBCAD
1000
E2
 10
200.4312286376953
 20
-19.600006103515625
 30
0
 11
75.23127746582031
 21
-19.600006103515625
 31
0
 12
138.4010467529297
 22
17.248764038085938
 32
0
 13
138.4010467529297
 23
17.248764038085938
 33
0
  0
3DFACE
  8
0
1001
WEBCAD
1000
E2
 10
122.44307708740234
 20
59.326473236083984
 30
0
 11
118.96304321289062
 21
54.2847785949707
 31
0
 12
75.23127746582031
 22
104.39997863769531
 32
0
 13
75.23127746582031
 23
104.39997863769531
 33
0
  0
3DFACE
  8
0
1001
WEBCAD
1000
E2
 10
160.48513793945312
 20
25.62415313720703
 30
0
 11
200.4312286376953
 21
-19.600006103515625
 31
0
 12
155.89967346191406
 22
21.561786651611328
 32
0
 13
155.89967346191406
 23
21.561786651611328
 33
0
  0
3DFACE
  8
0
1001
WEBCAD
1000
E2
 10
127.0285415649414
 20
63.38883972167969
 30
0
 11
122.44307708740234
 21
59.326473236083984
 31
0
 12
75.23127746582031
 22
104.39997863769531
 32
0
 13
75.23127746582031
 23
104.39997863769531
 33
0
  0
3DFACE
  8
0
1001
WEBCAD
1000
E2
 10
163.9651641845703
 20
30.665847778320312
 30
0
 11
200.4312286376953
 21
-19.600006103515625
 31
0
 12
160.48513793945312
 22
25.62415313720703
 32
0
 13
160.48513793945312
 23
25.62415313720703
 33
0
  0
3DFACE
  8
0
1001
WEBCAD
1000
E2
 10
132.45294189453125
 20
66.23578643798828
 30
0
 11
127.0285415649414
 21
63.38883972167969
 31
0
 12
75.23127746582031
 22
104.39997863769531
 32
0
 13
75.23127746582031
 23
104.39997863769531
 33
0
  0
3DFACE
  8
0
1001
WEBCAD
1000
E2
 10
166.13751220703125
 20
36.393863677978516
 30
0
 11
200.4312286376953
 21
-19.600006103515625
 31
0
 12
163.9651641845703
 22
30.665847778320312
 32
0
 13
163.9651641845703
 23
30.665847778320312
 33
0
  0
3DFACE
  8
0
1001
WEBCAD
1000
E2
 10
138.4010467529297
 20
67.70186614990234
 30
0
 11
132.45294189453125
 21
66.23578643798828
 31
0
 12
75.23127746582031
 22
104.39997863769531
 32
0
 13
75.23127746582031
 23
104.39997863769531
 33
0
  0
3DFACE
  8
0
1001
WEBCAD
1000
E2
 10
166.8759307861328
 20
42.47531509399414
 30
0
 11
200.4312286376953
 21
-19.600006103515625
 31
0
 12
166.13751220703125
 22
36.393863677978516
 32
0
 13
166.13751220703125
 23
36.393863677978516
 33
0
  0
3DFACE
  8
0
1001
WEBCAD
1000
E2
 10
200.4312286376953
 20
104.39997863769531
 30
0
 11
166.8759307861328
 21
42.47531509399414
 31
0
 12
166.13751220703125
 22
48.5567626953125
 32
0
 13
166.13751220703125
 23
48.5567626953125
 33
0
  0
3DFACE
  8
0
1001
WEBCAD
1000
E2
 10
200.4312286376953
 20
104.39997863769531
 30
0
 11
166.13751220703125
 21
48.5567626953125
 31
0
 12
163.9651641845703
 22
54.2847785949707
 32
0
 13
163.9651641845703
 23
54.2847785949707
 33
0
  0
3DFACE
  8
0
1001
WEBCAD
1000
E2
 10
200.4312286376953
 20
104.39997863769531
 30
0
 11
163.9651641845703
 21
54.2847785949707
 31
0
 12
160.48513793945312
 22
59.326473236083984
 32
0
 13
160.48513793945312
 23
59.326473236083984
 33
0
  0
3DFACE
  8
0
1001
WEBCAD
1000
E2
 10
200.4312286376953
 20
104.39997863769531
 30
0
 11
160.48513793945312
 21
59.326473236083984
 31
0
 12
155.89967346191406
 22
63.38883972167969
 32
0
 13
155.89967346191406
 23
63.38883972167969
 33
0
  0
3DFACE
  8
0
1001
WEBCAD
1000
E2
 10
200.4312286376953
 20
104.39997863769531
 30
0
 11
155.89967346191406
 21
63.38883972167969
 31
0
 12
150.4752655029297
 22
66.23578643798828
 32
0
 13
150.4752655029297
 23
66.23578643798828
 33
0
  0
3DFACE
  8
0
1001
WEBCAD
1000
E2
 10
200.4312286376953
 20
104.39997863769531
 30
0
 11
150.4752655029297
 21
66.23578643798828
 31
0
 12
144.52716064453125
 22
67.70186614990234
 32
0
 13
144.52716064453125
 23
67.70186614990234
 33
0
  0
3DFACE
  8
0
1001
WEBCAD
1000
E2
 10
200.4312286376953
 20
104.39997863769531
 30
0
 11
144.52716064453125
 21
67.70186614990234
 31
0
 12
138.4010467529297
 22
67.70186614990234
 32
0
 13
138.4010467529297
 23
67.70186614990234
 33
0
  0
3DFACE
  8
0
1001
WEBCAD
1000
E2
 10
200.4312286376953
 20
104.39997863769531
 30
0
 11
138.4010467529297
 21
67.70186614990234
 31
0
 12
75.23127746582031
 22
104.39997863769531
 32
0
 13
75.23127746582031
 23
104.39997863769531
 33
0
  0
3DFACE
  8
0
1001
WEBCAD
1000
E2
 10
200.4312286376953
 20
104.39997863769531
 30
0
 11
200.4312286376953
 21
-19.600006103515625
 31
0
 12
166.8759307861328
 22
42.47531509399414
 32
0
 13
166.8759307861328
 23
42.47531509399414
 33
0
  0
3DFACE
  8
0
1001
WEBCAD
1000
E2
 10
200.4312286376953
 20
-19.600006103515625
 30
100
 11
200.4312286376953
 21
-19.600006103515625
 31
0
 12
200.4312286376953
 22
104.39997863769531
 32
0
 13
200.4312286376953
 23
104.39997863769531
 33
0
  0
3DFACE
  8
0
1001
WEBCAD
1000
E2
 10
200.4312286376953
 20
-19.600006103515625
 30
100
 11
200.4312286376953
 21
104.39997863769531
 31
0
 12
200.4312286376953
 22
104.39997863769531
 32
100
 13
200.4312286376953
 23
104.39997863769531
 33
100
  0
3DFACE
  8
0
1001
WEBCAD
1000
E2
 10
166.13751220703125
 20
48.5567626953125
 30
100
 11
166.8759307861328
 21
42.47531509399414
 31
0
 12
166.8759307861328
 22
42.47531509399414
 32
100
 13
166.8759307861328
 23
42.47531509399414
 33
100
  0
3DFACE
  8
0
1001
WEBCAD
1000
E2
 10
166.13751220703125
 20
48.5567626953125
 30
100
 11
166.13751220703125
 21
48.5567626953125
 31
0
 12
166.8759307861328
 22
42.47531509399414
 32
0
 13
166.8759307861328
 23
42.47531509399414
 33
0
  0
3DFACE
  8
0
1001
WEBCAD
1000
E2
 10
163.9651641845703
 20
54.2847785949707
 30
100
 11
163.9651641845703
 21
54.2847785949707
 31
0
 12
166.13751220703125
 22
48.5567626953125
 32
0
 13
166.13751220703125
 23
48.5567626953125
 33
0
  0
3DFACE
  8
0
1001
WEBCAD
1000
E2
 10
163.9651641845703
 20
54.2847785949707
 30
100
 11
166.13751220703125
 21
48.5567626953125
 31
0
 12
166.13751220703125
 22
48.5567626953125
 32
100
 13
166.13751220703125
 23
48.5567626953125
 33
100
  0
3DFACE
  8
0
1001
WEBCAD
1000
E2
 10
160.48513793945312
 20
59.326473236083984
 30
100
 11
160.48513793945312
 21
59.326473236083984
 31
0
 12
163.9651641845703
 22
54.2847785949707
 32
0
 13
163.9651641845703
 23
54.2847785949707
 33
0
  0
3DFACE
  8
0
1001
WEBCAD
1000
E2
 10
160.48513793945312
 20
59.326473236083984
 30
100
 11
163.9651641845703
 21
54.2847785949707
 31
0
 12
163.9651641845703
 22
54.2847785949707
 32
100
 13
163.9651641845703
 23
54.2847785949707
 33
100
  0
3DFACE
  8
0
1001
WEBCAD
1000
E2
 10
155.89967346191406
 20
63.38883972167969
 30
100
 11
155.89967346191406
 21
63.38883972167969
 31
0
 12
160.48513793945312
 22
59.326473236083984
 32
0
 13
160.48513793945312
 23
59.326473236083984
 33
0
  0
3DFACE
  8
0
1001
WEBCAD
1000
E2
 10
155.89967346191406
 20
63.38883972167969
 30
100
 11
160.48513793945312
 21
59.326473236083984
 31
0
 12
160.48513793945312
 22
59.326473236083984
 32
100
 13
160.48513793945312
 23
59.326473236083984
 33
100
  0
3DFACE
  8
0
1001
WEBCAD
1000
E2
 10
150.4752655029297
 20
66.23578643798828
 30
100
 11
150.4752655029297
 21
66.23578643798828
 31
0
 12
155.89967346191406
 22
63.38883972167969
 32
0
 13
155.89967346191406
 23
63.38883972167969
 33
0
  0
3DFACE
  8
0
1001
WEBCAD
1000
E2
 10
150.4752655029297
 20
66.23578643798828
 30
100
 11
155.89967346191406
 21
63.38883972167969
 31
0
 12
155.89967346191406
 22
63.38883972167969
 32
100
 13
155.89967346191406
 23
63.38883972167969
 33
100
  0
3DFACE
  8
0
1001
WEBCAD
1000
E2
 10
144.52716064453125
 20
67.70186614990234
 30
100
 11
144.52716064453125
 21
67.70186614990234
 31
0
 12
150.4752655029297
 22
66.23578643798828
 32
0
 13
150.4752655029297
 23
66.23578643798828
 33
0
  0
3DFACE
  8
0
1001
WEBCAD
1000
E2
 10
144.52716064453125
 20
67.70186614990234
 30
100
 11
150.4752655029297
 21
66.23578643798828
 31
0
 12
150.4752655029297
 22
66.23578643798828
 32
100
 13
150.4752655029297
 23
66.23578643798828
 33
100
  0
3DFACE
  8
0
1001
WEBCAD
1000
E2
 10
138.4010467529297
 20
67.70186614990234
 30
100
 11
138.4010467529297
 21
67.70186614990234
 31
0
 12
144.52716064453125
 22
67.70186614990234
 32
0
 13
144.52716064453125
 23
67.70186614990234
 33
0
  0
3DFACE
  8
0
1001
WEBCAD
1000
E2
 10
138.4010467529297
 20
67.70186614990234
 30
100
 11
132.45294189453125
 21
66.23578643798828
 31
0
 12
138.4010467529297
 22
67.70186614990234
 32
0
 13
138.4010467529297
 23
67.70186614990234
 33
0
  0
3DFACE
  8
0
1001
WEBCAD
1000
E2
 10
138.4010467529297
 20
67.70186614990234
 30
100
 11
144.52716064453125
 21
67.70186614990234
 31
0
 12
144.52716064453125
 22
67.70186614990234
 32
100
 13
144.52716064453125
 23
67.70186614990234
 33
100
  0
3DFACE
  8
0
1001
WEBCAD
1000
E2
 10
132.45294189453125
 20
66.23578643798828
 30
100
 11
132.45294189453125
 21
66.23578643798828
 31
0
 12
138.4010467529297
 22
67.70186614990234
 32
100
 13
138.4010467529297
 23
67.70186614990234
 33
100
  0
3DFACE
  8
0
1001
WEBCAD
1000
E2
 10
127.0285415649414
 20
63.38883972167969
 30
100
 11
127.0285415649414
 21
63.38883972167969
 31
0
 12
132.45294189453125
 22
66.23578643798828
 32
0
 13
132.45294189453125
 23
66.23578643798828
 33
0
  0
3DFACE
  8
0
1001
WEBCAD
1000
E2
 10
127.0285415649414
 20
63.38883972167969
 30
100
 11
132.45294189453125
 21
66.23578643798828
 31
0
 12
132.45294189453125
 22
66.23578643798828
 32
100
 13
132.45294189453125
 23
66.23578643798828
 33
100
  0
3DFACE
  8
0
1001
WEBCAD
1000
E2
 10
122.44307708740234
 20
59.326473236083984
 30
100
 11
122.44307708740234
 21
59.326473236083984
 31
0
 12
127.0285415649414
 22
63.38883972167969
 32
0
 13
127.0285415649414
 23
63.38883972167969
 33
0
  0
3DFACE
  8
0
1001
WEBCAD
1000
E2
 10
122.44307708740234
 20
59.326473236083984
 30
100
 11
127.0285415649414
 21
63.38883972167969
 31
0
 12
127.0285415649414
 22
63.38883972167969
 32
100
 13
127.0285415649414
 23
63.38883972167969
 33
100
  0
3DFACE
  8
0
1001
WEBCAD
1000
E2
 10
118.96304321289062
 20
54.2847785949707
 30
100
 11
118.96304321289062
 21
54.2847785949707
 31
0
 12
122.44307708740234
 22
59.326473236083984
 32
0
 13
122.44307708740234
 23
59.326473236083984
 33
0
  0
3DFACE
  8
0
1001
WEBCAD
1000
E2
 10
118.96304321289062
 20
54.2847785949707
 30
100
 11
122.44307708740234
 21
59.326473236083984
 31
0
 12
122.44307708740234
 22
59.326473236083984
 32
100
 13
122.44307708740234
 23
59.326473236083984
 33
100
  0
3DFACE
  8
0
1001
WEBCAD
1000
E2
 10
116.79069519042969
 20
48.5567626953125
 30
100
 11
118.96304321289062
 21
54.2847785949707
 31
0
 12
118.96304321289062
 22
54.2847785949707
 32
100
 13
118.96304321289062
 23
54.2847785949707
 33
100
  0
3DFACE
  8
0
1001
WEBCAD
1000
E2
 10
116.79069519042969
 20
48.5567626953125
 30
100
 11
116.79069519042969
 21
48.5567626953125
 31
0
 12
118.96304321289062
 22
54.2847785949707
 32
0
 13
118.96304321289062
 23
54.2847785949707
 33
0
  0
3DFACE
  8
0
1001
WEBCAD
1000
E2
 10
116.05227661132812
 20
42.47531509399414
 30
100
 11
116.79069519042969
 21
48.5567626953125
 31
0
 12
116.79069519042969
 22
48.5567626953125
 32
100
 13
116.79069519042969
 23
48.5567626953125
 33
100
  0
3DFACE
  8
0
1001
WEBCAD
1000
E2
 10
116.05227661132812
 20
42.47531509399414
 30
100
 11
116.05227661132812
 21
42.47531509399414
 31
0
 12
116.79069519042969
 22
48.5567626953125
 32
0
 13
116.79069519042969
 23
48.5567626953125
 33
0
  0
3DFACE
  8
0
1001
WEBCAD
1000
E2
 10
116.79069519042969
 20
36.393863677978516
 30
100
 11
116.05227661132812
 21
42.47531509399414
 31
0
 12
116.05227661132812
 22
42.47531509399414
 32
100
 13
116.05227661132812
 23
42.47531509399414
 33
100
  0
3DFACE
  8
0
1001
WEBCAD
1000
E2
 10
116.79069519042969
 20
36.393863677978516
 30
100
 11
116.79069519042969
 21
36.393863677978516
 31
0
 12
116.05227661132812
 22
42.47531509399414
 32
0
 13
116.05227661132812
 23
42.47531509399414
 33
0
  0
3DFACE
  8
0
1001
WEBCAD
1000
E2
 10
118.96304321289062
 20
30.665847778320312
 30
100
 11
116.79069519042969
 21
36.393863677978516
 31
0
 12
116.79069519042969
 22
36.393863677978516
 32
100
 13
116.79069519042969
 23
36.393863677978516
 33
100
  0
3DFACE
  8
0
1001
WEBCAD
1000
E2
 10
118.96304321289062
 20
30.665847778320312
 30
100
 11
118.96304321289062
 21
30.665847778320312
 31
0
 12
116.79069519042969
 22
36.393863677978516
 32
0
 13
116.79069519042969
 23
36.393863677978516
 33
0
  0
3DFACE
  8
0
1001
WEBCAD
1000
E2
 10
122.44307708740234
 20
25.62415313720703
 30
100
 11
118.96304321289062
 21
30.665847778320312
 31
0
 12
118.96304321289062
 22
30.665847778320312
 32
100
 13
118.96304321289062
 23
30.665847778320312
 33
100
  0
3DFACE
  8
0
1001
WEBCAD
1000
E2
 10
122.44307708740234
 20
25.62415313720703
 30
100
 11
122.44307708740234
 21
25.62415313720703
 31
0
 12
118.96304321289062
 22
30.665847778320312
 32
0
 13
118.96304321289062
 23
30.665847778320312
 33
0
  0
3DFACE
  8
0
1001
WEBCAD
1000
E2
 10
127.0285415649414
 20
21.561786651611328
 30
100
 11
122.44307708740234
 21
25.62415313720703
 31
0
 12
122.44307708740234
 22
25.62415313720703
 32
100
 13
122.44307708740234
 23
25.62415313720703
 33
100
  0
3DFACE
  8
0
1001
WEBCAD
1000
E2
 10
127.0285415649414
 20
21.561786651611328
 30
100
 11
127.0285415649414
 21
21.561786651611328
 31
0
 12
122.44307708740234
 22
25.62415313720703
 32
0
 13
122.44307708740234
 23
25.62415313720703
 33
0
  0
3DFACE
  8
0
1001
WEBCAD
1000
E2
 10
132.45294189453125
 20
18.714839935302734
 30
100
 11
127.0285415649414
 21
21.561786651611328
 31
0
 12
127.0285415649414
 22
21.561786651611328
 32
100
 13
127.0285415649414
 23
21.561786651611328
 33
100
  0
3DFACE
  8
0
1001
WEBCAD
1000
E2
 10
132.45294189453125
 20
18.714839935302734
 30
100
 11
132.45294189453125
 21
18.714839935302734
 31
0
 12
127.0285415649414
 22
21.561786651611328
 32
0
 13
127.0285415649414
 23
21.561786651611328
 33
0
  0
3DFACE
  8
0
1001
WEBCAD
1000
E2
 10
138.4010467529297
 20
17.248764038085938
 30
100
 11
132.45294189453125
 21
18.714839935302734
 31
0
 12
132.45294189453125
 22
18.714839935302734
 32
100
 13
132.45294189453125
 23
18.714839935302734
 33
100
  0
3DFACE
  8
0
1001
WEBCAD
1000
E2
 10
138.4010467529297
 20
17.248764038085938
 30
100
 11
138.4010467529297
 21
17.248764038085938
 31
0
 12
132.45294189453125
 22
18.714839935302734
 32
0
 13
132.45294189453125
 23
18.714839935302734
 33
0
  0
3DFACE
  8
0
1001
WEBCAD
1000
E2
 10
144.52716064453125
 20
17.248764038085938
 30
100
 11
138.4010467529297
 21
17.248764038085938
 31
0
 12
138.4010467529297
 22
17.248764038085938
 32
100
 13
138.4010467529297
 23
17.248764038085938
 33
100
  0
3DFACE
  8
0
1001
WEBCAD
1000
E2
 10
144.52716064453125
 20
17.248764038085938
 30
100
 11
144.52716064453125
 21
17.248764038085938
 31
0
 12
138.4010467529297
 22
17.248764038085938
 32
0
 13
138.4010467529297
 23
17.248764038085938
 33
0
  0
3DFACE
  8
0
1001
WEBCAD
1000
E2
 10
150.4752655029297
 20
18.714839935302734
 30
100
 11
144.52716064453125
 21
17.248764038085938
 31
0
 12
144.52716064453125
 22
17.248764038085938
 32
100
 13
144.52716064453125
 23
17.248764038085938
 33
100
  0
3DFACE
  8
0
1001
WEBCAD
1000
E2
 10
150.4752655029297
 20
18.714839935302734
 30
100
 11
150.4752655029297
 21
18.714839935302734
 31
0
 12
144.52716064453125
 22
17.248764038085938
 32
0
 13
144.52716064453125
 23
17.248764038085938
 33
0
  0
3DFACE
  8
0
1001
WEBCAD
1000
E2
 10
155.89967346191406
 20
21.561786651611328
 30
100
 11
150.4752655029297
 21
18.714839935302734
 31
0
 12
150.4752655029297
 22
18.714839935302734
 32
100
 13
150.4752655029297
 23
18.714839935302734
 33
100
  0
3DFACE
  8
0
1001
WEBCAD
1000
E2
 10
155.89967346191406
 20
21.561786651611328
 30
100
 11
155.89967346191406
 21
21.561786651611328
 31
0
 12
150.4752655029297
 22
18.714839935302734
 32
0
 13
150.4752655029297
 23
18.714839935302734
 33
0
  0
3DFACE
  8
0
1001
WEBCAD
1000
E2
 10
160.48513793945312
 20
25.62415313720703
 30
100
 11
155.89967346191406
 21
21.561786651611328
 31
0
 12
155.89967346191406
 22
21.561786651611328
 32
100
 13
155.89967346191406
 23
21.561786651611328
 33
100
  0
3DFACE
  8
0
1001
WEBCAD
1000
E2
 10
160.48513793945312
 20
25.62415313720703
 30
100
 11
160.48513793945312
 21
25.62415313720703
 31
0
 12
155.89967346191406
 22
21.561786651611328
 32
0
 13
155.89967346191406
 23
21.561786651611328
 33
0
  0
3DFACE
  8
0
1001
WEBCAD
1000
E2
 10
160.48513793945312
 20
25.62415313720703
 30
100
 11
163.9651641845703
 21
30.665847778320312
 31
0
 12
160.48513793945312
 22
25.62415313720703
 32
0
 13
160.48513793945312
 23
25.62415313720703
 33
0
  0
3DFACE
  8
0
1001
WEBCAD
1000
E2
 10
163.9651641845703
 20
30.665847778320312
 30
100
 11
163.9651641845703
 21
30.665847778320312
 31
0
 12
160.48513793945312
 22
25.62415313720703
 32
100
 13
160.48513793945312
 23
25.62415313720703
 33
100
  0
3DFACE
  8
0
1001
WEBCAD
1000
E2
 10
166.13751220703125
 20
36.393863677978516
 30
100
 11
166.13751220703125
 21
36.393863677978516
 31
0
 12
163.9651641845703
 22
30.665847778320312
 32
0
 13
163.9651641845703
 23
30.665847778320312
 33
0
  0
3DFACE
  8
0
1001
WEBCAD
1000
E2
 10
166.13751220703125
 20
36.393863677978516
 30
100
 11
163.9651641845703
 21
30.665847778320312
 31
0
 12
163.9651641845703
 22
30.665847778320312
 32
100
 13
163.9651641845703
 23
30.665847778320312
 33
100
  0
3DFACE
  8
0
1001
WEBCAD
1000
E2
 10
166.8759307861328
 20
42.47531509399414
 30
100
 11
166.8759307861328
 21
42.47531509399414
 31
0
 12
166.13751220703125
 22
36.393863677978516
 32
0
 13
166.13751220703125
 23
36.393863677978516
 33
0
  0
3DFACE
  8
0
1001
WEBCAD
1000
E2
 10
166.8759307861328
 20
42.47531509399414
 30
100
 11
166.13751220703125
 21
36.393863677978516
 31
0
 12
166.13751220703125
 22
36.393863677978516
 32
100
 13
166.13751220703125
 23
36.393863677978516
 33
100
  0
ENDSEC
  0
EOF
