  0
SECTION
  2
HEADER
  9
$ACADVER
  1
AC1015
  0
ENDSEC
  0
SECTION
  2
TABLES
  0
TABLE
  2
LTYPE
 70
1
  0
LTYPE
  2
CONTINUOUS
 70
0
  3
Solid line
 72
65
 73
0
 40
0.0
  0
ENDTAB
  0
TABLE
  2
LAYER
 70
1
  0
LAYER
  2
0
 70
0
 62
7
  6
CONTINUOUS
  0
ENDTAB
  0
ENDSEC
  0
SECTION
  2
BLOCKS
  0
ENDSEC
  0
SECTION
  2
ENTITIES
  0
POLYLINE
  8
0
 66
1
 70
1
  0
VERTEX
  8
0
 10
256.0774367344712
 20
348.90819584685823
 30
0.0
  0
VERTEX
  8
0
 10
221.07743673447118
 20
348.90819584685823
 30
0.0
  0
VERTEX
  8
0
 10
221.07743673447118
 20
311.90819584685823
 30
0.0
  0
VERTEX
  8
0
 10
256.0774367344712
 20
348.90819584685823
 30
0.0
  0
SEQEND
  0
CIRCLE
  8
0
 10
257.2469873895486
 20
313.1213556572019
 30
0
 40
35
  0
3DFACE
  8
0
1001
WEBCAD
1000
E71_1779410802142
1000
ROTATION:{"x":0,"y":0,"z":0}
1000
POSITION:{"x":235,"y":94.90196418762207,"z":120}
 10
112.81280517578125
 20
145.96347045898438
 30
26.142946243286133
 11
112.5
 21
145.96347045898438
 31
131.1429443359375
 12
112.81280517578125
 22
145.96347045898438
 32
131.1429443359375
 13
112.81280517578125
 23
145.96347045898438
 33
131.1429443359375
  0
3DFACE
  8
0
1001
WEBCAD
1000
E71_1779410802142
 10
112.5
 20
145.96347045898438
 30
26.142946243286133
 11
112.5
 21
145.96347045898438
 31
131.1429443359375
 12
112.81280517578125
 22
145.96347045898438
 32
26.142946243286133
 13
112.81280517578125
 23
145.96347045898438
 33
26.142946243286133
  0
3DFACE
  8
0
1001
WEBCAD
1000
E71_1779410802142
 10
112.81280517578125
 20
144.90196228027344
 30
26.142946243286133
 11
114.87110900878906
 21
142.51242065429688
 31
26.142946243286133
 12
112.5
 22
141.24502563476562
 32
26.142946243286133
 13
112.5
 23
141.24502563476562
 33
26.142946243286133
  0
3DFACE
  8
0
1001
WEBCAD
1000
E71_1779410802142
 10
112.5
 20
145.96347045898438
 30
26.142946243286133
 11
112.81280517578125
 21
144.90196228027344
 31
26.142946243286133
 12
112.5
 22
141.24502563476562
 32
26.142946243286133
 13
112.5
 23
141.24502563476562
 33
26.142946243286133
  0
3DFACE
  8
0
1001
WEBCAD
1000
E71_1779410802142
 10
112.81280517578125
 20
145.96347045898438
 30
26.142946243286133
 11
112.81280517578125
 21
144.90196228027344
 31
26.142946243286133
 12
112.5
 22
145.96347045898438
 32
26.142946243286133
 13
112.5
 23
145.96347045898438
 33
26.142946243286133
  0
3DFACE
  8
0
1001
WEBCAD
1000
E71_1779410802142
 10
125.47630310058594
 20
144.90196228027344
 30
26.142946243286133
 11
121.4368667602539
 21
144.50411987304688
 31
26.142946243286133
 12
112.81280517578125
 22
144.90196228027344
 32
26.142946243286133
 13
112.81280517578125
 23
144.90196228027344
 33
26.142946243286133
  0
3DFACE
  8
0
1001
WEBCAD
1000
E71_1779410802142
 10
121.4368667602539
 20
144.50411987304688
 30
26.142946243286133
 11
114.87110900878906
 21
142.51242065429688
 31
26.142946243286133
 12
112.81280517578125
 22
144.90196228027344
 32
26.142946243286133
 13
112.81280517578125
 23
144.90196228027344
 33
26.142946243286133
  0
3DFACE
  8
0
1001
WEBCAD
1000
E71_1779410802142
 10
112.5
 20
141.24502563476562
 30
131.1429443359375
 11
112.5
 21
-25.098033905029297
 31
210.12498474121094
 12
112.5
 22
-25.098033905029297
 32
25.124982833862305
 13
112.5
 23
-25.098033905029297
 33
25.124982833862305
  0
3DFACE
  8
0
1001
WEBCAD
1000
E71_1779410802142
 10
112.5
 20
141.24502563476562
 30
131.1429443359375
 11
112.5
 21
-25.098033905029297
 31
25.124982833862305
 12
112.5
 22
141.24502563476562
 32
26.142946243286133
 13
112.5
 23
141.24502563476562
 33
26.142946243286133
  0
3DFACE
  8
0
1001
WEBCAD
1000
E71_1779410802142
 10
112.5
 20
145.96347045898438
 30
131.1429443359375
 11
112.5
 21
145.96347045898438
 31
26.142946243286133
 12
112.5
 22
214.90196228027344
 32
25.124982833862305
 13
112.5
 23
214.90196228027344
 33
25.124982833862305
  0
3DFACE
  8
0
1001
WEBCAD
1000
E71_1779410802142
 10
112.5
 20
214.90196228027344
 30
210.12498474121094
 11
112.5
 21
141.24502563476562
 31
131.1429443359375
 12
112.5
 22
145.96347045898438
 32
131.1429443359375
 13
112.5
 23
145.96347045898438
 33
131.1429443359375
  0
3DFACE
  8
0
1001
WEBCAD
1000
E71_1779410802142
 10
112.5
 20
214.90196228027344
 30
210.12498474121094
 11
112.5
 21
-25.098033905029297
 31
210.12498474121094
 12
112.5
 22
141.24502563476562
 32
131.1429443359375
 13
112.5
 23
141.24502563476562
 33
131.1429443359375
  0
3DFACE
  8
0
1001
WEBCAD
1000
E71_1779410802142
 10
112.5
 20
214.90196228027344
 30
210.12498474121094
 11
112.5
 21
145.96347045898438
 31
131.1429443359375
 12
112.5
 22
214.90196228027344
 32
25.124982833862305
 13
112.5
 23
214.90196228027344
 33
25.124982833862305
  0
3DFACE
  8
0
1001
WEBCAD
1000
E71_1779410802142
 10
112.5
 20
214.90196228027344
 30
25.124982833862305
 11
112.5
 21
141.24502563476562
 31
26.142946243286133
 12
112.5
 22
-25.098033905029297
 32
25.124982833862305
 13
112.5
 23
-25.098033905029297
 33
25.124982833862305
  0
3DFACE
  8
0
1001
WEBCAD
1000
E71_1779410802142
 10
112.5
 20
214.90196228027344
 30
25.124982833862305
 11
112.5
 21
145.96347045898438
 31
26.142946243286133
 12
112.5
 22
141.24502563476562
 32
26.142946243286133
 13
112.5
 23
141.24502563476562
 33
26.142946243286133
  0
3DFACE
  8
0
1001
WEBCAD
1000
E71_1779410802142
 10
112.81280517578125
 20
144.90196228027344
 30
131.1429443359375
 11
112.5
 21
141.24502563476562
 31
131.1429443359375
 12
114.87110900878906
 22
142.51242065429688
 32
131.1429443359375
 13
114.87110900878906
 23
142.51242065429688
 33
131.1429443359375
  0
3DFACE
  8
0
1001
WEBCAD
1000
E71_1779410802142
 10
112.5
 20
145.96347045898438
 30
131.1429443359375
 11
112.5
 21
141.24502563476562
 31
131.1429443359375
 12
112.81280517578125
 22
144.90196228027344
 32
131.1429443359375
 13
112.81280517578125
 23
144.90196228027344
 33
131.1429443359375
  0
3DFACE
  8
0
1001
WEBCAD
1000
E71_1779410802142
 10
112.81280517578125
 20
145.96347045898438
 30
131.1429443359375
 11
112.5
 21
145.96347045898438
 31
131.1429443359375
 12
112.81280517578125
 22
144.90196228027344
 32
131.1429443359375
 13
112.81280517578125
 23
144.90196228027344
 33
131.1429443359375
  0
3DFACE
  8
0
1001
WEBCAD
1000
E71_1779410802142
 10
125.47630310058594
 20
144.90196228027344
 30
131.1429443359375
 11
112.81280517578125
 21
144.90196228027344
 31
131.1429443359375
 12
121.4368667602539
 22
144.50411987304688
 32
131.1429443359375
 13
121.4368667602539
 23
144.50411987304688
 33
131.1429443359375
  0
3DFACE
  8
0
1001
WEBCAD
1000
E71_1779410802142
 10
121.4368667602539
 20
144.50411987304688
 30
131.1429443359375
 11
112.81280517578125
 21
144.90196228027344
 31
131.1429443359375
 12
114.87110900878906
 22
142.51242065429688
 32
131.1429443359375
 13
114.87110900878906
 23
142.51242065429688
 33
131.1429443359375
  0
3DFACE
  8
0
1001
WEBCAD
1000
E71_1779410802142
 10
112.81280517578125
 20
145.96347045898438
 30
131.1429443359375
 11
112.81280517578125
 21
144.90196228027344
 31
131.1429443359375
 12
112.81280517578125
 22
144.90196228027344
 32
131.34373474121094
 13
112.81280517578125
 23
144.90196228027344
 33
131.34373474121094
  0
3DFACE
  8
0
1001
WEBCAD
1000
E71_1779410802142
 10
112.81280517578125
 20
145.96347045898438
 30
26.142946243286133
 11
112.81280517578125
 21
145.96347045898438
 31
131.1429443359375
 12
112.81280517578125
 22
214.90196228027344
 32
131.34373474121094
 13
112.81280517578125
 23
214.90196228027344
 33
131.34373474121094
  0
3DFACE
  8
0
1001
WEBCAD
1000
E71_1779410802142
 10
112.81280517578125
 20
144.90196228027344
 30
25.041595458984375
 11
112.81280517578125
 21
144.90196228027344
 31
26.142946243286133
 12
112.81280517578125
 22
145.96347045898438
 32
26.142946243286133
 13
112.81280517578125
 23
145.96347045898438
 33
26.142946243286133
  0
3DFACE
  8
0
1001
WEBCAD
1000
E71_1779410802142
 10
112.81280517578125
 20
214.90196228027344
 30
25.041595458984375
 11
112.81280517578125
 21
144.90196228027344
 31
25.041595458984375
 12
112.81280517578125
 22
145.96347045898438
 32
26.142946243286133
 13
112.81280517578125
 23
145.96347045898438
 33
26.142946243286133
  0
3DFACE
  8
0
1001
WEBCAD
1000
E71_1779410802142
 10
112.81280517578125
 20
214.90196228027344
 30
25.041595458984375
 11
112.81280517578125
 21
145.96347045898438
 31
26.142946243286133
 12
112.81280517578125
 22
214.90196228027344
 32
131.34373474121094
 13
112.81280517578125
 23
214.90196228027344
 33
131.34373474121094
  0
3DFACE
  8
0
1001
WEBCAD
1000
E71_1779410802142
 10
112.81280517578125
 20
214.90196228027344
 30
131.34373474121094
 11
112.81280517578125
 21
145.96347045898438
 31
131.1429443359375
 12
112.81280517578125
 22
144.90196228027344
 32
131.34373474121094
 13
112.81280517578125
 23
144.90196228027344
 33
131.34373474121094
  0
3DFACE
  8
0
1001
WEBCAD
1000
E71_1779410802142
 10
125.47630310058594
 20
144.90196228027344
 30
26.142946243286133
 11
125.47630310058594
 21
144.90196228027344
 31
131.1429443359375
 12
121.4368667602539
 22
144.50411987304688
 32
131.1429443359375
 13
121.4368667602539
 23
144.50411987304688
 33
131.1429443359375
  0
3DFACE
  8
0
1001
WEBCAD
1000
E71_1779410802142
 10
121.4368667602539
 20
144.50411987304688
 30
26.142946243286133
 11
125.47630310058594
 21
144.90196228027344
 31
26.142946243286133
 12
121.4368667602539
 22
144.50411987304688
 32
131.1429443359375
 13
121.4368667602539
 23
144.50411987304688
 33
131.1429443359375
  0
3DFACE
  8
0
1001
WEBCAD
1000
E71_1779410802142
 10
114.87110900878906
 20
142.51242065429688
 30
26.142946243286133
 11
121.4368667602539
 21
144.50411987304688
 31
26.142946243286133
 12
121.4368667602539
 22
144.50411987304688
 32
131.1429443359375
 13
121.4368667602539
 23
144.50411987304688
 33
131.1429443359375
  0
3DFACE
  8
0
1001
WEBCAD
1000
E71_1779410802142
 10
114.87110900878906
 20
142.51242065429688
 30
26.142946243286133
 11
121.4368667602539
 21
144.50411987304688
 31
131.1429443359375
 12
114.87110900878906
 22
142.51242065429688
 32
131.1429443359375
 13
114.87110900878906
 23
142.51242065429688
 33
131.1429443359375
  0
3DFACE
  8
0
1001
WEBCAD
1000
E71_1779410802142
 10
112.5
 20
141.24502563476562
 30
26.142946243286133
 11
114.87110900878906
 21
142.51242065429688
 31
26.142946243286133
 12
114.87110900878906
 22
142.51242065429688
 32
131.1429443359375
 13
114.87110900878906
 23
142.51242065429688
 33
131.1429443359375
  0
3DFACE
  8
0
1001
WEBCAD
1000
E71_1779410802142
 10
112.5
 20
141.24502563476562
 30
26.142946243286133
 11
114.87110900878906
 21
142.51242065429688
 31
131.1429443359375
 12
112.5
 22
141.24502563476562
 32
131.1429443359375
 13
112.5
 23
141.24502563476562
 33
131.1429443359375
  0
3DFACE
  8
0
1001
WEBCAD
1000
E71_1779410802142
 10
125.47630310058594
 20
144.90196228027344
 30
26.142946243286133
 11
112.81280517578125
 21
144.90196228027344
 31
26.142946243286133
 12
112.81280517578125
 22
144.90196228027344
 32
25.041595458984375
 13
112.81280517578125
 23
144.90196228027344
 33
25.041595458984375
  0
3DFACE
  8
0
1001
WEBCAD
1000
E71_1779410802142
 10
125.47630310058594
 20
144.90196228027344
 30
131.1429443359375
 11
112.81280517578125
 21
144.90196228027344
 31
131.34373474121094
 12
112.81280517578125
 22
144.90196228027344
 32
131.1429443359375
 13
112.81280517578125
 23
144.90196228027344
 33
131.1429443359375
  0
3DFACE
  8
0
1001
WEBCAD
1000
E71_1779410802142
 10
251.38275146484375
 20
144.90196228027344
 30
24.875015258789062
 11
125.47630310058594
 21
144.90196228027344
 31
26.142946243286133
 12
112.81280517578125
 22
144.90196228027344
 32
25.041595458984375
 13
112.81280517578125
 23
144.90196228027344
 33
25.041595458984375
  0
3DFACE
  8
0
1001
WEBCAD
1000
E71_1779410802142
 10
233.47711181640625
 20
144.90196228027344
 30
63.45640563964844
 11
125.47630310058594
 21
144.90196228027344
 31
26.142946243286133
 12
251.38275146484375
 22
144.90196228027344
 32
24.875015258789062
 13
251.38275146484375
 23
144.90196228027344
 33
24.875015258789062
  0
3DFACE
  8
0
1001
WEBCAD
1000
E71_1779410802142
 10
237.19215393066406
 20
144.90196228027344
 30
60.40755081176758
 11
233.47711181640625
 21
144.90196228027344
 31
63.45640563964844
 12
251.38275146484375
 22
144.90196228027344
 32
24.875015258789062
 13
251.38275146484375
 23
144.90196228027344
 33
24.875015258789062
  0
3DFACE
  8
0
1001
WEBCAD
1000
E71_1779410802142
 10
230.42825317382812
 20
144.90196228027344
 30
67.17144012451172
 11
125.47630310058594
 21
144.90196228027344
 31
26.142946243286133
 12
233.47711181640625
 22
144.90196228027344
 32
63.45640563964844
 13
233.47711181640625
 23
144.90196228027344
 33
63.45640563964844
  0
3DFACE
  8
0
1001
WEBCAD
1000
E71_1779410802142
 10
241.43060302734375
 20
144.90196228027344
 30
58.14204788208008
 11
237.19215393066406
 21
144.90196228027344
 31
60.40755081176758
 12
251.38275146484375
 22
144.90196228027344
 32
24.875015258789062
 13
251.38275146484375
 23
144.90196228027344
 33
24.875015258789062
  0
3DFACE
  8
0
1001
WEBCAD
1000
E71_1779410802142
 10
228.16275024414062
 20
144.90196228027344
 30
71.40990447998047
 11
125.47630310058594
 21
144.90196228027344
 31
26.142946243286133
 12
230.42825317382812
 22
144.90196228027344
 32
67.17144012451172
 13
230.42825317382812
 23
144.90196228027344
 33
67.17144012451172
  0
3DFACE
  8
0
1001
WEBCAD
1000
E71_1779410802142
 10
246.02960205078125
 20
144.90196228027344
 30
56.74695587158203
 11
241.43060302734375
 21
144.90196228027344
 31
58.14204788208008
 12
251.38275146484375
 22
144.90196228027344
 32
24.875015258789062
 13
251.38275146484375
 23
144.90196228027344
 33
24.875015258789062
  0
3DFACE
  8
0
1001
WEBCAD
1000
E71_1779410802142
 10
226.76766967773438
 20
144.90196228027344
 30
76.00889587402344
 11
125.47630310058594
 21
144.90196228027344
 31
26.142946243286133
 12
228.16275024414062
 22
144.90196228027344
 32
71.40990447998047
 13
228.16275024414062
 23
144.90196228027344
 33
71.40990447998047
  0
3DFACE
  8
0
1001
WEBCAD
1000
E71_1779410802142
 10
226.29660034179688
 20
144.90196228027344
 30
80.79169464111328
 11
125.47630310058594
 21
144.90196228027344
 31
131.1429443359375
 12
125.47630310058594
 22
144.90196228027344
 32
26.142946243286133
 13
125.47630310058594
 23
144.90196228027344
 33
26.142946243286133
  0
3DFACE
  8
0
1001
WEBCAD
1000
E71_1779410802142
 10
226.29660034179688
 20
144.90196228027344
 30
80.79169464111328
 11
125.47630310058594
 21
144.90196228027344
 31
26.142946243286133
 12
226.76766967773438
 22
144.90196228027344
 32
76.00889587402344
 13
226.76766967773438
 23
144.90196228027344
 33
76.00889587402344
  0
3DFACE
  8
0
1001
WEBCAD
1000
E71_1779410802142
 10
250.81239318847656
 20
144.90196228027344
 30
56.27589416503906
 11
246.02960205078125
 21
144.90196228027344
 31
56.74695587158203
 12
251.38275146484375
 22
144.90196228027344
 32
24.875015258789062
 13
251.38275146484375
 23
144.90196228027344
 33
24.875015258789062
  0
3DFACE
  8
0
1001
WEBCAD
1000
E71_1779410802142
 10
226.76766967773438
 20
144.90196228027344
 30
85.5744857788086
 11
125.47630310058594
 21
144.90196228027344
 31
131.1429443359375
 12
226.29660034179688
 22
144.90196228027344
 32
80.79169464111328
 13
226.29660034179688
 23
144.90196228027344
 33
80.79169464111328
  0
3DFACE
  8
0
1001
WEBCAD
1000
E71_1779410802142
 10
255.59519958496094
 20
144.90196228027344
 30
56.74695587158203
 11
250.81239318847656
 21
144.90196228027344
 31
56.27589416503906
 12
251.38275146484375
 22
144.90196228027344
 32
24.875015258789062
 13
251.38275146484375
 23
144.90196228027344
 33
24.875015258789062
  0
3DFACE
  8
0
1001
WEBCAD
1000
E71_1779410802142
 10
228.16275024414062
 20
144.90196228027344
 30
90.1734848022461
 11
125.47630310058594
 21
144.90196228027344
 31
131.1429443359375
 12
226.76766967773438
 22
144.90196228027344
 32
85.5744857788086
 13
226.76766967773438
 23
144.90196228027344
 33
85.5744857788086
  0
3DFACE
  8
0
1001
WEBCAD
1000
E71_1779410802142
 10
260.1941833496094
 20
144.90196228027344
 30
58.14204788208008
 11
255.59519958496094
 21
144.90196228027344
 31
56.74695587158203
 12
251.38275146484375
 22
144.90196228027344
 32
24.875015258789062
 13
251.38275146484375
 23
144.90196228027344
 33
24.875015258789062
  0
3DFACE
  8
0
1001
WEBCAD
1000
E71_1779410802142
 10
230.42825317382812
 20
144.90196228027344
 30
94.41194152832031
 11
125.47630310058594
 21
144.90196228027344
 31
131.1429443359375
 12
228.16275024414062
 22
144.90196228027344
 32
90.1734848022461
 13
228.16275024414062
 23
144.90196228027344
 33
90.1734848022461
  0
3DFACE
  8
0
1001
WEBCAD
1000
E71_1779410802142
 10
264.4326477050781
 20
144.90196228027344
 30
60.40755081176758
 11
260.1941833496094
 21
144.90196228027344
 31
58.14204788208008
 12
251.38275146484375
 22
144.90196228027344
 32
24.875015258789062
 13
251.38275146484375
 23
144.90196228027344
 33
24.875015258789062
  0
3DFACE
  8
0
1001
WEBCAD
1000
E71_1779410802142
 10
268.1476745605469
 20
144.90196228027344
 30
63.45640563964844
 11
264.4326477050781
 21
144.90196228027344
 31
60.40755081176758
 12
251.38275146484375
 22
144.90196228027344
 32
24.875015258789062
 13
251.38275146484375
 23
144.90196228027344
 33
24.875015258789062
  0
3DFACE
  8
0
1001
WEBCAD
1000
E71_1779410802142
 10
233.47711181640625
 20
144.90196228027344
 30
98.12698364257812
 11
125.47630310058594
 21
144.90196228027344
 31
131.1429443359375
 12
230.42825317382812
 22
144.90196228027344
 32
94.41194152832031
 13
230.42825317382812
 23
144.90196228027344
 33
94.41194152832031
  0
3DFACE
  8
0
1001
WEBCAD
1000
E71_1779410802142
 10
237.19215393066406
 20
144.90196228027344
 30
101.17583465576172
 11
125.47630310058594
 21
144.90196228027344
 31
131.1429443359375
 12
233.47711181640625
 22
144.90196228027344
 32
98.12698364257812
 13
233.47711181640625
 23
144.90196228027344
 33
98.12698364257812
  0
3DFACE
  8
0
1001
WEBCAD
1000
E71_1779410802142
 10
271.196533203125
 20
144.90196228027344
 30
67.17144012451172
 11
268.1476745605469
 21
144.90196228027344
 31
63.45640563964844
 12
251.38275146484375
 22
144.90196228027344
 32
24.875015258789062
 13
251.38275146484375
 23
144.90196228027344
 33
24.875015258789062
  0
3DFACE
  8
0
1001
WEBCAD
1000
E71_1779410802142
 10
241.43060302734375
 20
144.90196228027344
 30
103.44133758544922
 11
125.47630310058594
 21
144.90196228027344
 31
131.1429443359375
 12
237.19215393066406
 22
144.90196228027344
 32
101.17583465576172
 13
237.19215393066406
 23
144.90196228027344
 33
101.17583465576172
  0
3DFACE
  8
0
1001
WEBCAD
1000
E71_1779410802142
 10
246.02960205078125
 20
144.90196228027344
 30
104.83642578125
 11
125.47630310058594
 21
144.90196228027344
 31
131.1429443359375
 12
241.43060302734375
 22
144.90196228027344
 32
103.44133758544922
 13
241.43060302734375
 23
144.90196228027344
 33
103.44133758544922
  0
3DFACE
  8
0
1001
WEBCAD
1000
E71_1779410802142
 10
470
 20
144.90196228027344
 30
26.124982833862305
 11
271.196533203125
 21
144.90196228027344
 31
67.17144012451172
 12
251.38275146484375
 22
144.90196228027344
 32
24.875015258789062
 13
251.38275146484375
 23
144.90196228027344
 33
24.875015258789062
  0
3DFACE
  8
0
1001
WEBCAD
1000
E71_1779410802142
 10
470
 20
144.90196228027344
 30
26.124982833862305
 11
273.4620361328125
 21
144.90196228027344
 31
71.40990447998047
 12
271.196533203125
 22
144.90196228027344
 32
67.17144012451172
 13
271.196533203125
 23
144.90196228027344
 33
67.17144012451172
  0
3DFACE
  8
0
1001
WEBCAD
1000
E71_1779410802142
 10
397.8037109375
 20
144.90196228027344
 30
131.34373474121094
 11
273.4620361328125
 21
144.90196228027344
 31
90.1734848022461
 12
274.8571472167969
 22
144.90196228027344
 32
85.5744857788086
 13
274.8571472167969
 23
144.90196228027344
 33
85.5744857788086
  0
3DFACE
  8
0
1001
WEBCAD
1000
E71_1779410802142
 10
397.8037109375
 20
144.90196228027344
 30
131.34373474121094
 11
274.8571472167969
 21
144.90196228027344
 31
85.5744857788086
 12
275.32818603515625
 22
144.90196228027344
 32
80.79169464111328
 13
275.32818603515625
 23
144.90196228027344
 33
80.79169464111328
  0
3DFACE
  8
0
1001
WEBCAD
1000
E71_1779410802142
 10
397.8037109375
 20
144.90196228027344
 30
131.34373474121094
 11
275.32818603515625
 21
144.90196228027344
 31
80.79169464111328
 12
274.8571472167969
 22
144.90196228027344
 32
76.00889587402344
 13
274.8571472167969
 23
144.90196228027344
 33
76.00889587402344
  0
3DFACE
  8
0
1001
WEBCAD
1000
E71_1779410802142
 10
397.8037109375
 20
144.90196228027344
 30
131.34373474121094
 11
255.59519958496094
 21
144.90196228027344
 31
104.83642578125
 12
260.1941833496094
 22
144.90196228027344
 32
103.44133758544922
 13
260.1941833496094
 23
144.90196228027344
 33
103.44133758544922
  0
3DFACE
  8
0
1001
WEBCAD
1000
E71_1779410802142
 10
397.8037109375
 20
144.90196228027344
 30
131.34373474121094
 11
260.1941833496094
 21
144.90196228027344
 31
103.44133758544922
 12
264.4326477050781
 22
144.90196228027344
 32
101.17583465576172
 13
264.4326477050781
 23
144.90196228027344
 33
101.17583465576172
  0
3DFACE
  8
0
1001
WEBCAD
1000
E71_1779410802142
 10
397.8037109375
 20
144.90196228027344
 30
131.34373474121094
 11
264.4326477050781
 21
144.90196228027344
 31
101.17583465576172
 12
268.1476745605469
 22
144.90196228027344
 32
98.12698364257812
 13
268.1476745605469
 23
144.90196228027344
 33
98.12698364257812
  0
3DFACE
  8
0
1001
WEBCAD
1000
E71_1779410802142
 10
397.8037109375
 20
144.90196228027344
 30
131.34373474121094
 11
268.1476745605469
 21
144.90196228027344
 31
98.12698364257812
 12
271.196533203125
 22
144.90196228027344
 32
94.41194152832031
 13
271.196533203125
 23
144.90196228027344
 33
94.41194152832031
  0
3DFACE
  8
0
1001
WEBCAD
1000
E71_1779410802142
 10
397.8037109375
 20
144.90196228027344
 30
131.34373474121094
 11
271.196533203125
 21
144.90196228027344
 31
94.41194152832031
 12
273.4620361328125
 22
144.90196228027344
 32
90.1734848022461
 13
273.4620361328125
 23
144.90196228027344
 33
90.1734848022461
  0
3DFACE
  8
0
1001
WEBCAD
1000
E71_1779410802142
 10
401
 20
144.90196228027344
 30
129.02151489257812
 11
274.8571472167969
 21
144.90196228027344
 31
76.00889587402344
 12
273.4620361328125
 22
144.90196228027344
 32
71.40990447998047
 13
273.4620361328125
 23
144.90196228027344
 33
71.40990447998047
  0
3DFACE
  8
0
1001
WEBCAD
1000
E71_1779410802142
 10
401
 20
144.90196228027344
 30
129.02151489257812
 11
397.8037109375
 21
144.90196228027344
 31
131.34373474121094
 12
274.8571472167969
 22
144.90196228027344
 32
76.00889587402344
 13
274.8571472167969
 23
144.90196228027344
 33
76.00889587402344
  0
3DFACE
  8
0
1001
WEBCAD
1000
E71_1779410802142
 10
401
 20
144.90196228027344
 30
129.02151489257812
 11
273.4620361328125
 21
144.90196228027344
 31
71.40990447998047
 12
470
 22
144.90196228027344
 32
26.124982833862305
 13
470
 23
144.90196228027344
 33
26.124982833862305
  0
3DFACE
  8
0
1001
WEBCAD
1000
E71_1779410802142
 10
401
 20
144.90196228027344
 30
129.49325561523438
 11
397.8037109375
 21
144.90196228027344
 31
131.34373474121094
 12
401
 22
144.90196228027344
 32
129.02151489257812
 13
401
 23
144.90196228027344
 33
129.02151489257812
  0
3DFACE
  8
0
1001
WEBCAD
1000
E71_1779410802142
 10
401.8148193359375
 20
144.90196228027344
 30
129.02151489257812
 11
401
 21
144.90196228027344
 31
129.02151489257812
 12
470
 22
144.90196228027344
 32
26.124982833862305
 13
470
 23
144.90196228027344
 33
26.124982833862305
  0
3DFACE
  8
0
1001
WEBCAD
1000
E71_1779410802142
 10
469
 20
144.90196228027344
 30
90.12498474121094
 11
401.8148193359375
 21
144.90196228027344
 31
129.02151489257812
 12
470
 22
144.90196228027344
 32
26.124982833862305
 13
470
 23
144.90196228027344
 33
26.124982833862305
  0
3DFACE
  8
0
1001
WEBCAD
1000
E71_1779410802142
 10
397.8037109375
 20
144.90196228027344
 30
131.34373474121094
 11
112.81280517578125
 21
144.90196228027344
 31
131.34373474121094
 12
125.47630310058594
 22
144.90196228027344
 32
131.1429443359375
 13
125.47630310058594
 23
144.90196228027344
 33
131.1429443359375
  0
3DFACE
  8
0
1001
WEBCAD
1000
E71_1779410802142
 10
397.8037109375
 20
144.90196228027344
 30
131.34373474121094
 11
125.47630310058594
 21
144.90196228027344
 31
131.1429443359375
 12
250.81239318847656
 22
144.90196228027344
 32
105.3074951171875
 13
250.81239318847656
 23
144.90196228027344
 33
105.3074951171875
  0
3DFACE
  8
0
1001
WEBCAD
1000
E71_1779410802142
 10
250.81239318847656
 20
144.90196228027344
 30
105.3074951171875
 11
125.47630310058594
 21
144.90196228027344
 31
131.1429443359375
 12
246.02960205078125
 22
144.90196228027344
 32
104.83642578125
 13
246.02960205078125
 23
144.90196228027344
 33
104.83642578125
  0
3DFACE
  8
0
1001
WEBCAD
1000
E71_1779410802142
 10
397.8037109375
 20
144.90196228027344
 30
131.34373474121094
 11
250.81239318847656
 21
144.90196228027344
 31
105.3074951171875
 12
255.59519958496094
 22
144.90196228027344
 32
104.83642578125
 13
255.59519958496094
 23
144.90196228027344
 33
104.83642578125
  0
3DFACE
  8
0
1001
WEBCAD
1000
E71_1779410802142
 10
112.5
 20
-25.098033905029297
 30
210.12498474121094
 11
5
 21
-25.098033905029297
 31
210.12498474121094
 12
5
 22
-25.098033905029297
 32
25.124982833862305
 13
5
 23
-25.098033905029297
 33
25.124982833862305
  0
3DFACE
  8
0
1001
WEBCAD
1000
E71_1779410802142
 10
112.5
 20
-25.098033905029297
 30
210.12498474121094
 11
5
 21
-25.098033905029297
 31
25.124982833862305
 12
112.5
 22
-25.098033905029297
 32
25.124982833862305
 13
112.5
 23
-25.098033905029297
 33
25.124982833862305
  0
3DFACE
  8
0
1001
WEBCAD
1000
E71_1779410802142
 10
112.5
 20
-25.098033905029297
 30
25.124982833862305
 11
5
 21
-25.098033905029297
 31
25.124982833862305
 12
-2.6645352591003757e-14
 22
-20.098033905029297
 32
25.124982833862305
 13
-2.6645352591003757e-14
 23
-20.098033905029297
 33
25.124982833862305
  0
3DFACE
  8
0
1001
WEBCAD
1000
E71_1779410802142
 10
112.5
 20
214.90196228027344
 30
25.124982833862305
 11
-2.6645352591003757e-14
 21
-20.098033905029297
 31
25.124982833862305
 12
0
 22
214.90196228027344
 32
25.124982833862305
 13
0
 23
214.90196228027344
 33
25.124982833862305
  0
3DFACE
  8
0
1001
WEBCAD
1000
E71_1779410802142
 10
112.5
 20
214.90196228027344
 30
25.124982833862305
 11
112.5
 21
-25.098033905029297
 31
25.124982833862305
 12
-2.6645352591003757e-14
 22
-20.098033905029297
 32
25.124982833862305
 13
-2.6645352591003757e-14
 23
-20.098033905029297
 33
25.124982833862305
  0
3DFACE
  8
0
1001
WEBCAD
1000
E71_1779410802142
 10
112.5
 20
214.90196228027344
 30
210.12498474121094
 11
107.5
 21
-20.098033905029297
 31
215.12498474121094
 12
112.5
 22
-25.098033905029297
 32
210.12498474121094
 13
112.5
 23
-25.098033905029297
 33
210.12498474121094
  0
3DFACE
  8
0
1001
WEBCAD
1000
E71_1779410802142
 10
107.5
 20
209.90196228027344
 30
215.12498474121094
 11
107.5
 21
-20.098033905029297
 31
215.12498474121094
 12
112.5
 22
214.90196228027344
 32
210.12498474121094
 13
112.5
 23
214.90196228027344
 33
210.12498474121094
  0
3DFACE
  8
0
1001
WEBCAD
1000
E71_1779410802142
 10
112.5
 20
214.90196228027344
 30
210.12498474121094
 11
0
 21
214.90196228027344
 31
25.124982833862305
 12
0
 22
214.90196228027344
 32
210.12498474121094
 13
0
 23
214.90196228027344
 33
210.12498474121094
  0
3DFACE
  8
0
1001
WEBCAD
1000
E71_1779410802142
 10
112.5
 20
214.90196228027344
 30
210.12498474121094
 11
112.5
 21
214.90196228027344
 31
25.124982833862305
 12
0
 22
214.90196228027344
 32
25.124982833862305
 13
0
 23
214.90196228027344
 33
25.124982833862305
  0
3DFACE
  8
0
1001
WEBCAD
1000
E71_1779410802142
 10
233.47711181640625
 20
214.90196228027344
 30
63.45640563964844
 11
251.38275146484375
 21
214.90196228027344
 31
24.875015258789062
 12
112.81280517578125
 22
214.90196228027344
 32
25.041595458984375
 13
112.81280517578125
 23
214.90196228027344
 33
25.041595458984375
  0
3DFACE
  8
0
1001
WEBCAD
1000
E71_1779410802142
 10
237.19215393066406
 20
214.90196228027344
 30
60.40755081176758
 11
251.38275146484375
 21
214.90196228027344
 31
24.875015258789062
 12
233.47711181640625
 22
214.90196228027344
 32
63.45640563964844
 13
233.47711181640625
 23
214.90196228027344
 33
63.45640563964844
  0
3DFACE
  8
0
1001
WEBCAD
1000
E71_1779410802142
 10
230.42825317382812
 20
214.90196228027344
 30
67.17144012451172
 11
233.47711181640625
 21
214.90196228027344
 31
63.45640563964844
 12
112.81280517578125
 22
214.90196228027344
 32
25.041595458984375
 13
112.81280517578125
 23
214.90196228027344
 33
25.041595458984375
  0
3DFACE
  8
0
1001
WEBCAD
1000
E71_1779410802142
 10
241.43060302734375
 20
214.90196228027344
 30
58.14204788208008
 11
251.38275146484375
 21
214.90196228027344
 31
24.875015258789062
 12
237.19215393066406
 22
214.90196228027344
 32
60.40755081176758
 13
237.19215393066406
 23
214.90196228027344
 33
60.40755081176758
  0
3DFACE
  8
0
1001
WEBCAD
1000
E71_1779410802142
 10
228.16275024414062
 20
214.90196228027344
 30
71.40990447998047
 11
230.42825317382812
 21
214.90196228027344
 31
67.17144012451172
 12
112.81280517578125
 22
214.90196228027344
 32
25.041595458984375
 13
112.81280517578125
 23
214.90196228027344
 33
25.041595458984375
  0
3DFACE
  8
0
1001
WEBCAD
1000
E71_1779410802142
 10
246.02960205078125
 20
214.90196228027344
 30
56.74695587158203
 11
251.38275146484375
 21
214.90196228027344
 31
24.875015258789062
 12
241.43060302734375
 22
214.90196228027344
 32
58.14204788208008
 13
241.43060302734375
 23
214.90196228027344
 33
58.14204788208008
  0
3DFACE
  8
0
1001
WEBCAD
1000
E71_1779410802142
 10
226.76766967773438
 20
214.90196228027344
 30
76.00889587402344
 11
228.16275024414062
 21
214.90196228027344
 31
71.40990447998047
 12
112.81280517578125
 22
214.90196228027344
 32
25.041595458984375
 13
112.81280517578125
 23
214.90196228027344
 33
25.041595458984375
  0
3DFACE
  8
0
1001
WEBCAD
1000
E71_1779410802142
 10
226.29660034179688
 20
214.90196228027344
 30
80.79169464111328
 11
112.81280517578125
 21
214.90196228027344
 31
25.041595458984375
 12
112.81280517578125
 22
214.90196228027344
 32
131.34373474121094
 13
112.81280517578125
 23
214.90196228027344
 33
131.34373474121094
  0
3DFACE
  8
0
1001
WEBCAD
1000
E71_1779410802142
 10
226.29660034179688
 20
214.90196228027344
 30
80.79169464111328
 11
226.76766967773438
 21
214.90196228027344
 31
76.00889587402344
 12
112.81280517578125
 22
214.90196228027344
 32
25.041595458984375
 13
112.81280517578125
 23
214.90196228027344
 33
25.041595458984375
  0
3DFACE
  8
0
1001
WEBCAD
1000
E71_1779410802142
 10
250.81239318847656
 20
214.90196228027344
 30
56.27589416503906
 11
251.38275146484375
 21
214.90196228027344
 31
24.875015258789062
 12
246.02960205078125
 22
214.90196228027344
 32
56.74695587158203
 13
246.02960205078125
 23
214.90196228027344
 33
56.74695587158203
  0
3DFACE
  8
0
1001
WEBCAD
1000
E71_1779410802142
 10
226.76766967773438
 20
214.90196228027344
 30
85.5744857788086
 11
226.29660034179688
 21
214.90196228027344
 31
80.79169464111328
 12
112.81280517578125
 22
214.90196228027344
 32
131.34373474121094
 13
112.81280517578125
 23
214.90196228027344
 33
131.34373474121094
  0
3DFACE
  8
0
1001
WEBCAD
1000
E71_1779410802142
 10
255.59519958496094
 20
214.90196228027344
 30
56.74695587158203
 11
251.38275146484375
 21
214.90196228027344
 31
24.875015258789062
 12
250.81239318847656
 22
214.90196228027344
 32
56.27589416503906
 13
250.81239318847656
 23
214.90196228027344
 33
56.27589416503906
  0
3DFACE
  8
0
1001
WEBCAD
1000
E71_1779410802142
 10
228.16275024414062
 20
214.90196228027344
 30
90.1734848022461
 11
226.76766967773438
 21
214.90196228027344
 31
85.5744857788086
 12
112.81280517578125
 22
214.90196228027344
 32
131.34373474121094
 13
112.81280517578125
 23
214.90196228027344
 33
131.34373474121094
  0
3DFACE
  8
0
1001
WEBCAD
1000
E71_1779410802142
 10
260.1941833496094
 20
214.90196228027344
 30
58.14204788208008
 11
251.38275146484375
 21
214.90196228027344
 31
24.875015258789062
 12
255.59519958496094
 22
214.90196228027344
 32
56.74695587158203
 13
255.59519958496094
 23
214.90196228027344
 33
56.74695587158203
  0
3DFACE
  8
0
1001
WEBCAD
1000
E71_1779410802142
 10
230.42825317382812
 20
214.90196228027344
 30
94.41194152832031
 11
228.16275024414062
 21
214.90196228027344
 31
90.1734848022461
 12
112.81280517578125
 22
214.90196228027344
 32
131.34373474121094
 13
112.81280517578125
 23
214.90196228027344
 33
131.34373474121094
  0
3DFACE
  8
0
1001
WEBCAD
1000
E71_1779410802142
 10
264.4326477050781
 20
214.90196228027344
 30
60.40755081176758
 11
251.38275146484375
 21
214.90196228027344
 31
24.875015258789062
 12
260.1941833496094
 22
214.90196228027344
 32
58.14204788208008
 13
260.1941833496094
 23
214.90196228027344
 33
58.14204788208008
  0
3DFACE
  8
0
1001
WEBCAD
1000
E71_1779410802142
 10
268.1476745605469
 20
214.90196228027344
 30
63.45640563964844
 11
251.38275146484375
 21
214.90196228027344
 31
24.875015258789062
 12
264.4326477050781
 22
214.90196228027344
 32
60.40755081176758
 13
264.4326477050781
 23
214.90196228027344
 33
60.40755081176758
  0
3DFACE
  8
0
1001
WEBCAD
1000
E71_1779410802142
 10
233.47711181640625
 20
214.90196228027344
 30
98.12698364257812
 11
230.42825317382812
 21
214.90196228027344
 31
94.41194152832031
 12
112.81280517578125
 22
214.90196228027344
 32
131.34373474121094
 13
112.81280517578125
 23
214.90196228027344
 33
131.34373474121094
  0
3DFACE
  8
0
1001
WEBCAD
1000
E71_1779410802142
 10
237.19215393066406
 20
214.90196228027344
 30
101.17583465576172
 11
233.47711181640625
 21
214.90196228027344
 31
98.12698364257812
 12
112.81280517578125
 22
214.90196228027344
 32
131.34373474121094
 13
112.81280517578125
 23
214.90196228027344
 33
131.34373474121094
  0
3DFACE
  8
0
1001
WEBCAD
1000
E71_1779410802142
 10
271.196533203125
 20
214.90196228027344
 30
67.17144012451172
 11
251.38275146484375
 21
214.90196228027344
 31
24.875015258789062
 12
268.1476745605469
 22
214.90196228027344
 32
63.45640563964844
 13
268.1476745605469
 23
214.90196228027344
 33
63.45640563964844
  0
3DFACE
  8
0
1001
WEBCAD
1000
E71_1779410802142
 10
241.43060302734375
 20
214.90196228027344
 30
103.44133758544922
 11
237.19215393066406
 21
214.90196228027344
 31
101.17583465576172
 12
112.81280517578125
 22
214.90196228027344
 32
131.34373474121094
 13
112.81280517578125
 23
214.90196228027344
 33
131.34373474121094
  0
3DFACE
  8
0
1001
WEBCAD
1000
E71_1779410802142
 10
246.02960205078125
 20
214.90196228027344
 30
104.83642578125
 11
241.43060302734375
 21
214.90196228027344
 31
103.44133758544922
 12
112.81280517578125
 22
214.90196228027344
 32
131.34373474121094
 13
112.81280517578125
 23
214.90196228027344
 33
131.34373474121094
  0
3DFACE
  8
0
1001
WEBCAD
1000
E71_1779410802142
 10
470
 20
214.90196228027344
 30
26.124982833862305
 11
271.196533203125
 21
214.90196228027344
 31
67.17144012451172
 12
273.4620361328125
 22
214.90196228027344
 32
71.40990447998047
 13
273.4620361328125
 23
214.90196228027344
 33
71.40990447998047
  0
3DFACE
  8
0
1001
WEBCAD
1000
E71_1779410802142
 10
470
 20
214.90196228027344
 30
26.124982833862305
 11
251.38275146484375
 21
214.90196228027344
 31
24.875015258789062
 12
271.196533203125
 22
214.90196228027344
 32
67.17144012451172
 13
271.196533203125
 23
214.90196228027344
 33
67.17144012451172
  0
3DFACE
  8
0
1001
WEBCAD
1000
E71_1779410802142
 10
397.8037109375
 20
214.90196228027344
 30
131.34373474121094
 11
274.8571472167969
 21
214.90196228027344
 31
85.5744857788086
 12
273.4620361328125
 22
214.90196228027344
 32
90.1734848022461
 13
273.4620361328125
 23
214.90196228027344
 33
90.1734848022461
  0
3DFACE
  8
0
1001
WEBCAD
1000
E71_1779410802142
 10
397.8037109375
 20
214.90196228027344
 30
131.34373474121094
 11
275.32818603515625
 21
214.90196228027344
 31
80.79169464111328
 12
274.8571472167969
 22
214.90196228027344
 32
85.5744857788086
 13
274.8571472167969
 23
214.90196228027344
 33
85.5744857788086
  0
3DFACE
  8
0
1001
WEBCAD
1000
E71_1779410802142
 10
397.8037109375
 20
214.90196228027344
 30
131.34373474121094
 11
274.8571472167969
 21
214.90196228027344
 31
76.00889587402344
 12
275.32818603515625
 22
214.90196228027344
 32
80.79169464111328
 13
275.32818603515625
 23
214.90196228027344
 33
80.79169464111328
  0
3DFACE
  8
0
1001
WEBCAD
1000
E71_1779410802142
 10
397.8037109375
 20
214.90196228027344
 30
131.34373474121094
 11
260.1941833496094
 21
214.90196228027344
 31
103.44133758544922
 12
255.59519958496094
 22
214.90196228027344
 32
104.83642578125
 13
255.59519958496094
 23
214.90196228027344
 33
104.83642578125
  0
3DFACE
  8
0
1001
WEBCAD
1000
E71_1779410802142
 10
397.8037109375
 20
214.90196228027344
 30
131.34373474121094
 11
264.4326477050781
 21
214.90196228027344
 31
101.17583465576172
 12
260.1941833496094
 22
214.90196228027344
 32
103.44133758544922
 13
260.1941833496094
 23
214.90196228027344
 33
103.44133758544922
  0
3DFACE
  8
0
1001
WEBCAD
1000
E71_1779410802142
 10
397.8037109375
 20
214.90196228027344
 30
131.34373474121094
 11
268.1476745605469
 21
214.90196228027344
 31
98.12698364257812
 12
264.4326477050781
 22
214.90196228027344
 32
101.17583465576172
 13
264.4326477050781
 23
214.90196228027344
 33
101.17583465576172
  0
3DFACE
  8
0
1001
WEBCAD
1000
E71_1779410802142
 10
397.8037109375
 20
214.90196228027344
 30
131.34373474121094
 11
271.196533203125
 21
214.90196228027344
 31
94.41194152832031
 12
268.1476745605469
 22
214.90196228027344
 32
98.12698364257812
 13
268.1476745605469
 23
214.90196228027344
 33
98.12698364257812
  0
3DFACE
  8
0
1001
WEBCAD
1000
E71_1779410802142
 10
397.8037109375
 20
214.90196228027344
 30
131.34373474121094
 11
273.4620361328125
 21
214.90196228027344
 31
90.1734848022461
 12
271.196533203125
 22
214.90196228027344
 32
94.41194152832031
 13
271.196533203125
 23
214.90196228027344
 33
94.41194152832031
  0
3DFACE
  8
0
1001
WEBCAD
1000
E71_1779410802142
 10
401
 20
214.90196228027344
 30
129.02151489257812
 11
273.4620361328125
 21
214.90196228027344
 31
71.40990447998047
 12
274.8571472167969
 22
214.90196228027344
 32
76.00889587402344
 13
274.8571472167969
 23
214.90196228027344
 33
76.00889587402344
  0
3DFACE
  8
0
1001
WEBCAD
1000
E71_1779410802142
 10
401
 20
214.90196228027344
 30
129.02151489257812
 11
470
 21
214.90196228027344
 31
26.124982833862305
 12
273.4620361328125
 22
214.90196228027344
 32
71.40990447998047
 13
273.4620361328125
 23
214.90196228027344
 33
71.40990447998047
  0
3DFACE
  8
0
1001
WEBCAD
1000
E71_1779410802142
 10
401
 20
214.90196228027344
 30
129.02151489257812
 11
274.8571472167969
 21
214.90196228027344
 31
76.00889587402344
 12
397.8037109375
 22
214.90196228027344
 32
131.34373474121094
 13
397.8037109375
 23
214.90196228027344
 33
131.34373474121094
  0
3DFACE
  8
0
1001
WEBCAD
1000
E71_1779410802142
 10
401
 20
214.90196228027344
 30
129.49325561523438
 11
401
 21
214.90196228027344
 31
129.02151489257812
 12
397.8037109375
 22
214.90196228027344
 32
131.34373474121094
 13
397.8037109375
 23
214.90196228027344
 33
131.34373474121094
  0
3DFACE
  8
0
1001
WEBCAD
1000
E71_1779410802142
 10
401.8148193359375
 20
214.90196228027344
 30
129.02151489257812
 11
470
 21
214.90196228027344
 31
26.124982833862305
 12
401
 22
214.90196228027344
 32
129.02151489257812
 13
401
 23
214.90196228027344
 33
129.02151489257812
  0
3DFACE
  8
0
1001
WEBCAD
1000
E71_1779410802142
 10
469
 20
214.90196228027344
 30
90.12498474121094
 11
470
 21
214.90196228027344
 31
26.124982833862305
 12
401.8148193359375
 22
214.90196228027344
 32
129.02151489257812
 13
401.8148193359375
 23
214.90196228027344
 33
129.02151489257812
  0
3DFACE
  8
0
1001
WEBCAD
1000
E71_1779410802142
 10
397.8037109375
 20
214.90196228027344
 30
131.34373474121094
 11
250.81239318847656
 21
214.90196228027344
 31
105.3074951171875
 12
112.81280517578125
 22
214.90196228027344
 32
131.34373474121094
 13
112.81280517578125
 23
214.90196228027344
 33
131.34373474121094
  0
3DFACE
  8
0
1001
WEBCAD
1000
E71_1779410802142
 10
250.81239318847656
 20
214.90196228027344
 30
105.3074951171875
 11
246.02960205078125
 21
214.90196228027344
 31
104.83642578125
 12
112.81280517578125
 22
214.90196228027344
 32
131.34373474121094
 13
112.81280517578125
 23
214.90196228027344
 33
131.34373474121094
  0
3DFACE
  8
0
1001
WEBCAD
1000
E71_1779410802142
 10
397.8037109375
 20
214.90196228027344
 30
131.34373474121094
 11
255.59519958496094
 21
214.90196228027344
 31
104.83642578125
 12
250.81239318847656
 22
214.90196228027344
 32
105.3074951171875
 13
250.81239318847656
 23
214.90196228027344
 33
105.3074951171875
  0
3DFACE
  8
0
1001
WEBCAD
1000
E71_1779410802142
 10
251.38275146484375
 20
214.90196228027344
 30
24.875015258789062
 11
112.81280517578125
 21
144.90196228027344
 31
25.041595458984375
 12
112.81280517578125
 22
214.90196228027344
 32
25.041595458984375
 13
112.81280517578125
 23
214.90196228027344
 33
25.041595458984375
  0
3DFACE
  8
0
1001
WEBCAD
1000
E71_1779410802142
 10
251.38275146484375
 20
214.90196228027344
 30
24.875015258789062
 11
251.38275146484375
 21
144.90196228027344
 31
24.875015258789062
 12
112.81280517578125
 22
144.90196228027344
 32
25.041595458984375
 13
112.81280517578125
 23
144.90196228027344
 33
25.041595458984375
  0
3DFACE
  8
0
1001
WEBCAD
1000
E71_1779410802142
 10
397.8037109375
 20
214.90196228027344
 30
131.34373474121094
 11
401
 21
144.90196228027344
 31
131.34373474121094
 12
401
 22
214.90196228027344
 32
131.34373474121094
 13
401
 23
214.90196228027344
 33
131.34373474121094
  0
3DFACE
  8
0
1001
WEBCAD
1000
E71_1779410802142
 10
397.8037109375
 20
214.90196228027344
 30
131.34373474121094
 11
397.8037109375
 21
144.90196228027344
 31
131.34373474121094
 12
401
 22
144.90196228027344
 32
131.34373474121094
 13
401
 23
144.90196228027344
 33
131.34373474121094
  0
3DFACE
  8
0
1001
WEBCAD
1000
E71_1779410802142
 10
112.81280517578125
 20
214.90196228027344
 30
131.34373474121094
 11
112.81280517578125
 21
144.90196228027344
 31
131.34373474121094
 12
397.8037109375
 22
144.90196228027344
 32
131.34373474121094
 13
397.8037109375
 23
144.90196228027344
 33
131.34373474121094
  0
3DFACE
  8
0
1001
WEBCAD
1000
E71_1779410802142
 10
112.81280517578125
 20
214.90196228027344
 30
131.34373474121094
 11
397.8037109375
 21
144.90196228027344
 31
131.34373474121094
 12
397.8037109375
 22
214.90196228027344
 32
131.34373474121094
 13
397.8037109375
 23
214.90196228027344
 33
131.34373474121094
  0
3DFACE
  8
0
1001
WEBCAD
1000
E71_1779410802142
 10
401
 20
144.90196228027344
 30
129.02151489257812
 11
401
 21
214.90196228027344
 31
129.02151489257812
 12
401
 22
214.90196228027344
 32
129.49325561523438
 13
401
 23
214.90196228027344
 33
129.49325561523438
  0
3DFACE
  8
0
1001
WEBCAD
1000
E71_1779410802142
 10
401
 20
144.90196228027344
 30
129.02151489257812
 11
401
 21
214.90196228027344
 31
129.49325561523438
 12
401
 22
144.90196228027344
 32
129.49325561523438
 13
401
 23
144.90196228027344
 33
129.49325561523438
  0
3DFACE
  8
0
1001
WEBCAD
1000
E71_1779410802142
 10
401.8148193359375
 20
144.90196228027344
 30
129.02151489257812
 11
401.8148193359375
 21
214.90196228027344
 31
129.02151489257812
 12
401
 22
214.90196228027344
 32
129.02151489257812
 13
401
 23
214.90196228027344
 33
129.02151489257812
  0
3DFACE
  8
0
1001
WEBCAD
1000
E71_1779410802142
 10
401.8148193359375
 20
144.90196228027344
 30
129.02151489257812
 11
401
 21
214.90196228027344
 31
129.02151489257812
 12
401
 22
144.90196228027344
 32
129.02151489257812
 13
401
 23
144.90196228027344
 33
129.02151489257812
  0
3DFACE
  8
0
1001
WEBCAD
1000
E71_1779410802142
 10
401.8148193359375
 20
214.90196228027344
 30
129.02151489257812
 11
469
 21
144.90196228027344
 31
90.12498474121094
 12
469
 22
214.90196228027344
 32
90.12498474121094
 13
469
 23
214.90196228027344
 33
90.12498474121094
  0
3DFACE
  8
0
1001
WEBCAD
1000
E71_1779410802142
 10
401.8148193359375
 20
214.90196228027344
 30
129.02151489257812
 11
401.8148193359375
 21
144.90196228027344
 31
129.02151489257812
 12
469
 22
144.90196228027344
 32
90.12498474121094
 13
469
 23
144.90196228027344
 33
90.12498474121094
  0
3DFACE
  8
0
1001
WEBCAD
1000
E71_1779410802142
 10
470
 20
214.90196228027344
 30
26.124982833862305
 11
469
 21
144.90196228027344
 31
90.12498474121094
 12
470
 22
144.90196228027344
 32
26.124982833862305
 13
470
 23
144.90196228027344
 33
26.124982833862305
  0
3DFACE
  8
0
1001
WEBCAD
1000
E71_1779410802142
 10
469
 20
214.90196228027344
 30
90.12498474121094
 11
469
 21
144.90196228027344
 31
90.12498474121094
 12
470
 22
214.90196228027344
 32
26.124982833862305
 13
470
 23
214.90196228027344
 33
26.124982833862305
  0
3DFACE
  8
0
1001
WEBCAD
1000
E71_1779410802142
 10
470
 20
144.90196228027344
 30
26.124982833862305
 11
251.38275146484375
 21
144.90196228027344
 31
24.875015258789062
 12
251.38275146484375
 22
214.90196228027344
 32
24.875015258789062
 13
251.38275146484375
 23
214.90196228027344
 33
24.875015258789062
  0
3DFACE
  8
0
1001
WEBCAD
1000
E71_1779410802142
 10
470
 20
214.90196228027344
 30
26.124982833862305
 11
470
 21
144.90196228027344
 31
26.124982833862305
 12
251.38275146484375
 22
214.90196228027344
 32
24.875015258789062
 13
251.38275146484375
 23
214.90196228027344
 33
24.875015258789062
  0
3DFACE
  8
0
1001
WEBCAD
1000
E71_1779410802142
 10
397.8037109375
 20
214.90196228027344
 30
131.34373474121094
 11
401
 21
144.90196228027344
 31
129.49325561523438
 12
401
 22
214.90196228027344
 32
129.49325561523438
 13
401
 23
214.90196228027344
 33
129.49325561523438
  0
3DFACE
  8
0
1001
WEBCAD
1000
E71_1779410802142
 10
397.8037109375
 20
214.90196228027344
 30
131.34373474121094
 11
397.8037109375
 21
144.90196228027344
 31
131.34373474121094
 12
401
 22
144.90196228027344
 32
129.49325561523438
 13
401
 23
144.90196228027344
 33
129.49325561523438
  0
3DFACE
  8
0
1001
WEBCAD
1000
E71_1779410802142
 10
273.4620361328125
 20
214.90196228027344
 30
90.1734848022461
 11
274.8571472167969
 21
214.90196228027344
 31
85.5744857788086
 12
274.8571472167969
 22
144.90196228027344
 32
85.5744857788086
 13
274.8571472167969
 23
144.90196228027344
 33
85.5744857788086
  0
3DFACE
  8
0
1001
WEBCAD
1000
E71_1779410802142
 10
273.4620361328125
 20
214.90196228027344
 30
90.1734848022461
 11
274.8571472167969
 21
144.90196228027344
 31
85.5744857788086
 12
273.4620361328125
 22
144.90196228027344
 32
90.1734848022461
 13
273.4620361328125
 23
144.90196228027344
 33
90.1734848022461
  0
3DFACE
  8
0
1001
WEBCAD
1000
E71_1779410802142
 10
271.196533203125
 20
214.90196228027344
 30
94.41194152832031
 11
273.4620361328125
 21
214.90196228027344
 31
90.1734848022461
 12
273.4620361328125
 22
144.90196228027344
 32
90.1734848022461
 13
273.4620361328125
 23
144.90196228027344
 33
90.1734848022461
  0
3DFACE
  8
0
1001
WEBCAD
1000
E71_1779410802142
 10
271.196533203125
 20
214.90196228027344
 30
94.41194152832031
 11
273.4620361328125
 21
144.90196228027344
 31
90.1734848022461
 12
271.196533203125
 22
144.90196228027344
 32
94.41194152832031
 13
271.196533203125
 23
144.90196228027344
 33
94.41194152832031
  0
3DFACE
  8
0
1001
WEBCAD
1000
E71_1779410802142
 10
274.8571472167969
 20
214.90196228027344
 30
85.5744857788086
 11
275.32818603515625
 21
214.90196228027344
 31
80.79169464111328
 12
275.32818603515625
 22
144.90196228027344
 32
80.79169464111328
 13
275.32818603515625
 23
144.90196228027344
 33
80.79169464111328
  0
3DFACE
  8
0
1001
WEBCAD
1000
E71_1779410802142
 10
274.8571472167969
 20
214.90196228027344
 30
85.5744857788086
 11
275.32818603515625
 21
144.90196228027344
 31
80.79169464111328
 12
274.8571472167969
 22
144.90196228027344
 32
85.5744857788086
 13
274.8571472167969
 23
144.90196228027344
 33
85.5744857788086
  0
3DFACE
  8
0
1001
WEBCAD
1000
E71_1779410802142
 10
271.196533203125
 20
214.90196228027344
 30
94.41194152832031
 11
271.196533203125
 21
144.90196228027344
 31
94.41194152832031
 12
268.1476745605469
 22
144.90196228027344
 32
98.12698364257812
 13
268.1476745605469
 23
144.90196228027344
 33
98.12698364257812
  0
3DFACE
  8
0
1001
WEBCAD
1000
E71_1779410802142
 10
268.1476745605469
 20
214.90196228027344
 30
98.12698364257812
 11
271.196533203125
 21
214.90196228027344
 31
94.41194152832031
 12
268.1476745605469
 22
144.90196228027344
 32
98.12698364257812
 13
268.1476745605469
 23
144.90196228027344
 33
98.12698364257812
  0
3DFACE
  8
0
1001
WEBCAD
1000
E71_1779410802142
 10
275.32818603515625
 20
214.90196228027344
 30
80.79169464111328
 11
274.8571472167969
 21
214.90196228027344
 31
76.00889587402344
 12
274.8571472167969
 22
144.90196228027344
 32
76.00889587402344
 13
274.8571472167969
 23
144.90196228027344
 33
76.00889587402344
  0
3DFACE
  8
0
1001
WEBCAD
1000
E71_1779410802142
 10
275.32818603515625
 20
214.90196228027344
 30
80.79169464111328
 11
274.8571472167969
 21
144.90196228027344
 31
76.00889587402344
 12
275.32818603515625
 22
144.90196228027344
 32
80.79169464111328
 13
275.32818603515625
 23
144.90196228027344
 33
80.79169464111328
  0
3DFACE
  8
0
1001
WEBCAD
1000
E71_1779410802142
 10
264.4326477050781
 20
214.90196228027344
 30
101.17583465576172
 11
268.1476745605469
 21
214.90196228027344
 31
98.12698364257812
 12
268.1476745605469
 22
144.90196228027344
 32
98.12698364257812
 13
268.1476745605469
 23
144.90196228027344
 33
98.12698364257812
  0
3DFACE
  8
0
1001
WEBCAD
1000
E71_1779410802142
 10
264.4326477050781
 20
214.90196228027344
 30
101.17583465576172
 11
268.1476745605469
 21
144.90196228027344
 31
98.12698364257812
 12
264.4326477050781
 22
144.90196228027344
 32
101.17583465576172
 13
264.4326477050781
 23
144.90196228027344
 33
101.17583465576172
  0
3DFACE
  8
0
1001
WEBCAD
1000
E71_1779410802142
 10
274.8571472167969
 20
214.90196228027344
 30
76.00889587402344
 11
273.4620361328125
 21
214.90196228027344
 31
71.40990447998047
 12
273.4620361328125
 22
144.90196228027344
 32
71.40990447998047
 13
273.4620361328125
 23
144.90196228027344
 33
71.40990447998047
  0
3DFACE
  8
0
1001
WEBCAD
1000
E71_1779410802142
 10
274.8571472167969
 20
214.90196228027344
 30
76.00889587402344
 11
273.4620361328125
 21
144.90196228027344
 31
71.40990447998047
 12
274.8571472167969
 22
144.90196228027344
 32
76.00889587402344
 13
274.8571472167969
 23
144.90196228027344
 33
76.00889587402344
  0
3DFACE
  8
0
1001
WEBCAD
1000
E71_1779410802142
 10
260.1941833496094
 20
214.90196228027344
 30
103.44133758544922
 11
264.4326477050781
 21
214.90196228027344
 31
101.17583465576172
 12
264.4326477050781
 22
144.90196228027344
 32
101.17583465576172
 13
264.4326477050781
 23
144.90196228027344
 33
101.17583465576172
  0
3DFACE
  8
0
1001
WEBCAD
1000
E71_1779410802142
 10
260.1941833496094
 20
214.90196228027344
 30
103.44133758544922
 11
264.4326477050781
 21
144.90196228027344
 31
101.17583465576172
 12
260.1941833496094
 22
144.90196228027344
 32
103.44133758544922
 13
260.1941833496094
 23
144.90196228027344
 33
103.44133758544922
  0
3DFACE
  8
0
1001
WEBCAD
1000
E71_1779410802142
 10
273.4620361328125
 20
214.90196228027344
 30
71.40990447998047
 11
271.196533203125
 21
214.90196228027344
 31
67.17144012451172
 12
271.196533203125
 22
144.90196228027344
 32
67.17144012451172
 13
271.196533203125
 23
144.90196228027344
 33
67.17144012451172
  0
3DFACE
  8
0
1001
WEBCAD
1000
E71_1779410802142
 10
273.4620361328125
 20
214.90196228027344
 30
71.40990447998047
 11
271.196533203125
 21
144.90196228027344
 31
67.17144012451172
 12
273.4620361328125
 22
144.90196228027344
 32
71.40990447998047
 13
273.4620361328125
 23
144.90196228027344
 33
71.40990447998047
  0
3DFACE
  8
0
1001
WEBCAD
1000
E71_1779410802142
 10
260.1941833496094
 20
214.90196228027344
 30
103.44133758544922
 11
260.1941833496094
 21
144.90196228027344
 31
103.44133758544922
 12
255.59519958496094
 22
144.90196228027344
 32
104.83642578125
 13
255.59519958496094
 23
144.90196228027344
 33
104.83642578125
  0
3DFACE
  8
0
1001
WEBCAD
1000
E71_1779410802142
 10
255.59519958496094
 20
214.90196228027344
 30
104.83642578125
 11
260.1941833496094
 21
214.90196228027344
 31
103.44133758544922
 12
255.59519958496094
 22
144.90196228027344
 32
104.83642578125
 13
255.59519958496094
 23
144.90196228027344
 33
104.83642578125
  0
3DFACE
  8
0
1001
WEBCAD
1000
E71_1779410802142
 10
268.1476745605469
 20
214.90196228027344
 30
63.45640563964844
 11
268.1476745605469
 21
144.90196228027344
 31
63.45640563964844
 12
271.196533203125
 22
144.90196228027344
 32
67.17144012451172
 13
271.196533203125
 23
144.90196228027344
 33
67.17144012451172
  0
3DFACE
  8
0
1001
WEBCAD
1000
E71_1779410802142
 10
271.196533203125
 20
214.90196228027344
 30
67.17144012451172
 11
268.1476745605469
 21
214.90196228027344
 31
63.45640563964844
 12
271.196533203125
 22
144.90196228027344
 32
67.17144012451172
 13
271.196533203125
 23
144.90196228027344
 33
67.17144012451172
  0
3DFACE
  8
0
1001
WEBCAD
1000
E71_1779410802142
 10
250.81239318847656
 20
214.90196228027344
 30
105.3074951171875
 11
255.59519958496094
 21
214.90196228027344
 31
104.83642578125
 12
255.59519958496094
 22
144.90196228027344
 32
104.83642578125
 13
255.59519958496094
 23
144.90196228027344
 33
104.83642578125
  0
3DFACE
  8
0
1001
WEBCAD
1000
E71_1779410802142
 10
250.81239318847656
 20
214.90196228027344
 30
105.3074951171875
 11
255.59519958496094
 21
144.90196228027344
 31
104.83642578125
 12
250.81239318847656
 22
144.90196228027344
 32
105.3074951171875
 13
250.81239318847656
 23
144.90196228027344
 33
105.3074951171875
  0
3DFACE
  8
0
1001
WEBCAD
1000
E71_1779410802142
 10
268.1476745605469
 20
214.90196228027344
 30
63.45640563964844
 11
264.4326477050781
 21
214.90196228027344
 31
60.40755081176758
 12
264.4326477050781
 22
144.90196228027344
 32
60.40755081176758
 13
264.4326477050781
 23
144.90196228027344
 33
60.40755081176758
  0
3DFACE
  8
0
1001
WEBCAD
1000
E71_1779410802142
 10
268.1476745605469
 20
214.90196228027344
 30
63.45640563964844
 11
264.4326477050781
 21
144.90196228027344
 31
60.40755081176758
 12
268.1476745605469
 22
144.90196228027344
 32
63.45640563964844
 13
268.1476745605469
 23
144.90196228027344
 33
63.45640563964844
  0
3DFACE
  8
0
1001
WEBCAD
1000
E71_1779410802142
 10
246.02960205078125
 20
214.90196228027344
 30
104.83642578125
 11
250.81239318847656
 21
214.90196228027344
 31
105.3074951171875
 12
250.81239318847656
 22
144.90196228027344
 32
105.3074951171875
 13
250.81239318847656
 23
144.90196228027344
 33
105.3074951171875
  0
3DFACE
  8
0
1001
WEBCAD
1000
E71_1779410802142
 10
246.02960205078125
 20
214.90196228027344
 30
104.83642578125
 11
250.81239318847656
 21
144.90196228027344
 31
105.3074951171875
 12
246.02960205078125
 22
144.90196228027344
 32
104.83642578125
 13
246.02960205078125
 23
144.90196228027344
 33
104.83642578125
  0
3DFACE
  8
0
1001
WEBCAD
1000
E71_1779410802142
 10
264.4326477050781
 20
214.90196228027344
 30
60.40755081176758
 11
260.1941833496094
 21
214.90196228027344
 31
58.14204788208008
 12
260.1941833496094
 22
144.90196228027344
 32
58.14204788208008
 13
260.1941833496094
 23
144.90196228027344
 33
58.14204788208008
  0
3DFACE
  8
0
1001
WEBCAD
1000
E71_1779410802142
 10
264.4326477050781
 20
214.90196228027344
 30
60.40755081176758
 11
260.1941833496094
 21
144.90196228027344
 31
58.14204788208008
 12
264.4326477050781
 22
144.90196228027344
 32
60.40755081176758
 13
264.4326477050781
 23
144.90196228027344
 33
60.40755081176758
  0
3DFACE
  8
0
1001
WEBCAD
1000
E71_1779410802142
 10
246.02960205078125
 20
214.90196228027344
 30
104.83642578125
 11
246.02960205078125
 21
144.90196228027344
 31
104.83642578125
 12
241.43060302734375
 22
144.90196228027344
 32
103.44133758544922
 13
241.43060302734375
 23
144.90196228027344
 33
103.44133758544922
  0
3DFACE
  8
0
1001
WEBCAD
1000
E71_1779410802142
 10
241.43060302734375
 20
214.90196228027344
 30
103.44133758544922
 11
246.02960205078125
 21
214.90196228027344
 31
104.83642578125
 12
241.43060302734375
 22
144.90196228027344
 32
103.44133758544922
 13
241.43060302734375
 23
144.90196228027344
 33
103.44133758544922
  0
3DFACE
  8
0
1001
WEBCAD
1000
E71_1779410802142
 10
260.1941833496094
 20
214.90196228027344
 30
58.14204788208008
 11
255.59519958496094
 21
214.90196228027344
 31
56.74695587158203
 12
255.59519958496094
 22
144.90196228027344
 32
56.74695587158203
 13
255.59519958496094
 23
144.90196228027344
 33
56.74695587158203
  0
3DFACE
  8
0
1001
WEBCAD
1000
E71_1779410802142
 10
260.1941833496094
 20
214.90196228027344
 30
58.14204788208008
 11
255.59519958496094
 21
144.90196228027344
 31
56.74695587158203
 12
260.1941833496094
 22
144.90196228027344
 32
58.14204788208008
 13
260.1941833496094
 23
144.90196228027344
 33
58.14204788208008
  0
3DFACE
  8
0
1001
WEBCAD
1000
E71_1779410802142
 10
237.19215393066406
 20
214.90196228027344
 30
101.17583465576172
 11
241.43060302734375
 21
214.90196228027344
 31
103.44133758544922
 12
241.43060302734375
 22
144.90196228027344
 32
103.44133758544922
 13
241.43060302734375
 23
144.90196228027344
 33
103.44133758544922
  0
3DFACE
  8
0
1001
WEBCAD
1000
E71_1779410802142
 10
237.19215393066406
 20
214.90196228027344
 30
101.17583465576172
 11
241.43060302734375
 21
144.90196228027344
 31
103.44133758544922
 12
237.19215393066406
 22
144.90196228027344
 32
101.17583465576172
 13
237.19215393066406
 23
144.90196228027344
 33
101.17583465576172
  0
3DFACE
  8
0
1001
WEBCAD
1000
E71_1779410802142
 10
255.59519958496094
 20
214.90196228027344
 30
56.74695587158203
 11
250.81239318847656
 21
214.90196228027344
 31
56.27589416503906
 12
250.81239318847656
 22
144.90196228027344
 32
56.27589416503906
 13
250.81239318847656
 23
144.90196228027344
 33
56.27589416503906
  0
3DFACE
  8
0
1001
WEBCAD
1000
E71_1779410802142
 10
255.59519958496094
 20
214.90196228027344
 30
56.74695587158203
 11
250.81239318847656
 21
144.90196228027344
 31
56.27589416503906
 12
255.59519958496094
 22
144.90196228027344
 32
56.74695587158203
 13
255.59519958496094
 23
144.90196228027344
 33
56.74695587158203
  0
3DFACE
  8
0
1001
WEBCAD
1000
E71_1779410802142
 10
233.47711181640625
 20
214.90196228027344
 30
98.12698364257812
 11
237.19215393066406
 21
214.90196228027344
 31
101.17583465576172
 12
237.19215393066406
 22
144.90196228027344
 32
101.17583465576172
 13
237.19215393066406
 23
144.90196228027344
 33
101.17583465576172
  0
3DFACE
  8
0
1001
WEBCAD
1000
E71_1779410802142
 10
233.47711181640625
 20
214.90196228027344
 30
98.12698364257812
 11
237.19215393066406
 21
144.90196228027344
 31
101.17583465576172
 12
233.47711181640625
 22
144.90196228027344
 32
98.12698364257812
 13
233.47711181640625
 23
144.90196228027344
 33
98.12698364257812
  0
3DFACE
  8
0
1001
WEBCAD
1000
E71_1779410802142
 10
250.81239318847656
 20
214.90196228027344
 30
56.27589416503906
 11
246.02960205078125
 21
214.90196228027344
 31
56.74695587158203
 12
246.02960205078125
 22
144.90196228027344
 32
56.74695587158203
 13
246.02960205078125
 23
144.90196228027344
 33
56.74695587158203
  0
3DFACE
  8
0
1001
WEBCAD
1000
E71_1779410802142
 10
250.81239318847656
 20
214.90196228027344
 30
56.27589416503906
 11
246.02960205078125
 21
144.90196228027344
 31
56.74695587158203
 12
250.81239318847656
 22
144.90196228027344
 32
56.27589416503906
 13
250.81239318847656
 23
144.90196228027344
 33
56.27589416503906
  0
3DFACE
  8
0
1001
WEBCAD
1000
E71_1779410802142
 10
230.42825317382812
 20
214.90196228027344
 30
94.41194152832031
 11
233.47711181640625
 21
214.90196228027344
 31
98.12698364257812
 12
233.47711181640625
 22
144.90196228027344
 32
98.12698364257812
 13
233.47711181640625
 23
144.90196228027344
 33
98.12698364257812
  0
3DFACE
  8
0
1001
WEBCAD
1000
E71_1779410802142
 10
230.42825317382812
 20
214.90196228027344
 30
94.41194152832031
 11
233.47711181640625
 21
144.90196228027344
 31
98.12698364257812
 12
230.42825317382812
 22
144.90196228027344
 32
94.41194152832031
 13
230.42825317382812
 23
144.90196228027344
 33
94.41194152832031
  0
3DFACE
  8
0
1001
WEBCAD
1000
E71_1779410802142
 10
241.43060302734375
 20
214.90196228027344
 30
58.14204788208008
 11
241.43060302734375
 21
144.90196228027344
 31
58.14204788208008
 12
246.02960205078125
 22
144.90196228027344
 32
56.74695587158203
 13
246.02960205078125
 23
144.90196228027344
 33
56.74695587158203
  0
3DFACE
  8
0
1001
WEBCAD
1000
E71_1779410802142
 10
246.02960205078125
 20
214.90196228027344
 30
56.74695587158203
 11
241.43060302734375
 21
214.90196228027344
 31
58.14204788208008
 12
246.02960205078125
 22
144.90196228027344
 32
56.74695587158203
 13
246.02960205078125
 23
144.90196228027344
 33
56.74695587158203
  0
3DFACE
  8
0
1001
WEBCAD
1000
E71_1779410802142
 10
228.16275024414062
 20
214.90196228027344
 30
90.1734848022461
 11
230.42825317382812
 21
214.90196228027344
 31
94.41194152832031
 12
230.42825317382812
 22
144.90196228027344
 32
94.41194152832031
 13
230.42825317382812
 23
144.90196228027344
 33
94.41194152832031
  0
3DFACE
  8
0
1001
WEBCAD
1000
E71_1779410802142
 10
228.16275024414062
 20
214.90196228027344
 30
90.1734848022461
 11
230.42825317382812
 21
144.90196228027344
 31
94.41194152832031
 12
228.16275024414062
 22
144.90196228027344
 32
90.1734848022461
 13
228.16275024414062
 23
144.90196228027344
 33
90.1734848022461
  0
3DFACE
  8
0
1001
WEBCAD
1000
E71_1779410802142
 10
241.43060302734375
 20
214.90196228027344
 30
58.14204788208008
 11
237.19215393066406
 21
214.90196228027344
 31
60.40755081176758
 12
237.19215393066406
 22
144.90196228027344
 32
60.40755081176758
 13
237.19215393066406
 23
144.90196228027344
 33
60.40755081176758
  0
3DFACE
  8
0
1001
WEBCAD
1000
E71_1779410802142
 10
241.43060302734375
 20
214.90196228027344
 30
58.14204788208008
 11
237.19215393066406
 21
144.90196228027344
 31
60.40755081176758
 12
241.43060302734375
 22
144.90196228027344
 32
58.14204788208008
 13
241.43060302734375
 23
144.90196228027344
 33
58.14204788208008
  0
3DFACE
  8
0
1001
WEBCAD
1000
E71_1779410802142
 10
226.76766967773438
 20
214.90196228027344
 30
85.5744857788086
 11
228.16275024414062
 21
214.90196228027344
 31
90.1734848022461
 12
228.16275024414062
 22
144.90196228027344
 32
90.1734848022461
 13
228.16275024414062
 23
144.90196228027344
 33
90.1734848022461
  0
3DFACE
  8
0
1001
WEBCAD
1000
E71_1779410802142
 10
226.76766967773438
 20
214.90196228027344
 30
85.5744857788086
 11
228.16275024414062
 21
144.90196228027344
 31
90.1734848022461
 12
226.76766967773438
 22
144.90196228027344
 32
85.5744857788086
 13
226.76766967773438
 23
144.90196228027344
 33
85.5744857788086
  0
3DFACE
  8
0
1001
WEBCAD
1000
E71_1779410802142
 10
237.19215393066406
 20
214.90196228027344
 30
60.40755081176758
 11
233.47711181640625
 21
214.90196228027344
 31
63.45640563964844
 12
233.47711181640625
 22
144.90196228027344
 32
63.45640563964844
 13
233.47711181640625
 23
144.90196228027344
 33
63.45640563964844
  0
3DFACE
  8
0
1001
WEBCAD
1000
E71_1779410802142
 10
237.19215393066406
 20
214.90196228027344
 30
60.40755081176758
 11
233.47711181640625
 21
144.90196228027344
 31
63.45640563964844
 12
237.19215393066406
 22
144.90196228027344
 32
60.40755081176758
 13
237.19215393066406
 23
144.90196228027344
 33
60.40755081176758
  0
3DFACE
  8
0
1001
WEBCAD
1000
E71_1779410802142
 10
226.29660034179688
 20
214.90196228027344
 30
80.79169464111328
 11
226.76766967773438
 21
214.90196228027344
 31
85.5744857788086
 12
226.76766967773438
 22
144.90196228027344
 32
85.5744857788086
 13
226.76766967773438
 23
144.90196228027344
 33
85.5744857788086
  0
3DFACE
  8
0
1001
WEBCAD
1000
E71_1779410802142
 10
226.29660034179688
 20
214.90196228027344
 30
80.79169464111328
 11
226.76766967773438
 21
144.90196228027344
 31
85.5744857788086
 12
226.29660034179688
 22
144.90196228027344
 32
80.79169464111328
 13
226.29660034179688
 23
144.90196228027344
 33
80.79169464111328
  0
3DFACE
  8
0
1001
WEBCAD
1000
E71_1779410802142
 10
233.47711181640625
 20
214.90196228027344
 30
63.45640563964844
 11
230.42825317382812
 21
214.90196228027344
 31
67.17144012451172
 12
230.42825317382812
 22
144.90196228027344
 32
67.17144012451172
 13
230.42825317382812
 23
144.90196228027344
 33
67.17144012451172
  0
3DFACE
  8
0
1001
WEBCAD
1000
E71_1779410802142
 10
233.47711181640625
 20
214.90196228027344
 30
63.45640563964844
 11
230.42825317382812
 21
144.90196228027344
 31
67.17144012451172
 12
233.47711181640625
 22
144.90196228027344
 32
63.45640563964844
 13
233.47711181640625
 23
144.90196228027344
 33
63.45640563964844
  0
3DFACE
  8
0
1001
WEBCAD
1000
E71_1779410802142
 10
226.76766967773438
 20
214.90196228027344
 30
76.00889587402344
 11
226.29660034179688
 21
214.90196228027344
 31
80.79169464111328
 12
226.29660034179688
 22
144.90196228027344
 32
80.79169464111328
 13
226.29660034179688
 23
144.90196228027344
 33
80.79169464111328
  0
3DFACE
  8
0
1001
WEBCAD
1000
E71_1779410802142
 10
226.76766967773438
 20
214.90196228027344
 30
76.00889587402344
 11
226.29660034179688
 21
144.90196228027344
 31
80.79169464111328
 12
226.76766967773438
 22
144.90196228027344
 32
76.00889587402344
 13
226.76766967773438
 23
144.90196228027344
 33
76.00889587402344
  0
3DFACE
  8
0
1001
WEBCAD
1000
E71_1779410802142
 10
230.42825317382812
 20
214.90196228027344
 30
67.17144012451172
 11
228.16275024414062
 21
214.90196228027344
 31
71.40990447998047
 12
228.16275024414062
 22
144.90196228027344
 32
71.40990447998047
 13
228.16275024414062
 23
144.90196228027344
 33
71.40990447998047
  0
3DFACE
  8
0
1001
WEBCAD
1000
E71_1779410802142
 10
230.42825317382812
 20
214.90196228027344
 30
67.17144012451172
 11
228.16275024414062
 21
144.90196228027344
 31
71.40990447998047
 12
230.42825317382812
 22
144.90196228027344
 32
67.17144012451172
 13
230.42825317382812
 23
144.90196228027344
 33
67.17144012451172
  0
3DFACE
  8
0
1001
WEBCAD
1000
E71_1779410802142
 10
226.76766967773438
 20
214.90196228027344
 30
76.00889587402344
 11
226.76766967773438
 21
144.90196228027344
 31
76.00889587402344
 12
228.16275024414062
 22
144.90196228027344
 32
71.40990447998047
 13
228.16275024414062
 23
144.90196228027344
 33
71.40990447998047
  0
3DFACE
  8
0
1001
WEBCAD
1000
E71_1779410802142
 10
228.16275024414062
 20
214.90196228027344
 30
71.40990447998047
 11
226.76766967773438
 21
214.90196228027344
 31
76.00889587402344
 12
228.16275024414062
 22
144.90196228027344
 32
71.40990447998047
 13
228.16275024414062
 23
144.90196228027344
 33
71.40990447998047
  0
3DFACE
  8
0
1001
WEBCAD
1000
E71_1779410802142
 10
1.2434497875801753e-14
 20
-20.098033905029297
 30
210.12498474121094
 11
5
 21
-25.098033905029297
 31
210.12498474121094
 12
2.5
 22
-22.598033905029297
 32
212.62498474121094
 13
2.5
 23
-22.598033905029297
 33
212.62498474121094
  0
3DFACE
  8
0
1001
WEBCAD
1000
E71_1779410802142
 10
5
 20
-25.098033905029297
 30
25.124982833862305
 11
5
 21
-25.098033905029297
 31
210.12498474121094
 12
1.2434497875801753e-14
 22
-20.098033905029297
 32
210.12498474121094
 13
1.2434497875801753e-14
 23
-20.098033905029297
 33
210.12498474121094
  0
3DFACE
  8
0
1001
WEBCAD
1000
E71_1779410802142
 10
-2.6645352591003757e-14
 20
-20.098033905029297
 30
25.124982833862305
 11
5
 21
-25.098033905029297
 31
25.124982833862305
 12
1.2434497875801753e-14
 22
-20.098033905029297
 32
210.12498474121094
 13
1.2434497875801753e-14
 23
-20.098033905029297
 33
210.12498474121094
  0
3DFACE
  8
0
1001
WEBCAD
1000
E71_1779410802142
 10
5
 20
-25.098033905029297
 30
210.12498474121094
 11
112.5
 21
-25.098033905029297
 31
210.12498474121094
 12
107.5
 22
-20.098033905029297
 32
215.12498474121094
 13
107.5
 23
-20.098033905029297
 33
215.12498474121094
  0
3DFACE
  8
0
1001
WEBCAD
1000
E71_1779410802142
 10
5
 20
-20.098033905029297
 30
215.12498474121094
 11
2.5
 21
-22.598033905029297
 31
212.62498474121094
 12
5
 22
-25.098033905029297
 32
210.12498474121094
 13
5
 23
-25.098033905029297
 33
210.12498474121094
  0
3DFACE
  8
0
1001
WEBCAD
1000
E71_1779410802142
 10
5
 20
-20.098033905029297
 30
215.12498474121094
 11
5
 21
-25.098033905029297
 31
210.12498474121094
 12
107.5
 22
-20.098033905029297
 32
215.12498474121094
 13
107.5
 23
-20.098033905029297
 33
215.12498474121094
  0
3DFACE
  8
0
1001
WEBCAD
1000
E71_1779410802142
 10
0
 20
214.90196228027344
 30
210.12498474121094
 11
-2.6645352591003757e-14
 21
-20.098033905029297
 31
25.124982833862305
 12
1.2434497875801753e-14
 22
-20.098033905029297
 32
210.12498474121094
 13
1.2434497875801753e-14
 23
-20.098033905029297
 33
210.12498474121094
  0
3DFACE
  8
0
1001
WEBCAD
1000
E71_1779410802142
 10
0
 20
214.90196228027344
 30
25.124982833862305
 11
-2.6645352591003757e-14
 21
-20.098033905029297
 31
25.124982833862305
 12
0
 22
214.90196228027344
 32
210.12498474121094
 13
0
 23
214.90196228027344
 33
210.12498474121094
  0
3DFACE
  8
0
1001
WEBCAD
1000
E71_1779410802142
 10
107.5
 20
209.90196228027344
 30
215.12498474121094
 11
5
 21
-20.098033905029297
 31
215.12498474121094
 12
107.5
 22
-20.098033905029297
 32
215.12498474121094
 13
107.5
 23
-20.098033905029297
 33
215.12498474121094
  0
3DFACE
  8
0
1001
WEBCAD
1000
E71_1779410802142
 10
5
 20
209.90196228027344
 30
215.12498474121094
 11
5
 21
-20.098033905029297
 31
215.12498474121094
 12
107.5
 22
209.90196228027344
 32
215.12498474121094
 13
107.5
 23
209.90196228027344
 33
215.12498474121094
  0
3DFACE
  8
0
1001
WEBCAD
1000
E71_1779410802142
 10
5
 20
209.90196228027344
 30
215.12498474121094
 11
107.5
 21
209.90196228027344
 31
215.12498474121094
 12
112.5
 22
214.90196228027344
 32
210.12498474121094
 13
112.5
 23
214.90196228027344
 33
210.12498474121094
  0
3DFACE
  8
0
1001
WEBCAD
1000
E71_1779410802142
 10
5
 20
209.90196228027344
 30
215.12498474121094
 11
112.5
 21
214.90196228027344
 31
210.12498474121094
 12
0
 22
214.90196228027344
 32
210.12498474121094
 13
0
 23
214.90196228027344
 33
210.12498474121094
  0
3DFACE
  8
0
1001
WEBCAD
1000
E71_1779410802142
 10
401
 20
214.90196228027344
 30
131.34373474121094
 11
397.8037109375
 21
144.90196228027344
 31
131.34373474121094
 12
397.8037109375
 22
214.90196228027344
 32
131.34373474121094
 13
397.8037109375
 23
214.90196228027344
 33
131.34373474121094
  0
3DFACE
  8
0
1001
WEBCAD
1000
E71_1779410802142
 10
401
 20
214.90196228027344
 30
131.34373474121094
 11
401
 21
144.90196228027344
 31
131.34373474121094
 12
397.8037109375
 22
144.90196228027344
 32
131.34373474121094
 13
397.8037109375
 23
144.90196228027344
 33
131.34373474121094
  0
3DFACE
  8
0
1001
WEBCAD
1000
E71_1779410802142
 10
1.2434497875801753e-14
 20
-20.098033905029297
 30
210.12498474121094
 11
5
 21
209.90196228027344
 31
215.12498474121094
 12
0
 22
214.90196228027344
 32
210.12498474121094
 13
0
 23
214.90196228027344
 33
210.12498474121094
  0
3DFACE
  8
0
1001
WEBCAD
1000
E71_1779410802142
 10
5
 20
-20.098033905029297
 30
215.12498474121094
 11
1.2434497875801753e-14
 21
-20.098033905029297
 31
210.12498474121094
 12
2.5
 22
-22.598033905029297
 32
212.62498474121094
 13
2.5
 23
-22.598033905029297
 33
212.62498474121094
  0
3DFACE
  8
0
1001
WEBCAD
1000
E71_1779410802142
 10
5
 20
-20.098033905029297
 30
215.12498474121094
 11
5
 21
209.90196228027344
 31
215.12498474121094
 12
1.2434497875801753e-14
 22
-20.098033905029297
 32
210.12498474121094
 13
1.2434497875801753e-14
 23
-20.098033905029297
 33
210.12498474121094
  0
ENDSEC
  0
EOF
