  0
SECTION
  2
HEADER
  9
$ACADVER
  1
AC1015
  0
ENDSEC
  0
SECTION
  2
TABLES
  0
TABLE
  2
LTYPE
 70
1
  0
LTYPE
  2
CONTINUOUS
 70
0
  3
Solid line
 72
65
 73
0
 40
0.0
  0
ENDTAB
  0
TABLE
  2
LAYER
 70
1
  0
LAYER
  2
0
 70
0
 62
7
  6
CONTINUOUS
  0
ENDTAB
  0
ENDSEC
  0
SECTION
  2
BLOCKS
  0
ENDSEC
  0
SECTION
  2
ENTITIES
  0
3DFACE
  8
0
1001
WEBCAD
1000
E2_1779429236698
1000
ROTATION:{"x":1.7070293278151467,"y":-0.6726100020737633,"z":0.08519946366419776}
1000
POSITION:{"x":141.71055603027344,"y":39.06857490539551,"z":66.78434467315674}
 10
133.28692626953125
 20
118.13884735107422
 30
23.621402740478516
 11
92.22029113769531
 21
67.05841827392578
 31
109.9472885131836
 12
127.10994720458984
 22
110.45565795898438
 32
115.89627075195312
 13
127.10994720458984
 23
110.45565795898438
 33
115.89627075195312
  0
3DFACE
  8
0
1001
WEBCAD
1000
E2_1779429236698
 10
98.39727020263672
 20
74.74160766601562
 30
17.67241859436035
 11
92.22029113769531
 21
67.05841827392578
 31
109.9472885131836
 12
133.28692626953125
 22
118.13884735107422
 32
23.621402740478516
 13
133.28692626953125
 23
118.13884735107422
 33
23.621402740478516
  0
3DFACE
  8
0
1001
WEBCAD
1000
E2_1779429236698
 10
204.98812866210938
 20
60.493927001953125
 30
23.621402740478516
 11
98.39727020263672
 21
74.74160766601562
 31
17.67241859436035
 12
133.28692626953125
 22
118.13884735107422
 32
23.621402740478516
 13
133.28692626953125
 23
118.13884735107422
 33
23.621402740478516
  0
3DFACE
  8
0
1001
WEBCAD
1000
E2_1779429236698
 10
170.09848022460938
 20
17.096689224243164
 30
17.67241859436035
 11
98.39727020263672
 21
74.74160766601562
 31
17.67241859436035
 12
204.98812866210938
 22
60.493927001953125
 32
23.621402740478516
 13
204.98812866210938
 23
60.493927001953125
 33
23.621402740478516
  0
3DFACE
  8
0
1001
WEBCAD
1000
E2_1779429236698
 10
163.3458709716797
 20
89.22891998291016
 30
58.226375579833984
 11
165.19517517089844
 21
88.0665512084961
 31
55.85991668701172
 12
133.28692626953125
 22
118.13884735107422
 32
23.621402740478516
 13
133.28692626953125
 23
118.13884735107422
 33
23.621402740478516
  0
3DFACE
  8
0
1001
WEBCAD
1000
E2_1779429236698
 10
167.24066162109375
 20
86.7076644897461
 30
53.7765007019043
 11
133.28692626953125
 21
118.13884735107422
 31
23.621402740478516
 12
165.19517517089844
 22
88.0665512084961
 32
55.85991668701172
 13
165.19517517089844
 23
88.0665512084961
 33
55.85991668701172
  0
3DFACE
  8
0
1001
WEBCAD
1000
E2_1779429236698
 10
161.72076416015625
 20
90.17715454101562
 30
60.84000778198242
 11
163.3458709716797
 21
89.22891998291016
 31
58.226375579833984
 12
133.28692626953125
 22
118.13884735107422
 32
23.621402740478516
 13
133.28692626953125
 23
118.13884735107422
 33
23.621402740478516
  0
3DFACE
  8
0
1001
WEBCAD
1000
E2_1779429236698
 10
169.45130920410156
 20
85.17286682128906
 30
52.007713317871094
 11
133.28692626953125
 21
118.13884735107422
 31
23.621402740478516
 12
167.24066162109375
 22
86.7076644897461
 32
53.7765007019043
 13
167.24066162109375
 23
86.7076644897461
 33
53.7765007019043
  0
3DFACE
  8
0
1001
WEBCAD
1000
E2_1779429236698
 10
160.34451293945312
 20
90.89688110351562
 30
63.661190032958984
 11
161.72076416015625
 21
90.17715454101562
 31
60.84000778198242
 12
133.28692626953125
 22
118.13884735107422
 32
23.621402740478516
 13
133.28692626953125
 23
118.13884735107422
 33
23.621402740478516
  0
3DFACE
  8
0
1001
WEBCAD
1000
E2_1779429236698
 10
171.79360961914062
 20
83.48541259765625
 30
50.58036422729492
 11
133.28692626953125
 21
118.13884735107422
 31
23.621402740478516
 12
169.45130920410156
 22
85.17286682128906
 32
52.007713317871094
 13
169.45130920410156
 23
85.17286682128906
 33
52.007713317871094
  0
3DFACE
  8
0
1001
WEBCAD
1000
E2_1779429236698
 10
159.2379608154297
 20
91.37718963623047
 30
66.64716339111328
 11
160.34451293945312
 21
90.89688110351562
 31
63.661190032958984
 12
133.28692626953125
 22
118.13884735107422
 32
23.621402740478516
 13
133.28692626953125
 23
118.13884735107422
 33
23.621402740478516
  0
3DFACE
  8
0
1001
WEBCAD
1000
E2_1779429236698
 10
174.2320556640625
 20
81.67089080810547
 30
49.51609802246094
 11
133.28692626953125
 21
118.13884735107422
 31
23.621402740478516
 12
171.79360961914062
 22
83.48541259765625
 32
50.58036422729492
 13
171.79360961914062
 23
83.48541259765625
 33
50.58036422729492
  0
3DFACE
  8
0
1001
WEBCAD
1000
E2_1779429236698
 10
158.41787719726562
 20
91.61079406738281
 30
69.75265502929688
 11
159.2379608154297
 21
91.37718963623047
 31
66.64716339111328
 12
133.28692626953125
 22
118.13884735107422
 32
23.621402740478516
 13
133.28692626953125
 23
118.13884735107422
 33
23.621402740478516
  0
3DFACE
  8
0
1001
WEBCAD
1000
E2_1779429236698
 10
176.72967529296875
 20
79.75680541992188
 30
48.83103942871094
 11
133.28692626953125
 21
118.13884735107422
 31
23.621402740478516
 12
174.2320556640625
 22
81.67089080810547
 32
49.51609802246094
 13
174.2320556640625
 23
81.67089080810547
 33
49.51609802246094
  0
3DFACE
  8
0
1001
WEBCAD
1000
E2_1779429236698
 10
157.89669799804688
 20
91.59415435791016
 30
72.93058776855469
 11
158.41787719726562
 21
91.61079406738281
 31
69.75265502929688
 12
133.28692626953125
 22
118.13884735107422
 32
23.621402740478516
 13
133.28692626953125
 23
118.13884735107422
 33
23.621402740478516
  0
3DFACE
  8
0
1001
WEBCAD
1000
E2_1779429236698
 10
204.98812866210938
 20
60.493927001953125
 30
23.621402740478516
 11
176.72967529296875
 21
79.75680541992188
 31
48.83103942871094
 12
179.24862670898438
 22
77.77217864990234
 32
48.53557586669922
 13
179.24862670898438
 23
77.77217864990234
 33
48.53557586669922
  0
3DFACE
  8
0
1001
WEBCAD
1000
E2_1779429236698
 10
204.98812866210938
 20
60.493927001953125
 30
23.621402740478516
 11
179.24862670898438
 21
77.77217864990234
 31
48.53557586669922
 12
181.75071716308594
 22
75.74707794189453
 32
48.63418960571289
 13
181.75071716308594
 23
75.74707794189453
 33
48.63418960571289
  0
3DFACE
  8
0
1001
WEBCAD
1000
E2_1779429236698
 10
204.98812866210938
 20
60.493927001953125
 30
23.621402740478516
 11
133.28692626953125
 21
118.13884735107422
 31
23.621402740478516
 12
176.72967529296875
 22
79.75680541992188
 32
48.83103942871094
 13
176.72967529296875
 23
79.75680541992188
 33
48.83103942871094
  0
3DFACE
  8
0
1001
WEBCAD
1000
E2_1779429236698
 10
127.10994720458984
 20
110.45565795898438
 30
115.89627075195312
 11
157.77804565429688
 21
90.81494140625
 31
79.31073760986328
 12
157.68234252929688
 22
91.32752227783203
 32
76.13279724121094
 13
157.68234252929688
 23
91.32752227783203
 33
76.13279724121094
  0
3DFACE
  8
0
1001
WEBCAD
1000
E2_1779429236698
 10
127.10994720458984
 20
110.45565795898438
 30
115.89627075195312
 11
157.68234252929688
 21
91.32752227783203
 31
76.13279724121094
 12
157.89669799804688
 22
91.59415435791016
 32
72.93058776855469
 13
157.89669799804688
 23
91.59415435791016
 33
72.93058776855469
  0
3DFACE
  8
0
1001
WEBCAD
1000
E2_1779429236698
 10
127.10994720458984
 20
110.45565795898438
 30
115.89627075195312
 11
157.89669799804688
 21
91.59415435791016
 31
72.93058776855469
 12
133.28692626953125
 22
118.13884735107422
 32
23.621402740478516
 13
133.28692626953125
 23
118.13884735107422
 33
23.621402740478516
  0
3DFACE
  8
0
1001
WEBCAD
1000
E2_1779429236698
 10
184.19801330566406
 20
73.71221923828125
 30
49.12538146972656
 11
204.98812866210938
 21
60.493927001953125
 31
23.621402740478516
 12
181.75071716308594
 22
75.74707794189453
 32
48.63418960571289
 13
181.75071716308594
 23
75.74707794189453
 33
48.63418960571289
  0
3DFACE
  8
0
1001
WEBCAD
1000
E2_1779429236698
 10
158.18235778808594
 20
90.0641860961914
 30
82.41622924804688
 11
157.77804565429688
 21
90.81494140625
 31
79.31073760986328
 12
127.10994720458984
 22
110.45565795898438
 32
115.89627075195312
 13
127.10994720458984
 23
110.45565795898438
 33
115.89627075195312
  0
3DFACE
  8
0
1001
WEBCAD
1000
E2_1779429236698
 10
186.55340576171875
 20
71.69844055175781
 30
50.001705169677734
 11
204.98812866210938
 21
60.493927001953125
 31
23.621402740478516
 12
184.19801330566406
 22
73.71221923828125
 32
49.12538146972656
 13
184.19801330566406
 23
73.71221923828125
 33
49.12538146972656
  0
3DFACE
  8
0
1001
WEBCAD
1000
E2_1779429236698
 10
158.88914489746094
 20
89.08663940429688
 30
85.4021987915039
 11
158.18235778808594
 21
90.0641860961914
 31
82.41622924804688
 12
127.10994720458984
 22
110.45565795898438
 32
115.89627075195312
 13
127.10994720458984
 23
110.45565795898438
 33
115.89627075195312
  0
3DFACE
  8
0
1001
WEBCAD
1000
E2_1779429236698
 10
188.78121948242188
 20
69.73626708984375
 30
51.249881744384766
 11
204.98812866210938
 21
60.493927001953125
 31
23.621402740478516
 12
186.55340576171875
 22
71.69844055175781
 32
50.001705169677734
 13
186.55340576171875
 23
71.69844055175781
 33
50.001705169677734
  0
3DFACE
  8
0
1001
WEBCAD
1000
E2_1779429236698
 10
159.8876953125
 20
87.89710235595703
 30
88.22338104248047
 11
158.88914489746094
 21
89.08663940429688
 31
85.4021987915039
 12
127.10994720458984
 22
110.45565795898438
 32
115.89627075195312
 13
127.10994720458984
 23
110.45565795898438
 33
115.89627075195312
  0
3DFACE
  8
0
1001
WEBCAD
1000
E2_1779429236698
 10
190.84765625
 20
67.85545349121094
 30
52.85098648071289
 11
204.98812866210938
 21
60.493927001953125
 31
23.621402740478516
 12
188.78121948242188
 22
69.73626708984375
 32
51.249881744384766
 13
188.78121948242188
 23
69.73626708984375
 33
51.249881744384766
  0
3DFACE
  8
0
1001
WEBCAD
1000
E2_1779429236698
 10
161.1628875732422
 20
86.51362609863281
 30
90.8370132446289
 11
159.8876953125
 21
87.89710235595703
 31
88.22338104248047
 12
127.10994720458984
 22
110.45565795898438
 32
115.89627075195312
 13
127.10994720458984
 23
110.45565795898438
 33
115.89627075195312
  0
3DFACE
  8
0
1001
WEBCAD
1000
E2_1779429236698
 10
192.72140502929688
 20
66.08450317382812
 30
54.78074645996094
 11
204.98812866210938
 21
60.493927001953125
 31
23.621402740478516
 12
190.84765625
 22
67.85545349121094
 32
52.85098648071289
 13
190.84765625
 23
67.85545349121094
 33
52.85098648071289
  0
3DFACE
  8
0
1001
WEBCAD
1000
E2_1779429236698
 10
162.6953582763672
 20
84.9571762084961
 30
93.2034683227539
 11
161.1628875732422
 21
86.51362609863281
 31
90.8370132446289
 12
127.10994720458984
 22
110.45565795898438
 32
115.89627075195312
 13
127.10994720458984
 23
110.45565795898438
 33
115.89627075195312
  0
3DFACE
  8
0
1001
WEBCAD
1000
E2_1779429236698
 10
194.37405395507812
 20
64.45025634765625
 30
57.009910583496094
 11
204.98812866210938
 21
60.493927001953125
 31
23.621402740478516
 12
192.72140502929688
 22
66.08450317382812
 32
54.78074645996094
 13
192.72140502929688
 23
66.08450317382812
 33
54.78074645996094
  0
3DFACE
  8
0
1001
WEBCAD
1000
E2_1779429236698
 10
164.4619140625
 20
83.2513427734375
 30
95.2868881225586
 11
162.6953582763672
 21
84.9571762084961
 31
93.2034683227539
 12
127.10994720458984
 22
110.45565795898438
 32
115.89627075195312
 13
127.10994720458984
 23
110.45565795898438
 33
115.89627075195312
  0
3DFACE
  8
0
1001
WEBCAD
1000
E2_1779429236698
 10
195.78054809570312
 20
62.97749710083008
 30
59.50469207763672
 11
204.98812866210938
 21
60.493927001953125
 31
23.621402740478516
 12
194.37405395507812
 22
64.45025634765625
 32
57.009910583496094
 13
194.37405395507812
 23
64.45025634765625
 33
57.009910583496094
  0
3DFACE
  8
0
1001
WEBCAD
1000
E2_1779429236698
 10
166.4357452392578
 20
81.42198944091797
 30
97.05567169189453
 11
164.4619140625
 21
83.2513427734375
 31
95.2868881225586
 12
127.10994720458984
 22
110.45565795898438
 32
115.89627075195312
 13
127.10994720458984
 23
110.45565795898438
 33
115.89627075195312
  0
3DFACE
  8
0
1001
WEBCAD
1000
E2_1779429236698
 10
196.91958618164062
 20
61.68854904174805
 30
62.22726058959961
 11
204.98812866210938
 21
60.493927001953125
 31
23.621402740478516
 12
195.78054809570312
 22
62.97749710083008
 32
59.50469207763672
 13
195.78054809570312
 23
62.97749710083008
 33
59.50469207763672
  0
3DFACE
  8
0
1001
WEBCAD
1000
E2_1779429236698
 10
168.58694458007812
 20
79.49684143066406
 30
98.48302459716797
 11
166.4357452392578
 21
81.42198944091797
 31
97.05567169189453
 12
127.10994720458984
 22
110.45565795898438
 32
115.89627075195312
 13
127.10994720458984
 23
110.45565795898438
 33
115.89627075195312
  0
3DFACE
  8
0
1001
WEBCAD
1000
E2_1779429236698
 10
197.77386474609375
 20
60.60294723510742
 30
65.13636016845703
 11
204.98812866210938
 21
60.493927001953125
 31
23.621402740478516
 12
196.91958618164062
 22
61.68854904174805
 32
62.22726058959961
 13
196.91958618164062
 23
61.68854904174805
 33
62.22726058959961
  0
3DFACE
  8
0
1001
WEBCAD
1000
E2_1779429236698
 10
170.88290405273438
 20
77.50508880615234
 30
99.54728698730469
 11
168.58694458007812
 21
79.49684143066406
 31
98.48302459716797
 12
127.10994720458984
 22
110.45565795898438
 32
115.89627075195312
 13
127.10994720458984
 23
110.45565795898438
 33
115.89627075195312
  0
3DFACE
  8
0
1001
WEBCAD
1000
E2_1779429236698
 10
198.33047485351562
 20
59.737152099609375
 30
68.18787384033203
 11
204.98812866210938
 21
60.493927001953125
 31
23.621402740478516
 12
197.77386474609375
 22
60.60294723510742
 32
65.13636016845703
 13
197.77386474609375
 23
60.60294723510742
 33
65.13636016845703
  0
3DFACE
  8
0
1001
WEBCAD
1000
E2_1779429236698
 10
198.58094787597656
 20
59.104286193847656
 30
71.33555603027344
 11
204.98812866210938
 21
60.493927001953125
 31
23.621402740478516
 12
198.33047485351562
 22
59.737152099609375
 32
68.18787384033203
 13
198.33047485351562
 23
59.737152099609375
 33
68.18787384033203
  0
3DFACE
  8
0
1001
WEBCAD
1000
E2_1779429236698
 10
198.8111572265625
 20
52.81073760986328
 30
115.89627075195312
 11
198.52151489257812
 21
58.71393966674805
 31
74.53169250488281
 12
198.15304565429688
 22
58.57203674316406
 32
77.72782897949219
 13
198.15304565429688
 23
58.57203674316406
 33
77.72782897949219
  0
3DFACE
  8
0
1001
WEBCAD
1000
E2_1779429236698
 10
198.8111572265625
 20
52.81073760986328
 30
115.89627075195312
 11
198.15304565429688
 21
58.57203674316406
 31
77.72782897949219
 12
197.4811553955078
 22
58.68072509765625
 32
80.8755111694336
 13
197.4811553955078
 23
58.68072509765625
 33
80.8755111694336
  0
3DFACE
  8
0
1001
WEBCAD
1000
E2_1779429236698
 10
198.8111572265625
 20
52.81073760986328
 30
115.89627075195312
 11
197.4811553955078
 21
58.68072509765625
 31
80.8755111694336
 12
196.51600646972656
 22
59.03835678100586
 32
83.92703247070312
 13
196.51600646972656
 23
59.03835678100586
 33
83.92703247070312
  0
3DFACE
  8
0
1001
WEBCAD
1000
E2_1779429236698
 10
198.8111572265625
 20
52.81073760986328
 30
115.89627075195312
 11
196.51600646972656
 21
59.03835678100586
 31
83.92703247070312
 12
195.27223205566406
 22
59.63951110839844
 32
86.83612823486328
 13
195.27223205566406
 23
59.63951110839844
 33
86.83612823486328
  0
3DFACE
  8
0
1001
WEBCAD
1000
E2_1779429236698
 10
198.8111572265625
 20
52.81073760986328
 30
115.89627075195312
 11
195.27223205566406
 21
59.63951110839844
 31
86.83612823486328
 12
193.76870727539062
 22
60.47507858276367
 32
89.55870056152344
 13
193.76870727539062
 23
60.47507858276367
 33
89.55870056152344
  0
3DFACE
  8
0
1001
WEBCAD
1000
E2_1779429236698
 10
198.8111572265625
 20
52.81073760986328
 30
115.89627075195312
 11
193.76870727539062
 21
60.47507858276367
 31
89.55870056152344
 12
192.0281982421875
 22
61.53238296508789
 32
92.05347442626953
 13
192.0281982421875
 23
61.53238296508789
 33
92.05347442626953
  0
3DFACE
  8
0
1001
WEBCAD
1000
E2_1779429236698
 10
198.8111572265625
 20
52.81073760986328
 30
115.89627075195312
 11
192.0281982421875
 21
61.53238296508789
 31
92.05347442626953
 12
190.0771026611328
 22
62.795406341552734
 32
94.28263854980469
 13
190.0771026611328
 23
62.795406341552734
 33
94.28263854980469
  0
3DFACE
  8
0
1001
WEBCAD
1000
E2_1779429236698
 10
198.8111572265625
 20
52.81073760986328
 30
115.89627075195312
 11
190.0771026611328
 21
62.795406341552734
 31
94.28263854980469
 12
187.9449920654297
 22
64.24500274658203
 32
96.21240234375
 13
187.9449920654297
 23
64.24500274658203
 33
96.21240234375
  0
3DFACE
  8
0
1001
WEBCAD
1000
E2_1779429236698
 10
198.8111572265625
 20
52.81073760986328
 30
115.89627075195312
 11
187.9449920654297
 21
64.24500274658203
 31
96.21240234375
 12
185.66419982910156
 22
65.85919189453125
 32
97.81350708007812
 13
185.66419982910156
 23
65.85919189453125
 33
97.81350708007812
  0
3DFACE
  8
0
1001
WEBCAD
1000
E2_1779429236698
 10
198.8111572265625
 20
52.81073760986328
 30
115.89627075195312
 11
185.66419982910156
 21
65.85919189453125
 31
97.81350708007812
 12
183.269287109375
 22
67.6135025024414
 32
99.06168365478516
 13
183.269287109375
 23
67.6135025024414
 33
99.06168365478516
  0
3DFACE
  8
0
1001
WEBCAD
1000
E2_1779429236698
 10
198.8111572265625
 20
52.81073760986328
 30
115.89627075195312
 11
183.269287109375
 21
67.6135025024414
 31
99.06168365478516
 12
180.7965545654297
 22
69.4813461303711
 32
99.93800354003906
 13
180.7965545654297
 23
69.4813461303711
 33
99.93800354003906
  0
3DFACE
  8
0
1001
WEBCAD
1000
E2_1779429236698
 10
198.8111572265625
 20
52.81073760986328
 30
115.89627075195312
 11
180.7965545654297
 21
69.4813461303711
 31
99.93800354003906
 12
178.28350830078125
 22
71.43441009521484
 32
100.42919921875
 13
178.28350830078125
 23
71.43441009521484
 33
100.42919921875
  0
3DFACE
  8
0
1001
WEBCAD
1000
E2_1779429236698
 10
198.8111572265625
 20
52.81073760986328
 30
115.89627075195312
 11
178.28350830078125
 21
71.43441009521484
 31
100.42919921875
 12
175.76821899414062
 22
73.44308471679688
 32
100.5278091430664
 13
175.76821899414062
 23
73.44308471679688
 33
100.5278091430664
  0
3DFACE
  8
0
1001
WEBCAD
1000
E2_1779429236698
 10
198.8111572265625
 20
52.81073760986328
 30
115.89627075195312
 11
175.76821899414062
 21
73.44308471679688
 31
100.5278091430664
 12
173.288818359375
 22
75.47692108154297
 32
100.23234558105469
 13
173.288818359375
 23
75.47692108154297
 33
100.23234558105469
  0
3DFACE
  8
0
1001
WEBCAD
1000
E2_1779429236698
 10
204.98812866210938
 20
60.493927001953125
 30
23.621402740478516
 11
198.52151489257812
 21
58.71393966674805
 31
74.53169250488281
 12
198.8111572265625
 22
52.81073760986328
 32
115.89627075195312
 13
198.8111572265625
 23
52.81073760986328
 33
115.89627075195312
  0
3DFACE
  8
0
1001
WEBCAD
1000
E2_1779429236698
 10
204.98812866210938
 20
60.493927001953125
 30
23.621402740478516
 11
198.58094787597656
 21
59.104286193847656
 31
71.33555603027344
 12
198.52151489257812
 22
58.71393966674805
 32
74.53169250488281
 13
198.52151489257812
 23
58.71393966674805
 33
74.53169250488281
  0
3DFACE
  8
0
1001
WEBCAD
1000
E2_1779429236698
 10
198.8111572265625
 20
52.81073760986328
 30
115.89627075195312
 11
173.288818359375
 21
75.47692108154297
 31
100.23234558105469
 12
127.10994720458984
 22
110.45565795898438
 32
115.89627075195312
 13
127.10994720458984
 23
110.45565795898438
 33
115.89627075195312
  0
3DFACE
  8
0
1001
WEBCAD
1000
E2_1779429236698
 10
173.288818359375
 20
75.47692108154297
 30
100.23234558105469
 11
170.88290405273438
 21
77.50508880615234
 31
99.54728698730469
 12
127.10994720458984
 22
110.45565795898438
 32
115.89627075195312
 13
127.10994720458984
 23
110.45565795898438
 33
115.89627075195312
  0
3DFACE
  8
0
1001
WEBCAD
1000
E2_1779429236698
 10
163.9215087890625
 20
9.413500785827637
 30
109.9472885131836
 11
198.8111572265625
 21
52.81073760986328
 31
115.89627075195312
 12
127.10994720458984
 22
110.45565795898438
 32
115.89627075195312
 13
127.10994720458984
 23
110.45565795898438
 33
115.89627075195312
  0
3DFACE
  8
0
1001
WEBCAD
1000
E2_1779429236698
 10
163.9215087890625
 20
9.413500785827637
 30
109.9472885131836
 11
127.10994720458984
 21
110.45565795898438
 31
115.89627075195312
 12
92.22029113769531
 22
67.05841827392578
 32
109.9472885131836
 13
92.22029113769531
 23
67.05841827392578
 33
109.9472885131836
  0
3DFACE
  8
0
1001
WEBCAD
1000
E2_1779429236698
 10
128.4562225341797
 20
45.831687927246094
 30
52.27738952636719
 11
98.39727020263672
 21
74.74160766601562
 31
17.67241859436035
 12
130.30552673339844
 22
44.669315338134766
 32
49.91093063354492
 13
130.30552673339844
 23
44.669315338134766
 33
49.91093063354492
  0
3DFACE
  8
0
1001
WEBCAD
1000
E2_1779429236698
 10
132.35101318359375
 20
43.31043243408203
 30
47.8275146484375
 11
130.30552673339844
 21
44.669315338134766
 31
49.91093063354492
 12
98.39727020263672
 22
74.74160766601562
 32
17.67241859436035
 13
98.39727020263672
 23
74.74160766601562
 33
17.67241859436035
  0
3DFACE
  8
0
1001
WEBCAD
1000
E2_1779429236698
 10
126.83111572265625
 20
46.77992248535156
 30
54.891021728515625
 11
98.39727020263672
 21
74.74160766601562
 31
17.67241859436035
 12
128.4562225341797
 22
45.831687927246094
 32
52.27738952636719
 13
128.4562225341797
 23
45.831687927246094
 33
52.27738952636719
  0
3DFACE
  8
0
1001
WEBCAD
1000
E2_1779429236698
 10
134.5616455078125
 20
41.775630950927734
 30
46.0587272644043
 11
132.35101318359375
 21
43.31043243408203
 31
47.8275146484375
 12
98.39727020263672
 22
74.74160766601562
 32
17.67241859436035
 13
98.39727020263672
 23
74.74160766601562
 33
17.67241859436035
  0
3DFACE
  8
0
1001
WEBCAD
1000
E2_1779429236698
 10
125.4548568725586
 20
47.4996452331543
 30
57.71220779418945
 11
98.39727020263672
 21
74.74160766601562
 31
17.67241859436035
 12
126.83111572265625
 22
46.77992248535156
 32
54.891021728515625
 13
126.83111572265625
 23
46.77992248535156
 33
54.891021728515625
  0
3DFACE
  8
0
1001
WEBCAD
1000
E2_1779429236698
 10
136.90394592285156
 20
40.08817672729492
 30
44.63138198852539
 11
134.5616455078125
 21
41.775630950927734
 31
46.0587272644043
 12
98.39727020263672
 22
74.74160766601562
 32
17.67241859436035
 13
98.39727020263672
 23
74.74160766601562
 33
17.67241859436035
  0
3DFACE
  8
0
1001
WEBCAD
1000
E2_1779429236698
 10
124.34830474853516
 20
47.979949951171875
 30
60.698177337646484
 11
98.39727020263672
 21
74.74160766601562
 31
17.67241859436035
 12
125.4548568725586
 22
47.4996452331543
 32
57.71220779418945
 13
125.4548568725586
 23
47.4996452331543
 33
57.71220779418945
  0
3DFACE
  8
0
1001
WEBCAD
1000
E2_1779429236698
 10
139.34239196777344
 20
38.273658752441406
 30
43.56711196899414
 11
136.90394592285156
 21
40.08817672729492
 31
44.63138198852539
 12
98.39727020263672
 22
74.74160766601562
 32
17.67241859436035
 13
98.39727020263672
 23
74.74160766601562
 33
17.67241859436035
  0
3DFACE
  8
0
1001
WEBCAD
1000
E2_1779429236698
 10
123.5282211303711
 20
48.21355438232422
 30
63.80366897583008
 11
98.39727020263672
 21
74.74160766601562
 31
17.67241859436035
 12
124.34830474853516
 22
47.979949951171875
 32
60.698177337646484
 13
124.34830474853516
 23
47.979949951171875
 33
60.698177337646484
  0
3DFACE
  8
0
1001
WEBCAD
1000
E2_1779429236698
 10
141.84002685546875
 20
36.35957336425781
 30
42.88205337524414
 11
139.34239196777344
 21
38.273658752441406
 31
43.56711196899414
 12
98.39727020263672
 22
74.74160766601562
 32
17.67241859436035
 13
98.39727020263672
 23
74.74160766601562
 33
17.67241859436035
  0
3DFACE
  8
0
1001
WEBCAD
1000
E2_1779429236698
 10
123.0070571899414
 20
48.19691467285156
 30
66.98160552978516
 11
98.39727020263672
 21
74.74160766601562
 31
17.67241859436035
 12
123.5282211303711
 22
48.21355438232422
 32
63.80366897583008
 13
123.5282211303711
 23
48.21355438232422
 33
63.80366897583008
  0
3DFACE
  8
0
1001
WEBCAD
1000
E2_1779429236698
 10
170.09848022460938
 20
17.096689224243164
 30
17.67241859436035
 11
144.35897827148438
 21
34.37493896484375
 31
42.58658981323242
 12
141.84002685546875
 22
36.35957336425781
 32
42.88205337524414
 13
141.84002685546875
 23
36.35957336425781
 33
42.88205337524414
  0
3DFACE
  8
0
1001
WEBCAD
1000
E2_1779429236698
 10
170.09848022460938
 20
17.096689224243164
 30
17.67241859436035
 11
146.86106872558594
 21
32.3498420715332
 31
42.685203552246094
 12
144.35897827148438
 22
34.37493896484375
 32
42.58658981323242
 13
144.35897827148438
 23
34.37493896484375
 33
42.58658981323242
  0
3DFACE
  8
0
1001
WEBCAD
1000
E2_1779429236698
 10
170.09848022460938
 20
17.096689224243164
 30
17.67241859436035
 11
141.84002685546875
 21
36.35957336425781
 31
42.88205337524414
 12
98.39727020263672
 22
74.74160766601562
 32
17.67241859436035
 13
98.39727020263672
 23
74.74160766601562
 33
17.67241859436035
  0
3DFACE
  8
0
1001
WEBCAD
1000
E2_1779429236698
 10
92.22029113769531
 20
67.05841827392578
 30
109.9472885131836
 11
122.79269409179688
 21
47.9302864074707
 31
70.1838150024414
 12
122.88839721679688
 22
47.41770935058594
 32
73.36174774169922
 13
122.88839721679688
 23
47.41770935058594
 33
73.36174774169922
  0
3DFACE
  8
0
1001
WEBCAD
1000
E2_1779429236698
 10
92.22029113769531
 20
67.05841827392578
 30
109.9472885131836
 11
123.0070571899414
 21
48.19691467285156
 31
66.98160552978516
 12
122.79269409179688
 22
47.9302864074707
 32
70.1838150024414
 13
122.79269409179688
 23
47.9302864074707
 33
70.1838150024414
  0
3DFACE
  8
0
1001
WEBCAD
1000
E2_1779429236698
 10
92.22029113769531
 20
67.05841827392578
 30
109.9472885131836
 11
98.39727020263672
 21
74.74160766601562
 31
17.67241859436035
 12
123.0070571899414
 22
48.19691467285156
 32
66.98160552978516
 13
123.0070571899414
 23
48.19691467285156
 33
66.98160552978516
  0
3DFACE
  8
0
1001
WEBCAD
1000
E2_1779429236698
 10
149.30836486816406
 20
30.31498146057129
 30
43.176395416259766
 11
146.86106872558594
 21
32.3498420715332
 31
42.685203552246094
 12
170.09848022460938
 22
17.096689224243164
 32
17.67241859436035
 13
170.09848022460938
 23
17.096689224243164
 33
17.67241859436035
  0
3DFACE
  8
0
1001
WEBCAD
1000
E2_1779429236698
 10
123.2927017211914
 20
46.666954040527344
 30
76.46723937988281
 11
92.22029113769531
 21
67.05841827392578
 31
109.9472885131836
 12
122.88839721679688
 22
47.41770935058594
 32
73.36174774169922
 13
122.88839721679688
 23
47.41770935058594
 33
73.36174774169922
  0
3DFACE
  8
0
1001
WEBCAD
1000
E2_1779429236698
 10
151.66375732421875
 20
28.30120277404785
 30
44.0527229309082
 11
149.30836486816406
 21
30.31498146057129
 31
43.176395416259766
 12
170.09848022460938
 22
17.096689224243164
 32
17.67241859436035
 13
170.09848022460938
 23
17.096689224243164
 33
17.67241859436035
  0
3DFACE
  8
0
1001
WEBCAD
1000
E2_1779429236698
 10
123.99949645996094
 20
45.68939971923828
 30
79.45320892333984
 11
92.22029113769531
 21
67.05841827392578
 31
109.9472885131836
 12
123.2927017211914
 22
46.666954040527344
 32
76.46723937988281
 13
123.2927017211914
 23
46.666954040527344
 33
76.46723937988281
  0
3DFACE
  8
0
1001
WEBCAD
1000
E2_1779429236698
 10
153.89157104492188
 20
26.339033126831055
 30
45.30089569091797
 11
151.66375732421875
 21
28.30120277404785
 31
44.0527229309082
 12
170.09848022460938
 22
17.096689224243164
 32
17.67241859436035
 13
170.09848022460938
 23
17.096689224243164
 33
17.67241859436035
  0
3DFACE
  8
0
1001
WEBCAD
1000
E2_1779429236698
 10
124.998046875
 20
44.4998664855957
 30
82.2743911743164
 11
92.22029113769531
 21
67.05841827392578
 31
109.9472885131836
 12
123.99949645996094
 22
45.68939971923828
 32
79.45320892333984
 13
123.99949645996094
 23
45.68939971923828
 33
79.45320892333984
  0
3DFACE
  8
0
1001
WEBCAD
1000
E2_1779429236698
 10
155.9580078125
 20
24.458215713500977
 30
46.902000427246094
 11
153.89157104492188
 21
26.339033126831055
 31
45.30089569091797
 12
170.09848022460938
 22
17.096689224243164
 32
17.67241859436035
 13
170.09848022460938
 23
17.096689224243164
 33
17.67241859436035
  0
3DFACE
  8
0
1001
WEBCAD
1000
E2_1779429236698
 10
126.27323150634766
 20
43.116390228271484
 30
84.88802337646484
 11
92.22029113769531
 21
67.05841827392578
 31
109.9472885131836
 12
124.998046875
 22
44.4998664855957
 32
82.2743911743164
 13
124.998046875
 23
44.4998664855957
 33
82.2743911743164
  0
3DFACE
  8
0
1001
WEBCAD
1000
E2_1779429236698
 10
157.83175659179688
 20
22.68726348876953
 30
48.83176040649414
 11
155.9580078125
 21
24.458215713500977
 31
46.902000427246094
 12
170.09848022460938
 22
17.096689224243164
 32
17.67241859436035
 13
170.09848022460938
 23
17.096689224243164
 33
17.67241859436035
  0
3DFACE
  8
0
1001
WEBCAD
1000
E2_1779429236698
 10
127.80570983886719
 20
41.5599365234375
 30
87.25448608398438
 11
92.22029113769531
 21
67.05841827392578
 31
109.9472885131836
 12
126.27323150634766
 22
43.116390228271484
 32
84.88802337646484
 13
126.27323150634766
 23
43.116390228271484
 33
84.88802337646484
  0
3DFACE
  8
0
1001
WEBCAD
1000
E2_1779429236698
 10
159.48440551757812
 20
21.053020477294922
 30
51.06092834472656
 11
157.83175659179688
 21
22.68726348876953
 31
48.83176040649414
 12
170.09848022460938
 22
17.096689224243164
 32
17.67241859436035
 13
170.09848022460938
 23
17.096689224243164
 33
17.67241859436035
  0
3DFACE
  8
0
1001
WEBCAD
1000
E2_1779429236698
 10
129.572265625
 20
39.854103088378906
 30
89.33790588378906
 11
92.22029113769531
 21
67.05841827392578
 31
109.9472885131836
 12
127.80570983886719
 22
41.5599365234375
 32
87.25448608398438
 13
127.80570983886719
 23
41.5599365234375
 33
87.25448608398438
  0
3DFACE
  8
0
1001
WEBCAD
1000
E2_1779429236698
 10
160.89089965820312
 20
19.58026123046875
 30
53.55570602416992
 11
159.48440551757812
 21
21.053020477294922
 31
51.06092834472656
 12
170.09848022460938
 22
17.096689224243164
 32
17.67241859436035
 13
170.09848022460938
 23
17.096689224243164
 33
17.67241859436035
  0
3DFACE
  8
0
1001
WEBCAD
1000
E2_1779429236698
 10
131.5460968017578
 20
38.024749755859375
 30
91.106689453125
 11
92.22029113769531
 21
67.05841827392578
 31
109.9472885131836
 12
129.572265625
 22
39.854103088378906
 32
89.33790588378906
 13
129.572265625
 23
39.854103088378906
 33
89.33790588378906
  0
3DFACE
  8
0
1001
WEBCAD
1000
E2_1779429236698
 10
162.02992248535156
 20
18.291311264038086
 30
56.27827835083008
 11
160.89089965820312
 21
19.58026123046875
 31
53.55570602416992
 12
170.09848022460938
 22
17.096689224243164
 32
17.67241859436035
 13
170.09848022460938
 23
17.096689224243164
 33
17.67241859436035
  0
3DFACE
  8
0
1001
WEBCAD
1000
E2_1779429236698
 10
133.69729614257812
 20
36.099605560302734
 30
92.5340347290039
 11
92.22029113769531
 21
67.05841827392578
 31
109.9472885131836
 12
131.5460968017578
 22
38.024749755859375
 32
91.106689453125
 13
131.5460968017578
 23
38.024749755859375
 33
91.106689453125
  0
3DFACE
  8
0
1001
WEBCAD
1000
E2_1779429236698
 10
162.88421630859375
 20
17.205711364746094
 30
59.18737030029297
 11
162.02992248535156
 21
18.291311264038086
 31
56.27827835083008
 12
170.09848022460938
 22
17.096689224243164
 32
17.67241859436035
 13
170.09848022460938
 23
17.096689224243164
 33
17.67241859436035
  0
3DFACE
  8
0
1001
WEBCAD
1000
E2_1779429236698
 10
135.99325561523438
 20
34.107852935791016
 30
93.59830474853516
 11
92.22029113769531
 21
67.05841827392578
 31
109.9472885131836
 12
133.69729614257812
 22
36.099605560302734
 32
92.5340347290039
 13
133.69729614257812
 23
36.099605560302734
 33
92.5340347290039
  0
3DFACE
  8
0
1001
WEBCAD
1000
E2_1779429236698
 10
163.44082641601562
 20
16.339914321899414
 30
62.2388916015625
 11
162.88421630859375
 21
17.205711364746094
 31
59.18737030029297
 12
170.09848022460938
 22
17.096689224243164
 32
17.67241859436035
 13
170.09848022460938
 23
17.096689224243164
 33
17.67241859436035
  0
3DFACE
  8
0
1001
WEBCAD
1000
E2_1779429236698
 10
163.69129943847656
 20
15.707047462463379
 30
65.3865737915039
 11
163.44082641601562
 21
16.339914321899414
 31
62.2388916015625
 12
170.09848022460938
 22
17.096689224243164
 32
17.67241859436035
 13
170.09848022460938
 23
17.096689224243164
 33
17.67241859436035
  0
3DFACE
  8
0
1001
WEBCAD
1000
E2_1779429236698
 10
163.9215087890625
 20
9.413500785827637
 30
109.9472885131836
 11
163.26339721679688
 21
15.174800872802734
 31
71.77884674072266
 12
163.63186645507812
 22
15.316703796386719
 32
68.58271026611328
 13
163.63186645507812
 23
15.316703796386719
 33
68.58271026611328
  0
3DFACE
  8
0
1001
WEBCAD
1000
E2_1779429236698
 10
163.9215087890625
 20
9.413500785827637
 30
109.9472885131836
 11
162.5915069580078
 21
15.283489227294922
 31
74.92652893066406
 12
163.26339721679688
 22
15.174800872802734
 32
71.77884674072266
 13
163.26339721679688
 23
15.174800872802734
 33
71.77884674072266
  0
3DFACE
  8
0
1001
WEBCAD
1000
E2_1779429236698
 10
163.9215087890625
 20
9.413500785827637
 30
109.9472885131836
 11
161.62635803222656
 21
15.641120910644531
 31
77.97804260253906
 12
162.5915069580078
 22
15.283489227294922
 32
74.92652893066406
 13
162.5915069580078
 23
15.283489227294922
 33
74.92652893066406
  0
3DFACE
  8
0
1001
WEBCAD
1000
E2_1779429236698
 10
163.9215087890625
 20
9.413500785827637
 30
109.9472885131836
 11
160.38258361816406
 21
16.24227523803711
 31
80.88713836669922
 12
161.62635803222656
 22
15.641120910644531
 32
77.97804260253906
 13
161.62635803222656
 23
15.641120910644531
 33
77.97804260253906
  0
3DFACE
  8
0
1001
WEBCAD
1000
E2_1779429236698
 10
163.9215087890625
 20
9.413500785827637
 30
109.9472885131836
 11
158.87905883789062
 21
17.07784080505371
 31
83.60971069335938
 12
160.38258361816406
 22
16.24227523803711
 32
80.88713836669922
 13
160.38258361816406
 23
16.24227523803711
 33
80.88713836669922
  0
3DFACE
  8
0
1001
WEBCAD
1000
E2_1779429236698
 10
163.9215087890625
 20
9.413500785827637
 30
109.9472885131836
 11
157.1385498046875
 21
18.135149002075195
 31
86.1044921875
 12
158.87905883789062
 22
17.07784080505371
 32
83.60971069335938
 13
158.87905883789062
 23
17.07784080505371
 33
83.60971069335938
  0
3DFACE
  8
0
1001
WEBCAD
1000
E2_1779429236698
 10
163.9215087890625
 20
9.413500785827637
 30
109.9472885131836
 11
155.1874542236328
 21
19.39817237854004
 31
88.33365631103516
 12
157.1385498046875
 22
18.135149002075195
 32
86.1044921875
 13
157.1385498046875
 23
18.135149002075195
 33
86.1044921875
  0
3DFACE
  8
0
1001
WEBCAD
1000
E2_1779429236698
 10
163.9215087890625
 20
9.413500785827637
 30
109.9472885131836
 11
153.0553436279297
 21
20.84776496887207
 31
90.26342010498047
 12
155.1874542236328
 22
19.39817237854004
 32
88.33365631103516
 13
155.1874542236328
 23
19.39817237854004
 33
88.33365631103516
  0
3DFACE
  8
0
1001
WEBCAD
1000
E2_1779429236698
 10
163.9215087890625
 20
9.413500785827637
 30
109.9472885131836
 11
150.77455139160156
 21
22.461952209472656
 31
91.86451721191406
 12
153.0553436279297
 22
20.84776496887207
 32
90.26342010498047
 13
153.0553436279297
 23
20.84776496887207
 33
90.26342010498047
  0
3DFACE
  8
0
1001
WEBCAD
1000
E2_1779429236698
 10
163.9215087890625
 20
9.413500785827637
 30
109.9472885131836
 11
148.379638671875
 21
24.216266632080078
 31
93.1126937866211
 12
150.77455139160156
 22
22.461952209472656
 32
91.86451721191406
 13
150.77455139160156
 23
22.461952209472656
 33
91.86451721191406
  0
3DFACE
  8
0
1001
WEBCAD
1000
E2_1779429236698
 10
163.9215087890625
 20
9.413500785827637
 30
109.9472885131836
 11
145.9069061279297
 21
26.0841121673584
 31
93.98902130126953
 12
148.379638671875
 22
24.216266632080078
 32
93.1126937866211
 13
148.379638671875
 23
24.216266632080078
 33
93.1126937866211
  0
3DFACE
  8
0
1001
WEBCAD
1000
E2_1779429236698
 10
163.9215087890625
 20
9.413500785827637
 30
109.9472885131836
 11
143.3938446044922
 21
28.03717613220215
 31
94.48021697998047
 12
145.9069061279297
 22
26.0841121673584
 32
93.98902130126953
 13
145.9069061279297
 23
26.0841121673584
 33
93.98902130126953
  0
3DFACE
  8
0
1001
WEBCAD
1000
E2_1779429236698
 10
163.9215087890625
 20
9.413500785827637
 30
109.9472885131836
 11
140.87855529785156
 21
30.045848846435547
 31
94.57882690429688
 12
143.3938446044922
 22
28.03717613220215
 32
94.48021697998047
 13
143.3938446044922
 23
28.03717613220215
 33
94.48021697998047
  0
3DFACE
  8
0
1001
WEBCAD
1000
E2_1779429236698
 10
163.9215087890625
 20
9.413500785827637
 30
109.9472885131836
 11
138.399169921875
 21
32.07968521118164
 31
94.28336334228516
 12
140.87855529785156
 22
30.045848846435547
 32
94.57882690429688
 13
140.87855529785156
 23
30.045848846435547
 33
94.57882690429688
  0
3DFACE
  8
0
1001
WEBCAD
1000
E2_1779429236698
 10
170.09848022460938
 20
17.096689224243164
 30
17.67241859436035
 11
163.9215087890625
 21
9.413500785827637
 31
109.9472885131836
 12
163.63186645507812
 22
15.316703796386719
 32
68.58271026611328
 13
163.63186645507812
 23
15.316703796386719
 33
68.58271026611328
  0
3DFACE
  8
0
1001
WEBCAD
1000
E2_1779429236698
 10
170.09848022460938
 20
17.096689224243164
 30
17.67241859436035
 11
163.63186645507812
 21
15.316703796386719
 31
68.58271026611328
 12
163.69129943847656
 22
15.707047462463379
 32
65.3865737915039
 13
163.69129943847656
 23
15.707047462463379
 33
65.3865737915039
  0
3DFACE
  8
0
1001
WEBCAD
1000
E2_1779429236698
 10
163.9215087890625
 20
9.413500785827637
 30
109.9472885131836
 11
92.22029113769531
 21
67.05841827392578
 31
109.9472885131836
 12
138.399169921875
 22
32.07968521118164
 32
94.28336334228516
 13
138.399169921875
 23
32.07968521118164
 33
94.28336334228516
  0
3DFACE
  8
0
1001
WEBCAD
1000
E2_1779429236698
 10
138.399169921875
 20
32.07968521118164
 30
94.28336334228516
 11
92.22029113769531
 21
67.05841827392578
 31
109.9472885131836
 12
135.99325561523438
 22
34.107852935791016
 32
93.59830474853516
 13
135.99325561523438
 23
34.107852935791016
 33
93.59830474853516
  0
3DFACE
  8
0
1001
WEBCAD
1000
E2_1779429236698
 10
204.98812866210938
 20
60.493927001953125
 30
23.621402740478516
 11
198.8111572265625
 21
52.81073760986328
 31
115.89627075195312
 12
163.9215087890625
 22
9.413500785827637
 32
109.9472885131836
 13
163.9215087890625
 23
9.413500785827637
 33
109.9472885131836
  0
3DFACE
  8
0
1001
WEBCAD
1000
E2_1779429236698
 10
170.09848022460938
 20
17.096689224243164
 30
17.67241859436035
 11
204.98812866210938
 21
60.493927001953125
 31
23.621402740478516
 12
163.9215087890625
 22
9.413500785827637
 32
109.9472885131836
 13
163.9215087890625
 23
9.413500785827637
 33
109.9472885131836
  0
3DFACE
  8
0
1001
WEBCAD
1000
E2_1779429236698
 10
161.72076416015625
 20
90.17715454101562
 30
60.84000778198242
 11
165.19517517089844
 21
88.0665512084961
 31
55.85991668701172
 12
163.3458709716797
 22
89.22891998291016
 32
58.226375579833984
 13
163.3458709716797
 23
89.22891998291016
 33
58.226375579833984
  0
3DFACE
  8
0
1001
WEBCAD
1000
E2_1779429236698
 10
169.45130920410156
 20
85.17286682128906
 30
52.007713317871094
 11
167.24066162109375
 21
86.7076644897461
 31
53.7765007019043
 12
165.19517517089844
 22
88.0665512084961
 32
55.85991668701172
 13
165.19517517089844
 23
88.0665512084961
 33
55.85991668701172
  0
3DFACE
  8
0
1001
WEBCAD
1000
E2_1779429236698
 10
169.45130920410156
 20
85.17286682128906
 30
52.007713317871094
 11
165.19517517089844
 21
88.0665512084961
 31
55.85991668701172
 12
161.72076416015625
 22
90.17715454101562
 32
60.84000778198242
 13
161.72076416015625
 23
90.17715454101562
 33
60.84000778198242
  0
3DFACE
  8
0
1001
WEBCAD
1000
E2_1779429236698
 10
174.2320556640625
 20
81.67089080810547
 30
49.51609802246094
 11
171.79360961914062
 21
83.48541259765625
 31
50.58036422729492
 12
169.45130920410156
 22
85.17286682128906
 32
52.007713317871094
 13
169.45130920410156
 23
85.17286682128906
 33
52.007713317871094
  0
3DFACE
  8
0
1001
WEBCAD
1000
E2_1779429236698
 10
158.41787719726562
 20
91.61079406738281
 30
69.75265502929688
 11
160.34451293945312
 21
90.89688110351562
 31
63.661190032958984
 12
159.2379608154297
 22
91.37718963623047
 32
66.64716339111328
 13
159.2379608154297
 23
91.37718963623047
 33
66.64716339111328
  0
3DFACE
  8
0
1001
WEBCAD
1000
E2_1779429236698
 10
158.41787719726562
 20
91.61079406738281
 30
69.75265502929688
 11
161.72076416015625
 21
90.17715454101562
 31
60.84000778198242
 12
160.34451293945312
 22
90.89688110351562
 32
63.661190032958984
 13
160.34451293945312
 23
90.89688110351562
 33
63.661190032958984
  0
3DFACE
  8
0
1001
WEBCAD
1000
E2_1779429236698
 10
158.41787719726562
 20
91.61079406738281
 30
69.75265502929688
 11
169.45130920410156
 21
85.17286682128906
 31
52.007713317871094
 12
161.72076416015625
 22
90.17715454101562
 32
60.84000778198242
 13
161.72076416015625
 23
90.17715454101562
 33
60.84000778198242
  0
3DFACE
  8
0
1001
WEBCAD
1000
E2_1779429236698
 10
157.77804565429688
 20
90.81494140625
 30
79.31073760986328
 11
157.89669799804688
 21
91.59415435791016
 31
72.93058776855469
 12
157.68234252929688
 22
91.32752227783203
 32
76.13279724121094
 13
157.68234252929688
 23
91.32752227783203
 33
76.13279724121094
  0
3DFACE
  8
0
1001
WEBCAD
1000
E2_1779429236698
 10
157.77804565429688
 20
90.81494140625
 30
79.31073760986328
 11
158.41787719726562
 21
91.61079406738281
 31
69.75265502929688
 12
157.89669799804688
 22
91.59415435791016
 32
72.93058776855469
 13
157.89669799804688
 23
91.59415435791016
 33
72.93058776855469
  0
3DFACE
  8
0
1001
WEBCAD
1000
E2_1779429236698
 10
184.19801330566406
 20
73.71221923828125
 30
49.12538146972656
 11
176.72967529296875
 21
79.75680541992188
 31
48.83103942871094
 12
174.2320556640625
 22
81.67089080810547
 32
49.51609802246094
 13
174.2320556640625
 23
81.67089080810547
 33
49.51609802246094
  0
3DFACE
  8
0
1001
WEBCAD
1000
E2_1779429236698
 10
184.19801330566406
 20
73.71221923828125
 30
49.12538146972656
 11
179.24862670898438
 21
77.77217864990234
 31
48.53557586669922
 12
176.72967529296875
 22
79.75680541992188
 32
48.83103942871094
 13
176.72967529296875
 23
79.75680541992188
 33
48.83103942871094
  0
3DFACE
  8
0
1001
WEBCAD
1000
E2_1779429236698
 10
184.19801330566406
 20
73.71221923828125
 30
49.12538146972656
 11
181.75071716308594
 21
75.74707794189453
 31
48.63418960571289
 12
179.24862670898438
 22
77.77217864990234
 32
48.53557586669922
 13
179.24862670898438
 23
77.77217864990234
 33
48.53557586669922
  0
3DFACE
  8
0
1001
WEBCAD
1000
E2_1779429236698
 10
190.84765625
 20
67.85545349121094
 30
52.85098648071289
 11
157.77804565429688
 21
90.81494140625
 31
79.31073760986328
 12
158.18235778808594
 22
90.0641860961914
 32
82.41622924804688
 13
158.18235778808594
 23
90.0641860961914
 33
82.41622924804688
  0
3DFACE
  8
0
1001
WEBCAD
1000
E2_1779429236698
 10
190.84765625
 20
67.85545349121094
 30
52.85098648071289
 11
186.55340576171875
 21
71.69844055175781
 31
50.001705169677734
 12
184.19801330566406
 22
73.71221923828125
 32
49.12538146972656
 13
184.19801330566406
 23
73.71221923828125
 33
49.12538146972656
  0
3DFACE
  8
0
1001
WEBCAD
1000
E2_1779429236698
 10
190.84765625
 20
67.85545349121094
 30
52.85098648071289
 11
188.78121948242188
 21
69.73626708984375
 31
51.249881744384766
 12
186.55340576171875
 22
71.69844055175781
 32
50.001705169677734
 13
186.55340576171875
 23
71.69844055175781
 33
50.001705169677734
  0
3DFACE
  8
0
1001
WEBCAD
1000
E2_1779429236698
 10
190.84765625
 20
67.85545349121094
 30
52.85098648071289
 11
174.2320556640625
 21
81.67089080810547
 31
49.51609802246094
 12
169.45130920410156
 22
85.17286682128906
 32
52.007713317871094
 13
169.45130920410156
 23
85.17286682128906
 33
52.007713317871094
  0
3DFACE
  8
0
1001
WEBCAD
1000
E2_1779429236698
 10
190.84765625
 20
67.85545349121094
 30
52.85098648071289
 11
169.45130920410156
 21
85.17286682128906
 31
52.007713317871094
 12
158.41787719726562
 22
91.61079406738281
 32
69.75265502929688
 13
158.41787719726562
 23
91.61079406738281
 33
69.75265502929688
  0
3DFACE
  8
0
1001
WEBCAD
1000
E2_1779429236698
 10
190.84765625
 20
67.85545349121094
 30
52.85098648071289
 11
184.19801330566406
 21
73.71221923828125
 31
49.12538146972656
 12
174.2320556640625
 22
81.67089080810547
 32
49.51609802246094
 13
174.2320556640625
 23
81.67089080810547
 33
49.51609802246094
  0
3DFACE
  8
0
1001
WEBCAD
1000
E2_1779429236698
 10
190.84765625
 20
67.85545349121094
 30
52.85098648071289
 11
158.41787719726562
 21
91.61079406738281
 31
69.75265502929688
 12
157.77804565429688
 22
90.81494140625
 32
79.31073760986328
 13
157.77804565429688
 23
90.81494140625
 33
79.31073760986328
  0
3DFACE
  8
0
1001
WEBCAD
1000
E2_1779429236698
 10
161.1628875732422
 20
86.51362609863281
 30
90.8370132446289
 11
158.88914489746094
 21
89.08663940429688
 31
85.4021987915039
 12
159.8876953125
 22
87.89710235595703
 32
88.22338104248047
 13
159.8876953125
 23
87.89710235595703
 33
88.22338104248047
  0
3DFACE
  8
0
1001
WEBCAD
1000
E2_1779429236698
 10
164.4619140625
 20
83.2513427734375
 30
95.2868881225586
 11
161.1628875732422
 21
86.51362609863281
 31
90.8370132446289
 12
162.6953582763672
 22
84.9571762084961
 32
93.2034683227539
 13
162.6953582763672
 23
84.9571762084961
 33
93.2034683227539
  0
3DFACE
  8
0
1001
WEBCAD
1000
E2_1779429236698
 10
164.4619140625
 20
83.2513427734375
 30
95.2868881225586
 11
158.88914489746094
 21
89.08663940429688
 31
85.4021987915039
 12
161.1628875732422
 22
86.51362609863281
 32
90.8370132446289
 13
161.1628875732422
 23
86.51362609863281
 33
90.8370132446289
  0
3DFACE
  8
0
1001
WEBCAD
1000
E2_1779429236698
 10
195.78054809570312
 20
62.97749710083008
 30
59.50469207763672
 11
192.72140502929688
 21
66.08450317382812
 31
54.78074645996094
 12
190.84765625
 22
67.85545349121094
 32
52.85098648071289
 13
190.84765625
 23
67.85545349121094
 33
52.85098648071289
  0
3DFACE
  8
0
1001
WEBCAD
1000
E2_1779429236698
 10
195.78054809570312
 20
62.97749710083008
 30
59.50469207763672
 11
194.37405395507812
 21
64.45025634765625
 31
57.009910583496094
 12
192.72140502929688
 22
66.08450317382812
 32
54.78074645996094
 13
192.72140502929688
 23
66.08450317382812
 33
54.78074645996094
  0
3DFACE
  8
0
1001
WEBCAD
1000
E2_1779429236698
 10
166.4357452392578
 20
81.42198944091797
 30
97.05567169189453
 11
158.88914489746094
 21
89.08663940429688
 31
85.4021987915039
 12
164.4619140625
 22
83.2513427734375
 32
95.2868881225586
 13
164.4619140625
 23
83.2513427734375
 33
95.2868881225586
  0
3DFACE
  8
0
1001
WEBCAD
1000
E2_1779429236698
 10
197.77386474609375
 20
60.60294723510742
 30
65.13636016845703
 11
196.91958618164062
 21
61.68854904174805
 31
62.22726058959961
 12
195.78054809570312
 22
62.97749710083008
 32
59.50469207763672
 13
195.78054809570312
 23
62.97749710083008
 33
59.50469207763672
  0
3DFACE
  8
0
1001
WEBCAD
1000
E2_1779429236698
 10
170.88290405273438
 20
77.50508880615234
 30
99.54728698730469
 11
158.88914489746094
 21
89.08663940429688
 31
85.4021987915039
 12
166.4357452392578
 22
81.42198944091797
 32
97.05567169189453
 13
166.4357452392578
 23
81.42198944091797
 33
97.05567169189453
  0
3DFACE
  8
0
1001
WEBCAD
1000
E2_1779429236698
 10
170.88290405273438
 20
77.50508880615234
 30
99.54728698730469
 11
166.4357452392578
 21
81.42198944091797
 31
97.05567169189453
 12
168.58694458007812
 22
79.49684143066406
 32
98.48302459716797
 13
168.58694458007812
 23
79.49684143066406
 33
98.48302459716797
  0
3DFACE
  8
0
1001
WEBCAD
1000
E2_1779429236698
 10
170.88290405273438
 20
77.50508880615234
 30
99.54728698730469
 11
158.18235778808594
 21
90.0641860961914
 31
82.41622924804688
 12
158.88914489746094
 22
89.08663940429688
 32
85.4021987915039
 13
158.88914489746094
 23
89.08663940429688
 33
85.4021987915039
  0
3DFACE
  8
0
1001
WEBCAD
1000
E2_1779429236698
 10
198.58094787597656
 20
59.104286193847656
 30
71.33555603027344
 11
195.78054809570312
 21
62.97749710083008
 31
59.50469207763672
 12
190.84765625
 22
67.85545349121094
 32
52.85098648071289
 13
190.84765625
 23
67.85545349121094
 33
52.85098648071289
  0
3DFACE
  8
0
1001
WEBCAD
1000
E2_1779429236698
 10
198.58094787597656
 20
59.104286193847656
 30
71.33555603027344
 11
197.77386474609375
 21
60.60294723510742
 31
65.13636016845703
 12
195.78054809570312
 22
62.97749710083008
 32
59.50469207763672
 13
195.78054809570312
 23
62.97749710083008
 33
59.50469207763672
  0
3DFACE
  8
0
1001
WEBCAD
1000
E2_1779429236698
 10
198.58094787597656
 20
59.104286193847656
 30
71.33555603027344
 11
198.33047485351562
 21
59.737152099609375
 31
68.18787384033203
 12
197.77386474609375
 22
60.60294723510742
 32
65.13636016845703
 13
197.77386474609375
 23
60.60294723510742
 33
65.13636016845703
  0
3DFACE
  8
0
1001
WEBCAD
1000
E2_1779429236698
 10
178.28350830078125
 20
71.43441009521484
 30
100.42919921875
 11
173.288818359375
 21
75.47692108154297
 31
100.23234558105469
 12
175.76821899414062
 22
73.44308471679688
 32
100.5278091430664
 13
175.76821899414062
 23
73.44308471679688
 33
100.5278091430664
  0
3DFACE
  8
0
1001
WEBCAD
1000
E2_1779429236698
 10
178.28350830078125
 20
71.43441009521484
 30
100.42919921875
 11
170.88290405273438
 21
77.50508880615234
 31
99.54728698730469
 12
173.288818359375
 22
75.47692108154297
 32
100.23234558105469
 13
173.288818359375
 23
75.47692108154297
 33
100.23234558105469
  0
3DFACE
  8
0
1001
WEBCAD
1000
E2_1779429236698
 10
198.15304565429688
 20
58.57203674316406
 30
77.72782897949219
 11
198.52151489257812
 21
58.71393966674805
 31
74.53169250488281
 12
198.58094787597656
 22
59.104286193847656
 32
71.33555603027344
 13
198.58094787597656
 23
59.104286193847656
 33
71.33555603027344
  0
3DFACE
  8
0
1001
WEBCAD
1000
E2_1779429236698
 10
180.7965545654297
 20
69.4813461303711
 30
99.93800354003906
 11
170.88290405273438
 21
77.50508880615234
 31
99.54728698730469
 12
178.28350830078125
 22
71.43441009521484
 32
100.42919921875
 13
178.28350830078125
 23
71.43441009521484
 33
100.42919921875
  0
3DFACE
  8
0
1001
WEBCAD
1000
E2_1779429236698
 10
196.51600646972656
 20
59.03835678100586
 30
83.92703247070312
 11
197.4811553955078
 21
58.68072509765625
 31
80.8755111694336
 12
198.15304565429688
 22
58.57203674316406
 32
77.72782897949219
 13
198.15304565429688
 23
58.57203674316406
 33
77.72782897949219
  0
3DFACE
  8
0
1001
WEBCAD
1000
E2_1779429236698
 10
196.51600646972656
 20
59.03835678100586
 30
83.92703247070312
 11
198.58094787597656
 21
59.104286193847656
 31
71.33555603027344
 12
190.84765625
 22
67.85545349121094
 32
52.85098648071289
 13
190.84765625
 23
67.85545349121094
 33
52.85098648071289
  0
3DFACE
  8
0
1001
WEBCAD
1000
E2_1779429236698
 10
196.51600646972656
 20
59.03835678100586
 30
83.92703247070312
 11
198.15304565429688
 21
58.57203674316406
 31
77.72782897949219
 12
198.58094787597656
 22
59.104286193847656
 32
71.33555603027344
 13
198.58094787597656
 23
59.104286193847656
 33
71.33555603027344
  0
3DFACE
  8
0
1001
WEBCAD
1000
E2_1779429236698
 10
185.66419982910156
 20
65.85919189453125
 30
97.81350708007812
 11
180.7965545654297
 21
69.4813461303711
 31
99.93800354003906
 12
183.269287109375
 22
67.6135025024414
 32
99.06168365478516
 13
183.269287109375
 23
67.6135025024414
 33
99.06168365478516
  0
3DFACE
  8
0
1001
WEBCAD
1000
E2_1779429236698
 10
185.66419982910156
 20
65.85919189453125
 30
97.81350708007812
 11
158.18235778808594
 21
90.0641860961914
 31
82.41622924804688
 12
170.88290405273438
 22
77.50508880615234
 32
99.54728698730469
 13
170.88290405273438
 23
77.50508880615234
 33
99.54728698730469
  0
3DFACE
  8
0
1001
WEBCAD
1000
E2_1779429236698
 10
185.66419982910156
 20
65.85919189453125
 30
97.81350708007812
 11
170.88290405273438
 21
77.50508880615234
 31
99.54728698730469
 12
180.7965545654297
 22
69.4813461303711
 32
99.93800354003906
 13
180.7965545654297
 23
69.4813461303711
 33
99.93800354003906
  0
3DFACE
  8
0
1001
WEBCAD
1000
E2_1779429236698
 10
185.66419982910156
 20
65.85919189453125
 30
97.81350708007812
 11
190.84765625
 21
67.85545349121094
 31
52.85098648071289
 12
158.18235778808594
 22
90.0641860961914
 32
82.41622924804688
 13
158.18235778808594
 23
90.0641860961914
 33
82.41622924804688
  0
3DFACE
  8
0
1001
WEBCAD
1000
E2_1779429236698
 10
195.27223205566406
 20
59.63951110839844
 30
86.83612823486328
 11
196.51600646972656
 21
59.03835678100586
 31
83.92703247070312
 12
190.84765625
 22
67.85545349121094
 32
52.85098648071289
 13
190.84765625
 23
67.85545349121094
 33
52.85098648071289
  0
3DFACE
  8
0
1001
WEBCAD
1000
E2_1779429236698
 10
190.0771026611328
 20
62.795406341552734
 30
94.28263854980469
 11
185.66419982910156
 21
65.85919189453125
 31
97.81350708007812
 12
187.9449920654297
 22
64.24500274658203
 32
96.21240234375
 13
187.9449920654297
 23
64.24500274658203
 33
96.21240234375
  0
3DFACE
  8
0
1001
WEBCAD
1000
E2_1779429236698
 10
192.0281982421875
 20
61.53238296508789
 30
92.05347442626953
 11
193.76870727539062
 21
60.47507858276367
 31
89.55870056152344
 12
195.27223205566406
 22
59.63951110839844
 32
86.83612823486328
 13
195.27223205566406
 23
59.63951110839844
 33
86.83612823486328
  0
3DFACE
  8
0
1001
WEBCAD
1000
E2_1779429236698
 10
192.0281982421875
 20
61.53238296508789
 30
92.05347442626953
 11
190.84765625
 21
67.85545349121094
 31
52.85098648071289
 12
185.66419982910156
 22
65.85919189453125
 32
97.81350708007812
 13
185.66419982910156
 23
65.85919189453125
 33
97.81350708007812
  0
3DFACE
  8
0
1001
WEBCAD
1000
E2_1779429236698
 10
192.0281982421875
 20
61.53238296508789
 30
92.05347442626953
 11
195.27223205566406
 21
59.63951110839844
 31
86.83612823486328
 12
190.84765625
 22
67.85545349121094
 32
52.85098648071289
 13
190.84765625
 23
67.85545349121094
 33
52.85098648071289
  0
3DFACE
  8
0
1001
WEBCAD
1000
E2_1779429236698
 10
192.0281982421875
 20
61.53238296508789
 30
92.05347442626953
 11
185.66419982910156
 21
65.85919189453125
 31
97.81350708007812
 12
190.0771026611328
 22
62.795406341552734
 32
94.28263854980469
 13
190.0771026611328
 23
62.795406341552734
 33
94.28263854980469
  0
3DFACE
  8
0
1001
WEBCAD
1000
E2_1779429236698
 10
118.90369415283203
 20
-40.0016975402832
 30
64.21513366699219
 11
119.27215576171875
 21
-39.85979461669922
 31
61.01899719238281
 12
163.63186645507812
 22
15.316703796386719
 32
68.58271026611328
 13
163.63186645507812
 23
15.316703796386719
 33
68.58271026611328
  0
3DFACE
  8
0
1001
WEBCAD
1000
E2_1779429236698
 10
118.90369415283203
 20
-40.0016975402832
 30
64.21513366699219
 11
163.63186645507812
 21
15.316703796386719
 31
68.58271026611328
 12
163.26339721679688
 22
15.174800872802734
 32
71.77884674072266
 13
163.26339721679688
 23
15.174800872802734
 33
71.77884674072266
  0
3DFACE
  8
0
1001
WEBCAD
1000
E2_1779429236698
 10
118.2317886352539
 20
-39.893009185791016
 30
67.3628158569336
 11
118.90369415283203
 21
-40.0016975402832
 31
64.21513366699219
 12
163.26339721679688
 22
15.174800872802734
 32
71.77884674072266
 13
163.26339721679688
 23
15.174800872802734
 33
71.77884674072266
  0
3DFACE
  8
0
1001
WEBCAD
1000
E2_1779429236698
 10
118.2317886352539
 20
-39.893009185791016
 30
67.3628158569336
 11
163.26339721679688
 21
15.174800872802734
 31
71.77884674072266
 12
162.5915069580078
 22
15.283489227294922
 32
74.92652893066406
 13
162.5915069580078
 23
15.283489227294922
 33
74.92652893066406
  0
3DFACE
  8
0
1001
WEBCAD
1000
E2_1779429236698
 10
118.2317886352539
 20
-39.893009185791016
 30
67.3628158569336
 11
162.5915069580078
 21
15.283489227294922
 31
74.92652893066406
 12
161.62635803222656
 22
15.641120910644531
 32
77.97804260253906
 13
161.62635803222656
 23
15.641120910644531
 33
77.97804260253906
  0
3DFACE
  8
0
1001
WEBCAD
1000
E2_1779429236698
 10
117.26664733886719
 20
-39.535377502441406
 30
70.41433715820312
 11
118.2317886352539
 21
-39.893009185791016
 31
67.3628158569336
 12
161.62635803222656
 22
15.641120910644531
 32
77.97804260253906
 13
161.62635803222656
 23
15.641120910644531
 33
77.97804260253906
  0
3DFACE
  8
0
1001
WEBCAD
1000
E2_1779429236698
 10
117.26664733886719
 20
-39.535377502441406
 30
70.41433715820312
 11
161.62635803222656
 21
15.641120910644531
 31
77.97804260253906
 12
160.38258361816406
 22
16.24227523803711
 32
80.88713836669922
 13
160.38258361816406
 23
16.24227523803711
 33
80.88713836669922
  0
3DFACE
  8
0
1001
WEBCAD
1000
E2_1779429236698
 10
116.02287292480469
 20
-38.93422317504883
 30
73.32343292236328
 11
117.26664733886719
 21
-39.535377502441406
 31
70.41433715820312
 12
160.38258361816406
 22
16.24227523803711
 32
80.88713836669922
 13
160.38258361816406
 23
16.24227523803711
 33
80.88713836669922
  0
3DFACE
  8
0
1001
WEBCAD
1000
E2_1779429236698
 10
114.51934051513672
 20
-38.09865951538086
 30
76.04600524902344
 11
116.02287292480469
 21
-38.93422317504883
 31
73.32343292236328
 12
160.38258361816406
 22
16.24227523803711
 32
80.88713836669922
 13
160.38258361816406
 23
16.24227523803711
 33
80.88713836669922
  0
3DFACE
  8
0
1001
WEBCAD
1000
E2_1779429236698
 10
114.51934051513672
 20
-38.09865951538086
 30
76.04600524902344
 11
160.38258361816406
 21
16.24227523803711
 31
80.88713836669922
 12
158.87905883789062
 22
17.07784080505371
 32
83.60971069335938
 13
158.87905883789062
 23
17.07784080505371
 33
83.60971069335938
  0
3DFACE
  8
0
1001
WEBCAD
1000
E2_1779429236698
 10
112.77883911132812
 20
-37.041351318359375
 30
78.54077911376953
 11
114.51934051513672
 21
-38.09865951538086
 31
76.04600524902344
 12
158.87905883789062
 22
17.07784080505371
 32
83.60971069335938
 13
158.87905883789062
 23
17.07784080505371
 33
83.60971069335938
  0
3DFACE
  8
0
1001
WEBCAD
1000
E2_1779429236698
 10
112.77883911132812
 20
-37.041351318359375
 30
78.54077911376953
 11
158.87905883789062
 21
17.07784080505371
 31
83.60971069335938
 12
157.1385498046875
 22
18.135149002075195
 32
86.1044921875
 13
157.1385498046875
 23
18.135149002075195
 33
86.1044921875
  0
3DFACE
  8
0
1001
WEBCAD
1000
E2_1779429236698
 10
110.82774353027344
 20
-35.77832794189453
 30
80.76994323730469
 11
112.77883911132812
 21
-37.041351318359375
 31
78.54077911376953
 12
157.1385498046875
 22
18.135149002075195
 32
86.1044921875
 13
157.1385498046875
 23
18.135149002075195
 33
86.1044921875
  0
3DFACE
  8
0
1001
WEBCAD
1000
E2_1779429236698
 10
110.82774353027344
 20
-35.77832794189453
 30
80.76994323730469
 11
157.1385498046875
 21
18.135149002075195
 31
86.1044921875
 12
155.1874542236328
 22
19.39817237854004
 32
88.33365631103516
 13
155.1874542236328
 23
19.39817237854004
 33
88.33365631103516
  0
3DFACE
  8
0
1001
WEBCAD
1000
E2_1779429236698
 10
108.69564056396484
 20
-34.3287353515625
 30
82.69970703125
 11
110.82774353027344
 21
-35.77832794189453
 31
80.76994323730469
 12
155.1874542236328
 22
19.39817237854004
 32
88.33365631103516
 13
155.1874542236328
 23
19.39817237854004
 33
88.33365631103516
  0
3DFACE
  8
0
1001
WEBCAD
1000
E2_1779429236698
 10
108.69564056396484
 20
-34.3287353515625
 30
82.69970703125
 11
155.1874542236328
 21
19.39817237854004
 31
88.33365631103516
 12
153.0553436279297
 22
20.84776496887207
 32
90.26342010498047
 13
153.0553436279297
 23
20.84776496887207
 33
90.26342010498047
  0
3DFACE
  8
0
1001
WEBCAD
1000
E2_1779429236698
 10
106.41484069824219
 20
-32.71454620361328
 30
84.30081176757812
 11
108.69564056396484
 21
-34.3287353515625
 31
82.69970703125
 12
153.0553436279297
 22
20.84776496887207
 32
90.26342010498047
 13
153.0553436279297
 23
20.84776496887207
 33
90.26342010498047
  0
3DFACE
  8
0
1001
WEBCAD
1000
E2_1779429236698
 10
106.41484069824219
 20
-32.71454620361328
 30
84.30081176757812
 11
153.0553436279297
 21
20.84776496887207
 31
90.26342010498047
 12
150.77455139160156
 22
22.461952209472656
 32
91.86451721191406
 13
150.77455139160156
 23
22.461952209472656
 33
91.86451721191406
  0
3DFACE
  8
0
1001
WEBCAD
1000
E2_1779429236698
 10
104.01992797851562
 20
-30.960233688354492
 30
85.54898834228516
 11
106.41484069824219
 21
-32.71454620361328
 31
84.30081176757812
 12
150.77455139160156
 22
22.461952209472656
 32
91.86451721191406
 13
150.77455139160156
 23
22.461952209472656
 33
91.86451721191406
  0
3DFACE
  8
0
1001
WEBCAD
1000
E2_1779429236698
 10
104.01992797851562
 20
-30.960233688354492
 30
85.54898834228516
 11
150.77455139160156
 21
22.461952209472656
 31
91.86451721191406
 12
148.379638671875
 22
24.216266632080078
 32
93.1126937866211
 13
148.379638671875
 23
24.216266632080078
 33
93.1126937866211
  0
3DFACE
  8
0
1001
WEBCAD
1000
E2_1779429236698
 10
101.54719543457031
 20
-29.092388153076172
 30
86.42530822753906
 11
104.01992797851562
 21
-30.960233688354492
 31
85.54898834228516
 12
148.379638671875
 22
24.216266632080078
 32
93.1126937866211
 13
148.379638671875
 23
24.216266632080078
 33
93.1126937866211
  0
3DFACE
  8
0
1001
WEBCAD
1000
E2_1779429236698
 10
101.54719543457031
 20
-29.092388153076172
 30
86.42530822753906
 11
148.379638671875
 21
24.216266632080078
 31
93.1126937866211
 12
145.9069061279297
 22
26.0841121673584
 32
93.98902130126953
 13
145.9069061279297
 23
26.0841121673584
 33
93.98902130126953
  0
3DFACE
  8
0
1001
WEBCAD
1000
E2_1779429236698
 10
99.03414154052734
 20
-27.139324188232422
 30
86.91650390625
 11
101.54719543457031
 21
-29.092388153076172
 31
86.42530822753906
 12
145.9069061279297
 22
26.0841121673584
 32
93.98902130126953
 13
145.9069061279297
 23
26.0841121673584
 33
93.98902130126953
  0
3DFACE
  8
0
1001
WEBCAD
1000
E2_1779429236698
 10
99.03414154052734
 20
-27.139324188232422
 30
86.91650390625
 11
145.9069061279297
 21
26.0841121673584
 31
93.98902130126953
 12
143.3938446044922
 22
28.03717613220215
 32
94.48021697998047
 13
143.3938446044922
 23
28.03717613220215
 33
94.48021697998047
  0
3DFACE
  8
0
1001
WEBCAD
1000
E2_1779429236698
 10
96.51885223388672
 20
-25.13064956665039
 30
87.0151138305664
 11
99.03414154052734
 21
-27.139324188232422
 31
86.91650390625
 12
143.3938446044922
 22
28.03717613220215
 32
94.48021697998047
 13
143.3938446044922
 23
28.03717613220215
 33
94.48021697998047
  0
3DFACE
  8
0
1001
WEBCAD
1000
E2_1779429236698
 10
96.51885223388672
 20
-25.13064956665039
 30
87.0151138305664
 11
143.3938446044922
 21
28.03717613220215
 31
94.48021697998047
 12
140.87855529785156
 22
30.045848846435547
 32
94.57882690429688
 13
140.87855529785156
 23
30.045848846435547
 33
94.57882690429688
  0
3DFACE
  8
0
1001
WEBCAD
1000
E2_1779429236698
 10
96.51885223388672
 20
-25.13064956665039
 30
87.0151138305664
 11
140.87855529785156
 21
30.045848846435547
 31
94.57882690429688
 12
138.399169921875
 22
32.07968521118164
 32
94.28336334228516
 13
138.399169921875
 23
32.07968521118164
 33
94.28336334228516
  0
3DFACE
  8
0
1001
WEBCAD
1000
E2_1779429236698
 10
94.03945922851562
 20
-23.096813201904297
 30
86.71965026855469
 11
96.51885223388672
 21
-25.13064956665039
 31
87.0151138305664
 12
138.399169921875
 22
32.07968521118164
 32
94.28336334228516
 13
138.399169921875
 23
32.07968521118164
 33
94.28336334228516
  0
3DFACE
  8
0
1001
WEBCAD
1000
E2_1779429236698
 10
91.633544921875
 20
-21.068647384643555
 30
86.03459167480469
 11
138.399169921875
 21
32.07968521118164
 31
94.28336334228516
 12
135.99325561523438
 22
34.107852935791016
 32
93.59830474853516
 13
135.99325561523438
 23
34.107852935791016
 33
93.59830474853516
  0
3DFACE
  8
0
1001
WEBCAD
1000
E2_1779429236698
 10
91.633544921875
 20
-21.068647384643555
 30
86.03459167480469
 11
94.03945922851562
 21
-23.096813201904297
 31
86.71965026855469
 12
138.399169921875
 22
32.07968521118164
 32
94.28336334228516
 13
138.399169921875
 23
32.07968521118164
 33
94.28336334228516
  0
3DFACE
  8
0
1001
WEBCAD
1000
E2_1779429236698
 10
89.33758544921875
 20
-19.076894760131836
 30
84.97032928466797
 11
135.99325561523438
 21
34.107852935791016
 31
93.59830474853516
 12
133.69729614257812
 22
36.099605560302734
 32
92.5340347290039
 13
133.69729614257812
 23
36.099605560302734
 33
92.5340347290039
  0
3DFACE
  8
0
1001
WEBCAD
1000
E2_1779429236698
 10
89.33758544921875
 20
-19.076894760131836
 30
84.97032928466797
 11
91.633544921875
 21
-21.068647384643555
 31
86.03459167480469
 12
135.99325561523438
 22
34.107852935791016
 32
93.59830474853516
 13
135.99325561523438
 23
34.107852935791016
 33
93.59830474853516
  0
3DFACE
  8
0
1001
WEBCAD
1000
E2_1779429236698
 10
87.18638610839844
 20
-17.151750564575195
 30
83.54297637939453
 11
133.69729614257812
 21
36.099605560302734
 31
92.5340347290039
 12
131.5460968017578
 22
38.024749755859375
 32
91.106689453125
 13
131.5460968017578
 23
38.024749755859375
 33
91.106689453125
  0
3DFACE
  8
0
1001
WEBCAD
1000
E2_1779429236698
 10
87.18638610839844
 20
-17.151750564575195
 30
83.54297637939453
 11
89.33758544921875
 21
-19.076894760131836
 31
84.97032928466797
 12
133.69729614257812
 22
36.099605560302734
 32
92.5340347290039
 13
133.69729614257812
 23
36.099605560302734
 33
92.5340347290039
  0
3DFACE
  8
0
1001
WEBCAD
1000
E2_1779429236698
 10
85.2125473022461
 20
-15.322395324707031
 30
81.7741928100586
 11
131.5460968017578
 21
38.024749755859375
 31
91.106689453125
 12
129.572265625
 22
39.854103088378906
 32
89.33790588378906
 13
129.572265625
 23
39.854103088378906
 33
89.33790588378906
  0
3DFACE
  8
0
1001
WEBCAD
1000
E2_1779429236698
 10
85.2125473022461
 20
-15.322395324707031
 30
81.7741928100586
 11
87.18638610839844
 21
-17.151750564575195
 31
83.54297637939453
 12
131.5460968017578
 22
38.024749755859375
 32
91.106689453125
 13
131.5460968017578
 23
38.024749755859375
 33
91.106689453125
  0
3DFACE
  8
0
1001
WEBCAD
1000
E2_1779429236698
 10
83.44599914550781
 20
-13.616561889648438
 30
79.6907730102539
 11
129.572265625
 21
39.854103088378906
 31
89.33790588378906
 12
127.80570983886719
 22
41.5599365234375
 32
87.25448608398438
 13
127.80570983886719
 23
41.5599365234375
 33
87.25448608398438
  0
3DFACE
  8
0
1001
WEBCAD
1000
E2_1779429236698
 10
83.44599914550781
 20
-13.616561889648438
 30
79.6907730102539
 11
127.80570983886719
 21
41.5599365234375
 31
87.25448608398438
 12
126.27323150634766
 22
43.116390228271484
 32
84.88802337646484
 13
126.27323150634766
 23
43.116390228271484
 33
84.88802337646484
  0
3DFACE
  8
0
1001
WEBCAD
1000
E2_1779429236698
 10
83.44599914550781
 20
-13.616561889648438
 30
79.6907730102539
 11
85.2125473022461
 21
-15.322395324707031
 31
81.7741928100586
 12
129.572265625
 22
39.854103088378906
 32
89.33790588378906
 13
129.572265625
 23
39.854103088378906
 33
89.33790588378906
  0
3DFACE
  8
0
1001
WEBCAD
1000
E2_1779429236698
 10
81.91352081298828
 20
-12.06010913848877
 30
77.3243179321289
 11
83.44599914550781
 21
-13.616561889648438
 31
79.6907730102539
 12
126.27323150634766
 22
43.116390228271484
 32
84.88802337646484
 13
126.27323150634766
 23
43.116390228271484
 33
84.88802337646484
  0
3DFACE
  8
0
1001
WEBCAD
1000
E2_1779429236698
 10
80.63833618164062
 20
-10.676630973815918
 30
74.71068572998047
 11
126.27323150634766
 21
43.116390228271484
 31
84.88802337646484
 12
124.998046875
 22
44.4998664855957
 32
82.2743911743164
 13
124.998046875
 23
44.4998664855957
 33
82.2743911743164
  0
3DFACE
  8
0
1001
WEBCAD
1000
E2_1779429236698
 10
80.63833618164062
 20
-10.676630973815918
 30
74.71068572998047
 11
81.91352081298828
 21
-12.06010913848877
 31
77.3243179321289
 12
126.27323150634766
 22
43.116390228271484
 32
84.88802337646484
 13
126.27323150634766
 23
43.116390228271484
 33
84.88802337646484
  0
3DFACE
  8
0
1001
WEBCAD
1000
E2_1779429236698
 10
79.63978576660156
 20
-9.487099647521973
 30
71.8895034790039
 11
124.998046875
 21
44.4998664855957
 31
82.2743911743164
 12
123.99949645996094
 22
45.68939971923828
 32
79.45320892333984
 13
123.99949645996094
 23
45.68939971923828
 33
79.45320892333984
  0
3DFACE
  8
0
1001
WEBCAD
1000
E2_1779429236698
 10
79.63978576660156
 20
-9.487099647521973
 30
71.8895034790039
 11
123.99949645996094
 21
45.68939971923828
 31
79.45320892333984
 12
123.2927017211914
 22
46.666954040527344
 32
76.46723937988281
 13
123.2927017211914
 23
46.666954040527344
 33
76.46723937988281
  0
3DFACE
  8
0
1001
WEBCAD
1000
E2_1779429236698
 10
79.63978576660156
 20
-9.487099647521973
 30
71.8895034790039
 11
80.63833618164062
 21
-10.676630973815918
 31
74.71068572998047
 12
124.998046875
 22
44.4998664855957
 32
82.2743911743164
 13
124.998046875
 23
44.4998664855957
 33
82.2743911743164
  0
3DFACE
  8
0
1001
WEBCAD
1000
E2_1779429236698
 10
78.93299865722656
 20
-8.509546279907227
 30
68.90352630615234
 11
79.63978576660156
 21
-9.487099647521973
 31
71.8895034790039
 12
123.2927017211914
 22
46.666954040527344
 32
76.46723937988281
 13
123.2927017211914
 23
46.666954040527344
 33
76.46723937988281
  0
3DFACE
  8
0
1001
WEBCAD
1000
E2_1779429236698
 10
78.5286865234375
 20
-7.758790969848633
 30
65.79804229736328
 11
78.93299865722656
 21
-8.509546279907227
 31
68.90352630615234
 12
123.2927017211914
 22
46.666954040527344
 32
76.46723937988281
 13
123.2927017211914
 23
46.666954040527344
 33
76.46723937988281
  0
3DFACE
  8
0
1001
WEBCAD
1000
E2_1779429236698
 10
78.5286865234375
 20
-7.758790969848633
 30
65.79804229736328
 11
123.2927017211914
 21
46.666954040527344
 31
76.46723937988281
 12
122.88839721679688
 22
47.41770935058594
 32
73.36174774169922
 13
122.88839721679688
 23
47.41770935058594
 33
73.36174774169922
  0
3DFACE
  8
0
1001
WEBCAD
1000
E2_1779429236698
 10
78.5286865234375
 20
-7.758790969848633
 30
65.79804229736328
 11
122.88839721679688
 21
47.41770935058594
 31
73.36174774169922
 12
122.79269409179688
 22
47.9302864074707
 32
70.1838150024414
 13
122.79269409179688
 23
47.9302864074707
 33
70.1838150024414
  0
3DFACE
  8
0
1001
WEBCAD
1000
E2_1779429236698
 10
78.4329833984375
 20
-7.246213436126709
 30
62.62010192871094
 11
78.5286865234375
 21
-7.758790969848633
 31
65.79804229736328
 12
122.79269409179688
 22
47.9302864074707
 32
70.1838150024414
 13
122.79269409179688
 23
47.9302864074707
 33
70.1838150024414
  0
3DFACE
  8
0
1001
WEBCAD
1000
E2_1779429236698
 10
78.64734649658203
 20
-6.979584693908691
 30
59.41789245605469
 11
78.4329833984375
 21
-7.246213436126709
 31
62.62010192871094
 12
122.79269409179688
 22
47.9302864074707
 32
70.1838150024414
 13
122.79269409179688
 23
47.9302864074707
 33
70.1838150024414
  0
3DFACE
  8
0
1001
WEBCAD
1000
E2_1779429236698
 10
78.64734649658203
 20
-6.979584693908691
 30
59.41789245605469
 11
122.79269409179688
 21
47.9302864074707
 31
70.1838150024414
 12
123.0070571899414
 22
48.19691467285156
 32
66.98160552978516
 13
123.0070571899414
 23
48.19691467285156
 33
66.98160552978516
  0
3DFACE
  8
0
1001
WEBCAD
1000
E2_1779429236698
 10
79.16851806640625
 20
-6.962945461273193
 30
56.23995590209961
 11
78.64734649658203
 21
-6.979584693908691
 31
59.41789245605469
 12
123.0070571899414
 22
48.19691467285156
 32
66.98160552978516
 13
123.0070571899414
 23
48.19691467285156
 33
66.98160552978516
  0
3DFACE
  8
0
1001
WEBCAD
1000
E2_1779429236698
 10
79.16851806640625
 20
-6.962945461273193
 30
56.23995590209961
 11
123.0070571899414
 21
48.19691467285156
 31
66.98160552978516
 12
123.5282211303711
 22
48.21355438232422
 32
63.80366897583008
 13
123.5282211303711
 23
48.21355438232422
 33
63.80366897583008
  0
3DFACE
  8
0
1001
WEBCAD
1000
E2_1779429236698
 10
79.98859405517578
 20
-7.196548938751221
 30
53.134464263916016
 11
79.16851806640625
 21
-6.962945461273193
 31
56.23995590209961
 12
123.5282211303711
 22
48.21355438232422
 32
63.80366897583008
 13
123.5282211303711
 23
48.21355438232422
 33
63.80366897583008
  0
3DFACE
  8
0
1001
WEBCAD
1000
E2_1779429236698
 10
79.98859405517578
 20
-7.196548938751221
 30
53.134464263916016
 11
123.5282211303711
 21
48.21355438232422
 31
63.80366897583008
 12
124.34830474853516
 22
47.979949951171875
 32
60.698177337646484
 13
124.34830474853516
 23
47.979949951171875
 33
60.698177337646484
  0
3DFACE
  8
0
1001
WEBCAD
1000
E2_1779429236698
 10
79.98859405517578
 20
-7.196548938751221
 30
53.134464263916016
 11
124.34830474853516
 21
47.979949951171875
 31
60.698177337646484
 12
125.4548568725586
 22
47.4996452331543
 32
57.71220779418945
 13
125.4548568725586
 23
47.4996452331543
 33
57.71220779418945
  0
3DFACE
  8
0
1001
WEBCAD
1000
E2_1779429236698
 10
81.09515380859375
 20
-7.676853179931641
 30
50.148494720458984
 11
79.98859405517578
 21
-7.196548938751221
 31
53.134464263916016
 12
125.4548568725586
 22
47.4996452331543
 32
57.71220779418945
 13
125.4548568725586
 23
47.4996452331543
 33
57.71220779418945
  0
3DFACE
  8
0
1001
WEBCAD
1000
E2_1779429236698
 10
82.4714126586914
 20
-8.396577835083008
 30
47.32731246948242
 11
81.09515380859375
 21
-7.676853179931641
 31
50.148494720458984
 12
125.4548568725586
 22
47.4996452331543
 32
57.71220779418945
 13
125.4548568725586
 23
47.4996452331543
 33
57.71220779418945
  0
3DFACE
  8
0
1001
WEBCAD
1000
E2_1779429236698
 10
82.4714126586914
 20
-8.396577835083008
 30
47.32731246948242
 11
125.4548568725586
 21
47.4996452331543
 31
57.71220779418945
 12
126.83111572265625
 22
46.77992248535156
 32
54.891021728515625
 13
126.83111572265625
 23
46.77992248535156
 33
54.891021728515625
  0
3DFACE
  8
0
1001
WEBCAD
1000
E2_1779429236698
 10
84.09651184082031
 20
-9.344812393188477
 30
44.713680267333984
 11
82.4714126586914
 21
-8.396577835083008
 31
47.32731246948242
 12
126.83111572265625
 22
46.77992248535156
 32
54.891021728515625
 13
126.83111572265625
 23
46.77992248535156
 33
54.891021728515625
  0
3DFACE
  8
0
1001
WEBCAD
1000
E2_1779429236698
 10
84.09651184082031
 20
-9.344812393188477
 30
44.713680267333984
 11
126.83111572265625
 21
46.77992248535156
 31
54.891021728515625
 12
128.4562225341797
 22
45.831687927246094
 32
52.27738952636719
 13
128.4562225341797
 23
45.831687927246094
 33
52.27738952636719
  0
3DFACE
  8
0
1001
WEBCAD
1000
E2_1779429236698
 10
85.94581604003906
 20
-10.507182121276855
 30
42.34722137451172
 11
84.09651184082031
 21
-9.344812393188477
 31
44.713680267333984
 12
128.4562225341797
 22
45.831687927246094
 32
52.27738952636719
 13
128.4562225341797
 23
45.831687927246094
 33
52.27738952636719
  0
3DFACE
  8
0
1001
WEBCAD
1000
E2_1779429236698
 10
85.94581604003906
 20
-10.507182121276855
 30
42.34722137451172
 11
128.4562225341797
 21
45.831687927246094
 31
52.27738952636719
 12
130.30552673339844
 22
44.669315338134766
 32
49.91093063354492
 13
130.30552673339844
 23
44.669315338134766
 33
49.91093063354492
  0
3DFACE
  8
0
1001
WEBCAD
1000
E2_1779429236698
 10
87.99130249023438
 20
-11.866067886352539
 30
40.2638053894043
 11
85.94581604003906
 21
-10.507182121276855
 31
42.34722137451172
 12
130.30552673339844
 22
44.669315338134766
 32
49.91093063354492
 13
130.30552673339844
 23
44.669315338134766
 33
49.91093063354492
  0
3DFACE
  8
0
1001
WEBCAD
1000
E2_1779429236698
 10
87.99130249023438
 20
-11.866067886352539
 30
40.2638053894043
 11
130.30552673339844
 21
44.669315338134766
 31
49.91093063354492
 12
132.35101318359375
 22
43.31043243408203
 32
47.8275146484375
 13
132.35101318359375
 23
43.31043243408203
 33
47.8275146484375
  0
3DFACE
  8
0
1001
WEBCAD
1000
E2_1779429236698
 10
87.99130249023438
 20
-11.866067886352539
 30
40.2638053894043
 11
132.35101318359375
 21
43.31043243408203
 31
47.8275146484375
 12
134.5616455078125
 22
41.775630950927734
 32
46.0587272644043
 13
134.5616455078125
 23
41.775630950927734
 33
46.0587272644043
  0
3DFACE
  8
0
1001
WEBCAD
1000
E2_1779429236698
 10
90.20194244384766
 20
-13.400869369506836
 30
38.495018005371094
 11
87.99130249023438
 21
-11.866067886352539
 31
40.2638053894043
 12
134.5616455078125
 22
41.775630950927734
 32
46.0587272644043
 13
134.5616455078125
 23
41.775630950927734
 33
46.0587272644043
  0
3DFACE
  8
0
1001
WEBCAD
1000
E2_1779429236698
 10
90.20194244384766
 20
-13.400869369506836
 30
38.495018005371094
 11
134.5616455078125
 21
41.775630950927734
 31
46.0587272644043
 12
136.90394592285156
 22
40.08817672729492
 32
44.63138198852539
 13
136.90394592285156
 23
40.08817672729492
 33
44.63138198852539
  0
3DFACE
  8
0
1001
WEBCAD
1000
E2_1779429236698
 10
92.54424285888672
 20
-15.0883207321167
 30
37.06766891479492
 11
90.20194244384766
 21
-13.400869369506836
 31
38.495018005371094
 12
136.90394592285156
 22
40.08817672729492
 32
44.63138198852539
 13
136.90394592285156
 23
40.08817672729492
 33
44.63138198852539
  0
3DFACE
  8
0
1001
WEBCAD
1000
E2_1779429236698
 10
94.9826889038086
 20
-16.902841567993164
 30
36.00340270996094
 11
92.54424285888672
 21
-15.0883207321167
 31
37.06766891479492
 12
136.90394592285156
 22
40.08817672729492
 32
44.63138198852539
 13
136.90394592285156
 23
40.08817672729492
 33
44.63138198852539
  0
3DFACE
  8
0
1001
WEBCAD
1000
E2_1779429236698
 10
94.9826889038086
 20
-16.902841567993164
 30
36.00340270996094
 11
136.90394592285156
 21
40.08817672729492
 31
44.63138198852539
 12
139.34239196777344
 22
38.273658752441406
 32
43.56711196899414
 13
139.34239196777344
 23
38.273658752441406
 33
43.56711196899414
  0
3DFACE
  8
0
1001
WEBCAD
1000
E2_1779429236698
 10
97.48031616210938
 20
-18.816926956176758
 30
35.31834411621094
 11
94.9826889038086
 21
-16.902841567993164
 31
36.00340270996094
 12
139.34239196777344
 22
38.273658752441406
 32
43.56711196899414
 13
139.34239196777344
 23
38.273658752441406
 33
43.56711196899414
  0
3DFACE
  8
0
1001
WEBCAD
1000
E2_1779429236698
 10
97.48031616210938
 20
-18.816926956176758
 30
35.31834411621094
 11
139.34239196777344
 21
38.273658752441406
 31
43.56711196899414
 12
141.84002685546875
 22
36.35957336425781
 32
42.88205337524414
 13
141.84002685546875
 23
36.35957336425781
 33
42.88205337524414
  0
3DFACE
  8
0
1001
WEBCAD
1000
E2_1779429236698
 10
99.999267578125
 20
-20.801559448242188
 30
35.02288055419922
 11
97.48031616210938
 21
-18.816926956176758
 31
35.31834411621094
 12
141.84002685546875
 22
36.35957336425781
 32
42.88205337524414
 13
141.84002685546875
 23
36.35957336425781
 33
42.88205337524414
  0
3DFACE
  8
0
1001
WEBCAD
1000
E2_1779429236698
 10
99.999267578125
 20
-20.801559448242188
 30
35.02288055419922
 11
141.84002685546875
 21
36.35957336425781
 31
42.88205337524414
 12
144.35897827148438
 22
34.37493896484375
 32
42.58658981323242
 13
144.35897827148438
 23
34.37493896484375
 33
42.58658981323242
  0
3DFACE
  8
0
1001
WEBCAD
1000
E2_1779429236698
 10
102.50135803222656
 20
-22.826656341552734
 30
35.12149429321289
 11
99.999267578125
 21
-20.801559448242188
 31
35.02288055419922
 12
144.35897827148438
 22
34.37493896484375
 32
42.58658981323242
 13
144.35897827148438
 23
34.37493896484375
 33
42.58658981323242
  0
3DFACE
  8
0
1001
WEBCAD
1000
E2_1779429236698
 10
102.50135803222656
 20
-22.826656341552734
 30
35.12149429321289
 11
144.35897827148438
 21
34.37493896484375
 31
42.58658981323242
 12
146.86106872558594
 22
32.3498420715332
 32
42.685203552246094
 13
146.86106872558594
 23
32.3498420715332
 33
42.685203552246094
  0
3DFACE
  8
0
1001
WEBCAD
1000
E2_1779429236698
 10
104.94864654541016
 20
-24.86151695251465
 30
35.61268615722656
 11
102.50135803222656
 21
-22.826656341552734
 31
35.12149429321289
 12
146.86106872558594
 22
32.3498420715332
 32
42.685203552246094
 13
146.86106872558594
 23
32.3498420715332
 33
42.685203552246094
  0
3DFACE
  8
0
1001
WEBCAD
1000
E2_1779429236698
 10
104.94864654541016
 20
-24.86151695251465
 30
35.61268615722656
 11
146.86106872558594
 21
32.3498420715332
 31
42.685203552246094
 12
149.30836486816406
 22
30.31498146057129
 32
43.176395416259766
 13
149.30836486816406
 23
30.31498146057129
 33
43.176395416259766
  0
3DFACE
  8
0
1001
WEBCAD
1000
E2_1779429236698
 10
104.94864654541016
 20
-24.86151695251465
 30
35.61268615722656
 11
149.30836486816406
 21
30.31498146057129
 31
43.176395416259766
 12
151.66375732421875
 22
28.30120277404785
 32
44.0527229309082
 13
151.66375732421875
 23
28.30120277404785
 33
44.0527229309082
  0
3DFACE
  8
0
1001
WEBCAD
1000
E2_1779429236698
 10
107.3040542602539
 20
-26.875295639038086
 30
36.489009857177734
 11
104.94864654541016
 21
-24.86151695251465
 31
35.61268615722656
 12
151.66375732421875
 22
28.30120277404785
 32
44.0527229309082
 13
151.66375732421875
 23
28.30120277404785
 33
44.0527229309082
  0
3DFACE
  8
0
1001
WEBCAD
1000
E2_1779429236698
 10
109.5318603515625
 20
-28.837465286254883
 30
37.737186431884766
 11
107.3040542602539
 21
-26.875295639038086
 31
36.489009857177734
 12
151.66375732421875
 22
28.30120277404785
 32
44.0527229309082
 13
151.66375732421875
 23
28.30120277404785
 33
44.0527229309082
  0
3DFACE
  8
0
1001
WEBCAD
1000
E2_1779429236698
 10
109.5318603515625
 20
-28.837465286254883
 30
37.737186431884766
 11
151.66375732421875
 21
28.30120277404785
 31
44.0527229309082
 12
153.89157104492188
 22
26.339033126831055
 32
45.30089569091797
 13
153.89157104492188
 23
26.339033126831055
 33
45.30089569091797
  0
3DFACE
  8
0
1001
WEBCAD
1000
E2_1779429236698
 10
109.5318603515625
 20
-28.837465286254883
 30
37.737186431884766
 11
153.89157104492188
 21
26.339033126831055
 31
45.30089569091797
 12
155.9580078125
 22
24.458215713500977
 32
46.902000427246094
 13
155.9580078125
 23
24.458215713500977
 33
46.902000427246094
  0
3DFACE
  8
0
1001
WEBCAD
1000
E2_1779429236698
 10
111.59829711914062
 20
-30.71828269958496
 30
39.33829116821289
 11
109.5318603515625
 21
-28.837465286254883
 31
37.737186431884766
 12
155.9580078125
 22
24.458215713500977
 32
46.902000427246094
 13
155.9580078125
 23
24.458215713500977
 33
46.902000427246094
  0
3DFACE
  8
0
1001
WEBCAD
1000
E2_1779429236698
 10
113.4720458984375
 20
-32.489234924316406
 30
41.26805114746094
 11
111.59829711914062
 21
-30.71828269958496
 31
39.33829116821289
 12
155.9580078125
 22
24.458215713500977
 32
46.902000427246094
 13
155.9580078125
 23
24.458215713500977
 33
46.902000427246094
  0
3DFACE
  8
0
1001
WEBCAD
1000
E2_1779429236698
 10
113.4720458984375
 20
-32.489234924316406
 30
41.26805114746094
 11
155.9580078125
 21
24.458215713500977
 31
46.902000427246094
 12
157.83175659179688
 22
22.68726348876953
 32
48.83176040649414
 13
157.83175659179688
 23
22.68726348876953
 33
48.83176040649414
  0
3DFACE
  8
0
1001
WEBCAD
1000
E2_1779429236698
 10
115.12469482421875
 20
-34.123477935791016
 30
43.497215270996094
 11
113.4720458984375
 21
-32.489234924316406
 31
41.26805114746094
 12
157.83175659179688
 22
22.68726348876953
 32
48.83176040649414
 13
157.83175659179688
 23
22.68726348876953
 33
48.83176040649414
  0
3DFACE
  8
0
1001
WEBCAD
1000
E2_1779429236698
 10
115.12469482421875
 20
-34.123477935791016
 30
43.497215270996094
 11
157.83175659179688
 21
22.68726348876953
 31
48.83176040649414
 12
159.48440551757812
 22
21.053020477294922
 32
51.06092834472656
 13
159.48440551757812
 23
21.053020477294922
 33
51.06092834472656
  0
3DFACE
  8
0
1001
WEBCAD
1000
E2_1779429236698
 10
116.53118896484375
 20
-35.59623718261719
 30
45.99199295043945
 11
115.12469482421875
 21
-34.123477935791016
 31
43.497215270996094
 12
159.48440551757812
 22
21.053020477294922
 32
51.06092834472656
 13
159.48440551757812
 23
21.053020477294922
 33
51.06092834472656
  0
3DFACE
  8
0
1001
WEBCAD
1000
E2_1779429236698
 10
116.53118896484375
 20
-35.59623718261719
 30
45.99199295043945
 11
159.48440551757812
 21
21.053020477294922
 31
51.06092834472656
 12
160.89089965820312
 22
19.58026123046875
 32
53.55570602416992
 13
160.89089965820312
 23
19.58026123046875
 33
53.55570602416992
  0
3DFACE
  8
0
1001
WEBCAD
1000
E2_1779429236698
 10
117.67021942138672
 20
-36.88518524169922
 30
48.71456527709961
 11
162.02992248535156
 21
18.291311264038086
 31
56.27827835083008
 12
162.88421630859375
 22
17.205711364746094
 32
59.18737030029297
 13
162.88421630859375
 23
17.205711364746094
 33
59.18737030029297
  0
3DFACE
  8
0
1001
WEBCAD
1000
E2_1779429236698
 10
117.67021942138672
 20
-36.88518524169922
 30
48.71456527709961
 11
116.53118896484375
 21
-35.59623718261719
 31
45.99199295043945
 12
160.89089965820312
 22
19.58026123046875
 32
53.55570602416992
 13
160.89089965820312
 23
19.58026123046875
 33
53.55570602416992
  0
3DFACE
  8
0
1001
WEBCAD
1000
E2_1779429236698
 10
117.67021942138672
 20
-36.88518524169922
 30
48.71456527709961
 11
160.89089965820312
 21
19.58026123046875
 31
53.55570602416992
 12
162.02992248535156
 22
18.291311264038086
 32
56.27827835083008
 13
162.02992248535156
 23
18.291311264038086
 33
56.27827835083008
  0
3DFACE
  8
0
1001
WEBCAD
1000
E2_1779429236698
 10
118.5245132446289
 20
-37.970787048339844
 30
51.623661041259766
 11
117.67021942138672
 21
-36.88518524169922
 31
48.71456527709961
 12
162.88421630859375
 22
17.205711364746094
 32
59.18737030029297
 13
162.88421630859375
 23
17.205711364746094
 33
59.18737030029297
  0
3DFACE
  8
0
1001
WEBCAD
1000
E2_1779429236698
 10
119.08111572265625
 20
-38.836585998535156
 30
54.67517852783203
 11
162.88421630859375
 21
17.205711364746094
 31
59.18737030029297
 12
163.44082641601562
 22
16.339914321899414
 32
62.2388916015625
 13
163.44082641601562
 23
16.339914321899414
 33
62.2388916015625
  0
3DFACE
  8
0
1001
WEBCAD
1000
E2_1779429236698
 10
119.08111572265625
 20
-38.836585998535156
 30
54.67517852783203
 11
118.5245132446289
 21
-37.970787048339844
 31
51.623661041259766
 12
162.88421630859375
 22
17.205711364746094
 32
59.18737030029297
 13
162.88421630859375
 23
17.205711364746094
 33
59.18737030029297
  0
3DFACE
  8
0
1001
WEBCAD
1000
E2_1779429236698
 10
119.33159637451172
 20
-39.469451904296875
 30
57.8228645324707
 11
163.44082641601562
 21
16.339914321899414
 31
62.2388916015625
 12
163.69129943847656
 22
15.707047462463379
 32
65.3865737915039
 13
163.69129943847656
 23
15.707047462463379
 33
65.3865737915039
  0
3DFACE
  8
0
1001
WEBCAD
1000
E2_1779429236698
 10
119.33159637451172
 20
-39.469451904296875
 30
57.8228645324707
 11
119.08111572265625
 21
-38.836585998535156
 31
54.67517852783203
 12
163.44082641601562
 22
16.339914321899414
 32
62.2388916015625
 13
163.44082641601562
 23
16.339914321899414
 33
62.2388916015625
  0
3DFACE
  8
0
1001
WEBCAD
1000
E2_1779429236698
 10
119.27215576171875
 20
-39.85979461669922
 30
61.01899719238281
 11
163.69129943847656
 21
15.707047462463379
 31
65.3865737915039
 12
163.63186645507812
 22
15.316703796386719
 32
68.58271026611328
 13
163.63186645507812
 23
15.316703796386719
 33
68.58271026611328
  0
3DFACE
  8
0
1001
WEBCAD
1000
E2_1779429236698
 10
119.27215576171875
 20
-39.85979461669922
 30
61.01899719238281
 11
119.33159637451172
 21
-39.469451904296875
 31
57.8228645324707
 12
163.69129943847656
 22
15.707047462463379
 32
65.3865737915039
 13
163.69129943847656
 23
15.707047462463379
 33
65.3865737915039
  0
3DFACE
  8
0
1001
WEBCAD
1000
E2_1779429236698
 10
90.20194244384766
 20
-13.400869369506836
 30
38.495018005371094
 11
85.94581604003906
 21
-10.507182121276855
 31
42.34722137451172
 12
87.99130249023438
 22
-11.866067886352539
 32
40.2638053894043
 13
87.99130249023438
 23
-11.866067886352539
 33
40.2638053894043
  0
3DFACE
  8
0
1001
WEBCAD
1000
E2_1779429236698
 10
81.09515380859375
 20
-7.676853179931641
 30
50.148494720458984
 11
82.4714126586914
 21
-8.396577835083008
 31
47.32731246948242
 12
84.09651184082031
 22
-9.344812393188477
 32
44.713680267333984
 13
84.09651184082031
 23
-9.344812393188477
 33
44.713680267333984
  0
3DFACE
  8
0
1001
WEBCAD
1000
E2_1779429236698
 10
81.09515380859375
 20
-7.676853179931641
 30
50.148494720458984
 11
84.09651184082031
 21
-9.344812393188477
 31
44.713680267333984
 12
85.94581604003906
 22
-10.507182121276855
 32
42.34722137451172
 13
85.94581604003906
 23
-10.507182121276855
 33
42.34722137451172
  0
3DFACE
  8
0
1001
WEBCAD
1000
E2_1779429236698
 10
79.98859405517578
 20
-7.196548938751221
 30
53.134464263916016
 11
85.94581604003906
 21
-10.507182121276855
 31
42.34722137451172
 12
90.20194244384766
 22
-13.400869369506836
 32
38.495018005371094
 13
90.20194244384766
 23
-13.400869369506836
 33
38.495018005371094
  0
3DFACE
  8
0
1001
WEBCAD
1000
E2_1779429236698
 10
79.98859405517578
 20
-7.196548938751221
 30
53.134464263916016
 11
81.09515380859375
 21
-7.676853179931641
 31
50.148494720458984
 12
85.94581604003906
 22
-10.507182121276855
 32
42.34722137451172
 13
85.94581604003906
 23
-10.507182121276855
 33
42.34722137451172
  0
3DFACE
  8
0
1001
WEBCAD
1000
E2_1779429236698
 10
94.9826889038086
 20
-16.902841567993164
 30
36.00340270996094
 11
90.20194244384766
 21
-13.400869369506836
 31
38.495018005371094
 12
92.54424285888672
 22
-15.0883207321167
 32
37.06766891479492
 13
92.54424285888672
 23
-15.0883207321167
 33
37.06766891479492
  0
3DFACE
  8
0
1001
WEBCAD
1000
E2_1779429236698
 10
79.16851806640625
 20
-6.962945461273193
 30
56.23995590209961
 11
79.98859405517578
 21
-7.196548938751221
 31
53.134464263916016
 12
90.20194244384766
 22
-13.400869369506836
 32
38.495018005371094
 13
90.20194244384766
 23
-13.400869369506836
 33
38.495018005371094
  0
3DFACE
  8
0
1001
WEBCAD
1000
E2_1779429236698
 10
79.16851806640625
 20
-6.962945461273193
 30
56.23995590209961
 11
90.20194244384766
 21
-13.400869369506836
 31
38.495018005371094
 12
94.9826889038086
 22
-16.902841567993164
 32
36.00340270996094
 13
94.9826889038086
 23
-16.902841567993164
 33
36.00340270996094
  0
3DFACE
  8
0
1001
WEBCAD
1000
E2_1779429236698
 10
78.4329833984375
 20
-7.246213436126709
 30
62.62010192871094
 11
78.64734649658203
 21
-6.979584693908691
 31
59.41789245605469
 12
79.16851806640625
 22
-6.962945461273193
 32
56.23995590209961
 13
79.16851806640625
 23
-6.962945461273193
 33
56.23995590209961
  0
3DFACE
  8
0
1001
WEBCAD
1000
E2_1779429236698
 10
78.5286865234375
 20
-7.758790969848633
 30
65.79804229736328
 11
79.16851806640625
 21
-6.962945461273193
 31
56.23995590209961
 12
94.9826889038086
 22
-16.902841567993164
 32
36.00340270996094
 13
94.9826889038086
 23
-16.902841567993164
 33
36.00340270996094
  0
3DFACE
  8
0
1001
WEBCAD
1000
E2_1779429236698
 10
78.5286865234375
 20
-7.758790969848633
 30
65.79804229736328
 11
78.4329833984375
 21
-7.246213436126709
 31
62.62010192871094
 12
79.16851806640625
 22
-6.962945461273193
 32
56.23995590209961
 13
79.16851806640625
 23
-6.962945461273193
 33
56.23995590209961
  0
3DFACE
  8
0
1001
WEBCAD
1000
E2_1779429236698
 10
104.94864654541016
 20
-24.86151695251465
 30
35.61268615722656
 11
94.9826889038086
 21
-16.902841567993164
 31
36.00340270996094
 12
97.48031616210938
 22
-18.816926956176758
 32
35.31834411621094
 13
97.48031616210938
 23
-18.816926956176758
 33
35.31834411621094
  0
3DFACE
  8
0
1001
WEBCAD
1000
E2_1779429236698
 10
104.94864654541016
 20
-24.86151695251465
 30
35.61268615722656
 11
97.48031616210938
 21
-18.816926956176758
 31
35.31834411621094
 12
99.999267578125
 22
-20.801559448242188
 32
35.02288055419922
 13
99.999267578125
 23
-20.801559448242188
 33
35.02288055419922
  0
3DFACE
  8
0
1001
WEBCAD
1000
E2_1779429236698
 10
104.94864654541016
 20
-24.86151695251465
 30
35.61268615722656
 11
99.999267578125
 21
-20.801559448242188
 31
35.02288055419922
 12
102.50135803222656
 22
-22.826656341552734
 32
35.12149429321289
 13
102.50135803222656
 23
-22.826656341552734
 33
35.12149429321289
  0
3DFACE
  8
0
1001
WEBCAD
1000
E2_1779429236698
 10
109.5318603515625
 20
-28.837465286254883
 30
37.737186431884766
 11
104.94864654541016
 21
-24.86151695251465
 31
35.61268615722656
 12
107.3040542602539
 22
-26.875295639038086
 32
36.489009857177734
 13
107.3040542602539
 23
-26.875295639038086
 33
36.489009857177734
  0
3DFACE
  8
0
1001
WEBCAD
1000
E2_1779429236698
 10
111.59829711914062
 20
-30.71828269958496
 30
39.33829116821289
 11
104.94864654541016
 21
-24.86151695251465
 31
35.61268615722656
 12
109.5318603515625
 22
-28.837465286254883
 32
37.737186431884766
 13
109.5318603515625
 23
-28.837465286254883
 33
37.737186431884766
  0
3DFACE
  8
0
1001
WEBCAD
1000
E2_1779429236698
 10
81.91352081298828
 20
-12.06010913848877
 30
77.3243179321289
 11
80.63833618164062
 21
-10.676630973815918
 31
74.71068572998047
 12
79.63978576660156
 22
-9.487099647521973
 32
71.8895034790039
 13
79.63978576660156
 23
-9.487099647521973
 33
71.8895034790039
  0
3DFACE
  8
0
1001
WEBCAD
1000
E2_1779429236698
 10
116.53118896484375
 20
-35.59623718261719
 30
45.99199295043945
 11
113.4720458984375
 21
-32.489234924316406
 31
41.26805114746094
 12
115.12469482421875
 22
-34.123477935791016
 32
43.497215270996094
 13
115.12469482421875
 23
-34.123477935791016
 33
43.497215270996094
  0
3DFACE
  8
0
1001
WEBCAD
1000
E2_1779429236698
 10
87.18638610839844
 20
-17.151750564575195
 30
83.54297637939453
 11
85.2125473022461
 21
-15.322395324707031
 31
81.7741928100586
 12
83.44599914550781
 22
-13.616561889648438
 32
79.6907730102539
 13
83.44599914550781
 23
-13.616561889648438
 33
79.6907730102539
  0
3DFACE
  8
0
1001
WEBCAD
1000
E2_1779429236698
 10
87.18638610839844
 20
-17.151750564575195
 30
83.54297637939453
 11
83.44599914550781
 21
-13.616561889648438
 31
79.6907730102539
 12
81.91352081298828
 22
-12.06010913848877
 32
77.3243179321289
 13
81.91352081298828
 23
-12.06010913848877
 33
77.3243179321289
  0
3DFACE
  8
0
1001
WEBCAD
1000
E2_1779429236698
 10
87.18638610839844
 20
-17.151750564575195
 30
83.54297637939453
 11
81.91352081298828
 21
-12.06010913848877
 31
77.3243179321289
 12
79.63978576660156
 22
-9.487099647521973
 32
71.8895034790039
 13
79.63978576660156
 23
-9.487099647521973
 33
71.8895034790039
  0
3DFACE
  8
0
1001
WEBCAD
1000
E2_1779429236698
 10
118.5245132446289
 20
-37.970787048339844
 30
51.623661041259766
 11
113.4720458984375
 21
-32.489234924316406
 31
41.26805114746094
 12
116.53118896484375
 22
-35.59623718261719
 32
45.99199295043945
 13
116.53118896484375
 23
-35.59623718261719
 33
45.99199295043945
  0
3DFACE
  8
0
1001
WEBCAD
1000
E2_1779429236698
 10
118.5245132446289
 20
-37.970787048339844
 30
51.623661041259766
 11
111.59829711914062
 21
-30.71828269958496
 31
39.33829116821289
 12
113.4720458984375
 22
-32.489234924316406
 32
41.26805114746094
 13
113.4720458984375
 23
-32.489234924316406
 33
41.26805114746094
  0
3DFACE
  8
0
1001
WEBCAD
1000
E2_1779429236698
 10
118.5245132446289
 20
-37.970787048339844
 30
51.623661041259766
 11
116.53118896484375
 21
-35.59623718261719
 31
45.99199295043945
 12
117.67021942138672
 22
-36.88518524169922
 32
48.71456527709961
 13
117.67021942138672
 23
-36.88518524169922
 33
48.71456527709961
  0
3DFACE
  8
0
1001
WEBCAD
1000
E2_1779429236698
 10
91.633544921875
 20
-21.068647384643555
 30
86.03459167480469
 11
104.94864654541016
 21
-24.86151695251465
 31
35.61268615722656
 12
111.59829711914062
 22
-30.71828269958496
 32
39.33829116821289
 13
111.59829711914062
 23
-30.71828269958496
 33
39.33829116821289
  0
3DFACE
  8
0
1001
WEBCAD
1000
E2_1779429236698
 10
91.633544921875
 20
-21.068647384643555
 30
86.03459167480469
 11
87.18638610839844
 21
-17.151750564575195
 31
83.54297637939453
 12
79.63978576660156
 22
-9.487099647521973
 32
71.8895034790039
 13
79.63978576660156
 23
-9.487099647521973
 33
71.8895034790039
  0
3DFACE
  8
0
1001
WEBCAD
1000
E2_1779429236698
 10
91.633544921875
 20
-21.068647384643555
 30
86.03459167480469
 11
89.33758544921875
 21
-19.076894760131836
 31
84.97032928466797
 12
87.18638610839844
 22
-17.151750564575195
 32
83.54297637939453
 13
87.18638610839844
 23
-17.151750564575195
 33
83.54297637939453
  0
3DFACE
  8
0
1001
WEBCAD
1000
E2_1779429236698
 10
91.633544921875
 20
-21.068647384643555
 30
86.03459167480469
 11
79.63978576660156
 21
-9.487099647521973
 31
71.8895034790039
 12
78.93299865722656
 22
-8.509546279907227
 32
68.90352630615234
 13
78.93299865722656
 23
-8.509546279907227
 33
68.90352630615234
  0
3DFACE
  8
0
1001
WEBCAD
1000
E2_1779429236698
 10
91.633544921875
 20
-21.068647384643555
 30
86.03459167480469
 11
78.93299865722656
 21
-8.509546279907227
 31
68.90352630615234
 12
78.5286865234375
 22
-7.758790969848633
 32
65.79804229736328
 13
78.5286865234375
 23
-7.758790969848633
 33
65.79804229736328
  0
3DFACE
  8
0
1001
WEBCAD
1000
E2_1779429236698
 10
91.633544921875
 20
-21.068647384643555
 30
86.03459167480469
 11
94.9826889038086
 21
-16.902841567993164
 31
36.00340270996094
 12
104.94864654541016
 22
-24.86151695251465
 32
35.61268615722656
 13
104.94864654541016
 23
-24.86151695251465
 33
35.61268615722656
  0
3DFACE
  8
0
1001
WEBCAD
1000
E2_1779429236698
 10
91.633544921875
 20
-21.068647384643555
 30
86.03459167480469
 11
78.5286865234375
 21
-7.758790969848633
 31
65.79804229736328
 12
94.9826889038086
 22
-16.902841567993164
 32
36.00340270996094
 13
94.9826889038086
 23
-16.902841567993164
 33
36.00340270996094
  0
3DFACE
  8
0
1001
WEBCAD
1000
E2_1779429236698
 10
96.51885223388672
 20
-25.13064956665039
 30
87.0151138305664
 11
94.03945922851562
 21
-23.096813201904297
 31
86.71965026855469
 12
91.633544921875
 22
-21.068647384643555
 32
86.03459167480469
 13
91.633544921875
 23
-21.068647384643555
 33
86.03459167480469
  0
3DFACE
  8
0
1001
WEBCAD
1000
E2_1779429236698
 10
119.27215576171875
 20
-39.85979461669922
 30
61.01899719238281
 11
118.5245132446289
 21
-37.970787048339844
 31
51.623661041259766
 12
119.08111572265625
 22
-38.836585998535156
 32
54.67517852783203
 13
119.08111572265625
 23
-38.836585998535156
 33
54.67517852783203
  0
3DFACE
  8
0
1001
WEBCAD
1000
E2_1779429236698
 10
119.27215576171875
 20
-39.85979461669922
 30
61.01899719238281
 11
119.08111572265625
 21
-38.836585998535156
 31
54.67517852783203
 12
119.33159637451172
 22
-39.469451904296875
 32
57.8228645324707
 13
119.33159637451172
 23
-39.469451904296875
 33
57.8228645324707
  0
3DFACE
  8
0
1001
WEBCAD
1000
E2_1779429236698
 10
101.54719543457031
 20
-29.092388153076172
 30
86.42530822753906
 11
99.03414154052734
 21
-27.139324188232422
 31
86.91650390625
 12
96.51885223388672
 22
-25.13064956665039
 32
87.0151138305664
 13
96.51885223388672
 23
-25.13064956665039
 33
87.0151138305664
  0
3DFACE
  8
0
1001
WEBCAD
1000
E2_1779429236698
 10
118.2317886352539
 20
-39.893009185791016
 30
67.3628158569336
 11
119.27215576171875
 21
-39.85979461669922
 31
61.01899719238281
 12
118.90369415283203
 22
-40.0016975402832
 32
64.21513366699219
 13
118.90369415283203
 23
-40.0016975402832
 33
64.21513366699219
  0
3DFACE
  8
0
1001
WEBCAD
1000
E2_1779429236698
 10
118.2317886352539
 20
-39.893009185791016
 30
67.3628158569336
 11
118.5245132446289
 21
-37.970787048339844
 31
51.623661041259766
 12
119.27215576171875
 22
-39.85979461669922
 32
61.01899719238281
 13
119.27215576171875
 23
-39.85979461669922
 33
61.01899719238281
  0
3DFACE
  8
0
1001
WEBCAD
1000
E2_1779429236698
 10
104.01992797851562
 20
-30.960233688354492
 30
85.54898834228516
 11
101.54719543457031
 21
-29.092388153076172
 31
86.42530822753906
 12
96.51885223388672
 22
-25.13064956665039
 32
87.0151138305664
 13
96.51885223388672
 23
-25.13064956665039
 33
87.0151138305664
  0
3DFACE
  8
0
1001
WEBCAD
1000
E2_1779429236698
 10
106.41484069824219
 20
-32.71454620361328
 30
84.30081176757812
 11
91.633544921875
 21
-21.068647384643555
 31
86.03459167480469
 12
111.59829711914062
 22
-30.71828269958496
 32
39.33829116821289
 13
111.59829711914062
 23
-30.71828269958496
 33
39.33829116821289
  0
3DFACE
  8
0
1001
WEBCAD
1000
E2_1779429236698
 10
106.41484069824219
 20
-32.71454620361328
 30
84.30081176757812
 11
96.51885223388672
 21
-25.13064956665039
 31
87.0151138305664
 12
91.633544921875
 22
-21.068647384643555
 32
86.03459167480469
 13
91.633544921875
 23
-21.068647384643555
 33
86.03459167480469
  0
3DFACE
  8
0
1001
WEBCAD
1000
E2_1779429236698
 10
106.41484069824219
 20
-32.71454620361328
 30
84.30081176757812
 11
104.01992797851562
 21
-30.960233688354492
 31
85.54898834228516
 12
96.51885223388672
 22
-25.13064956665039
 32
87.0151138305664
 13
96.51885223388672
 23
-25.13064956665039
 33
87.0151138305664
  0
3DFACE
  8
0
1001
WEBCAD
1000
E2_1779429236698
 10
116.02287292480469
 20
-38.93422317504883
 30
73.32343292236328
 11
118.2317886352539
 21
-39.893009185791016
 31
67.3628158569336
 12
117.26664733886719
 22
-39.535377502441406
 32
70.41433715820312
 13
117.26664733886719
 23
-39.535377502441406
 33
70.41433715820312
  0
3DFACE
  8
0
1001
WEBCAD
1000
E2_1779429236698
 10
116.02287292480469
 20
-38.93422317504883
 30
73.32343292236328
 11
118.5245132446289
 21
-37.970787048339844
 31
51.623661041259766
 12
118.2317886352539
 22
-39.893009185791016
 32
67.3628158569336
 13
118.2317886352539
 23
-39.893009185791016
 33
67.3628158569336
  0
3DFACE
  8
0
1001
WEBCAD
1000
E2_1779429236698
 10
112.77883911132812
 20
-37.041351318359375
 30
78.54077911376953
 11
116.02287292480469
 21
-38.93422317504883
 31
73.32343292236328
 12
114.51934051513672
 22
-38.09865951538086
 32
76.04600524902344
 13
114.51934051513672
 23
-38.09865951538086
 33
76.04600524902344
  0
3DFACE
  8
0
1001
WEBCAD
1000
E2_1779429236698
 10
112.77883911132812
 20
-37.041351318359375
 30
78.54077911376953
 11
110.82774353027344
 21
-35.77832794189453
 31
80.76994323730469
 12
108.69564056396484
 22
-34.3287353515625
 32
82.69970703125
 13
108.69564056396484
 23
-34.3287353515625
 33
82.69970703125
  0
3DFACE
  8
0
1001
WEBCAD
1000
E2_1779429236698
 10
112.77883911132812
 20
-37.041351318359375
 30
78.54077911376953
 11
108.69564056396484
 21
-34.3287353515625
 31
82.69970703125
 12
106.41484069824219
 22
-32.71454620361328
 32
84.30081176757812
 13
106.41484069824219
 23
-32.71454620361328
 33
84.30081176757812
  0
3DFACE
  8
0
1001
WEBCAD
1000
E2_1779429236698
 10
112.77883911132812
 20
-37.041351318359375
 30
78.54077911376953
 11
111.59829711914062
 21
-30.71828269958496
 31
39.33829116821289
 12
118.5245132446289
 22
-37.970787048339844
 32
51.623661041259766
 13
118.5245132446289
 23
-37.970787048339844
 33
51.623661041259766
  0
3DFACE
  8
0
1001
WEBCAD
1000
E2_1779429236698
 10
112.77883911132812
 20
-37.041351318359375
 30
78.54077911376953
 11
106.41484069824219
 21
-32.71454620361328
 31
84.30081176757812
 12
111.59829711914062
 22
-30.71828269958496
 32
39.33829116821289
 13
111.59829711914062
 23
-30.71828269958496
 33
39.33829116821289
  0
3DFACE
  8
0
1001
WEBCAD
1000
E2_1779429236698
 10
112.77883911132812
 20
-37.041351318359375
 30
78.54077911376953
 11
118.5245132446289
 21
-37.970787048339844
 31
51.623661041259766
 12
116.02287292480469
 22
-38.93422317504883
 32
73.32343292236328
 13
116.02287292480469
 23
-38.93422317504883
 33
73.32343292236328
  0
ENDSEC
  0
EOF
