  0
SECTION
  2
HEADER
  9
$ACADVER
  1
AC1009
  0
ENDSEC
  0
SECTION
  2
TABLES
  0
TABLE
  2
LTYPE
 70
1
  0
LTYPE
  2
CONTINUOUS
 70
0
  3
Solid line
 72
65
 73
0
 40
0.0
  0
ENDTAB
  0
TABLE
  2
LAYER
 70
1
  0
LAYER
  2
0
 70
0
 62
7
  6
CONTINUOUS
  0
ENDTAB
  0
ENDSEC
  0
SECTION
  2
ENTITIES
  0
ARC
  8
0
 10
15.952050974108891
 20
71.26912564639359
 30
0.0
 40
66.86407838396005
 50
-176.6826777003931
 51
50.14689844701888
  0
CIRCLE
  8
0
 10
15.952050974108891
 20
71.26912564639359
 30
0.0
 40
89.0456061686346
  0
LINE
  8
0
 10
15.952050974108891
 20
71.26912564639359
 30
0.0
 11
61.99999999999997
 21
150.60000610351565
 31
0.0
  0
LINE
  8
0
 10
61.99999999999997
 20
150.60000610351565
 30
0.0
 11
163.60003662109378
 21
150.60000610351565
 31
0.0
  0
LINE
  8
0
 10
163.60003662109378
 20
150.60000610351565
 30
0.0
 11
165.99999999999997
 21
-7.7999877929687385
 31
0.0
  0
LINE
  8
0
 10
165.99999999999997
 20
-7.7999877929687385
 30
0.0
 11
56.40002441406252
 21
-7.7999877929687385
 31
0.0
  0
LINE
  8
0
 10
56.40002441406252
 20
-7.7999877929687385
 30
0.0
 11
15.952050974108891
 21
71.26912564639359
 31
0.0
  0
POLYLINE
  8
0
 66
1
 70
0
  0
VERTEX
  8
0
 10
15.952050974108891
 20
71.26912564639359
 30
0.0
  0
VERTEX
  8
0
 10
-106.79998779296874
 20
71.39997863769531
 30
0.0
  0
VERTEX
  8
0
 10
-146.79998779296875
 20
120.20001220703124
 30
0.0
 42
-0.9824995929982248
  0
VERTEX
  8
0
 10
-40.399963378906236
 20
210.60001373291016
 30
0.0
 42
-0.17041947964905388
  0
VERTEX
  8
0
 10
15.952050974108891
 20
71.26912564639359
 30
0.0
  0
SEQEND
  0
POINT
  8
0
 10
134.00000000000006
 20
69.00001525878905
 30
0.0
  0
POLYLINE
  8
0
 66
1
 70
1
  0
VERTEX
  8
0
 10
141.2000122070313
 20
109.80000305175781
 30
0.0
  0
VERTEX
  8
0
 10
-22.578826431255308
 20
196.51708687931603
 30
0.0
  0
VERTEX
  8
0
 10
-109.29591025881355
 20
32.738248241029396
 30
0.0
  0
VERTEX
  8
0
 10
54.48292837947313
 20
-53.97883558652883
 30
0.0
  0
SEQEND
  0
SOLID
  8
0
10
15.952050974108891
20
71.26912564639359
30
0.0
11
61.99999999999997
21
150.60000610351565
31
0.0
12
141.2000122070313
22
109.80000305175781
32
0.0
13
56.40002441406252
23
-7.7999877929687385
33
0.0
  0
TRACE
  8
0
10
-168.41389679992122
20
-66.15195347611943
30
0.0
11
-168.3860909930476
21
-66.24800990278682
31
0.0
12
-77.2139151104681
22
-39.75195957963506
32
0.0
13
-77.18610930359444
23
-39.84801600630244
33
0.0
  0
TRACE
  8
0
10
-77.18074545651947
20
-39.75384895548105
30
0.0
11
-77.21927895754305
21
-39.84612663045645
31
0.0
12
-4.380696628394482
22
-70.1538428519654
32
0.0
13
-4.419230129418047
23
-70.2461205269408
33
0.0
  0
TRACE
  8
0
10
-4.412090160158081
20
-70.15147456444583
30
0.0
11
-4.387836597654448
21
-70.24848881446036
31
0.0
12
91.58790983984186
22
-46.151474564445884
32
0.0
13
91.6121634023455
23
-46.24848881446042
33
0.0
  0
TRACE
  8
0
10
91.616425269596
20
-46.15274386350543
30
0.0
11
91.58364797259136
21
-46.24721951540088
31
0.0
12
170.0163886485023
22
-73.35275607053663
32
0.0
13
169.98361135149764
23
-73.44723172243206
33
0.0
  0
TRACE
  8
0
10
169.96203716014614
20
-73.36745433916973
30
0.0
11
170.0379628398538
21
-73.43253345379897
31
0.0
12
198.76202495311495
22
-39.76744823565413
32
0.0
13
198.8379506328226
23
-39.83252735028337
33
0.0
  0
POLYLINE
  8
0
 66
1
 70
1
  0
VERTEX
  8
0
 10
-88.39996337890625
 20
72.20001220703125
 30
0.0
  0
VERTEX
  8
0
 10
-22.578826431255308
 20
196.51708687931603
 30
0.0
  0
VERTEX
  8
0
 10
-76.39996337890628
 20
231.40000915527344
 30
0.0
  0
VERTEX
  8
0
 10
-138.008957939045
 20
217.6690033108795
 30
0.0
  0
VERTEX
  8
0
 10
-163.6000061035156
 20
161.8000030517578
 30
0.0
  0
VERTEX
  8
0
 10
-146.79998779296875
 20
120.20001220703124
 30
0.0
  0
VERTEX
  8
0
 10
-106.79998779296874
 20
71.39997863769531
 30
0.0
  0
SEQEND
  0
POLYLINE
  8
0
 66
1
 70
0
  0
VERTEX
  8
0
 10
-202.79998779296878
 20
217.00000762939456
 30
0.0
  0
VERTEX
  8
0
 10
-202.00000000000003
 20
219.20001220703128
 30
0.0
  0
VERTEX
  8
0
 10
-200.00000000000006
 20
221.20001220703125
 30
0.0
  0
VERTEX
  8
0
 10
-198.00000000000006
 20
223.20001220703128
 30
0.0
  0
VERTEX
  8
0
 10
-194
 20
226.20001220703125
 30
0.0
  0
VERTEX
  8
0
 10
-189.99999999999997
 20
228.20001220703125
 30
0.0
  0
VERTEX
  8
0
 10
-185.99999999999997
 20
232.20001220703128
 30
0.0
  0
VERTEX
  8
0
 10
-182
 20
235.20001220703128
 30
0.0
  0
VERTEX
  8
0
 10
-175.00000000000003
 20
240.20001220703128
 30
0.0
  0
VERTEX
  8
0
 10
-170.00000000000003
 20
243.20001220703128
 30
0.0
  0
VERTEX
  8
0
 10
-165.99999999999997
 20
246.20001220703125
 30
0.0
  0
VERTEX
  8
0
 10
-161.99999999999997
 20
248.20001220703125
 30
0.0
  0
VERTEX
  8
0
 10
-158
 20
250.20001220703125
 30
0.0
  0
VERTEX
  8
0
 10
-156
 20
251.20001220703128
 30
0.0
  0
VERTEX
  8
0
 10
-153
 20
252.20001220703125
 30
0.0
  0
VERTEX
  8
0
 10
-150.00000000000003
 20
252.20001220703125
 30
0.0
  0
VERTEX
  8
0
 10
-143.00000000000003
 20
255.20001220703125
 30
0.0
  0
VERTEX
  8
0
 10
-140.99999999999997
 20
255.20001220703125
 30
0.0
  0
VERTEX
  8
0
 10
-138.99999999999997
 20
255.20001220703125
 30
0.0
  0
VERTEX
  8
0
 10
-136.99999999999997
 20
256.20001220703125
 30
0.0
  0
VERTEX
  8
0
 10
-134
 20
256.20001220703125
 30
0.0
  0
VERTEX
  8
0
 10
-131
 20
256.20001220703125
 30
0.0
  0
VERTEX
  8
0
 10
-129
 20
256.20001220703125
 30
0.0
  0
VERTEX
  8
0
 10
-126.00000000000001
 20
256.20001220703125
 30
0.0
  0
VERTEX
  8
0
 10
-123.00000000000003
 20
256.20001220703125
 30
0.0
  0
VERTEX
  8
0
 10
-118.00000000000004
 20
256.20001220703125
 30
0.0
  0
VERTEX
  8
0
 10
-115.99999999999997
 20
256.20001220703125
 30
0.0
  0
VERTEX
  8
0
 10
-111.99999999999999
 20
256.20001220703125
 30
0.0
  0
VERTEX
  8
0
 10
-109.99999999999999
 20
256.20001220703125
 30
0.0
  0
VERTEX
  8
0
 10
-107
 20
256.20001220703125
 30
0.0
  0
VERTEX
  8
0
 10
-104.00000000000001
 20
255.20001220703125
 30
0.0
  0
VERTEX
  8
0
 10
-102.00000000000001
 20
255.20001220703125
 30
0.0
  0
VERTEX
  8
0
 10
-97.00000000000003
 20
254.20001220703125
 30
0.0
  0
VERTEX
  8
0
 10
-94.00000000000003
 20
254.20001220703125
 30
0.0
  0
VERTEX
  8
0
 10
-88.99999999999997
 20
253.20001220703125
 30
0.0
  0
VERTEX
  8
0
 10
-84.99999999999999
 20
252.20001220703125
 30
0.0
  0
VERTEX
  8
0
 10
-81.99999999999999
 20
252.20001220703125
 30
0.0
  0
VERTEX
  8
0
 10
-78
 20
251.20001220703128
 30
0.0
  0
VERTEX
  8
0
 10
-76
 20
251.20001220703128
 30
0.0
  0
VERTEX
  8
0
 10
-74.00000000000001
 20
250.20001220703125
 30
0.0
  0
VERTEX
  8
0
 10
-71.00000000000003
 20
250.20001220703125
 30
0.0
  0
VERTEX
  8
0
 10
-67.00000000000003
 20
249.20001220703125
 30
0.0
  0
VERTEX
  8
0
 10
-63.99999999999997
 20
249.20001220703125
 30
0.0
  0
VERTEX
  8
0
 10
-60.99999999999998
 20
247.20001220703125
 30
0.0
  0
VERTEX
  8
0
 10
-57.999999999999986
 20
246.20001220703125
 30
0.0
  0
VERTEX
  8
0
 10
-54
 20
246.20001220703125
 30
0.0
  0
VERTEX
  8
0
 10
-51.00000000000001
 20
245.20001220703125
 30
0.0
  0
VERTEX
  8
0
 10
-48.000000000000014
 20
245.20001220703125
 30
0.0
  0
VERTEX
  8
0
 10
-46.000000000000014
 20
244.20001220703125
 30
0.0
  0
VERTEX
  8
0
 10
-44.00000000000002
 20
243.20001220703128
 30
0.0
  0
VERTEX
  8
0
 10
-41.00000000000003
 20
240.20001220703128
 30
0.0
  0
VERTEX
  8
0
 10
-39.000000000000036
 20
239.20001220703128
 30
0.0
  0
VERTEX
  8
0
 10
-36.99999999999997
 20
238.20001220703125
 30
0.0
  0
VERTEX
  8
0
 10
-33.99999999999998
 20
237.20001220703125
 30
0.0
  0
VERTEX
  8
0
 10
-30.999999999999986
 20
235.20001220703128
 30
0.0
  0
VERTEX
  8
0
 10
-29.99999999999999
 20
233.20001220703125
 30
0.0
  0
VERTEX
  8
0
 10
-27
 20
232.20001220703128
 30
0.0
  0
VERTEX
  8
0
 10
-22.00000000000001
 20
231.20001220703128
 30
0.0
  0
VERTEX
  8
0
 10
-21.000000000000014
 20
229.20001220703125
 30
0.0
  0
VERTEX
  8
0
 10
-18.000000000000025
 20
228.20001220703125
 30
0.0
  0
VERTEX
  8
0
 10
-15.000000000000032
 20
228.20001220703125
 30
0.0
  0
VERTEX
  8
0
 10
-14.000000000000036
 20
226.20001220703125
 30
0.0
  0
VERTEX
  8
0
 10
-11.999999999999964
 20
226.20001220703125
 30
0.0
  0
VERTEX
  8
0
 10
-9.999999999999972
 20
225.20001220703125
 30
0.0
  0
VERTEX
  8
0
 10
-7.999999999999977
 20
224.20001220703128
 30
0.0
  0
VERTEX
  8
0
 10
-3.9999999999999885
 20
223.20001220703128
 30
0.0
  0
VERTEX
  8
0
 10
-1.9999999999999942
 20
222.20001220703125
 30
0.0
  0
VERTEX
  8
0
 10
0
 20
221.20001220703125
 30
0.0
  0
VERTEX
  8
0
 10
3.9999999999999885
 20
220.20001220703125
 30
0.0
  0
VERTEX
  8
0
 10
5.999999999999982
 20
218.20001220703125
 30
0.0
  0
VERTEX
  8
0
 10
9.999999999999972
 20
217.20001220703125
 30
0.0
  0
VERTEX
  8
0
 10
13.999999999999961
 20
216.20001220703128
 30
0.0
  0
VERTEX
  8
0
 10
17.99999999999995
 20
215.20001220703128
 30
0.0
  0
VERTEX
  8
0
 10
21.000000000000014
 20
212.20001220703125
 30
0.0
  0
VERTEX
  8
0
 10
27
 20
208.20001220703128
 30
0.0
  0
VERTEX
  8
0
 10
30.000000000000064
 20
208.20001220703128
 30
0.0
  0
VERTEX
  8
0
 10
34.00000000000005
 20
206.20001220703125
 30
0.0
  0
VERTEX
  8
0
 10
38.00000000000004
 20
204.20001220703125
 30
0.0
  0
VERTEX
  8
0
 10
44.99999999999994
 20
201.20001220703125
 30
0.0
  0
VERTEX
  8
0
 10
53.00000000000008
 20
199.20001220703128
 30
0.0
  0
VERTEX
  8
0
 10
59.99999999999998
 20
196.20001220703128
 30
0.0
  0
VERTEX
  8
0
 10
69.99999999999994
 20
193.20001220703125
 30
0.0
  0
VERTEX
  8
0
 10
73.99999999999994
 20
192.20001220703128
 30
0.0
  0
VERTEX
  8
0
 10
79
 20
192.20001220703128
 30
0.0
  0
VERTEX
  8
0
 10
82.00000000000006
 20
191.20001220703125
 30
0.0
  0
VERTEX
  8
0
 10
84.99999999999999
 20
188.20001220703125
 30
0.0
  0
VERTEX
  8
0
 10
86.99999999999997
 20
186.20001220703125
 30
0.0
  0
VERTEX
  8
0
 10
90.00000000000004
 20
185.20001220703122
 30
0.0
  0
VERTEX
  8
0
 10
92.99999999999996
 20
183.20001220703125
 30
0.0
  0
VERTEX
  8
0
 10
94.99999999999994
 20
182.20001220703122
 30
0.0
  0
VERTEX
  8
0
 10
98.00000000000003
 20
180.20001220703125
 30
0.0
  0
VERTEX
  8
0
 10
100.00000000000003
 20
180.20001220703125
 30
0.0
  0
VERTEX
  8
0
 10
102.00000000000001
 20
179.20001220703125
 30
0.0
  0
VERTEX
  8
0
 10
104.00000000000001
 20
177.20001220703122
 30
0.0
  0
VERTEX
  8
0
 10
106
 20
176.20001220703125
 30
0.0
  0
VERTEX
  8
0
 10
109.99999999999999
 20
175.20001220703125
 30
0.0
  0
VERTEX
  8
0
 10
113.00000000000006
 20
171.20001220703122
 30
0.0
  0
VERTEX
  8
0
 10
117.99999999999997
 20
168.20001220703125
 30
0.0
  0
VERTEX
  8
0
 10
121.99999999999996
 20
166.20001220703122
 30
0.0
  0
VERTEX
  8
0
 10
130.00000000000009
 20
160.20001220703125
 30
0.0
  0
VERTEX
  8
0
 10
135
 20
156.20001220703125
 30
0.0
  0
VERTEX
  8
0
 10
140.99999999999997
 20
152.20001220703125
 30
0.0
  0
VERTEX
  8
0
 10
150.00000000000003
 20
149.20001220703125
 30
0.0
  0
VERTEX
  8
0
 10
163.60003662109378
 20
150.60000610351565
 30
0.0
  0
VERTEX
  8
0
 10
171.00000000000003
 20
143.20001220703128
 30
0.0
  0
VERTEX
  8
0
 10
177.99999999999994
 20
141.20001220703125
 30
0.0
  0
VERTEX
  8
0
 10
184.00000000000006
 20
138.20001220703125
 30
0.0
  0
VERTEX
  8
0
 10
186.99999999999997
 20
138.20001220703125
 30
0.0
  0
VERTEX
  8
0
 10
190.00000000000006
 20
137.20001220703125
 30
0.0
  0
VERTEX
  8
0
 10
192.00000000000006
 20
137.20001220703125
 30
0.0
  0
VERTEX
  8
0
 10
196.00000000000006
 20
135.20001220703125
 30
0.0
  0
VERTEX
  8
0
 10
198.00000000000006
 20
135.20001220703125
 30
0.0
  0
VERTEX
  8
0
 10
200.99999999999997
 20
133.20001220703125
 30
0.0
  0
VERTEX
  8
0
 10
202.99999999999997
 20
132.20001220703125
 30
0.0
  0
VERTEX
  8
0
 10
206.00000000000003
 20
130.20001220703125
 30
0.0
  0
VERTEX
  8
0
 10
210
 20
128.20001220703125
 30
0.0
  0
VERTEX
  8
0
 10
212
 20
125.20001220703125
 30
0.0
  0
VERTEX
  8
0
 10
214
 20
123.20001220703126
 30
0.0
  0
VERTEX
  8
0
 10
216
 20
121.20001220703125
 30
0.0
  0
VERTEX
  8
0
 10
218
 20
119.20001220703126
 30
0.0
  0
VERTEX
  8
0
 10
219.99999999999997
 20
117.20001220703125
 30
0.0
  0
VERTEX
  8
0
 10
221.00000000000006
 20
113.20001220703125
 30
0.0
  0
VERTEX
  8
0
 10
221.00000000000006
 20
109.20001220703125
 30
0.0
  0
VERTEX
  8
0
 10
221.00000000000006
 20
104.20001220703126
 30
0.0
  0
VERTEX
  8
0
 10
221.00000000000006
 20
101.20001220703125
 30
0.0
  0
VERTEX
  8
0
 10
221.00000000000006
 20
98.20001220703125
 30
0.0
  0
VERTEX
  8
0
 10
221.00000000000006
 20
95.20001220703125
 30
0.0
  0
VERTEX
  8
0
 10
221.00000000000006
 20
92.20001220703125
 30
0.0
  0
VERTEX
  8
0
 10
221.00000000000006
 20
89.20001220703126
 30
0.0
  0
VERTEX
  8
0
 10
221.00000000000006
 20
85.20001220703126
 30
0.0
  0
VERTEX
  8
0
 10
221.00000000000006
 20
83.20001220703125
 30
0.0
  0
VERTEX
  8
0
 10
221.00000000000006
 20
80.20001220703125
 30
0.0
  0
VERTEX
  8
0
 10
221.00000000000006
 20
77.20001220703126
 30
0.0
  0
VERTEX
  8
0
 10
221.00000000000006
 20
75.20001220703125
 30
0.0
  0
VERTEX
  8
0
 10
221.00000000000006
 20
71.20001220703125
 30
0.0
  0
VERTEX
  8
0
 10
221.00000000000006
 20
68.20001220703125
 30
0.0
  0
VERTEX
  8
0
 10
221.99999999999997
 20
64.20001220703125
 30
0.0
  0
VERTEX
  8
0
 10
221.99999999999997
 20
61.20001220703126
 30
0.0
  0
VERTEX
  8
0
 10
221.99999999999997
 20
59.20001220703124
 30
0.0
  0
VERTEX
  8
0
 10
223.00000000000006
 20
56.20001220703125
 30
0.0
  0
VERTEX
  8
0
 10
223.00000000000006
 20
52.20001220703125
 30
0.0
  0
VERTEX
  8
0
 10
223.00000000000006
 20
49.20001220703126
 30
0.0
  0
VERTEX
  8
0
 10
223.99999999999997
 20
46.20001220703126
 30
0.0
  0
VERTEX
  8
0
 10
223.99999999999997
 20
44.20001220703124
 30
0.0
  0
VERTEX
  8
0
 10
225.00000000000006
 20
39.200012207031236
 30
0.0
  0
VERTEX
  8
0
 10
225.00000000000006
 20
36.20001220703124
 30
0.0
  0
VERTEX
  8
0
 10
225.00000000000006
 20
32.20001220703124
 30
0.0
  0
VERTEX
  8
0
 10
225.00000000000006
 20
25.20001220703125
 30
0.0
  0
VERTEX
  8
0
 10
225.00000000000006
 20
18.200012207031254
 30
0.0
  0
VERTEX
  8
0
 10
225.00000000000006
 20
16.200012207031236
 30
0.0
  0
VERTEX
  8
0
 10
225.00000000000006
 20
13.200012207031245
 30
0.0
  0
VERTEX
  8
0
 10
225.00000000000006
 20
9.200012207031243
 30
0.0
  0
VERTEX
  8
0
 10
225.00000000000006
 20
5.200012207031241
 30
0.0
  0
VERTEX
  8
0
 10
223.00000000000006
 20
3.2000122070312567
 30
0.0
  0
VERTEX
  8
0
 10
223.00000000000006
 20
1.2000122070312402
 30
0.0
  0
VERTEX
  8
0
 10
223.00000000000006
 20
-0.7999877929687762
 30
0.0
  0
VERTEX
  8
0
 10
221.99999999999997
 20
-2.799987792968729
 30
0.0
  0
VERTEX
  8
0
 10
221.99999999999997
 20
-4.799987792968746
 30
0.0
  0
VERTEX
  8
0
 10
221.00000000000006
 20
-7.7999877929687385
 30
0.0
  0
VERTEX
  8
0
 10
219.00000000000006
 20
-11.799987792968771
 30
0.0
  0
VERTEX
  8
0
 10
218
 20
-13.799987792968725
 30
0.0
  0
VERTEX
  8
0
 10
217.00000000000006
 20
-16.799987792968782
 30
0.0
  0
VERTEX
  8
0
 10
215.00000000000009
 20
-18.799987792968732
 30
0.0
  0
VERTEX
  8
0
 10
214
 20
-21.799987792968725
 30
0.0
  0
VERTEX
  8
0
 10
211.00000000000009
 20
-23.799987792968743
 30
0.0
  0
VERTEX
  8
0
 10
210
 20
-25.79998779296876
 30
0.0
  0
VERTEX
  8
0
 10
209.00000000000009
 20
-27.79998779296878
 30
0.0
  0
VERTEX
  8
0
 10
208.00000000000003
 20
-31.799987792968746
 30
0.0
  0
VERTEX
  8
0
 10
204.99999999999994
 20
-34.799987792968736
 30
0.0
  0
VERTEX
  8
0
 10
204.00000000000003
 20
-38.79998779296877
 30
0.0
  0
VERTEX
  8
0
 10
202.00000000000003
 20
-40.79998779296872
 30
0.0
  0
VERTEX
  8
0
 10
200.99999999999997
 20
-43.79998779296878
 30
0.0
  0
VERTEX
  8
0
 10
196.99999999999997
 20
-47.79998779296875
 30
0.0
  0
VERTEX
  8
0
 10
194.99999999999997
 20
-49.79998779296877
 30
0.0
  0
VERTEX
  8
0
 10
193
 20
-53.79998779296874
 30
0.0
  0
VERTEX
  8
0
 10
190.00000000000006
 20
-58.79998779296875
 30
0.0
  0
VERTEX
  8
0
 10
188.99999999999997
 20
-60.799987792968764
 30
0.0
  0
VERTEX
  8
0
 10
186.99999999999997
 20
-63.79998779296876
 30
0.0
  0
VERTEX
  8
0
 10
186.00000000000006
 20
-65.79998779296878
 30
0.0
  0
VERTEX
  8
0
 10
185
 20
-67.79998779296872
 30
0.0
  0
VERTEX
  8
0
 10
184.00000000000006
 20
-70.79998779296878
 30
0.0
  0
VERTEX
  8
0
 10
182.00000000000006
 20
-70.79998779296878
 30
0.0
  0
VERTEX
  8
0
 10
181
 20
-74.79998779296875
 30
0.0
  0
VERTEX
  8
0
 10
177
 20
-78.79998779296872
 30
0.0
  0
VERTEX
  8
0
 10
175.00000000000003
 20
-79.79998779296876
 30
0.0
  0
VERTEX
  8
0
 10
173.99999999999994
 20
-81.79998779296878
 30
0.0
  0
VERTEX
  8
0
 10
173.00000000000003
 20
-83.79998779296872
 30
0.0
  0
VERTEX
  8
0
 10
169.99999999999997
 20
-83.79998779296872
 30
0.0
  0
VERTEX
  8
0
 10
167.99999999999997
 20
-83.79998779296872
 30
0.0
  0
VERTEX
  8
0
 10
165.99999999999997
 20
-84.79998779296876
 30
0.0
  0
VERTEX
  8
0
 10
163.99999999999997
 20
-84.79998779296876
 30
0.0
  0
VERTEX
  8
0
 10
161.99999999999997
 20
-84.79998779296876
 30
0.0
  0
VERTEX
  8
0
 10
156
 20
-84.79998779296876
 30
0.0
  0
VERTEX
  8
0
 10
154
 20
-84.79998779296876
 30
0.0
  0
VERTEX
  8
0
 10
150.99999999999994
 20
-84.79998779296876
 30
0.0
  0
VERTEX
  8
0
 10
148.00000000000003
 20
-84.79998779296876
 30
0.0
  0
VERTEX
  8
0
 10
144.99999999999997
 20
-84.79998779296876
 30
0.0
  0
VERTEX
  8
0
 10
142.00000000000006
 20
-84.79998779296876
 30
0.0
  0
VERTEX
  8
0
 10
136.99999999999997
 20
-84.79998779296876
 30
0.0
  0
VERTEX
  8
0
 10
134.00000000000006
 20
-84.79998779296876
 30
0.0
  0
VERTEX
  8
0
 10
129
 20
-84.79998779296876
 30
0.0
  0
VERTEX
  8
0
 10
125.99999999999994
 20
-84.79998779296876
 30
0.0
  0
VERTEX
  8
0
 10
123.00000000000003
 20
-84.79998779296876
 30
0.0
  0
VERTEX
  8
0
 10
121.00000000000003
 20
-84.79998779296876
 30
0.0
  0
VERTEX
  8
0
 10
117.99999999999997
 20
-84.79998779296876
 30
0.0
  0
VERTEX
  8
0
 10
113.00000000000006
 20
-84.79998779296876
 30
0.0
  0
VERTEX
  8
0
 10
109.99999999999999
 20
-84.79998779296876
 30
0.0
  0
VERTEX
  8
0
 10
107.00000000000007
 20
-84.79998779296876
 30
0.0
  0
VERTEX
  8
0
 10
102.00000000000001
 20
-84.79998779296876
 30
0.0
  0
VERTEX
  8
0
 10
98.99999999999996
 20
-84.79998779296876
 30
0.0
  0
VERTEX
  8
0
 10
94.00000000000003
 20
-84.79998779296876
 30
0.0
  0
VERTEX
  8
0
 10
90.99999999999996
 20
-84.79998779296876
 30
0.0
  0
VERTEX
  8
0
 10
86.00000000000006
 20
-84.79998779296876
 30
0.0
  0
VERTEX
  8
0
 10
82.99999999999999
 20
-84.79998779296876
 30
0.0
  0
VERTEX
  8
0
 10
80.00000000000007
 20
-84.79998779296876
 30
0.0
  0
VERTEX
  8
0
 10
69.99999999999994
 20
-84.79998779296876
 30
0.0
  0
VERTEX
  8
0
 10
63.00000000000005
 20
-84.79998779296876
 30
0.0
  0
VERTEX
  8
0
 10
50.000000000000014
 20
-88.79998779296874
 30
0.0
  0
VERTEX
  8
0
 10
38.00000000000004
 20
-90.79998779296875
 30
0.0
  0
VERTEX
  8
0
 10
25.000000000000007
 20
-93.79998779296874
 30
0.0
  0
VERTEX
  8
0
 10
13.999999999999961
 20
-93.79998779296874
 30
0.0
  0
VERTEX
  8
0
 10
1.9999999999999942
 20
-93.79998779296874
 30
0.0
  0
VERTEX
  8
0
 10
-7.999999999999977
 20
-95.79998779296876
 30
0.0
  0
VERTEX
  8
0
 10
-14.000000000000036
 20
-95.79998779296876
 30
0.0
  0
VERTEX
  8
0
 10
-22.00000000000001
 20
-95.79998779296876
 30
0.0
  0
VERTEX
  8
0
 10
-28.999999999999993
 20
-95.79998779296876
 30
0.0
  0
VERTEX
  8
0
 10
-32.99999999999998
 20
-95.79998779296876
 30
0.0
  0
VERTEX
  8
0
 10
-39.000000000000036
 20
-95.79998779296876
 30
0.0
  0
VERTEX
  8
0
 10
-46.000000000000014
 20
-93.79998779296874
 30
0.0
  0
VERTEX
  8
0
 10
-49.000000000000014
 20
-92.79998779296876
 30
0.0
  0
VERTEX
  8
0
 10
-51.00000000000001
 20
-91.79998779296872
 30
0.0
  0
VERTEX
  8
0
 10
-54.99999999999999
 20
-89.79998779296878
 30
0.0
  0
VERTEX
  8
0
 10
-60.99999999999998
 20
-89.79998779296878
 30
0.0
  0
VERTEX
  8
0
 10
-63.99999999999997
 20
-89.79998779296878
 30
0.0
  0
VERTEX
  8
0
 10
-69.00000000000003
 20
-87.79998779296876
 30
0.0
  0
VERTEX
  8
0
 10
-75.00000000000001
 20
-87.79998779296876
 30
0.0
  0
VERTEX
  8
0
 10
-78
 20
-87.79998779296876
 30
0.0
  0
VERTEX
  8
0
 10
-80.99999999999999
 20
-87.79998779296876
 30
0.0
  0
VERTEX
  8
0
 10
-84.99999999999999
 20
-87.79998779296876
 30
0.0
  0
VERTEX
  8
0
 10
-89.99999999999996
 20
-87.79998779296876
 30
0.0
  0
VERTEX
  8
0
 10
-92.00000000000003
 20
-87.79998779296876
 30
0.0
  0
VERTEX
  8
0
 10
-94.00000000000003
 20
-87.79998779296876
 30
0.0
  0
VERTEX
  8
0
 10
-96.00000000000003
 20
-87.79998779296876
 30
0.0
  0
VERTEX
  8
0
 10
-98.00000000000003
 20
-87.79998779296876
 30
0.0
  0
VERTEX
  8
0
 10
-100.00000000000003
 20
-86.79998779296872
 30
0.0
  0
VERTEX
  8
0
 10
-103.00000000000001
 20
-83.79998779296872
 30
0.0
  0
VERTEX
  8
0
 10
-105
 20
-81.79998779296878
 30
0.0
  0
VERTEX
  8
0
 10
-108
 20
-80.79998779296874
 30
0.0
  0
VERTEX
  8
0
 10
-109.99999999999999
 20
-79.79998779296876
 30
0.0
  0
VERTEX
  8
0
 10
-111.99999999999999
 20
-77.79998779296874
 30
0.0
  0
VERTEX
  8
0
 10
-113.99999999999999
 20
-76.79998779296876
 30
0.0
  0
VERTEX
  8
0
 10
-118.00000000000004
 20
-75.79998779296872
 30
0.0
  0
VERTEX
  8
0
 10
-122.00000000000003
 20
-74.79998779296875
 30
0.0
  0
VERTEX
  8
0
 10
-126.00000000000001
 20
-73.79998779296878
 30
0.0
  0
VERTEX
  8
0
 10
-132
 20
-73.79998779296878
 30
0.0
  0
VERTEX
  8
0
 10
-137.99999999999997
 20
-72.79998779296874
 30
0.0
  0
VERTEX
  8
0
 10
-141.99999999999997
 20
-71.79998779296875
 30
0.0
  0
VERTEX
  8
0
 10
-148.00000000000003
 20
-71.79998779296875
 30
0.0
  0
VERTEX
  8
0
 10
-151.00000000000003
 20
-71.79998779296875
 30
0.0
  0
VERTEX
  8
0
 10
-154
 20
-71.79998779296875
 30
0.0
  0
VERTEX
  8
0
 10
-157
 20
-69.79998779296874
 30
0.0
  0
VERTEX
  8
0
 10
-162.99999999999997
 20
-67.79998779296872
 30
0.0
  0
VERTEX
  8
0
 10
-164.99999999999997
 20
-67.79998779296872
 30
0.0
  0
VERTEX
  8
0
 10
-166.99999999999997
 20
-67.79998779296872
 30
0.0
  0
VERTEX
  8
0
 10
-170.00000000000003
 20
-67.79998779296872
 30
0.0
  0
VERTEX
  8
0
 10
-172.00000000000003
 20
-67.79998779296872
 30
0.0
  0
VERTEX
  8
0
 10
-177
 20
-68.79998779296876
 30
0.0
  0
VERTEX
  8
0
 10
-180
 20
-71.79998779296875
 30
0.0
  0
VERTEX
  8
0
 10
-182
 20
-71.79998779296875
 30
0.0
  0
VERTEX
  8
0
 10
-184
 20
-71.79998779296875
 30
0.0
  0
VERTEX
  8
0
 10
-185.99999999999997
 20
-72.79998779296874
 30
0.0
  0
VERTEX
  8
0
 10
-187.99999999999997
 20
-72.79998779296874
 30
0.0
  0
VERTEX
  8
0
 10
-189.99999999999997
 20
-72.79998779296874
 30
0.0
  0
VERTEX
  8
0
 10
-191.99999999999997
 20
-71.79998779296875
 30
0.0
  0
VERTEX
  8
0
 10
-193
 20
-68.79998779296876
 30
0.0
  0
VERTEX
  8
0
 10
-194
 20
-64.79998779296874
 30
0.0
  0
VERTEX
  8
0
 10
-195.00000000000006
 20
-62.79998779296878
 30
0.0
  0
VERTEX
  8
0
 10
-196.00000000000006
 20
-59.79998779296872
 30
0.0
  0
VERTEX
  8
0
 10
-196.00000000000006
 20
-55.79998779296876
 30
0.0
  0
VERTEX
  8
0
 10
-197.00000000000006
 20
-52.799987792968764
 30
0.0
  0
VERTEX
  8
0
 10
-198.00000000000006
 20
-49.79998779296877
 30
0.0
  0
VERTEX
  8
0
 10
-199.00000000000006
 20
-46.79998779296877
 30
0.0
  0
VERTEX
  8
0
 10
-199.00000000000006
 20
-41.799987792968764
 30
0.0
  0
VERTEX
  8
0
 10
-200.00000000000006
 20
-36.79998779296876
 30
0.0
  0
VERTEX
  8
0
 10
-202.00000000000003
 20
-29.79998779296873
 30
0.0
  0
VERTEX
  8
0
 10
-202.00000000000003
 20
-19.799987792968775
 30
0.0
  0
VERTEX
  8
0
 10
-202.00000000000003
 20
-16.799987792968782
 30
0.0
  0
VERTEX
  8
0
 10
-203.00000000000003
 20
-10.79998779296873
 30
0.0
  0
VERTEX
  8
0
 10
-204.00000000000003
 20
-5.7999877929687225
 30
0.0
  0
VERTEX
  8
0
 10
-206.00000000000003
 20
4.200012207031265
 30
0.0
  0
VERTEX
  8
0
 10
-206.00000000000003
 20
8.200012207031234
 30
0.0
  0
VERTEX
  8
0
 10
-206.00000000000003
 20
11.200012207031259
 30
0.0
  0
VERTEX
  8
0
 10
-206.00000000000003
 20
16.200012207031236
 30
0.0
  0
VERTEX
  8
0
 10
-206.00000000000003
 20
18.200012207031254
 30
0.0
  0
VERTEX
  8
0
 10
-206.00000000000003
 20
22.200012207031254
 30
0.0
  0
VERTEX
  8
0
 10
-206.00000000000003
 20
25.20001220703125
 30
0.0
  0
VERTEX
  8
0
 10
-206.00000000000003
 20
30.200012207031257
 30
0.0
  0
VERTEX
  8
0
 10
-206.00000000000003
 20
36.20001220703124
 30
0.0
  0
VERTEX
  8
0
 10
-206.00000000000003
 20
40.20001220703124
 30
0.0
  0
VERTEX
  8
0
 10
-207.00000000000003
 20
46.20001220703126
 30
0.0
  0
VERTEX
  8
0
 10
-208.00000000000003
 20
56.20001220703125
 30
0.0
  0
VERTEX
  8
0
 10
-208.00000000000003
 20
60.20001220703125
 30
0.0
  0
VERTEX
  8
0
 10
-208.00000000000003
 20
64.20001220703125
 30
0.0
  0
VERTEX
  8
0
 10
-209.00000000000003
 20
68.20001220703125
 30
0.0
  0
VERTEX
  8
0
 10
-209.00000000000003
 20
74.20001220703124
 30
0.0
  0
VERTEX
  8
0
 10
-209.00000000000003
 20
76.20001220703125
 30
0.0
  0
VERTEX
  8
0
 10
-210
 20
82.20001220703124
 30
0.0
  0
VERTEX
  8
0
 10
-210
 20
85.20001220703126
 30
0.0
  0
VERTEX
  8
0
 10
-210
 20
88.20001220703125
 30
0.0
  0
VERTEX
  8
0
 10
-211
 20
94.20001220703124
 30
0.0
  0
VERTEX
  8
0
 10
-211
 20
96.20001220703126
 30
0.0
  0
VERTEX
  8
0
 10
-211
 20
99.20001220703126
 30
0.0
  0
VERTEX
  8
0
 10
-213
 20
104.20001220703126
 30
0.0
  0
VERTEX
  8
0
 10
-213
 20
107.20001220703126
 30
0.0
  0
VERTEX
  8
0
 10
-214
 20
109.20001220703125
 30
0.0
  0
VERTEX
  8
0
 10
-215
 20
111.20001220703126
 30
0.0
  0
VERTEX
  8
0
 10
-217
 20
114.20001220703125
 30
0.0
  0
VERTEX
  8
0
 10
-218
 20
116.20001220703126
 30
0.0
  0
VERTEX
  8
0
 10
-219
 20
118.20001220703125
 30
0.0
  0
VERTEX
  8
0
 10
-219.99999999999997
 20
120.20001220703124
 30
0.0
  0
VERTEX
  8
0
 10
-222.00000000000006
 20
123.20001220703126
 30
0.0
  0
VERTEX
  8
0
 10
-223.00000000000006
 20
127.20001220703126
 30
0.0
  0
VERTEX
  8
0
 10
-223.00000000000006
 20
130.20001220703125
 30
0.0
  0
VERTEX
  8
0
 10
-223.00000000000006
 20
132.20001220703125
 30
0.0
  0
VERTEX
  8
0
 10
-223.00000000000006
 20
134.20001220703125
 30
0.0
  0
VERTEX
  8
0
 10
-223.00000000000006
 20
136.20001220703125
 30
0.0
  0
VERTEX
  8
0
 10
-223.00000000000006
 20
138.20001220703125
 30
0.0
  0
VERTEX
  8
0
 10
-223.00000000000006
 20
140.20001220703125
 30
0.0
  0
VERTEX
  8
0
 10
-223.00000000000006
 20
142.20001220703125
 30
0.0
  0
VERTEX
  8
0
 10
-223.00000000000006
 20
144.20001220703125
 30
0.0
  0
VERTEX
  8
0
 10
-223.00000000000006
 20
147.20001220703122
 30
0.0
  0
VERTEX
  8
0
 10
-223.00000000000006
 20
149.20001220703125
 30
0.0
  0
VERTEX
  8
0
 10
-223.00000000000006
 20
151.20001220703128
 30
0.0
  0
VERTEX
  8
0
 10
-223.00000000000006
 20
154.20001220703125
 30
0.0
  0
VERTEX
  8
0
 10
-223.00000000000006
 20
156.20001220703125
 30
0.0
  0
VERTEX
  8
0
 10
-223.00000000000006
 20
160.20001220703125
 30
0.0
  0
VERTEX
  8
0
 10
-224.00000000000006
 20
163.20001220703122
 30
0.0
  0
VERTEX
  8
0
 10
-224.00000000000006
 20
168.20001220703125
 30
0.0
  0
VERTEX
  8
0
 10
-224.00000000000006
 20
170.20001220703125
 30
0.0
  0
VERTEX
  8
0
 10
-224.00000000000006
 20
172.20001220703125
 30
0.0
  0
VERTEX
  8
0
 10
-224.00000000000006
 20
176.20001220703125
 30
0.0
  0
VERTEX
  8
0
 10
-224.00000000000006
 20
178.20001220703125
 30
0.0
  0
VERTEX
  8
0
 10
-224.00000000000006
 20
184.20001220703125
 30
0.0
  0
VERTEX
  8
0
 10
-224.00000000000006
 20
186.20001220703125
 30
0.0
  0
VERTEX
  8
0
 10
-224.00000000000006
 20
189.20001220703125
 30
0.0
  0
VERTEX
  8
0
 10
-224.00000000000006
 20
192.20001220703128
 30
0.0
  0
VERTEX
  8
0
 10
-224.00000000000006
 20
196.20001220703128
 30
0.0
  0
VERTEX
  8
0
 10
-224.00000000000006
 20
199.20001220703128
 30
0.0
  0
VERTEX
  8
0
 10
-222.00000000000006
 20
200.20001220703128
 30
0.0
  0
VERTEX
  8
0
 10
-221.00000000000006
 20
204.20001220703125
 30
0.0
  0
VERTEX
  8
0
 10
-219
 20
206.20001220703125
 30
0.0
  0
VERTEX
  8
0
 10
-218
 20
208.20001220703128
 30
0.0
  0
VERTEX
  8
0
 10
-216
 20
210.20001220703125
 30
0.0
  0
VERTEX
  8
0
 10
-215
 20
212.20001220703125
 30
0.0
  0
VERTEX
  8
0
 10
-214
 20
215.20001220703128
 30
0.0
  0
VERTEX
  8
0
 10
-211
 20
216.20001220703128
 30
0.0
  0
VERTEX
  8
0
 10
-210
 20
218.20001220703125
 30
0.0
  0
VERTEX
  8
0
 10
-207.00000000000003
 20
220.20001220703125
 30
0.0
  0
VERTEX
  8
0
 10
-206.00000000000003
 20
222.20001220703125
 30
0.0
  0
VERTEX
  8
0
 10
-203.00000000000003
 20
223.20001220703128
 30
0.0
  0
VERTEX
  8
0
 10
-202.00000000000003
 20
221.20001220703125
 30
0.0
  0
VERTEX
  8
0
 10
-200.00000000000006
 20
220.20001220703125
 30
0.0
  0
SEQEND
  0
ENDSEC
  0
EOF
