  0
SECTION
  2
HEADER
  9
$ACADVER
  1
AC1015
  0
ENDSEC
  0
SECTION
  2
TABLES
  0
TABLE
  2
LTYPE
 70
1
  0
LTYPE
  2
CONTINUOUS
 70
0
  3
Solid line
 72
65
 73
0
 40
0.0
  0
ENDTAB
  0
TABLE
  2
LAYER
 70
4
  0
LAYER
  2
0
 70
0
 62
7
  6
CONTINUOUS
  0
LAYER
  2
1
 70
0
 62
7
  6
CONTINUOUS
  0
LAYER
  2
2
 70
0
 62
4
  6
CONTINUOUS
  0
LAYER
  2
01
 70
0
 62
3
  6
DASHDOT
  0
ENDTAB
  0
ENDSEC
  0
SECTION
  2
BLOCKS
  0
ENDSEC
  0
SECTION
  2
ENTITIES
  0
3DFACE
  8
0
1001
WEBCAD
1000
S3D1
 10
-115.96359545613173
 20
31.72218132019043
 30
43.252415675312385
 11
-15.966983939154954
 21
90.4916763305664
 31
44.07563200340004
 12
-15.966983939154954
 22
31.72218132019043
 32
44.07563200340004
 13
-15.966983939154954
 23
31.72218132019043
 33
44.07563200340004
  0
3DFACE
  8
0
1001
WEBCAD
1000
S3D1
 10
-115.96359545613173
 20
31.72218132019043
 30
43.252415675312385
 11
-115.96359545613173
 21
90.4916763305664
 31
43.252415675312385
 12
-15.966983939154954
 22
90.4916763305664
 32
44.07563200340004
 13
-15.966983939154954
 23
90.4916763305664
 33
44.07563200340004
  0
3DFACE
  8
0
1001
WEBCAD
1000
S3D1
 10
-116.52986179528772
 20
31.72218132019043
 30
112.03714843597297
 11
-15.966983939154954
 21
31.72218132019043
 31
44.07563200340004
 12
-16.533250278310938
 22
31.72218132019043
 32
112.86036476406062
 13
-16.533250278310938
 23
31.72218132019043
 33
112.86036476406062
  0
3DFACE
  8
0
1001
WEBCAD
1000
S3D1
 10
-116.52986179528772
 20
31.72218132019043
 30
112.03714843597297
 11
-115.96359545613173
 21
31.72218132019043
 31
43.252415675312385
 12
-15.966983939154954
 22
31.72218132019043
 32
44.07563200340004
 13
-15.966983939154954
 23
31.72218132019043
 33
44.07563200340004
  0
3DFACE
  8
0
1001
WEBCAD
1000
S3D1
 10
-116.14916538175326
 20
43.24856948852539
 30
65.7937126934581
 11
-116.1138084439547
 21
47.0535888671875
 31
61.49888294720463
 12
-115.96359545613173
 22
31.72218132019043
 32
43.252415675312385
 13
-115.96359545613173
 23
31.72218132019043
 33
43.252415675312385
  0
3DFACE
  8
0
1001
WEBCAD
1000
S3D1
 10
-116.08697512263606
 20
51.77589416503906
 30
58.239422321777695
 11
-115.96359545613173
 21
31.72218132019043
 31
43.252415675312385
 12
-116.1138084439547
 22
47.0535888671875
 32
61.49888294720463
 13
-116.1138084439547
 23
47.0535888671875
 33
61.49888294720463
  0
3DFACE
  8
0
1001
WEBCAD
1000
S3D1
 10
-116.19099119254865
 20
40.581974029541016
 30
70.87432056138624
 11
-116.14916538175326
 21
43.24856948852539
 31
65.7937126934581
 12
-115.96359545613173
 22
31.72218132019043
 32
43.252415675312385
 13
-115.96359545613173
 23
31.72218132019043
 33
43.252415675312385
  0
3DFACE
  8
0
1001
WEBCAD
1000
S3D1
 10
-116.07022486984036
 20
57.14104461669922
 30
56.20475844975031
 11
-115.96359545613173
 21
31.72218132019043
 31
43.252415675312385
 12
-116.08697512263606
 22
51.77589416503906
 32
58.239422321777695
 13
-116.08697512263606
 23
51.77589416503906
 33
58.239422321777695
  0
3DFACE
  8
0
1001
WEBCAD
1000
S3D1
 10
-116.23685495379611
 20
39.20877456665039
 30
76.44542084170219
 11
-116.19099119254865
 21
40.581974029541016
 31
70.87432056138624
 12
-115.96359545613173
 22
31.72218132019043
 32
43.252415675312385
 13
-115.96359545613173
 23
31.72218132019043
 33
43.252415675312385
  0
3DFACE
  8
0
1001
WEBCAD
1000
S3D1
 10
-116.06453115369787
 20
62.83723831176758
 30
55.513139124717384
 11
-115.96359545613173
 21
31.72218132019043
 31
43.252415675312385
 12
-116.07022486984036
 22
57.14104461669922
 32
56.20475844975031
 13
-116.07022486984036
 23
57.14104461669922
 33
56.20475844975031
  0
3DFACE
  8
0
1001
WEBCAD
1000
S3D1
 10
-115.96359545613173
 20
90.4916763305664
 30
43.252415675312385
 11
-116.07022486984036
 21
68.53343200683594
 31
56.20475844975031
 12
-116.08697512263606
 22
73.8985824584961
 32
58.239422321777695
 13
-116.08697512263606
 23
73.8985824584961
 33
58.239422321777695
  0
3DFACE
  8
0
1001
WEBCAD
1000
S3D1
 10
-115.96359545613173
 20
90.4916763305664
 30
43.252415675312385
 11
-116.06453115369787
 21
62.83723831176758
 31
55.513139124717384
 12
-116.07022486984036
 22
68.53343200683594
 32
56.20475844975031
 13
-116.07022486984036
 23
68.53343200683594
 33
56.20475844975031
  0
3DFACE
  8
0
1001
WEBCAD
1000
S3D1
 10
-115.96359545613173
 20
90.4916763305664
 30
43.252415675312385
 11
-115.96359545613173
 21
31.72218132019043
 31
43.252415675312385
 12
-116.06453115369787
 22
62.83723831176758
 32
55.513139124717384
 13
-116.06453115369787
 23
62.83723831176758
 33
55.513139124717384
  0
3DFACE
  8
0
1001
WEBCAD
1000
S3D1
 10
-116.1138084439547
 20
78.62089538574219
 30
61.49888294720463
 11
-115.96359545613173
 21
90.4916763305664
 31
43.252415675312385
 12
-116.08697512263606
 22
73.8985824584961
 32
58.239422321777695
 13
-116.08697512263606
 23
73.8985824584961
 33
58.239422321777695
  0
3DFACE
  8
0
1001
WEBCAD
1000
S3D1
 10
-116.52986179528772
 20
31.72218132019043
 30
112.03714843597297
 11
-116.28409134938579
 21
39.20877456665039
 31
82.18325588952786
 12
-116.23685495379611
 22
39.20877456665039
 32
76.44542084170219
 13
-116.23685495379611
 23
39.20877456665039
 33
76.44542084170219
  0
3DFACE
  8
0
1001
WEBCAD
1000
S3D1
 10
-116.52986179528772
 20
31.72218132019043
 30
112.03714843597297
 11
-116.32995517343967
 21
40.581974029541016
 31
87.75436379897981
 12
-116.28409134938579
 22
39.20877456665039
 32
82.18325588952786
 13
-116.28409134938579
 23
39.20877456665039
 33
82.18325588952786
  0
3DFACE
  8
0
1001
WEBCAD
1000
S3D1
 10
-116.52986179528772
 20
31.72218132019043
 30
112.03714843597297
 11
-116.37178092142864
 21
43.24856948852539
 31
92.83496403777193
 12
-116.32995517343967
 22
40.581974029541016
 32
87.75436379897981
 13
-116.32995517343967
 23
40.581974029541016
 33
87.75436379897981
  0
3DFACE
  8
0
1001
WEBCAD
1000
S3D1
 10
-116.52986179528772
 20
31.72218132019043
 30
112.03714843597297
 11
-116.23685495379611
 21
39.20877456665039
 31
76.44542084170219
 12
-115.96359545613173
 22
31.72218132019043
 32
43.252415675312385
 13
-115.96359545613173
 23
31.72218132019043
 33
43.252415675312385
  0
3DFACE
  8
0
1001
WEBCAD
1000
S3D1
 10
-116.40713792203363
 20
47.0535888671875
 30
97.12980141316142
 11
-116.37178092142864
 21
43.24856948852539
 31
92.83496403777193
 12
-116.52986179528772
 22
31.72218132019043
 32
112.03714843597297
 13
-116.52986179528772
 23
31.72218132019043
 33
112.03714843597297
  0
3DFACE
  8
0
1001
WEBCAD
1000
S3D1
 10
-116.14916538175326
 20
82.42591094970703
 30
65.7937126934581
 11
-115.96359545613173
 21
90.4916763305664
 31
43.252415675312385
 12
-116.1138084439547
 22
78.62089538574219
 32
61.49888294720463
 13
-116.1138084439547
 23
78.62089538574219
 33
61.49888294720463
  0
3DFACE
  8
0
1001
WEBCAD
1000
S3D1
 10
-116.43397121194906
 20
51.77589416503906
 30
100.38925822402034
 11
-116.40713792203363
 21
47.0535888671875
 31
97.12980141316142
 12
-116.52986179528772
 22
31.72218132019043
 32
112.03714843597297
 13
-116.52986179528772
 23
31.72218132019043
 33
112.03714843597297
  0
3DFACE
  8
0
1001
WEBCAD
1000
S3D1
 10
-116.19099119254865
 20
85.0925064086914
 30
70.87432056138624
 11
-115.96359545613173
 21
90.4916763305664
 31
43.252415675312385
 12
-116.14916538175326
 22
82.42591094970703
 32
65.7937126934581
 13
-116.14916538175326
 23
82.42591094970703
 33
65.7937126934581
  0
3DFACE
  8
0
1001
WEBCAD
1000
S3D1
 10
-116.45072149614796
 20
57.14104461669922
 30
102.42392591061574
 11
-116.43397121194906
 21
51.77589416503906
 31
100.38925822402034
 12
-116.52986179528772
 22
31.72218132019043
 32
112.03714843597297
 13
-116.52986179528772
 23
31.72218132019043
 33
112.03714843597297
  0
3DFACE
  8
0
1001
WEBCAD
1000
S3D1
 10
-116.45641521229045
 20
62.83723831176758
 30
103.11554523564867
 11
-116.45072149614796
 21
57.14104461669922
 31
102.42392591061574
 12
-116.52986179528772
 22
31.72218132019043
 32
112.03714843597297
 13
-116.52986179528772
 23
31.72218132019043
 33
112.03714843597297
  0
3DFACE
  8
0
1001
WEBCAD
1000
S3D1
 10
-116.52986179528772
 20
90.4916763305664
 30
112.03714843597297
 11
-116.45072149614796
 21
68.53343200683594
 31
102.42392591061574
 12
-116.45641521229045
 22
62.83723831176758
 32
103.11554523564867
 13
-116.45641521229045
 23
62.83723831176758
 33
103.11554523564867
  0
3DFACE
  8
0
1001
WEBCAD
1000
S3D1
 10
-116.52986179528772
 20
90.4916763305664
 30
112.03714843597297
 11
-116.43397121194906
 21
73.8985824584961
 31
100.38925822402034
 12
-116.45072149614796
 22
68.53343200683594
 32
102.42392591061574
 13
-116.45072149614796
 23
68.53343200683594
 33
102.42392591061574
  0
3DFACE
  8
0
1001
WEBCAD
1000
S3D1
 10
-116.52986179528772
 20
90.4916763305664
 30
112.03714843597297
 11
-116.40713792203363
 21
78.62089538574219
 31
97.12980141316142
 12
-116.43397121194906
 22
73.8985824584961
 32
100.38925822402034
 13
-116.43397121194906
 23
73.8985824584961
 33
100.38925822402034
  0
3DFACE
  8
0
1001
WEBCAD
1000
S3D1
 10
-116.52986179528772
 20
90.4916763305664
 30
112.03714843597297
 11
-116.37178092142865
 21
82.42591094970703
 31
92.83496403777193
 12
-116.40713792203363
 22
78.62089538574219
 32
97.12980141316142
 13
-116.40713792203363
 23
78.62089538574219
 33
97.12980141316142
  0
3DFACE
  8
0
1001
WEBCAD
1000
S3D1
 10
-116.52986179528772
 20
90.4916763305664
 30
112.03714843597297
 11
-116.32995517343967
 21
85.0925064086914
 31
87.75436379897981
 12
-116.37178092142865
 22
82.42591094970703
 32
92.83496403777193
 13
-116.37178092142865
 23
82.42591094970703
 33
92.83496403777193
  0
3DFACE
  8
0
1001
WEBCAD
1000
S3D1
 10
-116.52986179528772
 20
90.4916763305664
 30
112.03714843597297
 11
-116.28409134938579
 21
86.46570587158203
 31
82.18325588952786
 12
-116.32995517343967
 22
85.0925064086914
 32
87.75436379897981
 13
-116.32995517343967
 23
85.0925064086914
 33
87.75436379897981
  0
3DFACE
  8
0
1001
WEBCAD
1000
S3D1
 10
-116.52986179528772
 20
90.4916763305664
 30
112.03714843597297
 11
-116.45641521229045
 21
62.83723831176758
 31
103.11554523564867
 12
-116.52986179528772
 22
31.72218132019043
 32
112.03714843597297
 13
-116.52986179528772
 23
31.72218132019043
 33
112.03714843597297
  0
3DFACE
  8
0
1001
WEBCAD
1000
S3D1
 10
-116.52986179528772
 20
90.4916763305664
 30
112.03714843597297
 11
-115.96359545613173
 21
90.4916763305664
 31
43.252415675312385
 12
-116.23685495379611
 22
86.46570587158203
 32
76.44542084170219
 13
-116.23685495379611
 23
86.46570587158203
 33
76.44542084170219
  0
3DFACE
  8
0
1001
WEBCAD
1000
S3D1
 10
-116.23685495379611
 20
86.46570587158203
 30
76.44542084170219
 11
-115.96359545613173
 21
90.4916763305664
 31
43.252415675312385
 12
-116.19099119254865
 22
85.0925064086914
 32
70.87432056138624
 13
-116.19099119254865
 23
85.0925064086914
 33
70.87432056138624
  0
3DFACE
  8
0
1001
WEBCAD
1000
S3D1
 10
-116.52986179528772
 20
90.4916763305664
 30
112.03714843597297
 11
-116.23685495379611
 21
86.46570587158203
 31
76.44542084170219
 12
-116.28409134938579
 22
86.46570587158203
 32
82.18325588952786
 13
-116.28409134938579
 23
86.46570587158203
 33
82.18325588952786
  0
3DFACE
  8
0
1001
WEBCAD
1000
S3D1
 10
-116.52986179528772
 20
90.4916763305664
 30
112.03714843597297
 11
-16.533250278310938
 21
90.4916763305664
 31
112.86036476406062
 12
-15.966983939154954
 22
90.4916763305664
 32
44.07563200340004
 13
-15.966983939154954
 23
90.4916763305664
 33
44.07563200340004
  0
3DFACE
  8
0
1001
WEBCAD
1000
S3D1
 10
-116.52986179528772
 20
90.4916763305664
 30
112.03714843597297
 11
-15.966983939154954
 21
90.4916763305664
 31
44.07563200340004
 12
-115.96359545613173
 22
90.4916763305664
 32
43.252415675312385
 13
-115.96359545613173
 23
90.4916763305664
 33
43.252415675312385
  0
3DFACE
  8
0
1001
WEBCAD
1000
S3D1
 10
-16.15255386477649
 20
43.24856948852539
 30
66.61692902154576
 11
-15.966983939154954
 21
31.72218132019043
 31
44.07563200340004
 12
-16.117196926977932
 22
47.0535888671875
 32
62.32209927529228
 13
-16.117196926977932
 23
47.0535888671875
 33
62.32209927529228
  0
3DFACE
  8
0
1001
WEBCAD
1000
S3D1
 10
-16.09036360565929
 20
51.77589416503906
 30
59.06263864986535
 11
-16.117196926977932
 21
47.0535888671875
 31
62.32209927529228
 12
-15.966983939154954
 22
31.72218132019043
 32
44.07563200340004
 13
-15.966983939154954
 23
31.72218132019043
 33
44.07563200340004
  0
3DFACE
  8
0
1001
WEBCAD
1000
S3D1
 10
-16.19437967557188
 20
40.581974029541016
 30
71.6975368894739
 11
-15.966983939154954
 21
31.72218132019043
 31
44.07563200340004
 12
-16.15255386477649
 22
43.24856948852539
 32
66.61692902154576
 13
-16.15255386477649
 23
43.24856948852539
 33
66.61692902154576
  0
3DFACE
  8
0
1001
WEBCAD
1000
S3D1
 10
-16.07361335286359
 20
57.14104461669922
 30
57.02797477783796
 11
-16.09036360565929
 21
51.77589416503906
 31
59.06263864986535
 12
-15.966983939154954
 22
31.72218132019043
 32
44.07563200340004
 13
-15.966983939154954
 23
31.72218132019043
 33
44.07563200340004
  0
3DFACE
  8
0
1001
WEBCAD
1000
S3D1
 10
-16.24024343681934
 20
39.20877456665039
 30
77.26863716978984
 11
-15.966983939154954
 21
31.72218132019043
 31
44.07563200340004
 12
-16.19437967557188
 22
40.581974029541016
 32
71.6975368894739
 13
-16.19437967557188
 23
40.581974029541016
 33
71.6975368894739
  0
3DFACE
  8
0
1001
WEBCAD
1000
S3D1
 10
-16.067919636721104
 20
62.83723831176758
 30
56.33635545280504
 11
-16.07361335286359
 21
57.14104461669922
 31
57.02797477783796
 12
-15.966983939154954
 22
31.72218132019043
 32
44.07563200340004
 13
-15.966983939154954
 23
31.72218132019043
 33
44.07563200340004
  0
3DFACE
  8
0
1001
WEBCAD
1000
S3D1
 10
-15.966983939154954
 20
90.4916763305664
 30
44.07563200340004
 11
-16.09036360565929
 21
73.8985824584961
 31
59.06263864986535
 12
-16.07361335286359
 22
68.53343200683594
 32
57.02797477783796
 13
-16.07361335286359
 23
68.53343200683594
 33
57.02797477783796
  0
3DFACE
  8
0
1001
WEBCAD
1000
S3D1
 10
-15.966983939154954
 20
90.4916763305664
 30
44.07563200340004
 11
-16.07361335286359
 21
68.53343200683594
 31
57.02797477783796
 12
-16.067919636721104
 22
62.83723831176758
 32
56.33635545280504
 13
-16.067919636721104
 23
62.83723831176758
 33
56.33635545280504
  0
3DFACE
  8
0
1001
WEBCAD
1000
S3D1
 10
-15.966983939154954
 20
90.4916763305664
 30
44.07563200340004
 11
-16.067919636721104
 21
62.83723831176758
 31
56.33635545280504
 12
-15.966983939154954
 22
31.72218132019043
 32
44.07563200340004
 13
-15.966983939154954
 23
31.72218132019043
 33
44.07563200340004
  0
3DFACE
  8
0
1001
WEBCAD
1000
S3D1
 10
-16.117196926977932
 20
78.62089538574219
 30
62.32209927529228
 11
-16.09036360565929
 21
73.8985824584961
 31
59.06263864986535
 12
-15.966983939154954
 22
90.4916763305664
 32
44.07563200340004
 13
-15.966983939154954
 23
90.4916763305664
 33
44.07563200340004
  0
3DFACE
  8
0
1001
WEBCAD
1000
S3D1
 10
-16.533250278310938
 20
31.72218132019043
 30
112.86036476406062
 11
-16.24024343681934
 21
39.20877456665039
 31
77.26863716978984
 12
-16.287479832409023
 22
39.20877456665039
 32
83.00647221761551
 13
-16.287479832409023
 23
39.20877456665039
 33
83.00647221761551
  0
3DFACE
  8
0
1001
WEBCAD
1000
S3D1
 10
-16.533250278310938
 20
31.72218132019043
 30
112.86036476406062
 11
-16.287479832409023
 21
39.20877456665039
 31
83.00647221761551
 12
-16.333343656462908
 22
40.581974029541016
 32
88.57758012706746
 13
-16.333343656462908
 23
40.581974029541016
 33
88.57758012706746
  0
3DFACE
  8
0
1001
WEBCAD
1000
S3D1
 10
-16.533250278310938
 20
31.72218132019043
 30
112.86036476406062
 11
-16.333343656462908
 21
40.581974029541016
 31
88.57758012706746
 12
-16.375169404451874
 22
43.24856948852539
 32
93.65818036585958
 13
-16.375169404451874
 23
43.24856948852539
 33
93.65818036585958
  0
3DFACE
  8
0
1001
WEBCAD
1000
S3D1
 10
-16.533250278310938
 20
31.72218132019043
 30
112.86036476406062
 11
-15.966983939154954
 21
31.72218132019043
 31
44.07563200340004
 12
-16.24024343681934
 22
39.20877456665039
 32
77.26863716978984
 13
-16.24024343681934
 23
39.20877456665039
 33
77.26863716978984
  0
3DFACE
  8
0
1001
WEBCAD
1000
S3D1
 10
-16.410526405056856
 20
47.0535888671875
 30
97.95301774124907
 11
-16.533250278310938
 21
31.72218132019043
 31
112.86036476406062
 12
-16.375169404451874
 22
43.24856948852539
 32
93.65818036585958
 13
-16.375169404451874
 23
43.24856948852539
 33
93.65818036585958
  0
3DFACE
  8
0
1001
WEBCAD
1000
S3D1
 10
-16.152553864776493
 20
82.42591094970703
 30
66.61692902154576
 11
-16.117196926977932
 21
78.62089538574219
 31
62.32209927529228
 12
-15.966983939154954
 22
90.4916763305664
 32
44.07563200340004
 13
-15.966983939154954
 23
90.4916763305664
 33
44.07563200340004
  0
3DFACE
  8
0
1001
WEBCAD
1000
S3D1
 10
-16.437359694972283
 20
51.77589416503906
 30
101.21247455210799
 11
-16.533250278310938
 21
31.72218132019043
 31
112.86036476406062
 12
-16.410526405056856
 22
47.0535888671875
 32
97.95301774124907
 13
-16.410526405056856
 23
47.0535888671875
 33
97.95301774124907
  0
3DFACE
  8
0
1001
WEBCAD
1000
S3D1
 10
-16.19437967557188
 20
85.0925064086914
 30
71.6975368894739
 11
-16.152553864776493
 21
82.42591094970703
 31
66.61692902154576
 12
-15.966983939154954
 22
90.4916763305664
 32
44.07563200340004
 13
-15.966983939154954
 23
90.4916763305664
 33
44.07563200340004
  0
3DFACE
  8
0
1001
WEBCAD
1000
S3D1
 10
-16.454109979171196
 20
57.14104461669922
 30
103.24714223870339
 11
-16.533250278310938
 21
31.72218132019043
 31
112.86036476406062
 12
-16.437359694972283
 22
51.77589416503906
 32
101.21247455210799
 13
-16.437359694972283
 23
51.77589416503906
 33
101.21247455210799
  0
3DFACE
  8
0
1001
WEBCAD
1000
S3D1
 10
-16.45980369531368
 20
62.83723831176758
 30
103.93876156373632
 11
-16.533250278310938
 21
31.72218132019043
 31
112.86036476406062
 12
-16.454109979171196
 22
57.14104461669922
 32
103.24714223870339
 13
-16.454109979171196
 23
57.14104461669922
 33
103.24714223870339
  0
3DFACE
  8
0
1001
WEBCAD
1000
S3D1
 10
-16.533250278310938
 20
90.4916763305664
 30
112.86036476406062
 11
-16.45980369531368
 21
62.83723831176758
 31
103.93876156373632
 12
-16.454109979171196
 22
68.53343200683594
 32
103.24714223870339
 13
-16.454109979171196
 23
68.53343200683594
 33
103.24714223870339
  0
3DFACE
  8
0
1001
WEBCAD
1000
S3D1
 10
-16.533250278310938
 20
90.4916763305664
 30
112.86036476406062
 11
-16.454109979171196
 21
68.53343200683594
 31
103.24714223870339
 12
-16.437359694972283
 22
73.8985824584961
 32
101.21247455210799
 13
-16.437359694972283
 23
73.8985824584961
 33
101.21247455210799
  0
3DFACE
  8
0
1001
WEBCAD
1000
S3D1
 10
-16.533250278310938
 20
90.4916763305664
 30
112.86036476406062
 11
-16.437359694972283
 21
73.8985824584961
 31
101.21247455210799
 12
-16.410526405056856
 22
78.62089538574219
 32
97.95301774124907
 13
-16.410526405056856
 23
78.62089538574219
 33
97.95301774124907
  0
3DFACE
  8
0
1001
WEBCAD
1000
S3D1
 10
-16.533250278310938
 20
90.4916763305664
 30
112.86036476406062
 11
-16.410526405056856
 21
78.62089538574219
 31
97.95301774124907
 12
-16.375169404451874
 22
82.42591094970703
 32
93.65818036585958
 13
-16.375169404451874
 23
82.42591094970703
 33
93.65818036585958
  0
3DFACE
  8
0
1001
WEBCAD
1000
S3D1
 10
-16.533250278310938
 20
90.4916763305664
 30
112.86036476406062
 11
-16.375169404451874
 21
82.42591094970703
 31
93.65818036585958
 12
-16.333343656462908
 22
85.0925064086914
 32
88.57758012706746
 13
-16.333343656462908
 23
85.0925064086914
 33
88.57758012706746
  0
3DFACE
  8
0
1001
WEBCAD
1000
S3D1
 10
-16.533250278310938
 20
90.4916763305664
 30
112.86036476406062
 11
-16.333343656462908
 21
85.0925064086914
 31
88.57758012706746
 12
-16.287479832409023
 22
86.46570587158203
 32
83.00647221761551
 13
-16.287479832409023
 23
86.46570587158203
 33
83.00647221761551
  0
3DFACE
  8
0
1001
WEBCAD
1000
S3D1
 10
-16.533250278310938
 20
90.4916763305664
 30
112.86036476406062
 11
-16.533250278310938
 21
31.72218132019043
 31
112.86036476406062
 12
-16.45980369531368
 22
62.83723831176758
 32
103.93876156373632
 13
-16.45980369531368
 23
62.83723831176758
 33
103.93876156373632
  0
3DFACE
  8
0
1001
WEBCAD
1000
S3D1
 10
-16.533250278310938
 20
90.4916763305664
 30
112.86036476406062
 11
-16.24024343681934
 21
86.46570587158203
 31
77.26863716978984
 12
-15.966983939154954
 22
90.4916763305664
 32
44.07563200340004
 13
-15.966983939154954
 23
90.4916763305664
 33
44.07563200340004
  0
3DFACE
  8
0
1001
WEBCAD
1000
S3D1
 10
-16.24024343681934
 20
86.46570587158203
 30
77.26863716978984
 11
-16.19437967557188
 21
85.0925064086914
 31
71.6975368894739
 12
-15.966983939154954
 22
90.4916763305664
 32
44.07563200340004
 13
-15.966983939154954
 23
90.4916763305664
 33
44.07563200340004
  0
3DFACE
  8
0
1001
WEBCAD
1000
S3D1
 10
-16.533250278310938
 20
90.4916763305664
 30
112.86036476406062
 11
-16.287479832409023
 21
86.46570587158203
 31
83.00647221761551
 12
-16.24024343681934
 22
86.46570587158203
 32
77.26863716978984
 13
-16.24024343681934
 23
86.46570587158203
 33
77.26863716978984
  0
3DFACE
  8
0
1001
WEBCAD
1000
S3D1
 10
-116.52986179528772
 20
31.72218132019043
 30
112.03714843597297
 11
-16.533250278310938
 21
31.72218132019043
 31
112.86036476406062
 12
-16.533250278310938
 22
90.4916763305664
 32
112.86036476406062
 13
-16.533250278310938
 23
90.4916763305664
 33
112.86036476406062
  0
3DFACE
  8
0
1001
WEBCAD
1000
S3D1
 10
-116.52986179528772
 20
31.72218132019043
 30
112.03714843597297
 11
-16.533250278310938
 21
90.4916763305664
 31
112.86036476406062
 12
-116.52986179528772
 22
90.4916763305664
 32
112.03714843597297
 13
-116.52986179528772
 23
90.4916763305664
 33
112.03714843597297
  0
3DFACE
  8
0
1001
WEBCAD
1000
S3D1
 10
-145.13404518795625
 20
68.53343200683594
 30
102.18779210519263
 11
-145.13973890409875
 21
62.83723831176758
 31
102.87941143022556
 12
-116.45641521229045
 22
62.83723831176758
 32
103.11554523564867
 13
-116.45641521229045
 23
62.83723831176758
 33
103.11554523564867
  0
3DFACE
  8
0
1001
WEBCAD
1000
S3D1
 10
-145.13404518795625
 20
68.53343200683594
 30
102.18779210519263
 11
-116.45641521229045
 21
62.83723831176758
 31
103.11554523564867
 12
-116.45072149614796
 22
68.53343200683594
 32
102.42392591061574
 13
-116.45072149614796
 23
68.53343200683594
 33
102.42392591061574
  0
3DFACE
  8
0
1001
WEBCAD
1000
S3D1
 10
-145.11729490375734
 20
73.8985824584961
 30
100.15312441859723
 11
-116.45072149614796
 21
68.53343200683594
 31
102.42392591061574
 12
-116.43397121194906
 22
73.8985824584961
 32
100.38925822402034
 13
-116.43397121194906
 23
73.8985824584961
 33
100.38925822402034
  0
3DFACE
  8
0
1001
WEBCAD
1000
S3D1
 10
-145.11729490375734
 20
73.8985824584961
 30
100.15312441859723
 11
-145.13404518795625
 21
68.53343200683594
 31
102.18779210519263
 12
-116.45072149614796
 22
68.53343200683594
 32
102.42392591061574
 13
-116.45072149614796
 23
68.53343200683594
 33
102.42392591061574
  0
3DFACE
  8
0
1001
WEBCAD
1000
S3D1
 10
-145.0904616138419
 20
78.62089538574219
 30
96.89366760773831
 11
-116.43397121194906
 21
73.8985824584961
 31
100.38925822402034
 12
-116.40713792203363
 22
78.62089538574219
 32
97.12980141316142
 13
-116.40713792203363
 23
78.62089538574219
 33
97.12980141316142
  0
3DFACE
  8
0
1001
WEBCAD
1000
S3D1
 10
-145.0904616138419
 20
78.62089538574219
 30
96.89366760773831
 11
-145.11729490375734
 21
73.8985824584961
 31
100.15312441859723
 12
-116.43397121194906
 22
73.8985824584961
 32
100.38925822402034
 13
-116.43397121194906
 23
73.8985824584961
 33
100.38925822402034
  0
3DFACE
  8
0
1001
WEBCAD
1000
S3D1
 10
-145.05510461323692
 20
82.42591094970703
 30
92.59883023234882
 11
-116.40713792203363
 21
78.62089538574219
 31
97.12980141316142
 12
-116.37178092142865
 22
82.42591094970703
 32
92.83496403777193
 13
-116.37178092142865
 23
82.42591094970703
 33
92.83496403777193
  0
3DFACE
  8
0
1001
WEBCAD
1000
S3D1
 10
-145.05510461323692
 20
82.42591094970703
 30
92.59883023234882
 11
-145.0904616138419
 21
78.62089538574219
 31
96.89366760773831
 12
-116.40713792203363
 22
78.62089538574219
 32
97.12980141316142
 13
-116.40713792203363
 23
78.62089538574219
 33
97.12980141316142
  0
3DFACE
  8
0
1001
WEBCAD
1000
S3D1
 10
-145.01327886524797
 20
85.0925064086914
 30
87.5182299935567
 11
-116.37178092142865
 21
82.42591094970703
 31
92.83496403777193
 12
-116.32995517343967
 22
85.0925064086914
 32
87.75436379897981
 13
-116.32995517343967
 23
85.0925064086914
 33
87.75436379897981
  0
3DFACE
  8
0
1001
WEBCAD
1000
S3D1
 10
-145.01327886524797
 20
85.0925064086914
 30
87.5182299935567
 11
-116.32995517343967
 21
85.0925064086914
 31
87.75436379897981
 12
-116.28409134938579
 22
86.46570587158203
 32
82.18325588952786
 13
-116.28409134938579
 23
86.46570587158203
 33
82.18325588952786
  0
3DFACE
  8
0
1001
WEBCAD
1000
S3D1
 10
-145.01327886524797
 20
85.0925064086914
 30
87.5182299935567
 11
-145.05510461323692
 21
82.42591094970703
 31
92.59883023234882
 12
-116.37178092142865
 22
82.42591094970703
 32
92.83496403777193
 13
-116.37178092142865
 23
82.42591094970703
 33
92.83496403777193
  0
3DFACE
  8
0
1001
WEBCAD
1000
S3D1
 10
-144.96741504119407
 20
86.46570587158203
 30
81.94712208410475
 11
-116.28409134938579
 21
86.46570587158203
 31
82.18325588952786
 12
-116.23685495379611
 22
86.46570587158203
 32
76.44542084170219
 13
-116.23685495379611
 23
86.46570587158203
 33
76.44542084170219
  0
3DFACE
  8
0
1001
WEBCAD
1000
S3D1
 10
-144.96741504119407
 20
86.46570587158203
 30
81.94712208410475
 11
-145.01327886524797
 21
85.0925064086914
 31
87.5182299935567
 12
-116.28409134938579
 22
86.46570587158203
 32
82.18325588952786
 13
-116.28409134938579
 23
86.46570587158203
 33
82.18325588952786
  0
3DFACE
  8
0
1001
WEBCAD
1000
S3D1
 10
-144.9201786456044
 20
86.46570587158203
 30
76.20928703627908
 11
-144.96741504119407
 21
86.46570587158203
 31
81.94712208410475
 12
-116.23685495379611
 22
86.46570587158203
 32
76.44542084170219
 13
-116.23685495379611
 23
86.46570587158203
 33
76.44542084170219
  0
3DFACE
  8
0
1001
WEBCAD
1000
S3D1
 10
-144.87431488435692
 20
85.0925064086914
 30
70.63818675596313
 11
-116.23685495379611
 21
86.46570587158203
 31
76.44542084170219
 12
-116.19099119254865
 22
85.0925064086914
 32
70.87432056138624
 13
-116.19099119254865
 23
85.0925064086914
 33
70.87432056138624
  0
3DFACE
  8
0
1001
WEBCAD
1000
S3D1
 10
-144.87431488435692
 20
85.0925064086914
 30
70.63818675596313
 11
-144.9201786456044
 21
86.46570587158203
 31
76.20928703627908
 12
-116.23685495379611
 22
86.46570587158203
 32
76.44542084170219
 13
-116.23685495379611
 23
86.46570587158203
 33
76.44542084170219
  0
3DFACE
  8
0
1001
WEBCAD
1000
S3D1
 10
-144.83248907356153
 20
82.42591094970703
 30
65.557578888035
 11
-116.19099119254865
 21
85.0925064086914
 31
70.87432056138624
 12
-116.14916538175326
 22
82.42591094970703
 32
65.7937126934581
 13
-116.14916538175326
 23
82.42591094970703
 33
65.7937126934581
  0
3DFACE
  8
0
1001
WEBCAD
1000
S3D1
 10
-144.83248907356153
 20
82.42591094970703
 30
65.557578888035
 11
-144.87431488435692
 21
85.0925064086914
 31
70.63818675596313
 12
-116.19099119254865
 22
85.0925064086914
 32
70.87432056138624
 13
-116.19099119254865
 23
85.0925064086914
 33
70.87432056138624
  0
3DFACE
  8
0
1001
WEBCAD
1000
S3D1
 10
-144.79713213576298
 20
78.62089538574219
 30
61.26274914178152
 11
-116.14916538175326
 21
82.42591094970703
 31
65.7937126934581
 12
-116.1138084439547
 22
78.62089538574219
 32
61.49888294720463
 13
-116.1138084439547
 23
78.62089538574219
 33
61.49888294720463
  0
3DFACE
  8
0
1001
WEBCAD
1000
S3D1
 10
-144.79713213576298
 20
78.62089538574219
 30
61.26274914178152
 11
-144.83248907356153
 21
82.42591094970703
 31
65.557578888035
 12
-116.14916538175326
 22
82.42591094970703
 32
65.7937126934581
 13
-116.14916538175326
 23
82.42591094970703
 33
65.7937126934581
  0
3DFACE
  8
0
1001
WEBCAD
1000
S3D1
 10
-144.77029881444435
 20
73.8985824584961
 30
58.00328851635459
 11
-116.1138084439547
 21
78.62089538574219
 31
61.49888294720463
 12
-116.08697512263606
 22
73.8985824584961
 32
58.239422321777695
 13
-116.08697512263606
 23
73.8985824584961
 33
58.239422321777695
  0
3DFACE
  8
0
1001
WEBCAD
1000
S3D1
 10
-144.77029881444435
 20
73.8985824584961
 30
58.00328851635459
 11
-144.79713213576298
 21
78.62089538574219
 31
61.26274914178152
 12
-116.1138084439547
 22
78.62089538574219
 32
61.49888294720463
 13
-116.1138084439547
 23
78.62089538574219
 33
61.49888294720463
  0
3DFACE
  8
0
1001
WEBCAD
1000
S3D1
 10
-144.75354856164864
 20
68.53343200683594
 30
55.9686246443272
 11
-144.77029881444435
 21
73.8985824584961
 31
58.00328851635459
 12
-116.08697512263606
 22
73.8985824584961
 32
58.239422321777695
 13
-116.08697512263606
 23
73.8985824584961
 33
58.239422321777695
  0
3DFACE
  8
0
1001
WEBCAD
1000
S3D1
 10
-144.75354856164864
 20
68.53343200683594
 30
55.9686246443272
 11
-116.08697512263606
 21
73.8985824584961
 31
58.239422321777695
 12
-116.07022486984036
 22
68.53343200683594
 32
56.20475844975031
 13
-116.07022486984036
 23
68.53343200683594
 33
56.20475844975031
  0
3DFACE
  8
0
1001
WEBCAD
1000
S3D1
 10
-144.75354856164864
 20
68.53343200683594
 30
55.9686246443272
 11
-116.07022486984036
 21
68.53343200683594
 31
56.20475844975031
 12
-116.06453115369787
 22
62.83723831176758
 32
55.513139124717384
 13
-116.06453115369787
 23
62.83723831176758
 33
55.513139124717384
  0
3DFACE
  8
0
1001
WEBCAD
1000
S3D1
 10
-144.74785484550617
 20
62.83723831176758
 30
55.277005319294275
 11
-144.75354856164864
 21
68.53343200683594
 31
55.9686246443272
 12
-116.06453115369787
 22
62.83723831176758
 32
55.513139124717384
 13
-116.06453115369787
 23
62.83723831176758
 33
55.513139124717384
  0
3DFACE
  8
0
1001
WEBCAD
1000
S3D1
 10
-144.74785484550617
 20
62.83723831176758
 30
55.277005319294275
 11
-116.06453115369787
 21
62.83723831176758
 31
55.513139124717384
 12
-116.07022486984036
 22
57.14104461669922
 32
56.20475844975031
 13
-116.07022486984036
 23
57.14104461669922
 33
56.20475844975031
  0
3DFACE
  8
0
1001
WEBCAD
1000
S3D1
 10
-144.75354856164864
 20
57.14104461669922
 30
55.9686246443272
 11
-144.74785484550617
 21
62.83723831176758
 31
55.277005319294275
 12
-116.07022486984036
 22
57.14104461669922
 32
56.20475844975031
 13
-116.07022486984036
 23
57.14104461669922
 33
56.20475844975031
  0
3DFACE
  8
0
1001
WEBCAD
1000
S3D1
 10
-144.77029881444435
 20
51.77589416503906
 30
58.00328851635459
 11
-144.75354856164864
 21
57.14104461669922
 31
55.9686246443272
 12
-116.07022486984036
 22
57.14104461669922
 32
56.20475844975031
 13
-116.07022486984036
 23
57.14104461669922
 33
56.20475844975031
  0
3DFACE
  8
0
1001
WEBCAD
1000
S3D1
 10
-144.77029881444435
 20
51.77589416503906
 30
58.00328851635459
 11
-116.07022486984036
 21
57.14104461669922
 31
56.20475844975031
 12
-116.08697512263606
 22
51.77589416503906
 32
58.239422321777695
 13
-116.08697512263606
 23
51.77589416503906
 33
58.239422321777695
  0
3DFACE
  8
0
1001
WEBCAD
1000
S3D1
 10
-144.79713213576298
 20
47.0535888671875
 30
61.26274914178152
 11
-144.77029881444435
 21
51.77589416503906
 31
58.00328851635459
 12
-116.08697512263606
 22
51.77589416503906
 32
58.239422321777695
 13
-116.08697512263606
 23
51.77589416503906
 33
58.239422321777695
  0
3DFACE
  8
0
1001
WEBCAD
1000
S3D1
 10
-144.79713213576298
 20
47.0535888671875
 30
61.26274914178152
 11
-116.08697512263606
 21
51.77589416503906
 31
58.239422321777695
 12
-116.1138084439547
 22
47.0535888671875
 32
61.49888294720463
 13
-116.1138084439547
 23
47.0535888671875
 33
61.49888294720463
  0
3DFACE
  8
0
1001
WEBCAD
1000
S3D1
 10
-144.83248907356153
 20
43.24856948852539
 30
65.557578888035
 11
-144.79713213576298
 21
47.0535888671875
 31
61.26274914178152
 12
-116.1138084439547
 22
47.0535888671875
 32
61.49888294720463
 13
-116.1138084439547
 23
47.0535888671875
 33
61.49888294720463
  0
3DFACE
  8
0
1001
WEBCAD
1000
S3D1
 10
-144.83248907356153
 20
43.24856948852539
 30
65.557578888035
 11
-116.1138084439547
 21
47.0535888671875
 31
61.49888294720463
 12
-116.14916538175326
 22
43.24856948852539
 32
65.7937126934581
 13
-116.14916538175326
 23
43.24856948852539
 33
65.7937126934581
  0
3DFACE
  8
0
1001
WEBCAD
1000
S3D1
 10
-144.87431488435692
 20
40.581974029541016
 30
70.63818675596313
 11
-144.83248907356153
 21
43.24856948852539
 31
65.557578888035
 12
-116.14916538175326
 22
43.24856948852539
 32
65.7937126934581
 13
-116.14916538175326
 23
43.24856948852539
 33
65.7937126934581
  0
3DFACE
  8
0
1001
WEBCAD
1000
S3D1
 10
-144.87431488435692
 20
40.581974029541016
 30
70.63818675596313
 11
-116.14916538175326
 21
43.24856948852539
 31
65.7937126934581
 12
-116.19099119254865
 22
40.581974029541016
 32
70.87432056138624
 13
-116.19099119254865
 23
40.581974029541016
 33
70.87432056138624
  0
3DFACE
  8
0
1001
WEBCAD
1000
S3D1
 10
-144.87431488435692
 20
40.581974029541016
 30
70.63818675596313
 11
-116.19099119254865
 21
40.581974029541016
 31
70.87432056138624
 12
-116.23685495379611
 22
39.20877456665039
 32
76.44542084170219
 13
-116.23685495379611
 23
39.20877456665039
 33
76.44542084170219
  0
3DFACE
  8
0
1001
WEBCAD
1000
S3D1
 10
-144.9201786456044
 20
39.20877456665039
 30
76.20928703627908
 11
-144.87431488435692
 21
40.581974029541016
 31
70.63818675596313
 12
-116.23685495379611
 22
39.20877456665039
 32
76.44542084170219
 13
-116.23685495379611
 23
39.20877456665039
 33
76.44542084170219
  0
3DFACE
  8
0
1001
WEBCAD
1000
S3D1
 10
-144.96741504119407
 20
39.20877456665039
 30
81.94712208410475
 11
-144.9201786456044
 21
39.20877456665039
 31
76.20928703627908
 12
-116.23685495379611
 22
39.20877456665039
 32
76.44542084170219
 13
-116.23685495379611
 23
39.20877456665039
 33
76.44542084170219
  0
3DFACE
  8
0
1001
WEBCAD
1000
S3D1
 10
-144.96741504119407
 20
39.20877456665039
 30
81.94712208410475
 11
-116.23685495379611
 21
39.20877456665039
 31
76.44542084170219
 12
-116.28409134938579
 22
39.20877456665039
 32
82.18325588952786
 13
-116.28409134938579
 23
39.20877456665039
 33
82.18325588952786
  0
3DFACE
  8
0
1001
WEBCAD
1000
S3D1
 10
-144.96741504119407
 20
39.20877456665039
 30
81.94712208410475
 11
-116.28409134938579
 21
39.20877456665039
 31
82.18325588952786
 12
-116.32995517343967
 22
40.581974029541016
 32
87.75436379897981
 13
-116.32995517343967
 23
40.581974029541016
 33
87.75436379897981
  0
3DFACE
  8
0
1001
WEBCAD
1000
S3D1
 10
-145.01327886524797
 20
40.581974029541016
 30
87.5182299935567
 11
-144.96741504119407
 21
39.20877456665039
 31
81.94712208410475
 12
-116.32995517343967
 22
40.581974029541016
 32
87.75436379897981
 13
-116.32995517343967
 23
40.581974029541016
 33
87.75436379897981
  0
3DFACE
  8
0
1001
WEBCAD
1000
S3D1
 10
-145.01327886524797
 20
40.581974029541016
 30
87.5182299935567
 11
-116.32995517343967
 21
40.581974029541016
 31
87.75436379897981
 12
-116.37178092142864
 22
43.24856948852539
 32
92.83496403777193
 13
-116.37178092142864
 23
43.24856948852539
 33
92.83496403777193
  0
3DFACE
  8
0
1001
WEBCAD
1000
S3D1
 10
-145.05510461323692
 20
43.24856948852539
 30
92.59883023234882
 11
-145.01327886524797
 21
40.581974029541016
 31
87.5182299935567
 12
-116.37178092142864
 22
43.24856948852539
 32
92.83496403777193
 13
-116.37178092142864
 23
43.24856948852539
 33
92.83496403777193
  0
3DFACE
  8
0
1001
WEBCAD
1000
S3D1
 10
-145.0904616138419
 20
47.0535888671875
 30
96.89366760773831
 11
-145.05510461323692
 21
43.24856948852539
 31
92.59883023234882
 12
-116.37178092142864
 22
43.24856948852539
 32
92.83496403777193
 13
-116.37178092142864
 23
43.24856948852539
 33
92.83496403777193
  0
3DFACE
  8
0
1001
WEBCAD
1000
S3D1
 10
-145.0904616138419
 20
47.0535888671875
 30
96.89366760773831
 11
-116.37178092142864
 21
43.24856948852539
 31
92.83496403777193
 12
-116.40713792203363
 22
47.0535888671875
 32
97.12980141316142
 13
-116.40713792203363
 23
47.0535888671875
 33
97.12980141316142
  0
3DFACE
  8
0
1001
WEBCAD
1000
S3D1
 10
-145.0904616138419
 20
47.0535888671875
 30
96.89366760773831
 11
-116.40713792203363
 21
47.0535888671875
 31
97.12980141316142
 12
-116.43397121194906
 22
51.77589416503906
 32
100.38925822402034
 13
-116.43397121194906
 23
51.77589416503906
 33
100.38925822402034
  0
3DFACE
  8
0
1001
WEBCAD
1000
S3D1
 10
-145.11729490375734
 20
51.77589416503906
 30
100.15312441859723
 11
-145.0904616138419
 21
47.0535888671875
 31
96.89366760773831
 12
-116.43397121194906
 22
51.77589416503906
 32
100.38925822402034
 13
-116.43397121194906
 23
51.77589416503906
 33
100.38925822402034
  0
3DFACE
  8
0
1001
WEBCAD
1000
S3D1
 10
-145.13404518795625
 20
57.14104461669922
 30
102.18779210519263
 11
-116.43397121194906
 21
51.77589416503906
 31
100.38925822402034
 12
-116.45072149614796
 22
57.14104461669922
 32
102.42392591061574
 13
-116.45072149614796
 23
57.14104461669922
 33
102.42392591061574
  0
3DFACE
  8
0
1001
WEBCAD
1000
S3D1
 10
-145.13404518795625
 20
57.14104461669922
 30
102.18779210519263
 11
-145.11729490375734
 21
51.77589416503906
 31
100.15312441859723
 12
-116.43397121194906
 22
51.77589416503906
 32
100.38925822402034
 13
-116.43397121194906
 23
51.77589416503906
 33
100.38925822402034
  0
3DFACE
  8
0
1001
WEBCAD
1000
S3D1
 10
-145.13973890409875
 20
62.83723831176758
 30
102.87941143022556
 11
-116.45072149614796
 21
57.14104461669922
 31
102.42392591061574
 12
-116.45641521229045
 22
62.83723831176758
 32
103.11554523564867
 13
-116.45641521229045
 23
62.83723831176758
 33
103.11554523564867
  0
3DFACE
  8
0
1001
WEBCAD
1000
S3D1
 10
-145.13973890409875
 20
62.83723831176758
 30
102.87941143022556
 11
-145.13404518795625
 21
57.14104461669922
 31
102.18779210519263
 12
-116.45072149614796
 22
57.14104461669922
 32
102.42392591061574
 13
-116.45072149614796
 23
57.14104461669922
 33
102.42392591061574
  0
3DFACE
  8
0
1001
WEBCAD
1000
S3D1
 10
-16.454109979171196
 20
68.53343200683594
 30
103.24714223870339
 11
-16.45980369531368
 21
62.83723831176758
 31
103.93876156373632
 12
4.855172649514397
 22
62.83723831176758
 32
104.11423587525222
 13
4.855172649514397
 23
62.83723831176758
 33
104.11423587525222
  0
3DFACE
  8
0
1001
WEBCAD
1000
S3D1
 10
-16.454109979171196
 20
68.53343200683594
 30
103.24714223870339
 11
4.855172649514397
 21
62.83723831176758
 31
104.11423587525222
 12
4.860866365656882
 22
68.53343200683594
 32
103.42261655021929
 13
4.860866365656882
 23
68.53343200683594
 33
103.42261655021929
  0
3DFACE
  8
0
1001
WEBCAD
1000
S3D1
 10
-16.454109979171196
 20
68.53343200683594
 30
103.24714223870339
 11
4.860866365656882
 21
68.53343200683594
 31
103.42261655021929
 12
4.877616649855796
 22
73.8985824584961
 32
101.38794886362389
 13
4.877616649855796
 23
73.8985824584961
 33
101.38794886362389
  0
3DFACE
  8
0
1001
WEBCAD
1000
S3D1
 10
-16.437359694972283
 20
73.8985824584961
 30
101.21247455210799
 11
-16.454109979171196
 21
68.53343200683594
 31
103.24714223870339
 12
4.877616649855796
 22
73.8985824584961
 32
101.38794886362389
 13
4.877616649855796
 23
73.8985824584961
 33
101.38794886362389
  0
3DFACE
  8
0
1001
WEBCAD
1000
S3D1
 10
-16.410526405056856
 20
78.62089538574219
 30
97.95301774124907
 11
4.877616649855796
 21
73.8985824584961
 31
101.38794886362389
 12
4.904449939771222
 22
78.62089538574219
 32
98.12849205276497
 13
4.904449939771222
 23
78.62089538574219
 33
98.12849205276497
  0
3DFACE
  8
0
1001
WEBCAD
1000
S3D1
 10
-16.410526405056856
 20
78.62089538574219
 30
97.95301774124907
 11
-16.437359694972283
 21
73.8985824584961
 31
101.21247455210799
 12
4.877616649855796
 22
73.8985824584961
 32
101.38794886362389
 13
4.877616649855796
 23
73.8985824584961
 33
101.38794886362389
  0
3DFACE
  8
0
1001
WEBCAD
1000
S3D1
 10
-16.375169404451874
 20
82.42591094970703
 30
93.65818036585958
 11
4.904449939771222
 21
78.62089538574219
 31
98.12849205276497
 12
4.939806940376204
 22
82.42591094970703
 32
93.83365467737548
 13
4.939806940376204
 23
82.42591094970703
 33
93.83365467737548
  0
3DFACE
  8
0
1001
WEBCAD
1000
S3D1
 10
-16.375169404451874
 20
82.42591094970703
 30
93.65818036585958
 11
-16.410526405056856
 21
78.62089538574219
 31
97.95301774124907
 12
4.904449939771222
 22
78.62089538574219
 32
98.12849205276497
 13
4.904449939771222
 23
78.62089538574219
 33
98.12849205276497
  0
3DFACE
  8
0
1001
WEBCAD
1000
S3D1
 10
-16.333343656462908
 20
85.0925064086914
 30
88.57758012706746
 11
4.939806940376204
 21
82.42591094970703
 31
93.83365467737548
 12
4.9816326883651705
 22
85.0925064086914
 32
88.75305443858336
 13
4.9816326883651705
 23
85.0925064086914
 33
88.75305443858336
  0
3DFACE
  8
0
1001
WEBCAD
1000
S3D1
 10
-16.333343656462908
 20
85.0925064086914
 30
88.57758012706746
 11
4.9816326883651705
 21
85.0925064086914
 31
88.75305443858336
 12
5.027496512419056
 22
86.46570587158203
 32
83.18194652913141
 13
5.027496512419056
 23
86.46570587158203
 33
83.18194652913141
  0
3DFACE
  8
0
1001
WEBCAD
1000
S3D1
 10
-16.333343656462908
 20
85.0925064086914
 30
88.57758012706746
 11
-16.375169404451874
 21
82.42591094970703
 31
93.65818036585958
 12
4.939806940376204
 22
82.42591094970703
 32
93.83365467737548
 13
4.939806940376204
 23
82.42591094970703
 33
93.83365467737548
  0
3DFACE
  8
0
1001
WEBCAD
1000
S3D1
 10
-16.287479832409023
 20
86.46570587158203
 30
83.00647221761551
 11
-16.333343656462908
 21
85.0925064086914
 31
88.57758012706746
 12
5.027496512419056
 22
86.46570587158203
 32
83.18194652913141
 13
5.027496512419056
 23
86.46570587158203
 33
83.18194652913141
  0
3DFACE
  8
0
1001
WEBCAD
1000
S3D1
 10
-16.24024343681934
 20
86.46570587158203
 30
77.26863716978984
 11
5.027496512419056
 21
86.46570587158203
 31
83.18194652913141
 12
5.0747329080087376
 22
86.46570587158203
 32
77.44411148130574
 13
5.0747329080087376
 23
86.46570587158203
 33
77.44411148130574
  0
3DFACE
  8
0
1001
WEBCAD
1000
S3D1
 10
-16.24024343681934
 20
86.46570587158203
 30
77.26863716978984
 11
5.0747329080087376
 21
86.46570587158203
 31
77.44411148130574
 12
5.120596669256198
 22
85.0925064086914
 32
71.8730112009898
 13
5.120596669256198
 23
85.0925064086914
 33
71.8730112009898
  0
3DFACE
  8
0
1001
WEBCAD
1000
S3D1
 10
-16.24024343681934
 20
86.46570587158203
 30
77.26863716978984
 11
-16.287479832409023
 21
86.46570587158203
 31
83.00647221761551
 12
5.027496512419056
 22
86.46570587158203
 32
83.18194652913141
 13
5.027496512419056
 23
86.46570587158203
 33
83.18194652913141
  0
3DFACE
  8
0
1001
WEBCAD
1000
S3D1
 10
-16.19437967557188
 20
85.0925064086914
 30
71.6975368894739
 11
-16.24024343681934
 21
86.46570587158203
 31
77.26863716978984
 12
5.120596669256198
 22
85.0925064086914
 32
71.8730112009898
 13
5.120596669256198
 23
85.0925064086914
 33
71.8730112009898
  0
3DFACE
  8
0
1001
WEBCAD
1000
S3D1
 10
-16.152553864776493
 20
82.42591094970703
 30
66.61692902154576
 11
5.120596669256198
 21
85.0925064086914
 31
71.8730112009898
 12
5.162422480051589
 22
82.42591094970703
 32
66.79240333306166
 13
5.162422480051589
 23
82.42591094970703
 33
66.79240333306166
  0
3DFACE
  8
0
1001
WEBCAD
1000
S3D1
 10
-16.152553864776493
 20
82.42591094970703
 30
66.61692902154576
 11
-16.19437967557188
 21
85.0925064086914
 31
71.6975368894739
 12
5.120596669256198
 22
85.0925064086914
 32
71.8730112009898
 13
5.120596669256198
 23
85.0925064086914
 33
71.8730112009898
  0
3DFACE
  8
0
1001
WEBCAD
1000
S3D1
 10
-16.117196926977932
 20
78.62089538574219
 30
62.32209927529228
 11
5.162422480051589
 21
82.42591094970703
 31
66.79240333306166
 12
5.197779417850146
 22
78.62089538574219
 32
62.49757358680818
 13
5.197779417850146
 23
78.62089538574219
 33
62.49757358680818
  0
3DFACE
  8
0
1001
WEBCAD
1000
S3D1
 10
-16.117196926977932
 20
78.62089538574219
 30
62.32209927529228
 11
-16.152553864776493
 21
82.42591094970703
 31
66.61692902154576
 12
5.162422480051589
 22
82.42591094970703
 32
66.79240333306166
 13
5.162422480051589
 23
82.42591094970703
 33
66.79240333306166
  0
3DFACE
  8
0
1001
WEBCAD
1000
S3D1
 10
-16.09036360565929
 20
73.8985824584961
 30
59.06263864986535
 11
5.197779417850146
 21
78.62089538574219
 31
62.49757358680818
 12
5.224612739168787
 22
73.8985824584961
 32
59.23811296138125
 13
5.224612739168787
 23
73.8985824584961
 33
59.23811296138125
  0
3DFACE
  8
0
1001
WEBCAD
1000
S3D1
 10
-16.09036360565929
 20
73.8985824584961
 30
59.06263864986535
 11
-16.117196926977932
 21
78.62089538574219
 31
62.32209927529228
 12
5.197779417850146
 22
78.62089538574219
 32
62.49757358680818
 13
5.197779417850146
 23
78.62089538574219
 33
62.49757358680818
  0
3DFACE
  8
0
1001
WEBCAD
1000
S3D1
 10
-16.07361335286359
 20
68.53343200683594
 30
57.02797477783796
 11
-16.09036360565929
 21
73.8985824584961
 31
59.06263864986535
 12
5.224612739168787
 22
73.8985824584961
 32
59.23811296138125
 13
5.224612739168787
 23
73.8985824584961
 33
59.23811296138125
  0
3DFACE
  8
0
1001
WEBCAD
1000
S3D1
 10
-16.07361335286359
 20
68.53343200683594
 30
57.02797477783796
 11
5.224612739168787
 21
73.8985824584961
 31
59.23811296138125
 12
5.24136299196449
 22
68.53343200683594
 32
57.20344908935386
 13
5.24136299196449
 23
68.53343200683594
 33
57.20344908935386
  0
3DFACE
  8
0
1001
WEBCAD
1000
S3D1
 10
-16.067919636721104
 20
62.83723831176758
 30
56.33635545280504
 11
-16.07361335286359
 21
68.53343200683594
 31
57.02797477783796
 12
5.24136299196449
 22
68.53343200683594
 32
57.20344908935386
 13
5.24136299196449
 23
68.53343200683594
 33
57.20344908935386
  0
3DFACE
  8
0
1001
WEBCAD
1000
S3D1
 10
-16.067919636721104
 20
62.83723831176758
 30
56.33635545280504
 11
5.24136299196449
 21
68.53343200683594
 31
57.20344908935386
 12
5.2470567081069746
 22
62.83723831176758
 32
56.511829764320936
 13
5.2470567081069746
 23
62.83723831176758
 33
56.511829764320936
  0
3DFACE
  8
0
1001
WEBCAD
1000
S3D1
 10
-16.07361335286359
 20
57.14104461669922
 30
57.02797477783796
 11
-16.067919636721104
 21
62.83723831176758
 31
56.33635545280504
 12
5.2470567081069746
 22
62.83723831176758
 32
56.511829764320936
 13
5.2470567081069746
 23
62.83723831176758
 33
56.511829764320936
  0
3DFACE
  8
0
1001
WEBCAD
1000
S3D1
 10
-16.07361335286359
 20
57.14104461669922
 30
57.02797477783796
 11
5.2470567081069746
 21
62.83723831176758
 31
56.511829764320936
 12
5.24136299196449
 22
57.14104461669922
 32
57.20344908935386
 13
5.24136299196449
 23
57.14104461669922
 33
57.20344908935386
  0
3DFACE
  8
0
1001
WEBCAD
1000
S3D1
 10
-16.09036360565929
 20
51.77589416503906
 30
59.06263864986535
 11
-16.07361335286359
 21
57.14104461669922
 31
57.02797477783796
 12
5.24136299196449
 22
57.14104461669922
 32
57.20344908935386
 13
5.24136299196449
 23
57.14104461669922
 33
57.20344908935386
  0
3DFACE
  8
0
1001
WEBCAD
1000
S3D1
 10
-16.09036360565929
 20
51.77589416503906
 30
59.06263864986535
 11
5.24136299196449
 21
57.14104461669922
 31
57.20344908935386
 12
5.224612739168787
 22
51.77589416503906
 32
59.23811296138125
 13
5.224612739168787
 23
51.77589416503906
 33
59.23811296138125
  0
3DFACE
  8
0
1001
WEBCAD
1000
S3D1
 10
-16.117196926977932
 20
47.0535888671875
 30
62.32209927529228
 11
-16.09036360565929
 21
51.77589416503906
 31
59.06263864986535
 12
5.224612739168787
 22
51.77589416503906
 32
59.23811296138125
 13
5.224612739168787
 23
51.77589416503906
 33
59.23811296138125
  0
3DFACE
  8
0
1001
WEBCAD
1000
S3D1
 10
-16.117196926977932
 20
47.0535888671875
 30
62.32209927529228
 11
5.224612739168787
 21
51.77589416503906
 31
59.23811296138125
 12
5.197779417850146
 22
47.0535888671875
 32
62.49757358680818
 13
5.197779417850146
 23
47.0535888671875
 33
62.49757358680818
  0
3DFACE
  8
0
1001
WEBCAD
1000
S3D1
 10
-16.15255386477649
 20
43.24856948852539
 30
66.61692902154576
 11
-16.117196926977932
 21
47.0535888671875
 31
62.32209927529228
 12
5.197779417850146
 22
47.0535888671875
 32
62.49757358680818
 13
5.197779417850146
 23
47.0535888671875
 33
62.49757358680818
  0
3DFACE
  8
0
1001
WEBCAD
1000
S3D1
 10
-16.15255386477649
 20
43.24856948852539
 30
66.61692902154576
 11
5.197779417850146
 21
47.0535888671875
 31
62.49757358680818
 12
5.162422480051589
 22
43.24856948852539
 32
66.79240333306166
 13
5.162422480051589
 23
43.24856948852539
 33
66.79240333306166
  0
3DFACE
  8
0
1001
WEBCAD
1000
S3D1
 10
-16.15255386477649
 20
43.24856948852539
 30
66.61692902154576
 11
5.162422480051589
 21
43.24856948852539
 31
66.79240333306166
 12
5.120596669256198
 22
40.581974029541016
 32
71.8730112009898
 13
5.120596669256198
 23
40.581974029541016
 33
71.8730112009898
  0
3DFACE
  8
0
1001
WEBCAD
1000
S3D1
 10
-16.19437967557188
 20
40.581974029541016
 30
71.6975368894739
 11
-16.15255386477649
 21
43.24856948852539
 31
66.61692902154576
 12
5.120596669256198
 22
40.581974029541016
 32
71.8730112009898
 13
5.120596669256198
 23
40.581974029541016
 33
71.8730112009898
  0
3DFACE
  8
0
1001
WEBCAD
1000
S3D1
 10
-16.24024343681934
 20
39.20877456665039
 30
77.26863716978984
 11
-16.19437967557188
 21
40.581974029541016
 31
71.6975368894739
 12
5.120596669256198
 22
40.581974029541016
 32
71.8730112009898
 13
5.120596669256198
 23
40.581974029541016
 33
71.8730112009898
  0
3DFACE
  8
0
1001
WEBCAD
1000
S3D1
 10
-16.24024343681934
 20
39.20877456665039
 30
77.26863716978984
 11
5.120596669256198
 21
40.581974029541016
 31
71.8730112009898
 12
5.0747329080087376
 22
39.20877456665039
 32
77.44411148130574
 13
5.0747329080087376
 23
39.20877456665039
 33
77.44411148130574
  0
3DFACE
  8
0
1001
WEBCAD
1000
S3D1
 10
-16.287479832409023
 20
39.20877456665039
 30
83.00647221761551
 11
-16.24024343681934
 21
39.20877456665039
 31
77.26863716978984
 12
5.0747329080087376
 22
39.20877456665039
 32
77.44411148130574
 13
5.0747329080087376
 23
39.20877456665039
 33
77.44411148130574
  0
3DFACE
  8
0
1001
WEBCAD
1000
S3D1
 10
-16.287479832409023
 20
39.20877456665039
 30
83.00647221761551
 11
5.0747329080087376
 21
39.20877456665039
 31
77.44411148130574
 12
5.027496512419056
 22
39.20877456665039
 32
83.18194652913141
 13
5.027496512419056
 23
39.20877456665039
 33
83.18194652913141
  0
3DFACE
  8
0
1001
WEBCAD
1000
S3D1
 10
-16.287479832409023
 20
39.20877456665039
 30
83.00647221761551
 11
5.027496512419056
 21
39.20877456665039
 31
83.18194652913141
 12
4.9816326883651705
 22
40.581974029541016
 32
88.75305443858336
 13
4.9816326883651705
 23
40.581974029541016
 33
88.75305443858336
  0
3DFACE
  8
0
1001
WEBCAD
1000
S3D1
 10
-16.333343656462908
 20
40.581974029541016
 30
88.57758012706746
 11
-16.287479832409023
 21
39.20877456665039
 31
83.00647221761551
 12
4.9816326883651705
 22
40.581974029541016
 32
88.75305443858336
 13
4.9816326883651705
 23
40.581974029541016
 33
88.75305443858336
  0
3DFACE
  8
0
1001
WEBCAD
1000
S3D1
 10
-16.375169404451874
 20
43.24856948852539
 30
93.65818036585958
 11
-16.333343656462908
 21
40.581974029541016
 31
88.57758012706746
 12
4.9816326883651705
 22
40.581974029541016
 32
88.75305443858336
 13
4.9816326883651705
 23
40.581974029541016
 33
88.75305443858336
  0
3DFACE
  8
0
1001
WEBCAD
1000
S3D1
 10
-16.375169404451874
 20
43.24856948852539
 30
93.65818036585958
 11
4.9816326883651705
 21
40.581974029541016
 31
88.75305443858336
 12
4.939806940376204
 22
43.24856948852539
 32
93.83365467737548
 13
4.939806940376204
 23
43.24856948852539
 33
93.83365467737548
  0
3DFACE
  8
0
1001
WEBCAD
1000
S3D1
 10
-16.410526405056856
 20
47.0535888671875
 30
97.95301774124907
 11
-16.375169404451874
 21
43.24856948852539
 31
93.65818036585958
 12
4.939806940376204
 22
43.24856948852539
 32
93.83365467737548
 13
4.939806940376204
 23
43.24856948852539
 33
93.83365467737548
  0
3DFACE
  8
0
1001
WEBCAD
1000
S3D1
 10
-16.410526405056856
 20
47.0535888671875
 30
97.95301774124907
 11
4.939806940376204
 21
43.24856948852539
 31
93.83365467737548
 12
4.904449939771222
 22
47.0535888671875
 32
98.12849205276497
 13
4.904449939771222
 23
47.0535888671875
 33
98.12849205276497
  0
3DFACE
  8
0
1001
WEBCAD
1000
S3D1
 10
-16.437359694972283
 20
51.77589416503906
 30
101.21247455210799
 11
4.904449939771222
 21
47.0535888671875
 31
98.12849205276497
 12
4.877616649855796
 22
51.77589416503906
 32
101.38794886362389
 13
4.877616649855796
 23
51.77589416503906
 33
101.38794886362389
  0
3DFACE
  8
0
1001
WEBCAD
1000
S3D1
 10
-16.437359694972283
 20
51.77589416503906
 30
101.21247455210799
 11
-16.410526405056856
 21
47.0535888671875
 31
97.95301774124907
 12
4.904449939771222
 22
47.0535888671875
 32
98.12849205276497
 13
4.904449939771222
 23
47.0535888671875
 33
98.12849205276497
  0
3DFACE
  8
0
1001
WEBCAD
1000
S3D1
 10
-16.454109979171196
 20
57.14104461669922
 30
103.24714223870339
 11
4.877616649855796
 21
51.77589416503906
 31
101.38794886362389
 12
4.860866365656882
 22
57.14104461669922
 32
103.42261655021929
 13
4.860866365656882
 23
57.14104461669922
 33
103.42261655021929
  0
3DFACE
  8
0
1001
WEBCAD
1000
S3D1
 10
-16.454109979171196
 20
57.14104461669922
 30
103.24714223870339
 11
4.860866365656882
 21
57.14104461669922
 31
103.42261655021929
 12
4.855172649514397
 22
62.83723831176758
 32
104.11423587525222
 13
4.855172649514397
 23
62.83723831176758
 33
104.11423587525222
  0
3DFACE
  8
0
1001
WEBCAD
1000
S3D1
 10
-16.454109979171196
 20
57.14104461669922
 30
103.24714223870339
 11
-16.437359694972283
 21
51.77589416503906
 31
101.21247455210799
 12
4.877616649855796
 22
51.77589416503906
 32
101.38794886362389
 13
4.877616649855796
 23
51.77589416503906
 33
101.38794886362389
  0
3DFACE
  8
0
1001
WEBCAD
1000
S3D1
 10
-16.45980369531368
 20
62.83723831176758
 30
103.93876156373632
 11
-16.454109979171196
 21
57.14104461669922
 31
103.24714223870339
 12
4.855172649514397
 22
62.83723831176758
 32
104.11423587525222
 13
4.855172649514397
 23
62.83723831176758
 33
104.11423587525222
  0
3DFACE
  8
0
1001
WEBCAD
1000
S3D1
 10
-144.9201786456044
 20
39.20877456665039
 30
76.20928703627908
 11
-144.77029881444435
 21
51.77589416503906
 31
58.00328851635459
 12
-144.79713213576298
 22
47.0535888671875
 32
61.26274914178152
 13
-144.79713213576298
 23
47.0535888671875
 33
61.26274914178152
  0
3DFACE
  8
0
1001
WEBCAD
1000
S3D1
 10
-144.9201786456044
 20
39.20877456665039
 30
76.20928703627908
 11
-144.79713213576298
 21
47.0535888671875
 31
61.26274914178152
 12
-144.83248907356153
 22
43.24856948852539
 32
65.557578888035
 13
-144.83248907356153
 23
43.24856948852539
 33
65.557578888035
  0
3DFACE
  8
0
1001
WEBCAD
1000
S3D1
 10
-144.9201786456044
 20
39.20877456665039
 30
76.20928703627908
 11
-144.83248907356153
 21
43.24856948852539
 31
65.557578888035
 12
-144.87431488435692
 22
40.581974029541016
 32
70.63818675596313
 13
-144.87431488435692
 23
40.581974029541016
 33
70.63818675596313
  0
3DFACE
  8
0
1001
WEBCAD
1000
S3D1
 10
-144.96741504119407
 20
39.20877456665039
 30
81.94712208410475
 11
-144.77029881444435
 21
51.77589416503906
 31
58.00328851635459
 12
-144.9201786456044
 22
39.20877456665039
 32
76.20928703627908
 13
-144.9201786456044
 23
39.20877456665039
 33
76.20928703627908
  0
3DFACE
  8
0
1001
WEBCAD
1000
S3D1
 10
-144.75354856164864
 20
68.53343200683594
 30
55.9686246443272
 11
-144.74785484550617
 21
62.83723831176758
 31
55.277005319294275
 12
-144.75354856164864
 22
57.14104461669922
 32
55.9686246443272
 13
-144.75354856164864
 23
57.14104461669922
 33
55.9686246443272
  0
3DFACE
  8
0
1001
WEBCAD
1000
S3D1
 10
-144.75354856164864
 20
68.53343200683594
 30
55.9686246443272
 11
-144.75354856164864
 21
57.14104461669922
 31
55.9686246443272
 12
-144.77029881444435
 22
51.77589416503906
 32
58.00328851635459
 13
-144.77029881444435
 23
51.77589416503906
 33
58.00328851635459
  0
3DFACE
  8
0
1001
WEBCAD
1000
S3D1
 10
-145.0904616138419
 20
47.0535888671875
 30
96.89366760773831
 11
-144.96741504119407
 21
39.20877456665039
 31
81.94712208410475
 12
-145.01327886524797
 22
40.581974029541016
 32
87.5182299935567
 13
-145.01327886524797
 23
40.581974029541016
 33
87.5182299935567
  0
3DFACE
  8
0
1001
WEBCAD
1000
S3D1
 10
-145.0904616138419
 20
47.0535888671875
 30
96.89366760773831
 11
-145.01327886524797
 21
40.581974029541016
 31
87.5182299935567
 12
-145.05510461323692
 22
43.24856948852539
 32
92.59883023234882
 13
-145.05510461323692
 23
43.24856948852539
 33
92.59883023234882
  0
3DFACE
  8
0
1001
WEBCAD
1000
S3D1
 10
-145.0904616138419
 20
47.0535888671875
 30
96.89366760773831
 11
-144.77029881444435
 21
51.77589416503906
 31
58.00328851635459
 12
-144.96741504119407
 22
39.20877456665039
 32
81.94712208410475
 13
-144.96741504119407
 23
39.20877456665039
 33
81.94712208410475
  0
3DFACE
  8
0
1001
WEBCAD
1000
S3D1
 10
-144.87431488435692
 20
85.0925064086914
 30
70.63818675596313
 11
-144.83248907356153
 21
82.42591094970703
 31
65.557578888035
 12
-144.79713213576298
 22
78.62089538574219
 32
61.26274914178152
 13
-144.79713213576298
 23
78.62089538574219
 33
61.26274914178152
  0
3DFACE
  8
0
1001
WEBCAD
1000
S3D1
 10
-145.13404518795625
 20
57.14104461669922
 30
102.18779210519263
 11
-145.0904616138419
 21
47.0535888671875
 31
96.89366760773831
 12
-145.11729490375734
 22
51.77589416503906
 32
100.15312441859723
 13
-145.11729490375734
 23
51.77589416503906
 33
100.15312441859723
  0
3DFACE
  8
0
1001
WEBCAD
1000
S3D1
 10
-145.13404518795625
 20
57.14104461669922
 30
102.18779210519263
 11
-144.77029881444435
 21
51.77589416503906
 31
58.00328851635459
 12
-145.0904616138419
 22
47.0535888671875
 32
96.89366760773831
 13
-145.0904616138419
 23
47.0535888671875
 33
96.89366760773831
  0
3DFACE
  8
0
1001
WEBCAD
1000
S3D1
 10
-145.13973890409875
 20
62.83723831176758
 30
102.87941143022556
 11
-144.75354856164864
 21
68.53343200683594
 31
55.9686246443272
 12
-144.77029881444435
 22
51.77589416503906
 32
58.00328851635459
 13
-144.77029881444435
 23
51.77589416503906
 33
58.00328851635459
  0
3DFACE
  8
0
1001
WEBCAD
1000
S3D1
 10
-145.13973890409875
 20
62.83723831176758
 30
102.87941143022556
 11
-144.77029881444435
 21
51.77589416503906
 31
58.00328851635459
 12
-145.13404518795625
 22
57.14104461669922
 32
102.18779210519263
 13
-145.13404518795625
 23
57.14104461669922
 33
102.18779210519263
  0
3DFACE
  8
0
1001
WEBCAD
1000
S3D1
 10
-145.13404518795625
 20
68.53343200683594
 30
102.18779210519263
 11
-144.75354856164864
 21
68.53343200683594
 31
55.9686246443272
 12
-145.13973890409875
 22
62.83723831176758
 32
102.87941143022556
 13
-145.13973890409875
 23
62.83723831176758
 33
102.87941143022556
  0
3DFACE
  8
0
1001
WEBCAD
1000
S3D1
 10
-145.01327886524797
 20
85.0925064086914
 30
87.5182299935567
 11
-144.96741504119407
 21
86.46570587158203
 31
81.94712208410475
 12
-144.9201786456044
 22
86.46570587158203
 32
76.20928703627908
 13
-144.9201786456044
 23
86.46570587158203
 33
76.20928703627908
  0
3DFACE
  8
0
1001
WEBCAD
1000
S3D1
 10
-145.01327886524797
 20
85.0925064086914
 30
87.5182299935567
 11
-144.9201786456044
 21
86.46570587158203
 31
76.20928703627908
 12
-144.87431488435692
 22
85.0925064086914
 32
70.63818675596313
 13
-144.87431488435692
 23
85.0925064086914
 33
70.63818675596313
  0
3DFACE
  8
0
1001
WEBCAD
1000
S3D1
 10
-145.0904616138419
 20
78.62089538574219
 30
96.89366760773831
 11
-145.13404518795625
 21
68.53343200683594
 31
102.18779210519263
 12
-145.11729490375734
 22
73.8985824584961
 32
100.15312441859723
 13
-145.11729490375734
 23
73.8985824584961
 33
100.15312441859723
  0
3DFACE
  8
0
1001
WEBCAD
1000
S3D1
 10
-145.0904616138419
 20
78.62089538574219
 30
96.89366760773831
 11
-145.05510461323692
 21
82.42591094970703
 31
92.59883023234882
 12
-145.01327886524797
 22
85.0925064086914
 32
87.5182299935567
 13
-145.01327886524797
 23
85.0925064086914
 33
87.5182299935567
  0
3DFACE
  8
0
1001
WEBCAD
1000
S3D1
 10
-145.0904616138419
 20
78.62089538574219
 30
96.89366760773831
 11
-144.79713213576298
 21
78.62089538574219
 31
61.26274914178152
 12
-144.77029881444435
 22
73.8985824584961
 32
58.00328851635459
 13
-144.77029881444435
 23
73.8985824584961
 33
58.00328851635459
  0
3DFACE
  8
0
1001
WEBCAD
1000
S3D1
 10
-145.0904616138419
 20
78.62089538574219
 30
96.89366760773831
 11
-144.77029881444435
 21
73.8985824584961
 31
58.00328851635459
 12
-144.75354856164864
 22
68.53343200683594
 32
55.9686246443272
 13
-144.75354856164864
 23
68.53343200683594
 33
55.9686246443272
  0
3DFACE
  8
0
1001
WEBCAD
1000
S3D1
 10
-145.0904616138419
 20
78.62089538574219
 30
96.89366760773831
 11
-144.87431488435692
 21
85.0925064086914
 31
70.63818675596313
 12
-144.79713213576298
 22
78.62089538574219
 32
61.26274914178152
 13
-144.79713213576298
 23
78.62089538574219
 33
61.26274914178152
  0
3DFACE
  8
0
1001
WEBCAD
1000
S3D1
 10
-145.0904616138419
 20
78.62089538574219
 30
96.89366760773831
 11
-144.75354856164864
 21
68.53343200683594
 31
55.9686246443272
 12
-145.13404518795625
 22
68.53343200683594
 32
102.18779210519263
 13
-145.13404518795625
 23
68.53343200683594
 33
102.18779210519263
  0
3DFACE
  8
0
1001
WEBCAD
1000
S3D1
 10
-145.0904616138419
 20
78.62089538574219
 30
96.89366760773831
 11
-145.01327886524797
 21
85.0925064086914
 31
87.5182299935567
 12
-144.87431488435692
 22
85.0925064086914
 32
70.63818675596313
 13
-144.87431488435692
 23
85.0925064086914
 33
70.63818675596313
  0
3DFACE
  8
0
1001
WEBCAD
1000
S3D1
 10
5.0747329080087376
 20
39.20877456665039
 30
77.44411148130574
 11
5.197779417850146
 21
47.0535888671875
 31
62.49757358680818
 12
5.224612739168787
 22
51.77589416503906
 32
59.23811296138125
 13
5.224612739168787
 23
51.77589416503906
 33
59.23811296138125
  0
3DFACE
  8
0
1001
WEBCAD
1000
S3D1
 10
5.0747329080087376
 20
39.20877456665039
 30
77.44411148130574
 11
5.162422480051589
 21
43.24856948852539
 31
66.79240333306166
 12
5.197779417850146
 22
47.0535888671875
 32
62.49757358680818
 13
5.197779417850146
 23
47.0535888671875
 33
62.49757358680818
  0
3DFACE
  8
0
1001
WEBCAD
1000
S3D1
 10
5.0747329080087376
 20
39.20877456665039
 30
77.44411148130574
 11
5.120596669256198
 21
40.581974029541016
 31
71.8730112009898
 12
5.162422480051589
 22
43.24856948852539
 32
66.79240333306166
 13
5.162422480051589
 23
43.24856948852539
 33
66.79240333306166
  0
3DFACE
  8
0
1001
WEBCAD
1000
S3D1
 10
5.027496512419056
 20
39.20877456665039
 30
83.18194652913141
 11
5.0747329080087376
 21
39.20877456665039
 31
77.44411148130574
 12
5.224612739168787
 22
51.77589416503906
 32
59.23811296138125
 13
5.224612739168787
 23
51.77589416503906
 33
59.23811296138125
  0
3DFACE
  8
0
1001
WEBCAD
1000
S3D1
 10
5.24136299196449
 20
68.53343200683594
 30
57.20344908935386
 11
5.24136299196449
 21
57.14104461669922
 31
57.20344908935386
 12
5.2470567081069746
 22
62.83723831176758
 32
56.511829764320936
 13
5.2470567081069746
 23
62.83723831176758
 33
56.511829764320936
  0
3DFACE
  8
0
1001
WEBCAD
1000
S3D1
 10
5.24136299196449
 20
68.53343200683594
 30
57.20344908935386
 11
5.224612739168787
 21
51.77589416503906
 31
59.23811296138125
 12
5.24136299196449
 22
57.14104461669922
 32
57.20344908935386
 13
5.24136299196449
 23
57.14104461669922
 33
57.20344908935386
  0
3DFACE
  8
0
1001
WEBCAD
1000
S3D1
 10
4.904449939771222
 20
47.0535888671875
 30
98.12849205276497
 11
4.9816326883651705
 21
40.581974029541016
 31
88.75305443858336
 12
5.027496512419056
 22
39.20877456665039
 32
83.18194652913141
 13
5.027496512419056
 23
39.20877456665039
 33
83.18194652913141
  0
3DFACE
  8
0
1001
WEBCAD
1000
S3D1
 10
4.904449939771222
 20
47.0535888671875
 30
98.12849205276497
 11
4.939806940376204
 21
43.24856948852539
 31
93.83365467737548
 12
4.9816326883651705
 22
40.581974029541016
 32
88.75305443858336
 13
4.9816326883651705
 23
40.581974029541016
 33
88.75305443858336
  0
3DFACE
  8
0
1001
WEBCAD
1000
S3D1
 10
4.904449939771222
 20
47.0535888671875
 30
98.12849205276497
 11
5.027496512419056
 21
39.20877456665039
 31
83.18194652913141
 12
5.224612739168787
 22
51.77589416503906
 32
59.23811296138125
 13
5.224612739168787
 23
51.77589416503906
 33
59.23811296138125
  0
3DFACE
  8
0
1001
WEBCAD
1000
S3D1
 10
5.120596669256198
 20
85.0925064086914
 30
71.8730112009898
 11
5.197779417850146
 21
78.62089538574219
 31
62.49757358680818
 12
5.162422480051589
 22
82.42591094970703
 32
66.79240333306166
 13
5.162422480051589
 23
82.42591094970703
 33
66.79240333306166
  0
3DFACE
  8
0
1001
WEBCAD
1000
S3D1
 10
4.860866365656882
 20
57.14104461669922
 30
103.42261655021929
 11
4.877616649855796
 21
51.77589416503906
 31
101.38794886362389
 12
4.904449939771222
 22
47.0535888671875
 32
98.12849205276497
 13
4.904449939771222
 23
47.0535888671875
 33
98.12849205276497
  0
3DFACE
  8
0
1001
WEBCAD
1000
S3D1
 10
4.860866365656882
 20
57.14104461669922
 30
103.42261655021929
 11
4.904449939771222
 21
47.0535888671875
 31
98.12849205276497
 12
5.224612739168787
 22
51.77589416503906
 32
59.23811296138125
 13
5.224612739168787
 23
51.77589416503906
 33
59.23811296138125
  0
3DFACE
  8
0
1001
WEBCAD
1000
S3D1
 10
4.855172649514397
 20
62.83723831176758
 30
104.11423587525222
 11
5.224612739168787
 21
51.77589416503906
 31
59.23811296138125
 12
5.24136299196449
 22
68.53343200683594
 32
57.20344908935386
 13
5.24136299196449
 23
68.53343200683594
 33
57.20344908935386
  0
3DFACE
  8
0
1001
WEBCAD
1000
S3D1
 10
4.855172649514397
 20
62.83723831176758
 30
104.11423587525222
 11
4.860866365656882
 21
57.14104461669922
 31
103.42261655021929
 12
5.224612739168787
 22
51.77589416503906
 32
59.23811296138125
 13
5.224612739168787
 23
51.77589416503906
 33
59.23811296138125
  0
3DFACE
  8
0
1001
WEBCAD
1000
S3D1
 10
4.860866365656882
 20
68.53343200683594
 30
103.42261655021929
 11
4.855172649514397
 21
62.83723831176758
 31
104.11423587525222
 12
5.24136299196449
 22
68.53343200683594
 32
57.20344908935386
 13
5.24136299196449
 23
68.53343200683594
 33
57.20344908935386
  0
3DFACE
  8
0
1001
WEBCAD
1000
S3D1
 10
4.9816326883651705
 20
85.0925064086914
 30
88.75305443858336
 11
5.0747329080087376
 21
86.46570587158203
 31
77.44411148130574
 12
5.027496512419056
 22
86.46570587158203
 32
83.18194652913141
 13
5.027496512419056
 23
86.46570587158203
 33
83.18194652913141
  0
3DFACE
  8
0
1001
WEBCAD
1000
S3D1
 10
4.9816326883651705
 20
85.0925064086914
 30
88.75305443858336
 11
5.120596669256198
 21
85.0925064086914
 31
71.8730112009898
 12
5.0747329080087376
 22
86.46570587158203
 32
77.44411148130574
 13
5.0747329080087376
 23
86.46570587158203
 33
77.44411148130574
  0
3DFACE
  8
0
1001
WEBCAD
1000
S3D1
 10
4.904449939771222
 20
78.62089538574219
 30
98.12849205276497
 11
4.877616649855796
 21
73.8985824584961
 31
101.38794886362389
 12
4.860866365656882
 22
68.53343200683594
 32
103.42261655021929
 13
4.860866365656882
 23
68.53343200683594
 33
103.42261655021929
  0
3DFACE
  8
0
1001
WEBCAD
1000
S3D1
 10
4.904449939771222
 20
78.62089538574219
 30
98.12849205276497
 11
4.9816326883651705
 21
85.0925064086914
 31
88.75305443858336
 12
4.939806940376204
 22
82.42591094970703
 32
93.83365467737548
 13
4.939806940376204
 23
82.42591094970703
 33
93.83365467737548
  0
3DFACE
  8
0
1001
WEBCAD
1000
S3D1
 10
4.904449939771222
 20
78.62089538574219
 30
98.12849205276497
 11
5.224612739168787
 21
73.8985824584961
 31
59.23811296138125
 12
5.197779417850146
 22
78.62089538574219
 32
62.49757358680818
 13
5.197779417850146
 23
78.62089538574219
 33
62.49757358680818
  0
3DFACE
  8
0
1001
WEBCAD
1000
S3D1
 10
4.904449939771222
 20
78.62089538574219
 30
98.12849205276497
 11
5.24136299196449
 21
68.53343200683594
 31
57.20344908935386
 12
5.224612739168787
 22
73.8985824584961
 32
59.23811296138125
 13
5.224612739168787
 23
73.8985824584961
 33
59.23811296138125
  0
3DFACE
  8
0
1001
WEBCAD
1000
S3D1
 10
4.904449939771222
 20
78.62089538574219
 30
98.12849205276497
 11
5.197779417850146
 21
78.62089538574219
 31
62.49757358680818
 12
5.120596669256198
 22
85.0925064086914
 32
71.8730112009898
 13
5.120596669256198
 23
85.0925064086914
 33
71.8730112009898
  0
3DFACE
  8
0
1001
WEBCAD
1000
S3D1
 10
4.904449939771222
 20
78.62089538574219
 30
98.12849205276497
 11
4.860866365656882
 21
68.53343200683594
 31
103.42261655021929
 12
5.24136299196449
 22
68.53343200683594
 32
57.20344908935386
 13
5.24136299196449
 23
68.53343200683594
 33
57.20344908935386
  0
3DFACE
  8
0
1001
WEBCAD
1000
S3D1
 10
4.904449939771222
 20
78.62089538574219
 30
98.12849205276497
 11
5.120596669256198
 21
85.0925064086914
 31
71.8730112009898
 12
4.9816326883651705
 22
85.0925064086914
 32
88.75305443858336
 13
4.9816326883651705
 23
85.0925064086914
 33
88.75305443858336
  0
3DFACE
  8
0
1001
WEBCAD
1000
S3D2
 10
142.4023103382889
 20
100.09456971426434
 30
-340.7139443689972
 11
142.47517918119016
 21
56.87969544668621
 31
-316.3731720946339
 12
167.4750671543377
 22
56.879695446686206
 32
-316.4480141287621
 13
167.4750671543377
 23
56.879695446686206
 33
-316.4480141287621
  0
3DFACE
  8
0
1001
WEBCAD
1000
S3D2
 10
167.40219831143645
 20
100.09456971426434
 30
-340.78878640312536
 11
142.4023103382889
 21
100.09456971426434
 31
-340.7139443689972
 12
167.4750671543377
 22
56.879695446686206
 32
-316.4480141287621
 13
167.4750671543377
 23
56.879695446686206
 33
-316.4480141287621
  0
3DFACE
  8
0
1001
WEBCAD
1000
S3D2
 10
167.25372480760055
 20
100.62218812246748
 30
-390.3841909925013
 11
142.4023103382889
 21
100.09456971426434
 31
-340.7139443689972
 12
167.40219831143645
 22
100.09456971426434
 32
-340.78878640312536
 13
167.40219831143645
 23
100.09456971426434
 33
-340.78878640312536
  0
3DFACE
  8
0
1001
WEBCAD
1000
S3D2
 10
167.25372480760055
 20
100.62218812246748
 30
-390.3841909925013
 11
142.25383683445298
 21
100.62218812246748
 31
-390.3093489583731
 12
142.4023103382889
 22
100.09456971426434
 32
-340.7139443689972
 13
142.4023103382889
 23
100.09456971426434
 33
-340.7139443689972
  0
3DFACE
  8
0
1001
WEBCAD
1000
S3D2
 10
167.1781201923458
 20
57.93492463369795
 30
-415.6388080487932
 11
142.25383683445298
 21
100.62218812246748
 31
-390.3093489583731
 12
167.25372480760055
 22
100.62218812246748
 32
-390.3841909925013
 13
167.25372480760055
 23
100.62218812246748
 33
-390.3841909925013
  0
3DFACE
  8
0
1001
WEBCAD
1000
S3D2
 10
167.1781201923458
 20
57.93492463369795
 30
-415.6388080487932
 11
142.17823221919824
 21
57.93492463369796
 31
-415.563966014665
 12
142.25383683445298
 22
100.62218812246748
 32
-390.3093489583731
 13
142.25383683445298
 23
100.62218812246748
 33
-390.3093489583731
  0
3DFACE
  8
0
1001
WEBCAD
1000
S3D2
 10
167.25098903524704
 20
14.720054180817083
 30
-391.29803577443
 11
142.17823221919824
 21
57.93492463369796
 31
-415.563966014665
 12
167.1781201923458
 22
57.93492463369795
 32
-415.6388080487932
 13
167.1781201923458
 23
57.93492463369795
 33
-415.6388080487932
  0
3DFACE
  8
0
1001
WEBCAD
1000
S3D2
 10
167.25098903524704
 20
14.720054180817083
 30
-391.29803577443
 11
142.25110106209948
 21
14.72005418081709
 31
-391.2231937403018
 12
142.17823221919824
 22
57.93492463369796
 32
-415.563966014665
 13
142.17823221919824
 23
57.93492463369796
 33
-415.563966014665
  0
3DFACE
  8
0
1001
WEBCAD
1000
S3D2
 10
142.39957454309544
 20
14.192437679962588
 30
-341.62779678028613
 11
142.25110106209948
 21
14.72005418081709
 31
-391.2231937403018
 12
167.25098903524704
 22
14.720054180817083
 32
-391.29803577443
 13
167.25098903524704
 23
14.720054180817083
 33
-391.29803577443
  0
3DFACE
  8
0
1001
WEBCAD
1000
S3D2
 10
167.399462516243
 20
14.192437679962577
 30
-341.7026388144143
 11
142.39957454309544
 21
14.192437679962588
 31
-341.62779678028613
 12
167.25098903524704
 22
14.720054180817083
 32
-391.29803577443
 13
167.25098903524704
 23
14.720054180817083
 33
-391.29803577443
  0
3DFACE
  8
0
1001
WEBCAD
1000
S3D2
 10
142.47517918119016
 20
56.87969544668621
 30
-316.3731720946339
 11
142.39957454309544
 21
14.192437679962588
 31
-341.62779678028613
 12
167.399462516243
 22
14.192437679962577
 32
-341.7026388144143
 13
167.399462516243
 23
14.192437679962577
 33
-341.7026388144143
  0
3DFACE
  8
0
1001
WEBCAD
1000
S3D2
 10
167.4750671543377
 20
56.879695446686206
 30
-316.4480141287621
 11
142.47517918119016
 21
56.87969544668621
 31
-316.3731720946339
 12
167.399462516243
 22
14.192437679962577
 32
-341.7026388144143
 13
167.399462516243
 23
14.192437679962577
 33
-341.7026388144143
  0
3DFACE
  8
0
1001
WEBCAD
1000
S3D2
 10
167.25372480760055
 20
100.62218812246748
 30
-390.3841909925013
 11
167.25098903524704
 21
14.720054180817083
 31
-391.29803577443
 12
167.1781201923458
 22
57.93492463369795
 32
-415.6388080487932
 13
167.1781201923458
 23
57.93492463369795
 33
-415.6388080487932
  0
3DFACE
  8
0
1001
WEBCAD
1000
S3D2
 10
167.40219831143645
 20
100.09456971426434
 30
-340.78878640312536
 11
167.399462516243
 21
14.192437679962577
 31
-341.7026388144143
 12
167.25098903524704
 22
14.720054180817083
 32
-391.29803577443
 13
167.25098903524704
 23
14.720054180817083
 33
-391.29803577443
  0
3DFACE
  8
0
1001
WEBCAD
1000
S3D2
 10
167.40219831143645
 20
100.09456971426434
 30
-340.78878640312536
 11
167.4750671543377
 21
56.879695446686206
 31
-316.4480141287621
 12
167.399462516243
 22
14.192437679962577
 32
-341.7026388144143
 13
167.399462516243
 23
14.192437679962577
 33
-341.7026388144143
  0
3DFACE
  8
0
1001
WEBCAD
1000
S3D2
 10
167.40219831143645
 20
100.09456971426434
 30
-340.78878640312536
 11
167.25098903524704
 21
14.720054180817083
 31
-391.29803577443
 12
167.25372480760055
 22
100.62218812246748
 32
-390.3841909925013
 13
167.25372480760055
 23
100.62218812246748
 33
-390.3841909925013
  0
3DFACE
  8
0
1001
WEBCAD
1000
S3D2
 10
142.25383683445298
 20
100.62218812246748
 30
-390.3093489583731
 11
142.17823221919824
 21
57.93492463369796
 31
-415.563966014665
 12
142.25110106209948
 22
14.72005418081709
 32
-391.2231937403018
 13
142.25110106209948
 23
14.72005418081709
 33
-391.2231937403018
  0
3DFACE
  8
0
1001
WEBCAD
1000
S3D2
 10
142.4023103382889
 20
100.09456971426434
 30
-340.7139443689972
 11
142.25110106209948
 21
14.72005418081709
 31
-391.2231937403018
 12
142.39957454309544
 22
14.192437679962588
 32
-341.62779678028613
 13
142.39957454309544
 23
14.192437679962588
 33
-341.62779678028613
  0
3DFACE
  8
0
1001
WEBCAD
1000
S3D2
 10
142.4023103382889
 20
100.09456971426434
 30
-340.7139443689972
 11
142.39957454309544
 21
14.192437679962588
 31
-341.62779678028613
 12
142.47517918119016
 22
56.87969544668621
 32
-316.3731720946339
 13
142.47517918119016
 23
56.87969544668621
 33
-316.3731720946339
  0
3DFACE
  8
0
1001
WEBCAD
1000
S3D2
 10
142.4023103382889
 20
100.09456971426434
 30
-340.7139443689972
 11
142.25383683445298
 21
100.62218812246748
 31
-390.3093489583731
 12
142.25110106209948
 22
14.72005418081709
 32
-391.2231937403018
 13
142.25110106209948
 23
14.72005418081709
 33
-391.2231937403018
  0
POLYLINE
  8
0
 66
1
 70
1
1001
WEBCAD
1000
PG
  0
VERTEX
  8
0
 10
163.5617900118934
 20
54.75360194177979
 30
0.0
  0
VERTEX
  8
0
 10
163.0778685943848
 20
111.51032376648023
 30
0.0
  0
VERTEX
  8
0
 10
113.68314494991326
 20
139.46959643783262
 30
0.0
  0
VERTEX
  8
0
 10
64.77234272295027
 20
110.6721472844846
 30
0.0
  0
VERTEX
  8
0
 10
65.25626414045885
 20
53.91542545978416
 30
0.0
  0
VERTEX
  8
0
 10
114.65098778493046
 20
25.956152788431744
 30
0.0
  0
SEQEND
  0
3DFACE
  8
0
1001
WEBCAD
1000
S3D3
 10
67.19462638808096
 20
111.51032257080077
 30
30.7031561716917
 11
65.12807213103358
 21
54.75360107421872
 31
0.7705062824103557
 12
66.71138357732363
 22
54.75360107421873
 32
30.728695895002883
 13
66.71138357732363
 23
54.75360107421873
 33
30.728695895002883
  0
3DFACE
  8
0
1001
WEBCAD
1000
S3D3
 10
67.19462638808096
 20
111.51032257080077
 30
30.7031561716917
 11
65.61131494179091
 21
111.51032257080077
 31
0.7449665590991721
 12
65.12807213103358
 22
54.75360107421872
 32
0.7705062824103557
 13
65.12807213103358
 23
54.75360107421872
 33
0.7705062824103557
  0
3DFACE
  8
0
1001
WEBCAD
1000
S3D3
 10
66.71138357732363
 20
54.75360107421873
 30
30.728695895002883
 11
113.97070327097556
 21
25.956151962280256
 31
-1.8108612151198287
 12
115.55401471726562
 22
25.95615196228026
 32
28.147328397472698
 13
115.55401471726562
 23
25.95615196228026
 33
28.147328397472698
  0
3DFACE
  8
0
1001
WEBCAD
1000
S3D3
 10
66.71138357732363
 20
54.75360107421873
 30
30.728695895002883
 11
65.12807213103358
 21
54.75360107421872
 31
0.7705062824103557
 12
113.97070327097556
 22
25.956151962280256
 32
-1.8108612151198287
 13
113.97070327097556
 23
25.956151962280256
 33
-1.8108612151198287
  0
3DFACE
  8
0
1001
WEBCAD
1000
S3D3
 10
114.93719651125178
 20
139.46958923339844
 30
-1.8619410643991223
 11
65.61131494179091
 21
111.51032257080077
 31
0.7449665590991721
 12
67.19462638808096
 22
111.51032257080077
 32
30.7031561716917
 13
67.19462638808096
 23
111.51032257080077
 33
30.7031561716917
  0
3DFACE
  8
0
1001
WEBCAD
1000
S3D3
 10
116.52050795754184
 20
139.46958923339844
 30
28.096248548193405
 11
114.93719651125178
 21
139.46958923339844
 31
-1.8619410643991223
 12
67.19462638808096
 22
111.51032257080077
 32
30.7031561716917
 13
67.19462638808096
 23
111.51032257080077
 33
30.7031561716917
  0
3DFACE
  8
0
1001
WEBCAD
1000
S3D3
 10
115.55401471726562
 20
25.95615196228026
 30
28.147328397472698
 11
164.8798962867265
 21
53.91542434692382
 31
25.540420773974407
 12
143.50934618667313
 22
53.633438110351555
 32
26.669869416381918
 13
143.50934618667313
 23
53.633438110351555
 33
26.669869416381918
  0
3DFACE
  8
0
1001
WEBCAD
1000
S3D3
 10
88.31348307992064
 20
53.63343811035155
 30
29.58700970339197
 11
115.55401471726562
 21
25.95615196228026
 31
28.147328397472698
 12
143.50934618667313
 22
53.633438110351555
 32
26.669869416381918
 13
143.50934618667313
 23
53.633438110351555
 33
26.669869416381918
  0
3DFACE
  8
0
1001
WEBCAD
1000
S3D3
 10
143.5093461866731
 20
110.31156921386717
 30
26.669869416381914
 11
164.8798962867265
 21
53.91542434692382
 31
25.540420773974407
 12
165.36313909748384
 22
110.67214965820311
 32
25.51488105066322
 13
165.36313909748384
 23
110.67214965820311
 33
25.51488105066322
  0
3DFACE
  8
0
1001
WEBCAD
1000
S3D3
 10
143.5093461866731
 20
110.31156921386717
 30
26.669869416381914
 11
143.50934618667313
 21
53.633438110351555
 31
26.669869416381918
 12
164.8798962867265
 22
53.91542434692382
 32
25.540420773974407
 13
164.8798962867265
 23
53.91542434692382
 33
25.540420773974407
  0
3DFACE
  8
0
1001
WEBCAD
1000
S3D3
 10
66.71138357732363
 20
54.75360107421873
 30
30.728695895002883
 11
115.55401471726562
 21
25.95615196228026
 31
28.147328397472698
 12
88.31348307992064
 22
53.63343811035155
 32
29.58700970339197
 13
88.31348307992064
 23
53.63343811035155
 33
29.58700970339197
  0
3DFACE
  8
0
1001
WEBCAD
1000
S3D3
 10
88.31348307992064
 20
110.31156921386717
 30
29.587009703391963
 11
66.71138357732363
 21
54.75360107421873
 31
30.728695895002883
 12
88.31348307992064
 22
53.63343811035155
 32
29.58700970339197
 13
88.31348307992064
 23
53.63343811035155
 33
29.58700970339197
  0
3DFACE
  8
0
1001
WEBCAD
1000
S3D3
 10
116.52050795754184
 20
139.46958923339844
 30
28.096248548193405
 11
88.31348307992064
 21
110.31156921386717
 31
29.587009703391963
 12
143.5093461866731
 22
110.31156921386717
 32
26.669869416381914
 13
143.5093461866731
 23
110.31156921386717
 33
26.669869416381914
  0
3DFACE
  8
0
1001
WEBCAD
1000
S3D3
 10
116.52050795754184
 20
139.46958923339844
 30
28.096248548193405
 11
143.5093461866731
 21
110.31156921386717
 31
26.669869416381914
 12
165.36313909748384
 22
110.67214965820311
 32
25.51488105066322
 13
165.36313909748384
 23
110.67214965820311
 33
25.51488105066322
  0
3DFACE
  8
0
1001
WEBCAD
1000
S3D3
 10
67.19462638808096
 20
111.51032257080077
 30
30.7031561716917
 11
66.71138357732363
 21
54.75360107421873
 31
30.728695895002883
 12
88.31348307992064
 22
110.31156921386717
 32
29.587009703391963
 13
88.31348307992064
 23
110.31156921386717
 33
29.587009703391963
  0
3DFACE
  8
0
1001
WEBCAD
1000
S3D3
 10
67.19462638808096
 20
111.51032257080077
 30
30.7031561716917
 11
88.31348307992064
 21
110.31156921386717
 31
29.587009703391963
 12
116.52050795754184
 22
139.46958923339844
 32
28.096248548193405
 13
116.52050795754184
 23
139.46958923339844
 33
28.096248548193405
  0
3DFACE
  8
0
1001
WEBCAD
1000
S3D3
 10
113.97070327097556
 20
25.956151962280256
 30
-1.8108612151198287
 11
141.92603474038307
 21
53.63343811035155
 31
-3.2883201962106092
 12
163.29658484043645
 22
53.915424346923814
 32
-4.4177688386181195
 13
163.29658484043645
 23
53.915424346923814
 33
-4.4177688386181195
  0
3DFACE
  8
0
1001
WEBCAD
1000
S3D3
 10
86.73017163363059
 20
53.63343811035154
 30
-0.3711799092005563
 11
141.92603474038307
 21
53.63343811035155
 31
-3.2883201962106092
 12
113.97070327097556
 22
25.956151962280256
 32
-1.8108612151198287
 13
113.97070327097556
 23
25.956151962280256
 33
-1.8108612151198287
  0
3DFACE
  8
0
1001
WEBCAD
1000
S3D3
 10
141.92603474038305
 20
110.31156921386717
 30
-3.288320196210613
 11
163.77982765119378
 21
110.67214965820311
 31
-4.443308561929307
 12
163.29658484043645
 22
53.915424346923814
 32
-4.4177688386181195
 13
163.29658484043645
 23
53.915424346923814
 33
-4.4177688386181195
  0
3DFACE
  8
0
1001
WEBCAD
1000
S3D3
 10
141.92603474038305
 20
110.31156921386717
 30
-3.288320196210613
 11
163.29658484043645
 21
53.915424346923814
 31
-4.4177688386181195
 12
141.92603474038307
 22
53.63343811035155
 32
-3.2883201962106092
 13
141.92603474038307
 23
53.63343811035155
 33
-3.2883201962106092
  0
3DFACE
  8
0
1001
WEBCAD
1000
S3D3
 10
65.12807213103358
 20
54.75360107421872
 30
0.7705062824103557
 11
86.73017163363059
 21
53.63343811035154
 31
-0.3711799092005563
 12
113.97070327097556
 22
25.956151962280256
 32
-1.8108612151198287
 13
113.97070327097556
 23
25.956151962280256
 33
-1.8108612151198287
  0
3DFACE
  8
0
1001
WEBCAD
1000
S3D3
 10
86.73017163363059
 20
110.31156921386717
 30
-0.37117990920056343
 11
86.73017163363059
 21
53.63343811035154
 31
-0.3711799092005563
 12
65.12807213103358
 22
54.75360107421872
 32
0.7705062824103557
 13
65.12807213103358
 23
54.75360107421872
 33
0.7705062824103557
  0
3DFACE
  8
0
1001
WEBCAD
1000
S3D3
 10
114.93719651125178
 20
139.46958923339844
 30
-1.8619410643991223
 11
141.92603474038305
 21
110.31156921386717
 31
-3.288320196210613
 12
86.73017163363059
 22
110.31156921386717
 32
-0.37117990920056343
 13
86.73017163363059
 23
110.31156921386717
 33
-0.37117990920056343
  0
3DFACE
  8
0
1001
WEBCAD
1000
S3D3
 10
114.93719651125178
 20
139.46958923339844
 30
-1.8619410643991223
 11
163.77982765119378
 21
110.67214965820311
 31
-4.443308561929307
 12
141.92603474038305
 22
110.31156921386717
 32
-3.288320196210613
 13
141.92603474038305
 23
110.31156921386717
 33
-3.288320196210613
  0
3DFACE
  8
0
1001
WEBCAD
1000
S3D3
 10
65.61131494179091
 20
111.51032257080077
 30
0.7449665590991721
 11
86.73017163363059
 21
110.31156921386717
 31
-0.37117990920056343
 12
65.12807213103358
 22
54.75360107421872
 32
0.7705062824103557
 13
65.12807213103358
 23
54.75360107421872
 33
0.7705062824103557
  0
3DFACE
  8
0
1001
WEBCAD
1000
S3D3
 10
65.61131494179091
 20
111.51032257080077
 30
0.7449665590991721
 11
114.93719651125178
 21
139.46958923339844
 31
-1.8619410643991223
 12
86.73017163363059
 22
110.31156921386717
 32
-0.37117990920056343
 13
86.73017163363059
 23
110.31156921386717
 33
-0.37117990920056343
  0
3DFACE
  8
0
1001
WEBCAD
1000
S3D3
 10
115.55401471726562
 20
25.95615196228026
 30
28.147328397472698
 11
163.29658484043645
 21
53.915424346923814
 31
-4.4177688386181195
 12
164.8798962867265
 22
53.91542434692382
 32
25.540420773974407
 13
164.8798962867265
 23
53.91542434692382
 33
25.540420773974407
  0
3DFACE
  8
0
1001
WEBCAD
1000
S3D3
 10
115.55401471726562
 20
25.95615196228026
 30
28.147328397472698
 11
113.97070327097556
 21
25.956151962280256
 31
-1.8108612151198287
 12
163.29658484043645
 22
53.915424346923814
 32
-4.4177688386181195
 13
163.29658484043645
 23
53.915424346923814
 33
-4.4177688386181195
  0
3DFACE
  8
0
1001
WEBCAD
1000
S3D3
 10
165.36313909748384
 20
110.67214965820311
 30
25.51488105066322
 11
114.93719651125178
 21
139.46958923339844
 31
-1.8619410643991223
 12
116.52050795754184
 22
139.46958923339844
 32
28.096248548193405
 13
116.52050795754184
 23
139.46958923339844
 33
28.096248548193405
  0
3DFACE
  8
0
1001
WEBCAD
1000
S3D3
 10
165.36313909748384
 20
110.67214965820311
 30
25.51488105066322
 11
163.77982765119378
 21
110.67214965820311
 31
-4.443308561929307
 12
114.93719651125178
 22
139.46958923339844
 32
-1.8619410643991223
 13
114.93719651125178
 23
139.46958923339844
 33
-1.8619410643991223
  0
3DFACE
  8
0
1001
WEBCAD
1000
S3D3
 10
164.8798962867265
 20
53.91542434692382
 30
25.540420773974407
 11
163.77982765119378
 21
110.67214965820311
 31
-4.443308561929307
 12
165.36313909748384
 22
110.67214965820311
 32
25.51488105066322
 13
165.36313909748384
 23
110.67214965820311
 33
25.51488105066322
  0
3DFACE
  8
0
1001
WEBCAD
1000
S3D3
 10
164.8798962867265
 20
53.91542434692382
 30
25.540420773974407
 11
163.29658484043645
 21
53.915424346923814
 31
-4.4177688386181195
 12
163.77982765119378
 22
110.67214965820311
 32
-4.443308561929307
 13
163.77982765119378
 23
110.67214965820311
 33
-4.443308561929307
  0
3DFACE
  8
0
1001
WEBCAD
1000
S3D3
 10
143.5093461866731
 20
110.31156921386717
 30
26.669869416381914
 11
88.31348307992064
 21
53.63343811035155
 31
29.58700970339197
 12
143.50934618667313
 22
53.633438110351555
 32
26.669869416381918
 13
143.50934618667313
 23
53.633438110351555
 33
26.669869416381918
  0
3DFACE
  8
0
1001
WEBCAD
1000
S3D3
 10
88.31348307992064
 20
110.31156921386717
 30
29.587009703391963
 11
88.31348307992064
 21
53.63343811035155
 31
29.58700970339197
 12
143.5093461866731
 22
110.31156921386717
 32
26.669869416381914
 13
143.5093461866731
 23
110.31156921386717
 33
26.669869416381914
  0
3DFACE
  8
0
1001
WEBCAD
1000
S3D3
 10
83.03577825895383
 20
53.633438110351534
 30
-70.27362233858312
 11
141.92603474038307
 21
53.63343811035155
 31
-3.2883201962106092
 12
86.73017163363059
 22
53.63343811035154
 32
-0.3711799092005563
 13
86.73017163363059
 23
53.63343811035154
 33
-0.3711799092005563
  0
3DFACE
  8
0
1001
WEBCAD
1000
S3D3
 10
83.03577825895383
 20
53.633438110351534
 30
-70.27362233858312
 11
138.2316413657063
 21
53.63343811035154
 31
-73.19076262559318
 12
141.92603474038307
 22
53.63343811035155
 32
-3.2883201962106092
 13
141.92603474038307
 23
53.63343811035155
 33
-3.2883201962106092
  0
3DFACE
  8
0
1001
WEBCAD
1000
S3D3
 10
83.03577825895383
 20
53.633438110351534
 30
-70.27362233858312
 11
86.73017163363059
 21
53.63343811035154
 31
-0.3711799092005563
 12
86.73017163363059
 22
110.31156921386717
 32
-0.37117990920056343
 13
86.73017163363059
 23
110.31156921386717
 33
-0.37117990920056343
  0
3DFACE
  8
0
1001
WEBCAD
1000
S3D3
 10
83.03577825895383
 20
53.633438110351534
 30
-70.27362233858312
 11
86.73017163363059
 21
110.31156921386717
 31
-0.37117990920056343
 12
83.03577825895383
 22
110.31156921386716
 32
-70.27362233858312
 13
83.03577825895383
 23
110.31156921386716
 33
-70.27362233858312
  0
3DFACE
  8
0
1001
WEBCAD
1000
S3D3
 10
83.03577825895383
 20
110.31156921386716
 30
-70.27362233858312
 11
86.73017163363059
 21
110.31156921386717
 31
-0.37117990920056343
 12
141.92603474038305
 22
110.31156921386717
 32
-3.288320196210613
 13
141.92603474038305
 23
110.31156921386717
 33
-3.288320196210613
  0
3DFACE
  8
0
1001
WEBCAD
1000
S3D3
 10
83.03577825895383
 20
110.31156921386716
 30
-70.27362233858312
 11
141.92603474038305
 21
110.31156921386717
 31
-3.288320196210613
 12
138.2316413657063
 22
110.31156921386716
 32
-73.19076262559318
 13
138.2316413657063
 23
110.31156921386716
 33
-73.19076262559318
  0
3DFACE
  8
0
1001
WEBCAD
1000
S3D3
 10
138.2316413657063
 20
53.63343811035154
 30
-73.19076262559318
 11
141.92603474038305
 21
110.31156921386717
 31
-3.288320196210613
 12
141.92603474038307
 22
53.63343811035155
 32
-3.2883201962106092
 13
141.92603474038307
 23
53.63343811035155
 33
-3.2883201962106092
  0
3DFACE
  8
0
1001
WEBCAD
1000
S3D3
 10
138.2316413657063
 20
53.63343811035154
 30
-73.19076262559318
 11
138.2316413657063
 21
110.31156921386716
 31
-73.19076262559318
 12
141.92603474038305
 22
110.31156921386717
 32
-3.288320196210613
 13
141.92603474038305
 23
110.31156921386717
 33
-3.288320196210613
  0
3DFACE
  8
0
1001
WEBCAD
1000
S3D3
 10
138.2316413657063
 20
110.31156921386716
 30
-73.19076262559318
 11
138.2316413657063
 21
53.63343811035154
 31
-73.19076262559318
 12
83.03577825895383
 22
53.633438110351534
 32
-70.27362233858312
 13
83.03577825895383
 23
53.633438110351534
 33
-70.27362233858312
  0
3DFACE
  8
0
1001
WEBCAD
1000
S3D3
 10
83.03577825895383
 20
110.31156921386716
 30
-70.27362233858312
 11
138.2316413657063
 21
110.31156921386716
 31
-73.19076262559318
 12
83.03577825895383
 22
53.633438110351534
 32
-70.27362233858312
 13
83.03577825895383
 23
53.633438110351534
 33
-70.27362233858312
  0
3DFACE
  8
0
1001
WEBCAD
1000
S3D5
 10
-140.7153455484259
 20
-121.06519817628066
 30
184.02347785987433
 11
-140.71534554842594
 21
-156.06519817628066
 31
184.02347785987433
 12
-144.92002566921445
 22
-156.06519817628063
 32
84.11191363890016
 13
-144.92002566921445
 23
-156.06519817628063
 33
84.11191363890016
  0
3DFACE
  8
0
1001
WEBCAD
1000
S3D5
 10
-140.7153455484259
 20
-121.06519817628066
 30
184.02347785987433
 11
-144.92002566921445
 21
-156.06519817628063
 31
84.11191363890016
 12
-144.9200256692144
 22
-121.06519817628063
 32
84.11191363890018
 13
-144.9200256692144
 23
-121.06519817628063
 33
84.11191363890018
  0
3DFACE
  8
0
1001
WEBCAD
1000
S3D5
 10
-80.76840701584136
 20
-76.06519817628067
 30
181.50066978740125
 11
-140.7153455484259
 21
-121.06519817628066
 31
184.02347785987433
 12
-144.9200256692144
 22
-121.06519817628063
 32
84.11191363890018
 13
-144.9200256692144
 23
-121.06519817628063
 33
84.11191363890018
  0
3DFACE
  8
0
1001
WEBCAD
1000
S3D5
 10
-80.76840701584136
 20
-76.06519817628067
 30
181.50066978740125
 11
-144.9200256692144
 21
-121.06519817628063
 31
84.11191363890018
 12
-84.97308713662986
 22
-76.06519817628065
 32
81.58910556642708
 13
-84.97308713662986
 23
-76.06519817628065
 33
81.58910556642708
  0
3DFACE
  8
0
1001
WEBCAD
1000
S3D5
 10
34.12989183827894
 20
-71.0651981762807
 30
176.66528764849443
 11
-80.76840701584136
 21
-76.06519817628067
 31
181.50066978740125
 12
-84.97308713662986
 22
-76.06519817628065
 32
81.58910556642708
 13
-84.97308713662986
 23
-76.06519817628065
 33
81.58910556642708
  0
3DFACE
  8
0
1001
WEBCAD
1000
S3D5
 10
34.12989183827894
 20
-71.0651981762807
 30
176.66528764849443
 11
-84.97308713662986
 21
-76.06519817628065
 31
81.58910556642708
 12
29.925211717490413
 22
-71.06519817628067
 32
76.75372342752028
 13
29.925211717490413
 23
-71.06519817628067
 33
76.75372342752028
  0
3DFACE
  8
0
1001
WEBCAD
1000
S3D5
 10
94.0768303708634
 20
-121.06519817628072
 30
174.14247957602134
 11
34.12989183827894
 21
-71.0651981762807
 31
176.66528764849443
 12
29.925211717490413
 22
-71.06519817628067
 32
76.75372342752028
 13
29.925211717490413
 23
-71.06519817628067
 33
76.75372342752028
  0
3DFACE
  8
0
1001
WEBCAD
1000
S3D5
 10
94.0768303708634
 20
-121.06519817628072
 30
174.14247957602134
 11
29.925211717490413
 21
-71.06519817628067
 31
76.75372342752028
 12
89.8721502500749
 22
-121.06519817628069
 32
74.23091535504717
 13
89.8721502500749
 23
-121.06519817628069
 33
74.23091535504717
  0
3DFACE
  8
0
1001
WEBCAD
1000
S3D5
 10
94.0768303708634
 20
-156.06519817628072
 30
174.14247957602134
 11
94.0768303708634
 21
-121.06519817628072
 31
174.14247957602134
 12
89.8721502500749
 22
-121.06519817628069
 32
74.23091535504717
 13
89.8721502500749
 23
-121.06519817628069
 33
74.23091535504717
  0
3DFACE
  8
0
1001
WEBCAD
1000
S3D5
 10
94.0768303708634
 20
-156.06519817628072
 30
174.14247957602134
 11
89.8721502500749
 21
-121.06519817628069
 31
74.23091535504717
 12
89.8721502500749
 22
-156.0651981762807
 32
74.23091535504716
 13
89.8721502500749
 23
-156.0651981762807
 33
74.23091535504716
  0
3DFACE
  8
0
1001
WEBCAD
1000
S3D5
 10
-140.71534554842594
 20
-191.0651981762806
 30
184.02347785987433
 11
-140.71534554842594
 21
-156.06519817628066
 31
184.02347785987433
 12
-144.92002566921445
 22
-156.06519817628063
 32
84.11191363890016
 13
-144.92002566921445
 23
-156.06519817628063
 33
84.11191363890016
  0
3DFACE
  8
0
1001
WEBCAD
1000
S3D5
 10
-140.71534554842594
 20
-191.0651981762806
 30
184.02347785987433
 11
-144.92002566921445
 21
-156.06519817628063
 31
84.11191363890016
 12
-144.92002566921445
 22
-191.0651981762806
 32
84.11191363890015
 13
-144.92002566921445
 23
-191.0651981762806
 33
84.11191363890015
  0
3DFACE
  8
0
1001
WEBCAD
1000
S3D5
 10
-80.76840701584142
 20
-236.06519817628066
 30
181.5006697874012
 11
-140.71534554842594
 21
-191.0651981762806
 31
184.02347785987433
 12
-144.92002566921445
 22
-191.0651981762806
 32
84.11191363890015
 13
-144.92002566921445
 23
-191.0651981762806
 33
84.11191363890015
  0
3DFACE
  8
0
1001
WEBCAD
1000
S3D5
 10
-80.76840701584142
 20
-236.06519817628066
 30
181.5006697874012
 11
-144.92002566921445
 21
-191.0651981762806
 31
84.11191363890015
 12
-84.97308713662991
 22
-236.06519817628066
 32
81.58910556642704
 13
-84.97308713662991
 23
-236.06519817628066
 33
81.58910556642704
  0
3DFACE
  8
0
1001
WEBCAD
1000
S3D5
 10
34.12989183827889
 20
-241.06519817628066
 30
176.66528764849443
 11
-80.76840701584142
 21
-236.06519817628066
 31
181.5006697874012
 12
-84.97308713662991
 22
-236.06519817628066
 32
81.58910556642704
 13
-84.97308713662991
 23
-236.06519817628066
 33
81.58910556642704
  0
3DFACE
  8
0
1001
WEBCAD
1000
S3D5
 10
34.12989183827889
 20
-241.06519817628066
 30
176.66528764849443
 11
-84.97308713662991
 21
-236.06519817628066
 31
81.58910556642704
 12
29.925211717490384
 22
-241.06519817628066
 32
76.75372342752024
 13
29.925211717490384
 23
-241.06519817628066
 33
76.75372342752024
  0
3DFACE
  8
0
1001
WEBCAD
1000
S3D5
 10
94.0768303708634
 20
-191.06519817628066
 30
174.14247957602132
 11
34.12989183827889
 21
-241.06519817628066
 31
176.66528764849443
 12
29.925211717490384
 22
-241.06519817628066
 32
76.75372342752024
 13
29.925211717490384
 23
-241.06519817628066
 33
76.75372342752024
  0
3DFACE
  8
0
1001
WEBCAD
1000
S3D5
 10
94.0768303708634
 20
-191.06519817628066
 30
174.14247957602132
 11
29.925211717490384
 21
-241.06519817628066
 31
76.75372342752024
 12
89.8721502500749
 22
-191.06519817628066
 32
74.23091535504716
 13
89.8721502500749
 23
-191.06519817628066
 33
74.23091535504716
  0
3DFACE
  8
0
1001
WEBCAD
1000
S3D5
 10
94.0768303708634
 20
-156.06519817628072
 30
174.14247957602134
 11
94.0768303708634
 21
-191.06519817628066
 31
174.14247957602132
 12
89.8721502500749
 22
-191.06519817628066
 32
74.23091535504716
 13
89.8721502500749
 23
-191.06519817628066
 33
74.23091535504716
  0
3DFACE
  8
0
1001
WEBCAD
1000
S3D5
 10
94.0768303708634
 20
-156.06519817628072
 30
174.14247957602134
 11
89.8721502500749
 21
-191.06519817628066
 31
74.23091535504716
 12
89.8721502500749
 22
-156.0651981762807
 32
74.23091535504716
 13
89.8721502500749
 23
-156.0651981762807
 33
74.23091535504716
  0
ENDSEC
  0
EOF
