  0
SECTION
  2
HEADER
  9
$ACADVER
  1
AC1015
  0
ENDSEC
  0
SECTION
  2
TABLES
  0
TABLE
  2
LTYPE
 70
1
  0
LTYPE
  2
CONTINUOUS
 70
0
  3
Solid line
 72
65
 73
0
 40
0.0
  0
ENDTAB
  0
TABLE
  2
LAYER
 70
1
  0
LAYER
  2
0
 70
0
 62
7
  6
CONTINUOUS
  0
ENDTAB
  0
ENDSEC
  0
SECTION
  2
BLOCKS
  0
ENDSEC
  0
SECTION
  2
ENTITIES
  0
3DFACE
  8
0
1001
WEBCAD
1000
E7
 10
-59.51770703347776
 20
48.99202555879949
 30
1.2268092492828844
 11
-58.96710337758187
 21
44.44898432955144
 31
1.1932765303343378
 12
-58.96737930263868
 22
44.44898432955144
 32
1.1887229404959223
 13
-58.96737930263868
 23
44.44898432955144
 33
1.1887229404959223
  0
3DFACE
  8
0
1001
WEBCAD
1000
E7
 10
-59.51770703347776
 20
48.99202555879949
 30
1.2268092492828844
 11
-58.96737930263868
 21
44.44898432955144
 31
1.1887229404959223
 12
-59.517982956722065
 22
48.99202555879949
 32
1.22225571902155
 13
-59.517982956722065
 23
48.99202555879949
 33
1.22225571902155
  0
3DFACE
  8
0
1001
WEBCAD
1000
E7
 10
-61.13752281525067
 20
53.271040146201834
 30
1.3254588610236153
 11
-59.517982956722065
 21
48.99202555879949
 31
1.22225571902155
 12
-61.137798740307474
 22
53.271040146201834
 32
1.3209052711852
 13
-61.137798740307474
 23
53.271040146201834
 33
1.3209052711852
  0
3DFACE
  8
0
1001
WEBCAD
1000
E7
 10
-61.13752281525067
 20
53.271040146201834
 30
1.3254588610236153
 11
-59.51770703347776
 21
48.99202555879949
 31
1.2268092492828844
 12
-59.517982956722065
 22
48.99202555879949
 32
1.22225571902155
 13
-59.517982956722065
 23
48.99202555879949
 33
1.22225571902155
  0
3DFACE
  8
0
1001
WEBCAD
1000
E7
 10
-63.73240891924999
 20
57.037347977012374
 30
1.4834919361078667
 11
-61.137798740307474
 21
53.271040146201834
 31
1.3209052711852
 12
-63.7326848443068
 22
57.037347977012374
 32
1.4789383462694512
 13
-63.7326848443068
 23
57.037347977012374
 33
1.4789383462694512
  0
3DFACE
  8
0
1001
WEBCAD
1000
E7
 10
-63.73240891924999
 20
57.037347977012374
 30
1.4834919361078667
 11
-61.13752281525067
 21
53.271040146201834
 31
1.3254588610236153
 12
-61.137798740307474
 22
53.271040146201834
 32
1.3209052711852
 13
-61.137798740307474
 23
53.271040146201834
 33
1.3209052711852
  0
3DFACE
  8
0
1001
WEBCAD
1000
E7
 10
-67.1515624628909
 20
60.07206935152409
 30
1.6917243437466465
 11
-63.7326848443068
 21
57.037347977012374
 31
1.4789383462694512
 12
-67.15183838794769
 22
60.07206935152409
 32
1.6871707539082312
 13
-67.15183838794769
 23
60.07206935152409
 33
1.6871707539082312
  0
3DFACE
  8
0
1001
WEBCAD
1000
E7
 10
-67.1515624628909
 20
60.07206935152409
 30
1.6917243437466465
 11
-63.73240891924999
 21
57.037347977012374
 31
1.4834919361078667
 12
-63.7326848443068
 22
57.037347977012374
 32
1.4789383462694512
 13
-63.7326848443068
 23
57.037347977012374
 33
1.4789383462694512
  0
3DFACE
  8
0
1001
WEBCAD
1000
E7
 10
-71.19627349822844
 20
62.19883174166081
 30
1.9380542924060409
 11
-67.15183838794769
 21
60.07206935152409
 31
1.6871707539082312
 12
-71.19655704869844
 22
62.19883174166081
 32
1.9335009494612065
 13
-71.19655704869844
 23
62.19883174166081
 33
1.9335009494612065
  0
3DFACE
  8
0
1001
WEBCAD
1000
E7
 10
-71.19627349822844
 20
62.19883174166081
 30
1.9380542924060409
 11
-67.1515624628909
 21
60.07206935152409
 31
1.6917243437466465
 12
-67.15183838794769
 22
60.07206935152409
 32
1.6871707539082312
 13
-67.15183838794769
 23
60.07206935152409
 33
1.6871707539082312
  0
3DFACE
  8
0
1001
WEBCAD
1000
E7
 10
-75.63148655928863
 20
63.29403132662175
 30
2.208166258446565
 11
-71.19655704869844
 21
62.19883174166081
 31
1.9335009494612065
 12
-75.63176248389233
 22
63.29403132662175
 32
2.20361268350242
 13
-75.63176248389233
 23
63.29403132662175
 33
2.20361268350242
  0
3DFACE
  8
0
1001
WEBCAD
1000
E7
 10
-75.63148655928863
 20
63.29403132662175
 30
2.208166258446565
 11
-71.19627349822844
 21
62.19883174166081
 31
1.9380542924060409
 12
-71.19655704869844
 22
62.19883174166081
 32
1.9335009494612065
 13
-71.19655704869844
 23
62.19883174166081
 33
1.9335009494612065
  0
3DFACE
  8
0
1001
WEBCAD
1000
E7
 10
-80.19942687119564
 20
63.29403132662175
 30
2.4863618170431314
 11
-75.63176248389233
 21
63.29403132662175
 31
2.20361268350242
 12
-80.19970279579933
 22
63.29403132662175
 32
2.481808242098986
 13
-80.19970279579933
 23
63.29403132662175
 33
2.481808242098986
  0
3DFACE
  8
0
1001
WEBCAD
1000
E7
 10
-80.19942687119564
 20
63.29403132662175
 30
2.4863618170431314
 11
-75.63148655928863
 21
63.29403132662175
 31
2.208166258446565
 12
-75.63176248389233
 22
63.29403132662175
 32
2.20361268350242
 13
-75.63176248389233
 23
63.29403132662175
 33
2.20361268350242
  0
3DFACE
  8
0
1001
WEBCAD
1000
E7
 10
-84.63463230616297
 20
62.19883174166081
 30
2.7564735585314812
 11
-80.19970279579933
 21
63.29403132662175
 31
2.481808242098986
 12
-84.63490823076665
 22
62.19883174166081
 32
2.751919983587336
 13
-84.63490823076665
 23
62.19883174166081
 33
2.751919983587336
  0
3DFACE
  8
0
1001
WEBCAD
1000
E7
 10
-84.63463230616297
 20
62.19883174166081
 30
2.7564735585314812
 11
-80.19942687119564
 21
63.29403132662175
 31
2.4863618170431314
 12
-80.19970279579933
 22
63.29403132662175
 32
2.481808242098986
 13
-80.19970279579933
 23
63.29403132662175
 33
2.481808242098986
  0
3DFACE
  8
0
1001
WEBCAD
1000
E7
 10
-88.67934334104737
 20
60.07206935152409
 30
3.002803522085146
 11
-84.63490823076665
 21
62.19883174166081
 31
2.751919983587336
 12
-88.6796268919705
 22
60.07206935152409
 32
2.9982501642460413
 13
-88.6796268919705
 23
60.07206935152409
 33
2.9982501642460413
  0
3DFACE
  8
0
1001
WEBCAD
1000
E7
 10
-88.67934334104737
 20
60.07206935152409
 30
3.002803522085146
 11
-84.63463230616297
 21
62.19883174166081
 31
2.7564735585314812
 12
-84.63490823076665
 22
62.19883174166081
 32
2.751919983587336
 13
-84.63490823076665
 23
62.19883174166081
 33
2.751919983587336
  0
3DFACE
  8
0
1001
WEBCAD
1000
E7
 10
-92.09849688559453
 20
57.037347977012374
 30
3.2110358999353865
 11
-88.6796268919705
 21
60.07206935152409
 31
2.9982501642460413
 12
-92.09878043561142
 22
57.037347977012374
 32
3.206482571884822
 13
-92.09878043561142
 23
57.037347977012374
 33
3.206482571884822
  0
3DFACE
  8
0
1001
WEBCAD
1000
E7
 10
-92.09849688559453
 20
57.037347977012374
 30
3.2110358999353865
 11
-88.67934334104737
 21
60.07206935152409
 31
3.002803522085146
 12
-88.6796268919705
 22
60.07206935152409
 32
2.9982501642460413
 13
-88.6796268919705
 23
60.07206935152409
 33
2.9982501642460413
  0
3DFACE
  8
0
1001
WEBCAD
1000
E7
 10
-94.69338680162076
 20
53.27104014620183
 30
3.3690691208078345
 11
-92.09878043561142
 21
57.037347977012374
 31
3.206482571884822
 12
-94.69366272577132
 22
53.27104014620183
 32
3.364515560757959
 13
-94.69366272577132
 23
53.27104014620183
 33
3.364515560757959
  0
3DFACE
  8
0
1001
WEBCAD
1000
E7
 10
-94.69338680162076
 20
53.27104014620183
 30
3.3690691208078345
 11
-92.09849688559453
 21
57.037347977012374
 31
3.2110358999353865
 12
-92.09878043561142
 22
57.037347977012374
 32
3.206482571884822
 13
-92.09878043561142
 23
57.037347977012374
 33
3.206482571884822
  0
3DFACE
  8
0
1001
WEBCAD
1000
E7
 10
-96.31320639813933
 20
48.99202555879948
 30
3.4677187889711405
 11
-94.69338680162076
 21
53.27104014620183
 31
3.3690691208078345
 12
-94.69366272577132
 22
53.27104014620183
 32
3.364515560757959
 13
-94.69366272577132
 23
53.27104014620183
 33
3.364515560757959
  0
3DFACE
  8
0
1001
WEBCAD
1000
E7
 10
-96.31320639813933
 20
48.99202555879948
 30
3.4677187889711405
 11
-94.69366272577132
 21
53.27104014620183
 31
3.364515560757959
 12
-96.31348232319614
 22
48.99202555879948
 32
3.4631651991327255
 13
-96.31348232319614
 23
48.99202555879948
 33
3.4631651991327255
  0
3DFACE
  8
0
1001
WEBCAD
1000
E7
 10
-96.8638100522227
 20
44.448984329551436
 30
3.501251567496769
 11
-96.31320639813933
 21
48.99202555879948
 31
3.4677187889711405
 12
-96.31348232319614
 22
48.99202555879948
 32
3.4631651991327255
 13
-96.31348232319614
 23
48.99202555879948
 33
3.4631651991327255
  0
3DFACE
  8
0
1001
WEBCAD
1000
E7
 10
-96.8638100522227
 20
44.448984329551436
 30
3.501251567496769
 11
-96.31348232319614
 21
48.99202555879948
 31
3.4631651991327255
 12
-96.86408597727952
 22
44.448984329551436
 32
3.4966979776583536
 13
-96.86408597727952
 23
44.448984329551436
 33
3.4966979776583536
  0
3DFACE
  8
0
1001
WEBCAD
1000
E7
 10
-96.31320639813931
 20
39.905946915000655
 30
3.467718788971142
 11
-96.8638100522227
 21
44.448984329551436
 31
3.501251567496769
 12
-96.86408597727952
 22
44.448984329551436
 32
3.4966979776583536
 13
-96.86408597727952
 23
44.448984329551436
 33
3.4966979776583536
  0
3DFACE
  8
0
1001
WEBCAD
1000
E7
 10
-96.31320639813931
 20
39.905946915000655
 30
3.467718788971142
 11
-96.86408597727952
 21
44.448984329551436
 31
3.4966979776583536
 12
-96.31348232319613
 22
39.905946915000655
 32
3.463165199132727
 13
-96.31348232319613
 23
39.905946915000655
 33
3.463165199132727
  0
3DFACE
  8
0
1001
WEBCAD
1000
E7
 10
-94.69338680162075
 20
35.62693232759831
 30
3.3690691208078367
 11
-96.31320639813931
 21
39.905946915000655
 31
3.467718788971142
 12
-96.31348232319613
 22
39.905946915000655
 32
3.463165199132727
 13
-96.31348232319613
 23
39.905946915000655
 33
3.463165199132727
  0
3DFACE
  8
0
1001
WEBCAD
1000
E7
 10
-94.69338680162075
 20
35.62693232759831
 30
3.3690691208078367
 11
-96.31348232319613
 21
39.905946915000655
 31
3.463165199132727
 12
-94.6936627257713
 22
35.62693232759831
 32
3.3645155607579613
 13
-94.6936627257713
 23
35.62693232759831
 33
3.3645155607579613
  0
3DFACE
  8
0
1001
WEBCAD
1000
E7
 10
-92.09849688559451
 20
31.860624496787764
 30
3.21103589993539
 11
-94.69338680162075
 21
35.62693232759831
 31
3.3690691208078367
 12
-94.6936627257713
 22
35.62693232759831
 32
3.3645155607579613
 13
-94.6936627257713
 23
35.62693232759831
 33
3.3645155607579613
  0
3DFACE
  8
0
1001
WEBCAD
1000
E7
 10
-92.09849688559451
 20
31.860624496787764
 30
3.21103589993539
 11
-94.6936627257713
 21
35.62693232759831
 31
3.3645155607579613
 12
-92.0987804356114
 22
31.860624496787764
 32
3.206482571884825
 13
-92.0987804356114
 23
31.860624496787764
 33
3.206482571884825
  0
3DFACE
  8
0
1001
WEBCAD
1000
E7
 10
-88.67934334104736
 20
28.825903122276053
 30
3.0028035220851503
 11
-92.09849688559451
 21
31.860624496787764
 31
3.21103589993539
 12
-92.0987804356114
 22
31.860624496787764
 32
3.206482571884825
 13
-92.0987804356114
 23
31.860624496787764
 33
3.206482571884825
  0
3DFACE
  8
0
1001
WEBCAD
1000
E7
 10
-88.67934334104736
 20
28.825903122276053
 30
3.0028035220851503
 11
-92.0987804356114
 21
31.860624496787764
 31
3.206482571884825
 12
-88.67962689197049
 22
28.825903122276053
 32
2.9982501642460453
 13
-88.67962689197049
 23
28.825903122276053
 33
2.9982501642460453
  0
3DFACE
  8
0
1001
WEBCAD
1000
E7
 10
-84.63463230616296
 20
26.699140732139334
 30
2.7564735585314852
 11
-88.67934334104736
 21
28.825903122276053
 31
3.0028035220851503
 12
-88.67962689197049
 22
28.825903122276053
 32
2.9982501642460453
 13
-88.67962689197049
 23
28.825903122276053
 33
2.9982501642460453
  0
3DFACE
  8
0
1001
WEBCAD
1000
E7
 10
-84.63463230616296
 20
26.699140732139334
 30
2.7564735585314852
 11
-88.67962689197049
 21
28.825903122276053
 31
2.9982501642460453
 12
-84.63490823076664
 22
26.699140732139334
 32
2.75191998358734
 13
-84.63490823076664
 23
26.699140732139334
 33
2.75191998358734
  0
3DFACE
  8
0
1001
WEBCAD
1000
E7
 10
-80.19942687119563
 20
25.60393733248113
 30
2.486361817043136
 11
-84.63463230616296
 21
26.699140732139334
 31
2.7564735585314852
 12
-84.63490823076664
 22
26.699140732139334
 32
2.75191998358734
 13
-84.63490823076664
 23
26.699140732139334
 33
2.75191998358734
  0
3DFACE
  8
0
1001
WEBCAD
1000
E7
 10
-80.19942687119563
 20
25.60393733248113
 30
2.486361817043136
 11
-84.63490823076664
 21
26.699140732139334
 31
2.75191998358734
 12
-80.19970279579931
 22
25.60393733248113
 32
2.4818082420989906
 13
-80.19970279579931
 23
25.60393733248113
 33
2.4818082420989906
  0
3DFACE
  8
0
1001
WEBCAD
1000
E7
 10
-75.63148655928862
 20
25.60393733248113
 30
2.2081662584465693
 11
-80.19942687119563
 21
25.60393733248113
 31
2.486361817043136
 12
-80.19970279579931
 22
25.60393733248113
 32
2.4818082420989906
 13
-80.19970279579931
 23
25.60393733248113
 33
2.4818082420989906
  0
3DFACE
  8
0
1001
WEBCAD
1000
E7
 10
-75.63148655928862
 20
25.60393733248113
 30
2.2081662584465693
 11
-80.19970279579931
 21
25.60393733248113
 31
2.4818082420989906
 12
-75.63176248389232
 22
25.60393733248113
 32
2.2036126835024246
 13
-75.63176248389232
 23
25.60393733248113
 33
2.2036126835024246
  0
3DFACE
  8
0
1001
WEBCAD
1000
E7
 10
-71.19627349822842
 20
26.699140732139334
 30
1.9380542924060449
 11
-75.63148655928862
 21
25.60393733248113
 31
2.2081662584465693
 12
-75.63176248389232
 22
25.60393733248113
 32
2.2036126835024246
 13
-75.63176248389232
 23
25.60393733248113
 33
2.2036126835024246
  0
3DFACE
  8
0
1001
WEBCAD
1000
E7
 10
-71.19627349822842
 20
26.699140732139334
 30
1.9380542924060449
 11
-75.63176248389232
 21
25.60393733248113
 31
2.2036126835024246
 12
-71.19655704869842
 22
26.699140732139334
 32
1.9335009494612105
 13
-71.19655704869842
 23
26.699140732139334
 33
1.9335009494612105
  0
3DFACE
  8
0
1001
WEBCAD
1000
E7
 10
-67.15156246289088
 20
28.825903122276053
 30
1.6917243437466505
 11
-71.19627349822842
 21
26.699140732139334
 31
1.9380542924060449
 12
-71.19655704869842
 22
26.699140732139334
 32
1.9335009494612105
 13
-71.19655704869842
 23
26.699140732139334
 33
1.9335009494612105
  0
3DFACE
  8
0
1001
WEBCAD
1000
E7
 10
-67.15156246289088
 20
28.825903122276053
 30
1.6917243437466505
 11
-71.19655704869842
 21
26.699140732139334
 31
1.9335009494612105
 12
-67.15183838794768
 22
28.825903122276053
 32
1.6871707539082352
 13
-67.15183838794768
 23
28.825903122276053
 33
1.6871707539082352
  0
3DFACE
  8
0
1001
WEBCAD
1000
E7
 10
-63.73240891924999
 20
31.86062449678777
 30
1.4834919361078698
 11
-67.15156246289088
 21
28.825903122276053
 31
1.6917243437466505
 12
-67.15183838794768
 22
28.825903122276053
 32
1.6871707539082352
 13
-67.15183838794768
 23
28.825903122276053
 33
1.6871707539082352
  0
3DFACE
  8
0
1001
WEBCAD
1000
E7
 10
-63.73240891924999
 20
31.86062449678777
 30
1.4834919361078698
 11
-67.15183838794768
 21
28.825903122276053
 31
1.6871707539082352
 12
-63.7326848443068
 22
31.86062449678777
 32
1.4789383462694543
 13
-63.7326848443068
 23
31.86062449678777
 33
1.4789383462694543
  0
3DFACE
  8
0
1001
WEBCAD
1000
E7
 10
-61.13752281525067
 20
35.62693232759832
 30
1.3254588610236175
 11
-63.7326848443068
 21
31.86062449678777
 31
1.4789383462694543
 12
-61.137798740307474
 22
35.62693232759832
 32
1.3209052711852023
 13
-61.137798740307474
 23
35.62693232759832
 33
1.3209052711852023
  0
3DFACE
  8
0
1001
WEBCAD
1000
E7
 10
-61.13752281525067
 20
35.62693232759832
 30
1.3254588610236175
 11
-63.73240891924999
 21
31.86062449678777
 31
1.4834919361078698
 12
-63.7326848443068
 22
31.86062449678777
 32
1.4789383462694543
 13
-63.7326848443068
 23
31.86062449678777
 33
1.4789383462694543
  0
3DFACE
  8
0
1001
WEBCAD
1000
E7
 10
-59.51770703347776
 20
39.90594691500066
 30
1.2268092492828853
 11
-61.137798740307474
 21
35.62693232759832
 31
1.3209052711852023
 12
-59.517982956722065
 22
39.90594691500066
 32
1.2222557190215508
 13
-59.517982956722065
 23
39.90594691500066
 33
1.2222557190215508
  0
3DFACE
  8
0
1001
WEBCAD
1000
E7
 10
-59.51770703347776
 20
39.90594691500066
 30
1.2268092492828853
 11
-61.13752281525067
 21
35.62693232759832
 31
1.3254588610236175
 12
-61.137798740307474
 22
35.62693232759832
 32
1.3209052711852023
 13
-61.137798740307474
 23
35.62693232759832
 33
1.3209052711852023
  0
3DFACE
  8
0
1001
WEBCAD
1000
E7
 10
-58.96710337758187
 20
44.44898432955144
 30
1.1932765303343378
 11
-59.51770703347776
 21
39.90594691500066
 31
1.2268092492828853
 12
-59.517982956722065
 22
39.90594691500066
 32
1.2222557190215508
 13
-59.517982956722065
 23
39.90594691500066
 33
1.2222557190215508
  0
3DFACE
  8
0
1001
WEBCAD
1000
E7
 10
-58.96710337758187
 20
44.44898432955144
 30
1.1932765303343378
 11
-59.517982956722065
 21
39.90594691500066
 31
1.2222557190215508
 12
-58.96737930263868
 22
44.44898432955144
 32
1.1887229404959223
 13
-58.96737930263868
 23
44.44898432955144
 33
1.1887229404959223
  0
3DFACE
  8
0
1001
WEBCAD
1000
E7
 10
-88.67962689197049
 20
28.825903122276053
 30
2.9982501642460453
 11
-92.0987804356114
 21
31.860624496787764
 31
3.206482571884825
 12
-105.23334687612508
 22
22.171159927695967
 32
4.006400549290934
 13
-105.23334687612508
 23
22.171159927695967
 33
4.006400549290934
  0
3DFACE
  8
0
1001
WEBCAD
1000
E7
 10
-94.6936627257713
 20
35.62693232759831
 30
3.3645155607579613
 11
-105.23334687612508
 21
22.171159927695967
 31
4.006400549290934
 12
-92.0987804356114
 22
31.860624496787764
 32
3.206482571884825
 13
-92.0987804356114
 23
31.860624496787764
 33
3.206482571884825
  0
3DFACE
  8
0
1001
WEBCAD
1000
E7
 10
-84.63490823076664
 20
26.699140732139334
 30
2.75191998358734
 11
-88.67962689197049
 21
28.825903122276053
 31
2.9982501642460453
 12
-105.23334687612508
 22
22.171159927695967
 32
4.006400549290934
 13
-105.23334687612508
 23
22.171159927695967
 33
4.006400549290934
  0
3DFACE
  8
0
1001
WEBCAD
1000
E7
 10
-96.31348232319613
 20
39.905946915000655
 30
3.463165199132727
 11
-105.23334687612508
 21
22.171159927695967
 31
4.006400549290934
 12
-94.6936627257713
 22
35.62693232759831
 32
3.3645155607579613
 13
-94.6936627257713
 23
35.62693232759831
 33
3.3645155607579613
  0
3DFACE
  8
0
1001
WEBCAD
1000
E7
 10
-80.19970279579931
 20
25.60393733248113
 30
2.4818082420989906
 11
-84.63490823076664
 21
26.699140732139334
 31
2.75191998358734
 12
-105.23334687612508
 22
22.171159927695967
 32
4.006400549290934
 13
-105.23334687612508
 23
22.171159927695967
 33
4.006400549290934
  0
3DFACE
  8
0
1001
WEBCAD
1000
E7
 10
-96.86408597727952
 20
44.448984329551436
 30
3.4966979776583536
 11
-105.23334687612508
 21
22.171159927695967
 31
4.006400549290934
 12
-96.31348232319613
 22
39.905946915000655
 32
3.463165199132727
 13
-96.31348232319613
 23
39.905946915000655
 33
3.463165199132727
  0
3DFACE
  8
0
1001
WEBCAD
1000
E7
 10
-105.2333468761251
 20
66.59637660250065
 30
4.006400549290929
 11
-96.31348232319614
 21
48.99202555879948
 31
3.4631651991327255
 12
-94.69366272577132
 22
53.27104014620183
 32
3.364515560757959
 13
-94.69366272577132
 23
53.27104014620183
 33
3.364515560757959
  0
3DFACE
  8
0
1001
WEBCAD
1000
E7
 10
-105.2333468761251
 20
66.59637660250065
 30
4.006400549290929
 11
-96.86408597727952
 21
44.448984329551436
 31
3.4966979776583536
 12
-96.31348232319614
 22
48.99202555879948
 32
3.4631651991327255
 13
-96.31348232319614
 23
48.99202555879948
 33
3.4631651991327255
  0
3DFACE
  8
0
1001
WEBCAD
1000
E7
 10
-105.2333468761251
 20
66.59637660250065
 30
4.006400549290929
 11
-105.23334687612508
 21
22.171159927695967
 31
4.006400549290934
 12
-96.86408597727952
 22
44.448984329551436
 32
3.4966979776583536
 13
-96.86408597727952
 23
44.448984329551436
 33
3.4966979776583536
  0
3DFACE
  8
0
1001
WEBCAD
1000
E7
 10
-92.09878043561142
 20
57.037347977012374
 30
3.206482571884822
 11
-105.2333468761251
 21
66.59637660250065
 31
4.006400549290929
 12
-94.69366272577132
 22
53.27104014620183
 32
3.364515560757959
 13
-94.69366272577132
 23
53.27104014620183
 33
3.364515560757959
  0
3DFACE
  8
0
1001
WEBCAD
1000
E7
 10
-50.89746518759071
 20
22.171159927695975
 30
0.6972512098488167
 11
-75.63176248389232
 21
25.60393733248113
 31
2.2036126835024246
 12
-80.19970279579931
 22
25.60393733248113
 32
2.4818082420989906
 13
-80.19970279579931
 23
25.60393733248113
 33
2.4818082420989906
  0
3DFACE
  8
0
1001
WEBCAD
1000
E7
 10
-50.89746518759071
 20
22.171159927695975
 30
0.6972512098488167
 11
-71.19655704869842
 21
26.699140732139334
 31
1.9335009494612105
 12
-75.63176248389232
 22
25.60393733248113
 32
2.2036126835024246
 13
-75.63176248389232
 23
25.60393733248113
 33
2.2036126835024246
  0
3DFACE
  8
0
1001
WEBCAD
1000
E7
 10
-50.89746518759071
 20
22.171159927695975
 30
0.6972512098488167
 11
-67.15183838794768
 21
28.825903122276053
 31
1.6871707539082352
 12
-71.19655704869842
 22
26.699140732139334
 32
1.9335009494612105
 13
-71.19655704869842
 23
26.699140732139334
 33
1.9335009494612105
  0
3DFACE
  8
0
1001
WEBCAD
1000
E7
 10
-50.89746518759071
 20
22.171159927695975
 30
0.6972512098488167
 11
-63.7326848443068
 21
31.86062449678777
 31
1.4789383462694543
 12
-67.15183838794768
 22
28.825903122276053
 32
1.6871707539082352
 13
-67.15183838794768
 23
28.825903122276053
 33
1.6871707539082352
  0
3DFACE
  8
0
1001
WEBCAD
1000
E7
 10
-50.89746518759071
 20
22.171159927695975
 30
0.6972512098488167
 11
-80.19970279579931
 21
25.60393733248113
 31
2.4818082420989906
 12
-105.23334687612508
 22
22.171159927695967
 32
4.006400549290934
 13
-105.23334687612508
 23
22.171159927695967
 33
4.006400549290934
  0
3DFACE
  8
0
1001
WEBCAD
1000
E7
 10
-88.6796268919705
 20
60.07206935152409
 30
2.9982501642460413
 11
-105.2333468761251
 21
66.59637660250065
 31
4.006400549290929
 12
-92.09878043561142
 22
57.037347977012374
 32
3.206482571884822
 13
-92.09878043561142
 23
57.037347977012374
 33
3.206482571884822
  0
3DFACE
  8
0
1001
WEBCAD
1000
E7
 10
-61.137798740307474
 20
35.62693232759832
 30
1.3209052711852023
 11
-63.7326848443068
 21
31.86062449678777
 31
1.4789383462694543
 12
-50.89746518759071
 22
22.171159927695975
 32
0.6972512098488167
 13
-50.89746518759071
 23
22.171159927695975
 33
0.6972512098488167
  0
3DFACE
  8
0
1001
WEBCAD
1000
E7
 10
-84.63490823076665
 20
62.19883174166081
 30
2.751919983587336
 11
-105.2333468761251
 21
66.59637660250065
 31
4.006400549290929
 12
-88.6796268919705
 22
60.07206935152409
 32
2.9982501642460413
 13
-88.6796268919705
 23
60.07206935152409
 33
2.9982501642460413
  0
3DFACE
  8
0
1001
WEBCAD
1000
E7
 10
-59.517982956722065
 20
39.90594691500066
 30
1.2222557190215508
 11
-61.137798740307474
 21
35.62693232759832
 31
1.3209052711852023
 12
-50.89746518759071
 22
22.171159927695975
 32
0.6972512098488167
 13
-50.89746518759071
 23
22.171159927695975
 33
0.6972512098488167
  0
3DFACE
  8
0
1001
WEBCAD
1000
E7
 10
-80.19970279579933
 20
63.29403132662175
 30
2.481808242098986
 11
-105.2333468761251
 21
66.59637660250065
 31
4.006400549290929
 12
-84.63490823076665
 22
62.19883174166081
 32
2.751919983587336
 13
-84.63490823076665
 23
62.19883174166081
 33
2.751919983587336
  0
3DFACE
  8
0
1001
WEBCAD
1000
E7
 10
-58.96737930263868
 20
44.44898432955144
 30
1.1887229404959223
 11
-59.517982956722065
 21
39.90594691500066
 31
1.2222557190215508
 12
-50.89746518759071
 22
22.171159927695975
 32
0.6972512098488167
 13
-50.89746518759071
 23
22.171159927695975
 33
0.6972512098488167
  0
3DFACE
  8
0
1001
WEBCAD
1000
E7
 10
-50.89746518759071
 20
66.59637660250067
 30
0.6972512098488114
 11
-59.517982956722065
 21
48.99202555879949
 31
1.22225571902155
 12
-58.96737930263868
 22
44.44898432955144
 32
1.1887229404959223
 13
-58.96737930263868
 23
44.44898432955144
 33
1.1887229404959223
  0
3DFACE
  8
0
1001
WEBCAD
1000
E7
 10
-50.89746518759071
 20
66.59637660250067
 30
0.6972512098488114
 11
-61.137798740307474
 21
53.271040146201834
 31
1.3209052711852
 12
-59.517982956722065
 22
48.99202555879949
 32
1.22225571902155
 13
-59.517982956722065
 23
48.99202555879949
 33
1.22225571902155
  0
3DFACE
  8
0
1001
WEBCAD
1000
E7
 10
-50.89746518759071
 20
66.59637660250067
 30
0.6972512098488114
 11
-63.7326848443068
 21
57.037347977012374
 31
1.4789383462694512
 12
-61.137798740307474
 22
53.271040146201834
 32
1.3209052711852
 13
-61.137798740307474
 23
53.271040146201834
 33
1.3209052711852
  0
3DFACE
  8
0
1001
WEBCAD
1000
E7
 10
-50.89746518759071
 20
66.59637660250067
 30
0.6972512098488114
 11
-67.15183838794769
 21
60.07206935152409
 31
1.6871707539082312
 12
-63.7326848443068
 22
57.037347977012374
 32
1.4789383462694512
 13
-63.7326848443068
 23
57.037347977012374
 33
1.4789383462694512
  0
3DFACE
  8
0
1001
WEBCAD
1000
E7
 10
-50.89746518759071
 20
66.59637660250067
 30
0.6972512098488114
 11
-71.19655704869844
 21
62.19883174166081
 31
1.9335009494612065
 12
-67.15183838794769
 22
60.07206935152409
 32
1.6871707539082312
 13
-67.15183838794769
 23
60.07206935152409
 33
1.6871707539082312
  0
3DFACE
  8
0
1001
WEBCAD
1000
E7
 10
-50.89746518759071
 20
66.59637660250067
 30
0.6972512098488114
 11
-75.63176248389233
 21
63.29403132662175
 31
2.20361268350242
 12
-71.19655704869844
 22
62.19883174166081
 32
1.9335009494612065
 13
-71.19655704869844
 23
62.19883174166081
 33
1.9335009494612065
  0
3DFACE
  8
0
1001
WEBCAD
1000
E7
 10
-50.89746518759071
 20
66.59637660250067
 30
0.6972512098488114
 11
-58.96737930263868
 21
44.44898432955144
 31
1.1887229404959223
 12
-50.89746518759071
 22
22.171159927695975
 32
0.6972512098488167
 13
-50.89746518759071
 23
22.171159927695975
 33
0.6972512098488167
  0
3DFACE
  8
0
1001
WEBCAD
1000
E7
 10
-50.89746518759071
 20
66.59637660250067
 30
0.6972512098488114
 11
-105.2333468761251
 21
66.59637660250065
 31
4.006400549290929
 12
-80.19970279579933
 22
63.29403132662175
 32
2.481808242098986
 13
-80.19970279579933
 23
63.29403132662175
 33
2.481808242098986
  0
3DFACE
  8
0
1001
WEBCAD
1000
E7
 10
-50.89746518759071
 20
66.59637660250067
 30
0.6972512098488114
 11
-80.19970279579933
 21
63.29403132662175
 31
2.481808242098986
 12
-75.63176248389233
 22
63.29403132662175
 32
2.20361268350242
 13
-75.63176248389233
 23
63.29403132662175
 33
2.20361268350242
  0
3DFACE
  8
0
1001
WEBCAD
1000
E7
 10
-84.63463230616296
 20
26.699140732139334
 30
2.7564735585314852
 11
-92.09849688559451
 21
31.860624496787764
 31
3.21103589993539
 12
-88.67934334104736
 22
28.825903122276053
 32
3.0028035220851503
 13
-88.67934334104736
 23
28.825903122276053
 33
3.0028035220851503
  0
3DFACE
  8
0
1001
WEBCAD
1000
E7
 10
-75.63148655928862
 20
25.60393733248113
 30
2.2081662584465693
 11
-84.63463230616296
 21
26.699140732139334
 31
2.7564735585314852
 12
-80.19942687119563
 22
25.60393733248113
 32
2.486361817043136
 13
-80.19942687119563
 23
25.60393733248113
 33
2.486361817043136
  0
3DFACE
  8
0
1001
WEBCAD
1000
E7
 10
-96.31320639813933
 20
48.99202555879948
 30
3.4677187889711405
 11
-96.8638100522227
 21
44.448984329551436
 31
3.501251567496769
 12
-96.31320639813931
 22
39.905946915000655
 32
3.467718788971142
 13
-96.31320639813931
 23
39.905946915000655
 33
3.467718788971142
  0
3DFACE
  8
0
1001
WEBCAD
1000
E7
 10
-67.15156246289088
 20
28.825903122276053
 30
1.6917243437466505
 11
-75.63148655928862
 21
25.60393733248113
 31
2.2081662584465693
 12
-71.19627349822842
 22
26.699140732139334
 32
1.9380542924060449
 13
-71.19627349822842
 23
26.699140732139334
 33
1.9380542924060449
  0
3DFACE
  8
0
1001
WEBCAD
1000
E7
 10
-67.15156246289088
 20
28.825903122276053
 30
1.6917243437466505
 11
-92.09849688559451
 21
31.860624496787764
 31
3.21103589993539
 12
-84.63463230616296
 22
26.699140732139334
 32
2.7564735585314852
 13
-84.63463230616296
 23
26.699140732139334
 33
2.7564735585314852
  0
3DFACE
  8
0
1001
WEBCAD
1000
E7
 10
-67.15156246289088
 20
28.825903122276053
 30
1.6917243437466505
 11
-84.63463230616296
 21
26.699140732139334
 31
2.7564735585314852
 12
-75.63148655928862
 22
25.60393733248113
 32
2.2081662584465693
 13
-75.63148655928862
 23
25.60393733248113
 33
2.2081662584465693
  0
3DFACE
  8
0
1001
WEBCAD
1000
E7
 10
-61.13752281525067
 20
35.62693232759832
 30
1.3254588610236175
 11
-67.15156246289088
 21
28.825903122276053
 31
1.6917243437466505
 12
-63.73240891924999
 22
31.86062449678777
 32
1.4834919361078698
 13
-63.73240891924999
 23
31.86062449678777
 33
1.4834919361078698
  0
3DFACE
  8
0
1001
WEBCAD
1000
E7
 10
-84.63463230616297
 20
62.19883174166081
 30
2.7564735585314812
 11
-88.67934334104737
 21
60.07206935152409
 31
3.002803522085146
 12
-92.09849688559453
 22
57.037347977012374
 32
3.2110358999353865
 13
-92.09849688559453
 23
57.037347977012374
 33
3.2110358999353865
  0
3DFACE
  8
0
1001
WEBCAD
1000
E7
 10
-84.63463230616297
 20
62.19883174166081
 30
2.7564735585314812
 11
-92.09849688559453
 21
57.037347977012374
 31
3.2110358999353865
 12
-94.69338680162076
 22
53.27104014620183
 32
3.3690691208078345
 13
-94.69338680162076
 23
53.27104014620183
 33
3.3690691208078345
  0
3DFACE
  8
0
1001
WEBCAD
1000
E7
 10
-84.63463230616297
 20
62.19883174166081
 30
2.7564735585314812
 11
-94.69338680162076
 21
53.27104014620183
 31
3.3690691208078345
 12
-96.31320639813933
 22
48.99202555879948
 32
3.4677187889711405
 13
-96.31320639813933
 23
48.99202555879948
 33
3.4677187889711405
  0
3DFACE
  8
0
1001
WEBCAD
1000
E7
 10
-58.96710337758187
 20
44.44898432955144
 30
1.1932765303343378
 11
-94.69338680162075
 21
35.62693232759831
 31
3.3690691208078367
 12
-92.09849688559451
 22
31.860624496787764
 32
3.21103589993539
 13
-92.09849688559451
 23
31.860624496787764
 33
3.21103589993539
  0
3DFACE
  8
0
1001
WEBCAD
1000
E7
 10
-58.96710337758187
 20
44.44898432955144
 30
1.1932765303343378
 11
-61.13752281525067
 21
35.62693232759832
 31
1.3254588610236175
 12
-59.51770703347776
 22
39.90594691500066
 32
1.2268092492828853
 13
-59.51770703347776
 23
39.90594691500066
 33
1.2268092492828853
  0
3DFACE
  8
0
1001
WEBCAD
1000
E7
 10
-58.96710337758187
 20
44.44898432955144
 30
1.1932765303343378
 11
-92.09849688559451
 21
31.860624496787764
 31
3.21103589993539
 12
-67.15156246289088
 22
28.825903122276053
 32
1.6917243437466505
 13
-67.15156246289088
 23
28.825903122276053
 33
1.6917243437466505
  0
3DFACE
  8
0
1001
WEBCAD
1000
E7
 10
-58.96710337758187
 20
44.44898432955144
 30
1.1932765303343378
 11
-67.15156246289088
 21
28.825903122276053
 31
1.6917243437466505
 12
-61.13752281525067
 22
35.62693232759832
 32
1.3254588610236175
 13
-61.13752281525067
 23
35.62693232759832
 33
1.3254588610236175
  0
3DFACE
  8
0
1001
WEBCAD
1000
E7
 10
-75.63148655928863
 20
63.29403132662175
 30
2.208166258446565
 11
-80.19942687119564
 21
63.29403132662175
 31
2.4863618170431314
 12
-84.63463230616297
 22
62.19883174166081
 32
2.7564735585314812
 13
-84.63463230616297
 23
62.19883174166081
 33
2.7564735585314812
  0
3DFACE
  8
0
1001
WEBCAD
1000
E7
 10
-59.51770703347776
 20
48.99202555879949
 30
1.2268092492828844
 11
-96.31320639813931
 21
39.905946915000655
 31
3.467718788971142
 12
-94.69338680162075
 22
35.62693232759831
 32
3.3690691208078367
 13
-94.69338680162075
 23
35.62693232759831
 33
3.3690691208078367
  0
3DFACE
  8
0
1001
WEBCAD
1000
E7
 10
-59.51770703347776
 20
48.99202555879949
 30
1.2268092492828844
 11
-96.31320639813933
 21
48.99202555879948
 31
3.4677187889711405
 12
-96.31320639813931
 22
39.905946915000655
 32
3.467718788971142
 13
-96.31320639813931
 23
39.905946915000655
 33
3.467718788971142
  0
3DFACE
  8
0
1001
WEBCAD
1000
E7
 10
-59.51770703347776
 20
48.99202555879949
 30
1.2268092492828844
 11
-94.69338680162075
 21
35.62693232759831
 31
3.3690691208078367
 12
-58.96710337758187
 22
44.44898432955144
 32
1.1932765303343378
 13
-58.96710337758187
 23
44.44898432955144
 33
1.1932765303343378
  0
3DFACE
  8
0
1001
WEBCAD
1000
E7
 10
-59.51770703347776
 20
48.99202555879949
 30
1.2268092492828844
 11
-84.63463230616297
 21
62.19883174166081
 31
2.7564735585314812
 12
-96.31320639813933
 22
48.99202555879948
 32
3.4677187889711405
 13
-96.31320639813933
 23
48.99202555879948
 33
3.4677187889711405
  0
3DFACE
  8
0
1001
WEBCAD
1000
E7
 10
-71.19627349822844
 20
62.19883174166081
 30
1.9380542924060409
 11
-75.63148655928863
 21
63.29403132662175
 31
2.208166258446565
 12
-84.63463230616297
 22
62.19883174166081
 32
2.7564735585314812
 13
-84.63463230616297
 23
62.19883174166081
 33
2.7564735585314812
  0
3DFACE
  8
0
1001
WEBCAD
1000
E7
 10
-63.73240891924999
 20
57.037347977012374
 30
1.4834919361078667
 11
-59.51770703347776
 21
48.99202555879949
 31
1.2268092492828844
 12
-61.13752281525067
 22
53.271040146201834
 32
1.3254588610236153
 13
-61.13752281525067
 23
53.271040146201834
 33
1.3254588610236153
  0
3DFACE
  8
0
1001
WEBCAD
1000
E7
 10
-63.73240891924999
 20
57.037347977012374
 30
1.4834919361078667
 11
-67.1515624628909
 21
60.07206935152409
 31
1.6917243437466465
 12
-71.19627349822844
 22
62.19883174166081
 32
1.9380542924060409
 13
-71.19627349822844
 23
62.19883174166081
 33
1.9380542924060409
  0
3DFACE
  8
0
1001
WEBCAD
1000
E7
 10
-63.73240891924999
 20
57.037347977012374
 30
1.4834919361078667
 11
-84.63463230616297
 21
62.19883174166081
 31
2.7564735585314812
 12
-59.51770703347776
 22
48.99202555879949
 32
1.2268092492828844
 13
-59.51770703347776
 23
48.99202555879949
 33
1.2268092492828844
  0
3DFACE
  8
0
1001
WEBCAD
1000
E7
 10
-63.73240891924999
 20
57.037347977012374
 30
1.4834919361078667
 11
-71.19627349822844
 21
62.19883174166081
 31
1.9380542924060409
 12
-84.63463230616297
 22
62.19883174166081
 32
2.7564735585314812
 13
-84.63463230616297
 23
62.19883174166081
 33
2.7564735585314812
  0
3DFACE
  8
0
1001
WEBCAD
1000
E7
 10
-105.23334687612508
 20
22.171159927695967
 30
4.006400549290934
 11
-111.31225880698251
 21
66.59637660250064
 31
-95.80866320179848
 12
-111.3122588069825
 22
22.171159927695953
 32
-95.80866320179848
 13
-111.3122588069825
 23
22.171159927695953
 33
-95.80866320179848
  0
3DFACE
  8
0
1001
WEBCAD
1000
E7
 10
-105.23334687612508
 20
22.171159927695967
 30
4.006400549290934
 11
-105.2333468761251
 21
66.59637660250065
 31
4.006400549290929
 12
-111.31225880698251
 22
66.59637660250064
 32
-95.80866320179848
 13
-111.31225880698251
 23
66.59637660250064
 33
-95.80866320179848
  0
3DFACE
  8
0
1001
WEBCAD
1000
E7
 10
-92.70330065056379
 20
66.59637660250064
 30
-94.87071461605049
 11
-93.07954391879294
 21
66.59637660250064
 31
-96.91906635774319
 12
-111.31225880698251
 22
66.59637660250064
 32
-95.80866320179848
 13
-111.31225880698251
 23
66.59637660250064
 33
-95.80866320179848
  0
3DFACE
  8
0
1001
WEBCAD
1000
E7
 10
-91.84778712715438
 20
66.59637660250064
 30
-92.97193182864378
 11
-92.70330065056379
 21
66.59637660250064
 31
-94.87071461605049
 12
-111.31225880698251
 22
66.59637660250064
 32
-95.80866320179848
 13
-111.31225880698251
 23
66.59637660250064
 33
-95.80866320179848
  0
3DFACE
  8
0
1001
WEBCAD
1000
E7
 10
-90.56272257852994
 20
66.59637660250064
 30
-91.333058276863
 11
-91.84778712715438
 21
66.59637660250064
 31
-92.97193182864378
 12
-111.31225880698251
 22
66.59637660250064
 32
-95.80866320179848
 13
-111.31225880698251
 23
66.59637660250064
 33
-95.80866320179848
  0
3DFACE
  8
0
1001
WEBCAD
1000
E7
 10
-88.92279230068489
 20
66.59637660250064
 30
-90.04934007538306
 11
-90.56272257852994
 21
66.59637660250064
 31
-91.333058276863
 12
-111.31225880698251
 22
66.59637660250064
 32
-95.80866320179848
 13
-111.31225880698251
 23
66.59637660250064
 33
-95.80866320179848
  0
3DFACE
  8
0
1001
WEBCAD
1000
E7
 10
-56.97637717644796
 20
66.59637660250065
 30
-99.11781444770718
 11
-77.65396999919632
 21
66.59637660250064
 31
-92.11922387836069
 12
-79.12599538014175
 22
66.59637660250064
 32
-90.64598491952178
 13
-79.12599538014175
 23
66.59637660250064
 33
-90.64598491952178
  0
3DFACE
  8
0
1001
WEBCAD
1000
E7
 10
-56.97637717644796
 20
66.59637660250065
 30
-99.11781444770718
 11
-76.57728785655712
 21
66.59637660250064
 31
-93.90193420974215
 12
-77.65396999919632
 22
66.59637660250064
 32
-92.11922387836069
 13
-77.65396999919632
 23
66.59637660250064
 33
-92.11922387836069
  0
3DFACE
  8
0
1001
WEBCAD
1000
E7
 10
-56.97637717644796
 20
66.59637660250065
 30
-99.11781444770718
 11
-75.95851627048458
 21
66.59637660250064
 31
-95.89050373079861
 12
-76.57728785655712
 22
66.59637660250064
 32
-93.90193420974215
 13
-76.57728785655712
 23
66.59637660250064
 33
-93.90193420974215
  0
3DFACE
  8
0
1001
WEBCAD
1000
E7
 10
-56.97637717644796
 20
66.59637660250065
 30
-99.11781444770718
 11
-75.83362478582616
 21
66.59637660250064
 31
-97.96937481766084
 12
-75.95851627048458
 22
66.59637660250064
 32
-95.89050373079861
 13
-75.95851627048458
 23
66.59637660250064
 33
-95.89050373079861
  0
3DFACE
  8
0
1001
WEBCAD
1000
E7
 10
-105.2333468761251
 20
66.59637660250065
 30
4.006400549290929
 11
-87.0233039312744
 21
66.59637660250064
 31
-89.19539005715596
 12
-88.92279230068489
 22
66.59637660250064
 32
-90.04934007538306
 13
-88.92279230068489
 23
66.59637660250064
 33
-90.04934007538306
  0
3DFACE
  8
0
1001
WEBCAD
1000
E7
 10
-105.2333468761251
 20
66.59637660250065
 30
4.006400549290929
 11
-84.97464313479755
 21
66.59637660250064
 31
-88.82083012219016
 12
-87.0233039312744
 22
66.59637660250064
 32
-89.19539005715596
 13
-87.0233039312744
 23
66.59637660250064
 33
-89.19539005715596
  0
3DFACE
  8
0
1001
WEBCAD
1000
E7
 10
-105.2333468761251
 20
66.59637660250065
 30
4.006400549290929
 11
-82.8958818372873
 21
66.59637660250064
 31
-88.94743252245047
 12
-84.97464313479755
 22
66.59637660250064
 32
-88.82083012219016
 13
-84.97464313479755
 23
66.59637660250064
 33
-88.82083012219016
  0
3DFACE
  8
0
1001
WEBCAD
1000
E7
 10
-105.2333468761251
 20
66.59637660250065
 30
4.006400549290929
 11
-88.92279230068489
 21
66.59637660250064
 31
-90.04934007538306
 12
-111.31225880698251
 22
66.59637660250064
 32
-95.80866320179848
 13
-111.31225880698251
 23
66.59637660250064
 33
-95.80866320179848
  0
3DFACE
  8
0
1001
WEBCAD
1000
E7
 10
-50.89746518759071
 20
66.59637660250067
 30
0.6972512098488114
 11
-80.9078160936872
 21
66.59637660250064
 31
-89.56783561543251
 12
-82.8958818372873
 22
66.59637660250064
 32
-88.94743252245047
 13
-82.8958818372873
 23
66.59637660250064
 33
-88.94743252245047
  0
3DFACE
  8
0
1001
WEBCAD
1000
E7
 10
-50.89746518759071
 20
66.59637660250067
 30
0.6972512098488114
 11
-79.12599538014175
 21
66.59637660250064
 31
-90.64598491952178
 12
-80.9078160936872
 22
66.59637660250064
 32
-89.56783561543251
 13
-80.9078160936872
 23
66.59637660250064
 33
-89.56783561543251
  0
3DFACE
  8
0
1001
WEBCAD
1000
E7
 10
-50.89746518759071
 20
66.59637660250067
 30
0.6972512098488114
 11
-82.8958818372873
 21
66.59637660250064
 31
-88.94743252245047
 12
-105.2333468761251
 22
66.59637660250065
 32
4.006400549290929
 13
-105.2333468761251
 23
66.59637660250065
 33
4.006400549290929
  0
3DFACE
  8
0
1001
WEBCAD
1000
E7
 10
-50.89746518759071
 20
66.59637660250067
 30
0.6972512098488114
 11
-56.97637717644796
 21
66.59637660250065
 31
-99.11781444770718
 12
-79.12599538014175
 22
66.59637660250064
 32
-90.64598491952178
 13
-79.12599538014175
 23
66.59637660250064
 33
-90.64598491952178
  0
3DFACE
  8
0
1001
WEBCAD
1000
E7
 10
-50.89746518759071
 20
22.171159927695975
 30
0.6972512098488167
 11
-111.3122588069825
 21
22.171159927695953
 31
-95.80866320179848
 12
-56.97637717644796
 22
22.17115992769596
 32
-99.11781444770718
 13
-56.97637717644796
 23
22.17115992769596
 33
-99.11781444770718
  0
3DFACE
  8
0
1001
WEBCAD
1000
E7
 10
-50.89746518759071
 20
22.171159927695975
 30
0.6972512098488167
 11
-105.23334687612508
 21
22.171159927695967
 31
4.006400549290934
 12
-111.3122588069825
 22
22.171159927695953
 32
-95.80866320179848
 13
-111.3122588069825
 23
22.171159927695953
 33
-95.80866320179848
  0
3DFACE
  8
0
1001
WEBCAD
1000
E7
 10
-50.89746518759071
 20
22.171159927695975
 30
0.6972512098488167
 11
-56.97637717644796
 21
22.17115992769596
 31
-99.11781444770718
 12
-56.97637717644796
 22
66.59637660250065
 32
-99.11781444770718
 13
-56.97637717644796
 23
66.59637660250065
 33
-99.11781444770718
  0
3DFACE
  8
0
1001
WEBCAD
1000
E7
 10
-50.89746518759071
 20
22.171159927695975
 30
0.6972512098488167
 11
-56.97637717644796
 21
66.59637660250065
 31
-99.11781444770718
 12
-50.89746518759071
 22
66.59637660250067
 32
0.6972512098488114
 13
-50.89746518759071
 23
66.59637660250067
 33
0.6972512098488114
  0
3DFACE
  8
0
1001
WEBCAD
1000
E7
 10
-97.28903452417086
 20
26.193140213340484
 30
-96.6627005355958
 11
-111.3122588069825
 21
22.171159927695953
 31
-95.80866320179848
 12
-101.45455708685581
 22
29.803022568076813
 32
-96.40901573394304
 13
-101.45455708685581
 23
29.803022568076813
 33
-96.40901573394304
  0
3DFACE
  8
0
1001
WEBCAD
1000
E7
 10
-104.6423426974053
 20
34.30275172457095
 30
-96.21487524994933
 11
-101.45455708685581
 21
29.803022568076813
 31
-96.40901573394304
 12
-111.3122588069825
 22
22.171159927695953
 32
-95.80866320179848
 13
-111.3122588069825
 23
22.171159927695953
 33
-95.80866320179848
  0
3DFACE
  8
0
1001
WEBCAD
1000
E7
 10
-92.38537146225303
 20
23.680753891319007
 30
-96.96134341238161
 11
-111.3122588069825
 21
22.171159927695953
 31
-95.80866320179848
 12
-97.28903452417086
 22
26.193140213340484
 32
-96.6627005355958
 13
-97.28903452417086
 23
26.193140213340484
 33
-96.6627005355958
  0
3DFACE
  8
0
1001
WEBCAD
1000
E7
 10
-106.66900657682984
 20
39.43350047335025
 30
-96.09144544117044
 11
-104.6423426974053
 21
34.30275172457095
 31
-96.21487524994933
 12
-111.3122588069825
 22
22.171159927695953
 32
-95.80866320179848
 13
-111.3122588069825
 23
22.171159927695953
 33
-95.80866320179848
  0
3DFACE
  8
0
1001
WEBCAD
1000
E7
 10
-87.02563126102808
 20
22.41037577852604
 30
-97.28776093447561
 11
-111.3122588069825
 21
22.171159927695953
 31
-95.80866320179848
 12
-92.38537146225303
 22
23.680753891319007
 32
-96.96134341238161
 13
-92.38537146225303
 23
23.680753891319007
 33
-96.96134341238161
  0
3DFACE
  8
0
1001
WEBCAD
1000
E7
 10
-107.41799633374166
 20
44.900137131065094
 30
-96.04582908676714
 11
-106.66900657682984
 21
39.43350047335025
 31
-96.09144544117044
 12
-111.3122588069825
 22
22.171159927695953
 32
-95.80866320179848
 13
-111.3122588069825
 23
22.171159927695953
 33
-95.80866320179848
  0
3DFACE
  8
0
1001
WEBCAD
1000
E7
 10
-111.31225880698251
 20
66.59637660250064
 30
-95.80866320179848
 11
-104.98653746139667
 21
55.582063858360016
 31
-96.19390865089805
 12
-106.84620472034544
 22
50.38822001680728
 32
-96.08065048784668
 13
-106.84620472034544
 23
50.38822001680728
 33
-96.08065048784668
  0
3DFACE
  8
0
1001
WEBCAD
1000
E7
 10
-111.31225880698251
 20
66.59637660250064
 30
-95.80866320179848
 11
-106.84620472034544
 21
50.38822001680728
 31
-96.08065048784668
 12
-107.41799633374166
 22
44.900137131065094
 32
-96.04582908676714
 13
-107.41799633374166
 23
44.900137131065094
 33
-96.04582908676714
  0
3DFACE
  8
0
1001
WEBCAD
1000
E7
 10
-111.31225880698251
 20
66.59637660250064
 30
-95.80866320179848
 11
-107.41799633374166
 21
44.900137131065094
 31
-96.04582908676714
 12
-111.3122588069825
 22
22.171159927695953
 32
-95.80866320179848
 13
-111.3122588069825
 23
22.171159927695953
 33
-95.80866320179848
  0
3DFACE
  8
0
1001
WEBCAD
1000
E7
 10
-101.94596242441797
 20
60.18291682466861
 30
-96.37908243481348
 11
-104.98653746139667
 21
55.582063858360016
 31
-96.19390865089805
 12
-111.31225880698251
 22
66.59637660250064
 32
-95.80866320179848
 13
-111.31225880698251
 23
66.59637660250064
 33
-95.80866320179848
  0
3DFACE
  8
0
1001
WEBCAD
1000
E7
 10
-56.97637717644796
 20
22.17115992769596
 30
-99.11781444770718
 11
-81.51811663612281
 21
22.455084030479163
 31
-97.62317757632951
 12
-76.1796328820081
 22
23.81229991182682
 32
-97.94829962170937
 13
-76.1796328820081
 23
23.81229991182682
 33
-97.94829962170937
  0
3DFACE
  8
0
1001
WEBCAD
1000
E7
 10
-56.97637717644796
 20
22.17115992769596
 30
-99.11781444770718
 11
-76.1796328820081
 21
23.81229991182682
 31
-97.94829962170937
 12
-71.317240858096
 22
26.403959457725257
 32
-98.24442749028609
 13
-71.317240858096
 23
26.403959457725257
 33
-98.24442749028609
  0
3DFACE
  8
0
1001
WEBCAD
1000
E7
 10
-56.97637717644796
 20
22.17115992769596
 30
-99.11781444770718
 11
-71.317240858096
 21
26.403959457725257
 31
-98.24442749028609
 12
-67.21064985161044
 22
30.080988113731117
 32
-98.49452569868511
 13
-67.21064985161044
 23
30.080988113731117
 33
-98.49452569868511
  0
3DFACE
  8
0
1001
WEBCAD
1000
E7
 10
-97.89937729328663
 20
63.926119034141266
 30
-96.62553083459063
 11
-101.94596242441797
 21
60.18291682466861
 31
-96.37908243481348
 12
-111.31225880698251
 22
66.59637660250064
 32
-95.80866320179848
 13
-111.31225880698251
 23
66.59637660250064
 33
-95.80866320179848
  0
3DFACE
  8
0
1001
WEBCAD
1000
E7
 10
-64.09606200799651
 20
34.63187236055729
 30
-98.68421049633545
 11
-56.97637717644796
 21
22.17115992769596
 31
-99.11781444770718
 12
-67.21064985161044
 22
30.080988113731117
 32
-98.49452569868511
 13
-67.21064985161044
 23
30.080988113731117
 33
-98.49452569868511
  0
3DFACE
  8
0
1001
WEBCAD
1000
E7
 10
-93.07954391879294
 20
66.59637660250064
 30
-96.91906635774319
 11
-97.89937729328663
 21
63.926119034141266
 31
-96.62553083459063
 12
-111.31225880698251
 22
66.59637660250064
 32
-95.80866320179848
 13
-111.31225880698251
 23
66.59637660250064
 33
-95.80866320179848
  0
3DFACE
  8
0
1001
WEBCAD
1000
E7
 10
-62.15263727535439
 20
39.794847671836585
 30
-98.8025661831603
 11
-56.97637717644796
 21
22.17115992769596
 31
-99.11781444770718
 12
-64.09606200799651
 22
34.63187236055729
 32
-98.68421049633545
 13
-64.09606200799651
 23
34.63187236055729
 33
-98.68421049633545
  0
3DFACE
  8
0
1001
WEBCAD
1000
E7
 10
-61.49216675060324
 20
45.27292460665104
 30
-98.84279512276079
 11
-56.97637717644796
 21
22.17115992769596
 31
-99.11781444770718
 12
-62.15263727535439
 22
39.794847671836585
 32
-98.8025661831603
 13
-62.15263727535439
 23
39.794847671836585
 33
-98.8025661831603
  0
3DFACE
  8
0
1001
WEBCAD
1000
E7
 10
-56.97637717644796
 20
66.59637660250065
 30
-99.11781444770718
 11
-61.49216675060324
 21
45.27292460665104
 31
-98.84279512276079
 12
-62.13503418315749
 22
50.67856044039127
 32
-98.80364365407648
 13
-62.13503418315749
 23
50.67856044039127
 33
-98.80364365407648
  0
3DFACE
  8
0
1001
WEBCAD
1000
E7
 10
-56.97637717644796
 20
66.59637660250065
 30
-99.11781444770718
 11
-62.13503418315749
 21
50.67856044039127
 31
-98.80364365407648
 12
-64.0276450641941
 22
55.78154200777408
 32
-98.68837571165123
 13
-64.0276450641941
 23
55.78154200777408
 33
-98.68837571165123
  0
3DFACE
  8
0
1001
WEBCAD
1000
E7
 10
-56.97637717644796
 20
66.59637660250065
 30
-99.11781444770718
 11
-64.0276450641941
 21
55.78154200777408
 31
-98.68837571165123
 12
-67.06403363161455
 22
60.296167557090484
 32
-98.50345905108449
 13
-67.06403363161455
 23
60.296167557090484
 33
-98.50345905108449
  0
3DFACE
  8
0
1001
WEBCAD
1000
E7
 10
-56.97637717644796
 20
66.59637660250065
 30
-99.11781444770718
 11
-67.06403363161455
 21
60.296167557090484
 31
-98.50345905108449
 12
-71.07420861946972
 22
63.96966761812564
 32
-98.25923275249609
 13
-71.07420861946972
 23
63.96966761812564
 33
-98.25923275249609
  0
3DFACE
  8
0
1001
WEBCAD
1000
E7
 10
-56.97637717644796
 20
66.59637660250065
 30
-99.11781444770718
 11
-71.07420861946972
 21
63.96966761812564
 31
-98.25923275249609
 12
-75.83362478582616
 22
66.59637660250064
 32
-97.96937481766084
 13
-75.83362478582616
 23
66.59637660250064
 33
-97.96937481766084
  0
3DFACE
  8
0
1001
WEBCAD
1000
E7
 10
-56.97637717644796
 20
66.59637660250065
 30
-99.11781444770718
 11
-56.97637717644796
 21
22.17115992769596
 31
-99.11781444770718
 12
-61.49216675060324
 22
45.27292460665104
 32
-98.84279512276079
 13
-61.49216675060324
 23
45.27292460665104
 33
-98.84279512276079
  0
3DFACE
  8
0
1001
WEBCAD
1000
E7
 10
-111.3122588069825
 20
22.171159927695953
 30
-95.80866320179848
 11
-87.02563126102808
 21
22.41037577852604
 31
-97.28776093447561
 12
-56.97637717644796
 22
22.17115992769596
 32
-99.11781444770718
 13
-56.97637717644796
 23
22.17115992769596
 33
-99.11781444770718
  0
3DFACE
  8
0
1001
WEBCAD
1000
E7
 10
-87.02563126102808
 20
22.41037577852604
 30
-97.28776093447561
 11
-81.51811663612281
 21
22.455084030479163
 31
-97.62317757632951
 12
-56.97637717644796
 22
22.17115992769596
 32
-99.11781444770718
 13
-56.97637717644796
 23
22.17115992769596
 33
-99.11781444770718
  0
3DFACE
  8
0
1001
WEBCAD
1000
E7
 10
-62.13503418315749
 20
50.67856044039127
 30
-98.80364365407648
 11
-61.49216675060324
 21
45.27292460665104
 31
-98.84279512276079
 12
-61.63663171614189
 22
45.27292460665104
 32
-94.51673756175748
 13
-61.63663171614189
 23
45.27292460665104
 33
-94.51673756175748
  0
3DFACE
  8
0
1001
WEBCAD
1000
E7
 10
-75.95851627048458
 20
66.59637660250064
 30
-95.89050373079861
 11
-75.83362478582616
 21
66.59637660250064
 31
-97.96937481766084
 12
-71.07420861946972
 22
63.96966761812564
 32
-98.25923275249609
 13
-71.07420861946972
 23
63.96966761812564
 33
-98.25923275249609
  0
3DFACE
  8
0
1001
WEBCAD
1000
E7
 10
-80.3122413204885
 20
63.2194387362897
 30
-83.65771412748276
 11
-82.8958818372873
 21
66.59637660250064
 31
-88.94743252245047
 12
-80.9078160936872
 22
66.59637660250064
 32
-89.56783561543251
 13
-80.9078160936872
 23
66.59637660250064
 33
-89.56783561543251
  0
3DFACE
  8
0
1001
WEBCAD
1000
E7
 10
-97.89937729328663
 20
63.926119034141266
 30
-96.62553083459063
 11
-93.07954391879294
 21
66.59637660250064
 31
-96.91906635774319
 12
-92.70330065056379
 22
66.59637660250064
 32
-94.87071461605049
 13
-92.70330065056379
 23
66.59637660250064
 33
-94.87071461605049
  0
3DFACE
  8
0
1001
WEBCAD
1000
E7
 10
-84.6529881379235
 20
63.3713170932233
 30
-83.2410404811266
 11
-82.8958818372873
 21
66.59637660250064
 31
-88.94743252245047
 12
-80.3122413204885
 22
63.2194387362897
 32
-83.65771412748276
 13
-80.3122413204885
 23
63.2194387362897
 33
-83.65771412748276
  0
3DFACE
  8
0
1001
WEBCAD
1000
E7
 10
-84.6529881379235
 20
63.3713170932233
 30
-83.2410404811266
 11
-87.0233039312744
 21
66.59637660250064
 31
-89.19539005715596
 12
-84.97464313479755
 22
66.59637660250064
 32
-88.82083012219016
 13
-84.97464313479755
 23
66.59637660250064
 33
-88.82083012219016
  0
3DFACE
  8
0
1001
WEBCAD
1000
E7
 10
-84.6529881379235
 20
63.3713170932233
 30
-83.2410404811266
 11
-84.97464313479755
 21
66.59637660250064
 31
-88.82083012219016
 12
-82.8958818372873
 22
66.59637660250064
 32
-88.94743252245047
 13
-82.8958818372873
 23
66.59637660250064
 33
-88.94743252245047
  0
3DFACE
  8
0
1001
WEBCAD
1000
E7
 10
-88.9204693659877
 20
62.523706619590484
 30
-82.89069706938224
 11
-87.0233039312744
 21
66.59637660250064
 31
-89.19539005715596
 12
-84.6529881379235
 22
63.3713170932233
 32
-83.2410404811266
 13
-84.6529881379235
 23
63.3713170932233
 33
-83.2410404811266
  0
3DFACE
  8
0
1001
WEBCAD
1000
E7
 10
-61.63663171614189
 20
45.27292460665104
 30
-94.51673756175748
 11
-61.49216675060324
 21
45.27292460665104
 31
-98.84279512276079
 12
-62.15263727535439
 22
39.794847671836585
 32
-98.8025661831603
 13
-62.15263727535439
 23
39.794847671836585
 33
-98.8025661831603
  0
3DFACE
  8
0
1001
WEBCAD
1000
E7
 10
-64.30057541757594
 20
44.44898432955143
 30
-86.38180546820976
 11
-62.58882019587118
 21
45.27292460665104
 31
-90.29429421652071
 12
-64.4720328112336
 22
41.974535171836585
 32
-86.53281233739168
 13
-64.4720328112336
 23
41.974535171836585
 33
-86.53281233739168
  0
3DFACE
  8
0
1001
WEBCAD
1000
E7
 10
-64.31503470915219
 20
45.27292460665104
 30
-86.32493536791851
 11
-62.58882019587118
 21
45.27292460665104
 31
-90.29429421652071
 12
-64.30057541757594
 22
44.44898432955143
 32
-86.38180546820976
 13
-64.30057541757594
 23
44.44898432955143
 33
-86.38180546820976
  0
3DFACE
  8
0
1001
WEBCAD
1000
E7
 10
-62.63725424493082
 20
49.04620951876041
 30
-91.19925339030874
 11
-64.31503470915219
 21
45.27292460665104
 31
-86.32493536791851
 12
-64.9793945197984
 22
49.564684097617835
 32
-85.97511118730222
 13
-64.9793945197984
 23
49.564684097617835
 33
-85.97511118730222
  0
3DFACE
  8
0
1001
WEBCAD
1000
E7
 10
-62.63725424493082
 20
49.04620951876041
 30
-91.19925339030874
 11
-61.63663171614189
 21
45.27292460665104
 31
-94.51673756175748
 12
-62.58882019587118
 22
45.27292460665104
 32
-90.29429421652071
 13
-62.58882019587118
 23
45.27292460665104
 33
-90.29429421652071
  0
3DFACE
  8
0
1001
WEBCAD
1000
E7
 10
-62.63725424493082
 20
49.04620951876041
 30
-91.19925339030874
 11
-62.58882019587118
 21
45.27292460665104
 31
-90.29429421652071
 12
-64.31503470915219
 22
45.27292460665104
 32
-86.32493536791851
 13
-64.31503470915219
 23
45.27292460665104
 33
-86.32493536791851
  0
3DFACE
  8
0
1001
WEBCAD
1000
E7
 10
-62.63725424493082
 20
49.04620951876041
 30
-91.19925339030874
 11
-62.13503418315749
 21
50.67856044039127
 31
-98.80364365407648
 12
-61.63663171614189
 22
45.27292460665104
 32
-94.51673756175748
 13
-61.63663171614189
 23
45.27292460665104
 33
-94.51673756175748
  0
3DFACE
  8
0
1001
WEBCAD
1000
E7
 10
-65.21355817934524
 20
56.137666885703766
 30
-91.04235542054876
 11
-64.9793945197984
 21
49.564684097617835
 31
-85.97511118730222
 12
-66.59872456666433
 22
53.58684748873112
 32
-85.55741319699509
 13
-66.59872456666433
 23
53.58684748873112
 33
-85.55741319699509
  0
3DFACE
  8
0
1001
WEBCAD
1000
E7
 10
-65.21355817934524
 20
56.137666885703766
 30
-91.04235542054876
 11
-66.59872456666433
 21
53.58684748873112
 31
-85.55741319699509
 12
-69.08902556765422
 22
57.13127345308658
 32
-85.09357841942898
 13
-69.08902556765422
 23
57.13127345308658
 33
-85.09357841942898
  0
3DFACE
  8
0
1001
WEBCAD
1000
E7
 10
-65.21355817934524
 20
56.137666885703766
 30
-91.04235542054876
 11
-62.13503418315749
 21
50.67856044039127
 31
-98.80364365407648
 12
-62.63725424493082
 22
49.04620951876041
 32
-91.19925339030874
 13
-62.63725424493082
 23
49.04620951876041
 33
-91.19925339030874
  0
3DFACE
  8
0
1001
WEBCAD
1000
E7
 10
-65.21355817934524
 20
56.137666885703766
 30
-91.04235542054876
 11
-64.0276450641941
 21
55.78154200777408
 31
-98.68837571165123
 12
-62.13503418315749
 22
50.67856044039127
 32
-98.80364365407648
 13
-62.13503418315749
 23
50.67856044039127
 33
-98.80364365407648
  0
3DFACE
  8
0
1001
WEBCAD
1000
E7
 10
-65.21355817934524
 20
56.137666885703766
 30
-91.04235542054876
 11
-67.06403363161455
 21
60.296167557090484
 31
-98.50345905108449
 12
-64.0276450641941
 22
55.78154200777408
 32
-98.68837571165123
 13
-64.0276450641941
 23
55.78154200777408
 33
-98.68837571165123
  0
3DFACE
  8
0
1001
WEBCAD
1000
E7
 10
-65.21355817934524
 20
56.137666885703766
 30
-91.04235542054876
 11
-62.63725424493082
 21
49.04620951876041
 31
-91.19925339030874
 12
-64.9793945197984
 22
49.564684097617835
 32
-85.97511118730222
 13
-64.9793945197984
 23
49.564684097617835
 33
-85.97511118730222
  0
3DFACE
  8
0
1001
WEBCAD
1000
E7
 10
-70.05542895624973
 20
61.918672745078766
 30
-90.74747776315374
 11
-69.08902556765422
 21
57.13127345308658
 31
-85.09357841942898
 12
-72.32119216934693
 22
60.01239985689517
 32
-84.6067466564229
 13
-72.32119216934693
 23
60.01239985689517
 33
-84.6067466564229
  0
3DFACE
  8
0
1001
WEBCAD
1000
E7
 10
-70.05542895624973
 20
61.918672745078766
 30
-90.74747776315374
 11
-72.32119216934693
 21
60.01239985689517
 31
-84.6067466564229
 12
-76.12832258248075
 22
62.07874507173892
 32
-84.12036795708504
 13
-76.12832258248075
 23
62.07874507173892
 33
-84.12036795708504
  0
3DFACE
  8
0
1001
WEBCAD
1000
E7
 10
-70.05542895624973
 20
61.918672745078766
 30
-90.74747776315374
 11
-71.07420861946972
 21
63.96966761812564
 31
-98.25923275249609
 12
-67.06403363161455
 22
60.296167557090484
 32
-98.50345905108449
 13
-67.06403363161455
 23
60.296167557090484
 33
-98.50345905108449
  0
3DFACE
  8
0
1001
WEBCAD
1000
E7
 10
-70.05542895624973
 20
61.918672745078766
 30
-90.74747776315374
 11
-65.21355817934524
 21
56.137666885703766
 31
-91.04235542054876
 12
-69.08902556765422
 22
57.13127345308658
 32
-85.09357841942898
 13
-69.08902556765422
 23
57.13127345308658
 33
-85.09357841942898
  0
3DFACE
  8
0
1001
WEBCAD
1000
E7
 10
-70.05542895624973
 20
61.918672745078766
 30
-90.74747776315374
 11
-76.57728785655712
 21
66.59637660250064
 31
-93.90193420974215
 12
-75.95851627048458
 22
66.59637660250064
 32
-95.89050373079861
 13
-75.95851627048458
 23
66.59637660250064
 33
-95.89050373079861
  0
3DFACE
  8
0
1001
WEBCAD
1000
E7
 10
-70.05542895624973
 20
61.918672745078766
 30
-90.74747776315374
 11
-67.06403363161455
 21
60.296167557090484
 31
-98.50345905108449
 12
-65.21355817934524
 22
56.137666885703766
 32
-91.04235542054876
 13
-65.21355817934524
 23
56.137666885703766
 33
-91.04235542054876
  0
3DFACE
  8
0
1001
WEBCAD
1000
E7
 10
-70.05542895624973
 20
61.918672745078766
 30
-90.74747776315374
 11
-75.95851627048458
 21
66.59637660250064
 31
-95.89050373079861
 12
-71.07420861946972
 22
63.96966761812564
 32
-98.25923275249609
 13
-71.07420861946972
 23
63.96966761812564
 33
-98.25923275249609
  0
3DFACE
  8
0
1001
WEBCAD
1000
E7
 10
-76.57885825355929
 20
65.69195765718814
 30
-90.3501874975477
 11
-70.05542895624973
 21
61.918672745078766
 31
-90.74747776315374
 12
-76.12832258248075
 22
62.07874507173892
 32
-84.12036795708504
 13
-76.12832258248075
 23
62.07874507173892
 33
-84.12036795708504
  0
3DFACE
  8
0
1001
WEBCAD
1000
E7
 10
-76.57885825355929
 20
65.69195765718814
 30
-90.3501874975477
 11
-76.57728785655712
 21
66.59637660250064
 31
-93.90193420974215
 12
-70.05542895624973
 22
61.918672745078766
 32
-90.74747776315374
 13
-70.05542895624973
 23
61.918672745078766
 33
-90.74747776315374
  0
3DFACE
  8
0
1001
WEBCAD
1000
E7
 10
-76.57885825355929
 20
65.69195765718814
 30
-90.3501874975477
 11
-80.3122413204885
 21
63.2194387362897
 31
-83.65771412748276
 12
-80.9078160936872
 22
66.59637660250064
 32
-89.56783561543251
 13
-80.9078160936872
 23
66.59637660250064
 33
-89.56783561543251
  0
3DFACE
  8
0
1001
WEBCAD
1000
E7
 10
-76.57885825355929
 20
65.69195765718814
 30
-90.3501874975477
 11
-76.12832258248075
 21
62.07874507173892
 31
-84.12036795708504
 12
-80.3122413204885
 22
63.2194387362897
 32
-83.65771412748276
 13
-80.3122413204885
 23
63.2194387362897
 33
-83.65771412748276
  0
3DFACE
  8
0
1001
WEBCAD
1000
E7
 10
-76.57885825355929
 20
65.69195765718814
 30
-90.3501874975477
 11
-80.9078160936872
 21
66.59637660250064
 31
-89.56783561543251
 12
-79.12599538014175
 22
66.59637660250064
 32
-90.64598491952178
 13
-79.12599538014175
 23
66.59637660250064
 33
-90.64598491952178
  0
3DFACE
  8
0
1001
WEBCAD
1000
E7
 10
-76.57885825355929
 20
65.69195765718814
 30
-90.3501874975477
 11
-79.12599538014175
 21
66.59637660250064
 31
-90.64598491952178
 12
-77.65396999919632
 22
66.59637660250064
 32
-92.11922387836069
 13
-77.65396999919632
 23
66.59637660250064
 33
-92.11922387836069
  0
3DFACE
  8
0
1001
WEBCAD
1000
E7
 10
-76.57885825355929
 20
65.69195765718814
 30
-90.3501874975477
 11
-77.65396999919632
 21
66.59637660250064
 31
-92.11922387836069
 12
-76.57728785655712
 22
66.59637660250064
 32
-93.90193420974215
 13
-76.57728785655712
 23
66.59637660250064
 33
-93.90193420974215
  0
3DFACE
  8
0
1001
WEBCAD
1000
E7
 10
-91.41520744419778
 20
65.69195765718814
 30
-89.44662861737136
 11
-88.9204693659877
 21
62.523706619590484
 31
-82.89069706938224
 12
-92.88726260986965
 22
60.72004145845767
 32
-82.62426588691724
 13
-92.88726260986965
 23
60.72004145845767
 33
-82.62426588691724
  0
3DFACE
  8
0
1001
WEBCAD
1000
E7
 10
-91.41520744419778
 20
65.69195765718814
 30
-89.44662861737136
 11
-87.0233039312744
 21
66.59637660250064
 31
-89.19539005715596
 12
-88.9204693659877
 22
62.523706619590484
 32
-82.89069706938224
 13
-88.9204693659877
 23
62.523706619590484
 33
-82.89069706938224
  0
3DFACE
  8
0
1001
WEBCAD
1000
E7
 10
-91.41520744419778
 20
65.69195765718814
 30
-89.44662861737136
 11
-91.84778712715438
 21
66.59637660250064
 31
-92.97193182864378
 12
-90.56272257852994
 22
66.59637660250064
 32
-91.333058276863
 13
-90.56272257852994
 23
66.59637660250064
 33
-91.333058276863
  0
3DFACE
  8
0
1001
WEBCAD
1000
E7
 10
-91.41520744419778
 20
65.69195765718814
 30
-89.44662861737136
 11
-90.56272257852994
 21
66.59637660250064
 31
-91.333058276863
 12
-88.92279230068489
 22
66.59637660250064
 32
-90.04934007538306
 13
-88.92279230068489
 23
66.59637660250064
 33
-90.04934007538306
  0
3DFACE
  8
0
1001
WEBCAD
1000
E7
 10
-91.41520744419778
 20
65.69195765718814
 30
-89.44662861737136
 11
-88.92279230068489
 21
66.59637660250064
 31
-90.04934007538306
 12
-87.0233039312744
 22
66.59637660250064
 32
-89.19539005715596
 13
-87.0233039312744
 23
66.59637660250064
 33
-89.19539005715596
  0
3DFACE
  8
0
1001
WEBCAD
1000
E7
 10
-97.93864436737366
 20
61.918672745078766
 30
-89.04933811976599
 11
-97.89937729328663
 21
63.926119034141266
 31
-96.62553083459063
 12
-92.70330065056379
 22
66.59637660250064
 32
-94.87071461605049
 13
-92.70330065056379
 23
66.59637660250064
 33
-94.87071461605049
  0
3DFACE
  8
0
1001
WEBCAD
1000
E7
 10
-97.93864436737366
 20
61.918672745078766
 30
-89.04933811976599
 11
-101.94596242441797
 21
60.18291682466861
 31
-96.37908243481348
 12
-97.89937729328663
 22
63.926119034141266
 32
-96.62553083459063
 13
-97.89937729328663
 23
63.926119034141266
 33
-96.62553083459063
  0
3DFACE
  8
0
1001
WEBCAD
1000
E7
 10
-97.93864436737366
 20
61.918672745078766
 30
-89.04933811976599
 11
-92.88726260986965
 21
60.72004145845767
 31
-82.62426588691724
 12
-96.34171030100578
 22
58.05601710543033
 32
-82.45565875770868
 13
-96.34171030100578
 23
58.05601710543033
 33
-82.45565875770868
  0
3DFACE
  8
0
1001
WEBCAD
1000
E7
 10
-97.93864436737366
 20
61.918672745078766
 30
-89.04933811976599
 11
-92.70330065056379
 21
66.59637660250064
 31
-94.87071461605049
 12
-91.84778712715438
 22
66.59637660250064
 32
-92.97193182864378
 13
-91.84778712715438
 23
66.59637660250064
 33
-92.97193182864378
  0
3DFACE
  8
0
1001
WEBCAD
1000
E7
 10
-97.93864436737366
 20
61.918672745078766
 30
-89.04933811976599
 11
-91.84778712715438
 21
66.59637660250064
 31
-92.97193182864378
 12
-91.41520744419778
 22
65.69195765718814
 32
-89.44662861737136
 13
-91.41520744419778
 23
65.69195765718814
 33
-89.44662861737136
  0
3DFACE
  8
0
1001
WEBCAD
1000
E7
 10
-97.93864436737366
 20
61.918672745078766
 30
-89.04933811976599
 11
-91.41520744419778
 21
65.69195765718814
 31
-89.44662861737136
 12
-92.88726260986965
 22
60.72004145845767
 32
-82.62426588691724
 13
-92.88726260986965
 23
60.72004145845767
 33
-82.62426588691724
  0
3DFACE
  8
0
1001
WEBCAD
1000
E7
 10
-102.78051133134495
 20
56.137666885703766
 30
-88.75446057837064
 11
-97.93864436737366
 21
61.918672745078766
 31
-89.04933811976599
 12
-96.34171030100578
 22
58.05601710543033
 32
-82.45565875770868
 13
-96.34171030100578
 23
58.05601710543033
 33
-82.45565875770868
  0
3DFACE
  8
0
1001
WEBCAD
1000
E7
 10
-102.78051133134495
 20
56.137666885703766
 30
-88.75446057837064
 11
-104.98653746139667
 21
55.582063858360016
 31
-96.19390865089805
 12
-101.94596242441797
 22
60.18291682466861
 32
-96.37908243481348
 13
-101.94596242441797
 23
60.18291682466861
 33
-96.37908243481348
  0
3DFACE
  8
0
1001
WEBCAD
1000
E7
 10
-102.78051133134495
 20
56.137666885703766
 30
-88.75446057837064
 11
-96.34171030100578
 21
58.05601710543033
 31
-82.45565875770868
 12
-99.10023819496791
 22
54.67424220308658
 32
-82.39433039537636
 13
-99.10023819496791
 23
54.67424220308658
 33
-82.39433039537636
  0
3DFACE
  8
0
1001
WEBCAD
1000
E7
 10
-102.78051133134495
 20
56.137666885703766
 30
-88.75446057837064
 11
-99.10023819496791
 21
54.67424220308658
 31
-82.39433039537636
 12
-101.01782611981756
 22
50.7557279513776
 32
-82.44472323427402
 13
-101.01782611981756
 23
50.7557279513776
 33
-82.44472323427402
  0
3DFACE
  8
0
1001
WEBCAD
1000
E7
 10
-102.78051133134495
 20
56.137666885703766
 30
-88.75446057837064
 11
-101.94596242441797
 21
60.18291682466861
 31
-96.37908243481348
 12
-97.93864436737366
 22
61.918672745078766
 32
-89.04933811976599
 13
-97.93864436737366
 23
61.918672745078766
 33
-89.04933811976599
  0
3DFACE
  8
0
1001
WEBCAD
1000
E7
 10
-105.35681907869255
 20
49.046209518760406
 30
-88.597562492611
 11
-106.84620472034544
 21
50.38822001680728
 31
-96.08065048784668
 12
-104.98653746139667
 22
55.582063858360016
 32
-96.19390865089805
 13
-104.98653746139667
 23
55.582063858360016
 33
-96.19390865089805
  0
3DFACE
  8
0
1001
WEBCAD
1000
E7
 10
-105.35681907869255
 20
49.046209518760406
 30
-88.597562492611
 11
-102.78051133134495
 21
56.137666885703766
 31
-88.75446057837064
 12
-101.01782611981756
 22
50.7557279513776
 32
-82.44472323427402
 13
-101.01782611981756
 23
50.7557279513776
 33
-82.44472323427402
  0
3DFACE
  8
0
1001
WEBCAD
1000
E7
 10
-105.35681907869255
 20
49.046209518760406
 30
-88.597562492611
 11
-107.41799633374166
 21
44.900137131065094
 31
-96.04582908676714
 12
-106.84620472034544
 22
50.38822001680728
 32
-96.08065048784668
 13
-106.84620472034544
 23
50.38822001680728
 33
-96.08065048784668
  0
3DFACE
  8
0
1001
WEBCAD
1000
E7
 10
-105.35681907869255
 20
49.046209518760406
 30
-88.597562492611
 11
-101.01782611981756
 21
50.7557279513776
 31
-82.44472323427402
 12
-101.99555201578602
 22
46.509142105430335
 32
-82.60585472938004
 13
-101.99555201578602
 23
46.509142105430335
 33
-82.60585472938004
  0
3DFACE
  8
0
1001
WEBCAD
1000
E7
 10
-105.35681907869255
 20
49.046209518760406
 30
-88.597562492611
 11
-104.98653746139667
 21
55.582063858360016
 31
-96.19390865089805
 12
-102.78051133134495
 22
56.137666885703766
 32
-88.75446057837064
 13
-102.78051133134495
 23
56.137666885703766
 33
-88.75446057837064
  0
3DFACE
  8
0
1001
WEBCAD
1000
E7
 10
-105.35681907869254
 20
41.49964350923892
 30
-88.597562492611
 11
-106.66900657682984
 21
39.43350047335025
 31
-96.09144544117044
 12
-107.41799633374166
 22
44.900137131065094
 32
-96.04582908676714
 13
-107.41799633374166
 23
44.900137131065094
 33
-96.04582908676714
  0
3DFACE
  8
0
1001
WEBCAD
1000
E7
 10
-105.35681907869254
 20
41.49964350923892
 30
-88.597562492611
 11
-107.41799633374166
 21
44.900137131065094
 31
-96.04582908676714
 12
-105.35681907869255
 22
49.046209518760406
 32
-88.597562492611
 13
-105.35681907869255
 23
49.046209518760406
 33
-88.597562492611
  0
3DFACE
  8
0
1001
WEBCAD
1000
E7
 10
-105.35681907869254
 20
41.49964350923892
 30
-88.597562492611
 11
-105.35681907869255
 21
49.046209518760406
 31
-88.597562492611
 12
-101.99555201578602
 22
46.509142105430335
 32
-82.60585472938004
 13
-101.99555201578602
 23
46.509142105430335
 33
-82.60585472938004
  0
3DFACE
  8
0
1001
WEBCAD
1000
E7
 10
-105.35681907869254
 20
41.49964350923892
 30
-88.597562492611
 11
-101.99555201578602
 21
46.509142105430335
 31
-82.60585472938004
 12
-101.98512978973737
 22
42.15881175264713
 32
-82.87119456844036
 13
-101.98512978973737
 23
42.15881175264713
 33
-82.87119456844036
  0
3DFACE
  8
0
1001
WEBCAD
1000
E7
 10
-105.35681907869254
 20
41.49964350923892
 30
-88.597562492611
 11
-101.98512978973737
 21
42.15881175264713
 31
-82.87119456844036
 12
-100.99016390123431
 22
37.932481949180335
 32
-83.22875626380912
 13
-100.99016390123431
 23
37.932481949180335
 33
-83.22875626380912
  0
3DFACE
  8
0
1001
WEBCAD
1000
E7
 10
-102.78051133134494
 20
34.40818995699283
 30
-88.75446057837064
 11
-104.6423426974053
 21
34.30275172457095
 31
-96.21487524994933
 12
-106.66900657682984
 22
39.43350047335025
 32
-96.09144544117044
 13
-106.66900657682984
 23
39.43350047335025
 33
-96.09144544117044
  0
3DFACE
  8
0
1001
WEBCAD
1000
E7
 10
-102.78051133134494
 20
34.40818995699283
 30
-88.75446057837064
 11
-101.45455708685581
 21
29.803022568076813
 31
-96.40901573394304
 12
-104.6423426974053
 22
34.30275172457095
 32
-96.21487524994933
 13
-104.6423426974053
 23
34.30275172457095
 33
-96.21487524994933
  0
3DFACE
  8
0
1001
WEBCAD
1000
E7
 10
-102.78051133134494
 20
34.40818995699283
 30
-88.75446057837064
 11
-106.66900657682984
 21
39.43350047335025
 31
-96.09144544117044
 12
-105.35681907869254
 22
41.49964350923892
 32
-88.597562492611
 13
-105.35681907869254
 23
41.49964350923892
 33
-88.597562492611
  0
3DFACE
  8
0
1001
WEBCAD
1000
E7
 10
-102.78051133134494
 20
34.40818995699283
 30
-88.75446057837064
 11
-100.99016390123431
 21
37.932481949180335
 31
-83.22875626380912
 12
-99.06464732898209
 22
34.04977244600651
 32
-83.66140236776714
 13
-99.06464732898209
 23
34.04977244600651
 33
-83.66140236776714
  0
3DFACE
  8
0
1001
WEBCAD
1000
E7
 10
-102.78051133134494
 20
34.40818995699283
 30
-88.75446057837064
 11
-105.35681907869254
 21
41.49964350923892
 31
-88.597562492611
 12
-100.99016390123431
 22
37.932481949180335
 32
-83.22875626380912
 13
-100.99016390123431
 23
37.932481949180335
 33
-83.22875626380912
  0
3DFACE
  8
0
1001
WEBCAD
1000
E7
 10
-97.93864436737364
 20
28.627180282920563
 30
-89.04933811976599
 11
-97.28903452417086
 21
26.193140213340484
 31
-96.6627005355958
 12
-101.45455708685581
 22
29.803022568076813
 32
-96.40901573394304
 13
-101.45455708685581
 23
29.803022568076813
 33
-96.40901573394304
  0
3DFACE
  8
0
1001
WEBCAD
1000
E7
 10
-97.93864436737364
 20
28.627180282920563
 30
-89.04933811976599
 11
-99.06464732898209
 21
34.04977244600651
 31
-83.66140236776714
 12
-96.30940565734892
 22
30.711832229942054
 32
-84.14738009671372
 13
-96.30940565734892
 23
30.711832229942054
 33
-84.14738009671372
  0
3DFACE
  8
0
1001
WEBCAD
1000
E7
 10
-97.93864436737364
 20
28.627180282920563
 30
-89.04933811976599
 11
-96.30940565734892
 21
30.711832229942054
 31
-84.14738009671372
 12
-92.86676227814942
 22
28.092081253379547
 32
-84.66109426398863
 13
-92.86676227814942
 23
28.092081253379547
 33
-84.66109426398863
  0
3DFACE
  8
0
1001
WEBCAD
1000
E7
 10
-97.93864436737364
 20
28.627180282920563
 30
-89.04933811976599
 11
-101.45455708685581
 21
29.803022568076813
 31
-96.40901573394304
 12
-102.78051133134494
 22
34.40818995699283
 32
-88.75446057837064
 13
-102.78051133134494
 23
34.40818995699283
 33
-88.75446057837064
  0
3DFACE
  8
0
1001
WEBCAD
1000
E7
 10
-97.93864436737364
 20
28.627180282920563
 30
-89.04933811976599
 11
-102.78051133134494
 21
34.40818995699283
 31
-88.75446057837064
 12
-99.06464732898209
 22
34.04977244600651
 32
-83.66140236776714
 13
-99.06464732898209
 23
34.04977244600651
 33
-83.66140236776714
  0
3DFACE
  8
0
1001
WEBCAD
1000
E7
 10
-91.41520744419776
 20
24.85389918550846
 30
-89.44662861737136
 11
-92.38537146225303
 21
23.680753891319007
 31
-96.96134341238161
 12
-97.28903452417086
 22
26.193140213340484
 32
-96.6627005355958
 13
-97.28903452417086
 23
26.193140213340484
 33
-96.6627005355958
  0
3DFACE
  8
0
1001
WEBCAD
1000
E7
 10
-91.41520744419776
 20
24.85389918550846
 30
-89.44662861737136
 11
-87.02563126102808
 21
22.41037577852604
 31
-97.28776093447561
 12
-92.38537146225303
 22
23.680753891319007
 32
-96.96134341238161
 13
-92.38537146225303
 23
23.680753891319007
 33
-96.96134341238161
  0
3DFACE
  8
0
1001
WEBCAD
1000
E7
 10
-91.41520744419776
 20
24.85389918550846
 30
-89.44662861737136
 11
-92.86676227814942
 21
28.092081253379547
 31
-84.66109426398863
 12
-88.91416119884548
 22
26.328314010947913
 32
-85.17424014085127
 13
-88.91416119884548
 23
26.328314010947913
 33
-85.17424014085127
  0
3DFACE
  8
0
1001
WEBCAD
1000
E7
 10
-91.41520744419776
 20
24.85389918550846
 30
-89.44662861737136
 11
-97.28903452417086
 21
26.193140213340484
 31
-96.6627005355958
 12
-97.93864436737364
 22
28.627180282920563
 32
-89.04933811976599
 13
-97.93864436737364
 23
28.627180282920563
 33
-89.04933811976599
  0
3DFACE
  8
0
1001
WEBCAD
1000
E7
 10
-91.41520744419776
 20
24.85389918550846
 30
-89.44662861737136
 11
-97.93864436737364
 21
28.627180282920563
 31
-89.04933811976599
 12
-92.86676227814942
 22
28.092081253379547
 32
-84.66109426398863
 13
-92.86676227814942
 23
28.092081253379547
 33
-84.66109426398863
  0
3DFACE
  8
0
1001
WEBCAD
1000
E7
 10
-83.99703273287886
 20
23.543451492637367
 30
-89.89840424452636
 11
-87.02563126102808
 21
22.41037577852604
 31
-97.28776093447561
 12
-91.41520744419776
 22
24.85389918550846
 32
-89.44662861737136
 13
-91.41520744419776
 23
24.85389918550846
 33
-89.44662861737136
  0
3DFACE
  8
0
1001
WEBCAD
1000
E7
 10
-83.99703273287886
 20
23.543451492637367
 30
-89.89840424452636
 11
-81.51811663612281
 21
22.455084030479163
 31
-97.62317757632951
 12
-87.02563126102808
 22
22.41037577852604
 32
-97.28776093447561
 13
-87.02563126102808
 23
22.41037577852604
 33
-97.28776093447561
  0
3DFACE
  8
0
1001
WEBCAD
1000
E7
 10
-83.99703273287886
 20
23.543451492637367
 30
-89.89840424452636
 11
-88.91416119884548
 21
26.328314010947913
 31
-85.17424014085127
 12
-84.65652630704062
 22
25.51566905245182
 32
-85.6573029735965
 13
-84.65652630704062
 23
25.51566905245182
 33
-85.6573029735965
  0
3DFACE
  8
0
1001
WEBCAD
1000
E7
 10
-83.99703273287886
 20
23.543451492637367
 30
-89.89840424452636
 11
-84.65652630704062
 21
25.51566905245182
 31
-85.6573029735965
 12
-80.31705623260291
 22
25.700620834678382
 32
-86.08157070237385
 13
-80.31705623260291
 23
25.700620834678382
 33
-86.08157070237385
  0
3DFACE
  8
0
1001
WEBCAD
1000
E7
 10
-83.99703273287886
 20
23.543451492637367
 30
-89.89840424452636
 11
-91.41520744419776
 21
24.85389918550846
 31
-89.44662861737136
 12
-88.91416119884548
 22
26.328314010947913
 32
-85.17424014085127
 13
-88.91416119884548
 23
26.328314010947913
 33
-85.17424014085127
  0
3DFACE
  8
0
1001
WEBCAD
1000
E7
 10
-76.57885825355928
 20
24.85389918550846
 30
-90.3501874975477
 11
-76.1796328820081
 21
23.81229991182682
 31
-97.94829962170937
 12
-81.51811663612281
 22
22.455084030479163
 32
-97.62317757632951
 13
-81.51811663612281
 23
22.455084030479163
 33
-97.62317757632951
  0
3DFACE
  8
0
1001
WEBCAD
1000
E7
 10
-76.57885825355928
 20
24.85389918550846
 30
-90.3501874975477
 11
-71.317240858096
 21
26.403959457725257
 31
-98.24442749028609
 12
-76.1796328820081
 22
23.81229991182682
 32
-97.94829962170937
 13
-76.1796328820081
 23
23.81229991182682
 33
-97.94829962170937
  0
3DFACE
  8
0
1001
WEBCAD
1000
E7
 10
-76.57885825355928
 20
24.85389918550846
 30
-90.3501874975477
 11
-81.51811663612281
 21
22.455084030479163
 31
-97.62317757632951
 12
-83.99703273287886
 22
23.543451492637367
 32
-89.89840424452636
 13
-83.99703273287886
 23
23.543451492637367
 33
-89.89840424452636
  0
3DFACE
  8
0
1001
WEBCAD
1000
E7
 10
-76.57885825355928
 20
24.85389918550846
 30
-90.3501874975477
 11
-83.99703273287886
 21
23.543451492637367
 31
-89.89840424452636
 12
-80.31705623260291
 22
25.700620834678382
 32
-86.08157070237385
 13
-80.31705623260291
 23
25.700620834678382
 33
-86.08157070237385
  0
3DFACE
  8
0
1001
WEBCAD
1000
E7
 10
-76.57885825355928
 20
24.85389918550846
 30
-90.3501874975477
 11
-80.31705623260291
 21
25.700620834678382
 31
-86.08157070237385
 12
-76.12602311891557
 22
26.87666529878971
 32
-86.4215203563448
 13
-76.12602311891557
 23
26.87666529878971
 33
-86.4215203563448
  0
3DFACE
  8
0
1001
WEBCAD
1000
E7
 10
-76.57885825355928
 20
24.85389918550846
 30
-90.3501874975477
 11
-76.12602311891557
 21
26.87666529878971
 31
-86.4215203563448
 12
-72.30780517901987
 22
28.982870285361976
 32
-86.65710552335412
 13
-72.30780517901987
 23
28.982870285361976
 33
-86.65710552335412
  0
3DFACE
  8
0
1001
WEBCAD
1000
E7
 10
-70.05542895624971
 20
28.62718028292057
 30
-90.74747776315374
 11
-76.57885825355928
 21
24.85389918550846
 31
-90.3501874975477
 12
-72.30780517901987
 22
28.982870285361976
 32
-86.65710552335412
 13
-72.30780517901987
 23
28.982870285361976
 33
-86.65710552335412
  0
3DFACE
  8
0
1001
WEBCAD
1000
E7
 10
-70.05542895624971
 20
28.62718028292057
 30
-90.74747776315374
 11
-67.21064985161044
 21
30.080988113731117
 31
-98.49452569868511
 12
-71.317240858096
 22
26.403959457725257
 32
-98.24442749028609
 13
-71.317240858096
 23
26.403959457725257
 33
-98.24442749028609
  0
3DFACE
  8
0
1001
WEBCAD
1000
E7
 10
-70.05542895624971
 20
28.62718028292057
 30
-90.74747776315374
 11
-71.317240858096
 21
26.403959457725257
 31
-98.24442749028609
 12
-76.57885825355928
 22
24.85389918550846
 32
-90.3501874975477
 13
-76.57885825355928
 23
24.85389918550846
 33
-90.3501874975477
  0
3DFACE
  8
0
1001
WEBCAD
1000
E7
 10
-70.05542895624971
 20
28.62718028292057
 30
-90.74747776315374
 11
-72.30780517901987
 21
28.982870285361976
 31
-86.65710552335412
 12
-69.0669987817038
 22
31.906454269736976
 32
-86.77564437900497
 13
-69.0669987817038
 23
31.906454269736976
 33
-86.77564437900497
  0
3DFACE
  8
0
1001
WEBCAD
1000
E7
 10
-65.21355817934524
 20
34.408189956992835
 30
-91.04235542054874
 11
-64.09606200799651
 21
34.63187236055729
 31
-98.68421049633545
 12
-67.21064985161044
 22
30.080988113731117
 32
-98.49452569868511
 13
-67.21064985161044
 23
30.080988113731117
 33
-98.49452569868511
  0
3DFACE
  8
0
1001
WEBCAD
1000
E7
 10
-65.21355817934524
 20
34.408189956992835
 30
-91.04235542054874
 11
-62.15263727535439
 21
39.794847671836585
 31
-98.8025661831603
 12
-64.09606200799651
 22
34.63187236055729
 32
-98.68421049633545
 13
-64.09606200799651
 23
34.63187236055729
 33
-98.68421049633545
  0
3DFACE
  8
0
1001
WEBCAD
1000
E7
 10
-65.21355817934524
 20
34.408189956992835
 30
-91.04235542054874
 11
-67.21064985161044
 21
30.080988113731117
 31
-98.49452569868511
 12
-70.05542895624971
 22
28.62718028292057
 32
-90.74747776315374
 13
-70.05542895624971
 23
28.62718028292057
 33
-90.74747776315374
  0
3DFACE
  8
0
1001
WEBCAD
1000
E7
 10
-65.21355817934524
 20
34.408189956992835
 30
-91.04235542054874
 11
-69.0669987817038
 21
31.906454269736976
 31
-86.77564437900497
 12
-66.5756872288357
 22
35.489767258018226
 32
-86.7725886508232
 13
-66.5756872288357
 23
35.489767258018226
 33
-86.7725886508232
  0
3DFACE
  8
0
1001
WEBCAD
1000
E7
 10
-65.21355817934524
 20
34.408189956992835
 30
-91.04235542054874
 11
-66.5756872288357
 21
35.489767258018226
 31
-86.7725886508232
 12
-64.96368015118684
 22
39.54072779878971
 32
-86.65120992807033
 13
-64.96368015118684
 23
39.54072779878971
 33
-86.65120992807033
  0
3DFACE
  8
0
1001
WEBCAD
1000
E7
 10
-65.21355817934524
 20
34.408189956992835
 30
-91.04235542054874
 11
-70.05542895624971
 21
28.62718028292057
 31
-90.74747776315374
 12
-69.0669987817038
 22
31.906454269736976
 32
-86.77564437900497
 13
-69.0669987817038
 23
31.906454269736976
 33
-86.77564437900497
  0
3DFACE
  8
0
1001
WEBCAD
1000
E7
 10
-62.63725424493082
 20
41.49964350923893
 30
-91.19925339030874
 11
-61.63663171614189
 21
45.27292460665104
 31
-94.51673756175748
 12
-62.15263727535439
 22
39.794847671836585
 32
-98.8025661831603
 13
-62.15263727535439
 23
39.794847671836585
 33
-98.8025661831603
  0
3DFACE
  8
0
1001
WEBCAD
1000
E7
 10
-62.63725424493082
 20
41.49964350923893
 30
-91.19925339030874
 11
-64.4720328112336
 21
41.974535171836585
 31
-86.53281233739168
 12
-62.58882019587118
 22
45.27292460665104
 32
-90.29429421652071
 13
-62.58882019587118
 23
45.27292460665104
 33
-90.29429421652071
  0
3DFACE
  8
0
1001
WEBCAD
1000
E7
 10
-62.63725424493082
 20
41.49964350923893
 30
-91.19925339030874
 11
-62.58882019587118
 21
45.27292460665104
 31
-90.29429421652071
 12
-61.63663171614189
 22
45.27292460665104
 32
-94.51673756175748
 13
-61.63663171614189
 23
45.27292460665104
 33
-94.51673756175748
  0
3DFACE
  8
0
1001
WEBCAD
1000
E7
 10
-62.63725424493082
 20
41.49964350923893
 30
-91.19925339030874
 11
-64.96368015118684
 21
39.54072779878971
 31
-86.65120992807033
 12
-64.4720328112336
 22
41.974535171836585
 32
-86.53281233739168
 13
-64.4720328112336
 23
41.974535171836585
 33
-86.53281233739168
  0
3DFACE
  8
0
1001
WEBCAD
1000
E7
 10
-62.63725424493082
 20
41.49964350923893
 30
-91.19925339030874
 11
-65.21355817934524
 21
34.408189956992835
 31
-91.04235542054874
 12
-64.96368015118684
 22
39.54072779878971
 32
-86.65120992807033
 13
-64.96368015118684
 23
39.54072779878971
 33
-86.65120992807033
  0
3DFACE
  8
0
1001
WEBCAD
1000
E7
 10
-62.63725424493082
 20
41.49964350923893
 30
-91.19925339030874
 11
-62.15263727535439
 21
39.794847671836585
 31
-98.8025661831603
 12
-65.21355817934524
 22
34.408189956992835
 32
-91.04235542054874
 13
-65.21355817934524
 23
34.408189956992835
 33
-91.04235542054874
  0
3DFACE
  8
0
1001
WEBCAD
1000
E7
 10
-64.31503470915219
 20
45.27292460665104
 30
-86.32493536791851
 11
-64.30057541757594
 21
44.44898432955143
 31
-86.38180546820976
 12
-65.04601147556869
 22
44.44898432955143
 32
-98.62178668140685
 13
-65.04601147556869
 23
44.44898432955143
 33
-98.62178668140685
  0
3DFACE
  8
0
1001
WEBCAD
1000
E7
 10
-64.31503470915219
 20
45.27292460665104
 30
-86.32493536791851
 11
-65.04601147556869
 21
44.44898432955143
 31
-98.62178668140685
 12
-65.5966188555855
 22
48.992025558799476
 32
-98.58825092718169
 13
-65.5966188555855
 23
48.992025558799476
 33
-98.58825092718169
  0
3DFACE
  8
0
1001
WEBCAD
1000
E7
 10
-64.9793945197984
 20
49.564684097617835
 30
-85.97511118730222
 11
-65.5966188555855
 21
48.992025558799476
 31
-98.58825092718169
 12
-67.21643084617519
 22
53.27104014620182
 32
-98.48960214636558
 13
-67.21643084617519
 23
53.27104014620182
 33
-98.48960214636558
  0
3DFACE
  8
0
1001
WEBCAD
1000
E7
 10
-64.9793945197984
 20
49.564684097617835
 30
-85.97511118730222
 11
-64.31503470915219
 21
45.27292460665104
 31
-86.32493536791851
 12
-65.5966188555855
 22
48.992025558799476
 32
-98.58825092718169
 13
-65.5966188555855
 23
48.992025558799476
 33
-98.58825092718169
  0
3DFACE
  8
0
1001
WEBCAD
1000
E7
 10
-66.59872456666433
 20
53.58684748873112
 30
-85.55741319699509
 11
-67.21643084617519
 21
53.27104014620182
 31
-98.48960214636558
 12
-69.81132091354473
 22
57.03734797701236
 32
-98.33157390017938
 13
-69.81132091354473
 23
57.03734797701236
 33
-98.33157390017938
  0
3DFACE
  8
0
1001
WEBCAD
1000
E7
 10
-66.59872456666433
 20
53.58684748873112
 30
-85.55741319699509
 11
-64.9793945197984
 21
49.564684097617835
 31
-85.97511118730222
 12
-67.21643084617519
 22
53.27104014620182
 32
-98.48960214636558
 13
-67.21643084617519
 23
53.27104014620182
 33
-98.48960214636558
  0
3DFACE
  8
0
1001
WEBCAD
1000
E7
 10
-69.08902556765422
 20
57.13127345308658
 30
-85.09357841942898
 11
-69.81132091354473
 21
57.03734797701236
 31
-98.33157390017938
 12
-73.23047446534184
 22
60.07206935152408
 32
-98.12334176063746
 13
-73.23047446534184
 23
60.07206935152408
 33
-98.12334176063746
  0
3DFACE
  8
0
1001
WEBCAD
1000
E7
 10
-69.08902556765422
 20
57.13127345308658
 30
-85.09357841942898
 11
-66.59872456666433
 21
53.58684748873112
 31
-85.55741319699509
 12
-69.81132091354473
 22
57.03734797701236
 32
-98.33157390017938
 13
-69.81132091354473
 23
57.03734797701236
 33
-98.33157390017938
  0
3DFACE
  8
0
1001
WEBCAD
1000
E7
 10
-72.32119216934693
 20
60.01239985689517
 30
-84.6067466564229
 11
-69.08902556765422
 21
57.13127345308658
 31
-85.09357841942898
 12
-73.23047446534184
 22
60.07206935152408
 32
-98.12334176063746
 13
-73.23047446534184
 23
60.07206935152408
 33
-98.12334176063746
  0
3DFACE
  8
0
1001
WEBCAD
1000
E7
 10
-76.12832258248075
 20
62.07874507173892
 30
-84.12036795708504
 11
-73.23047446534184
 21
60.07206935152408
 31
-98.12334176063746
 12
-77.27518548935129
 22
62.1988317416608
 32
-97.87701143962131
 13
-77.27518548935129
 23
62.1988317416608
 33
-97.87701143962131
  0
3DFACE
  8
0
1001
WEBCAD
1000
E7
 10
-76.12832258248075
 20
62.07874507173892
 30
-84.12036795708504
 11
-72.32119216934693
 21
60.01239985689517
 31
-84.6067466564229
 12
-73.23047446534184
 22
60.07206935152408
 32
-98.12334176063746
 13
-73.23047446534184
 23
60.07206935152408
 33
-98.12334176063746
  0
3DFACE
  8
0
1001
WEBCAD
1000
E7
 10
-80.3122413204885
 20
63.2194387362897
 30
-83.65771412748276
 11
-77.27518548935129
 21
62.1988317416608
 31
-97.87701143962131
 12
-81.71039074714727
 22
63.294031326621734
 32
-97.60689387447333
 13
-81.71039074714727
 23
63.294031326621734
 33
-97.60689387447333
  0
3DFACE
  8
0
1001
WEBCAD
1000
E7
 10
-80.3122413204885
 20
63.2194387362897
 30
-83.65771412748276
 11
-76.12832258248075
 21
62.07874507173892
 31
-84.12036795708504
 12
-77.27518548935129
 22
62.1988317416608
 32
-97.87701143962131
 13
-77.27518548935129
 23
62.1988317416608
 33
-97.87701143962131
  0
3DFACE
  8
0
1001
WEBCAD
1000
E7
 10
-84.6529881379235
 20
63.3713170932233
 30
-83.2410404811266
 11
-81.71039074714727
 21
63.294031326621734
 31
-97.60689387447333
 12
-86.27833874631885
 22
63.294031326621734
 32
-97.32870010205106
 13
-86.27833874631885
 23
63.294031326621734
 33
-97.32870010205106
  0
3DFACE
  8
0
1001
WEBCAD
1000
E7
 10
-84.6529881379235
 20
63.3713170932233
 30
-83.2410404811266
 11
-80.3122413204885
 21
63.2194387362897
 31
-83.65771412748276
 12
-81.71039074714727
 22
63.294031326621734
 32
-97.60689387447333
 13
-81.71039074714727
 23
63.294031326621734
 33
-97.60689387447333
  0
3DFACE
  8
0
1001
WEBCAD
1000
E7
 10
-88.9204693659877
 20
62.523706619590484
 30
-82.89069706938224
 11
-86.27833874631885
 21
63.294031326621734
 31
-97.32870010205106
 12
-90.71354423611413
 22
62.1988317416608
 32
-97.05859016276939
 13
-90.71354423611413
 23
62.1988317416608
 33
-97.05859016276939
  0
3DFACE
  8
0
1001
WEBCAD
1000
E7
 10
-88.9204693659877
 20
62.523706619590484
 30
-82.89069706938224
 11
-84.6529881379235
 21
63.3713170932233
 31
-83.2410404811266
 12
-86.27833874631885
 22
63.294031326621734
 32
-97.32870010205106
 13
-86.27833874631885
 23
63.294031326621734
 33
-97.32870010205106
  0
3DFACE
  8
0
1001
WEBCAD
1000
E7
 10
-92.88726260986965
 20
60.72004145845767
 30
-82.62426588691724
 11
-90.71354423611413
 21
62.1988317416608
 31
-97.05859016276939
 12
-94.75825526012358
 22
60.07206935152408
 32
-96.81225984175325
 13
-94.75825526012358
 23
60.07206935152408
 33
-96.81225984175325
  0
3DFACE
  8
0
1001
WEBCAD
1000
E7
 10
-92.88726260986965
 20
60.72004145845767
 30
-82.62426588691724
 11
-88.9204693659877
 21
62.523706619590484
 31
-82.89069706938224
 12
-90.71354423611413
 22
62.1988317416608
 32
-97.05859016276939
 13
-90.71354423611413
 23
62.1988317416608
 33
-97.05859016276939
  0
3DFACE
  8
0
1001
WEBCAD
1000
E7
 10
-96.34171030100578
 20
58.05601710543033
 30
-82.45565875770868
 11
-92.88726260986965
 21
60.72004145845767
 31
-82.62426588691724
 12
-94.75825526012358
 22
60.07206935152408
 32
-96.81225984175325
 13
-94.75825526012358
 23
60.07206935152408
 33
-96.81225984175325
  0
3DFACE
  8
0
1001
WEBCAD
1000
E7
 10
-96.34171030100578
 20
58.05601710543033
 30
-82.45565875770868
 11
-94.75825526012358
 21
60.07206935152408
 31
-96.81225984175325
 12
-98.1774088119207
 22
57.03734797701236
 32
-96.60402770221133
 13
-98.1774088119207
 23
57.03734797701236
 33
-96.60402770221133
  0
3DFACE
  8
0
1001
WEBCAD
1000
E7
 10
-99.10023819496791
 20
54.67424220308658
 30
-82.39433039537636
 11
-96.34171030100578
 21
58.05601710543033
 31
-82.45565875770868
 12
-98.1774088119207
 22
57.03734797701236
 32
-96.60402770221133
 13
-98.1774088119207
 23
57.03734797701236
 33
-96.60402770221133
  0
3DFACE
  8
0
1001
WEBCAD
1000
E7
 10
-99.10023819496791
 20
54.67424220308658
 30
-82.39433039537636
 11
-98.1774088119207
 21
57.03734797701236
 31
-96.60402770221133
 12
-100.77229864729094
 22
53.27104014620181
 32
-96.44599183015879
 13
-100.77229864729094
 23
53.27104014620181
 33
-96.44599183015879
  0
3DFACE
  8
0
1001
WEBCAD
1000
E7
 10
-101.01782611981756
 20
50.7557279513776
 30
-82.44472323427402
 11
-99.10023819496791
 21
54.67424220308658
 31
-82.39433039537636
 12
-100.77229864729094
 22
53.27104014620181
 32
-96.44599183015879
 13
-100.77229864729094
 23
53.27104014620181
 33
-96.44599183015879
  0
3DFACE
  8
0
1001
WEBCAD
1000
E7
 10
-101.01782611981756
 20
50.7557279513776
 30
-82.44472323427402
 11
-100.77229864729094
 21
53.27104014620181
 31
-96.44599183015879
 12
-102.39211063788062
 22
48.99202555879947
 32
-96.34734304934268
 13
-102.39211063788062
 23
48.99202555879947
 33
-96.34734304934268
  0
3DFACE
  8
0
1001
WEBCAD
1000
E7
 10
-101.99555201578602
 20
46.509142105430335
 30
-82.60585472938004
 11
-102.39211063788062
 21
48.99202555879947
 31
-96.34734304934268
 12
-102.94271443696357
 22
44.44898432955142
 32
-96.3138150369835
 13
-102.94271443696357
 23
44.44898432955142
 33
-96.3138150369835
  0
3DFACE
  8
0
1001
WEBCAD
1000
E7
 10
-101.99555201578602
 20
46.509142105430335
 30
-82.60585472938004
 11
-101.01782611981756
 21
50.7557279513776
 31
-82.44472323427402
 12
-102.39211063788062
 22
48.99202555879947
 32
-96.34734304934268
 13
-102.39211063788062
 23
48.99202555879947
 33
-96.34734304934268
  0
3DFACE
  8
0
1001
WEBCAD
1000
E7
 10
-101.98512978973737
 20
42.15881175264713
 30
-82.87119456844036
 11
-102.94271443696357
 21
44.44898432955142
 31
-96.3138150369835
 12
-102.3921106378806
 22
39.90594691500064
 32
-96.34734304934267
 13
-102.3921106378806
 23
39.90594691500064
 33
-96.34734304934267
  0
3DFACE
  8
0
1001
WEBCAD
1000
E7
 10
-101.98512978973737
 20
42.15881175264713
 30
-82.87119456844036
 11
-101.99555201578602
 21
46.509142105430335
 31
-82.60585472938004
 12
-102.94271443696357
 22
44.44898432955142
 32
-96.3138150369835
 13
-102.94271443696357
 23
44.44898432955142
 33
-96.3138150369835
  0
3DFACE
  8
0
1001
WEBCAD
1000
E7
 10
-100.99016390123431
 20
37.932481949180335
 30
-83.22875626380912
 11
-102.3921106378806
 21
39.90594691500064
 31
-96.34734304934267
 12
-100.77229864729092
 22
35.6269323275983
 32
-96.44599183015879
 13
-100.77229864729092
 23
35.6269323275983
 33
-96.44599183015879
  0
3DFACE
  8
0
1001
WEBCAD
1000
E7
 10
-100.99016390123431
 20
37.932481949180335
 30
-83.22875626380912
 11
-101.98512978973737
 21
42.15881175264713
 31
-82.87119456844036
 12
-102.3921106378806
 22
39.90594691500064
 32
-96.34734304934267
 13
-102.3921106378806
 23
39.90594691500064
 33
-96.34734304934267
  0
3DFACE
  8
0
1001
WEBCAD
1000
E7
 10
-99.06464732898209
 20
34.04977244600651
 30
-83.66140236776714
 11
-100.77229864729092
 21
35.6269323275983
 31
-96.44599183015879
 12
-98.17740881192069
 22
31.86062449678775
 32
-96.60402770221133
 13
-98.17740881192069
 23
31.86062449678775
 33
-96.60402770221133
  0
3DFACE
  8
0
1001
WEBCAD
1000
E7
 10
-99.06464732898209
 20
34.04977244600651
 30
-83.66140236776714
 11
-100.99016390123431
 21
37.932481949180335
 31
-83.22875626380912
 12
-100.77229864729092
 22
35.6269323275983
 32
-96.44599183015879
 13
-100.77229864729092
 23
35.6269323275983
 33
-96.44599183015879
  0
3DFACE
  8
0
1001
WEBCAD
1000
E7
 10
-96.30940565734892
 20
30.711832229942054
 30
-84.14738009671372
 11
-98.17740881192069
 21
31.86062449678775
 31
-96.60402770221133
 12
-94.75825526012356
 22
28.82590312227603
 32
-96.81225984175325
 13
-94.75825526012356
 23
28.82590312227603
 33
-96.81225984175325
  0
3DFACE
  8
0
1001
WEBCAD
1000
E7
 10
-96.30940565734892
 20
30.711832229942054
 30
-84.14738009671372
 11
-99.06464732898209
 21
34.04977244600651
 31
-83.66140236776714
 12
-98.17740881192069
 22
31.86062449678775
 32
-96.60402770221133
 13
-98.17740881192069
 23
31.86062449678775
 33
-96.60402770221133
  0
3DFACE
  8
0
1001
WEBCAD
1000
E7
 10
-92.86676227814942
 20
28.092081253379547
 30
-84.66109426398863
 11
-94.75825526012356
 21
28.82590312227603
 31
-96.81225984175325
 12
-90.71354423611412
 22
26.69914073213932
 32
-97.05859016276939
 13
-90.71354423611412
 23
26.69914073213932
 33
-97.05859016276939
  0
3DFACE
  8
0
1001
WEBCAD
1000
E7
 10
-92.86676227814942
 20
28.092081253379547
 30
-84.66109426398863
 11
-96.30940565734892
 21
30.711832229942054
 31
-84.14738009671372
 12
-94.75825526012356
 22
28.82590312227603
 32
-96.81225984175325
 13
-94.75825526012356
 23
28.82590312227603
 33
-96.81225984175325
  0
3DFACE
  8
0
1001
WEBCAD
1000
E7
 10
-88.91416119884548
 20
26.328314010947913
 30
-85.17424014085127
 11
-90.71354423611412
 21
26.69914073213932
 31
-97.05859016276939
 12
-86.27833874631884
 22
25.603937332481117
 32
-97.32870010205104
 13
-86.27833874631884
 23
25.603937332481117
 33
-97.32870010205104
  0
3DFACE
  8
0
1001
WEBCAD
1000
E7
 10
-88.91416119884548
 20
26.328314010947913
 30
-85.17424014085127
 11
-92.86676227814942
 21
28.092081253379547
 31
-84.66109426398863
 12
-90.71354423611412
 22
26.69914073213932
 32
-97.05859016276939
 13
-90.71354423611412
 23
26.69914073213932
 33
-97.05859016276939
  0
3DFACE
  8
0
1001
WEBCAD
1000
E7
 10
-84.65652630704062
 20
25.51566905245182
 30
-85.6573029735965
 11
-86.27833874631884
 21
25.603937332481117
 31
-97.32870010205104
 12
-81.71039074714726
 22
25.603937332481117
 32
-97.60689387447331
 13
-81.71039074714726
 23
25.603937332481117
 33
-97.60689387447331
  0
3DFACE
  8
0
1001
WEBCAD
1000
E7
 10
-84.65652630704062
 20
25.51566905245182
 30
-85.6573029735965
 11
-88.91416119884548
 21
26.328314010947913
 31
-85.17424014085127
 12
-86.27833874631884
 22
25.603937332481117
 32
-97.32870010205104
 13
-86.27833874631884
 23
25.603937332481117
 33
-97.32870010205104
  0
3DFACE
  8
0
1001
WEBCAD
1000
E7
 10
-80.31705623260291
 20
25.700620834678382
 30
-86.08157070237385
 11
-81.71039074714726
 21
25.603937332481117
 31
-97.60689387447331
 12
-77.27518548935127
 22
26.69914073213932
 32
-97.8770114396213
 13
-77.27518548935127
 23
26.69914073213932
 33
-97.8770114396213
  0
3DFACE
  8
0
1001
WEBCAD
1000
E7
 10
-80.31705623260291
 20
25.700620834678382
 30
-86.08157070237385
 11
-84.65652630704062
 21
25.51566905245182
 31
-85.6573029735965
 12
-81.71039074714726
 22
25.603937332481117
 32
-97.60689387447331
 13
-81.71039074714726
 23
25.603937332481117
 33
-97.60689387447331
  0
3DFACE
  8
0
1001
WEBCAD
1000
E7
 10
-76.12602311891557
 20
26.87666529878971
 30
-86.4215203563448
 11
-77.27518548935127
 21
26.69914073213932
 31
-97.8770114396213
 12
-73.23047446534183
 22
28.82590312227604
 32
-98.12334176063746
 13
-73.23047446534183
 23
28.82590312227604
 33
-98.12334176063746
  0
3DFACE
  8
0
1001
WEBCAD
1000
E7
 10
-76.12602311891557
 20
26.87666529878971
 30
-86.4215203563448
 11
-80.31705623260291
 21
25.700620834678382
 31
-86.08157070237385
 12
-77.27518548935127
 22
26.69914073213932
 32
-97.8770114396213
 13
-77.27518548935127
 23
26.69914073213932
 33
-97.8770114396213
  0
3DFACE
  8
0
1001
WEBCAD
1000
E7
 10
-72.30780517901987
 20
28.982870285361976
 30
-86.65710552335412
 11
-73.23047446534183
 21
28.82590312227604
 31
-98.12334176063746
 12
-69.81132091354472
 22
31.860624496787757
 32
-98.33157390017938
 13
-69.81132091354472
 23
31.860624496787757
 33
-98.33157390017938
  0
3DFACE
  8
0
1001
WEBCAD
1000
E7
 10
-72.30780517901987
 20
28.982870285361976
 30
-86.65710552335412
 11
-76.12602311891557
 21
26.87666529878971
 31
-86.4215203563448
 12
-73.23047446534183
 22
28.82590312227604
 32
-98.12334176063746
 13
-73.23047446534183
 23
28.82590312227604
 33
-98.12334176063746
  0
3DFACE
  8
0
1001
WEBCAD
1000
E7
 10
-69.0669987817038
 20
31.906454269736976
 30
-86.77564437900497
 11
-69.81132091354472
 21
31.860624496787757
 31
-98.33157390017938
 12
-67.21643084617517
 22
35.626932327598304
 32
-98.48960214636558
 13
-67.21643084617517
 23
35.626932327598304
 33
-98.48960214636558
  0
3DFACE
  8
0
1001
WEBCAD
1000
E7
 10
-69.0669987817038
 20
31.906454269736976
 30
-86.77564437900497
 11
-72.30780517901987
 21
28.982870285361976
 31
-86.65710552335412
 12
-69.81132091354472
 22
31.860624496787757
 32
-98.33157390017938
 13
-69.81132091354472
 23
31.860624496787757
 33
-98.33157390017938
  0
3DFACE
  8
0
1001
WEBCAD
1000
E7
 10
-66.5756872288357
 20
35.489767258018226
 30
-86.7725886508232
 11
-69.0669987817038
 21
31.906454269736976
 31
-86.77564437900497
 12
-67.21643084617517
 22
35.626932327598304
 32
-98.48960214636558
 13
-67.21643084617517
 23
35.626932327598304
 33
-98.48960214636558
  0
3DFACE
  8
0
1001
WEBCAD
1000
E7
 10
-64.96368015118684
 20
39.54072779878971
 30
-86.65120992807033
 11
-67.21643084617517
 21
35.626932327598304
 31
-98.48960214636558
 12
-65.5966188555855
 22
39.90594691500065
 32
-98.58825092718169
 13
-65.5966188555855
 23
39.90594691500065
 33
-98.58825092718169
  0
3DFACE
  8
0
1001
WEBCAD
1000
E7
 10
-64.96368015118684
 20
39.54072779878971
 30
-86.65120992807033
 11
-66.5756872288357
 21
35.489767258018226
 31
-86.7725886508232
 12
-67.21643084617517
 22
35.626932327598304
 32
-98.48960214636558
 13
-67.21643084617517
 23
35.626932327598304
 33
-98.48960214636558
  0
3DFACE
  8
0
1001
WEBCAD
1000
E7
 10
-64.4720328112336
 20
41.974535171836585
 30
-86.53281233739168
 11
-65.5966188555855
 21
39.90594691500065
 31
-98.58825092718169
 12
-65.04601147556869
 22
44.44898432955143
 32
-98.62178668140685
 13
-65.04601147556869
 23
44.44898432955143
 33
-98.62178668140685
  0
3DFACE
  8
0
1001
WEBCAD
1000
E7
 10
-64.4720328112336
 20
41.974535171836585
 30
-86.53281233739168
 11
-64.96368015118684
 21
39.54072779878971
 31
-86.65120992807033
 12
-65.5966188555855
 22
39.90594691500065
 32
-98.58825092718169
 13
-65.5966188555855
 23
39.90594691500065
 33
-98.58825092718169
  0
3DFACE
  8
0
1001
WEBCAD
1000
E7
 10
-64.30057541757594
 20
44.44898432955143
 30
-86.38180546820976
 11
-64.4720328112336
 21
41.974535171836585
 31
-86.53281233739168
 12
-65.04601147556869
 22
44.44898432955143
 32
-98.62178668140685
 13
-65.04601147556869
 23
44.44898432955143
 33
-98.62178668140685
  0
3DFACE
  8
0
1001
WEBCAD
1000
E7
 10
-90.71354423611412
 20
26.69914073213932
 30
-97.05859016276939
 11
-94.75825526012356
 21
28.82590312227603
 31
-96.81225984175325
 12
-98.17740881192069
 22
31.86062449678775
 32
-96.60402770221133
 13
-98.17740881192069
 23
31.86062449678775
 33
-96.60402770221133
  0
3DFACE
  8
0
1001
WEBCAD
1000
E7
 10
-102.3921106378806
 20
39.90594691500064
 30
-96.34734304934267
 11
-98.17740881192069
 21
31.86062449678775
 31
-96.60402770221133
 12
-100.77229864729092
 22
35.6269323275983
 32
-96.44599183015879
 13
-100.77229864729092
 23
35.6269323275983
 33
-96.44599183015879
  0
3DFACE
  8
0
1001
WEBCAD
1000
E7
 10
-102.3921106378806
 20
39.90594691500064
 30
-96.34734304934267
 11
-90.71354423611412
 21
26.69914073213932
 31
-97.05859016276939
 12
-98.17740881192069
 22
31.86062449678775
 32
-96.60402770221133
 13
-98.17740881192069
 23
31.86062449678775
 33
-96.60402770221133
  0
3DFACE
  8
0
1001
WEBCAD
1000
E7
 10
-81.71039074714726
 20
25.603937332481117
 30
-97.60689387447331
 11
-86.27833874631884
 21
25.603937332481117
 31
-97.32870010205104
 12
-90.71354423611412
 22
26.69914073213932
 32
-97.05859016276939
 13
-90.71354423611412
 23
26.69914073213932
 33
-97.05859016276939
  0
3DFACE
  8
0
1001
WEBCAD
1000
E7
 10
-102.39211063788062
 20
48.99202555879947
 30
-96.34734304934268
 11
-102.3921106378806
 21
39.90594691500064
 31
-96.34734304934267
 12
-102.94271443696357
 22
44.44898432955142
 32
-96.3138150369835
 13
-102.94271443696357
 23
44.44898432955142
 33
-96.3138150369835
  0
3DFACE
  8
0
1001
WEBCAD
1000
E7
 10
-102.39211063788062
 20
48.99202555879947
 30
-96.34734304934268
 11
-90.71354423611412
 21
26.69914073213932
 31
-97.05859016276939
 12
-102.3921106378806
 22
39.90594691500064
 32
-96.34734304934267
 13
-102.3921106378806
 23
39.90594691500064
 33
-96.34734304934267
  0
3DFACE
  8
0
1001
WEBCAD
1000
E7
 10
-100.77229864729094
 20
53.27104014620181
 30
-96.44599183015879
 11
-81.71039074714726
 21
25.603937332481117
 31
-97.60689387447331
 12
-90.71354423611412
 22
26.69914073213932
 32
-97.05859016276939
 13
-90.71354423611412
 23
26.69914073213932
 33
-97.05859016276939
  0
3DFACE
  8
0
1001
WEBCAD
1000
E7
 10
-100.77229864729094
 20
53.27104014620181
 30
-96.44599183015879
 11
-90.71354423611412
 21
26.69914073213932
 31
-97.05859016276939
 12
-102.39211063788062
 22
48.99202555879947
 32
-96.34734304934268
 13
-102.39211063788062
 23
48.99202555879947
 33
-96.34734304934268
  0
3DFACE
  8
0
1001
WEBCAD
1000
E7
 10
-73.23047446534183
 20
28.82590312227604
 30
-98.12334176063746
 11
-77.27518548935127
 21
26.69914073213932
 31
-97.8770114396213
 12
-81.71039074714726
 22
25.603937332481117
 32
-97.60689387447331
 13
-81.71039074714726
 23
25.603937332481117
 33
-97.60689387447331
  0
3DFACE
  8
0
1001
WEBCAD
1000
E7
 10
-69.81132091354472
 20
31.860624496787757
 30
-98.33157390017938
 11
-73.23047446534183
 21
28.82590312227604
 31
-98.12334176063746
 12
-81.71039074714726
 22
25.603937332481117
 32
-97.60689387447331
 13
-81.71039074714726
 23
25.603937332481117
 33
-97.60689387447331
  0
3DFACE
  8
0
1001
WEBCAD
1000
E7
 10
-69.81132091354472
 20
31.860624496787757
 30
-98.33157390017938
 11
-81.71039074714726
 21
25.603937332481117
 31
-97.60689387447331
 12
-100.77229864729094
 22
53.27104014620181
 32
-96.44599183015879
 13
-100.77229864729094
 23
53.27104014620181
 33
-96.44599183015879
  0
3DFACE
  8
0
1001
WEBCAD
1000
E7
 10
-67.21643084617517
 20
35.626932327598304
 30
-98.48960214636558
 11
-98.1774088119207
 21
57.03734797701236
 31
-96.60402770221133
 12
-94.75825526012358
 22
60.07206935152408
 32
-96.81225984175325
 13
-94.75825526012358
 23
60.07206935152408
 33
-96.81225984175325
  0
3DFACE
  8
0
1001
WEBCAD
1000
E7
 10
-67.21643084617517
 20
35.626932327598304
 30
-98.48960214636558
 11
-100.77229864729094
 21
53.27104014620181
 31
-96.44599183015879
 12
-98.1774088119207
 22
57.03734797701236
 32
-96.60402770221133
 13
-98.1774088119207
 23
57.03734797701236
 33
-96.60402770221133
  0
3DFACE
  8
0
1001
WEBCAD
1000
E7
 10
-67.21643084617517
 20
35.626932327598304
 30
-98.48960214636558
 11
-69.81132091354472
 21
31.860624496787757
 31
-98.33157390017938
 12
-100.77229864729094
 22
53.27104014620181
 32
-96.44599183015879
 13
-100.77229864729094
 23
53.27104014620181
 33
-96.44599183015879
  0
3DFACE
  8
0
1001
WEBCAD
1000
E7
 10
-90.71354423611413
 20
62.1988317416608
 30
-97.05859016276939
 11
-67.21643084617517
 21
35.626932327598304
 31
-98.48960214636558
 12
-94.75825526012358
 22
60.07206935152408
 32
-96.81225984175325
 13
-94.75825526012358
 23
60.07206935152408
 33
-96.81225984175325
  0
3DFACE
  8
0
1001
WEBCAD
1000
E7
 10
-81.71039074714727
 20
63.294031326621734
 30
-97.60689387447333
 11
-90.71354423611413
 21
62.1988317416608
 31
-97.05859016276939
 12
-86.27833874631885
 22
63.294031326621734
 32
-97.32870010205106
 13
-86.27833874631885
 23
63.294031326621734
 33
-97.32870010205106
  0
3DFACE
  8
0
1001
WEBCAD
1000
E7
 10
-77.27518548935129
 20
62.1988317416608
 30
-97.87701143962131
 11
-65.5966188555855
 21
39.90594691500065
 31
-98.58825092718169
 12
-67.21643084617517
 22
35.626932327598304
 32
-98.48960214636558
 13
-67.21643084617517
 23
35.626932327598304
 33
-98.48960214636558
  0
3DFACE
  8
0
1001
WEBCAD
1000
E7
 10
-77.27518548935129
 20
62.1988317416608
 30
-97.87701143962131
 11
-67.21643084617517
 21
35.626932327598304
 31
-98.48960214636558
 12
-90.71354423611413
 22
62.1988317416608
 32
-97.05859016276939
 13
-90.71354423611413
 23
62.1988317416608
 33
-97.05859016276939
  0
3DFACE
  8
0
1001
WEBCAD
1000
E7
 10
-77.27518548935129
 20
62.1988317416608
 30
-97.87701143962131
 11
-90.71354423611413
 21
62.1988317416608
 31
-97.05859016276939
 12
-81.71039074714727
 22
63.294031326621734
 32
-97.60689387447333
 13
-81.71039074714727
 23
63.294031326621734
 33
-97.60689387447333
  0
3DFACE
  8
0
1001
WEBCAD
1000
E7
 10
-67.21643084617519
 20
53.27104014620182
 30
-98.48960214636558
 11
-65.5966188555855
 21
48.992025558799476
 31
-98.58825092718169
 12
-65.04601147556869
 22
44.44898432955143
 32
-98.62178668140685
 13
-65.04601147556869
 23
44.44898432955143
 33
-98.62178668140685
  0
3DFACE
  8
0
1001
WEBCAD
1000
E7
 10
-67.21643084617519
 20
53.27104014620182
 30
-98.48960214636558
 11
-65.04601147556869
 21
44.44898432955143
 31
-98.62178668140685
 12
-65.5966188555855
 22
39.90594691500065
 32
-98.58825092718169
 13
-65.5966188555855
 23
39.90594691500065
 33
-98.58825092718169
  0
3DFACE
  8
0
1001
WEBCAD
1000
E7
 10
-69.81132091354473
 20
57.03734797701236
 30
-98.33157390017938
 11
-77.27518548935129
 21
62.1988317416608
 31
-97.87701143962131
 12
-73.23047446534184
 22
60.07206935152408
 32
-98.12334176063746
 13
-73.23047446534184
 23
60.07206935152408
 33
-98.12334176063746
  0
3DFACE
  8
0
1001
WEBCAD
1000
E7
 10
-69.81132091354473
 20
57.03734797701236
 30
-98.33157390017938
 11
-65.5966188555855
 21
39.90594691500065
 31
-98.58825092718169
 12
-77.27518548935129
 22
62.1988317416608
 32
-97.87701143962131
 13
-77.27518548935129
 23
62.1988317416608
 33
-97.87701143962131
  0
3DFACE
  8
0
1001
WEBCAD
1000
E7
 10
-69.81132091354473
 20
57.03734797701236
 30
-98.33157390017938
 11
-67.21643084617519
 21
53.27104014620182
 31
-98.48960214636558
 12
-65.5966188555855
 22
39.90594691500065
 32
-98.58825092718169
 13
-65.5966188555855
 23
39.90594691500065
 33
-98.58825092718169
  0
ENDSEC
  0
EOF
