  0
SECTION
  2
HEADER
  9
$ACADVER
  1
AC1015
  0
ENDSEC
  0
SECTION
  2
TABLES
  0
TABLE
  2
LTYPE
 70
1
  0
LTYPE
  2
CONTINUOUS
 70
0
  3
Solid line
 72
65
 73
0
 40
0.0
  0
ENDTAB
  0
TABLE
  2
LAYER
 70
1
  0
LAYER
  2
0
 70
0
 62
7
  6
CONTINUOUS
  0
ENDTAB
  0
ENDSEC
  0
SECTION
  2
BLOCKS
  0
ENDSEC
  0
SECTION
  2
ENTITIES
  0
POLYLINE
  8
OUTLINE
 66
1
 70
1
  0
VERTEX
  8
OUTLINE
 10
0
 20
0
 30
0.0
  0
VERTEX
  8
OUTLINE
 10
48.5
 20
0
 30
0.0
  0
VERTEX
  8
OUTLINE
 10
50
 20
1.5
 30
0.0
  0
VERTEX
  8
OUTLINE
 10
50
 20
4.5
 30
0.0
  0
VERTEX
  8
OUTLINE
 10
48.5
 20
6
 30
0.0
  0
VERTEX
  8
OUTLINE
 10
0
 20
6
 30
0.0
  0
VERTEX
  8
OUTLINE
 10
0
 20
0
 30
0.0
  0
SEQEND
  0
POLYLINE
  8
OUTLINE
 66
1
 70
1
  0
VERTEX
  8
OUTLINE
 10
0
 20
0
 30
0.0
  0
VERTEX
  8
OUTLINE
 10
48.5
 20
0
 30
0.0
  0
VERTEX
  8
OUTLINE
 10
50
 20
-1.5
 30
0.0
  0
VERTEX
  8
OUTLINE
 10
50
 20
-4.5
 30
0.0
  0
VERTEX
  8
OUTLINE
 10
48.5
 20
-6
 30
0.0
  0
VERTEX
  8
OUTLINE
 10
0
 20
-6
 30
0.0
  0
VERTEX
  8
OUTLINE
 10
0
 20
0
 30
0.0
  0
SEQEND
  0
POLYLINE
  8
OUTLINE
 66
1
 70
1
  0
VERTEX
  8
OUTLINE
 10
-8
 20
-9.5
 30
0.0
  0
VERTEX
  8
OUTLINE
 10
0
 20
-9.5
 30
0.0
  0
VERTEX
  8
OUTLINE
 10
0
 20
9.5
 30
0.0
  0
VERTEX
  8
OUTLINE
 10
-8
 20
9.5
 30
0.0
  0
VERTEX
  8
OUTLINE
 10
-8
 20
-9.5
 30
0.0
  0
SEQEND
  0
LINE
  8
OUTLINE
 10
-8
 20
-4.75
 30
0
 11
0
 21
-4.75
 31
0
  0
LINE
  8
OUTLINE
 10
-8
 20
4.75
 30
0
 11
0
 21
4.75
 31
0
  0
LINE
  8
THREADS
 10
15
 20
5.1
 30
0
 11
48.5
 21
5.1
 31
0
  0
LINE
  8
THREADS
 10
15
 20
-5.1
 30
0
 11
48.5
 21
-5.1
 31
0
  0
LINE
  8
THREADS
 10
15
 20
-6
 30
0
 11
15
 21
6
 31
0
  0
HATCH
  8
HATCH
  2
ANSI31
 70
0
 71
0
 41
1.5
 52
0
 91
1
 92
0
 93
6
 10
0
 20
0
 10
48.5
 20
0
 10
50
 20
1.5
 10
50
 20
4.5
 10
48.5
 20
6
 10
0
 20
6
 73
1
 75
0
 76
0
 98
0
  0
HATCH
  8
HATCH
  2
ANSI31
 70
0
 71
0
 41
1.5
 52
0
 91
1
 92
0
 93
6
 10
0
 20
0
 10
48.5
 20
0
 10
50
 20
-1.5
 10
50
 20
-4.5
 10
48.5
 20
-6
 10
0
 20
-6
 73
1
 75
0
 76
0
 98
0
  0
LINE
  8
CENTER
 10
-16
 20
0
 30
0
 11
58
 21
0
 31
0
  0
DIMENSION
  8
DIMENSIONS
 70
1
 10
0
 20
-6
 30
0.0
 13
0
 23
-6
 33
0.0
 14
50
 24
-6
 34
0.0
 40
2.5
  1
50.00
 50
0
  0
DIMENSION
  8
DIMENSIONS
 70
1
 10
-8
 20
9.5
 30
0.0
 13
-8
 23
9.5
 33
0.0
 14
0
 24
9.5
 34
0.0
 40
2.5
  1
8.00
 50
0
  0
DIMENSION
  8
DIMENSIONS
 70
1
 10
50
 20
-6
 30
0.0
 13
50
 23
-6
 33
0.0
 14
50
 24
6
 34
0.0
 40
2.5
  1
12.00
 50
90
  0
DIMENSION
  8
DIMENSIONS
 70
1
 10
-8
 20
-9.5
 30
0.0
 13
-8
 23
-9.5
 33
0.0
 14
-8
 24
9.5
 34
0.0
 40
2.5
  1
19.00
 50
90
  0
MTEXT
  8
NOTES
 10
15
 20
34.5
 30
0.0
 40
3.5
 41
200
  1
M12 HEX HEAD BOLT - SECTIONAL PROFILE VIEW
 50
0
 71
1
  0
MTEXT
  8
NOTES
 10
15
 20
29.5
 30
0.0
 40
2.2
 41
150
  1
ALL DIMENSIONS IN MILLIMETERS
 50
0
 71
1
  0
ENDSEC
  0
EOF
