  0
SECTION
  2
HEADER
  9
$ACADVER
  1
AC1015
  0
ENDSEC
  0
SECTION
  2
TABLES
  0
TABLE
  2
LTYPE
 70
1
  0
LTYPE
  2
CONTINUOUS
 70
0
  3
Solid line
 72
65
 73
0
 40
0.0
  0
ENDTAB
  0
TABLE
  2
LAYER
 70
1
  0
LAYER
  2
0
 70
0
 62
7
  6
CONTINUOUS
  0
ENDTAB
  0
ENDSEC
  0
SECTION
  2
BLOCKS
  0
ENDSEC
  0
SECTION
  2
ENTITIES
  0
POLYLINE
  8
PAPER_BORDER
 66
1
 70
1
  0
VERTEX
  8
PAPER_BORDER
 10
0
 20
0
 30
0.0
  0
VERTEX
  8
PAPER_BORDER
 10
420
 20
0
 30
0.0
  0
VERTEX
  8
PAPER_BORDER
 10
420
 20
297
 30
0.0
  0
VERTEX
  8
PAPER_BORDER
 10
0
 20
297
 30
0.0
  0
VERTEX
  8
PAPER_BORDER
 10
0
 20
0
 30
0.0
  0
SEQEND
  0
POLYLINE
  8
BORDER_FRAME
 66
1
 70
1
  0
VERTEX
  8
BORDER_FRAME
 10
20
 20
10
 30
0.0
  0
VERTEX
  8
BORDER_FRAME
 10
410
 20
10
 30
0.0
  0
VERTEX
  8
BORDER_FRAME
 10
410
 20
287
 30
0.0
  0
VERTEX
  8
BORDER_FRAME
 10
20
 20
287
 30
0.0
  0
VERTEX
  8
BORDER_FRAME
 10
20
 20
10
 30
0.0
  0
SEQEND
  0
POLYLINE
  8
TITLE_BLOCK
 66
1
 70
1
  0
VERTEX
  8
TITLE_BLOCK
 10
290
 20
10
 30
0.0
  0
VERTEX
  8
TITLE_BLOCK
 10
410
 20
10
 30
0.0
  0
VERTEX
  8
TITLE_BLOCK
 10
410
 20
40
 30
0.0
  0
VERTEX
  8
TITLE_BLOCK
 10
290
 20
40
 30
0.0
  0
VERTEX
  8
TITLE_BLOCK
 10
290
 20
10
 30
0.0
  0
SEQEND
  0
LINE
  8
TITLE_BLOCK
 10
290
 20
25
 30
0
 11
410
 21
25
 31
0
  0
LINE
  8
TITLE_BLOCK
 10
370
 20
10
 30
0
 11
370
 21
25
 31
0
  0
MTEXT
  8
TITLE_TEXT
 10
295
 20
30
 30
0.0
 40
3.2
 41
110
  1
M12 HEX HEAD BOLT PROFILE
 50
0
 71
1
  0
MTEXT
  8
TITLE_TEXT
 10
295
 20
20
 30
0.0
 40
1.8
 41
70
  1
DRAWING NO:
 50
0
 71
1
  0
MTEXT
  8
TITLE_TEXT
 10
295
 20
14
 30
0.0
 40
2.5
 41
70
  1
CAD-BOLT-001
 50
0
 71
1
  0
MTEXT
  8
TITLE_TEXT
 10
375
 20
20
 30
0.0
 40
1.8
 41
30
  1
SCALE:
 50
0
 71
1
  0
MTEXT
  8
TITLE_TEXT
 10
375
 20
14
 30
0.0
 40
2.5
 41
30
  1
1:1
 50
0
 71
1
  0
MTEXT
  8
NOTES
 10
194
 20
183
 30
0.0
 40
3.5
 41
200
  1
M12 HEX HEAD BOLT - SECTIONAL PROFILE VIEW
 50
0
 71
1
  0
MTEXT
  8
NOTES
 10
194
 20
178
 30
0.0
 40
2.2
 41
150
  1
ALL DIMENSIONS IN MILLIMETERS
 50
0
 71
1
  0
ENDSEC
  0
EOF
