  0
SECTION
  2
HEADER
  9
$ACADVER
  1
AC1015
  0
ENDSEC
  0
SECTION
  2
TABLES
  0
TABLE
  2
LTYPE
 70
1
  0
LTYPE
  2
CONTINUOUS
 70
0
  3
Solid line
 72
65
 73
0
 40
0.0
  0
ENDTAB
  0
TABLE
  2
LAYER
 70
1
  0
LAYER
  2
0
 70
0
 62
7
  6
CONTINUOUS
  0
ENDTAB
  0
ENDSEC
  0
SECTION
  2
BLOCKS
  0
ENDSEC
  0
SECTION
  2
ENTITIES
  0
POLYLINE
  8
0
 66
1
 70
1
  0
VERTEX
  8
0
 10
-8.446338266189478
 20
-3.914554532218107
 30
0.0
  0
VERTEX
  8
0
 10
-8.534256236612869
 20
-3.6398455475370444
 30
0.0
  0
VERTEX
  8
0
 10
-8.622174207036261
 20
-3.365136562855982
 30
0.0
  0
VERTEX
  8
0
 10
-8.710092177459652
 20
-3.0904275781749204
 30
0.0
  0
VERTEX
  8
0
 10
-8.798010147883044
 20
-2.81571859349386
 30
0.0
  0
VERTEX
  8
0
 10
-8.885928118306435
 20
-2.5410096088127982
 30
0.0
  0
VERTEX
  8
0
 10
-8.973846088729825
 20
-2.2663006241317367
 30
0.0
  0
VERTEX
  8
0
 10
-9.061764059153218
 20
-1.9915916394506752
 30
0.0
  0
VERTEX
  8
0
 10
-9.149682029576608
 20
-1.7168826547696128
 30
0.0
  0
VERTEX
  8
0
 10
-9.2376
 20
-1.4421736700885504
 30
0.0
  0
VERTEX
  8
0
 10
-9.2376
 20
-0.9741282820175998
 30
0.0
  0
VERTEX
  8
0
 10
-9.2376
 20
-0.5060828939466493
 30
0.0
  0
VERTEX
  8
0
 10
-9.2376
 20
-0.03803750587569965
 30
0.0
  0
VERTEX
  8
0
 10
-9.2376
 20
0.43000788219525177
 30
0.0
  0
VERTEX
  8
0
 10
-9.2376
 20
0.8980532702662014
 30
0.0
  0
VERTEX
  8
0
 10
-9.2376
 20
1.366098658337151
 30
0.0
  0
VERTEX
  8
0
 10
-9.2376
 20
1.8341440464081025
 30
0.0
  0
VERTEX
  8
0
 10
-9.2376
 20
2.302189434479052
 30
0.0
  0
VERTEX
  8
0
 10
-9.2376
 20
2.7702348225500018
 30
0.0
  0
VERTEX
  8
0
 10
-9.2376
 20
3.238280210620953
 30
0.0
  0
VERTEX
  8
0
 10
-8.676641032034224
 20
3.6383129582231044
 30
0.0
  0
VERTEX
  8
0
 10
-8.11568206406845
 20
4.038345705825255
 30
0.0
  0
VERTEX
  8
0
 10
-7.5547230961026735
 20
4.438378453427406
 30
0.0
  0
VERTEX
  8
0
 10
-6.993764128136899
 20
4.838411201029557
 30
0.0
  0
VERTEX
  8
0
 10
-6.432805160171123
 20
5.2384439486317085
 30
0.0
  0
VERTEX
  8
0
 10
-5.871846192205348
 20
5.63847669623386
 30
0.0
  0
VERTEX
  8
0
 10
-5.310887224239572
 20
6.038509443836011
 30
0.0
  0
VERTEX
  8
0
 10
-4.749928256273797
 20
6.438542191438161
 30
0.0
  0
VERTEX
  8
0
 10
-4.188969288308021
 20
6.838574939040313
 30
0.0
  0
VERTEX
  8
0
 10
-3.6280103203422467
 20
7.238607686642464
 30
0.0
  0
VERTEX
  8
0
 10
-3.390105250037359
 20
7.314746917978234
 30
0.0
  0
VERTEX
  8
0
 10
-3.1522001797324597
 20
7.390886149313986
 30
0.0
  0
VERTEX
  8
0
 10
-2.914295109427562
 20
7.467025380649737
 30
0.0
  0
VERTEX
  8
0
 10
-2.6763900391226665
 20
7.543164611985489
 30
0.0
  0
VERTEX
  8
0
 10
-2.438484968817769
 20
7.619303843321241
 30
0.0
  0
VERTEX
  8
0
 10
-2.2005798985128715
 20
7.695443074656993
 30
0.0
  0
VERTEX
  8
0
 10
-1.962674828207974
 20
7.7715823059927445
 30
0.0
  0
VERTEX
  8
0
 10
-1.7247697579030765
 20
7.847721537328496
 30
0.0
  0
VERTEX
  8
0
 10
-1.4868646875981781
 20
7.923860768664248
 30
0.0
  0
VERTEX
  8
0
 10
-1.2489596172932815
 20
7.999999999999999
 30
0.0
  0
VERTEX
  8
0
 10
-0.5599740130203266
 20
8
 30
0.0
  0
VERTEX
  8
0
 10
0.12901159125262396
 20
8
 30
0.0
  0
VERTEX
  8
0
 10
0.8179971955255745
 20
8
 30
0.0
  0
VERTEX
  8
0
 10
1.5069827997985268
 20
8
 30
0.0
  0
VERTEX
  8
0
 10
2.195968404071479
 20
8
 30
0.0
  0
VERTEX
  8
0
 10
2.8849540083444296
 20
8
 30
0.0
  0
VERTEX
  8
0
 10
3.57393961261738
 20
8
 30
0.0
  0
VERTEX
  8
0
 10
4.262925216890332
 20
8
 30
0.0
  0
VERTEX
  8
0
 10
4.951910821163285
 20
8
 30
0.0
  0
VERTEX
  8
0
 10
5.640896425436235
 20
8
 30
0.0
  0
VERTEX
  8
0
 10
5.912648812469223
 20
7.61892635168991
 30
0.0
  0
VERTEX
  8
0
 10
6.1844011995022115
 20
7.2378527033798195
 30
0.0
  0
VERTEX
  8
0
 10
6.4561535865351996
 20
6.8567790550697305
 30
0.0
  0
VERTEX
  8
0
 10
6.727905973568189
 20
6.475705406759638
 30
0.0
  0
VERTEX
  8
0
 10
6.9996583606011775
 20
6.094631758449548
 30
0.0
  0
VERTEX
  8
0
 10
7.271410747634166
 20
5.713558110139458
 30
0.0
  0
VERTEX
  8
0
 10
7.543163134667155
 20
5.3324844618293685
 30
0.0
  0
VERTEX
  8
0
 10
7.814915521700143
 20
4.951410813519279
 30
0.0
  0
VERTEX
  8
0
 10
8.086667908733132
 20
4.570337165209188
 30
0.0
  0
VERTEX
  8
0
 10
8.35842029576612
 20
4.189263516899098
 30
0.0
  0
VERTEX
  8
0
 10
8.4463382661895
 20
3.9145545322180375
 30
0.0
  0
VERTEX
  8
0
 10
8.534256236612888
 20
3.639845547536982
 30
0.0
  0
VERTEX
  8
0
 10
8.622174207036277
 20
3.3651365628559278
 30
0.0
  0
VERTEX
  8
0
 10
8.710092177459666
 20
3.0904275781748733
 30
0.0
  0
VERTEX
  8
0
 10
8.798010147883055
 20
2.815718593493819
 30
0.0
  0
VERTEX
  8
0
 10
8.885928118306445
 20
2.5410096088127645
 30
0.0
  0
VERTEX
  8
0
 10
8.973846088729834
 20
2.266300624131709
 30
0.0
  0
VERTEX
  8
0
 10
9.061764059153223
 20
1.9915916394506539
 30
0.0
  0
VERTEX
  8
0
 10
9.149682029576612
 20
1.7168826547696003
 30
0.0
  0
VERTEX
  8
0
 10
9.2376
 20
1.442173670088545
 30
0.0
  0
VERTEX
  8
0
 10
9.2376
 20
0.9741282820175972
 30
0.0
  0
VERTEX
  8
0
 10
9.2376
 20
0.5060828939466475
 30
0.0
  0
VERTEX
  8
0
 10
9.2376
 20
0.038037505875697875
 30
0.0
  0
VERTEX
  8
0
 10
9.2376
 20
-0.43000788219525177
 30
0.0
  0
VERTEX
  8
0
 10
9.2376
 20
-0.8980532702662014
 30
0.0
  0
VERTEX
  8
0
 10
9.2376
 20
-1.366098658337151
 30
0.0
  0
VERTEX
  8
0
 10
9.2376
 20
-1.8341440464081007
 30
0.0
  0
VERTEX
  8
0
 10
9.2376
 20
-2.3021894344790503
 30
0.0
  0
VERTEX
  8
0
 10
9.2376
 20
-2.77023482255
 30
0.0
  0
VERTEX
  8
0
 10
9.2376
 20
-3.2382802106209496
 30
0.0
  0
VERTEX
  8
0
 10
8.676641032034217
 20
-3.638312958223107
 30
0.0
  0
VERTEX
  8
0
 10
8.115682064068432
 20
-4.038345705825265
 30
0.0
  0
VERTEX
  8
0
 10
7.554723096102647
 20
-4.438378453427424
 30
0.0
  0
VERTEX
  8
0
 10
6.993764128136862
 20
-4.838411201029581
 30
0.0
  0
VERTEX
  8
0
 10
6.432805160171078
 20
-5.238443948631738
 30
0.0
  0
VERTEX
  8
0
 10
5.871846192205293
 20
-5.638476696233896
 30
0.0
  0
VERTEX
  8
0
 10
5.310887224239508
 20
-6.038509443836054
 30
0.0
  0
VERTEX
  8
0
 10
4.749928256273724
 20
-6.438542191438212
 30
0.0
  0
VERTEX
  8
0
 10
4.188969288307939
 20
-6.838574939040369
 30
0.0
  0
VERTEX
  8
0
 10
3.6280103203421543
 20
-7.238607686642528
 30
0.0
  0
VERTEX
  8
0
 10
3.3901052500372595
 20
-7.314746917978265
 30
0.0
  0
VERTEX
  8
0
 10
3.1522001797323718
 20
-7.390886149314014
 30
0.0
  0
VERTEX
  8
0
 10
2.914295109427485
 20
-7.467025380649762
 30
0.0
  0
VERTEX
  8
0
 10
2.6763900391225963
 20
-7.54316461198551
 30
0.0
  0
VERTEX
  8
0
 10
2.4384849688177095
 20
-7.6193038433212585
 30
0.0
  0
VERTEX
  8
0
 10
2.200579898512821
 20
-7.695443074657007
 30
0.0
  0
VERTEX
  8
0
 10
1.9626748282079358
 20
-7.771582305992755
 30
0.0
  0
VERTEX
  8
0
 10
1.7247697579030472
 20
-7.847721537328503
 30
0.0
  0
VERTEX
  8
0
 10
1.4868646875981604
 20
-7.923860768664253
 30
0.0
  0
VERTEX
  8
0
 10
1.2489596172932735
 20
-8
 30
0.0
  0
VERTEX
  8
0
 10
0.5599740130203248
 20
-8
 30
0.0
  0
VERTEX
  8
0
 10
-0.12901159125262573
 20
-8
 30
0.0
  0
VERTEX
  8
0
 10
-0.817997195525578
 20
-8
 30
0.0
  0
VERTEX
  8
0
 10
-1.5069827997985286
 20
-8
 30
0.0
  0
VERTEX
  8
0
 10
-2.195968404071479
 20
-8
 30
0.0
  0
VERTEX
  8
0
 10
-2.8849540083444296
 20
-8
 30
0.0
  0
VERTEX
  8
0
 10
-3.573939612617381
 20
-8
 30
0.0
  0
VERTEX
  8
0
 10
-4.2629252168903315
 20
-8
 30
0.0
  0
VERTEX
  8
0
 10
-4.951910821163283
 20
-8
 30
0.0
  0
VERTEX
  8
0
 10
-5.6408964254362335
 20
-8
 30
0.0
  0
VERTEX
  8
0
 10
-5.912648812469218
 20
-7.6189263516899155
 30
0.0
  0
VERTEX
  8
0
 10
-6.184401199502203
 20
-7.237852703379832
 30
0.0
  0
VERTEX
  8
0
 10
-6.456153586535186
 20
-6.856779055069748
 30
0.0
  0
VERTEX
  8
0
 10
-6.72790597356817
 20
-6.475705406759664
 30
0.0
  0
VERTEX
  8
0
 10
-6.999658360601154
 20
-6.09463175844958
 30
0.0
  0
VERTEX
  8
0
 10
-7.271410747634138
 20
-5.7135581101394965
 30
0.0
  0
VERTEX
  8
0
 10
-7.543163134667123
 20
-5.332484461829413
 30
0.0
  0
VERTEX
  8
0
 10
-7.814915521700106
 20
-4.951410813519328
 30
0.0
  0
VERTEX
  8
0
 10
-8.08666790873309
 20
-4.570337165209244
 30
0.0
  0
VERTEX
  8
0
 10
-8.358420295766074
 20
-4.18926351689916
 30
0.0
  0
SEQEND
  0
POLYLINE
  8
0
 66
1
 70
1
  0
VERTEX
  8
0
 10
4.5
 20
0
 30
0.0
  0
VERTEX
  8
0
 10
3.6405764746872635
 20
2.6450336353161292
 30
0.0
  0
VERTEX
  8
0
 10
1.3905764746872635
 20
4.2797543233281905
 30
0.0
  0
VERTEX
  8
0
 10
-1.390576474687263
 20
4.279754323328191
 30
0.0
  0
VERTEX
  8
0
 10
-3.640576474687263
 20
2.6450336353161297
 30
0.0
  0
VERTEX
  8
0
 10
-4.5
 20
5.51091059616309e-16
 30
0.0
  0
VERTEX
  8
0
 10
-3.6405764746872635
 20
-2.645033635316129
 30
0.0
  0
VERTEX
  8
0
 10
-1.390576474687264
 20
-4.2797543233281905
 30
0.0
  0
VERTEX
  8
0
 10
1.3905764746872626
 20
-4.279754323328191
 30
0.0
  0
VERTEX
  8
0
 10
3.640576474687263
 20
-2.64503363531613
 30
0.0
  0
SEQEND
  0
ENDSEC
  0
EOF
