  0
SECTION
  2
HEADER
  9
$ACADVER
  1
AC1015
  0
ENDSEC
  0
SECTION
  2
TABLES
  0
TABLE
  2
LTYPE
 70
1
  0
LTYPE
  2
CONTINUOUS
 70
0
  3
Solid line
 72
65
 73
0
 40
0.0
  0
ENDTAB
  0
TABLE
  2
LAYER
 70
1
  0
LAYER
  2
0
 70
0
 62
7
  6
CONTINUOUS
  0
ENDTAB
  0
ENDSEC
  0
SECTION
  2
BLOCKS
  0
ENDSEC
  0
SECTION
  2
ENTITIES
  0
POLYLINE
  8
0
 66
1
 70
0
  0
VERTEX
  8
0
 10
23.94982529525087
 20
18.3082885729558
 30
0.0
  0
VERTEX
  8
0
 10
24.00405992650193
 20
18.24493373638019
 30
0.0
  0
VERTEX
  8
0
 10
23.975947441009154
 20
18.220868165909774
 30
0.0
  0
VERTEX
  8
0
 10
24.130644375430343
 20
18.003939343955714
 30
0.0
  0
VERTEX
  8
0
 10
24.285341309851535
 20
17.787010522001655
 30
0.0
  0
VERTEX
  8
0
 10
24.440038244272724
 20
17.570081700047595
 30
0.0
  0
VERTEX
  8
0
 10
24.594735178693917
 20
17.353152878093535
 30
0.0
  0
VERTEX
  8
0
 10
24.749432113115105
 20
17.136224056139476
 30
0.0
  0
VERTEX
  8
0
 10
24.904129047536298
 20
16.919295234185416
 30
0.0
  0
VERTEX
  8
0
 10
25.058825981957487
 20
16.702366412231356
 30
0.0
  0
VERTEX
  8
0
 10
25.21352291637868
 20
16.485437590277296
 30
0.0
  0
VERTEX
  8
0
 10
25.368219850799868
 20
16.268508768323237
 30
0.0
  0
VERTEX
  8
0
 10
25.52291678522106
 20
16.051579946369177
 30
0.0
  0
VERTEX
  8
0
 10
25.180960777599903
 20
15.807723249000004
 30
0.0
  0
VERTEX
  8
0
 10
24.839004769978747
 20
15.563866551630833
 30
0.0
  0
VERTEX
  8
0
 10
24.49704876235759
 20
15.32000985426166
 30
0.0
  0
VERTEX
  8
0
 10
24.155092754736437
 20
15.076153156892488
 30
0.0
  0
VERTEX
  8
0
 10
23.81313674711528
 20
14.832296459523317
 30
0.0
  0
VERTEX
  8
0
 10
23.471180739494123
 20
14.588439762154144
 30
0.0
  0
VERTEX
  8
0
 10
23.129224731872966
 20
14.344583064784972
 30
0.0
  0
VERTEX
  8
0
 10
22.787268724251813
 20
14.1007263674158
 30
0.0
  0
VERTEX
  8
0
 10
22.445312716630657
 20
13.856869670046628
 30
0.0
  0
VERTEX
  8
0
 10
22.1033567090095
 20
13.613012972677456
 30
0.0
  0
VERTEX
  8
0
 10
22.001749753225997
 20
13.755494640481174
 30
0.0
  0
VERTEX
  8
0
 10
21.90014279744249
 20
13.897976308284894
 30
0.0
  0
VERTEX
  8
0
 10
21.79853584165899
 20
14.040457976088613
 30
0.0
  0
VERTEX
  8
0
 10
21.696928885875483
 20
14.182939643892333
 30
0.0
  0
VERTEX
  8
0
 10
21.59532193009198
 20
14.32542131169605
 30
0.0
  0
VERTEX
  8
0
 10
21.493714974308475
 20
14.46790297949977
 30
0.0
  0
VERTEX
  8
0
 10
21.392108018524972
 20
14.610384647303489
 30
0.0
  0
VERTEX
  8
0
 10
21.290501062741466
 20
14.752866315107209
 30
0.0
  0
VERTEX
  8
0
 10
21.188894106957964
 20
14.895347982910927
 30
0.0
  0
VERTEX
  8
0
 10
21.087287151174458
 20
15.037829650714645
 30
0.0
  0
VERTEX
  8
0
 10
21.02069055349684
 20
15.131216901951445
 30
0.0
  0
VERTEX
  8
0
 10
20.95409395581922
 20
15.224604153188244
 30
0.0
  0
VERTEX
  8
0
 10
20.8874973581416
 20
15.317991404425044
 30
0.0
  0
VERTEX
  8
0
 10
20.82090076046398
 20
15.411378655661842
 30
0.0
  0
VERTEX
  8
0
 10
20.754304162786365
 20
15.50476590689864
 30
0.0
  0
VERTEX
  8
0
 10
20.687707565108745
 20
15.59815315813544
 30
0.0
  0
VERTEX
  8
0
 10
20.621110967431125
 20
15.691540409372239
 30
0.0
  0
VERTEX
  8
0
 10
20.554514369753505
 20
15.78492766060904
 30
0.0
  0
VERTEX
  8
0
 10
20.48791777207589
 20
15.878314911845838
 30
0.0
  0
VERTEX
  8
0
 10
20.42132117439827
 20
15.971702163082636
 30
0.0
  0
VERTEX
  8
0
 10
20.38631081338508
 20
16.020796583726415
 30
0.0
  0
VERTEX
  8
0
 10
20.351300452371895
 20
16.06989100437019
 30
0.0
  0
VERTEX
  8
0
 10
20.31629009135871
 20
16.11898542501397
 30
0.0
  0
VERTEX
  8
0
 10
20.28127973034552
 20
16.16807984565775
 30
0.0
  0
VERTEX
  8
0
 10
20.246269369332335
 20
16.21717426630153
 30
0.0
  0
VERTEX
  8
0
 10
20.211259008319146
 20
16.26626868694531
 30
0.0
  0
VERTEX
  8
0
 10
20.17624864730596
 20
16.315363107589086
 30
0.0
  0
VERTEX
  8
0
 10
20.141238286292772
 20
16.364457528232865
 30
0.0
  0
VERTEX
  8
0
 10
20.106227925279587
 20
16.413551948876645
 30
0.0
  0
VERTEX
  8
0
 10
20.071217564266398
 20
16.46264636952042
 30
0.0
  0
VERTEX
  8
0
 10
20.410160592351502
 20
16.704354441854417
 30
0.0
  0
VERTEX
  8
0
 10
20.7491036204366
 20
16.946062514188412
 30
0.0
  0
VERTEX
  8
0
 10
21.088046648521697
 20
17.187770586522408
 30
0.0
  0
VERTEX
  8
0
 10
21.426989676606798
 20
17.429478658856404
 30
0.0
  0
VERTEX
  8
0
 10
21.7659327046919
 20
17.6711867311904
 30
0.0
  0
VERTEX
  8
0
 10
22.104875732776996
 20
17.912894803524395
 30
0.0
  0
VERTEX
  8
0
 10
22.443818760862094
 20
18.15460287585839
 30
0.0
  0
VERTEX
  8
0
 10
22.782761788947195
 20
18.396310948192387
 30
0.0
  0
VERTEX
  8
0
 10
23.121704817032295
 20
18.638019020526382
 30
0.0
  0
VERTEX
  8
0
 10
23.460647845117393
 20
18.879727092860378
 30
0.0
  0
VERTEX
  8
0
 10
23.515095630143236
 20
18.81612325813995
 30
0.0
  0
VERTEX
  8
0
 10
23.569543415169083
 20
18.752519423419518
 30
0.0
  0
VERTEX
  8
0
 10
23.623991200194926
 20
18.68891558869909
 30
0.0
  0
VERTEX
  8
0
 10
23.67843898522077
 20
18.62531175397866
 30
0.0
  0
VERTEX
  8
0
 10
23.732886770246612
 20
18.56170791925823
 30
0.0
  0
VERTEX
  8
0
 10
23.781498904399122
 20
18.49353996858854
 30
0.0
  0
VERTEX
  8
0
 10
23.83011103855163
 20
18.42537201791885
 30
0.0
  0
VERTEX
  8
0
 10
23.878723172704138
 20
18.357204067249157
 30
0.0
  0
VERTEX
  8
0
 10
23.927335306856644
 20
18.289036116579467
 30
0.0
  0
VERTEX
  8
0
 10
23.975947441009154
 20
18.220868165909774
 30
0.0
  0
VERTEX
  8
0
 10
23.659697999355394
 20
17.950144212088546
 30
0.0
  0
VERTEX
  8
0
 10
23.34344855770164
 20
17.679420258267314
 30
0.0
  0
VERTEX
  8
0
 10
23.027199116047882
 20
17.40869630444608
 30
0.0
  0
VERTEX
  8
0
 10
22.710949674394126
 20
17.137972350624853
 30
0.0
  0
VERTEX
  8
0
 10
22.39470023274037
 20
16.86724839680362
 30
0.0
  0
VERTEX
  8
0
 10
22.078450791086613
 20
16.596524442982393
 30
0.0
  0
VERTEX
  8
0
 10
21.762201349432857
 20
16.32580048916116
 30
0.0
  0
VERTEX
  8
0
 10
21.4459519077791
 20
16.05507653533993
 30
0.0
  0
VERTEX
  8
0
 10
21.129702466125345
 20
15.784352581518698
 30
0.0
  0
VERTEX
  8
0
 10
20.81345302447159
 20
15.513628627697468
 30
0.0
  0
VERTEX
  8
0
 10
20.774239839464258
 20
15.559435981235985
 30
0.0
  0
VERTEX
  8
0
 10
20.735026654456924
 20
15.605243334774501
 30
0.0
  0
VERTEX
  8
0
 10
20.695813469449593
 20
15.651050688313019
 30
0.0
  0
VERTEX
  8
0
 10
20.65660028444226
 20
15.696858041851534
 30
0.0
  0
VERTEX
  8
0
 10
20.61738709943493
 20
15.742665395390052
 30
0.0
  0
VERTEX
  8
0
 10
20.578173914427598
 20
15.788472748928568
 30
0.0
  0
VERTEX
  8
0
 10
20.538960729420264
 20
15.834280102467085
 30
0.0
  0
VERTEX
  8
0
 10
20.499747544412934
 20
15.880087456005603
 30
0.0
  0
VERTEX
  8
0
 10
20.4605343594056
 20
15.925894809544118
 30
0.0
  0
VERTEX
  8
0
 10
20.42132117439827
 20
15.971702163082636
 30
0.0
  0
VERTEX
  8
0
 10
20.346729962299055
 20
16.058836784329454
 30
0.0
  0
VERTEX
  8
0
 10
20.272138750199836
 20
16.14597140557627
 30
0.0
  0
VERTEX
  8
0
 10
20.197547538100622
 20
16.233106026823087
 30
0.0
  0
VERTEX
  8
0
 10
20.122956326001407
 20
16.320240648069905
 30
0.0
  0
VERTEX
  8
0
 10
20.048365113902193
 20
16.40737526931672
 30
0.0
  0
VERTEX
  8
0
 10
19.973773901802975
 20
16.49450989056354
 30
0.0
  0
VERTEX
  8
0
 10
19.89918268970376
 20
16.581644511810357
 30
0.0
  0
VERTEX
  8
0
 10
19.824591477604546
 20
16.668779133057175
 30
0.0
  0
VERTEX
  8
0
 10
19.750000265505328
 20
16.75591375430399
 30
0.0
  0
VERTEX
  8
0
 10
19.675409053406113
 20
16.843048375550808
 30
0.0
  0
VERTEX
  8
0
 10
19.56160469145577
 20
16.975990309268003
 30
0.0
  0
VERTEX
  8
0
 10
19.447800329505423
 20
17.108932242985198
 30
0.0
  0
VERTEX
  8
0
 10
19.333995967555076
 20
17.241874176702392
 30
0.0
  0
VERTEX
  8
0
 10
19.22019160560473
 20
17.374816110419587
 30
0.0
  0
VERTEX
  8
0
 10
19.106387243654385
 20
17.507758044136782
 30
0.0
  0
VERTEX
  8
0
 10
18.99258288170404
 20
17.640699977853977
 30
0.0
  0
VERTEX
  8
0
 10
18.87877851975369
 20
17.773641911571172
 30
0.0
  0
VERTEX
  8
0
 10
18.764974157803348
 20
17.906583845288367
 30
0.0
  0
VERTEX
  8
0
 10
18.651169795853
 20
18.03952577900556
 30
0.0
  0
VERTEX
  8
0
 10
18.537365433902654
 20
18.172467712722757
 30
0.0
  0
VERTEX
  8
0
 10
18.85642612410569
 20
18.445598223591023
 30
0.0
  0
VERTEX
  8
0
 10
19.175486814308723
 20
18.718728734459297
 30
0.0
  0
VERTEX
  8
0
 10
19.494547504511758
 20
18.991859245327568
 30
0.0
  0
VERTEX
  8
0
 10
19.813608194714792
 20
19.264989756195842
 30
0.0
  0
VERTEX
  8
0
 10
20.132668884917827
 20
19.538120267064112
 30
0.0
  0
VERTEX
  8
0
 10
20.45172957512086
 20
19.811250777932386
 30
0.0
  0
VERTEX
  8
0
 10
20.770790265323896
 20
20.084381288800657
 30
0.0
  0
VERTEX
  8
0
 10
21.08985095552693
 20
20.35751179966893
 30
0.0
  0
VERTEX
  8
0
 10
21.408911645729965
 20
20.6306423105372
 30
0.0
  0
VERTEX
  8
0
 10
21.727972335932996
 20
20.903772821405475
 30
0.0
  0
VERTEX
  8
0
 10
21.90123988685144
 20
20.701368248550967
 30
0.0
  0
VERTEX
  8
0
 10
22.074507437769878
 20
20.49896367569646
 30
0.0
  0
VERTEX
  8
0
 10
22.24777498868832
 20
20.296559102841947
 30
0.0
  0
VERTEX
  8
0
 10
22.42104253960676
 20
20.09415452998744
 30
0.0
  0
VERTEX
  8
0
 10
22.594310090525198
 20
19.891749957132927
 30
0.0
  0
VERTEX
  8
0
 10
22.767577641443637
 20
19.68934538427842
 30
0.0
  0
VERTEX
  8
0
 10
22.940845192362076
 20
19.48694081142391
 30
0.0
  0
VERTEX
  8
0
 10
23.114112743280515
 20
19.284536238569398
 30
0.0
  0
VERTEX
  8
0
 10
23.287380294198954
 20
19.08213166571489
 30
0.0
  0
VERTEX
  8
0
 10
23.460647845117393
 20
18.879727092860378
 30
0.0
  0
VERTEX
  8
0
 10
23.46366082465345
 20
18.881875717895554
 30
0.0
  0
VERTEX
  8
0
 10
23.514988553454824
 20
18.867262800816754
 30
0.0
  0
SEQEND
  0
POLYLINE
  8
0
 66
1
 70
0
  0
VERTEX
  8
0
 10
30.1
 20
1.7083009875882547
 30
0.0
  0
VERTEX
  8
0
 10
30.066694363039495
 20
1.75
 30
0.0
  0
VERTEX
  8
0
 10
30.06299373671055
 20
1.75
 30
0.0
  0
VERTEX
  8
0
 10
30.039440952678056
 20
2.015395029490021
 30
0.0
  0
VERTEX
  8
0
 10
30.015888168645567
 20
2.280790058980042
 30
0.0
  0
VERTEX
  8
0
 10
29.992335384613074
 20
2.546185088470063
 30
0.0
  0
VERTEX
  8
0
 10
29.968782600580585
 20
2.8115801179600846
 30
0.0
  0
VERTEX
  8
0
 10
29.945229816548096
 20
3.0769751474501055
 30
0.0
  0
VERTEX
  8
0
 10
29.921677032515603
 20
3.342370176940127
 30
0.0
  0
VERTEX
  8
0
 10
29.898124248483114
 20
3.6077652064301478
 30
0.0
  0
VERTEX
  8
0
 10
29.87457146445062
 20
3.8731602359201687
 30
0.0
  0
VERTEX
  8
0
 10
29.851018680418132
 20
4.13855526541019
 30
0.0
  0
VERTEX
  8
0
 10
29.827465896385636
 20
4.40395029490021
 30
0.0
  0
VERTEX
  8
0
 10
29.409110124619513
 20
4.366822835655447
 30
0.0
  0
VERTEX
  8
0
 10
28.99075435285339
 20
4.329695376410684
 30
0.0
  0
VERTEX
  8
0
 10
28.572398581087267
 20
4.292567917165921
 30
0.0
  0
VERTEX
  8
0
 10
28.154042809321144
 20
4.255440457921157
 30
0.0
  0
VERTEX
  8
0
 10
27.73568703755502
 20
4.218312998676394
 30
0.0
  0
VERTEX
  8
0
 10
27.317331265788898
 20
4.181185539431631
 30
0.0
  0
VERTEX
  8
0
 10
26.898975494022775
 20
4.144058080186868
 30
0.0
  0
VERTEX
  8
0
 10
26.48061972225665
 20
4.106930620942104
 30
0.0
  0
VERTEX
  8
0
 10
26.06226395049053
 20
4.069803161697341
 30
0.0
  0
VERTEX
  8
0
 10
25.643908178724406
 20
4.032675702452578
 30
0.0
  0
VERTEX
  8
0
 10
25.659377974033763
 20
3.858360565156373
 30
0.0
  0
VERTEX
  8
0
 10
25.67484776934312
 20
3.6840454278601684
 30
0.0
  0
VERTEX
  8
0
 10
25.690317564652478
 20
3.509730290563964
 30
0.0
  0
VERTEX
  8
0
 10
25.705787359961835
 20
3.3354151532677587
 30
0.0
  0
VERTEX
  8
0
 10
25.721257155271193
 20
3.1611000159715537
 30
0.0
  0
VERTEX
  8
0
 10
25.73672695058055
 20
2.986784878675349
 30
0.0
  0
VERTEX
  8
0
 10
25.752196745889908
 20
2.8124697413791444
 30
0.0
  0
VERTEX
  8
0
 10
25.767666541199265
 20
2.6381546040829393
 30
0.0
  0
VERTEX
  8
0
 10
25.783136336508623
 20
2.4638394667867347
 30
0.0
  0
VERTEX
  8
0
 10
25.79860613181798
 20
2.2895243294905296
 30
0.0
  0
VERTEX
  8
0
 10
25.808745518636183
 20
2.1752727463267183
 30
0.0
  0
VERTEX
  8
0
 10
25.818884905454386
 20
2.0610211631629074
 30
0.0
  0
VERTEX
  8
0
 10
25.829024292272585
 20
1.9467695799990965
 30
0.0
  0
VERTEX
  8
0
 10
25.839163679090788
 20
1.8325179968352854
 30
0.0
  0
VERTEX
  8
0
 10
25.84930306590899
 20
1.7182664136714745
 30
0.0
  0
VERTEX
  8
0
 10
25.85944245272719
 20
1.6040148305076634
 30
0.0
  0
VERTEX
  8
0
 10
25.869581839545393
 20
1.489763247343852
 30
0.0
  0
VERTEX
  8
0
 10
25.879721226363596
 20
1.3755116641800411
 30
0.0
  0
VERTEX
  8
0
 10
25.889860613181796
 20
1.26126008101623
 30
0.0
  0
VERTEX
  8
0
 10
25.9
 20
1.1470084978524189
 30
0.0
  0
VERTEX
  8
0
 10
25.9
 20
1.0323076480671762
 30
0.0
  0
VERTEX
  8
0
 10
25.9
 20
0.917606798281934
 30
0.0
  0
VERTEX
  8
0
 10
25.9
 20
0.8029059484966914
 30
0.0
  0
VERTEX
  8
0
 10
25.942642937944612
 20
0.6665037830917258
 30
0.0
  0
VERTEX
  8
0
 10
25.937312570701536
 20
0.7265668724368124
 30
0.0
  0
VERTEX
  8
0
 10
25.93198220345846
 20
0.786629961781899
 30
0.0
  0
VERTEX
  8
0
 10
25.926651836215385
 20
0.8466930511269857
 30
0.0
  0
VERTEX
  8
0
 10
25.921321468972305
 20
0.9067561404720723
 30
0.0
  0
VERTEX
  8
0
 10
25.91599110172923
 20
0.966819229817159
 30
0.0
  0
VERTEX
  8
0
 10
25.910660734486154
 20
1.0268823191622456
 30
0.0
  0
VERTEX
  8
0
 10
25.905330367243074
 20
1.0869454085073322
 30
0.0
  0
VERTEX
  8
0
 10
25.9
 20
1.1470084978524189
 30
0.0
  0
VERTEX
  8
0
 10
25.9
 20
1.207307648067177
 30
0.0
  0
VERTEX
  8
0
 10
25.9
 20
1.267606798281935
 30
0.0
  0
VERTEX
  8
0
 10
25.9
 20
1.327905948496693
 30
0.0
  0
VERTEX
  8
0
 10
25.9
 20
1.3882050987114511
 30
0.0
  0
VERTEX
  8
0
 10
25.9
 20
1.4485042489262092
 30
0.0
  0
VERTEX
  8
0
 10
25.9
 20
1.5088033991409677
 30
0.0
  0
VERTEX
  8
0
 10
25.9
 20
1.5691025493557258
 30
0.0
  0
VERTEX
  8
0
 10
25.9
 20
1.6294016995704839
 30
0.0
  0
VERTEX
  8
0
 10
25.9
 20
1.689700849785242
 30
0.0
  0
VERTEX
  8
0
 10
25.9
 20
1.75
 30
0.0
  0
VERTEX
  8
0
 10
26.316299373671054
 20
1.75
 30
0.0
  0
VERTEX
  8
0
 10
26.73259874734211
 20
1.75
 30
0.0
  0
VERTEX
  8
0
 10
27.148898121013165
 20
1.75
 30
0.0
  0
VERTEX
  8
0
 10
27.56519749468422
 20
1.75
 30
0.0
  0
VERTEX
  8
0
 10
27.981496868355272
 20
1.75
 30
0.0
  0
VERTEX
  8
0
 10
28.397796242026327
 20
1.75
 30
0.0
  0
VERTEX
  8
0
 10
28.814095615697383
 20
1.75
 30
0.0
  0
VERTEX
  8
0
 10
29.23039498936844
 20
1.75
 30
0.0
  0
VERTEX
  8
0
 10
29.646694363039494
 20
1.75
 30
0.0
  0
VERTEX
  8
0
 10
30.066694363039495
 20
1.7083009875882549
 30
0.0
  0
VERTEX
  8
0
 10
30.074095615697384
 20
1.6249029627647644
 30
0.0
  0
VERTEX
  8
0
 10
30.081496868355273
 20
1.5415049379412742
 30
0.0
  0
VERTEX
  8
0
 10
30.088898121013166
 20
1.458106913117784
 30
0.0
  0
VERTEX
  8
0
 10
30.096299373671055
 20
1.3747088882942935
 30
0.0
  0
VERTEX
  8
0
 10
30.1
 20
1.2911469773763358
 30
0.0
  0
VERTEX
  8
0
 10
30.1
 20
1.2074211803639106
 30
0.0
  0
VERTEX
  8
0
 10
30.1
 20
1.1236953833514853
 30
0.0
  0
VERTEX
  8
0
 10
30.1
 20
1.0399695863390606
 30
0.0
  0
VERTEX
  8
0
 10
30.1
 20
0.9562437893266353
 30
0.0
  0
VERTEX
  8
0
 10
30.1
 20
0.9143808908204227
 30
0.0
  0
VERTEX
  8
0
 10
29.68533036724308
 20
0.8775805621785358
 30
0.0
  0
VERTEX
  8
0
 10
29.270660734486153
 20
0.8407802335366487
 30
0.0
  0
VERTEX
  8
0
 10
28.85599110172923
 20
0.8039799048947617
 30
0.0
  0
VERTEX
  8
0
 10
28.44132146897231
 20
0.7671795762528746
 30
0.0
  0
VERTEX
  8
0
 10
28.026651836215386
 20
0.7303792476109876
 30
0.0
  0
VERTEX
  8
0
 10
27.61198220345846
 20
0.6935789189691006
 30
0.0
  0
VERTEX
  8
0
 10
27.197312570701538
 20
0.6567785903272135
 30
0.0
  0
VERTEX
  8
0
 10
26.782642937944615
 20
0.6199782616853265
 30
0.0
  0
VERTEX
  8
0
 10
26.36797330518769
 20
0.5831779330434395
 30
0.0
  0
VERTEX
  8
0
 10
25.953303672430767
 20
0.5463776044015525
 30
0.0
  0
VERTEX
  8
0
 10
25.94797330518769
 20
0.6064406937466391
 30
0.0
  0
VERTEX
  8
0
 10
25.9
 20
0.6882050987114487
 30
0.0
  0
VERTEX
  8
0
 10
25.9
 20
0.5735042489262061
 30
0.0
  0
VERTEX
  8
0
 10
25.9
 20
0.45880339914096346
 30
0.0
  0
VERTEX
  8
0
 10
25.9
 20
0.34410254935572127
 30
0.0
  0
VERTEX
  8
0
 10
25.9
 20
0.22940169957047862
 30
0.0
  0
VERTEX
  8
0
 10
25.9
 20
0.11470084978523598
 30
0.0
  0
VERTEX
  8
0
 10
25.9
 20
0
 30
0.0
  0
VERTEX
  8
0
 10
25.89898540568617
 20
0.2292486773235892
 30
0.0
  0
VERTEX
  8
0
 10
25.895941702235163
 20
0.45847939368930457
 30
0.0
  0
VERTEX
  8
0
 10
25.890869128112165
 20
0.6876741895464606
 30
0.0
  0
VERTEX
  8
0
 10
25.8837680807384
 20
0.9168151081586375
 30
0.0
  0
VERTEX
  8
0
 10
25.87463911645999
 20
1.1458841970105391
 30
0.0
  0
VERTEX
  8
0
 10
25.86348295050437
 20
1.3748635092145183
 30
0.0
  0
VERTEX
  8
0
 10
25.850300456924245
 20
1.6037351049166646
 30
0.0
  0
VERTEX
  8
0
 10
25.835092668529114
 20
1.8324810527023374
 30
0.0
  0
VERTEX
  8
0
 10
25.817860776804356
 20
2.0610834310010397
 30
0.0
  0
VERTEX
  8
0
 10
25.798606131817877
 20
2.2895243294905203
 30
0.0
  0
VERTEX
  8
0
 10
25.64073984775172
 20
3.6554698822336036
 30
0.0
  0
VERTEX
  8
0
 10
25.41060318781179
 20
5.011112215024651
 30
0.0
  0
VERTEX
  8
0
 10
25.10884480968171
 20
6.35263034681854
 30
0.0
  0
VERTEX
  8
0
 10
24.736315242306436
 20
7.676243106705153
 30
0.0
  0
VERTEX
  8
0
 10
24.294064488611703
 20
8.978219791427236
 30
0.0
  0
VERTEX
  8
0
 10
23.783339065990926
 20
10.254890680651348
 30
0.0
  0
VERTEX
  8
0
 10
23.20557849290106
 20
11.502657380353796
 30
0.0
  0
VERTEX
  8
0
 10
22.56241123147036
 20
12.718002965167925
 30
0.0
  0
VERTEX
  8
0
 10
21.85565009755395
 20
13.897501891105822
 30
0.0
  0
VERTEX
  8
0
 10
21.087287151174458
 20
15.037829650714647
 30
0.0
  0
VERTEX
  8
0
 10
20.953356587454625
 20
15.22389068927427
 30
0.0
  0
VERTEX
  8
0
 10
20.81778438626785
 20
15.408758978154683
 30
0.0
  0
VERTEX
  8
0
 10
20.680581169320682
 20
15.59242003343736
 30
0.0
  0
VERTEX
  8
0
 10
20.541757686105246
 20
15.774859465787198
 30
0.0
  0
VERTEX
  8
0
 10
20.40132481305703
 20
15.956062981579866
 30
0.0
  0
VERTEX
  8
0
 10
20.25929355270278
 20
16.136016384021666
 30
0.0
  0
VERTEX
  8
0
 10
20.115675032798432
 20
16.314705574261826
 30
0.0
  0
VERTEX
  8
0
 10
19.970480505457335
 20
16.49211655249709
 30
0.0
  0
VERTEX
  8
0
 10
19.823721346268652
 20
16.668235419068584
 30
0.0
  0
VERTEX
  8
0
 10
19.675409053406113
 20
16.843048375550808
 30
0.0
  0
VERTEX
  8
0
 10
18.91117500095958
 20
17.696820620752227
 30
0.0
  0
VERTEX
  8
0
 10
18.109925983879393
 20
18.51595476496986
 30
0.0
  0
VERTEX
  8
0
 10
17.273230292027407
 20
19.298847511667287
 30
0.0
  0
VERTEX
  8
0
 10
16.402725595270333
 20
20.043966499828908
 30
0.0
  0
VERTEX
  8
0
 10
15.500115738057932
 20
20.749853303259968
 30
0.0
  0
VERTEX
  8
0
 10
14.56716740447731
 20
21.41512628517361
 30
0.0
  0
VERTEX
  8
0
 10
13.605706660310785
 20
22.03848330247739
 30
0.0
  0
VERTEX
  8
0
 10
12.61761537886554
 20
22.618704254466383
 30
0.0
  0
VERTEX
  8
0
 10
11.604827557570918
 20
23.154653470934143
 30
0.0
  0
VERTEX
  8
0
 10
10.569325532552755
 20
23.6452819350273
 30
0.0
  0
VERTEX
  8
0
 10
10.3596197791418
 20
23.73790803823315
 30
0.0
  0
VERTEX
  8
0
 10
10.149102378330767
 20
23.828674342358216
 30
0.0
  0
VERTEX
  8
0
 10
9.937789823572563
 20
23.91757373611499
 30
0.0
  0
VERTEX
  8
0
 10
9.725698670618218
 20
24.00459925448319
 30
0.0
  0
VERTEX
  8
0
 10
9.512845536219745
 20
24.08974407925547
 30
0.0
  0
VERTEX
  8
0
 10
9.299247096828287
 20
24.173001539571594
 30
0.0
  0
VERTEX
  8
0
 10
9.084920087287562
 20
24.25436511244108
 30
0.0
  0
VERTEX
  8
0
 10
8.869881299522733
 20
24.333828423254257
 30
0.0
  0
VERTEX
  8
0
 10
8.654147581224816
 20
24.411385246281718
 30
0.0
  0
VERTEX
  8
0
 10
8.437735834530688
 20
24.48702950516205
 30
0.0
  0
VERTEX
  8
0
 10
7.126280106006314
 20
24.900323930638702
 30
0.0
  0
VERTEX
  8
0
 10
5.7947384213183355
 20
25.243434921351273
 30
0.0
  0
VERTEX
  8
0
 10
4.446863830797462
 20
25.515395393180665
 30
0.0
  0
VERTEX
  8
0
 10
3.0864554202972623
 20
25.715438805093676
 30
0.0
  0
VERTEX
  8
0
 10
1.7173476031850856
 20
25.843001319696487
 30
0.0
  0
VERTEX
  8
0
 10
0.343399312759739
 20
25.897723392452782
 30
0.0
  0
VERTEX
  8
0
 10
-1.0315168744420606
 20
25.87945078508702
 30
0.0
  0
VERTEX
  8
0
 10
-2.4035256537937815
 20
25.788235000316618
 30
0.0
  0
VERTEX
  8
0
 10
-3.76875991541646
 20
25.624333136687675
 30
0.0
  0
VERTEX
  8
0
 10
-5.123371643918615
 20
25.388207163923383
 30
0.0
  0
VERTEX
  8
0
 10
-6.46354275660544
 20
25.080522622814964
 30
0.0
  0
VERTEX
  8
0
 10
-7.785495888377073
 20
24.702146744201478
 30
0.0
  0
VERTEX
  8
0
 10
-9.085505015003093
 20
24.254146008927083
 30
0.0
  0
VERTEX
  8
0
 10
-10.35990596308042
 20
23.7377831407259
 30
0.0
  0
VERTEX
  8
0
 10
-11.605106737781352
 20
23.15451354714026
 30
0.0
  0
VERTEX
  8
0
 10
-12.817597647160863
 20
22.505981217345226
 30
0.0
  0
VERTEX
  8
0
 10
-13.993961194487117
 20
21.794014088441546
 30
0.0
  0
VERTEX
  8
0
 10
-15.130881710712716
 20
21.020618893277604
 30
0.0
  0
VERTEX
  8
0
 10
-16.225154699937086
 20
20.187975504322107
 30
0.0
  0
VERTEX
  8
0
 10
-17.27369587151896
 20
19.29843078952972
 30
0.0
  0
VERTEX
  8
0
 10
-17.443835587257205
 20
19.14477996751958
 30
0.0
  0
VERTEX
  8
0
 10
-17.61260862698854
 20
18.989629205240654
 30
0.0
  0
VERTEX
  8
0
 10
-17.780001767814657
 20
18.8329906583237
 30
0.0
  0
VERTEX
  8
0
 10
-17.946001894948484
 20
18.674876598963255
 30
0.0
  0
VERTEX
  8
0
 10
-18.110596002741712
 20
18.515299414956157
 30
0.0
  0
VERTEX
  8
0
 10
-18.273771195703738
 20
18.354271608730986
 30
0.0
  0
VERTEX
  8
0
 10
-18.435514689511976
 20
18.19180579636854
 30
0.0
  0
VERTEX
  8
0
 10
-18.595813812013507
 20
18.027914706613398
 30
0.0
  0
VERTEX
  8
0
 10
-18.754656004217857
 20
17.86261117987667
 30
0.0
  0
VERTEX
  8
0
 10
-18.91202882128102
 20
17.69590816722996
 30
0.0
  0
VERTEX
  8
0
 10
-19.824525527637274
 20
16.66727895020834
 30
0.0
  0
VERTEX
  8
0
 10
-20.681145321674553
 20
15.5916717571843
 30
0.0
  0
VERTEX
  8
0
 10
-21.479473756244786
 20
14.47211826771711
 30
0.0
  0
VERTEX
  8
0
 10
-22.217260682769233
 20
13.311774027299151
 30
0.0
  0
VERTEX
  8
0
 10
-22.892426593451045
 20
12.11390955321424
 30
0.0
  0
VERTEX
  8
0
 10
-23.503068482523993
 20
10.881901116339336
 30
0.0
  0
VERTEX
  8
0
 10
-24.047465210016956
 20
9.619221224871797
 30
0.0
  0
VERTEX
  8
0
 10
-24.524082352916057
 20
8.329428836804546
 30
0.0
  0
VERTEX
  8
0
 10
-24.93157653005102
 20
7.016159328735992
 30
0.0
  0
VERTEX
  8
0
 10
-25.26879918851577
 20
5.683114249288381
 30
0.0
  0
VERTEX
  8
0
 10
-25.534799847171218
 20
4.334050849367671
 30
0.0
  0
VERTEX
  8
0
 10
-25.72882875309699
 20
2.972771601352761
 30
0.0
  0
VERTEX
  8
0
 10
-25.850339021237268
 20
1.6031133731267309
 30
0.0
  0
VERTEX
  8
0
 10
-25.8989881657678
 20
0.22893664935820252
 30
0.0
  0
VERTEX
  8
0
 10
-25.874639065417945
 20
-1.1458853495648986
 30
0.0
  0
VERTEX
  8
0
 10
-25.777360349957274
 20
-2.517477584498121
 30
0.0
  0
VERTEX
  8
0
 10
-25.60742620675741
 20
-3.881974119629566
 30
0.0
  0
VERTEX
  8
0
 10
-25.36531560797431
 20
-5.235529018910584
 30
0.0
  0
VERTEX
  8
0
 10
-25.05171096052924
 20
-6.574327186115639
 30
0.0
  0
VERTEX
  8
0
 10
-24.667496182693565
 20
-7.894595117977756
 30
0.0
  0
VERTEX
  8
0
 10
-24.596652351893663
 20
-8.112625535551595
 30
0.0
  0
VERTEX
  8
0
 10
-24.523881441294954
 20
-8.3300203513142
 30
0.0
  0
VERTEX
  8
0
 10
-24.449189152297357
 20
-8.54676253298202
 30
0.0
  0
VERTEX
  8
0
 10
-24.372581336835477
 20
-8.762835099403551
 30
0.0
  0
VERTEX
  8
0
 10
-24.29406399692015
 20
-8.978221121889792
 30
0.0
  0
VERTEX
  8
0
 10
-24.213643284168157
 20
-9.192903725540596
 30
0.0
  0
VERTEX
  8
0
 10
-24.131325499320297
 20
-9.406866090566714
 30
0.0
  0
VERTEX
  8
0
 10
-24.04711709174773
 20
-9.620091453607605
 30
0.0
  0
VERTEX
  8
0
 10
-23.961024658946688
 20
-9.832563109044795
 30
0.0
  0
VERTEX
  8
0
 10
-23.87305494602157
 20
-10.04426441031075
 30
0.0
  0
VERTEX
  8
0
 10
-23.306346347624608
 20
-11.297089002241467
 30
0.0
  0
VERTEX
  8
0
 10
-22.6739470710928
 20
-12.51807190494136
 30
0.0
  0
VERTEX
  8
0
 10
-21.977639581026455
 20
-13.703771686893331
 30
0.0
  0
VERTEX
  8
0
 10
-21.21938647209961
 20
-14.85084636469168
 30
0.0
  0
VERTEX
  8
0
 10
-20.4013249373403
 20
-15.95606282267204
 30
0.0
  0
VERTEX
  8
0
 10
-19.525760744292384
 20
-17.01630592568935
 30
0.0
  0
VERTEX
  8
0
 10
-18.595161736037493
 20
-18.028587299358954
 30
0.0
  0
VERTEX
  8
0
 10
-17.612150875394928
 20
-18.99005375301306
 30
0.0
  0
VERTEX
  8
0
 10
-16.579498851905086
 20
-19.897995321631722
 30
0.0
  0
VERTEX
  8
0
 10
-15.50011627243391
 20
-20.74985290408174
 30
0.0
  0
VERTEX
  8
0
 10
-14.377045322178876
 20
-21.543225566381988
 30
0.0
  0
VERTEX
  8
0
 10
-13.213451586157314
 20
-22.275877023818314
 30
0.0
  0
VERTEX
  8
0
 10
-12.012614741008479
 20
-22.945742243041643
 30
0.0
  0
VERTEX
  8
0
 10
-10.777919435881465
 20
-23.550933158447215
 30
0.0
  0
VERTEX
  8
0
 10
-9.512845752546555
 20
-24.089743993829757
 30
0.0
  0
VERTEX
  8
0
 10
-8.220959396522543
 20
-24.560656070242253
 30
0.0
  0
VERTEX
  8
0
 10
-6.905901646866873
 20
-24.962342086507054
 30
0.0
  0
VERTEX
  8
0
 10
-5.571379092956265
 20
-25.293669860314253
 30
0.0
  0
VERTEX
  8
0
 10
-4.221153187185182
 20
-25.553705519362868
 30
0.0
  0
VERTEX
  8
0
 10
-2.8590296430288515
 20
-25.74171613355027
 30
0.0
  0
VERTEX
  8
0
 10
-2.6310696944228744
 20
-25.766013899380894
 30
0.0
  0
VERTEX
  8
0
 10
-2.402903608738586
 20
-25.788292968847532
 30
0.0
  0
VERTEX
  8
0
 10
-2.1745492621615767
 20
-25.808551596446332
 30
0.0
  0
VERTEX
  8
0
 10
-1.9460245456272511
 20
-25.826788194969502
 30
0.0
  0
VERTEX
  8
0
 10
-1.7173473634189407
 20
-25.84300133562969
 30
0.0
  0
VERTEX
  8
0
 10
-1.4885356317653113
 20
-25.85718974817188
 30
0.0
  0
VERTEX
  8
0
 10
-1.2596072774366092
 20
-25.86935232097295
 30
0.0
  0
VERTEX
  8
0
 10
-1.0305802363400764
 20
-25.87948810112876
 30
0.0
  0
VERTEX
  8
0
 10
-0.8014724521148849
 20
-25.88759629452879
 30
0.0
  0
VERTEX
  8
0
 10
-0.5723018747261164
 20
-25.893676265918383
 30
0.0
  0
VERTEX
  8
0
 10
0.8027220464787564
 20
-25.887557577262807
 30
0.0
  0
VERTEX
  8
0
 10
2.175483435479468
 20
-25.80847286884589
 30
0.0
  0
VERTEX
  8
0
 10
3.542113061494409
 20
-25.656645046840996
 30
0.0
  0
VERTEX
  8
0
 10
4.898758976575249
 20
-25.43250204933489
 30
0.0
  0
VERTEX
  8
0
 10
6.241597372610516
 20
-25.13667564015221
 30
0.0
  0
VERTEX
  8
0
 10
7.56684335901529
 20
-24.769999628181793
 30
0.0
  0
VERTEX
  8
0
 10
8.87076163072869
 20
-24.33350751722389
 30
0.0
  0
VERTEX
  8
0
 10
10.149676996450879
 20
-23.828429592982324
 30
0.0
  0
VERTEX
  8
0
 10
11.399984737445113
 20
-23.25618945541205
 30
0.0
  0
VERTEX
  8
0
 10
12.618160767707295
 20
-22.618400006196115
 30
0.0
  0
VERTEX
  8
0
 10
13.800771602598406
 20
-21.916858880161485
 30
0.0
  0
VERTEX
  8
0
 10
14.944483926793906
 20
-21.153543442217867
 30
0.0
  0
VERTEX
  8
0
 10
16.04607410125708
 20
-20.33060515422418
 30
0.0
  0
VERTEX
  8
0
 10
17.102437211392
 20
-19.450363529517748
 30
0.0
  0
VERTEX
  8
0
 10
18.11059581847851
 20
-18.515299595191774
 30
0.0
  0
VERTEX
  8
0
 10
19.067708351806647
 20
-17.52804889913429
 30
0.0
  0
VERTEX
  8
0
 10
19.97107711785704
 20
-16.491394081538616
 30
0.0
  0
VERTEX
  8
0
 10
20.81815590395261
 20
-15.408257031823002
 30
0.0
  0
VERTEX
  8
0
 10
21.60655715495006
 20
-14.281690653066123
 30
0.0
  0
VERTEX
  8
0
 10
22.334058702743352
 20
-13.114870257170441
 30
0.0
  0
VERTEX
  8
0
 10
22.449267573229793
 20
-12.916670833675886
 30
0.0
  0
VERTEX
  8
0
 10
22.562717606122472
 20
-12.717459424994088
 30
0.0
  0
VERTEX
  8
0
 10
22.67439991292727
 20
-12.517251638784122
 30
0.0
  0
VERTEX
  8
0
 10
22.784305743646478
 20
-12.316063160768465
 30
0.0
  0
VERTEX
  8
0
 10
22.89242648746434
 20
-12.113909753504062
 30
0.0
  0
VERTEX
  8
0
 10
22.998753673421707
 20
-11.910807255147382
 30
0.0
  0
VERTEX
  8
0
 10
23.103278971079657
 20
-11.706771578213539
 30
0.0
  0
VERTEX
  8
0
 10
23.205994191172234
 20
-11.501818708329582
 30
0.0
  0
VERTEX
  8
0
 10
23.306891286247996
 20
-11.295964702982083
 30
0.0
  0
VERTEX
  8
0
 10
23.40596235130054
 20
-11.089225690259058
 30
0.0
  0
VERTEX
  8
0
 10
23.873539495929762
 20
-10.043112661733991
 30
0.0
  0
VERTEX
  8
0
 10
24.294388803629893
 20
-8.977342182297743
 30
0.0
  0
VERTEX
  8
0
 10
24.667686543264423
 20
-7.89400029156645
 30
0.0
  0
VERTEX
  8
0
 10
24.992702056695844
 20
-6.795207421795986
 30
0.0
  0
VERTEX
  8
0
 10
25.26879918890769
 20
-5.683114247545804
 30
0.0
  0
VERTEX
  8
0
 10
25.49543753315497
 20
-4.559897476149315
 30
0.0
  0
VERTEX
  8
0
 10
25.672173488705845
 20
-3.427755587230341
 30
0.0
  0
VERTEX
  8
0
 10
25.798661129104293
 20
-2.288904529604308
 30
0.0
  0
VERTEX
  8
0
 10
25.874652879254253
 20
-1.1455733839869962
 30
0.0
  0
VERTEX
  8
0
 10
25.9
 20
-6.343670419583289e-15
 30
0.0
  0
VERTEX
  8
0
 10
25.9
 20
-0.17500000000000582
 30
0.0
  0
VERTEX
  8
0
 10
25.9
 20
-0.350000000000005
 30
0.0
  0
VERTEX
  8
0
 10
25.9
 20
-0.5250000000000046
 30
0.0
  0
VERTEX
  8
0
 10
25.9
 20
-0.700000000000004
 30
0.0
  0
VERTEX
  8
0
 10
25.9
 20
-0.8750000000000032
 30
0.0
  0
VERTEX
  8
0
 10
25.9
 20
-1.0500000000000025
 30
0.0
  0
VERTEX
  8
0
 10
25.9
 20
-1.2250000000000019
 30
0.0
  0
VERTEX
  8
0
 10
25.9
 20
-1.4000000000000012
 30
0.0
  0
VERTEX
  8
0
 10
25.9
 20
-1.5750000000000006
 30
0.0
  0
VERTEX
  8
0
 10
25.9
 20
-1.75
 30
0.0
  0
VERTEX
  8
0
 10
26.32
 20
-1.75
 30
0.0
  0
VERTEX
  8
0
 10
26.74
 20
-1.75
 30
0.0
  0
VERTEX
  8
0
 10
27.16
 20
-1.75
 30
0.0
  0
VERTEX
  8
0
 10
27.58
 20
-1.75
 30
0.0
  0
VERTEX
  8
0
 10
28
 20
-1.75
 30
0.0
  0
VERTEX
  8
0
 10
28.419999999999998
 20
-1.75
 30
0.0
  0
VERTEX
  8
0
 10
28.84
 20
-1.75
 30
0.0
  0
VERTEX
  8
0
 10
29.259999999999998
 20
-1.75
 30
0.0
  0
VERTEX
  8
0
 10
29.68
 20
-1.75
 30
0.0
  0
VERTEX
  8
0
 10
30.099999999999998
 20
-1.75
 30
0.0
  0
VERTEX
  8
0
 10
30.1
 20
-1.4835619109179576
 30
0.0
  0
VERTEX
  8
0
 10
30.1
 20
-1.2171238218359153
 30
0.0
  0
VERTEX
  8
0
 10
30.1
 20
-0.9506857327538732
 30
0.0
  0
VERTEX
  8
0
 10
30.1
 20
-0.6842476436718308
 30
0.0
  0
VERTEX
  8
0
 10
30.1
 20
-0.41780955458978863
 30
0.0
  0
VERTEX
  8
0
 10
30.1
 20
-0.1513714655077465
 30
0.0
  0
VERTEX
  8
0
 10
30.1
 20
0.11506662357429587
 30
0.0
  0
VERTEX
  8
0
 10
30.1
 20
0.38150471265633845
 30
0.0
  0
VERTEX
  8
0
 10
30.1
 20
0.6479428017383806
 30
0.0
  0
VERTEX
  8
0
 10
30.1
 20
0.9143808908204227
 30
0.0
  0
VERTEX
  8
0
 10
30.136861390091997
 20
0.9176521968491848
 30
0.0
  0
VERTEX
  8
0
 10
30.1294891120736
 20
1.000723732655858
 30
0.0
  0
SEQEND
  0
POLYLINE
  8
0
 66
1
 70
1
  0
VERTEX
  8
0
 10
16
 20
0
 30
0.0
  0
VERTEX
  8
0
 10
12.94427190999916
 20
9.40456403667957
 30
0.0
  0
VERTEX
  8
0
 10
4.944271909999159
 20
15.216904260722456
 30
0.0
  0
VERTEX
  8
0
 10
-4.944271909999157
 20
15.216904260722458
 30
0.0
  0
VERTEX
  8
0
 10
-12.944271909999157
 20
9.404564036679572
 30
0.0
  0
VERTEX
  8
0
 10
-16
 20
1.959434878635765e-15
 30
0.0
  0
VERTEX
  8
0
 10
-12.94427190999916
 20
-9.404564036679568
 30
0.0
  0
VERTEX
  8
0
 10
-4.944271909999161
 20
-15.216904260722456
 30
0.0
  0
VERTEX
  8
0
 10
4.944271909999156
 20
-15.216904260722458
 30
0.0
  0
VERTEX
  8
0
 10
12.944271909999157
 20
-9.404564036679574
 30
0.0
  0
SEQEND
  0
POLYLINE
  8
0
 66
1
 70
1
  0
VERTEX
  8
0
 10
5
 20
0
 30
0.0
  0
VERTEX
  8
0
 10
4.045084971874737
 20
2.938926261462366
 30
0.0
  0
VERTEX
  8
0
 10
1.5450849718747373
 20
4.755282581475767
 30
0.0
  0
VERTEX
  8
0
 10
-1.5450849718747368
 20
4.755282581475768
 30
0.0
  0
VERTEX
  8
0
 10
-4.045084971874736
 20
2.9389262614623664
 30
0.0
  0
VERTEX
  8
0
 10
-5
 20
6.123233995736766e-16
 30
0.0
  0
VERTEX
  8
0
 10
-4.045084971874737
 20
-2.938926261462365
 30
0.0
  0
VERTEX
  8
0
 10
-1.5450849718747377
 20
-4.755282581475767
 30
0.0
  0
VERTEX
  8
0
 10
1.5450849718747361
 20
-4.755282581475768
 30
0.0
  0
VERTEX
  8
0
 10
4.045084971874736
 20
-2.938926261462367
 30
0.0
  0
SEQEND
  0
POLYLINE
  8
0
 66
1
 70
0
  0
VERTEX
  8
0
 10
26.4879591881874
 20
-14.39359510992931
 30
0.0
  0
VERTEX
  8
0
 10
26.45225187116769
 20
-14.468962331290566
 30
0.0
  0
VERTEX
  8
0
 10
26.418809121858082
 20
-14.453117898790065
 30
0.0
  0
VERTEX
  8
0
 10
26.283894028063997
 20
-14.682872491301778
 30
0.0
  0
VERTEX
  8
0
 10
26.14897893426991
 20
-14.91262708381349
 30
0.0
  0
VERTEX
  8
0
 10
26.01406384047582
 20
-15.142381676325202
 30
0.0
  0
VERTEX
  8
0
 10
25.879148746681732
 20
-15.372136268836915
 30
0.0
  0
VERTEX
  8
0
 10
25.744233652887647
 20
-15.601890861348627
 30
0.0
  0
VERTEX
  8
0
 10
25.60931855909356
 20
-15.83164545386034
 30
0.0
  0
VERTEX
  8
0
 10
25.47440346529947
 20
-16.06140004637205
 30
0.0
  0
VERTEX
  8
0
 10
25.339488371505386
 20
-16.291154638883764
 30
0.0
  0
VERTEX
  8
0
 10
25.204573277711297
 20
-16.520909231395475
 30
0.0
  0
VERTEX
  8
0
 10
25.069658183917205
 20
-16.750663823907185
 30
0.0
  0
VERTEX
  8
0
 10
24.707484257556377
 20
-16.537990254641088
 30
0.0
  0
VERTEX
  8
0
 10
24.345310331195552
 20
-16.325316685374986
 30
0.0
  0
VERTEX
  8
0
 10
23.983136404834724
 20
-16.112643116108888
 30
0.0
  0
VERTEX
  8
0
 10
23.620962478473896
 20
-15.89996954684279
 30
0.0
  0
VERTEX
  8
0
 10
23.258788552113067
 20
-15.68729597757669
 30
0.0
  0
VERTEX
  8
0
 10
22.896614625752242
 20
-15.474622408310593
 30
0.0
  0
VERTEX
  8
0
 10
22.534440699391414
 20
-15.261948839044493
 30
0.0
  0
VERTEX
  8
0
 10
22.172266773030586
 20
-15.049275269778395
 30
0.0
  0
VERTEX
  8
0
 10
21.81009284666976
 20
-14.836601700512295
 30
0.0
  0
VERTEX
  8
0
 10
21.447918920308933
 20
-14.623928131246197
 30
0.0
  0
VERTEX
  8
0
 10
21.536532898552373
 20
-14.473022343838624
 30
0.0
  0
VERTEX
  8
0
 10
21.625146876795814
 20
-14.32211655643105
 30
0.0
  0
VERTEX
  8
0
 10
21.713760855039254
 20
-14.171210769023476
 30
0.0
  0
VERTEX
  8
0
 10
21.802374833282695
 20
-14.020304981615903
 30
0.0
  0
VERTEX
  8
0
 10
21.890988811526135
 20
-13.869399194208329
 30
0.0
  0
VERTEX
  8
0
 10
21.979602789769576
 20
-13.718493406800755
 30
0.0
  0
VERTEX
  8
0
 10
22.068216768013016
 20
-13.567587619393182
 30
0.0
  0
VERTEX
  8
0
 10
22.156830746256457
 20
-13.416681831985608
 30
0.0
  0
VERTEX
  8
0
 10
22.245444724499897
 20
-13.265776044578034
 30
0.0
  0
VERTEX
  8
0
 10
22.334058702743338
 20
-13.11487025717046
 30
0.0
  0
VERTEX
  8
0
 10
22.39213928103145
 20
-13.015961534490428
 30
0.0
  0
VERTEX
  8
0
 10
22.450219859319564
 20
-12.917052811810397
 30
0.0
  0
VERTEX
  8
0
 10
22.508300437607677
 20
-12.818144089130364
 30
0.0
  0
VERTEX
  8
0
 10
22.56638101589579
 20
-12.71923536645033
 30
0.0
  0
VERTEX
  8
0
 10
22.624461594183902
 20
-12.6203266437703
 30
0.0
  0
VERTEX
  8
0
 10
22.682542172472015
 20
-12.521417921090267
 30
0.0
  0
VERTEX
  8
0
 10
22.740622750760128
 20
-12.422509198410236
 30
0.0
  0
VERTEX
  8
0
 10
22.79870332904824
 20
-12.323600475730203
 30
0.0
  0
VERTEX
  8
0
 10
22.856783907336354
 20
-12.22469175305017
 30
0.0
  0
VERTEX
  8
0
 10
22.914864485624467
 20
-12.125783030370137
 30
0.0
  0
VERTEX
  8
0
 10
22.94539790348133
 20
-12.073785935157055
 30
0.0
  0
VERTEX
  8
0
 10
22.97593132133819
 20
-12.021788839943971
 30
0.0
  0
VERTEX
  8
0
 10
23.006464739195053
 20
-11.969791744730887
 30
0.0
  0
VERTEX
  8
0
 10
23.036998157051915
 20
-11.917794649517804
 30
0.0
  0
VERTEX
  8
0
 10
23.067531574908777
 20
-11.86579755430472
 30
0.0
  0
VERTEX
  8
0
 10
23.09806499276564
 20
-11.813800459091636
 30
0.0
  0
VERTEX
  8
0
 10
23.1285984106225
 20
-11.761803363878553
 30
0.0
  0
VERTEX
  8
0
 10
23.159131828479364
 20
-11.70980626866547
 30
0.0
  0
VERTEX
  8
0
 10
23.189665246336226
 20
-11.657809173452387
 30
0.0
  0
VERTEX
  8
0
 10
23.220198664193088
 20
-11.605812078239303
 30
0.0
  0
VERTEX
  8
0
 10
23.57918147063118
 20
-11.81661177748184
 30
0.0
  0
VERTEX
  8
0
 10
23.938164277069276
 20
-12.027411476724374
 30
0.0
  0
VERTEX
  8
0
 10
24.29714708350737
 20
-12.23821117596691
 30
0.0
  0
VERTEX
  8
0
 10
24.65612988994546
 20
-12.449010875209446
 30
0.0
  0
VERTEX
  8
0
 10
25.015112696383557
 20
-12.659810574451981
 30
0.0
  0
VERTEX
  8
0
 10
25.37409550282165
 20
-12.870610273694515
 30
0.0
  0
VERTEX
  8
0
 10
25.733078309259742
 20
-13.08140997293705
 30
0.0
  0
VERTEX
  8
0
 10
26.092061115697838
 20
-13.292209672179585
 30
0.0
  0
VERTEX
  8
0
 10
26.45104392213593
 20
-13.50300937142212
 30
0.0
  0
VERTEX
  8
0
 10
26.810026728574023
 20
-13.713809070664656
 30
0.0
  0
VERTEX
  8
0
 10
26.774179074112464
 20
-13.789472501428579
 30
0.0
  0
VERTEX
  8
0
 10
26.738331419650905
 20
-13.865135932192503
 30
0.0
  0
VERTEX
  8
0
 10
26.70248376518935
 20
-13.940799362956428
 30
0.0
  0
VERTEX
  8
0
 10
26.66663611072779
 20
-14.016462793720352
 30
0.0
  0
VERTEX
  8
0
 10
26.63078845626623
 20
-14.092126224484275
 30
0.0
  0
VERTEX
  8
0
 10
26.588392589384608
 20
-14.164324559345436
 30
0.0
  0
VERTEX
  8
0
 10
26.545996722502977
 20
-14.236522894206594
 30
0.0
  0
VERTEX
  8
0
 10
26.503600855621347
 20
-14.30872122906775
 30
0.0
  0
VERTEX
  8
0
 10
26.461204988739716
 20
-14.380919563928908
 30
0.0
  0
VERTEX
  8
0
 10
26.418809121858082
 20
-14.453117898790065
 30
0.0
  0
VERTEX
  8
0
 10
26.042597249761386
 20
-14.274877062244645
 30
0.0
  0
VERTEX
  8
0
 10
25.66638537766469
 20
-14.096636225699227
 30
0.0
  0
VERTEX
  8
0
 10
25.290173505567992
 20
-13.918395389153806
 30
0.0
  0
VERTEX
  8
0
 10
24.913961633471295
 20
-13.740154552608388
 30
0.0
  0
VERTEX
  8
0
 10
24.537749761374595
 20
-13.561913716062968
 30
0.0
  0
VERTEX
  8
0
 10
24.1615378892779
 20
-13.383672879517547
 30
0.0
  0
VERTEX
  8
0
 10
23.7853260171812
 20
-13.205432042972129
 30
0.0
  0
VERTEX
  8
0
 10
23.409114145084505
 20
-13.027191206426709
 30
0.0
  0
VERTEX
  8
0
 10
23.03290227298781
 20
-12.84895036988129
 30
0.0
  0
VERTEX
  8
0
 10
22.65669040089111
 20
-12.67070953333587
 30
0.0
  0
VERTEX
  8
0
 10
22.682507809364445
 20
-12.616216883039296
 30
0.0
  0
VERTEX
  8
0
 10
22.708325217837782
 20
-12.561724232742723
 30
0.0
  0
VERTEX
  8
0
 10
22.734142626311115
 20
-12.507231582446149
 30
0.0
  0
VERTEX
  8
0
 10
22.75996003478445
 20
-12.452738932149575
 30
0.0
  0
VERTEX
  8
0
 10
22.785777443257786
 20
-12.398246281853002
 30
0.0
  0
VERTEX
  8
0
 10
22.81159485173112
 20
-12.343753631556428
 30
0.0
  0
VERTEX
  8
0
 10
22.837412260204452
 20
-12.289260981259854
 30
0.0
  0
VERTEX
  8
0
 10
22.86322966867779
 20
-12.23476833096328
 30
0.0
  0
VERTEX
  8
0
 10
22.889047077151123
 20
-12.180275680666707
 30
0.0
  0
VERTEX
  8
0
 10
22.914864485624456
 20
-12.125783030370133
 30
0.0
  0
VERTEX
  8
0
 10
22.963974272192065
 20
-12.022127296359029
 30
0.0
  0
VERTEX
  8
0
 10
23.01308405875967
 20
-11.918471562347923
 30
0.0
  0
VERTEX
  8
0
 10
23.06219384532728
 20
-11.814815828336817
 30
0.0
  0
VERTEX
  8
0
 10
23.111303631894888
 20
-11.711160094325713
 30
0.0
  0
VERTEX
  8
0
 10
23.160413418462493
 20
-11.607504360314607
 30
0.0
  0
VERTEX
  8
0
 10
23.209523205030102
 20
-11.503848626303501
 30
0.0
  0
VERTEX
  8
0
 10
23.25863299159771
 20
-11.400192892292397
 30
0.0
  0
VERTEX
  8
0
 10
23.307742778165316
 20
-11.296537158281291
 30
0.0
  0
VERTEX
  8
0
 10
23.356852564732925
 20
-11.192881424270185
 30
0.0
  0
VERTEX
  8
0
 10
23.405962351300534
 20
-11.089225690259081
 30
0.0
  0
VERTEX
  8
0
 10
23.48088955608915
 20
-10.931077285377045
 30
0.0
  0
VERTEX
  8
0
 10
23.555816760877764
 20
-10.772928880495009
 30
0.0
  0
VERTEX
  8
0
 10
23.63074396566638
 20
-10.614780475612973
 30
0.0
  0
VERTEX
  8
0
 10
23.705671170455
 20
-10.456632070730937
 30
0.0
  0
VERTEX
  8
0
 10
23.780598375243613
 20
-10.2984836658489
 30
0.0
  0
VERTEX
  8
0
 10
23.85552558003223
 20
-10.140335260966864
 30
0.0
  0
VERTEX
  8
0
 10
23.930452784820844
 20
-9.98218685608483
 30
0.0
  0
VERTEX
  8
0
 10
24.00537998960946
 20
-9.824038451202792
 30
0.0
  0
VERTEX
  8
0
 10
24.080307194398078
 20
-9.665890046320758
 30
0.0
  0
VERTEX
  8
0
 10
24.155234399186693
 20
-9.50774164143872
 30
0.0
  0
VERTEX
  8
0
 10
24.53479054621435
 20
-9.68756692123419
 30
0.0
  0
VERTEX
  8
0
 10
24.91434669324201
 20
-9.86739220102966
 30
0.0
  0
VERTEX
  8
0
 10
25.293902840269666
 20
-10.047217480825129
 30
0.0
  0
VERTEX
  8
0
 10
25.673458987297323
 20
-10.227042760620598
 30
0.0
  0
VERTEX
  8
0
 10
26.053015134324983
 20
-10.406868040416068
 30
0.0
  0
VERTEX
  8
0
 10
26.43257128135264
 20
-10.586693320211538
 30
0.0
  0
VERTEX
  8
0
 10
26.812127428380297
 20
-10.766518600007007
 30
0.0
  0
VERTEX
  8
0
 10
27.191683575407957
 20
-10.946343879802477
 30
0.0
  0
VERTEX
  8
0
 10
27.571239722435614
 20
-11.126169159597946
 30
0.0
  0
VERTEX
  8
0
 10
27.95079586946327
 20
-11.305994439393416
 30
0.0
  0
VERTEX
  8
0
 10
27.836718955374348
 20
-11.546775902520544
 30
0.0
  0
VERTEX
  8
0
 10
27.72264204128542
 20
-11.787557365647666
 30
0.0
  0
VERTEX
  8
0
 10
27.6085651271965
 20
-12.028338828774789
 30
0.0
  0
VERTEX
  8
0
 10
27.494488213107573
 20
-12.269120291901913
 30
0.0
  0
VERTEX
  8
0
 10
27.380411299018647
 20
-12.509901755029038
 30
0.0
  0
VERTEX
  8
0
 10
27.266334384929724
 20
-12.75068321815616
 30
0.0
  0
VERTEX
  8
0
 10
27.152257470840798
 20
-12.991464681283285
 30
0.0
  0
VERTEX
  8
0
 10
27.038180556751872
 20
-13.232246144410407
 30
0.0
  0
VERTEX
  8
0
 10
26.924103642662946
 20
-13.473027607537531
 30
0.0
  0
VERTEX
  8
0
 10
26.810026728574023
 20
-13.713809070664656
 30
0.0
  0
VERTEX
  8
0
 10
26.81321784849676
 20
-13.71568294068822
 30
0.0
  0
VERTEX
  8
0
 10
26.820822980647854
 20
-13.768505616258693
 30
0.0
  0
SEQEND
  0
POLYLINE
  8
0
 66
1
 70
0
  0
VERTEX
  8
0
 10
-2.331303297761903
 20
-30.05582451169002
 30
0.0
  0
VERTEX
  8
0
 10
-2.4146809601154
 20
-30.0539816972869
 30
0.0
  0
VERTEX
  8
0
 10
-2.4138632468045658
 20
-30.016984469450357
 30
0.0
  0
VERTEX
  8
0
 10
-2.678673040516234
 20
-29.987573103142847
 30
0.0
  0
VERTEX
  8
0
 10
-2.943482834227901
 20
-29.958161736835336
 30
0.0
  0
VERTEX
  8
0
 10
-3.208292627939569
 20
-29.928750370527826
 30
0.0
  0
VERTEX
  8
0
 10
-3.473102421651236
 20
-29.89933900422032
 30
0.0
  0
VERTEX
  8
0
 10
-3.737912215362903
 20
-29.86992763791281
 30
0.0
  0
VERTEX
  8
0
 10
-4.002722009074571
 20
-29.8405162716053
 30
0.0
  0
VERTEX
  8
0
 10
-4.267531802786238
 20
-29.81110490529779
 30
0.0
  0
VERTEX
  8
0
 10
-4.532341596497906
 20
-29.781693538990282
 30
0.0
  0
VERTEX
  8
0
 10
-4.7971513902095735
 20
-29.752282172682772
 30
0.0
  0
VERTEX
  8
0
 10
-5.06196118392124
 20
-29.72287080637526
 30
0.0
  0
VERTEX
  8
0
 10
-5.01559854150884
 20
-29.30543757172744
 30
0.0
  0
VERTEX
  8
0
 10
-4.969235899096439
 20
-28.88800433707962
 30
0.0
  0
VERTEX
  8
0
 10
-4.922873256684039
 20
-28.470571102431805
 30
0.0
  0
VERTEX
  8
0
 10
-4.8765106142716395
 20
-28.053137867783988
 30
0.0
  0
VERTEX
  8
0
 10
-4.8301479718592395
 20
-27.635704633136168
 30
0.0
  0
VERTEX
  8
0
 10
-4.7837853294468395
 20
-27.21827139848835
 30
0.0
  0
VERTEX
  8
0
 10
-4.73742268703444
 20
-26.800838163840535
 30
0.0
  0
VERTEX
  8
0
 10
-4.69106004462204
 20
-26.383404929192718
 30
0.0
  0
VERTEX
  8
0
 10
-4.64469740220964
 20
-25.965971694544898
 30
0.0
  0
VERTEX
  8
0
 10
-4.59833475979724
 20
-25.54853845989708
 30
0.0
  0
VERTEX
  8
0
 10
-4.424404248120401
 20
-25.5678562272624
 30
0.0
  0
VERTEX
  8
0
 10
-4.250473736443562
 20
-25.58717399462772
 30
0.0
  0
VERTEX
  8
0
 10
-4.0765432247667235
 20
-25.606491761993038
 30
0.0
  0
VERTEX
  8
0
 10
-3.902612713089884
 20
-25.625809529358357
 30
0.0
  0
VERTEX
  8
0
 10
-3.7286822014130454
 20
-25.645127296723675
 30
0.0
  0
VERTEX
  8
0
 10
-3.5547516897362064
 20
-25.664445064088994
 30
0.0
  0
VERTEX
  8
0
 10
-3.3808211780593673
 20
-25.683762831454313
 30
0.0
  0
VERTEX
  8
0
 10
-3.2068906663825283
 20
-25.703080598819632
 30
0.0
  0
VERTEX
  8
0
 10
-3.0329601547056897
 20
-25.72239836618495
 30
0.0
  0
VERTEX
  8
0
 10
-2.859029643028851
 20
-25.74171613355027
 30
0.0
  0
VERTEX
  8
0
 10
-2.745029767072175
 20
-25.75437764453057
 30
0.0
  0
VERTEX
  8
0
 10
-2.631029891115499
 20
-25.767039155510876
 30
0.0
  0
VERTEX
  8
0
 10
-2.517030015158823
 20
-25.77970066649118
 30
0.0
  0
VERTEX
  8
0
 10
-2.4030301392021474
 20
-25.792362177471485
 30
0.0
  0
VERTEX
  8
0
 10
-2.289030263245471
 20
-25.80502368845179
 30
0.0
  0
VERTEX
  8
0
 10
-2.1750303872887953
 20
-25.817685199432095
 30
0.0
  0
VERTEX
  8
0
 10
-2.0610305113321195
 20
-25.8303467104124
 30
0.0
  0
VERTEX
  8
0
 10
-1.9470306353754436
 20
-25.843008221392704
 30
0.0
  0
VERTEX
  8
0
 10
-1.8330307594187678
 20
-25.85566973237301
 30
0.0
  0
VERTEX
  8
0
 10
-1.719030883462092
 20
-25.868331243353314
 30
0.0
  0
VERTEX
  8
0
 10
-1.6591002422224252
 20
-25.874987500351356
 30
0.0
  0
VERTEX
  8
0
 10
-1.599169600982759
 20
-25.881643757349398
 30
0.0
  0
VERTEX
  8
0
 10
-1.5392389597430927
 20
-25.888300014347443
 30
0.0
  0
VERTEX
  8
0
 10
-1.479308318503426
 20
-25.894956271345485
 30
0.0
  0
VERTEX
  8
0
 10
-1.4193776772637592
 20
-25.90161252834353
 30
0.0
  0
VERTEX
  8
0
 10
-1.3594470360240924
 20
-25.908268785341573
 30
0.0
  0
VERTEX
  8
0
 10
-1.2995163947844262
 20
-25.91492504233962
 30
0.0
  0
VERTEX
  8
0
 10
-1.2395857535447599
 20
-25.92158129933766
 30
0.0
  0
VERTEX
  8
0
 10
-1.1796551123050931
 20
-25.928237556335706
 30
0.0
  0
VERTEX
  8
0
 10
-1.1197244710654264
 20
-25.934893813333748
 30
0.0
  0
VERTEX
  8
0
 10
-1.1656786115368962
 20
-26.34864903746082
 30
0.0
  0
VERTEX
  8
0
 10
-1.2116327520083658
 20
-26.76240426158789
 30
0.0
  0
VERTEX
  8
0
 10
-1.2575868924798352
 20
-27.176159485714955
 30
0.0
  0
VERTEX
  8
0
 10
-1.3035410329513049
 20
-27.589914709842024
 30
0.0
  0
VERTEX
  8
0
 10
-1.3494951734227743
 20
-28.003669933969093
 30
0.0
  0
VERTEX
  8
0
 10
-1.3954493138942436
 20
-28.41742515809616
 30
0.0
  0
VERTEX
  8
0
 10
-1.441403454365713
 20
-28.83118038222323
 30
0.0
  0
VERTEX
  8
0
 10
-1.4873575948371827
 20
-29.244935606350296
 30
0.0
  0
VERTEX
  8
0
 10
-1.533311735308652
 20
-29.658690830477365
 30
0.0
  0
VERTEX
  8
0
 10
-1.5792658757801217
 20
-30.072446054604434
 30
0.0
  0
VERTEX
  8
0
 10
-1.6629712302936799
 20
-30.070595997544046
 30
0.0
  0
VERTEX
  8
0
 10
-1.7466765848072383
 20
-30.06874594048366
 30
0.0
  0
VERTEX
  8
0
 10
-1.8303819393207965
 20
-30.06689588342327
 30
0.0
  0
VERTEX
  8
0
 10
-1.914087293834355
 20
-30.065045826362883
 30
0.0
  0
VERTEX
  8
0
 10
-1.9977926483479131
 20
-30.063195769302496
 30
0.0
  0
VERTEX
  8
0
 10
-2.0810067680392437
 20
-30.053953509332068
 30
0.0
  0
VERTEX
  8
0
 10
-2.164220887730574
 20
-30.04471124936164
 30
0.0
  0
VERTEX
  8
0
 10
-2.247435007421905
 20
-30.035468989391212
 30
0.0
  0
VERTEX
  8
0
 10
-2.3306491271132357
 20
-30.026226729420785
 30
0.0
  0
VERTEX
  8
0
 10
-2.4138632468045658
 20
-30.016984469450357
 30
0.0
  0
VERTEX
  8
0
 10
-2.404664438038602
 20
-29.60078673947553
 30
0.0
  0
VERTEX
  8
0
 10
-2.395465629272638
 20
-29.1845890095007
 30
0.0
  0
VERTEX
  8
0
 10
-2.386266820506674
 20
-28.768391279525872
 30
0.0
  0
VERTEX
  8
0
 10
-2.3770680117407106
 20
-28.352193549551043
 30
0.0
  0
VERTEX
  8
0
 10
-2.3678692029747466
 20
-27.935995819576217
 30
0.0
  0
VERTEX
  8
0
 10
-2.3586703942087826
 20
-27.519798089601387
 30
0.0
  0
VERTEX
  8
0
 10
-2.3494715854428185
 20
-27.103600359626558
 30
0.0
  0
VERTEX
  8
0
 10
-2.340272776676855
 20
-26.68740262965173
 30
0.0
  0
VERTEX
  8
0
 10
-2.331073967910891
 20
-26.271204899676903
 30
0.0
  0
VERTEX
  8
0
 10
-2.321875159144927
 20
-25.855007169702073
 30
0.0
  0
VERTEX
  8
0
 10
-2.2615907315766433
 20
-25.856339577067196
 30
0.0
  0
VERTEX
  8
0
 10
-2.20130630400836
 20
-25.857671984432322
 30
0.0
  0
VERTEX
  8
0
 10
-2.1410218764400764
 20
-25.859004391797445
 30
0.0
  0
VERTEX
  8
0
 10
-2.080737448871793
 20
-25.860336799162567
 30
0.0
  0
VERTEX
  8
0
 10
-2.0204530213035095
 20
-25.861669206527694
 30
0.0
  0
VERTEX
  8
0
 10
-1.960168593735226
 20
-25.863001613892816
 30
0.0
  0
VERTEX
  8
0
 10
-1.8998841661669426
 20
-25.86433402125794
 30
0.0
  0
VERTEX
  8
0
 10
-1.8395997385986589
 20
-25.86566642862306
 30
0.0
  0
VERTEX
  8
0
 10
-1.7793153110303754
 20
-25.866998835988188
 30
0.0
  0
VERTEX
  8
0
 10
-1.719030883462092
 20
-25.86833124335331
 30
0.0
  0
VERTEX
  8
0
 10
-1.6043579825884966
 20
-25.87086574560982
 30
0.0
  0
VERTEX
  8
0
 10
-1.4896850817149014
 20
-25.873400247866325
 30
0.0
  0
VERTEX
  8
0
 10
-1.375012180841306
 20
-25.875934750122834
 30
0.0
  0
VERTEX
  8
0
 10
-1.2603392799677107
 20
-25.87846925237934
 30
0.0
  0
VERTEX
  8
0
 10
-1.1456663790941155
 20
-25.88100375463585
 30
0.0
  0
VERTEX
  8
0
 10
-1.0309934782205203
 20
-25.883538256892358
 30
0.0
  0
VERTEX
  8
0
 10
-0.916320577346925
 20
-25.886072759148863
 30
0.0
  0
VERTEX
  8
0
 10
-0.8016476764733296
 20
-25.888607261405372
 30
0.0
  0
VERTEX
  8
0
 10
-0.6869747755997342
 20
-25.891141763661878
 30
0.0
  0
VERTEX
  8
0
 10
-0.572301874726139
 20
-25.893676265918387
 30
0.0
  0
VERTEX
  8
0
 10
-0.3973446592026155
 20
-25.897543173044294
 30
0.0
  0
VERTEX
  8
0
 10
-0.22238744367909202
 20
-25.9014100801702
 30
0.0
  0
VERTEX
  8
0
 10
-0.04743022815556852
 20
-25.905276987296112
 30
0.0
  0
VERTEX
  8
0
 10
0.12752698736795498
 20
-25.90914389442202
 30
0.0
  0
VERTEX
  8
0
 10
0.3024842028914785
 20
-25.913010801547927
 30
0.0
  0
VERTEX
  8
0
 10
0.4774414184150024
 20
-25.916877708673834
 30
0.0
  0
VERTEX
  8
0
 10
0.6523986339385259
 20
-25.920744615799745
 30
0.0
  0
VERTEX
  8
0
 10
0.8273558494620494
 20
-25.92461152292565
 30
0.0
  0
VERTEX
  8
0
 10
1.002313064985573
 20
-25.92847843005156
 30
0.0
  0
VERTEX
  8
0
 10
1.1772702805090964
 20
-25.932345337177466
 30
0.0
  0
VERTEX
  8
0
 10
1.1679897004120485
 20
-26.352242789935953
 30
0.0
  0
VERTEX
  8
0
 10
1.1587091203150013
 20
-26.772140242694434
 30
0.0
  0
VERTEX
  8
0
 10
1.1494285402179538
 20
-27.192037695452917
 30
0.0
  0
VERTEX
  8
0
 10
1.1401479601209066
 20
-27.6119351482114
 30
0.0
  0
VERTEX
  8
0
 10
1.1308673800238593
 20
-28.031832600969885
 30
0.0
  0
VERTEX
  8
0
 10
1.121586799926812
 20
-28.451730053728365
 30
0.0
  0
VERTEX
  8
0
 10
1.1123062198297649
 20
-28.87162750648685
 30
0.0
  0
VERTEX
  8
0
 10
1.1030256397327176
 20
-29.291524959245333
 30
0.0
  0
VERTEX
  8
0
 10
1.0937450596356701
 20
-29.711422412003817
 30
0.0
  0
VERTEX
  8
0
 10
1.084464479538623
 20
-30.131319864762297
 30
0.0
  0
VERTEX
  8
0
 10
0.818091444006749
 20
-30.125432483746508
 30
0.0
  0
VERTEX
  8
0
 10
0.5517184084748745
 20
-30.119545102730722
 30
0.0
  0
VERTEX
  8
0
 10
0.285345372943
 20
-30.113657721714937
 30
0.0
  0
VERTEX
  8
0
 10
0.01897233741112503
 20
-30.10777034069915
 30
0.0
  0
VERTEX
  8
0
 10
-0.2474006981207495
 20
-30.101882959683365
 30
0.0
  0
VERTEX
  8
0
 10
-0.5137737336526238
 20
-30.09599557866758
 30
0.0
  0
VERTEX
  8
0
 10
-0.7801467691844983
 20
-30.090108197651794
 30
0.0
  0
VERTEX
  8
0
 10
-1.0465198047163726
 20
-30.084220816636005
 30
0.0
  0
VERTEX
  8
0
 10
-1.3128928402482472
 20
-30.07833343562022
 30
0.0
  0
VERTEX
  8
0
 10
-1.5792658757801217
 20
-30.072446054604434
 30
0.0
  0
VERTEX
  8
0
 10
-1.579674377721052
 20
-30.076124065125185
 30
0.0
  0
VERTEX
  8
0
 10
-1.6247950705052765
 20
-30.104623120760987
 30
0.0
  0
SEQEND
  0
POLYLINE
  8
0
 66
1
 70
0
  0
VERTEX
  8
0
 10
-28.390685301113454
 20
-10.136890562534584
 30
0.0
  0
VERTEX
  8
0
 10
-28.423027840818555
 20
-10.060019302171003
 30
0.0
  0
VERTEX
  8
0
 10
-28.388917703241237
 20
-10.04566792463767
 30
0.0
  0
VERTEX
  8
0
 10
-28.47013086265962
 20
-9.791908830118924
 30
0.0
  0
VERTEX
  8
0
 10
-28.551344022078005
 20
-9.538149735600177
 30
0.0
  0
VERTEX
  8
0
 10
-28.63255718149639
 20
-9.28439064108143
 30
0.0
  0
VERTEX
  8
0
 10
-28.713770340914778
 20
-9.030631546562683
 30
0.0
  0
VERTEX
  8
0
 10
-28.79498350033316
 20
-8.776872452043936
 30
0.0
  0
VERTEX
  8
0
 10
-28.876196659751546
 20
-8.523113357525189
 30
0.0
  0
VERTEX
  8
0
 10
-28.957409819169932
 20
-8.269354263006441
 30
0.0
  0
VERTEX
  8
0
 10
-29.038622978588318
 20
-8.015595168487694
 30
0.0
  0
VERTEX
  8
0
 10
-29.1198361380067
 20
-7.761836073968947
 30
0.0
  0
VERTEX
  8
0
 10
-29.201049297425087
 20
-7.508076979450198
 30
0.0
  0
VERTEX
  8
0
 10
-28.80103584565072
 20
-7.380056518587267
 30
0.0
  0
VERTEX
  8
0
 10
-28.401022393876357
 20
-7.252036057724336
 30
0.0
  0
VERTEX
  8
0
 10
-28.00100894210199
 20
-7.124015596861406
 30
0.0
  0
VERTEX
  8
0
 10
-27.600995490327623
 20
-6.9959951359984744
 30
0.0
  0
VERTEX
  8
0
 10
-27.200982038553256
 20
-6.867974675135543
 30
0.0
  0
VERTEX
  8
0
 10
-26.800968586778893
 20
-6.739954214272612
 30
0.0
  0
VERTEX
  8
0
 10
-26.400955135004526
 20
-6.611933753409681
 30
0.0
  0
VERTEX
  8
0
 10
-26.00094168323016
 20
-6.483913292546751
 30
0.0
  0
VERTEX
  8
0
 10
-25.600928231455796
 20
-6.3558928316838195
 30
0.0
  0
VERTEX
  8
0
 10
-25.20091477968143
 20
-6.227872370820888
 30
0.0
  0
VERTEX
  8
0
 10
-25.147572919982643
 20
-6.394544645536573
 30
0.0
  0
VERTEX
  8
0
 10
-25.09423106028386
 20
-6.5612169202522574
 30
0.0
  0
VERTEX
  8
0
 10
-25.040889200585074
 20
-6.7278891949679425
 30
0.0
  0
VERTEX
  8
0
 10
-24.987547340886287
 20
-6.8945614696836275
 30
0.0
  0
VERTEX
  8
0
 10
-24.934205481187504
 20
-7.061233744399312
 30
0.0
  0
VERTEX
  8
0
 10
-24.880863621488718
 20
-7.227906019114997
 30
0.0
  0
VERTEX
  8
0
 10
-24.82752176178993
 20
-7.394578293830682
 30
0.0
  0
VERTEX
  8
0
 10
-24.77417990209115
 20
-7.561250568546367
 30
0.0
  0
VERTEX
  8
0
 10
-24.720838042392362
 20
-7.727922843262051
 30
0.0
  0
VERTEX
  8
0
 10
-24.667496182693576
 20
-7.894595117977736
 30
0.0
  0
VERTEX
  8
0
 10
-24.632534146435482
 20
-8.00383769303482
 30
0.0
  0
VERTEX
  8
0
 10
-24.59757211017739
 20
-8.113080268091903
 30
0.0
  0
VERTEX
  8
0
 10
-24.56261007391929
 20
-8.222322843148985
 30
0.0
  0
VERTEX
  8
0
 10
-24.527648037661198
 20
-8.331565418206068
 30
0.0
  0
VERTEX
  8
0
 10
-24.4926860014031
 20
-8.440807993263151
 30
0.0
  0
VERTEX
  8
0
 10
-24.457723965145007
 20
-8.550050568320234
 30
0.0
  0
VERTEX
  8
0
 10
-24.422761928886914
 20
-8.659293143377319
 30
0.0
  0
VERTEX
  8
0
 10
-24.387799892628816
 20
-8.7685357184344
 30
0.0
  0
VERTEX
  8
0
 10
-24.352837856370723
 20
-8.877778293491485
 30
0.0
  0
VERTEX
  8
0
 10
-24.317875820112626
 20
-8.987020868548568
 30
0.0
  0
VERTEX
  8
0
 10
-24.29949599868373
 20
-9.044450561921103
 30
0.0
  0
VERTEX
  8
0
 10
-24.281116177254837
 20
-9.10188025529364
 30
0.0
  0
VERTEX
  8
0
 10
-24.26273635582594
 20
-9.159309948666177
 30
0.0
  0
VERTEX
  8
0
 10
-24.244356534397046
 20
-9.216739642038714
 30
0.0
  0
VERTEX
  8
0
 10
-24.225976712968148
 20
-9.274169335411251
 30
0.0
  0
VERTEX
  8
0
 10
-24.207596891539254
 20
-9.331599028783788
 30
0.0
  0
VERTEX
  8
0
 10
-24.18921707011036
 20
-9.389028722156326
 30
0.0
  0
VERTEX
  8
0
 10
-24.17083724868146
 20
-9.446458415528863
 30
0.0
  0
VERTEX
  8
0
 10
-24.152457427252568
 20
-9.5038881089014
 30
0.0
  0
VERTEX
  8
0
 10
-24.13407760582367
 20
-9.561317802273937
 30
0.0
  0
VERTEX
  8
0
 10
-24.530566533046684
 20
-9.688210272927073
 30
0.0
  0
VERTEX
  8
0
 10
-24.9270554602697
 20
-9.81510274358021
 30
0.0
  0
VERTEX
  8
0
 10
-25.32354438749271
 20
-9.94199521423335
 30
0.0
  0
VERTEX
  8
0
 10
-25.72003331471572
 20
-10.068887684886487
 30
0.0
  0
VERTEX
  8
0
 10
-26.116522241938732
 20
-10.195780155539625
 30
0.0
  0
VERTEX
  8
0
 10
-26.513011169161743
 20
-10.322672626192762
 30
0.0
  0
VERTEX
  8
0
 10
-26.909500096384757
 20
-10.4495650968459
 30
0.0
  0
VERTEX
  8
0
 10
-27.30598902360777
 20
-10.576457567499038
 30
0.0
  0
VERTEX
  8
0
 10
-27.70247795083078
 20
-10.703350038152177
 30
0.0
  0
VERTEX
  8
0
 10
-28.09896687805379
 20
-10.830242508805314
 30
0.0
  0
VERTEX
  8
0
 10
-28.13143653090164
 20
-10.753069127842032
 30
0.0
  0
VERTEX
  8
0
 10
-28.163906183749493
 20
-10.675895746878748
 30
0.0
  0
VERTEX
  8
0
 10
-28.19637583659734
 20
-10.598722365915465
 30
0.0
  0
VERTEX
  8
0
 10
-28.22884548944519
 20
-10.521548984952181
 30
0.0
  0
VERTEX
  8
0
 10
-28.26131514229304
 20
-10.444375603988899
 30
0.0
  0
VERTEX
  8
0
 10
-28.286835654482683
 20
-10.364634068118654
 30
0.0
  0
VERTEX
  8
0
 10
-28.312356166672323
 20
-10.284892532248408
 30
0.0
  0
VERTEX
  8
0
 10
-28.33787667886196
 20
-10.205150996378162
 30
0.0
  0
VERTEX
  8
0
 10
-28.363397191051597
 20
-10.125409460507917
 30
0.0
  0
VERTEX
  8
0
 10
-28.388917703241237
 20
-10.04566792463767
 30
0.0
  0
VERTEX
  8
0
 10
-28.005198093449653
 20
-9.884223105642725
 30
0.0
  0
VERTEX
  8
0
 10
-27.621478483658073
 20
-9.722778286647783
 30
0.0
  0
VERTEX
  8
0
 10
-27.237758873866493
 20
-9.561333467652839
 30
0.0
  0
VERTEX
  8
0
 10
-26.854039264074913
 20
-9.399888648657896
 30
0.0
  0
VERTEX
  8
0
 10
-26.470319654283333
 20
-9.238443829662954
 30
0.0
  0
VERTEX
  8
0
 10
-26.086600044491753
 20
-9.076999010668011
 30
0.0
  0
VERTEX
  8
0
 10
-25.70288043470017
 20
-8.915554191673069
 30
0.0
  0
VERTEX
  8
0
 10
-25.31916082490859
 20
-8.754109372678125
 30
0.0
  0
VERTEX
  8
0
 10
-24.93544121511701
 20
-8.592664553683182
 30
0.0
  0
VERTEX
  8
0
 10
-24.55172160532543
 20
-8.43121973468824
 30
0.0
  0
VERTEX
  8
0
 10
-24.52833702680415
 20
-8.486799848074272
 30
0.0
  0
VERTEX
  8
0
 10
-24.504952448282868
 20
-8.542379961460304
 30
0.0
  0
VERTEX
  8
0
 10
-24.481567869761587
 20
-8.597960074846338
 30
0.0
  0
VERTEX
  8
0
 10
-24.458183291240307
 20
-8.65354018823237
 30
0.0
  0
VERTEX
  8
0
 10
-24.434798712719026
 20
-8.709120301618402
 30
0.0
  0
VERTEX
  8
0
 10
-24.411414134197745
 20
-8.764700415004434
 30
0.0
  0
VERTEX
  8
0
 10
-24.388029555676464
 20
-8.820280528390466
 30
0.0
  0
VERTEX
  8
0
 10
-24.364644977155184
 20
-8.8758606417765
 30
0.0
  0
VERTEX
  8
0
 10
-24.341260398633903
 20
-8.931440755162532
 30
0.0
  0
VERTEX
  8
0
 10
-24.317875820112622
 20
-8.987020868548564
 30
0.0
  0
VERTEX
  8
0
 10
-24.273393732703518
 20
-9.092745222724783
 30
0.0
  0
VERTEX
  8
0
 10
-24.22891164529441
 20
-9.198469576901001
 30
0.0
  0
VERTEX
  8
0
 10
-24.184429557885306
 20
-9.30419393107722
 30
0.0
  0
VERTEX
  8
0
 10
-24.1399474704762
 20
-9.40991828525344
 30
0.0
  0
VERTEX
  8
0
 10
-24.095465383067097
 20
-9.515642639429657
 30
0.0
  0
VERTEX
  8
0
 10
-24.05098329565799
 20
-9.621366993605877
 30
0.0
  0
VERTEX
  8
0
 10
-24.006501208248885
 20
-9.727091347782096
 30
0.0
  0
VERTEX
  8
0
 10
-23.96201912083978
 20
-9.832815701958314
 30
0.0
  0
VERTEX
  8
0
 10
-23.917537033430676
 20
-9.938540056134533
 30
0.0
  0
VERTEX
  8
0
 10
-23.87305494602157
 20
-10.04426441031075
 30
0.0
  0
VERTEX
  8
0
 10
-23.805188314661724
 20
-10.205568795706261
 30
0.0
  0
VERTEX
  8
0
 10
-23.737321683301882
 20
-10.36687318110177
 30
0.0
  0
VERTEX
  8
0
 10
-23.669455051942037
 20
-10.528177566497279
 30
0.0
  0
VERTEX
  8
0
 10
-23.601588420582193
 20
-10.68948195189279
 30
0.0
  0
VERTEX
  8
0
 10
-23.533721789222348
 20
-10.850786337288298
 30
0.0
  0
VERTEX
  8
0
 10
-23.465855157862503
 20
-11.012090722683809
 30
0.0
  0
VERTEX
  8
0
 10
-23.397988526502658
 20
-11.173395108079317
 30
0.0
  0
VERTEX
  8
0
 10
-23.330121895142813
 20
-11.334699493474826
 30
0.0
  0
VERTEX
  8
0
 10
-23.262255263782972
 20
-11.496003878870336
 30
0.0
  0
VERTEX
  8
0
 10
-23.194388632423127
 20
-11.657308264265845
 30
0.0
  0
VERTEX
  8
0
 10
-23.581519255972438
 20
-11.820188221014122
 30
0.0
  0
VERTEX
  8
0
 10
-23.96864987952175
 20
-11.983068177762398
 30
0.0
  0
VERTEX
  8
0
 10
-24.35578050307106
 20
-12.145948134510675
 30
0.0
  0
VERTEX
  8
0
 10
-24.742911126620374
 20
-12.30882809125895
 30
0.0
  0
VERTEX
  8
0
 10
-25.13004175016969
 20
-12.471708048007226
 30
0.0
  0
VERTEX
  8
0
 10
-25.517172373719
 20
-12.634588004755503
 30
0.0
  0
VERTEX
  8
0
 10
-25.90430299726831
 20
-12.79746796150378
 30
0.0
  0
VERTEX
  8
0
 10
-26.291433620817624
 20
-12.960347918252056
 30
0.0
  0
VERTEX
  8
0
 10
-26.67856424436694
 20
-13.123227875000333
 30
0.0
  0
VERTEX
  8
0
 10
-27.06569486791625
 20
-13.286107831748609
 30
0.0
  0
VERTEX
  8
0
 10
-27.16902206893001
 20
-13.04052129945428
 30
0.0
  0
VERTEX
  8
0
 10
-27.272349269943764
 20
-12.794934767159951
 30
0.0
  0
VERTEX
  8
0
 10
-27.375676470957515
 20
-12.549348234865622
 30
0.0
  0
VERTEX
  8
0
 10
-27.47900367197127
 20
-12.303761702571292
 30
0.0
  0
VERTEX
  8
0
 10
-27.582330872985025
 20
-12.058175170276963
 30
0.0
  0
VERTEX
  8
0
 10
-27.685658073998777
 20
-11.812588637982634
 30
0.0
  0
VERTEX
  8
0
 10
-27.788985275012532
 20
-11.567002105688303
 30
0.0
  0
VERTEX
  8
0
 10
-27.892312476026284
 20
-11.321415573393974
 30
0.0
  0
VERTEX
  8
0
 10
-27.99563967704004
 20
-11.075829041099645
 30
0.0
  0
VERTEX
  8
0
 10
-28.09896687805379
 20
-10.830242508805314
 30
0.0
  0
VERTEX
  8
0
 10
-28.102491402605146
 20
-10.831370499015108
 30
0.0
  0
VERTEX
  8
0
 10
-28.1469224254399
 20
-10.801807730211813
 30
0.0
  0
SEQEND
  0
POLYLINE
  8
0
 66
1
 70
0
  0
VERTEX
  8
0
 10
-20.840155490185193
 20
21.78245810941837
 30
0.0
  0
VERTEX
  8
0
 10
-20.783174648405957
 20
21.843354859861975
 30
0.0
  0
VERTEX
  8
0
 10
-20.75615289117421
 20
21.818070711492762
 30
0.0
  0
VERTEX
  8
0
 10
-20.557626364546213
 20
21.995768414175473
 30
0.0
  0
VERTEX
  8
0
 10
-20.359099837918215
 20
22.17346611685818
 30
0.0
  0
VERTEX
  8
0
 10
-20.160573311290214
 20
22.35116381954089
 30
0.0
  0
VERTEX
  8
0
 10
-19.962046784662217
 20
22.5288615222236
 30
0.0
  0
VERTEX
  8
0
 10
-19.76352025803422
 20
22.70655922490631
 30
0.0
  0
VERTEX
  8
0
 10
-19.56499373140622
 20
22.88425692758902
 30
0.0
  0
VERTEX
  8
0
 10
-19.36646720477822
 20
23.06195463027173
 30
0.0
  0
VERTEX
  8
0
 10
-19.167940678150224
 20
23.23965233295444
 30
0.0
  0
VERTEX
  8
0
 10
-18.969414151522223
 20
23.41735003563715
 30
0.0
  0
VERTEX
  8
0
 10
-18.770887624894225
 20
23.59504773831986
 30
0.0
  0
VERTEX
  8
0
 10
-18.490773639000274
 20
23.282100210918532
 30
0.0
  0
VERTEX
  8
0
 10
-18.210659653106326
 20
22.969152683517205
 30
0.0
  0
VERTEX
  8
0
 10
-17.930545667212375
 20
22.656205156115877
 30
0.0
  0
VERTEX
  8
0
 10
-17.650431681318427
 20
22.343257628714554
 30
0.0
  0
VERTEX
  8
0
 10
-17.370317695424475
 20
22.030310101313226
 30
0.0
  0
VERTEX
  8
0
 10
-17.090203709530527
 20
21.7173625739119
 30
0.0
  0
VERTEX
  8
0
 10
-16.810089723636576
 20
21.40441504651057
 30
0.0
  0
VERTEX
  8
0
 10
-16.529975737742625
 20
21.091467519109248
 30
0.0
  0
VERTEX
  8
0
 10
-16.249861751848677
 20
20.77851999170792
 30
0.0
  0
VERTEX
  8
0
 10
-15.969747765954725
 20
20.465572464306593
 30
0.0
  0
VERTEX
  8
0
 10
-16.10014257651115
 20
20.348858296828908
 30
0.0
  0
VERTEX
  8
0
 10
-16.230537387067574
 20
20.23214412935122
 30
0.0
  0
VERTEX
  8
0
 10
-16.360932197623995
 20
20.115429961873534
 30
0.0
  0
VERTEX
  8
0
 10
-16.49132700818042
 20
19.998715794395846
 30
0.0
  0
VERTEX
  8
0
 10
-16.621721818736845
 20
19.88200162691816
 30
0.0
  0
VERTEX
  8
0
 10
-16.75211662929327
 20
19.765287459440472
 30
0.0
  0
VERTEX
  8
0
 10
-16.88251143984969
 20
19.648573291962787
 30
0.0
  0
VERTEX
  8
0
 10
-17.012906250406115
 20
19.5318591244851
 30
0.0
  0
VERTEX
  8
0
 10
-17.14330106096254
 20
19.415144957007413
 30
0.0
  0
VERTEX
  8
0
 10
-17.273695871518964
 20
19.298430789529725
 30
0.0
  0
VERTEX
  8
0
 10
-17.359160976739577
 20
19.221932433792627
 30
0.0
  0
VERTEX
  8
0
 10
-17.44462608196019
 20
19.145434078055526
 30
0.0
  0
VERTEX
  8
0
 10
-17.53009118718081
 20
19.06893572231843
 30
0.0
  0
VERTEX
  8
0
 10
-17.615556292401422
 20
18.992437366581328
 30
0.0
  0
VERTEX
  8
0
 10
-17.70102139762204
 20
18.91593901084423
 30
0.0
  0
VERTEX
  8
0
 10
-17.786486502842653
 20
18.83944065510713
 30
0.0
  0
VERTEX
  8
0
 10
-17.871951608063267
 20
18.76294229937003
 30
0.0
  0
VERTEX
  8
0
 10
-17.957416713283884
 20
18.68644394363293
 30
0.0
  0
VERTEX
  8
0
 10
-18.042881818504497
 20
18.609945587895833
 30
0.0
  0
VERTEX
  8
0
 10
-18.12834692372511
 20
18.533447232158732
 30
0.0
  0
VERTEX
  8
0
 10
-18.173276614115846
 20
18.493231433795227
 30
0.0
  0
VERTEX
  8
0
 10
-18.21820630450658
 20
18.453015635431722
 30
0.0
  0
VERTEX
  8
0
 10
-18.26313599489731
 20
18.412799837068217
 30
0.0
  0
VERTEX
  8
0
 10
-18.308065685288046
 20
18.37258403870471
 30
0.0
  0
VERTEX
  8
0
 10
-18.35299537567878
 20
18.332368240341204
 30
0.0
  0
VERTEX
  8
0
 10
-18.39792506606951
 20
18.2921524419777
 30
0.0
  0
VERTEX
  8
0
 10
-18.442854756460246
 20
18.251936643614194
 30
0.0
  0
VERTEX
  8
0
 10
-18.48778444685098
 20
18.21172084525069
 30
0.0
  0
VERTEX
  8
0
 10
-18.53271413724171
 20
18.171505046887184
 30
0.0
  0
VERTEX
  8
0
 10
-18.577643827632446
 20
18.131289248523675
 30
0.0
  0
VERTEX
  8
0
 10
-18.85528972497567
 20
18.44147939054529
 30
0.0
  0
VERTEX
  8
0
 10
-19.132935622318893
 20
18.7516695325669
 30
0.0
  0
VERTEX
  8
0
 10
-19.410581519662117
 20
19.061859674588515
 30
0.0
  0
VERTEX
  8
0
 10
-19.68822741700534
 20
19.372049816610126
 30
0.0
  0
VERTEX
  8
0
 10
-19.965873314348567
 20
19.68223995863174
 30
0.0
  0
VERTEX
  8
0
 10
-20.24351921169179
 20
19.99243010065335
 30
0.0
  0
VERTEX
  8
0
 10
-20.521165109035014
 20
20.302620242674966
 30
0.0
  0
VERTEX
  8
0
 10
-20.798811006378237
 20
20.612810384696576
 30
0.0
  0
VERTEX
  8
0
 10
-21.07645690372146
 20
20.92300052671819
 30
0.0
  0
VERTEX
  8
0
 10
-21.354102801064684
 20
21.2331906687398
 30
0.0
  0
VERTEX
  8
0
 10
-21.29689801231217
 20
21.294326756520633
 30
0.0
  0
VERTEX
  8
0
 10
-21.23969322355966
 20
21.355462844301464
 30
0.0
  0
VERTEX
  8
0
 10
-21.182488434807144
 20
21.416598932082298
 30
0.0
  0
VERTEX
  8
0
 10
-21.125283646054633
 20
21.47773501986313
 30
0.0
  0
VERTEX
  8
0
 10
-21.06807885730212
 20
21.53887110764396
 30
0.0
  0
VERTEX
  8
0
 10
-21.005693664076542
 20
21.594711028413723
 30
0.0
  0
VERTEX
  8
0
 10
-20.94330847085096
 20
21.650550949183483
 30
0.0
  0
VERTEX
  8
0
 10
-20.880923277625378
 20
21.706390869953243
 30
0.0
  0
VERTEX
  8
0
 10
-20.818538084399794
 20
21.762230790723002
 30
0.0
  0
VERTEX
  8
0
 10
-20.75615289117421
 20
21.818070711492762
 30
0.0
  0
VERTEX
  8
0
 10
-20.452173520896217
 20
21.533638450727025
 30
0.0
  0
VERTEX
  8
0
 10
-20.148194150618224
 20
21.24920618996129
 30
0.0
  0
VERTEX
  8
0
 10
-19.84421478034023
 20
20.96477392919555
 30
0.0
  0
VERTEX
  8
0
 10
-19.540235410062238
 20
20.68034166842982
 30
0.0
  0
VERTEX
  8
0
 10
-19.236256039784244
 20
20.39590940766408
 30
0.0
  0
VERTEX
  8
0
 10
-18.93227666950625
 20
20.111477146898345
 30
0.0
  0
VERTEX
  8
0
 10
-18.628297299228258
 20
19.827044886132608
 30
0.0
  0
VERTEX
  8
0
 10
-18.324317928950265
 20
19.542612625366875
 30
0.0
  0
VERTEX
  8
0
 10
-18.02033855867227
 20
19.258180364601138
 30
0.0
  0
VERTEX
  8
0
 10
-17.71635918839428
 20
18.9737481038354
 30
0.0
  0
VERTEX
  8
0
 10
-17.75755796192736
 20
18.929718016667735
 30
0.0
  0
VERTEX
  8
0
 10
-17.798756735460444
 20
18.885687929500065
 30
0.0
  0
VERTEX
  8
0
 10
-17.839955508993526
 20
18.8416578423324
 30
0.0
  0
VERTEX
  8
0
 10
-17.88115428252661
 20
18.79762775516473
 30
0.0
  0
VERTEX
  8
0
 10
-17.92235305605969
 20
18.753597667997063
 30
0.0
  0
VERTEX
  8
0
 10
-17.963551829592774
 20
18.709567580829397
 30
0.0
  0
VERTEX
  8
0
 10
-18.004750603125856
 20
18.665537493661727
 30
0.0
  0
VERTEX
  8
0
 10
-18.04594937665894
 20
18.62150740649406
 30
0.0
  0
VERTEX
  8
0
 10
-18.08714815019202
 20
18.577477319326395
 30
0.0
  0
VERTEX
  8
0
 10
-18.128346923725104
 20
18.533447232158725
 30
0.0
  0
VERTEX
  8
0
 10
-18.206715113480698
 20
18.449693325665848
 30
0.0
  0
VERTEX
  8
0
 10
-18.285083303236288
 20
18.36593941917297
 30
0.0
  0
VERTEX
  8
0
 10
-18.363451492991878
 20
18.282185512680094
 30
0.0
  0
VERTEX
  8
0
 10
-18.44181968274747
 20
18.19843160618722
 30
0.0
  0
VERTEX
  8
0
 10
-18.52018787250306
 20
18.114677699694344
 30
0.0
  0
VERTEX
  8
0
 10
-18.598556062258652
 20
18.030923793201467
 30
0.0
  0
VERTEX
  8
0
 10
-18.676924252014246
 20
17.94716988670859
 30
0.0
  0
VERTEX
  8
0
 10
-18.755292441769836
 20
17.863415980215713
 30
0.0
  0
VERTEX
  8
0
 10
-18.83366063152543
 20
17.779662073722836
 30
0.0
  0
VERTEX
  8
0
 10
-18.91202882128102
 20
17.69590816722996
 30
0.0
  0
VERTEX
  8
0
 10
-19.031595754327892
 20
17.56812420588953
 30
0.0
  0
VERTEX
  8
0
 10
-19.151162687374768
 20
17.440340244549102
 30
0.0
  0
VERTEX
  8
0
 10
-19.27072962042164
 20
17.31255628320867
 30
0.0
  0
VERTEX
  8
0
 10
-19.390296553468513
 20
17.184772321868245
 30
0.0
  0
VERTEX
  8
0
 10
-19.50986348651539
 20
17.056988360527814
 30
0.0
  0
VERTEX
  8
0
 10
-19.62943041956226
 20
16.929204399187384
 30
0.0
  0
VERTEX
  8
0
 10
-19.748997352609134
 20
16.801420437846957
 30
0.0
  0
VERTEX
  8
0
 10
-19.86856428565601
 20
16.673636476506527
 30
0.0
  0
VERTEX
  8
0
 10
-19.988131218702883
 20
16.545852515166096
 30
0.0
  0
VERTEX
  8
0
 10
-20.107698151749755
 20
16.41806855382567
 30
0.0
  0
VERTEX
  8
0
 10
-20.414379697750928
 20
16.705029229428323
 30
0.0
  0
VERTEX
  8
0
 10
-20.721061243752093
 20
16.99198990503098
 30
0.0
  0
VERTEX
  8
0
 10
-21.027742789753262
 20
17.278950580633637
 30
0.0
  0
VERTEX
  8
0
 10
-21.33442433575443
 20
17.565911256236294
 30
0.0
  0
VERTEX
  8
0
 10
-21.6411058817556
 20
17.85287193183895
 30
0.0
  0
VERTEX
  8
0
 10
-21.947787427756765
 20
18.139832607441612
 30
0.0
  0
VERTEX
  8
0
 10
-22.254468973757934
 20
18.42679328304427
 30
0.0
  0
VERTEX
  8
0
 10
-22.561150519759103
 20
18.713753958646926
 30
0.0
  0
VERTEX
  8
0
 10
-22.86783206576027
 20
19.000714634249583
 30
0.0
  0
VERTEX
  8
0
 10
-23.174513611761437
 20
19.28767530985224
 30
0.0
  0
VERTEX
  8
0
 10
-22.992472530691764
 20
19.482226845741
 30
0.0
  0
VERTEX
  8
0
 10
-22.810431449622087
 20
19.676778381629752
 30
0.0
  0
VERTEX
  8
0
 10
-22.628390368552413
 20
19.87132991751851
 30
0.0
  0
VERTEX
  8
0
 10
-22.446349287482736
 20
20.065881453407265
 30
0.0
  0
VERTEX
  8
0
 10
-22.264308206413062
 20
20.26043298929602
 30
0.0
  0
VERTEX
  8
0
 10
-22.082267125343385
 20
20.454984525184777
 30
0.0
  0
VERTEX
  8
0
 10
-21.90022604427371
 20
20.649536061073533
 30
0.0
  0
VERTEX
  8
0
 10
-21.718184963204035
 20
20.84408759696229
 30
0.0
  0
VERTEX
  8
0
 10
-21.536143882134358
 20
21.038639132851046
 30
0.0
  0
VERTEX
  8
0
 10
-21.354102801064684
 20
21.2331906687398
 30
0.0
  0
VERTEX
  8
0
 10
-21.356570889615412
 20
21.23594805411952
 30
0.0
  0
VERTEX
  8
0
 10
-21.347713203644965
 20
21.288575181047644
 30
0.0
  0
SEQEND
  0
POLYLINE
  8
0
 66
1
 70
0
  0
VERTEX
  8
0
 10
11.381698059220554
 20
27.914951395845154
 30
0.0
  0
VERTEX
  8
0
 10
11.46054631771991
 20
27.887781878439107
 30
0.0
  0
VERTEX
  8
0
 10
11.448490368952497
 20
27.85279448611036
 30
0.0
  0
VERTEX
  8
0
 10
11.691733756992893
 20
27.74406588137214
 30
0.0
  0
VERTEX
  8
0
 10
11.934977145033288
 20
27.63533727663392
 30
0.0
  0
VERTEX
  8
0
 10
12.178220533073683
 20
27.526608671895698
 30
0.0
  0
VERTEX
  8
0
 10
12.421463921114078
 20
27.41788006715748
 30
0.0
  0
VERTEX
  8
0
 10
12.664707309154474
 20
27.30915146241926
 30
0.0
  0
VERTEX
  8
0
 10
12.907950697194869
 20
27.20042285768104
 30
0.0
  0
VERTEX
  8
0
 10
13.151194085235264
 20
27.09169425294282
 30
0.0
  0
VERTEX
  8
0
 10
13.39443747327566
 20
26.982965648204598
 30
0.0
  0
VERTEX
  8
0
 10
13.637680861316055
 20
26.87423704346638
 30
0.0
  0
VERTEX
  8
0
 10
13.880924249356447
 20
26.765508438728155
 30
0.0
  0
VERTEX
  8
0
 10
13.709529783394823
 20
26.38207143342255
 30
0.0
  0
VERTEX
  8
0
 10
13.538135317433198
 20
25.998634428116947
 30
0.0
  0
VERTEX
  8
0
 10
13.366740851471574
 20
25.61519742281134
 30
0.0
  0
VERTEX
  8
0
 10
13.19534638550995
 20
25.23176041750574
 30
0.0
  0
VERTEX
  8
0
 10
13.023951919548324
 20
24.848323412200134
 30
0.0
  0
VERTEX
  8
0
 10
12.8525574535867
 20
24.464886406894532
 30
0.0
  0
VERTEX
  8
0
 10
12.681162987625076
 20
24.081449401588927
 30
0.0
  0
VERTEX
  8
0
 10
12.50976852166345
 20
23.698012396283325
 30
0.0
  0
VERTEX
  8
0
 10
12.338374055701825
 20
23.31457539097772
 30
0.0
  0
VERTEX
  8
0
 10
12.166979589740201
 20
22.931138385672117
 30
0.0
  0
VERTEX
  8
0
 10
12.007214184021457
 20
23.002552740607634
 30
0.0
  0
VERTEX
  8
0
 10
11.847448778302711
 20
23.073967095543154
 30
0.0
  0
VERTEX
  8
0
 10
11.687683372583967
 20
23.14538145047867
 30
0.0
  0
VERTEX
  8
0
 10
11.527917966865223
 20
23.21679580541419
 30
0.0
  0
VERTEX
  8
0
 10
11.368152561146477
 20
23.288210160349706
 30
0.0
  0
VERTEX
  8
0
 10
11.208387155427733
 20
23.359624515285226
 30
0.0
  0
VERTEX
  8
0
 10
11.048621749708989
 20
23.431038870220743
 30
0.0
  0
VERTEX
  8
0
 10
10.888856343990243
 20
23.502453225156263
 30
0.0
  0
VERTEX
  8
0
 10
10.729090938271499
 20
23.57386758009178
 30
0.0
  0
VERTEX
  8
0
 10
10.569325532552755
 20
23.6452819350273
 30
0.0
  0
VERTEX
  8
0
 10
10.4646099233283
 20
23.692089300181234
 30
0.0
  0
VERTEX
  8
0
 10
10.359894314103848
 20
23.738896665335172
 30
0.0
  0
VERTEX
  8
0
 10
10.255178704879395
 20
23.785704030489107
 30
0.0
  0
VERTEX
  8
0
 10
10.15046309565494
 20
23.832511395643046
 30
0.0
  0
VERTEX
  8
0
 10
10.045747486430487
 20
23.879318760796984
 30
0.0
  0
VERTEX
  8
0
 10
9.941031877206033
 20
23.92612612595092
 30
0.0
  0
VERTEX
  8
0
 10
9.83631626798158
 20
23.972933491104857
 30
0.0
  0
VERTEX
  8
0
 10
9.731600658757127
 20
24.019740856258792
 30
0.0
  0
VERTEX
  8
0
 10
9.626885049532675
 20
24.06654822141273
 30
0.0
  0
VERTEX
  8
0
 10
9.52216944030822
 20
24.113355586566666
 30
0.0
  0
VERTEX
  8
0
 10
9.46711961749675
 20
24.137962588111897
 30
0.0
  0
VERTEX
  8
0
 10
9.412069794685276
 20
24.16256958965713
 30
0.0
  0
VERTEX
  8
0
 10
9.357019971873806
 20
24.187176591202363
 30
0.0
  0
VERTEX
  8
0
 10
9.301970149062335
 20
24.211783592747594
 30
0.0
  0
VERTEX
  8
0
 10
9.246920326250862
 20
24.23639059429283
 30
0.0
  0
VERTEX
  8
0
 10
9.19187050343939
 20
24.26099759583806
 30
0.0
  0
VERTEX
  8
0
 10
9.136820680627919
 20
24.28560459738329
 30
0.0
  0
VERTEX
  8
0
 10
9.081770857816448
 20
24.310211598928525
 30
0.0
  0
VERTEX
  8
0
 10
9.026721035004975
 20
24.334818600473756
 30
0.0
  0
VERTEX
  8
0
 10
8.971671212193504
 20
24.359425602018987
 30
0.0
  0
VERTEX
  8
0
 10
9.14155551893281
 20
24.739484138092866
 30
0.0
  0
VERTEX
  8
0
 10
9.311439825672117
 20
25.11954267416674
 30
0.0
  0
VERTEX
  8
0
 10
9.481324132411427
 20
25.499601210240616
 30
0.0
  0
VERTEX
  8
0
 10
9.651208439150734
 20
25.87965974631449
 30
0.0
  0
VERTEX
  8
0
 10
9.821092745890041
 20
26.25971828238837
 30
0.0
  0
VERTEX
  8
0
 10
9.990977052629349
 20
26.639776818462245
 30
0.0
  0
VERTEX
  8
0
 10
10.160861359368656
 20
27.01983535453612
 30
0.0
  0
VERTEX
  8
0
 10
10.330745666107966
 20
27.399893890609995
 30
0.0
  0
VERTEX
  8
0
 10
10.500629972847273
 20
27.77995242668387
 30
0.0
  0
VERTEX
  8
0
 10
10.67051427958658
 20
28.160010962757745
 30
0.0
  0
VERTEX
  8
0
 10
10.74967242871389
 20
28.132734663300067
 30
0.0
  0
VERTEX
  8
0
 10
10.828830577841197
 20
28.105458363842388
 30
0.0
  0
VERTEX
  8
0
 10
10.907988726968505
 20
28.07818206438471
 30
0.0
  0
VERTEX
  8
0
 10
10.987146876095812
 20
28.05090576492703
 30
0.0
  0
VERTEX
  8
0
 10
11.066305025223121
 20
28.02362946546935
 30
0.0
  0
VERTEX
  8
0
 10
11.142742093968996
 20
27.98946246959755
 30
0.0
  0
VERTEX
  8
0
 10
11.219179162714871
 20
27.955295473725755
 30
0.0
  0
VERTEX
  8
0
 10
11.295616231460746
 20
27.921128477853955
 30
0.0
  0
VERTEX
  8
0
 10
11.372053300206622
 20
27.88696148198216
 30
0.0
  0
VERTEX
  8
0
 10
11.448490368952497
 20
27.85279448611036
 30
0.0
  0
VERTEX
  8
0
 10
11.312867815504475
 20
27.459206260276364
 30
0.0
  0
VERTEX
  8
0
 10
11.177245262056454
 20
27.06561803444237
 30
0.0
  0
VERTEX
  8
0
 10
11.041622708608434
 20
26.672029808608375
 30
0.0
  0
VERTEX
  8
0
 10
10.906000155160413
 20
26.27844158277438
 30
0.0
  0
VERTEX
  8
0
 10
10.770377601712392
 20
25.884853356940386
 30
0.0
  0
VERTEX
  8
0
 10
10.634755048264372
 20
25.491265131106392
 30
0.0
  0
VERTEX
  8
0
 10
10.499132494816351
 20
25.097676905272397
 30
0.0
  0
VERTEX
  8
0
 10
10.36350994136833
 20
24.704088679438403
 30
0.0
  0
VERTEX
  8
0
 10
10.22788738792031
 20
24.31050045360441
 30
0.0
  0
VERTEX
  8
0
 10
10.092264834472289
 20
23.916912227770414
 30
0.0
  0
VERTEX
  8
0
 10
10.035255295055881
 20
23.93655656365004
 30
0.0
  0
VERTEX
  8
0
 10
9.978245755639476
 20
23.956200899529666
 30
0.0
  0
VERTEX
  8
0
 10
9.921236216223068
 20
23.975845235409288
 30
0.0
  0
VERTEX
  8
0
 10
9.86422667680666
 20
23.995489571288914
 30
0.0
  0
VERTEX
  8
0
 10
9.807217137390253
 20
24.01513390716854
 30
0.0
  0
VERTEX
  8
0
 10
9.750207597973848
 20
24.034778243048166
 30
0.0
  0
VERTEX
  8
0
 10
9.69319805855744
 20
24.054422578927788
 30
0.0
  0
VERTEX
  8
0
 10
9.636188519141033
 20
24.074066914807414
 30
0.0
  0
VERTEX
  8
0
 10
9.579178979724626
 20
24.09371125068704
 30
0.0
  0
VERTEX
  8
0
 10
9.52216944030822
 20
24.113355586566666
 30
0.0
  0
VERTEX
  8
0
 10
9.413726079730466
 20
24.150722978426202
 30
0.0
  0
VERTEX
  8
0
 10
9.305282719152713
 20
24.188090370285742
 30
0.0
  0
VERTEX
  8
0
 10
9.196839358574959
 20
24.22545776214528
 30
0.0
  0
VERTEX
  8
0
 10
9.088395997997207
 20
24.26282515400482
 30
0.0
  0
VERTEX
  8
0
 10
8.979952637419453
 20
24.300192545864356
 30
0.0
  0
VERTEX
  8
0
 10
8.8715092768417
 20
24.337559937723896
 30
0.0
  0
VERTEX
  8
0
 10
8.763065916263947
 20
24.374927329583432
 30
0.0
  0
VERTEX
  8
0
 10
8.654622555686194
 20
24.412294721442972
 30
0.0
  0
VERTEX
  8
0
 10
8.54617919510844
 20
24.44966211330251
 30
0.0
  0
VERTEX
  8
0
 10
8.437735834530688
 20
24.48702950516205
 30
0.0
  0
VERTEX
  8
0
 10
8.272282930302456
 20
24.544041234360186
 30
0.0
  0
VERTEX
  8
0
 10
8.106830026074226
 20
24.601052963558324
 30
0.0
  0
VERTEX
  8
0
 10
7.941377121845996
 20
24.65806469275646
 30
0.0
  0
VERTEX
  8
0
 10
7.775924217617764
 20
24.715076421954603
 30
0.0
  0
VERTEX
  8
0
 10
7.610471313389533
 20
24.77208815115274
 30
0.0
  0
VERTEX
  8
0
 10
7.445018409161303
 20
24.829099880350878
 30
0.0
  0
VERTEX
  8
0
 10
7.279565504933072
 20
24.886111609549015
 30
0.0
  0
VERTEX
  8
0
 10
7.114112600704841
 20
24.943123338747156
 30
0.0
  0
VERTEX
  8
0
 10
6.948659696476611
 20
25.000135067945294
 30
0.0
  0
VERTEX
  8
0
 10
6.7832067922483805
 20
25.05714679714343
 30
0.0
  0
VERTEX
  8
0
 10
6.920034940573142
 20
25.454233762210304
 30
0.0
  0
VERTEX
  8
0
 10
7.056863088897904
 20
25.851320727277173
 30
0.0
  0
VERTEX
  8
0
 10
7.193691237222666
 20
26.248407692344042
 30
0.0
  0
VERTEX
  8
0
 10
7.330519385547428
 20
26.64549465741091
 30
0.0
  0
VERTEX
  8
0
 10
7.467347533872191
 20
27.04258162247778
 30
0.0
  0
VERTEX
  8
0
 10
7.604175682196953
 20
27.43966858754465
 30
0.0
  0
VERTEX
  8
0
 10
7.741003830521715
 20
27.836755552611518
 30
0.0
  0
VERTEX
  8
0
 10
7.877831978846477
 20
28.233842517678386
 30
0.0
  0
VERTEX
  8
0
 10
8.01466012717124
 20
28.630929482745255
 30
0.0
  0
VERTEX
  8
0
 10
8.151488275496002
 20
29.028016447812128
 30
0.0
  0
VERTEX
  8
0
 10
8.40339087590506
 20
28.941215899306687
 30
0.0
  0
VERTEX
  8
0
 10
8.655293476314117
 20
28.85441535080125
 30
0.0
  0
VERTEX
  8
0
 10
8.907196076723176
 20
28.76761480229581
 30
0.0
  0
VERTEX
  8
0
 10
9.159098677132235
 20
28.680814253790373
 30
0.0
  0
VERTEX
  8
0
 10
9.411001277541292
 20
28.594013705284937
 30
0.0
  0
VERTEX
  8
0
 10
9.662903877950349
 20
28.5072131567795
 30
0.0
  0
VERTEX
  8
0
 10
9.914806478359408
 20
28.42041260827406
 30
0.0
  0
VERTEX
  8
0
 10
10.166709078768465
 20
28.333612059768623
 30
0.0
  0
VERTEX
  8
0
 10
10.418611679177523
 20
28.246811511263186
 30
0.0
  0
VERTEX
  8
0
 10
10.67051427958658
 20
28.160010962757745
 30
0.0
  0
VERTEX
  8
0
 10
10.672024438808897
 20
28.163389431989472
 30
0.0
  0
VERTEX
  8
0
 10
10.72368478715109
 20
28.176779036114464
 30
0.0
  0
SEQEND
  0
POLYLINE
  8
0
 66
1
 70
1
  0
VERTEX
  8
0
 10
12.931459924083443
 20
-26.77204221257362
 30
0.0
  0
VERTEX
  8
0
 10
12.7268411005805
 20
-26.405257347743742
 30
0.0
  0
VERTEX
  8
0
 10
12.522222277077558
 20
-26.038472482913864
 30
0.0
  0
VERTEX
  8
0
 10
12.317603453574616
 20
-25.671687618083986
 30
0.0
  0
VERTEX
  8
0
 10
12.112984630071674
 20
-25.304902753254108
 30
0.0
  0
VERTEX
  8
0
 10
11.908365806568732
 20
-24.93811788842423
 30
0.0
  0
VERTEX
  8
0
 10
11.703746983065788
 20
-24.571333023594352
 30
0.0
  0
VERTEX
  8
0
 10
11.499128159562845
 20
-24.204548158764474
 30
0.0
  0
VERTEX
  8
0
 10
11.294509336059903
 20
-23.837763293934596
 30
0.0
  0
VERTEX
  8
0
 10
11.089890512556961
 20
-23.47097842910472
 30
0.0
  0
VERTEX
  8
0
 10
11.242717538071993
 20
-23.38572058681386
 30
0.0
  0
VERTEX
  8
0
 10
11.395544563587023
 20
-23.300462744523
 30
0.0
  0
VERTEX
  8
0
 10
11.548371589102054
 20
-23.21520490223214
 30
0.0
  0
VERTEX
  8
0
 10
11.701198614617086
 20
-23.12994705994128
 30
0.0
  0
VERTEX
  8
0
 10
11.854025640132116
 20
-23.044689217650422
 30
0.0
  0
VERTEX
  8
0
 10
12.006852665647148
 20
-22.959431375359564
 30
0.0
  0
VERTEX
  8
0
 10
12.159679691162179
 20
-22.874173533068703
 30
0.0
  0
VERTEX
  8
0
 10
12.31250671667721
 20
-22.788915690777845
 30
0.0
  0
VERTEX
  8
0
 10
12.465333742192241
 20
-22.703657848486984
 30
0.0
  0
VERTEX
  8
0
 10
12.618160767707273
 20
-22.618400006196126
 30
0.0
  0
VERTEX
  8
0
 10
12.77098779621714
 20
-22.533142162234533
 30
0.0
  0
VERTEX
  8
0
 10
12.923814824727007
 20
-22.44788431827294
 30
0.0
  0
VERTEX
  8
0
 10
13.076641853236874
 20
-22.362626474311348
 30
0.0
  0
VERTEX
  8
0
 10
13.22946888174674
 20
-22.277368630349756
 30
0.0
  0
VERTEX
  8
0
 10
13.382295910256607
 20
-22.192110786388163
 30
0.0
  0
VERTEX
  8
0
 10
13.535122938766474
 20
-22.10685294242657
 30
0.0
  0
VERTEX
  8
0
 10
13.687949967276342
 20
-22.021595098464978
 30
0.0
  0
VERTEX
  8
0
 10
13.840776995786207
 20
-21.936337254503382
 30
0.0
  0
VERTEX
  8
0
 10
13.993604024296076
 20
-21.85107941054179
 30
0.0
  0
VERTEX
  8
0
 10
14.146431052805942
 20
-21.765821566580197
 30
0.0
  0
VERTEX
  8
0
 10
14.351049876308885
 20
-22.13260643141008
 30
0.0
  0
VERTEX
  8
0
 10
14.555668699811827
 20
-22.499391296239956
 30
0.0
  0
VERTEX
  8
0
 10
14.76028752331477
 20
-22.866176161069834
 30
0.0
  0
VERTEX
  8
0
 10
14.964906346817713
 20
-23.232961025899712
 30
0.0
  0
VERTEX
  8
0
 10
15.169525170320656
 20
-23.59974589072959
 30
0.0
  0
VERTEX
  8
0
 10
15.374143993823598
 20
-23.966530755559468
 30
0.0
  0
VERTEX
  8
0
 10
15.57876281732654
 20
-24.333315620389346
 30
0.0
  0
VERTEX
  8
0
 10
15.783381640829482
 20
-24.700100485219224
 30
0.0
  0
VERTEX
  8
0
 10
15.988000464332424
 20
-25.066885350049102
 30
0.0
  0
VERTEX
  8
0
 10
16.192619287835367
 20
-25.43367021487898
 30
0.0
  0
VERTEX
  8
0
 10
15.88696523381047
 20
-25.60418590113143
 30
0.0
  0
VERTEX
  8
0
 10
15.581311179785573
 20
-25.77470158738388
 30
0.0
  0
VERTEX
  8
0
 10
15.275657125760674
 20
-25.945217273636334
 30
0.0
  0
VERTEX
  8
0
 10
14.970003071735775
 20
-26.115732959888785
 30
0.0
  0
VERTEX
  8
0
 10
14.664349017710878
 20
-26.28624864614124
 30
0.0
  0
VERTEX
  8
0
 10
14.358694963685979
 20
-26.45676433239369
 30
0.0
  0
VERTEX
  8
0
 10
14.053040909661082
 20
-26.627280018646143
 30
0.0
  0
VERTEX
  8
0
 10
13.747386855636183
 20
-26.797795704898594
 30
0.0
  0
VERTEX
  8
0
 10
13.441732801611286
 20
-26.968311391151047
 30
0.0
  0
VERTEX
  8
0
 10
13.136078747586387
 20
-27.138827077403498
 30
0.0
  0
SEQEND
  0
POLYLINE
  8
0
 66
1
 70
1
  0
VERTEX
  8
0
 10
-19.164311962171432
 20
-22.730905107728834
 30
0.0
  0
VERTEX
  8
0
 10
-18.91295873316713
 20
-22.394421000720627
 30
0.0
  0
VERTEX
  8
0
 10
-18.661605504162832
 20
-22.057936893712416
 30
0.0
  0
VERTEX
  8
0
 10
-18.41025227515853
 20
-21.72145278670421
 30
0.0
  0
VERTEX
  8
0
 10
-18.15889904615423
 20
-21.384968679695998
 30
0.0
  0
VERTEX
  8
0
 10
-17.90754581714993
 20
-21.04848457268779
 30
0.0
  0
VERTEX
  8
0
 10
-17.65619258814563
 20
-20.71200046567958
 30
0.0
  0
VERTEX
  8
0
 10
-17.404839359141327
 20
-20.375516358671373
 30
0.0
  0
VERTEX
  8
0
 10
-17.15348613013703
 20
-20.039032251663162
 30
0.0
  0
VERTEX
  8
0
 10
-16.902132901132727
 20
-19.702548144654955
 30
0.0
  0
VERTEX
  8
0
 10
-16.761931238262846
 20
-19.807278620597636
 30
0.0
  0
VERTEX
  8
0
 10
-16.621729575392965
 20
-19.912009096540313
 30
0.0
  0
VERTEX
  8
0
 10
-16.481527912523084
 20
-20.01673957248299
 30
0.0
  0
VERTEX
  8
0
 10
-16.3413262496532
 20
-20.12147004842567
 30
0.0
  0
VERTEX
  8
0
 10
-16.20112458678332
 20
-20.226200524368352
 30
0.0
  0
VERTEX
  8
0
 10
-16.060922923913438
 20
-20.33093100031103
 30
0.0
  0
VERTEX
  8
0
 10
-15.920721261043557
 20
-20.435661476253706
 30
0.0
  0
VERTEX
  8
0
 10
-15.780519598173676
 20
-20.540391952196387
 30
0.0
  0
VERTEX
  8
0
 10
-15.640317935303795
 20
-20.645122428139068
 30
0.0
  0
VERTEX
  8
0
 10
-15.500116272433912
 20
-20.749852904081745
 30
0.0
  0
VERTEX
  8
0
 10
-15.359914512796953
 20
-20.854583452309317
 30
0.0
  0
VERTEX
  8
0
 10
-15.219712753159994
 20
-20.95931400053689
 30
0.0
  0
VERTEX
  8
0
 10
-15.079510993523035
 20
-21.06404454876446
 30
0.0
  0
VERTEX
  8
0
 10
-14.939309233886075
 20
-21.168775096992032
 30
0.0
  0
VERTEX
  8
0
 10
-14.799107474249116
 20
-21.2735056452196
 30
0.0
  0
VERTEX
  8
0
 10
-14.658905714612157
 20
-21.378236193447172
 30
0.0
  0
VERTEX
  8
0
 10
-14.518703954975198
 20
-21.482966741674744
 30
0.0
  0
VERTEX
  8
0
 10
-14.378502195338239
 20
-21.587697289902316
 30
0.0
  0
VERTEX
  8
0
 10
-14.23830043570128
 20
-21.692427838129888
 30
0.0
  0
VERTEX
  8
0
 10
-14.098098676064321
 20
-21.79715838635746
 30
0.0
  0
VERTEX
  8
0
 10
-14.349451905068621
 20
-22.133642493365667
 30
0.0
  0
VERTEX
  8
0
 10
-14.600805134072923
 20
-22.470126600373877
 30
0.0
  0
VERTEX
  8
0
 10
-14.852158363077223
 20
-22.806610707382085
 30
0.0
  0
VERTEX
  8
0
 10
-15.103511592081523
 20
-23.143094814390295
 30
0.0
  0
VERTEX
  8
0
 10
-15.354864821085823
 20
-23.479578921398502
 30
0.0
  0
VERTEX
  8
0
 10
-15.606218050090124
 20
-23.816063028406713
 30
0.0
  0
VERTEX
  8
0
 10
-15.857571279094424
 20
-24.15254713541492
 30
0.0
  0
VERTEX
  8
0
 10
-16.108924508098724
 20
-24.48903124242313
 30
0.0
  0
VERTEX
  8
0
 10
-16.360277737103026
 20
-24.82551534943134
 30
0.0
  0
VERTEX
  8
0
 10
-16.611630966107327
 20
-25.16199945643955
 30
0.0
  0
VERTEX
  8
0
 10
-16.892034388614167
 20
-24.952538432269296
 30
0.0
  0
VERTEX
  8
0
 10
-17.172437811121007
 20
-24.743077408099047
 30
0.0
  0
VERTEX
  8
0
 10
-17.45284123362785
 20
-24.5336163839288
 30
0.0
  0
VERTEX
  8
0
 10
-17.73324465613469
 20
-24.324155359758546
 30
0.0
  0
VERTEX
  8
0
 10
-18.01364807864153
 20
-24.114694335588297
 30
0.0
  0
VERTEX
  8
0
 10
-18.29405150114837
 20
-23.905233311418048
 30
0.0
  0
VERTEX
  8
0
 10
-18.57445492365521
 20
-23.695772287247795
 30
0.0
  0
VERTEX
  8
0
 10
-18.854858346162054
 20
-23.486311263077546
 30
0.0
  0
VERTEX
  8
0
 10
-19.135261768668894
 20
-23.276850238907294
 30
0.0
  0
VERTEX
  8
0
 10
-19.415665191175734
 20
-23.067389214737045
 30
0.0
  0
SEQEND
  0
POLYLINE
  8
0
 66
1
 70
1
  0
VERTEX
  8
0
 10
-28.572683801599386
 20
8.219892966080526
 30
0.0
  0
VERTEX
  8
0
 10
-28.162919490225384
 20
8.127734357561343
 30
0.0
  0
VERTEX
  8
0
 10
-27.753155178851387
 20
8.035575749042161
 30
0.0
  0
VERTEX
  8
0
 10
-27.343390867477385
 20
7.943417140522979
 30
0.0
  0
VERTEX
  8
0
 10
-26.933626556103388
 20
7.851258532003797
 30
0.0
  0
VERTEX
  8
0
 10
-26.523862244729386
 20
7.759099923484615
 30
0.0
  0
VERTEX
  8
0
 10
-26.11409793335539
 20
7.666941314965434
 30
0.0
  0
VERTEX
  8
0
 10
-25.704333621981387
 20
7.574782706446252
 30
0.0
  0
VERTEX
  8
0
 10
-25.29456931060739
 20
7.4826240979270695
 30
0.0
  0
VERTEX
  8
0
 10
-24.88480499923339
 20
7.390465489407887
 30
0.0
  0
VERTEX
  8
0
 10
-24.923204418161628
 20
7.219730365395937
 30
0.0
  0
VERTEX
  8
0
 10
-24.961603837089864
 20
7.048995241383986
 30
0.0
  0
VERTEX
  8
0
 10
-25.000003256018104
 20
6.878260117372036
 30
0.0
  0
VERTEX
  8
0
 10
-25.038402674946344
 20
6.707524993360085
 30
0.0
  0
VERTEX
  8
0
 10
-25.07680209387458
 20
6.5367898693481346
 30
0.0
  0
VERTEX
  8
0
 10
-25.11520151280282
 20
6.366054745336184
 30
0.0
  0
VERTEX
  8
0
 10
-25.153600931731056
 20
6.1953196213242325
 30
0.0
  0
VERTEX
  8
0
 10
-25.192000350659296
 20
6.024584497312282
 30
0.0
  0
VERTEX
  8
0
 10
-25.230399769587535
 20
5.853849373300331
 30
0.0
  0
VERTEX
  8
0
 10
-25.26879918851577
 20
5.683114249288381
 30
0.0
  0
VERTEX
  8
0
 10
-25.307198610020187
 20
5.512379113821998
 30
0.0
  0
VERTEX
  8
0
 10
-25.3455980315246
 20
5.341643978355616
 30
0.0
  0
VERTEX
  8
0
 10
-25.38399745302901
 20
5.170908842889234
 30
0.0
  0
VERTEX
  8
0
 10
-25.422396874533426
 20
5.000173707422851
 30
0.0
  0
VERTEX
  8
0
 10
-25.460796296037838
 20
4.829438571956469
 30
0.0
  0
VERTEX
  8
0
 10
-25.499195717542253
 20
4.658703436490086
 30
0.0
  0
VERTEX
  8
0
 10
-25.537595139046665
 20
4.487968301023704
 30
0.0
  0
VERTEX
  8
0
 10
-25.575994560551077
 20
4.3172331655573215
 30
0.0
  0
VERTEX
  8
0
 10
-25.614393982055493
 20
4.146498030090939
 30
0.0
  0
VERTEX
  8
0
 10
-25.652793403559905
 20
3.9757628946245567
 30
0.0
  0
VERTEX
  8
0
 10
-26.062557714933906
 20
4.067921503143739
 30
0.0
  0
VERTEX
  8
0
 10
-26.472322026307904
 20
4.160080111662921
 30
0.0
  0
VERTEX
  8
0
 10
-26.882086337681905
 20
4.2522387201821035
 30
0.0
  0
VERTEX
  8
0
 10
-27.291850649055903
 20
4.344397328701285
 30
0.0
  0
VERTEX
  8
0
 10
-27.701614960429904
 20
4.436555937220467
 30
0.0
  0
VERTEX
  8
0
 10
-28.1113792718039
 20
4.528714545739649
 30
0.0
  0
VERTEX
  8
0
 10
-28.521143583177903
 20
4.620873154258831
 30
0.0
  0
VERTEX
  8
0
 10
-28.9309078945519
 20
4.713031762778013
 30
0.0
  0
VERTEX
  8
0
 10
-29.3406722059259
 20
4.805190371297195
 30
0.0
  0
VERTEX
  8
0
 10
-29.750436517299903
 20
4.897348979816377
 30
0.0
  0
VERTEX
  8
0
 10
-29.67363767686725
 20
5.2388192392947115
 30
0.0
  0
VERTEX
  8
0
 10
-29.5968388364346
 20
5.580289498773044
 30
0.0
  0
VERTEX
  8
0
 10
-29.520039996001948
 20
5.921759758251378
 30
0.0
  0
VERTEX
  8
0
 10
-29.443241155569297
 20
6.26323001772971
 30
0.0
  0
VERTEX
  8
0
 10
-29.366442315136645
 20
6.604700277208043
 30
0.0
  0
VERTEX
  8
0
 10
-29.289643474703993
 20
6.946170536686376
 30
0.0
  0
VERTEX
  8
0
 10
-29.21284463427134
 20
7.287640796164709
 30
0.0
  0
VERTEX
  8
0
 10
-29.13604579383869
 20
7.629111055643042
 30
0.0
  0
VERTEX
  8
0
 10
-29.05924695340604
 20
7.970581315121375
 30
0.0
  0
VERTEX
  8
0
 10
-28.982448112973387
 20
8.312051574599709
 30
0.0
  0
SEQEND
  0
POLYLINE
  8
0
 66
1
 70
1
  0
VERTEX
  8
0
 10
-4.155687472426132
 20
29.439686846695913
 30
0.0
  0
VERTEX
  8
0
 10
-4.07260577134434
 20
29.027986189730985
 30
0.0
  0
VERTEX
  8
0
 10
-3.989524070262547
 20
28.616285532766053
 30
0.0
  0
VERTEX
  8
0
 10
-3.9064423691807546
 20
28.20458487580112
 30
0.0
  0
VERTEX
  8
0
 10
-3.823360668098962
 20
27.792884218836193
 30
0.0
  0
VERTEX
  8
0
 10
-3.740278967017169
 20
27.38118356187126
 30
0.0
  0
VERTEX
  8
0
 10
-3.6571972659353764
 20
26.96948290490633
 30
0.0
  0
VERTEX
  8
0
 10
-3.574115564853584
 20
26.557782247941397
 30
0.0
  0
VERTEX
  8
0
 10
-3.4910338637717913
 20
26.14608159097647
 30
0.0
  0
VERTEX
  8
0
 10
-3.4079521626899987
 20
25.734380934011536
 30
0.0
  0
VERTEX
  8
0
 10
-3.57949411081286
 20
25.699763557002722
 30
0.0
  0
VERTEX
  8
0
 10
-3.751036058935722
 20
25.665146179993904
 30
0.0
  0
VERTEX
  8
0
 10
-3.9225780070585836
 20
25.63052880298509
 30
0.0
  0
VERTEX
  8
0
 10
-4.094119955181445
 20
25.595911425976276
 30
0.0
  0
VERTEX
  8
0
 10
-4.265661903304307
 20
25.56129404896746
 30
0.0
  0
VERTEX
  8
0
 10
-4.437203851427169
 20
25.526676671958644
 30
0.0
  0
VERTEX
  8
0
 10
-4.6087457995500305
 20
25.49205929494983
 30
0.0
  0
VERTEX
  8
0
 10
-4.780287747672892
 20
25.457441917941015
 30
0.0
  0
VERTEX
  8
0
 10
-4.9518296957957535
 20
25.422824540932197
 30
0.0
  0
VERTEX
  8
0
 10
-5.123371643918615
 20
25.388207163923383
 30
0.0
  0
VERTEX
  8
0
 10
-5.294913576599862
 20
25.353589790030703
 30
0.0
  0
VERTEX
  8
0
 10
-5.46645550928111
 20
25.318972416138028
 30
0.0
  0
VERTEX
  8
0
 10
-5.637997441962357
 20
25.28435504224535
 30
0.0
  0
VERTEX
  8
0
 10
-5.809539374643604
 20
25.24973766835267
 30
0.0
  0
VERTEX
  8
0
 10
-5.981081307324852
 20
25.21512029445999
 30
0.0
  0
VERTEX
  8
0
 10
-6.152623240006099
 20
25.180502920567314
 30
0.0
  0
VERTEX
  8
0
 10
-6.324165172687347
 20
25.145885546674634
 30
0.0
  0
VERTEX
  8
0
 10
-6.495707105368595
 20
25.111268172781955
 30
0.0
  0
VERTEX
  8
0
 10
-6.667249038049842
 20
25.076650798889276
 30
0.0
  0
VERTEX
  8
0
 10
-6.83879097073109
 20
25.042033424996596
 30
0.0
  0
VERTEX
  8
0
 10
-6.921872671812882
 20
25.45373408196153
 30
0.0
  0
VERTEX
  8
0
 10
-7.004954372894675
 20
25.86543473892646
 30
0.0
  0
VERTEX
  8
0
 10
-7.088036073976467
 20
26.277135395891392
 30
0.0
  0
VERTEX
  8
0
 10
-7.17111777505826
 20
26.688836052856324
 30
0.0
  0
VERTEX
  8
0
 10
-7.254199476140053
 20
27.100536709821256
 30
0.0
  0
VERTEX
  8
0
 10
-7.337281177221845
 20
27.512237366786184
 30
0.0
  0
VERTEX
  8
0
 10
-7.420362878303638
 20
27.923938023751116
 30
0.0
  0
VERTEX
  8
0
 10
-7.50344457938543
 20
28.33563868071605
 30
0.0
  0
VERTEX
  8
0
 10
-7.586526280467223
 20
28.747339337680977
 30
0.0
  0
VERTEX
  8
0
 10
-7.6696079815490155
 20
29.15903999464591
 30
0.0
  0
VERTEX
  8
0
 10
-7.326524100744907
 20
29.228274745547406
 30
0.0
  0
VERTEX
  8
0
 10
-6.983440219940798
 20
29.2975094964489
 30
0.0
  0
VERTEX
  8
0
 10
-6.640356339136689
 20
29.366744247350393
 30
0.0
  0
VERTEX
  8
0
 10
-6.29727245833258
 20
29.435978998251887
 30
0.0
  0
VERTEX
  8
0
 10
-5.9541885775284715
 20
29.50521374915338
 30
0.0
  0
VERTEX
  8
0
 10
-5.611104696724362
 20
29.574448500054874
 30
0.0
  0
VERTEX
  8
0
 10
-5.268020815920253
 20
29.643683250956368
 30
0.0
  0
VERTEX
  8
0
 10
-4.924936935116144
 20
29.71291800185786
 30
0.0
  0
VERTEX
  8
0
 10
-4.581853054312035
 20
29.782152752759355
 30
0.0
  0
VERTEX
  8
0
 10
-4.238769173507926
 20
29.85138750366085
 30
0.0
  0
SEQEND
  0
ENDSEC
  0
EOF
